<svg id="Layer_1" data-name="Layer 1" xmlns="http://www.w3.org/2000/svg" viewBox="0 0 36.18 42"><metadata><?xpacket begin="﻿" id="W5M0MpCehiHzreSzNTczkc9d"?>
<x:xmpmeta xmlns:x="adobe:ns:meta/" x:xmptk="Adobe XMP Core 6.0-c006 79.164648, 2021/01/12-15:52:29        ">
   <rdf:RDF xmlns:rdf="http://www.w3.org/1999/02/22-rdf-syntax-ns#">
      <rdf:Description rdf:about=""
            xmlns:dc="http://purl.org/dc/elements/1.1/"
            xmlns:xmpRights="http://ns.adobe.com/xap/1.0/rights/"
            xmlns:xmp="http://ns.adobe.com/xap/1.0/"
            xmlns:xmpMM="http://ns.adobe.com/xap/1.0/mm/"
            xmlns:stEvt="http://ns.adobe.com/xap/1.0/sType/ResourceEvent#">
         <dc:rights>
            <rdf:Alt>
               <rdf:li xml:lang="x-default">Oracle All Rights Reserved</rdf:li>
            </rdf:Alt>
         </dc:rights>
         <dc:subject>
            <rdf:Bag>
               <rdf:li>Data Management</rdf:li>
               <rdf:li>server</rdf:li>
               <rdf:li>machine</rdf:li>
               <rdf:li>DMS</rdf:li>
               <rdf:li>Database</rdf:li>
               <rdf:li>System</rdf:li>
               <rdf:li>Migration</rdf:li>
               <rdf:li>icon</rdf:li>
            </rdf:Bag>
         </dc:subject>
         <xmpRights:Marked>True</xmpRights:Marked>
         <xmp:MetadataDate>2023-01-18T10:50:20-06:00</xmp:MetadataDate>
         <xmpMM:InstanceID>xmp.iid:88194020-f319-4f82-aeb7-1d7c6c394c94</xmpMM:InstanceID>
         <xmpMM:DocumentID>xmp.did:1c691e40-249a-4ac6-83c9-f8cab78551ed</xmpMM:DocumentID>
         <xmpMM:OriginalDocumentID>xmp.did:1c691e40-249a-4ac6-83c9-f8cab78551ed</xmpMM:OriginalDocumentID>
         <xmpMM:History>
            <rdf:Seq>
               <rdf:li>
                  <rdf:Description>
                     <stEvt:action>saved</stEvt:action>
                     <stEvt:instanceID>xmp.iid:1c691e40-249a-4ac6-83c9-f8cab78551ed</stEvt:instanceID>
                     <stEvt:when>2023-01-18T10:49:28-06:00</stEvt:when>
                     <stEvt:softwareAgent>Adobe Bridge 2021 (Macintosh)</stEvt:softwareAgent>
                     <stEvt:changed>/metadata</stEvt:changed>
                  </rdf:Description>
               </rdf:li>
               <rdf:li>
                  <rdf:Description>
                     <stEvt:action>saved</stEvt:action>
                     <stEvt:instanceID>xmp.iid:88194020-f319-4f82-aeb7-1d7c6c394c94</stEvt:instanceID>
                     <stEvt:when>2023-01-18T10:50:20-06:00</stEvt:when>
                     <stEvt:softwareAgent>Adobe Bridge 2021 (Macintosh)</stEvt:softwareAgent>
                     <stEvt:changed>/metadata</stEvt:changed>
                  </rdf:Description>
               </rdf:li>
            </rdf:Seq>
         </xmpMM:History>
      </rdf:Description>
   </rdf:RDF>
</x:xmpmeta>
                                                                                                    
                                                                                                    
                                                                                                    
                                                                                                    
                                                                                                    
                                                                                                    
                                                                                                    
                                                                                                    
                                                                                                    
                                                                                                    
                                                                                                    
               
<?xpacket end="w"?></metadata>
<path d="M6.65,24.75V22.67a7,7,0,0,1,6.65-6.94L12,14.37l1.68-1.66,3.92,4v.41l-.14.16-3.78,3.82L12,19.41l1.28-1.31A4.6,4.6,0,0,0,9,22.67v2.08Z" fill="#fff"/><path d="M13.64,13.42l3.42,3.47h0l-3.42,3.46-1-1,1.79-1.81H13.6a5.09,5.09,0,0,0-5.08,5.08v1.58H7.15V22.67a6.46,6.46,0,0,1,6.45-6.45h.89l-1.83-1.84,1-1m0-1.42-.72.7-1,1-.71.71.7.71.27.27a7.47,7.47,0,0,0-6.07,7.32v2.58H9.52V22.67a4.08,4.08,0,0,1,2-3.48l-.22.22.71.71,1,1,.72.7.7-.71,3.42-3.47.29-.29v-.83l-.29-.3-3.42-3.47-.7-.71Z" fill="#fff"/><path d="M25.18,22.15c-2.18,0-7.25-.26-7.25-2.64V12.45H13.16l.1-1.27a5.7,5.7,0,0,1,3.07-4.63A.84.84,0,0,0,16.72,6a4.46,4.46,0,0,1,2.57-3.18,4.42,4.42,0,0,1,1.79-.37,4,4,0,0,1,.49,0h0a.68.68,0,0,0,.53-.24A5.38,5.38,0,0,1,26,.5a5.32,5.32,0,0,1,4.79,3,.86.86,0,0,0,.55.44,5.33,5.33,0,0,1,1.75.71A5.49,5.49,0,0,1,35,11.83l-.34.62H32.42v7.06C32.42,21.89,27.36,22.15,25.18,22.15Z" fill="#fff"/><path d="M26,1a4.81,4.81,0,0,1,4.34,2.69,1.38,1.38,0,0,0,.9.7A5.05,5.05,0,0,1,32.86,5a5,5,0,0,1,1.73,6.56l-.2.36H31.92v7.56c0,2-5.62,2.14-6.74,2.14s-6.75-.1-6.75-2.14V12H13.7l.06-.73A5.21,5.21,0,0,1,16.55,7a1.32,1.32,0,0,0,.66-.92,3.94,3.94,0,0,1,3.87-3.15,3.31,3.31,0,0,1,.44,0h.1a1.2,1.2,0,0,0,.86-.4A4.9,4.9,0,0,1,26,1m0-1a5.86,5.86,0,0,0-4.29,1.87.24.24,0,0,1-.13.08,4.89,4.89,0,0,0-.54,0,4.95,4.95,0,0,0-4.85,4,.36.36,0,0,1-.13.23,6.25,6.25,0,0,0-3.34,5l0,.74L12.63,13h4.8v6.56c0,1.43,1.34,3.14,7.75,3.14,3.53,0,7.74-.54,7.74-3.14V13H35l.28-.52.2-.36a6,6,0,0,0-2.08-7.88,5.87,5.87,0,0,0-1.9-.78.33.33,0,0,1-.21-.17A5.83,5.83,0,0,0,26,0Z" fill="#fff"/><path d="M8,41.5l0-.5-.08.5h0C5.56,41.5.5,41.24.5,38.86V28.23c0-2.53,5.55-2.72,7.25-2.72S15,25.7,15,28.23V31a4.53,4.53,0,0,1,.52,0,5.29,5.29,0,1,1,0,10.57,5.14,5.14,0,0,1-2.4-.6A20.32,20.32,0,0,1,8,41.5Z" fill="#fff"/><path d="M7.75,26c.69,0,6.75.06,6.75,2.22v3.32a4.31,4.31,0,0,1,1-.12,4.79,4.79,0,1,1,0,9.57,4.71,4.71,0,0,1-2.35-.65A18.72,18.72,0,0,1,8,41H7.75C6.62,41,1,40.9,1,38.86V28.23C1,26.07,7.06,26,7.75,26m0-1C4.85,25,0,25.42,0,28.23V38.86C0,40.29,1.34,42,7.75,42H8a20.83,20.83,0,0,0,5-.57,5.6,5.6,0,0,0,2.45.57,5.79,5.79,0,1,0,0-11.57h0v-2.2c0-2.81-4.86-3.22-7.75-3.22Z" fill="#fff"/><path d="M8.52,22.67a5.09,5.09,0,0,1,5.08-5.08h.85L12.66,19.4l1,1,3.42-3.46h0l-3.42-3.47-1,1,1.83,1.84H13.6a6.46,6.46,0,0,0-6.45,6.45v1.58H8.52Z" fill="#2c5967"/><path d="M25.18,6.66c-.69,0-6.75.06-6.75,2.22V19.51c0,2,5.62,2.14,6.75,2.14s6.74-.1,6.74-2.14V8.88C31.92,6.72,25.87,6.66,25.18,6.66ZM30.56,19.4c-.37.32-2.25.88-5.38.88s-5-.56-5.39-.88v-2a17.86,17.86,0,0,0,5.39.73,17.81,17.81,0,0,0,5.38-.73ZM30.45,8.88a12.07,12.07,0,0,1-5.27.85,12.1,12.1,0,0,1-5.28-.85c.54-.35,2.35-.86,5.28-.86S29.91,8.53,30.45,8.88Zm-5.27,7.9c-3.14,0-5-.56-5.39-.88V13.83a17.86,17.86,0,0,0,5.39.73,17.81,17.81,0,0,0,5.38-.73V15.9C30.19,16.22,28.31,16.78,25.18,16.78Zm5.38-4.47c-.37.32-2.25.88-5.38.88s-5-.56-5.39-.88v-2a17.41,17.41,0,0,0,5.39.78,17.36,17.36,0,0,0,5.38-.78Z" fill="#2c5967"/><path d="M32.86,5a5.05,5.05,0,0,0-1.58-.64,1.38,1.38,0,0,1-.9-.7A4.81,4.81,0,0,0,26,1a4.9,4.9,0,0,0-3.56,1.55,1.16,1.16,0,0,1-1,.39,3.92,3.92,0,0,0-2,.31,4,4,0,0,0-2.28,2.82,1.32,1.32,0,0,1-.66.92,5.21,5.21,0,0,0-2.79,4.23L13.7,12h3.7V10.59H15.25A3.87,3.87,0,0,1,17.18,8.2a2.62,2.62,0,0,0,1.36-1.85A2.63,2.63,0,0,1,20,4.5a2.59,2.59,0,0,1,1.32-.2,2.52,2.52,0,0,0,2.12-.82,3.5,3.5,0,0,1,5.68.82A2.69,2.69,0,0,0,31,5.72a3.67,3.67,0,0,1,1.14.47,3.6,3.6,0,0,1,1.42,4.4H33V12h1.44l.2-.36A5,5,0,0,0,32.86,5Z" fill="#2c5967"/><path d="M14.5,28.23C14.5,26.07,8.44,26,7.75,26S1,26.07,1,28.23V38.86C1,40.9,6.62,41,7.75,41a22.82,22.82,0,0,0,4-.35,5.65,5.65,0,0,1-1.08-1.21,20.35,20.35,0,0,1-2.95.19c-3.13,0-5-.56-5.38-.88v-2a17.81,17.81,0,0,0,5.38.73c.35,0,1.16,0,2.09-.09a5.78,5.78,0,0,1-.13-1.19c0-.05,0-.11,0-.17-.59.05-1.25.09-2,.09-3.14,0-5-.56-5.38-.88V33.18a17.81,17.81,0,0,0,5.38.73c.41,0,1.4,0,2.5-.13a6,6,0,0,1,1-1.52,20.15,20.15,0,0,1-3.52.28c-3.13,0-5-.56-5.38-.88v-2a17.36,17.36,0,0,0,5.38.78,17.36,17.36,0,0,0,5.38-.78v1.25a5.73,5.73,0,0,1,1.37-.42Zm-12,0c.53-.35,2.34-.86,5.27-.86s4.74.51,5.27.86a12,12,0,0,1-5.27.85C4.82,29.08,3,28.57,2.48,28.23Z" fill="#2c5967"/><path d="M15.52,31.43a4.79,4.79,0,1,0,4.79,4.78A4.79,4.79,0,0,0,15.52,31.43Zm0,8.2a3.42,3.42,0,1,1,3.42-3.42A3.42,3.42,0,0,1,15.52,39.63Z" fill="#2c5967"/><path d="M16,36V34.51a.69.69,0,0,0-.69-.69.68.68,0,0,0-.68.69v1.72a.71.71,0,0,0,.19.48l.9.93a.69.69,0,0,0,.49.2.66.66,0,0,0,.48-.19.68.68,0,0,0,0-1Z" fill="#2c5967"/></svg>