<svg id="Layer_1" data-name="Layer 1" xmlns="http://www.w3.org/2000/svg" viewBox="0 0 52 42"><metadata><?xpacket begin="﻿" id="W5M0MpCehiHzreSzNTczkc9d"?>
<x:xmpmeta xmlns:x="adobe:ns:meta/" x:xmptk="Adobe XMP Core 6.0-c006 79.164648, 2021/01/12-15:52:29        ">
   <rdf:RDF xmlns:rdf="http://www.w3.org/1999/02/22-rdf-syntax-ns#">
      <rdf:Description rdf:about=""
            xmlns:dc="http://purl.org/dc/elements/1.1/"
            xmlns:xmp="http://ns.adobe.com/xap/1.0/"
            xmlns:xmpMM="http://ns.adobe.com/xap/1.0/mm/"
            xmlns:stEvt="http://ns.adobe.com/xap/1.0/sType/ResourceEvent#">
         <dc:subject>
            <rdf:Bag>
               <rdf:li>Storage</rdf:li>
               <rdf:li>Object</rdf:li>
               <rdf:li>icon</rdf:li>
               <rdf:li>shape</rdf:li>
               <rdf:li>triangle</rdf:li>
               <rdf:li>hexagon</rdf:li>
               <rdf:li>circle</rdf:li>
               <rdf:li>backup</rdf:li>
               <rdf:li>multiple</rdf:li>
               <rdf:li>copy</rdf:li>
               <rdf:li>plural</rdf:li>
               <rdf:li>many</rdf:li>
            </rdf:Bag>
         </dc:subject>
         <xmp:MetadataDate>2022-12-16T16:39:23-06:00</xmp:MetadataDate>
         <xmpMM:InstanceID>xmp.iid:e1cc352b-8d54-433e-bcc6-52fd16e3c0df</xmpMM:InstanceID>
         <xmpMM:DocumentID>xmp.did:7326b6bc-2c4d-4653-a839-f5a78e417526</xmpMM:DocumentID>
         <xmpMM:OriginalDocumentID>xmp.did:7326b6bc-2c4d-4653-a839-f5a78e417526</xmpMM:OriginalDocumentID>
         <xmpMM:History>
            <rdf:Seq>
               <rdf:li>
                  <rdf:Description>
                     <stEvt:action>saved</stEvt:action>
                     <stEvt:instanceID>xmp.iid:7326b6bc-2c4d-4653-a839-f5a78e417526</stEvt:instanceID>
                     <stEvt:when>2022-12-16T14:35:08-06:00</stEvt:when>
                     <stEvt:softwareAgent>Adobe Bridge 2021 (Macintosh)</stEvt:softwareAgent>
                     <stEvt:changed>/metadata</stEvt:changed>
                  </rdf:Description>
               </rdf:li>
               <rdf:li>
                  <rdf:Description>
                     <stEvt:action>saved</stEvt:action>
                     <stEvt:instanceID>xmp.iid:e1cc352b-8d54-433e-bcc6-52fd16e3c0df</stEvt:instanceID>
                     <stEvt:when>2022-12-16T16:39:23-06:00</stEvt:when>
                     <stEvt:softwareAgent>Adobe Bridge 2021 (Macintosh)</stEvt:softwareAgent>
                     <stEvt:changed>/metadata</stEvt:changed>
                  </rdf:Description>
               </rdf:li>
            </rdf:Seq>
         </xmpMM:History>
      </rdf:Description>
   </rdf:RDF>
</x:xmpmeta>
                                                                                                    
                                                                                                    
                                                                                                    
                                                                                                    
                                                                                                    
                                                                                                    
                                                                                                    
                                                                                                    
                                                                                                    
                                                                                                    
                                                                                                    
                                                                                                    
                                                                                                    
                                                                                                    
                                                
<?xpacket end="w"?></metadata>
<g id="OCI-Object-Storage"><rect x="0.5" y="0.5" width="41" height="41" rx="2.17" fill="#fff"/><path d="M39.33,1A1.67,1.67,0,0,1,41,2.67V39.33A1.67,1.67,0,0,1,39.33,41H2.67A1.67,1.67,0,0,1,1,39.33V2.67A1.67,1.67,0,0,1,2.67,1H39.33m0-1H2.67A2.68,2.68,0,0,0,0,2.67V39.33A2.68,2.68,0,0,0,2.67,42H39.33A2.68,2.68,0,0,0,42,39.33V2.67A2.68,2.68,0,0,0,39.33,0Z" fill="#fff"/><path d="M30.44,11.65l2.71,4.72-2.73,4.72H25l-2.71-4.72L25,11.65h5.45m.86-1.48H24.14l-3.59,6.2,3.56,6.2h7.16l3.6-6.2-3.57-6.2Z" fill="#2c5967"/><path d="M20.72,25.94A4.69,4.69,0,1,1,16,30.63a4.7,4.7,0,0,1,4.68-4.69m0-1.48a6.17,6.17,0,1,0,6.18,6.17,6.17,6.17,0,0,0-6.18-6.17Z" fill="#2c5967"/><path d="M13.6,12.83,18,20.76H9.26l4.34-7.93m0-3.08L6.76,22.24H20.49L13.59,9.75Z" fill="#2c5967"/><path d="M39.33,41H2.67A1.67,1.67,0,0,1,1,39.33V5H41V39.33A1.67,1.67,0,0,1,39.33,41ZM2.48,6.47V39.33a.18.18,0,0,0,.19.19H39.33a.18.18,0,0,0,.19-.19V6.47Z" fill="#2c5967"/><path d="M41,3.87H1V2.67A1.67,1.67,0,0,1,2.67,1H39.33A1.67,1.67,0,0,1,41,2.67Z" fill="#2c5967"/><rect x="5.5" y="0.5" width="41" height="41" rx="2.17" fill="#fff"/><path d="M44.33,1A1.67,1.67,0,0,1,46,2.67V39.33A1.67,1.67,0,0,1,44.33,41H7.67A1.67,1.67,0,0,1,6,39.33V2.67A1.67,1.67,0,0,1,7.67,1H44.33m0-1H7.67A2.68,2.68,0,0,0,5,2.67V39.33A2.68,2.68,0,0,0,7.67,42H44.33A2.68,2.68,0,0,0,47,39.33V2.67A2.68,2.68,0,0,0,44.33,0Z" fill="#fff"/><path d="M35.44,11.65l2.71,4.72-2.73,4.72H30l-2.71-4.72L30,11.65h5.45m.86-1.48H29.14l-3.59,6.2,3.56,6.2h7.16l3.6-6.2-3.57-6.2Z" fill="#2c5967"/><path d="M25.72,25.94A4.69,4.69,0,1,1,21,30.63a4.7,4.7,0,0,1,4.68-4.69m0-1.48a6.17,6.17,0,1,0,6.18,6.17,6.17,6.17,0,0,0-6.18-6.17Z" fill="#2c5967"/><path d="M18.6,12.83,23,20.76H14.26l4.34-7.93m0-3.08L11.76,22.24H25.49L18.59,9.75Z" fill="#2c5967"/><path d="M44.33,41H7.67A1.67,1.67,0,0,1,6,39.33V5H46V39.33A1.67,1.67,0,0,1,44.33,41ZM7.48,6.47V39.33a.18.18,0,0,0,.19.19H44.33a.18.18,0,0,0,.19-.19V6.47Z" fill="#2c5967"/><path d="M46,3.87H6V2.67A1.67,1.67,0,0,1,7.67,1H44.33A1.67,1.67,0,0,1,46,2.67Z" fill="#2c5967"/><rect x="10.5" y="0.5" width="41" height="41" rx="2.17" fill="#fff"/><path d="M49.33,1A1.67,1.67,0,0,1,51,2.67V39.33A1.67,1.67,0,0,1,49.33,41H12.67A1.67,1.67,0,0,1,11,39.33V2.67A1.67,1.67,0,0,1,12.67,1H49.33m0-1H12.67A2.68,2.68,0,0,0,10,2.67V39.33A2.68,2.68,0,0,0,12.67,42H49.33A2.68,2.68,0,0,0,52,39.33V2.67A2.68,2.68,0,0,0,49.33,0Z" fill="#fff"/><path d="M40.44,11.65l2.71,4.72-2.73,4.72H35l-2.71-4.72L35,11.65h5.45m.86-1.48H34.14l-3.59,6.2,3.56,6.2h7.16l3.6-6.2-3.57-6.2Z" fill="#2c5967"/><path d="M30.72,25.94A4.69,4.69,0,1,1,26,30.63a4.7,4.7,0,0,1,4.68-4.69m0-1.48a6.17,6.17,0,1,0,6.18,6.17,6.17,6.17,0,0,0-6.18-6.17Z" fill="#2c5967"/><path d="M23.6,12.83,28,20.76H19.26l4.34-7.93m0-3.08L16.76,22.24H30.49L23.59,9.75Z" fill="#2c5967"/><path d="M49.33,41H12.67A1.67,1.67,0,0,1,11,39.33V5H51V39.33A1.67,1.67,0,0,1,49.33,41ZM12.48,6.47V39.33a.18.18,0,0,0,.19.19H49.33a.18.18,0,0,0,.19-.19V6.47Z" fill="#2c5967"/><path d="M51,3.87H11V2.67A1.67,1.67,0,0,1,12.67,1H49.33A1.67,1.67,0,0,1,51,2.67Z" fill="#2c5967"/></g></svg>