<svg width="36" height="36" viewBox="0 0 36 36" fill="none" xmlns="http://www.w3.org/2000/svg">
<metadata><?xpacket begin="﻿" id="W5M0MpCehiHzreSzNTczkc9d"?>
<x:xmpmeta xmlns:x="adobe:ns:meta/" x:xmptk="Adobe XMP Core 7.1-c000 79.4d2f597, 2021/09/01-20:51:22        ">
   <rdf:RDF xmlns:rdf="http://www.w3.org/1999/02/22-rdf-syntax-ns#">
      <rdf:Description rdf:about=""
            xmlns:dc="http://purl.org/dc/elements/1.1/"
            xmlns:xmpRights="http://ns.adobe.com/xap/1.0/rights/"
            xmlns:xmp="http://ns.adobe.com/xap/1.0/"
            xmlns:xmpMM="http://ns.adobe.com/xap/1.0/mm/"
            xmlns:stEvt="http://ns.adobe.com/xap/1.0/sType/ResourceEvent#">
         <dc:subject>
            <rdf:Bag>
               <rdf:li>icon</rdf:li>
               <rdf:li>database</rdf:li>
               <rdf:li>server</rdf:li>
               <rdf:li>technology</rdf:li>
               <rdf:li>automatic storage management</rdf:li>
               <rdf:li>disk</rdf:li>
               <rdf:li>group</rdf:li>
               <rdf:li>administration</rdf:li>
            </rdf:Bag>
         </dc:subject>
         <dc:rights>
            <rdf:Alt>
               <rdf:li xml:lang="x-default">Oracle All Rights&#xA;</rdf:li>
            </rdf:Alt>
         </dc:rights>
         <xmpRights:Marked>True</xmpRights:Marked>
         <xmp:MetadataDate>2025-02-05T14:46:56-06:00</xmp:MetadataDate>
         <xmpMM:InstanceID>xmp.iid:0b670a34-97e6-4503-923d-96e683589b95</xmpMM:InstanceID>
         <xmpMM:DocumentID>xmp.did:0b670a34-97e6-4503-923d-96e683589b95</xmpMM:DocumentID>
         <xmpMM:OriginalDocumentID>xmp.did:0b670a34-97e6-4503-923d-96e683589b95</xmpMM:OriginalDocumentID>
         <xmpMM:History>
            <rdf:Seq>
               <rdf:li>
                  <rdf:Description>
                     <stEvt:action>saved</stEvt:action>
                     <stEvt:instanceID>xmp.iid:0b670a34-97e6-4503-923d-96e683589b95</stEvt:instanceID>
                     <stEvt:when>2025-02-05T14:46:56-06:00</stEvt:when>
                     <stEvt:softwareAgent>Adobe Bridge 2023</stEvt:softwareAgent>
                     <stEvt:changed>/metadata</stEvt:changed>
                  </rdf:Description>
               </rdf:li>
            </rdf:Seq>
         </xmpMM:History>
      </rdf:Description>
   </rdf:RDF>
</x:xmpmeta>
                                                                                                    
                                                                                                    
                                                                                                    
                                                                                                    
                                                                                                    
                                                                                                    
                                                                                                    
                                                                                                    
                                                                                                    
                                                                                                    
                                                                                                    
                                                                                                    
                                                                                                    
                                                                                                    
                                                                                                    
                                                                                                    
                                                                                                    
                                                                                                    
                                                                                                    
                                                                                                    
                           
<?xpacket end="w"?></metadata>
<path d="M18.0497 35.5716C16.1142 35.5716 11.6134 35.3487 11.6134 33.2813V23.377H11.6314C11.879 21.8924 14.6173 21.445 17.0901 21.3481V20.581C16.726 20.389 16.4244 20.089 16.229 19.7264H4.78545V16.1753H2.32812V0.428711H9.19288V16.1753H6.73555V17.7773H12.9954V16.1753H10.5209V0.428711H17.3857V16.1753H14.9438V17.7773H16.229C16.5854 17.113 17.2829 16.6844 18.0497 16.6844C18.8166 16.6844 19.514 17.113 19.8704 17.7773H21.1719V16.1753H18.7146V0.428711H25.5794V16.1753H23.1212V17.7773H29.3647V16.1753H26.9074V0.428711H33.7722V16.1753H31.3148V19.7264H19.8704C19.6802 20.0813 19.3923 20.3719 19.0402 20.5639V21.3499C21.6183 21.4544 24.4852 21.9439 24.4852 23.6007C24.4852 23.6384 24.4835 23.6761 24.4792 23.7147L24.4852 23.8056V30.0584C24.4852 30.1227 24.4801 30.187 24.4706 30.2504L24.4852 30.3619V33.2804C24.4852 35.3487 19.9844 35.5716 18.0497 35.5716Z" fill="white"/>
<path d="M33.3421 0.857143V15.7466H30.884V19.2977H19.5921C19.4293 19.7571 19.0677 20.1214 18.611 20.2894V21.7646C20.2492 21.8066 24.0569 22.0697 24.0569 23.6006C24.0569 23.6717 24.0458 23.7394 24.0303 23.8054H24.0569V26.8869C24.0569 26.9066 24.0552 26.9271 24.0543 26.9469H24.0569V30.0583C24.0569 30.1654 24.0372 30.2666 24.0021 30.3617H24.0569V33.2803C24.0569 35.0897 18.6641 35.142 18.049 35.142C17.4338 35.142 12.041 35.0897 12.041 33.2803V30.3617H12.0958C12.0599 30.2666 12.041 30.1654 12.041 30.0583V26.9469H12.0436C12.0419 26.9271 12.041 26.9066 12.041 26.8869V23.8054H12.0676C12.0513 23.7394 12.041 23.6717 12.041 23.6006C12.041 22.0594 15.8984 21.8031 17.5186 21.7637V20.3006C17.0465 20.1386 16.6729 19.7674 16.5058 19.2977H5.21481V15.7466H2.75662V0.857143H8.76457V15.7466H6.30638V18.2057H13.423V15.7466H10.9494V0.857143H16.9574V15.7466H14.5155V18.2057H16.5067C16.732 17.5697 17.3378 17.1129 18.0498 17.1129C18.7618 17.1129 19.3667 17.5697 19.5929 18.2057H21.6004V15.7466H19.1422V0.857143H25.1502V15.7466H22.692V18.2057H29.7924V15.7466H27.3342V0.857143H33.3421ZM34.199 0H33.3421H27.3342H26.4774V0.857143V15.7466V16.6037H27.3342H28.9356V17.3486H23.5488V16.6037H25.1502H26.007V15.7466V0.857143V0H25.1502H19.1422H18.2854V0.857143V15.7466V16.2669C18.2075 16.2591 18.1295 16.2557 18.0498 16.2557C17.9701 16.2557 17.8922 16.2591 17.8142 16.2669V15.7466V0.857143V0H16.9574H10.9494H10.0926V0.857143V15.7466V16.6037H10.9494H12.5662V17.3486H7.16319V16.6037H8.76457H9.62138V15.7466V0.857143V0H8.76457H2.75662H1.89981V0.857143V15.7466V16.6037H2.75662H4.358V19.2977V20.1549H5.21481H15.99C16.17 20.4171 16.3987 20.6451 16.6626 20.8226V20.9391C13.5644 21.108 11.7685 21.7817 11.3059 22.9483H11.2125L11.1988 23.3709C11.1893 23.4454 11.1851 23.5217 11.1851 23.6006C11.1851 23.634 11.1859 23.6674 11.1885 23.7017L11.1851 23.8063V26.8877C11.1851 26.8937 11.1851 26.8997 11.1851 26.9057V26.9477V30.0591V30.3626V33.2811C11.1851 35.6469 15.4862 36 18.0498 36C20.6134 36 24.9146 35.6469 24.9146 33.2811V30.3626V30.0591V26.9477V26.8877V23.8063V23.6014V22.9491H24.7938C24.3319 21.7877 22.5463 21.1149 19.4687 20.9417V20.8029C19.7214 20.628 19.9391 20.4094 20.1113 20.1549H30.8848H31.7416V19.2977V16.6037H33.343H34.1998V15.7466V0.857143V0H34.199ZM19.317 16.6037H20.7428V17.3486H20.1104C19.9022 17.0426 19.6306 16.7889 19.317 16.6037ZM15.3723 16.6037H16.7826C16.469 16.7897 16.1974 17.0434 15.9892 17.3486H15.3731V16.6037H15.3723Z" fill="white"/>
<path d="M27.3342 0.856934V15.7464H29.7924V18.2055H22.692V15.7464H25.1502V0.856934H19.1423V15.7464H21.6005V18.2055H19.593C19.3676 17.5695 18.7619 17.1126 18.0498 17.1126C17.3378 17.1126 16.7329 17.5695 16.5067 18.2055H14.5155V15.7464H16.9574V0.856934H10.9495V15.7464H13.4231V18.2055H6.30641V15.7464H8.7646V0.856934H2.75665V15.7464H5.21484V19.2975H16.5067C16.6738 19.7672 17.0474 20.1384 17.5195 20.3004V21.7626C15.8993 21.8021 12.0419 22.0584 12.0419 23.5995C12.0419 23.6706 12.053 23.7384 12.0693 23.8044H12.0419V26.8858C12.0419 26.9064 12.0436 26.9261 12.0445 26.9458H12.0419V30.0572C12.0419 30.1644 12.0616 30.2655 12.0967 30.3606H12.0419V33.2792C12.0419 35.0886 17.4347 35.1409 18.0498 35.1409C18.665 35.1409 24.0578 35.0886 24.0578 33.2792V30.3606H24.003C24.0389 30.2655 24.0578 30.1644 24.0578 30.0572V26.9458H24.0552C24.0569 26.9261 24.0578 26.9055 24.0578 26.8858V23.8044H24.0304C24.0467 23.7384 24.0578 23.6706 24.0578 23.5995C24.0578 22.0686 20.251 21.8055 18.6119 21.7635V20.2884C19.0686 20.1204 19.4293 19.7561 19.593 19.2975H30.8848V15.7464H33.343V0.856934H27.3342ZM3.84908 14.6535V1.94979H7.67217V14.6535H3.84908ZM12.0419 14.6535V1.94979H15.865V14.6535H12.0419ZM17.5032 18.7506C17.5032 18.4498 17.7482 18.2046 18.049 18.2046C18.3497 18.2046 18.5948 18.4498 18.5948 18.7506C18.5948 19.0515 18.3497 19.2966 18.049 19.2966C17.7482 19.2966 17.5032 19.0524 17.5032 18.7506ZM22.9654 33.2149C22.6809 33.5132 20.9878 34.0498 18.0498 34.0498C15.1118 34.0498 13.4188 33.5132 13.1343 33.2149V31.2229C14.7443 31.8941 17.6112 31.9206 18.0498 31.9206C18.4885 31.9206 21.3554 31.8941 22.9654 31.2229V33.2149ZM22.9654 29.9929C22.6809 30.2912 20.9878 30.8278 18.0498 30.8278C15.1118 30.8278 13.4188 30.2912 13.1343 29.9929V28.0506C14.7443 28.7218 17.6112 28.7484 18.0498 28.7484C18.4885 28.7484 21.3554 28.7218 22.9654 28.0506V29.9929ZM22.9654 26.8206C22.6809 27.1189 20.9878 27.6555 18.0498 27.6555C15.1118 27.6555 13.4188 27.1189 13.1343 26.8206V24.7644C14.6663 25.3995 17.3447 25.4441 18.0498 25.4441C18.755 25.4441 21.4334 25.3995 22.9654 24.7644V26.8206ZM22.8745 23.6004C22.4093 23.9012 20.7548 24.3512 18.049 24.3512C15.3432 24.3512 13.6887 23.9004 13.2234 23.6004C13.6887 23.2995 15.3432 22.8495 18.049 22.8495C20.7548 22.8495 22.4093 23.2995 22.8745 23.6004ZM20.2339 14.6535V1.94979H24.0569V14.6535H20.2339ZM32.2497 14.6535H28.4267V1.94979H32.2497V14.6535Z" fill="#2D5967"/>
<path d="M31.4315 3.31592H29.2458V4.40878H31.4315V3.31592Z" fill="#2D5967"/>
<path d="M30.3384 12.8767C30.64 12.8767 30.8844 12.6322 30.8844 12.3307C30.8844 12.0291 30.64 11.7847 30.3384 11.7847C30.0369 11.7847 29.7924 12.0291 29.7924 12.3307C29.7924 12.6322 30.0369 12.8767 30.3384 12.8767Z" fill="#2D5967"/>
<path d="M31.4315 5.50098H29.2458V6.59383H31.4315V5.50098Z" fill="#2D5967"/>
<path d="M31.4315 7.68652H29.2458V8.77938H31.4315V7.68652Z" fill="#2D5967"/>
<path d="M23.2394 3.31592H21.0536V4.40878H23.2394V3.31592Z" fill="#2D5967"/>
<path d="M22.1463 12.8767C22.4479 12.8767 22.6923 12.6322 22.6923 12.3307C22.6923 12.0291 22.4479 11.7847 22.1463 11.7847C21.8448 11.7847 21.6003 12.0291 21.6003 12.3307C21.6003 12.6322 21.8448 12.8767 22.1463 12.8767Z" fill="#2D5967"/>
<path d="M23.2394 5.50098H21.0536V6.59383H23.2394V5.50098Z" fill="#2D5967"/>
<path d="M23.2394 7.68652H21.0536V8.77938H23.2394V7.68652Z" fill="#2D5967"/>
<path d="M15.0467 3.31592H12.861V4.40878H15.0467V3.31592Z" fill="#2D5967"/>
<path d="M13.9534 12.8767C14.255 12.8767 14.4994 12.6322 14.4994 12.3307C14.4994 12.0291 14.255 11.7847 13.9534 11.7847C13.6519 11.7847 13.4074 12.0291 13.4074 12.3307C13.4074 12.6322 13.6519 12.8767 13.9534 12.8767Z" fill="#2D5967"/>
<path d="M15.0467 5.50098H12.861V6.59383H15.0467V5.50098Z" fill="#2D5967"/>
<path d="M15.0467 7.68652H12.861V8.77938H15.0467V7.68652Z" fill="#2D5967"/>
<path d="M6.8539 3.31592H4.66818V4.40878H6.8539V3.31592Z" fill="#2D5967"/>
<path d="M5.76084 12.8767C6.06239 12.8767 6.30684 12.6322 6.30684 12.3307C6.30684 12.0291 6.06239 11.7847 5.76084 11.7847C5.4593 11.7847 5.21484 12.0291 5.21484 12.3307C5.21484 12.6322 5.4593 12.8767 5.76084 12.8767Z" fill="#2D5967"/>
<path d="M6.8539 5.50098H4.66818V6.59383H6.8539V5.50098Z" fill="#2D5967"/>
<path d="M6.8539 7.68652H4.66818V8.77938H6.8539V7.68652Z" fill="#2D5967"/>
</svg>
