<?xml version="1.0" encoding="UTF-8"?>
<svg id="Layer_1" data-name="Layer 1" xmlns="http://www.w3.org/2000/svg" viewBox="0 0 42.08 38">
  <metadata><?xpacket begin="﻿" id="W5M0MpCehiHzreSzNTczkc9d"?>
<x:xmpmeta xmlns:x="adobe:ns:meta/" x:xmptk="Adobe XMP Core 7.1-c000 79.4d2f597, 2021/09/01-20:51:22        ">
   <rdf:RDF xmlns:rdf="http://www.w3.org/1999/02/22-rdf-syntax-ns#">
      <rdf:Description rdf:about=""
            xmlns:dc="http://purl.org/dc/elements/1.1/"
            xmlns:xmpRights="http://ns.adobe.com/xap/1.0/rights/"
            xmlns:xmp="http://ns.adobe.com/xap/1.0/"
            xmlns:xmpMM="http://ns.adobe.com/xap/1.0/mm/"
            xmlns:stEvt="http://ns.adobe.com/xap/1.0/sType/ResourceEvent#"
            xmlns:lr="http://ns.adobe.com/lightroom/1.0/">
         <dc:rights>
            <rdf:Alt>
               <rdf:li xml:lang="x-default">Oracle All Rights</rdf:li>
            </rdf:Alt>
         </dc:rights>
         <dc:subject>
            <rdf:Bag>
               <rdf:li>cloud</rdf:li>
               <rdf:li>guard</rdf:li>
               <rdf:li>container</rdf:li>
               <rdf:li>shield</rdf:li>
               <rdf:li>protection</rdf:li>
               <rdf:li>security</rdf:li>
               <rdf:li>icon</rdf:li>
            </rdf:Bag>
         </dc:subject>
         <xmpRights:Marked>True</xmpRights:Marked>
         <xmp:MetadataDate>2024-07-05T18:11:05-06:00</xmp:MetadataDate>
         <xmpMM:InstanceID>xmp.iid:96bf0e45-8321-4b1c-ae43-6044453ba55b</xmpMM:InstanceID>
         <xmpMM:DocumentID>xmp.did:7caa2601-d9b3-4437-8ff1-1dae508750f5</xmpMM:DocumentID>
         <xmpMM:OriginalDocumentID>xmp.did:7caa2601-d9b3-4437-8ff1-1dae508750f5</xmpMM:OriginalDocumentID>
         <xmpMM:History>
            <rdf:Seq>
               <rdf:li>
                  <rdf:Description>
                     <stEvt:action>saved</stEvt:action>
                     <stEvt:instanceID>xmp.iid:7caa2601-d9b3-4437-8ff1-1dae508750f5</stEvt:instanceID>
                     <stEvt:when>2024-07-05T18:10:13-06:00</stEvt:when>
                     <stEvt:softwareAgent>Adobe Bridge 2023</stEvt:softwareAgent>
                     <stEvt:changed>/metadata</stEvt:changed>
                  </rdf:Description>
               </rdf:li>
               <rdf:li>
                  <rdf:Description>
                     <stEvt:action>saved</stEvt:action>
                     <stEvt:instanceID>xmp.iid:96bf0e45-8321-4b1c-ae43-6044453ba55b</stEvt:instanceID>
                     <stEvt:when>2024-07-05T18:11:05-06:00</stEvt:when>
                     <stEvt:softwareAgent>Adobe Bridge 2023</stEvt:softwareAgent>
                     <stEvt:changed>/metadata</stEvt:changed>
                  </rdf:Description>
               </rdf:li>
            </rdf:Seq>
         </xmpMM:History>
         <lr:hierarchicalSubject>
            <rdf:Bag>
               <rdf:li>Other Keywords|icon</rdf:li>
            </rdf:Bag>
         </lr:hierarchicalSubject>
      </rdf:Description>
   </rdf:RDF>
</x:xmpmeta>
                                                                                                    
                                                                                                    
                                                                                                    
                                                                                                    
                                                                                                    
                                                                                                    
                                                                                                    
                                                                                                    
                                                                                                    
                                                 
<?xpacket end="w"?></metadata>
<defs>
    <style>
      .cls-1 {
        fill: #fff;
      }

      .cls-2 {
        fill: #2d5967;
      }
    </style>
  </defs>
  <path class="cls-1" d="m40.9,20.91l-.19.35-.28.53h-8.1v2.17c-.32,5.51-4.14,10.49-10.48,13.67l-.29.15-.45.22-.45-.22-.3-.15c-6.34-3.18-10.15-8.16-10.47-13.67v-2.18H0l.08-1.07.06-.71c.26-3.58,2.32-6.72,5.51-8.39.58-.31.99-.86,1.12-1.49.5-2.56,2.22-4.71,4.61-5.76,1-.44,2.11-.67,3.2-.67.25,0,.5.01.74.03.08.01.15.01.22.01.58,0,1.11-.22,1.49-.63,1.83-1.97,4.42-3.1,7.11-3.1,3.69,0,7.02,2.05,8.67,5.37.31.61.82,1.01,1.5,1.16,1.12.24,2.17.68,3.15,1.29l.76.49-.02.03c3.81,2.93,5.02,8.27,2.7,12.57Z"/>
  <g id="Extras">
    <path class="cls-2" d="m36.92,8.67c-.87-.55-1.82-.94-2.82-1.16s-1.75-.83-2.18-1.69c-1.48-2.97-4.47-4.81-7.78-4.81-2.41,0-4.73,1.01-6.38,2.78-.64.69-1.56,1.03-2.53.94-1.17-.11-2.37.08-3.45.56-2.08.92-3.59,2.8-4.03,5.03-.18.93-.78,1.73-1.64,2.18-2.88,1.51-4.74,4.35-4.98,7.58l-.05.71h8.82v-1.33H2.54c.4-2.48,1.93-4.61,4.19-5.79,1.22-.64,2.06-1.77,2.32-3.1.36-1.81,1.58-3.34,3.26-4.08.88-.39,1.84-.54,2.79-.45,1.38.13,2.7-.36,3.63-1.36,1.39-1.5,3.36-2.36,5.4-2.36,2.81,0,5.34,1.56,6.6,4.08.61,1.23,1.73,2.1,3.08,2.4.85.19,1.66.52,2.4.99,3.25,2.05,4.44,6.23,2.81,9.67h-6.65v1.33h7.45l.19-.35c2.22-4.11.86-9.28-3.1-11.77h0Z"/>
    <path class="cls-2" d="m10.89,14.32v9.59c.3,5.14,3.91,9.82,9.92,12.83l.3.15.3-.15c6.01-3.01,9.63-7.69,9.92-12.83v-9.59l-10.22-4.38-10.22,4.38h0Zm19.11,9.53c-.27,4.57-3.5,8.76-8.89,11.55-5.39-2.79-8.62-6.98-8.89-11.55v-8.66l8.89-3.81,8.89,3.81v8.66h0Z"/>
    <g>
      <path class="cls-2" d="m25.74,16.75h-9.27c-.82,0-1.49.67-1.49,1.49v9.27c0,.82.67,1.49,1.49,1.49h9.27c.82,0,1.49-.67,1.49-1.49v-9.27c0-.82-.67-1.49-1.49-1.49h0Zm.17,10.76c0,.09-.08.17-.17.17h-9.27c-.09,0-.17-.08-.17-.17v-9.27c0-.09.08-.17.17-.17h9.27c.09,0,.17.08.17.17v9.27Z"/>
      <polygon class="cls-2" points="17.3 24.67 17.22 24.67 17.22 26.77 25.05 26.77 25.05 24.67 24.91 24.67 17.3 24.67"/>
      <polygon class="cls-2" points="19.32 21.09 19.32 19.07 19.32 18.99 17.22 18.99 17.22 21.09 17.3 21.09 19.32 21.09"/>
      <polygon class="cls-2" points="22.16 19.07 22.16 18.99 20.06 18.99 20.06 19.07 20.06 21.09 22.16 21.09 22.16 19.07"/>
      <polygon class="cls-2" points="19.32 23.93 19.32 21.83 17.3 21.83 17.22 21.83 17.22 23.93 17.3 23.93 19.32 23.93"/>
      <rect class="cls-2" x="20.06" y="21.83" width="2.1" height="2.1"/>
      <polygon class="cls-2" points="25 21.09 25 18.99 22.89 18.99 22.89 19.07 22.89 21.09 24.91 21.09 25 21.09"/>
      <polygon class="cls-2" points="25 23.93 25 21.83 24.91 21.83 22.89 21.83 22.89 23.93 24.91 23.93 25 23.93"/>
    </g>
  </g>
</svg>