<svg width="36" height="36" viewBox="0 0 36 36" fill="none" xmlns="http://www.w3.org/2000/svg">
<path d="M25.4857 18.5142C23.6857 18.5142 19.4 18.2571 19.4 16.2857V10.3714H15.3715L15.4572 9.25708C15.5429 7.62851 16.5715 6.17137 18.0286 5.39994C18.2 5.31422 18.2857 5.14279 18.3715 4.88565C18.6286 3.68565 19.4 2.74279 20.5143 2.22851C21.0286 2.05708 21.5429 1.88565 22.0572 1.88565C22.2286 1.88565 22.3143 1.88565 22.4857 1.88565C22.6572 1.88565 22.8286 1.79994 22.9143 1.71422C23.7715 0.771366 24.9715 0.25708 26.1715 0.25708C27.8857 0.25708 29.4286 1.19994 30.2 2.74279C30.2857 2.91422 30.4572 3.08565 30.6286 3.08565C31.1429 3.17137 31.6572 3.42851 32.0857 3.68565C34.1429 4.97137 34.8286 7.62851 33.7143 9.77137L33.4572 10.2857H31.5715V16.2857C31.5715 18.3428 27.2857 18.5142 25.4857 18.5142Z" fill="white"/>
<path d="M26.2572 0.857143C27.8 0.857143 29.1714 1.71429 29.8572 3.08571C30.0286 3.42857 30.2857 3.6 30.6286 3.68571C31.0572 3.77143 31.5714 3.94286 31.9143 4.2C33.7143 5.31429 34.4 7.8 33.3714 9.68571L33.2 9.94286H31.1429V10.2857V10.3714V13.2857V13.3714V16.2857C31.1429 18 26.4286 18.0857 25.4857 18.0857C24.5429 18.0857 19.8286 18 19.8286 16.2857V13.3714V13.2857V10.3714V10.2857V10.0286H15.8857V9.42857C15.9714 7.97143 16.9143 6.6 18.2 5.91429C18.4572 5.74286 18.7143 5.48571 18.7143 5.14286C18.8857 4.11429 19.6572 3.25714 20.6 2.82857C21.0286 2.65714 21.4572 2.57143 21.9714 2.57143C22.0572 2.57143 22.2286 2.57143 22.3143 2.57143H22.4C22.6572 2.57143 22.9143 2.48571 23.1714 2.22857C24.0286 1.28571 25.0572 0.857143 26.2572 0.857143ZM26.2572 0C24.8857 0 23.6 0.6 22.6572 1.54286L22.5714 1.62857C22.4 1.62857 22.3143 1.62857 22.1429 1.62857C21.5429 1.62857 21.0286 1.71429 20.5143 1.97143C19.1429 2.48571 18.2857 3.6 18.0286 4.88571C18.0286 4.97143 17.9429 5.05714 17.9429 5.05714C16.3143 5.91429 15.2857 7.54286 15.1143 9.25714L15.0286 9.85714L14.9429 10.8H15.8857H18.9714V13.2V13.2857V16.2857C18.9714 18.4286 22.4857 18.9429 25.4857 18.9429C28.4857 18.9429 32 18.5143 32 16.2857V13.3714V13.2857V10.8857H33.2H33.7143L33.9714 10.4571L34.1429 10.2C35.3429 7.88571 34.6572 4.97143 32.4286 3.6C31.9143 3.25714 31.4 3.08571 30.8 2.91429C30.7143 2.91429 30.7143 2.82857 30.6286 2.82857C29.7714 1.02857 28.1429 0 26.2572 0Z" fill="white"/>
<path d="M13.4857 35.5714L12.2 34.4571L12.1143 34.5429H10.3143V35.5714H8.34287V34.5429H6.45716L6.37145 34.3714L5.00002 35.4857H2.42859V31.8C2.42859 31.2857 2.60002 30.8571 2.94287 30.5143L4.57145 28.8C4.05716 24.6857 5.42859 20.7429 8.17145 17.7429V11.7429C8.17145 9.85714 9.7143 8.4 11.5143 8.4H11.7714L10.7429 7.37143L12.1143 6L15.5429 9.42857L12.1143 12.8571L10.7429 11.4L11.7714 10.3714H11.5143C10.7429 10.3714 10.1429 10.9714 10.1429 11.7429V17.7429C12.1143 19.8857 13.4857 22.4571 13.9143 25.3714C14.0857 26.4857 14.0857 27.6857 14 28.8L14.6 29.4857L15.5429 30.5143C15.8857 30.8571 16.0572 31.3714 16.0572 31.8V35.4857H13.4857V35.5714Z" fill="white"/>
<path d="M12.1143 6.5999L14.9429 9.42847L12.1143 12.257L11.3429 11.4856L12.8 10.0285H11.5143C10.5714 10.0285 9.71429 10.7999 9.71429 11.8285V17.9999C11.7714 20.057 13.0571 22.7142 13.4857 25.5428C13.6571 26.7428 13.6571 27.857 13.5714 29.057L14.3429 29.9142L15.2857 30.9428C15.5429 31.1999 15.7143 31.5428 15.7143 31.9713V35.1428H13.6571L12.7143 34.3713L12.0286 33.857L11.8571 34.1142H9.88571V34.9713V35.1428H8.77143V34.9713V34.1142H6.71429L6.54286 33.857C6.54286 33.857 6.54286 33.857 6.54286 33.7713L5.85714 34.2856L4.91429 35.1428H2.85714V31.8856C2.85714 31.5428 3.02857 31.1142 3.28571 30.857L4.31429 29.7428L5 28.9713C4.48571 25.0285 5.68571 20.9999 8.6 17.9999V11.8285C8.6 10.1999 9.88572 8.91419 11.5143 8.91419H12.8L11.3429 7.45704L12.1143 6.5999ZM12.1143 5.3999L11.5143 5.9999L10.7429 6.77133L10.1429 7.45704L10.7429 8.05704L10.8286 8.14276C9.02857 8.48562 7.74286 10.0285 7.74286 11.8285V17.657C5 20.657 3.71429 24.6856 4.14286 28.7142L3.71429 29.2285L2.68571 30.3428C2.25714 30.7713 2 31.2856 2 31.8856V35.1428V35.9999H2.85714H4.91429H5.25714L5.42857 35.8285L6.37143 35.057H6.71429H7.82857V35.1428V35.9999H8.68572H9.8H10.6571V35.1428V34.9713H11.8571H12.1143L13.0571 35.7428L13.3143 35.9142H13.6571H15.7143H16.5714V35.057V31.7999C16.5714 31.1999 16.3143 30.5999 15.9714 30.1713L14.9429 29.1428L14.4286 28.6285C14.5143 27.5142 14.4286 26.3999 14.3429 25.2856C13.9143 22.3713 12.6286 19.7142 10.5714 17.5713V11.7428L10.7429 11.9142L11.5143 12.6856L12.1143 13.2856L12.7143 12.6856L15.5429 9.85705L16.1429 9.25705L15.5429 8.65705L12.7143 5.9999L12.1143 5.3999Z" fill="white"/>
<path d="M25.4857 5.57153C24.8857 5.57153 19.8286 5.65725 19.8286 7.45725V10.2858V10.3715V13.2858V13.3715V16.2858C19.8286 18.0001 24.5428 18.0858 25.4857 18.0858C26.4286 18.0858 31.1428 18.0001 31.1428 16.2858V13.3715V13.2858V10.3715V10.2858V7.45725C31.1428 5.65725 26.0857 5.57153 25.4857 5.57153ZM25.4857 6.68582C27.8857 6.68582 29.4286 7.11439 29.8571 7.37153C29.4286 7.71439 27.9714 8.14296 25.4857 8.14296C23 8.14296 21.5428 7.71439 21.1143 7.45725C21.5428 7.11439 23.0857 6.68582 25.4857 6.68582ZM30.0286 16.2001C29.6857 16.4572 28.1428 16.8858 25.5714 16.8858C23 16.8858 21.3714 16.4572 21.1143 16.2001V14.5715C22.5714 15.1715 24.9714 15.1715 25.5714 15.1715C26.1714 15.1715 28.5714 15.1715 30.0286 14.5715V16.2001ZM30.0286 13.2858C29.6857 13.543 28.1428 13.9715 25.5714 13.9715C23 13.9715 21.3714 13.543 21.1143 13.2858V11.5715C22.5714 12.1715 24.9714 12.1715 25.5714 12.1715C26.1714 12.1715 28.5714 12.1715 30.0286 11.5715V13.2858ZM30.0286 10.2858C29.6857 10.543 28.1428 10.9715 25.5714 10.9715C23 10.9715 21.3714 10.543 21.1143 10.2858V8.65725C22.6571 9.25725 25.2286 9.25725 25.5714 9.25725C25.9143 9.25725 28.5714 9.25725 30.0286 8.65725V10.2858Z" fill="#2D5967"/>
<path d="M31.9143 4.20004C31.4857 3.94289 31.0571 3.77146 30.6286 3.68575C30.2857 3.60003 30.0286 3.42861 29.8571 3.08575C29.1714 1.71432 27.8 0.857178 26.2571 0.857178C25.1428 0.857178 24.0286 1.28575 23.2571 2.14289C23.0857 2.40003 22.7428 2.48575 22.4857 2.48575C21.8857 2.40004 21.3714 2.48575 20.7714 2.74289C19.8286 3.17146 19.0571 4.02861 18.8857 5.05718C18.8 5.40003 18.6286 5.65718 18.3714 5.82861C17.0857 6.51432 16.1428 7.88575 16.0571 9.34289V9.94289H19.1428V8.82861H17.3428C17.6 7.97146 18.2 7.28575 18.9714 6.85718C19.5714 6.60003 20 6.00003 20.0857 5.31432C20.1714 4.62861 20.6857 4.02861 21.2857 3.77146C21.6286 3.60003 21.9714 3.60003 22.4 3.60003C23 3.68575 23.6857 3.42861 24.2 2.91432C24.7143 2.31432 25.4857 1.97146 26.3428 1.97146C27.4571 1.97146 28.4857 2.57146 28.9143 3.60003C29.1714 4.20003 29.7714 4.62861 30.4571 4.80003C30.8 4.88575 31.1428 4.97146 31.4 5.22861C32.6 6.00003 33.1143 7.54289 32.6 8.91432H32V10.0286H33.2L33.3714 9.77146C34.4 7.80003 33.8 5.40003 31.9143 4.20004Z" fill="#2D5967"/>
<path d="M9.71426 16.8001V11.8287C9.71426 10.8858 10.4857 10.0287 11.5143 10.0287H12.8L11.3428 11.4858L12.1143 12.2572L14.9428 9.42867L12.1143 6.6001L11.3428 7.37153L12.8 8.82867H11.5143C9.88569 8.82867 8.59998 10.1144 8.59998 11.743V16.7144L9.19998 16.1144L9.71426 16.8001Z" fill="#2D5967"/>
<path d="M9.28568 23.4858C8.25711 23.4858 7.39996 24.343 7.39996 25.3716C7.39996 26.4001 8.25711 27.2573 9.28568 27.2573C10.3142 27.2573 11.1714 26.4001 11.1714 25.3716C11.1714 24.343 10.3142 23.4858 9.28568 23.4858ZM9.28568 26.0573C8.85711 26.0573 8.59996 25.7144 8.59996 25.3716C8.59996 24.943 8.94282 24.6858 9.28568 24.6858C9.62853 24.6858 9.97139 25.0287 9.97139 25.3716C9.97139 25.7144 9.71425 26.0573 9.28568 26.0573Z" fill="#2D5967"/>
<path d="M14.3428 29.8285L13.5714 28.9714C13.6571 27.8571 13.6571 26.6571 13.4857 25.4571C13.0571 22.5428 11.6857 19.8856 9.54283 17.7428L9.11426 17.3142L8.68569 17.7428C5.68569 20.7428 4.39997 24.8571 4.91426 28.9714L4.22855 29.7428L3.28569 30.8571C3.02855 31.1999 2.85712 31.5428 2.85712 31.8856V35.1428H4.91426L5.85712 34.3713L6.54283 33.8571C6.54283 33.8571 6.54283 33.8571 6.54283 33.9428L6.71426 34.1999H8.68569V35.0571V35.1428H9.79997V34.9714V34.1142H11.8571L12.0285 33.8571L12.7143 34.3713L13.6571 35.1428H15.7143V31.8856C15.7143 31.5428 15.5428 31.1142 15.2857 30.8571L14.3428 29.8285ZM9.11426 19.0285C9.62855 19.6285 10.1428 20.3142 10.5714 20.9999H7.65712C8.08569 20.3142 8.59997 19.6285 9.11426 19.0285ZM5.34283 33.2571L4.48569 33.9428H3.9714V31.8856C3.9714 31.7999 3.9714 31.7142 4.05712 31.6285L4.5714 31.1999L5.25712 30.4285C5.42855 31.1999 5.68569 31.9714 6.02855 32.7428L5.34283 33.2571ZM9.88569 32.9999V28.7142H8.7714V32.9999H7.39997C5.59997 29.4856 5.59997 25.5428 7.05712 22.1142H11.1714C12.8 25.5428 12.8857 29.5714 11.1714 32.9999H9.88569ZM14.6 34.0285H14.1714L13.4 33.3428L12.7143 32.7428C13.0571 31.9714 13.3143 31.1999 13.4857 30.4285L14.1714 31.1999L14.6 31.6285C14.6857 31.7142 14.6857 31.7999 14.6857 31.8856C14.6 31.8856 14.6 34.0285 14.6 34.0285Z" fill="#2D5967"/>
</svg>
