<?xml version="1.0" encoding="UTF-8"?>
<svg id="Layer_1" data-name="Layer 1" xmlns="http://www.w3.org/2000/svg" viewBox="0 0 42 30.51">
  <metadata><?xpacket begin="﻿" id="W5M0MpCehiHzreSzNTczkc9d"?>
<x:xmpmeta xmlns:x="adobe:ns:meta/" x:xmptk="Adobe XMP Core 9.1-c001 79.a8d4753, 2023/03/23-08:56:37        ">
   <rdf:RDF xmlns:rdf="http://www.w3.org/1999/02/22-rdf-syntax-ns#">
      <rdf:Description rdf:about=""
            xmlns:xmpRights="http://ns.adobe.com/xap/1.0/rights/"
            xmlns:dc="http://purl.org/dc/elements/1.1/"
            xmlns:xmp="http://ns.adobe.com/xap/1.0/"
            xmlns:xmpMM="http://ns.adobe.com/xap/1.0/mm/"
            xmlns:stEvt="http://ns.adobe.com/xap/1.0/sType/ResourceEvent#">
         <xmpRights:Marked>True</xmpRights:Marked>
         <xmpRights:UsageTerms>
            <rdf:Alt>
               <rdf:li xml:lang="x-default">Oracle All Right  </rdf:li>
            </rdf:Alt>
         </xmpRights:UsageTerms>
         <dc:subject>
            <rdf:Bag>
               <rdf:li>laptop</rdf:li>
               <rdf:li>ai</rdf:li>
               <rdf:li>artificial intelligence</rdf:li>
            </rdf:Bag>
         </dc:subject>
         <xmp:MetadataDate>2024-08-15T15:18:16-06:00</xmp:MetadataDate>
         <xmpMM:InstanceID>xmp.iid:e921b51c-d7b7-4fe6-b00a-c1e7d3d67773</xmpMM:InstanceID>
         <xmpMM:DocumentID>xmp.did:d46cc7a6-0c3d-4891-87ab-a74ed19e3628</xmpMM:DocumentID>
         <xmpMM:OriginalDocumentID>xmp.did:d46cc7a6-0c3d-4891-87ab-a74ed19e3628</xmpMM:OriginalDocumentID>
         <xmpMM:History>
            <rdf:Seq>
               <rdf:li>
                  <rdf:Description>
                     <stEvt:action>saved</stEvt:action>
                     <stEvt:instanceID>xmp.iid:d46cc7a6-0c3d-4891-87ab-a74ed19e3628</stEvt:instanceID>
                     <stEvt:when>2024-08-15T15:18:05-06:00</stEvt:when>
                     <stEvt:softwareAgent>Adobe Bridge 2024</stEvt:softwareAgent>
                     <stEvt:changed>/metadata</stEvt:changed>
                  </rdf:Description>
               </rdf:li>
               <rdf:li>
                  <rdf:Description>
                     <stEvt:action>saved</stEvt:action>
                     <stEvt:instanceID>xmp.iid:e921b51c-d7b7-4fe6-b00a-c1e7d3d67773</stEvt:instanceID>
                     <stEvt:when>2024-08-15T15:18:16-06:00</stEvt:when>
                     <stEvt:softwareAgent>Adobe Bridge 2024</stEvt:softwareAgent>
                     <stEvt:changed>/metadata</stEvt:changed>
                  </rdf:Description>
               </rdf:li>
            </rdf:Seq>
         </xmpMM:History>
      </rdf:Description>
   </rdf:RDF>
</x:xmpmeta>
                                                                                                    
                                                                                                    
                                                                                                    
                                                                                                    
                                                                                                    
                                                                                                    
                                                                                                    
                                                                                                    
                                                                                                    
                                                                                                    
                                                                                                    
                                                                                                    
                                                                                                    
                                 
<?xpacket end="w"?></metadata>
<defs>
    <style>
      .cls-1 {
        fill: #fff;
      }

      .cls-2 {
        fill: #2d5967;
      }
    </style>
  </defs>
  <path class="cls-1" d="m41.89,27.57l-3.77-7.31V2.66c0-1.47-1.2-2.66-2.67-2.66H6.56c-1.47,0-2.67,1.19-2.67,2.66v17.86L.12,27.56l-.12.22v1.61l.56.28,1.48.74.21.1h37.51l.21-.1,1.48-.74.55-.28v-1.6l-.11-.22Z"/>
  <g>
    <path class="cls-2" d="m8.782,22.662h24.444v1.481H8.782v-1.481Zm6.296,4.074h11.852v-1.481h-11.852v1.481Zm25.926,1.296h0v.741l-1.484.741h0s-37.032,0-37.032,0h0s-1.484-.741-1.484-.741v-.741h0,0s3.889-7.261,3.889-7.261V2.662c0-.919.748-1.667,1.667-1.667h28.889c.919,0,1.667.748,1.667,1.667v17.838l3.889,7.533h0Zm-5.006-6.482H6.165l-3.479,6.481h36.653l-3.34-6.481Zm-29.623-1.481h29.259V2.662c0-.102-.083-.185-.185-.185H6.56c-.102,0-.185.083-.185.185v17.407Z"/>
    <g>
      <circle class="cls-2" cx="16.782" cy="11.366" r=".704"/>
      <path class="cls-2" d="m16.995,8.653c-.28.269-.29.715-.021.995.269.28.715.29.995.021.28-.269.29-.715.021-.995-.269-.28-.715-.29-.995-.021Z"/>
      <path class="cls-2" d="m16.964,13.095c-.263.286-.245.731.041.994.286.263.731.245.994-.041.263-.286.245-.731-.041-.994-.286-.263-.731-.245-.994.041Z"/>
      <path class="cls-2" d="m28.857,11.366c0-.808-.276-1.573-.783-2.189.003-.052.004-.103.004-.154,0-1.662-1.202-3.081-2.802-3.389-.409-.595-.991-1.052-1.672-1.304-.424-.157-.861-.228-1.301-.211-.4.015-.696.199-1.009.394-.088.055-.184.114-.289.175-.106-.061-.201-.12-.289-.175-.313-.195-.609-.379-1.009-.394-.439-.017-.877.054-1.301.211-.681.253-1.263.709-1.672,1.304-1.599.308-2.802,1.727-2.802,3.389,0,.05.001.101.004.154-.507.616-.783,1.38-.783,2.189s.275,1.573.782,2.188c-.002.049-.004.097-.004.145,0,1.653,1.193,3.07,2.782,3.386.638.953,1.703,1.531,2.866,1.531.033,0,.065,0,.099-.001.418-.012.736-.206,1.072-.411.079-.048.163-.099.255-.153.092.053.176.105.255.153.336.205.653.398,1.073.411.032,0,.065.001.098.001,1.162,0,2.228-.578,2.866-1.531,1.588-.316,2.782-1.733,2.782-3.386,0-.048-.001-.096-.004-.145.507-.616.782-1.38.782-2.188Zm-9.223,5.768h-.056c-.739,0-1.411-.41-1.752-1.071l-.189-.366-.411-.033c-1.017-.081-1.814-.943-1.814-1.964,0-.085.008-.178.025-.291l.055-.373-.268-.264c-.38-.374-.59-.873-.59-1.406s.21-1.032.591-1.406l.27-.265-.056-.374c-.017-.116-.026-.21-.026-.297,0-1.025.801-1.888,1.823-1.964l.406-.03.192-.359c.236-.441.621-.779,1.086-.951.219-.081.435-.121.657-.121.018,0,.037,0,.056,0,.056.02.191.104.301.173.097.06.205.128.331.2v10.797c-.107.062-.201.119-.286.171-.134.082-.301.184-.344.195Zm7.151-4.362l-.268.264.055.373c.017.114.025.206.025.291,0,1.021-.797,1.883-1.814,1.964l-.411.033-.189.366c-.341.661-1.012,1.072-1.752,1.072h-.042c-.056-.012-.223-.114-.357-.196-.085-.052-.179-.109-.286-.171V5.971c.125-.072.234-.14.331-.2.11-.068.245-.152.301-.173.241-.008.474.032.712.12.465.173.851.51,1.086.951l.192.359.406.03c1.022.076,1.823.939,1.823,1.964,0,.087-.008.182-.026.297l-.056.374.27.265c.381.374.591.874.591,1.406s-.21,1.031-.59,1.406Z"/>
      <circle class="cls-2" cx="25.227" cy="11.366" r=".704"/>
      <path class="cls-2" d="m25.052,9.651c.27-.279.263-.725-.016-.995-.279-.27-.725-.263-.995.016-.27.279-.263.725.016.995.279.27.725.263.995-.016Z"/>
      <path class="cls-2" d="m24.079,13.045c-.291.258-.317.703-.059.993.258.291.703.317.994.059.291-.258.317-.703.059-.993-.258-.291-.703-.317-.993-.059Z"/>
    </g>
  </g>
</svg>