<svg id="Layer_1" data-name="Layer 1" xmlns="http://www.w3.org/2000/svg" viewBox="0 0 25.8 42"><defs><style>.cls-1{fill:#fff;}.cls-2{fill:#2c5967;}</style></defs><title>Technology_Exadata-12c-Technology</title><metadata><?xpacket begin="﻿" id="W5M0MpCehiHzreSzNTczkc9d"?>
<x:xmpmeta xmlns:x="adobe:ns:meta/" x:xmptk="Adobe XMP Core 6.0-c006 79.164648, 2021/01/12-15:52:29        ">
   <rdf:RDF xmlns:rdf="http://www.w3.org/1999/02/22-rdf-syntax-ns#">
      <rdf:Description rdf:about=""
            xmlns:dc="http://purl.org/dc/elements/1.1/"
            xmlns:xmpRights="http://ns.adobe.com/xap/1.0/rights/"
            xmlns:xmp="http://ns.adobe.com/xap/1.0/"
            xmlns:xmpMM="http://ns.adobe.com/xap/1.0/mm/"
            xmlns:stEvt="http://ns.adobe.com/xap/1.0/sType/ResourceEvent#"
            xmlns:lr="http://ns.adobe.com/lightroom/1.0/">
         <dc:title>
            <rdf:Alt>
               <rdf:li xml:lang="x-default">Technology_Exadata-12c-Technology</rdf:li>
            </rdf:Alt>
         </dc:title>
         <dc:rights>
            <rdf:Alt>
               <rdf:li xml:lang="x-default">Oracle All Rights Reserved</rdf:li>
            </rdf:Alt>
         </dc:rights>
         <dc:subject>
            <rdf:Bag>
               <rdf:li>icon</rdf:li>
               <rdf:li>exadata</rdf:li>
            </rdf:Bag>
         </dc:subject>
         <xmpRights:Marked>True</xmpRights:Marked>
         <xmp:MetadataDate>2021-07-21T19:27:43-05:00</xmp:MetadataDate>
         <xmpMM:InstanceID>xmp.iid:13a87e6b-7b4b-477d-95d5-cf8318cbfb8d</xmpMM:InstanceID>
         <xmpMM:DocumentID>xmp.did:f8479873-a591-40a1-8f1f-01d6b1728825</xmpMM:DocumentID>
         <xmpMM:OriginalDocumentID>xmp.did:f8479873-a591-40a1-8f1f-01d6b1728825</xmpMM:OriginalDocumentID>
         <xmpMM:History>
            <rdf:Seq>
               <rdf:li>
                  <rdf:Description>
                     <stEvt:action>saved</stEvt:action>
                     <stEvt:instanceID>xmp.iid:f8479873-a591-40a1-8f1f-01d6b1728825</stEvt:instanceID>
                     <stEvt:when>2021-06-23T15:54:04-05:00</stEvt:when>
                     <stEvt:softwareAgent>Adobe Bridge 2021 (Macintosh)</stEvt:softwareAgent>
                     <stEvt:changed>/metadata</stEvt:changed>
                  </rdf:Description>
               </rdf:li>
               <rdf:li>
                  <rdf:Description>
                     <stEvt:action>saved</stEvt:action>
                     <stEvt:instanceID>xmp.iid:13a87e6b-7b4b-477d-95d5-cf8318cbfb8d</stEvt:instanceID>
                     <stEvt:when>2021-07-21T19:27:43-05:00</stEvt:when>
                     <stEvt:softwareAgent>Adobe Bridge 2021 (Macintosh)</stEvt:softwareAgent>
                     <stEvt:changed>/metadata</stEvt:changed>
                  </rdf:Description>
               </rdf:li>
            </rdf:Seq>
         </xmpMM:History>
         <lr:hierarchicalSubject>
            <rdf:Bag>
               <rdf:li>icon</rdf:li>
               <rdf:li>Other Keywords|exadata</rdf:li>
            </rdf:Bag>
         </lr:hierarchicalSubject>
      </rdf:Description>
   </rdf:RDF>
</x:xmpmeta>
                                                                                                    
                                                                                                    
                                                                                                    
                                                                                                    
                                                                                                    
                                                                                                    
                                                                                                    
                                                                                                    
                                                                                                    
                              
<?xpacket end="w"?></metadata>
<polygon class="cls-1" points="0.5 41.5 0.5 39.68 2.52 38.67 2.52 0.5 23.27 0.5 23.27 38.67 25.3 39.68 25.3 41.5 0.5 41.5"/><path class="cls-1" d="M22.77,1V39l2,1v1H1V40l2-1V1H22.77m1-1H2V38.36l-1.48.73L0,39.37V42H25.8V39.37l-.56-.28-1.47-.73V0Z"/><path class="cls-2" d="M22.77,39V1H3V39L1,40v1H24.8V40ZM5.05,39V3h15.7V39Z"/><rect class="cls-2" x="6.57" y="4.54" width="12.66" height="2.03"/><path class="cls-2" d="M17.71,8.09H8.09V9.86H6.57v2H8.09v1.77h9.62V11.89h1.52v-2H17.71Zm-2,3.54H10.11V10.11h5.57Z"/><polygon class="cls-2" points="17.11 24.27 14.6 24.27 12.95 28.05 11.24 24.27 8.72 24.27 11.46 29.81 8.57 35.68 11.09 35.68 12.84 31.62 14.7 35.68 17.22 35.68 14.35 29.89 17.11 24.27"/><rect class="cls-2" x="6.57" y="15.18" width="2.03" height="2.03"/><rect class="cls-2" x="10.11" y="15.18" width="2.03" height="2.03"/><rect class="cls-2" x="13.66" y="15.18" width="2.03" height="2.03"/><rect class="cls-2" x="17.2" y="15.18" width="2.03" height="2.03"/><rect class="cls-2" x="6.57" y="18.72" width="2.03" height="2.03"/><rect class="cls-2" x="10.11" y="18.72" width="2.03" height="2.03"/><rect class="cls-2" x="13.66" y="18.72" width="2.03" height="2.03"/><rect class="cls-2" x="17.2" y="18.72" width="2.03" height="2.03"/></svg>