<svg id="Layer_1" data-name="Layer 1" xmlns="http://www.w3.org/2000/svg" viewBox="0 0 42 42"><defs><style>.cls-1{fill:#fff;}.cls-2{fill:none;}.cls-3{fill:#2c5967;}</style></defs><title>WebLogic Server Kubernetes Toolkit (WKT)</title><metadata><?xpacket begin="﻿" id="W5M0MpCehiHzreSzNTczkc9d"?>
<x:xmpmeta xmlns:x="adobe:ns:meta/" x:xmptk="Adobe XMP Core 6.0-c006 79.164648, 2021/01/12-15:52:29        ">
   <rdf:RDF xmlns:rdf="http://www.w3.org/1999/02/22-rdf-syntax-ns#">
      <rdf:Description rdf:about=""
            xmlns:xmp="http://ns.adobe.com/xap/1.0/"
            xmlns:xmpMM="http://ns.adobe.com/xap/1.0/mm/"
            xmlns:stEvt="http://ns.adobe.com/xap/1.0/sType/ResourceEvent#"
            xmlns:xmpRights="http://ns.adobe.com/xap/1.0/rights/"
            xmlns:dc="http://purl.org/dc/elements/1.1/"
            xmlns:lr="http://ns.adobe.com/lightroom/1.0/">
         <xmp:MetadataDate>2021-07-21T19:24:46-05:00</xmp:MetadataDate>
         <xmpMM:InstanceID>xmp.iid:92d2254e-97be-44dc-94d8-6ffc108ba567</xmpMM:InstanceID>
         <xmpMM:DocumentID>xmp.did:07155e29-0c9f-438d-8f8b-06b3e84c1b53</xmpMM:DocumentID>
         <xmpMM:OriginalDocumentID>xmp.did:07155e29-0c9f-438d-8f8b-06b3e84c1b53</xmpMM:OriginalDocumentID>
         <xmpMM:History>
            <rdf:Seq>
               <rdf:li>
                  <rdf:Description>
                     <stEvt:action>saved</stEvt:action>
                     <stEvt:instanceID>xmp.iid:07155e29-0c9f-438d-8f8b-06b3e84c1b53</stEvt:instanceID>
                     <stEvt:when>2021-06-18T11:41:56-05:00</stEvt:when>
                     <stEvt:softwareAgent>Adobe Bridge 2021 (Macintosh)</stEvt:softwareAgent>
                     <stEvt:changed>/metadata</stEvt:changed>
                  </rdf:Description>
               </rdf:li>
               <rdf:li>
                  <rdf:Description>
                     <stEvt:action>saved</stEvt:action>
                     <stEvt:instanceID>xmp.iid:92d2254e-97be-44dc-94d8-6ffc108ba567</stEvt:instanceID>
                     <stEvt:when>2021-07-21T19:24:46-05:00</stEvt:when>
                     <stEvt:softwareAgent>Adobe Bridge 2021 (Macintosh)</stEvt:softwareAgent>
                     <stEvt:changed>/metadata</stEvt:changed>
                  </rdf:Description>
               </rdf:li>
            </rdf:Seq>
         </xmpMM:History>
         <xmpRights:Marked>True</xmpRights:Marked>
         <dc:title>
            <rdf:Alt>
               <rdf:li xml:lang="x-default">WebLogic Server Kubernetes Toolkit (WKT)</rdf:li>
            </rdf:Alt>
         </dc:title>
         <dc:subject>
            <rdf:Bag>
               <rdf:li>icon</rdf:li>
               <rdf:li>technology</rdf:li>
               <rdf:li>Hardware</rdf:li>
               <rdf:li>WKT</rdf:li>
            </rdf:Bag>
         </dc:subject>
         <dc:rights>
            <rdf:Alt>
               <rdf:li xml:lang="x-default">Oracle All Rights Reserved</rdf:li>
            </rdf:Alt>
         </dc:rights>
         <lr:hierarchicalSubject>
            <rdf:Bag>
               <rdf:li>icon</rdf:li>
               <rdf:li>technology</rdf:li>
               <rdf:li>Hardware</rdf:li>
            </rdf:Bag>
         </lr:hierarchicalSubject>
      </rdf:Description>
   </rdf:RDF>
</x:xmpmeta>
                                                                                                    
                                                                                                    
                                                                                                    
                                                                                                    
                                                                                                    
                                                                                                    
                                                                                                    
                                                                                                    
                                                                                                    
                                                                                                    
                                       
<?xpacket end="w"?></metadata>
<path class="cls-1" d="M2.88,41.5A2.38,2.38,0,0,1,.5,39.13V.5h6V2.17h29V.5h6V39.13a2.38,2.38,0,0,1-2.37,2.37Z"/><path class="cls-1" d="M41,1V39.13A1.87,1.87,0,0,1,39.13,41H2.88A1.88,1.88,0,0,1,1,39.13V1H6V2.67H36V1h5m1-1H35V1.67H7V0H0V39.13A2.88,2.88,0,0,0,2.88,42H39.13A2.88,2.88,0,0,0,42,39.13V0Z"/><path class="cls-2" d="M18,16.85a9.63,9.63,0,0,1-2.44-5.07,6.29,6.29,0,0,0-1.89-3.6c-1.13-1-3.38-1.07-4.74-.69l3,1.62a2.23,2.23,0,0,1,1.16,1.77,5.53,5.53,0,0,1-.73,2.38,4.92,4.92,0,0,1-1.75,2.27,2.2,2.2,0,0,1-2.1,0L5.83,14.08A5.44,5.44,0,0,0,7.32,16.2a5.11,5.11,0,0,0,3.23,1.17c.19,0,.48,0,.84,0a8.13,8.13,0,0,1,5.22,1.6l.94.81,4.75,4.17h3.88l-7.27-6.31Z"/><polygon class="cls-2" points="31.92 18.13 33.03 19.26 36.14 16.09 35.03 14.95 31.92 18.13"/><path class="cls-2" d="M37.67,7.25v6.22L37,12.75a2.84,2.84,0,0,0-1-.64V7.25H30.59c-.41-.4-.81-.81-1.2-1.21-.16-.16-.33-.32-.5-.46H36V4.33H6V5.58h.32a2.6,2.6,0,0,0-.88,1.21v0A2.24,2.24,0,0,0,6,9.08v1.77a2.35,2.35,0,0,0-1-.22,2.53,2.53,0,0,0-.67.1V2.67H2.67V39.13a.2.2,0,0,0,.21.2H39.13a.2.2,0,0,0,.2-.2V2.67H37.67ZM21.73,5.58,18,7.25H16.79A8.32,8.32,0,0,0,15.62,6c-.16-.14-.34-.27-.52-.4Zm-3.6,29.73H17l-1.15-3.77-1.08,3.77H13.58l-1.24-5.6h1.22l.79,3.78,1-3.47h1l1,3.42.78-3.73h1.19Zm5.2,0L21.6,33h-.35v2.35h-1.2v-5.6h1.2v2.36l1.94-2.36H24.6l-2.12,2.48,2.35,3.12Zm6.21-4.58H27.88v4.58h-1.2V30.73H25v-1h4.52Zm8.13-5.15H4.33V17.27A8.7,8.7,0,0,0,5.41,18.4a6.26,6.26,0,0,0,.59.46v5.06h8.08l1.81-1.74,1.26,1.09-.69.65h3.36c-1.18-1-2.61-2.25-3.37-2.91l-.93-.81A7,7,0,0,0,10.68,19a6.64,6.64,0,0,1-4.45-1.57A6.83,6.83,0,0,1,4,13.74a2,2,0,0,1,.11-1.34A1,1,0,0,1,5.51,12l3.83,2.08a.57.57,0,0,0,.46,0h0a3.8,3.8,0,0,0,1.09-1.54A6.4,6.4,0,0,0,11.46,11l0-.07,0,0h0a.6.6,0,0,0-.3-.37l-4-2.2a1,1,0,0,1-.5-1.18,1.86,1.86,0,0,1,1-1c1.85-.93,5.37-.81,7.13.72a7.78,7.78,0,0,1,2.44,4.54,8.27,8.27,0,0,0,1.89,4.12l.88.76,8.68,7.57H36V20.4l1.67-1.7Zm-.13-8.53L34,20.66a1.31,1.31,0,0,1-.94.38h0A1.49,1.49,0,0,1,32,20.58L30.6,19.16A1.55,1.55,0,0,1,30.16,18L28.4,16.39a.56.56,0,0,0-.3-.1,25.94,25.94,0,0,0-3,2.85L23.85,18c3.25-3.38,3.71-3.42,4.1-3.42h0a2.28,2.28,0,0,1,1.54.52l1.58,1.45,2.39-2.43C32.3,13,29.64,10.47,27.31,8.08c-1-1-2-.89-3.46-.25l-1.45.65,1.11,0a3.18,3.18,0,0,1,2.41,1.24,4,4,0,0,1,.49,3.34c0,.4-.26,1.07-3.33,4.26l-1.26-1.09a23.36,23.36,0,0,0,2.93-3.39v-.06a2.58,2.58,0,0,0-.18-2.07,1.64,1.64,0,0,0-1.2-.57c-1.44-.11-4.83,0-4.87,0h-.3a10,10,0,0,0-.53-1.39l.47-.21,5-2.25c1.07-.47,3.3-1.45,5.32.61,2.49,2.54,5.35,5.29,6.36,6.25H35a1.49,1.49,0,0,1,1.07.46l1.39,1.42A1.43,1.43,0,0,1,37.54,17.05Z"/><path class="cls-3" d="M36,1V2.67H6V1H1V39.13A1.88,1.88,0,0,0,2.88,41H39.13A1.87,1.87,0,0,0,41,39.13V1Zm3.33,38.13a.2.2,0,0,1-.2.2H2.88a.2.2,0,0,1-.21-.2V2.67H4.33v8.06a2.53,2.53,0,0,1,.67-.1,2.35,2.35,0,0,1,1,.22V9.08a2.24,2.24,0,0,1-.58-2.25v0a2.6,2.6,0,0,1,.88-1.21H6V4.33H36V5.58H28.89c.17.14.34.3.5.46.39.4.79.81,1.2,1.21H36v4.86a2.84,2.84,0,0,1,1,.64l.71.72V2.67h1.66Z"/><path class="cls-3" d="M16.79,7.25H18l3.71-1.67H15.1c.18.13.36.26.52.4A8.32,8.32,0,0,1,16.79,7.25Z"/><path class="cls-3" d="M36.07,13.63A1.49,1.49,0,0,0,35,13.17h-.14c-1-1-3.87-3.71-6.36-6.25-2-2.06-4.25-1.08-5.32-.61l-5,2.25-.47.21a10,10,0,0,1,.53,1.39h.3s3.43-.07,4.87,0a1.64,1.64,0,0,1,1.2.57,2.58,2.58,0,0,1,.18,2.07v.06a23.36,23.36,0,0,1-2.93,3.39l1.26,1.09c3.07-3.19,3.31-3.86,3.33-4.26a4,4,0,0,0-.49-3.34,3.18,3.18,0,0,0-2.41-1.24l-1.11,0,1.45-.65c1.46-.64,2.44-.79,3.46.25,2.33,2.39,5,4.95,6.17,6.08l-2.39,2.43-1.58-1.45A2.28,2.28,0,0,0,28,14.62h0c-.39,0-.85,0-4.1,3.42l1.26,1.1a25.94,25.94,0,0,1,3-2.85.56.56,0,0,1,.3.1L30.16,18a1.55,1.55,0,0,0,.44,1.16L32,20.58a1.49,1.49,0,0,0,1.07.46h0a1.31,1.31,0,0,0,.94-.38l3.54-3.61a1.43,1.43,0,0,0-.08-2Zm-3,5.63-1.11-1.13L35,15l1.11,1.14Z"/><path class="cls-3" d="M36,23.92H28.69L20,16.35l-.88-.76a8.27,8.27,0,0,1-1.89-4.12A7.78,7.78,0,0,0,14.8,6.93C13,5.4,9.52,5.28,7.67,6.21a1.86,1.86,0,0,0-1,1,1,1,0,0,0,.5,1.18l4.05,2.2a.6.6,0,0,1,.3.37h0l0,0,0,.07a6.4,6.4,0,0,1-.57,1.56A3.8,3.8,0,0,1,9.8,14.09h0a.57.57,0,0,1-.46,0L5.51,12a1,1,0,0,0-1.39.39A2,2,0,0,0,4,13.74a6.83,6.83,0,0,0,2.22,3.72A6.64,6.64,0,0,0,10.68,19a7,7,0,0,1,4.84,1.17l.93.81c.76.66,2.19,1.88,3.37,2.91H16.46l.69-.65-1.26-1.09-1.81,1.74H6V18.86a6.26,6.26,0,0,1-.59-.46,8.7,8.7,0,0,1-1.08-1.13v8.31H37.67V18.7L36,20.4Zm-13.7,0-4.75-4.17-.94-.81a8.13,8.13,0,0,0-5.22-1.6c-.36,0-.65,0-.84,0A5.11,5.11,0,0,1,7.32,16.2a5.44,5.44,0,0,1-1.49-2.12l2.72,1.47a2.2,2.2,0,0,0,2.1,0,4.92,4.92,0,0,0,1.75-2.27,5.53,5.53,0,0,0,.73-2.38A2.23,2.23,0,0,0,12,9.11L9,7.49c1.36-.38,3.61-.29,4.74.69a6.29,6.29,0,0,1,1.89,3.6A9.63,9.63,0,0,0,18,16.85l.87.76,7.27,6.31Z"/><polygon class="cls-3" points="17.4 33.44 16.35 30.02 15.35 30.02 14.35 33.49 13.56 29.71 12.34 29.71 13.58 35.31 14.74 35.31 15.82 31.54 16.97 35.31 18.13 35.31 19.37 29.71 18.18 29.71 17.4 33.44"/><polygon class="cls-3" points="24.6 29.71 23.18 29.71 21.25 32.07 21.25 29.71 20.05 29.71 20.05 35.31 21.25 35.31 21.25 32.96 21.6 32.96 23.33 35.31 24.83 35.31 22.48 32.19 24.6 29.71"/><polygon class="cls-3" points="25.02 30.73 26.68 30.73 26.68 35.31 27.88 35.31 27.88 30.73 29.54 30.73 29.54 29.71 25.02 29.71 25.02 30.73"/></svg>