<svg width="36" height="36" viewBox="0 0 36 36" fill="none" xmlns="http://www.w3.org/2000/svg">
<metadata><?xpacket begin="﻿" id="W5M0MpCehiHzreSzNTczkc9d"?>
<x:xmpmeta xmlns:x="adobe:ns:meta/" x:xmptk="Adobe XMP Core 7.1-c000 79.4d2f597, 2021/09/01-20:51:22        ">
   <rdf:RDF xmlns:rdf="http://www.w3.org/1999/02/22-rdf-syntax-ns#">
      <rdf:Description rdf:about=""
            xmlns:dc="http://purl.org/dc/elements/1.1/"
            xmlns:xmpRights="http://ns.adobe.com/xap/1.0/rights/"
            xmlns:xmp="http://ns.adobe.com/xap/1.0/"
            xmlns:xmpMM="http://ns.adobe.com/xap/1.0/mm/"
            xmlns:stEvt="http://ns.adobe.com/xap/1.0/sType/ResourceEvent#">
         <dc:subject>
            <rdf:Bag>
               <rdf:li>icon</rdf:li>
               <rdf:li>vector</rdf:li>
               <rdf:li>database</rdf:li>
               <rdf:li>AI</rdf:li>
               <rdf:li>search</rdf:li>
            </rdf:Bag>
         </dc:subject>
         <dc:rights>
            <rdf:Alt>
               <rdf:li xml:lang="x-default">Oracle All Rights</rdf:li>
            </rdf:Alt>
         </dc:rights>
         <xmpRights:Marked>True</xmpRights:Marked>
         <xmp:MetadataDate>2024-02-06T15:33:27-06:00</xmp:MetadataDate>
         <xmpMM:InstanceID>xmp.iid:c27aaf9d-9c5a-4a58-a57f-7c78084df0a2</xmpMM:InstanceID>
         <xmpMM:DocumentID>xmp.did:c27aaf9d-9c5a-4a58-a57f-7c78084df0a2</xmpMM:DocumentID>
         <xmpMM:OriginalDocumentID>xmp.did:c27aaf9d-9c5a-4a58-a57f-7c78084df0a2</xmpMM:OriginalDocumentID>
         <xmpMM:History>
            <rdf:Seq>
               <rdf:li>
                  <rdf:Description>
                     <stEvt:action>saved</stEvt:action>
                     <stEvt:instanceID>xmp.iid:c27aaf9d-9c5a-4a58-a57f-7c78084df0a2</stEvt:instanceID>
                     <stEvt:when>2024-02-06T15:33:27-06:00</stEvt:when>
                     <stEvt:softwareAgent>Adobe Bridge 2023</stEvt:softwareAgent>
                     <stEvt:changed>/metadata</stEvt:changed>
                  </rdf:Description>
               </rdf:li>
            </rdf:Seq>
         </xmpMM:History>
      </rdf:Description>
   </rdf:RDF>
</x:xmpmeta>
                                                                                                    
                                                                                                    
                                                                                                    
                                                                                                    
                                                                                                    
                                                                                                    
                                                                                                    
                                                                                                    
                                                                                                    
                                                                                                    
                                                                                                    
                                                                                                    
                                                                                                    
                                                                                                    
                                                                                                    
                                                                                                    
                                                                                                    
                                                                                                    
                                                                                                    
                                                                                                    
                           
<?xpacket end="w"?></metadata>
<path d="M13.8078 35.5786C10.4297 35.5786 7.24254 35.2616 4.83456 34.6853C1.86639 33.9775 0.424316 32.9655 0.424316 31.5941V9.90386C0.424316 8.51044 1.86469 7.47894 4.82777 6.74833C7.23999 6.15334 10.4288 5.82617 13.8078 5.82617C17.186 5.82617 20.3757 6.15334 22.7879 6.74833C25.7501 7.47894 27.1913 8.51129 27.1913 9.90386V17.3862H29.64L35.3998 23.1387L29.64 28.8912H27.1913V31.5941C27.1913 32.9655 25.7493 33.9775 22.7811 34.6853C20.3723 35.2616 17.186 35.5786 13.8078 35.5786Z" fill="white"/>
<path d="M13.8079 6.24992C17.1546 6.24992 20.307 6.57284 22.6861 7.15937C25.3937 7.82641 26.767 8.75026 26.767 9.90381V17.81H29.4636L34.7998 23.1387L29.4636 28.4674H26.767V29.3811V29.8227V31.595C26.767 32.7248 25.3928 33.6266 22.6818 34.2741C20.3044 34.8429 17.1529 35.1556 13.8079 35.1556C10.4629 35.1556 7.31136 34.8429 4.93394 34.2741C2.22295 33.6257 0.848776 32.7239 0.848776 31.5941V9.90381C0.848776 8.75026 2.2221 7.82726 4.92969 7.15937C7.30796 6.57284 10.4612 6.24992 13.8079 6.24992ZM13.8079 5.40234C10.395 5.40234 7.16961 5.73459 4.72599 6.33637C3.55722 6.62455 0 7.50179 0 9.90381V31.5941C0 33.9656 3.56486 34.8183 4.73617 35.098C7.1764 35.6811 10.3984 36.0023 13.8079 36.0023C17.2174 36.0023 20.4394 35.6811 22.8796 35.098C24.0509 34.8183 27.6158 33.9665 27.6158 31.5941V29.8218V29.3802V29.3141H29.4636H29.815L30.0637 29.0658L35.3999 23.7371L36 23.1379L35.3999 22.5386L30.0637 17.2099L29.815 16.9616H29.4636H27.6158V9.90381C27.6158 7.50179 24.0586 6.62455 22.8898 6.33637C20.4462 5.73459 17.2208 5.40234 13.8079 5.40234Z" fill="white"/>
<path d="M25.5474 31.5942C25.5474 31.7866 24.9686 32.4748 22.3985 33.0893C20.111 33.636 17.0605 33.9369 13.808 33.9369C10.5555 33.9369 7.50498 33.636 5.21753 33.0893C2.64659 32.4748 2.06857 31.7866 2.06857 31.5942V26.0883C2.74504 26.4867 3.69907 26.8342 4.93404 27.1292C4.94422 27.1317 4.95526 27.1342 4.96544 27.1359V25.8824C2.60924 25.2848 2.06857 24.6356 2.06857 24.45V19.0501C2.74504 19.4484 3.69907 19.7968 4.93404 20.0917C4.94422 20.0943 4.95526 20.0968 4.96544 20.0985V18.8441C2.60924 18.2457 2.06857 17.5973 2.06857 17.4117V11.5796C2.74419 11.9864 3.69737 12.3441 4.92979 12.6483C7.30891 13.2349 10.4621 13.5578 13.808 13.5578C17.1539 13.5578 20.3079 13.2349 22.6862 12.6483C23.9186 12.3441 24.8718 11.9872 25.5474 11.5796V16.8964H26.7671V9.9039C26.7671 8.75035 25.3938 7.82734 22.6862 7.15945C20.3071 6.57293 17.1547 6.25 13.808 6.25C10.4613 6.25 7.30807 6.57293 4.92979 7.15945C2.2222 7.82734 0.848877 8.75035 0.848877 9.9039V31.5942C0.848877 32.724 2.22305 33.6258 4.93404 34.2734C7.31146 34.8421 10.463 35.1549 13.808 35.1549C17.153 35.1549 20.3045 34.8421 22.682 34.2734C25.3921 33.6258 26.7671 32.724 26.7671 31.5942V29.3803H25.5474V31.5942ZM5.22177 8.34182C7.50753 7.77818 10.5572 7.46797 13.808 7.46797C17.0588 7.46797 20.1076 7.77818 22.3942 8.34182C24.9813 8.97919 25.5474 9.68522 25.5474 9.9039C25.5474 10.1217 24.9813 10.8278 22.3942 11.466C20.1085 12.0296 17.0588 12.3398 13.808 12.3398C10.5572 12.3398 7.50838 12.0296 5.22177 11.466C2.6347 10.8278 2.06857 10.1226 2.06857 9.9039C2.06857 9.68607 2.6347 8.98004 5.22177 8.34182ZM29.4637 17.8101H5.88042V28.4675H29.4645L34.7999 23.1388L29.4637 17.8101ZM28.9587 27.2487H7.10011V19.0272H28.9587L33.0752 23.1379L28.9587 27.2487ZM9.31287 21.0088H12.2182V21.5945L10.8025 25.0475H9.84336L11.299 21.7411H10.0751L9.83233 22.3726H9.31372L9.31287 21.0088ZM16.0369 21.0088H16.6633V25.0475H15.778V22.0624L14.8418 22.3777V21.8598L16.0369 21.0088ZM22.2253 21.0088H21.441L19.5007 23.6058V24.2822H21.391V25.0484H22.2262V24.2822H22.7906V23.549H22.2262V21.0088H22.2253ZM21.413 23.3354L21.3961 23.5499H20.4089L21.413 22.1751V23.3354ZM27.0591 20.9351C26.7586 20.9351 26.4955 20.9953 26.2697 21.1156C26.044 21.236 25.87 21.4055 25.7477 21.6259C25.6255 21.8454 25.5644 22.1039 25.5644 22.4005C25.5644 22.8133 25.6756 23.1405 25.8971 23.3803C26.1186 23.6211 26.4217 23.7406 26.8053 23.7406C26.9929 23.7406 27.1643 23.6973 27.3188 23.6109C27.2399 23.7423 27.144 23.8855 27.0311 24.0389L26.3037 25.0475H27.2399L27.9002 24.1296C28.1107 23.8406 28.272 23.5465 28.3857 23.2481C28.4986 22.9498 28.5546 22.6743 28.5546 22.4226C28.5546 21.953 28.4231 21.5877 28.16 21.3267C27.8968 21.0656 27.5293 20.9351 27.0591 20.9351ZM27.6965 22.6701C27.542 22.9557 27.3112 23.0981 27.0031 23.0981C26.8189 23.0981 26.672 23.0328 26.5626 22.904C26.4539 22.7743 26.3987 22.6006 26.3987 22.3827C26.3987 22.1497 26.4582 21.9657 26.5761 21.831C26.6941 21.6954 26.8554 21.6284 27.0582 21.6284C27.2653 21.6284 27.4266 21.6945 27.5437 21.8259C27.66 21.9573 27.7186 22.1395 27.7186 22.3726C27.7194 22.4734 27.7118 22.5726 27.6965 22.6701Z" fill="#2C5967"/>
</svg>
