<svg id="Layer_1" data-name="Layer 1" xmlns="http://www.w3.org/2000/svg" viewBox="0 0 42.08 34.39"><defs><style>.cls-1{fill:#2c5967;}.cls-2{fill:#fff;}</style></defs><title>Sales Cloud Service</title><metadata><?xpacket begin="﻿" id="W5M0MpCehiHzreSzNTczkc9d"?>
<x:xmpmeta xmlns:x="adobe:ns:meta/" x:xmptk="Adobe XMP Core 6.0-c006 79.164648, 2021/01/12-15:52:29        ">
   <rdf:RDF xmlns:rdf="http://www.w3.org/1999/02/22-rdf-syntax-ns#">
      <rdf:Description rdf:about=""
            xmlns:dc="http://purl.org/dc/elements/1.1/"
            xmlns:lr="http://ns.adobe.com/lightroom/1.0/"
            xmlns:xmp="http://ns.adobe.com/xap/1.0/"
            xmlns:xmpMM="http://ns.adobe.com/xap/1.0/mm/"
            xmlns:stEvt="http://ns.adobe.com/xap/1.0/sType/ResourceEvent#"
            xmlns:xmpRights="http://ns.adobe.com/xap/1.0/rights/">
         <dc:title>
            <rdf:Alt>
               <rdf:li xml:lang="x-default">Sales Cloud Service</rdf:li>
            </rdf:Alt>
         </dc:title>
         <dc:subject>
            <rdf:Bag>
               <rdf:li>icon</rdf:li>
               <rdf:li>Finances</rdf:li>
               <rdf:li>Business</rdf:li>
               <rdf:li>cloud</rdf:li>
               <rdf:li>Arrow</rdf:li>
            </rdf:Bag>
         </dc:subject>
         <dc:rights>
            <rdf:Alt>
               <rdf:li xml:lang="x-default">Oracle All Rights Reserved</rdf:li>
            </rdf:Alt>
         </dc:rights>
         <lr:hierarchicalSubject>
            <rdf:Bag>
               <rdf:li>icon</rdf:li>
               <rdf:li>Finances</rdf:li>
               <rdf:li>Business</rdf:li>
               <rdf:li>Arrow</rdf:li>
            </rdf:Bag>
         </lr:hierarchicalSubject>
         <xmp:MetadataDate>2021-07-21T19:17:45-05:00</xmp:MetadataDate>
         <xmpMM:InstanceID>xmp.iid:72af846a-1e7a-476e-bb8e-d51471a79e54</xmpMM:InstanceID>
         <xmpMM:DocumentID>xmp.did:0b7cb6a8-9617-4a7c-b915-124db6bea6e9</xmpMM:DocumentID>
         <xmpMM:OriginalDocumentID>xmp.did:0b7cb6a8-9617-4a7c-b915-124db6bea6e9</xmpMM:OriginalDocumentID>
         <xmpMM:History>
            <rdf:Seq>
               <rdf:li>
                  <rdf:Description>
                     <stEvt:action>saved</stEvt:action>
                     <stEvt:instanceID>xmp.iid:0b7cb6a8-9617-4a7c-b915-124db6bea6e9</stEvt:instanceID>
                     <stEvt:when>2021-06-18T11:42-05:00</stEvt:when>
                     <stEvt:softwareAgent>Adobe Bridge 2021 (Macintosh)</stEvt:softwareAgent>
                     <stEvt:changed>/metadata</stEvt:changed>
                  </rdf:Description>
               </rdf:li>
               <rdf:li>
                  <rdf:Description>
                     <stEvt:action>saved</stEvt:action>
                     <stEvt:instanceID>xmp.iid:72af846a-1e7a-476e-bb8e-d51471a79e54</stEvt:instanceID>
                     <stEvt:when>2021-07-21T19:17:45-05:00</stEvt:when>
                     <stEvt:softwareAgent>Adobe Bridge 2021 (Macintosh)</stEvt:softwareAgent>
                     <stEvt:changed>/metadata</stEvt:changed>
                  </rdf:Description>
               </rdf:li>
            </rdf:Seq>
         </xmpMM:History>
         <xmpRights:Marked>True</xmpRights:Marked>
      </rdf:Description>
   </rdf:RDF>
</x:xmpmeta>
                                                                                                    
                                                                                                    
                                                                                                    
                                                                                                    
                                                                                                    
                                                                                                    
                                                                                                    
                                                                                                    
                                                                                                    
                                                               
<?xpacket end="w"?></metadata>
<path class="cls-1" d="M39.76,21H32.7V19.26h6A7.32,7.32,0,0,0,36,10.07a7.19,7.19,0,0,0-2.31-1,4.7,4.7,0,0,1-3.19-2.48,7,7,0,0,0-6.34-3.92A7.12,7.12,0,0,0,18.91,5a4.49,4.49,0,0,1-3.76,1.4,5.42,5.42,0,0,0-2.66.44,5.37,5.37,0,0,0-3.11,3.88A4.6,4.6,0,0,1,7,13.92a7.7,7.7,0,0,0-4,5.34H9.5V21H1.08l.07-.92a9.4,9.4,0,0,1,5-7.67,2.91,2.91,0,0,0,1.52-2,7.09,7.09,0,0,1,4.1-5.13,7.21,7.21,0,0,1,3.52-.57,2.78,2.78,0,0,0,2.33-.86A8.85,8.85,0,0,1,24.11,1,8.76,8.76,0,0,1,32,5.88a2.94,2.94,0,0,0,2,1.56,9.16,9.16,0,0,1,2.86,1.18A9,9,0,0,1,40,20.53Z"/><polygon class="cls-1" points="31.41 25.92 29.7 25.92 29.7 15.61 19.17 15.61 19.17 13.89 31.41 13.89 31.41 25.92"/><path class="cls-2" d="M10.5,24.08l2.59-2.6H.54L.65,20A9.87,9.87,0,0,1,6,12,2.35,2.35,0,0,0,7.2,10.28a7.59,7.59,0,0,1,7.46-6.13,5.48,5.48,0,0,1,.7,0h.25a2.26,2.26,0,0,0,1.67-.72,9.37,9.37,0,0,1,6.83-3,9.26,9.26,0,0,1,8.33,5.15A2.46,2.46,0,0,0,34.12,7a9.22,9.22,0,0,1,3,1.24,9.53,9.53,0,0,1,3.31,12.57l-.38.71H31.91v4.94H25.54V24.37L19.2,30.71l-3.11-3.12L10.5,33.18Z"/><path class="cls-2" d="M24.11,1A8.76,8.76,0,0,1,32,5.88a2.94,2.94,0,0,0,2,1.56,9.16,9.16,0,0,1,2.86,1.18A9,9,0,0,1,40,20.53l-.24.45H31.41v4.94H26V23.16L19.2,30l-3.11-3.11L11,32v-7.7L14.3,21H1.08l.07-.92a9.4,9.4,0,0,1,5-7.67,2.91,2.91,0,0,0,1.52-2,7.09,7.09,0,0,1,4.1-5.13,7.22,7.22,0,0,1,2.86-.6l.66,0,.29,0a2.8,2.8,0,0,0,2-.88A8.85,8.85,0,0,1,24.11,1m0-1a9.82,9.82,0,0,0-7.19,3.14,1.78,1.78,0,0,1-1.31.56h-.2a6.28,6.28,0,0,0-.75,0,8.12,8.12,0,0,0-7.95,6.54,1.91,1.91,0,0,1-1,1.32A10.41,10.41,0,0,0,.15,20l-.07.92L0,22H11.88l-1.59,1.6-.29.29V34.39l1.7-1.7,4.39-4.39,2.41,2.41.7.71.71-.71L25,25.58v1.34h7.37V22h8l.28-.52.24-.45A10,10,0,0,0,34.23,6.47a2,2,0,0,1-1.34-1A9.77,9.77,0,0,0,24.11,0Z"/><path class="cls-1" d="M39.76,21H32.7V19.26h6A7.32,7.32,0,0,0,36,10.07a7.19,7.19,0,0,0-2.31-1,4.7,4.7,0,0,1-3.19-2.48,7,7,0,0,0-6.34-3.92A7.12,7.12,0,0,0,18.91,5a4.49,4.49,0,0,1-3.76,1.4,5.42,5.42,0,0,0-2.66.44,5.37,5.37,0,0,0-3.11,3.88A4.6,4.6,0,0,1,7,13.92a7.7,7.7,0,0,0-4,5.34H9.5V21H1.08l.07-.92a9.4,9.4,0,0,1,5-7.67,2.91,2.91,0,0,0,1.52-2,7.09,7.09,0,0,1,4.1-5.13,7.21,7.21,0,0,1,3.52-.57,2.78,2.78,0,0,0,2.33-.86A8.85,8.85,0,0,1,24.11,1,8.76,8.76,0,0,1,32,5.88a2.94,2.94,0,0,0,2,1.56,9.16,9.16,0,0,1,2.86,1.18A9,9,0,0,1,40,20.53Z"/><polygon class="cls-1" points="31.41 25.92 29.7 25.92 29.7 15.61 19.17 15.61 19.17 13.89 31.41 13.89 31.41 25.92"/><polygon class="cls-1" points="19.2 27.57 16.09 24.46 11 29.55 11 31.98 16.09 26.89 19.2 30 26.04 23.16 26.04 25.92 27.76 25.92 27.76 19.02 19.2 27.57"/><polygon class="cls-1" points="19.17 17.55 19.17 19.26 22.25 19.26 19.2 22.31 16.09 19.19 11 24.28 11 26.71 16.09 21.62 19.2 24.74 26.4 17.55 19.17 17.55"/></svg>