<?xml version="1.0" encoding="UTF-8"?>
<svg id="Layer_1" data-name="Layer 1" xmlns="http://www.w3.org/2000/svg" viewBox="0 0 41.64 42">
  <metadata><?xpacket begin="﻿" id="W5M0MpCehiHzreSzNTczkc9d"?>
<x:xmpmeta xmlns:x="adobe:ns:meta/" x:xmptk="Adobe XMP Core 7.1-c000 79.4d2f597, 2021/09/01-20:51:22        ">
   <rdf:RDF xmlns:rdf="http://www.w3.org/1999/02/22-rdf-syntax-ns#">
      <rdf:Description rdf:about=""
            xmlns:dc="http://purl.org/dc/elements/1.1/"
            xmlns:xmpRights="http://ns.adobe.com/xap/1.0/rights/"
            xmlns:xmp="http://ns.adobe.com/xap/1.0/"
            xmlns:xmpMM="http://ns.adobe.com/xap/1.0/mm/"
            xmlns:stEvt="http://ns.adobe.com/xap/1.0/sType/ResourceEvent#">
         <dc:rights>
            <rdf:Alt>
               <rdf:li xml:lang="x-default">Oracle All Rights</rdf:li>
            </rdf:Alt>
         </dc:rights>
         <dc:subject>
            <rdf:Bag>
               <rdf:li>documentation</rdf:li>
               <rdf:li>file</rdf:li>
               <rdf:li>brain</rdf:li>
               <rdf:li>icon</rdf:li>
            </rdf:Bag>
         </dc:subject>
         <xmpRights:Marked>True</xmpRights:Marked>
         <xmp:MetadataDate>2024-07-05T18:09:40-06:00</xmp:MetadataDate>
         <xmpMM:InstanceID>xmp.iid:16840278-feb3-48ac-bd72-7a9a953d3618</xmpMM:InstanceID>
         <xmpMM:DocumentID>xmp.did:70886579-9563-4ce0-9d99-5fbe2fa62f47</xmpMM:DocumentID>
         <xmpMM:OriginalDocumentID>xmp.did:70886579-9563-4ce0-9d99-5fbe2fa62f47</xmpMM:OriginalDocumentID>
         <xmpMM:History>
            <rdf:Seq>
               <rdf:li>
                  <rdf:Description>
                     <stEvt:action>saved</stEvt:action>
                     <stEvt:instanceID>xmp.iid:70886579-9563-4ce0-9d99-5fbe2fa62f47</stEvt:instanceID>
                     <stEvt:when>2024-07-05T18:05:08-06:00</stEvt:when>
                     <stEvt:softwareAgent>Adobe Bridge 2023</stEvt:softwareAgent>
                     <stEvt:changed>/metadata</stEvt:changed>
                  </rdf:Description>
               </rdf:li>
               <rdf:li>
                  <rdf:Description>
                     <stEvt:action>saved</stEvt:action>
                     <stEvt:instanceID>xmp.iid:16840278-feb3-48ac-bd72-7a9a953d3618</stEvt:instanceID>
                     <stEvt:when>2024-07-05T18:09:40-06:00</stEvt:when>
                     <stEvt:softwareAgent>Adobe Bridge 2023</stEvt:softwareAgent>
                     <stEvt:changed>/metadata</stEvt:changed>
                  </rdf:Description>
               </rdf:li>
            </rdf:Seq>
         </xmpMM:History>
      </rdf:Description>
   </rdf:RDF>
</x:xmpmeta>
                                                                                                    
                                                                                                    
                                                                                                    
                                                                                                    
                                                                                                    
                                                                                                    
                                                                                                    
                                                                                                    
                                                                                                    
                                                                                                    
                                                                                                    
                                                                                                    
                                                                                          
<?xpacket end="w"?></metadata>
<defs>
    <style>
      .cls-1 {
        fill: #fff;
      }

      .cls-2 {
        fill: #2d5967;
      }
    </style>
  </defs>
  <path class="cls-1" d="m41.64,7.18v31.76h-15.51c-1.43,1.92-3.67,3.06-6.1,3.06h-.25c-1.21-.04-2.24-.74-2.76-1.75-.39.76-1.08,1.35-1.92,1.61v.14h-1.09c-2.54,0-4.86-1.22-6.28-3.3-3.48-.73-6.05-3.86-6.05-7.46v-.22c-1.08-1.35-1.68-3.03-1.68-4.78s.6-3.43,1.68-4.78v-.25c0-3.61,2.59-6.75,6.1-7.48.83-1.17,1.98-2.1,3.27-2.66V0h23.41l.29.29,6.59,6.6.3.29Z"/>
  <path class="cls-2" d="m40.64,7.6l-6.6-6.6H12.05v10.76c-.1.04-.18.06-.29.1-1.41.53-2.59,1.51-3.39,2.78-3.23.47-5.7,3.27-5.7,6.57s0,.39.02.59c-1.1,1.23-1.69,2.78-1.69,4.43s.59,3.21,1.69,4.43c0,.2-.02.39-.02.57,0,3.29,2.45,6.08,5.66,6.55,1.2,2,3.33,3.21,5.68,3.21s.14,0,.22,0c1.2-.04,2.14-1.02,2.14-2.25v-.82h1.29v.82c0,1.23.94,2.21,2.14,2.25h.22c2.29,0,4.37-1.16,5.57-3.06h15.03V7.6h0Zm-6.74-4.43l4.55,4.55h-4.55V3.16ZM14.17,39.37h-.16c-1.88,0-3.57-1.04-4.45-2.72l-.2-.41-.45-.04c-2.57-.2-4.59-2.39-4.59-4.98s0-.45.06-.74l.06-.41-.31-.29c-.96-.94-1.49-2.23-1.49-3.57s.53-2.61,1.49-3.57l.31-.29-.06-.41c-.04-.29-.06-.53-.06-.76,0-2.59,2.04-4.8,4.64-4.98l.45-.04.2-.39c.59-1.1,1.57-1.96,2.74-2.41.55-.2,1.12-.31,1.67-.31s.08,0,.12,0c.35,0,.61.29.61.61v7.88h-4l-.25-.25c.16-.33.25-.69.25-1.08,0-1.37-1.12-2.49-2.49-2.49s-2.49,1.12-2.49,2.49,1.12,2.49,2.49,2.49.76-.08,1.08-.25l.71.71h4.68v2.21h-6.02c-.35-.96-1.27-1.65-2.35-1.65s-2.49,1.12-2.49,2.49,1.12,2.49,2.49,2.49,2-.69,2.35-1.67h6.02v2.1h-4.68l-.71.71c-.33-.16-.69-.25-1.08-.25-1.37,0-2.49,1.12-2.49,2.49s1.12,2.49,2.49,2.49,2.49-1.12,2.49-2.49-.08-.76-.25-1.08l.25-.25h4v7.96c0,.33-.25.59-.57.61h0Zm-5.9-18.27c-.47,0-.86-.39-.86-.86s.39-.86.86-.86.86.39.86.86-.39.86-.86.86Zm-1.04,5.13c0,.47-.39.86-.86.86s-.86-.39-.86-.86.39-.86.86-.86.86.39.86.86Zm1.88,5.88c0,.47-.39.86-.86.86s-.86-.39-.86-.86.39-.86.86-.86.86.39.86.86Zm15.58,4.14l-.2.41c-.86,1.67-2.57,2.72-4.45,2.72s-.1,0-.16,0c-.31,0-.57-.29-.57-.61v-7.96h4l.25.25c-.16.33-.25.69-.25,1.08,0,1.37,1.12,2.49,2.49,2.49s2.49-1.12,2.49-2.49-1.12-2.49-2.49-2.49-.76.08-1.08.25l-.71-.71h-4.68v-2.1h6.02c.35.98,1.27,1.67,2.35,1.67s2.49-1.12,2.49-2.49-1.12-2.49-2.49-2.49-2,.69-2.35,1.65h-6.02v-2.21h4.68l.71-.71c.33.16.69.25,1.08.25,1.37,0,2.49-1.12,2.49-2.49s-1.12-2.49-2.49-2.49-2.49,1.12-2.49,2.49.08.76.25,1.08l-.25.25h-4v-7.88c0-.33.27-.59.61-.61.61,0,1.2.08,1.8.31,1.18.43,2.14,1.29,2.74,2.41l.2.39.45.04c2.59.18,4.64,2.39,4.64,4.98s0,.47-.06.76l-.06.41.31.29c.96.96,1.49,2.23,1.49,3.57s-.53,2.61-1.49,3.57l-.31.29.06.41c.04.29.06.51.06.74,0,2.59-2.02,4.78-4.59,4.98l-.45.04h0Zm1.08-5c.47,0,.86.39.86.86s-.39.86-.86.86-.86-.39-.86-.86.39-.86.86-.86Zm1.04-5.02c0-.47.39-.86.86-.86s.86.39.86.86-.39.86-.86.86-.86-.39-.86-.86Zm-1.88-5.96c0-.47.39-.86.86-.86s.86.39.86.86-.39.86-.86.86-.86-.39-.86-.86Zm4.04,16.05c1.47-1.23,2.39-3.06,2.39-5.08s0-.37-.02-.57c1.1-1.23,1.69-2.78,1.69-4.43s-.59-3.21-1.69-4.43c.02-.2.02-.41.02-.59,0-3.31-2.47-6.11-5.7-6.57-.8-1.29-1.98-2.25-3.39-2.78-.8-.29-1.59-.43-2.41-.41-1.23.04-2.21,1.02-2.21,2.25v22.62h-1.29V13.68c0-1.23-.96-2.21-2.21-2.25h-.49V2.61h18.58v6.74h6.74v26.95h-10.03,0Z"/>
</svg>