<?xml version="1.0" encoding="UTF-8"?>
<svg id="bark_icon" data-name="bark icon" xmlns="http://www.w3.org/2000/svg" viewBox="0 0 37.82 42">
  <metadata><?xpacket begin="﻿" id="W5M0MpCehiHzreSzNTczkc9d"?>
<x:xmpmeta xmlns:x="adobe:ns:meta/" x:xmptk="Adobe XMP Core 7.1-c000 79.4d2f597, 2021/09/01-20:51:22        ">
   <rdf:RDF xmlns:rdf="http://www.w3.org/1999/02/22-rdf-syntax-ns#">
      <rdf:Description rdf:about=""
            xmlns:dc="http://purl.org/dc/elements/1.1/"
            xmlns:xmp="http://ns.adobe.com/xap/1.0/"
            xmlns:xmpMM="http://ns.adobe.com/xap/1.0/mm/"
            xmlns:stEvt="http://ns.adobe.com/xap/1.0/sType/ResourceEvent#"
            xmlns:lr="http://ns.adobe.com/lightroom/1.0/"
            xmlns:xmpRights="http://ns.adobe.com/xap/1.0/rights/">
         <dc:subject>
            <rdf:Bag>
               <rdf:li>database</rdf:li>
               <rdf:li>power</rdf:li>
               <rdf:li>TimesTen</rdf:li>
               <rdf:li>cache</rdf:li>
               <rdf:li>memory</rdf:li>
               <rdf:li>database</rdf:li>
               <rdf:li>icon</rdf:li>
            </rdf:Bag>
         </dc:subject>
         <dc:rights>
            <rdf:Alt>
               <rdf:li xml:lang="x-default">Oracle All Rights</rdf:li>
            </rdf:Alt>
         </dc:rights>
         <xmp:MetadataDate>2024-05-06T16:22:56-06:00</xmp:MetadataDate>
         <xmpMM:InstanceID>xmp.iid:06988c07-04c1-4964-aace-9a84ab470025</xmpMM:InstanceID>
         <xmpMM:DocumentID>xmp.did:2c01c5a3-99ac-43f6-8520-823cac27cef6</xmpMM:DocumentID>
         <xmpMM:OriginalDocumentID>xmp.did:2c01c5a3-99ac-43f6-8520-823cac27cef6</xmpMM:OriginalDocumentID>
         <xmpMM:History>
            <rdf:Seq>
               <rdf:li>
                  <rdf:Description>
                     <stEvt:action>saved</stEvt:action>
                     <stEvt:instanceID>xmp.iid:2c01c5a3-99ac-43f6-8520-823cac27cef6</stEvt:instanceID>
                     <stEvt:when>2024-05-06T16:22:31-06:00</stEvt:when>
                     <stEvt:softwareAgent>Adobe Bridge 2023</stEvt:softwareAgent>
                     <stEvt:changed>/metadata</stEvt:changed>
                  </rdf:Description>
               </rdf:li>
               <rdf:li>
                  <rdf:Description>
                     <stEvt:action>saved</stEvt:action>
                     <stEvt:instanceID>xmp.iid:06988c07-04c1-4964-aace-9a84ab470025</stEvt:instanceID>
                     <stEvt:when>2024-05-06T16:22:56-06:00</stEvt:when>
                     <stEvt:softwareAgent>Adobe Bridge 2023</stEvt:softwareAgent>
                     <stEvt:changed>/metadata</stEvt:changed>
                  </rdf:Description>
               </rdf:li>
            </rdf:Seq>
         </xmpMM:History>
         <lr:hierarchicalSubject>
            <rdf:Bag>
               <rdf:li>Other Keywords|icon</rdf:li>
            </rdf:Bag>
         </lr:hierarchicalSubject>
         <xmpRights:Marked>True</xmpRights:Marked>
      </rdf:Description>
   </rdf:RDF>
</x:xmpmeta>
                                                                                                    
                                                                                                    
                                                                                                    
                                                                                                    
                                                                                                    
                                                                                                    
                                                                                                    
                                                                                                    
                                                                                                    
                                                                                                    
   
<?xpacket end="w"?></metadata>
<defs>
    <style>
      .cls-1 {
        fill: #fbf9f8;
      }

      .cls-2 {
        fill: #2d5967;
      }
    </style>
  </defs>
  <g>
    <path class="cls-1" d="m18.91,41.5c-4.68,0-9.07-.44-12.38-1.23-4.06-.97-6.03-2.35-6.03-4.2V6.48c0-.06,0-.13.02-.19,0-.08-.02-.16-.02-.23,0-1.89,1.97-3.29,6.02-4.29,3.34-.82,7.74-1.27,12.39-1.27s9.05.45,12.39,1.27c4.05,1,6.02,2.4,6.02,4.29,0,.08,0,.15-.02.23,0,.07.02.13.02.19v29.59c0,1.85-1.97,3.22-6.03,4.2-3.3.79-7.7,1.23-12.38,1.23Z"/>
    <path class="cls-1" d="m18.91,1c4.62,0,8.98.45,12.27,1.26,3.74.92,5.64,2.2,5.64,3.8,0,.08,0,.16-.02.24.01.06.02.12.02.18v29.59c0,1.57-1.9,2.81-5.65,3.71-3.28.79-7.64,1.22-12.26,1.22s-8.98-.43-12.26-1.22c-3.75-.9-5.65-2.14-5.65-3.71V6.48c0-.06,0-.12.02-.18-.01-.08-.02-.16-.02-.24,0-1.6,1.9-2.88,5.64-3.8,3.29-.81,7.65-1.26,12.27-1.26m0-1c-4.69,0-9.13.46-12.51,1.29C2.09,2.35,0,3.91,0,6.06c0,.08,0,.15.01.23,0,.06-.01.13-.01.19v29.59c0,3.14,4.83,4.3,6.42,4.68,3.34.8,7.78,1.25,12.49,1.25s9.15-.44,12.49-1.25c1.59-.38,6.42-1.54,6.42-4.68V6.48c0-.06,0-.13-.01-.19,0-.08.01-.15.01-.23,0-2.15-2.09-3.71-6.4-4.77-3.38-.83-7.82-1.29-12.51-1.29h0Z"/>
  </g>
  <g>
    <path class="cls-2" d="m36.82,6.06c0-1.6-1.9-2.87-5.64-3.8-3.29-.81-7.64-1.26-12.27-1.26s-8.98.45-12.27,1.26c-3.74.92-5.64,2.2-5.64,3.8,0,.08,0,.17.02.25-.01.06-.02.11-.02.17v29.59c0,1.56,1.9,2.81,5.64,3.71,3.29.79,7.64,1.22,12.26,1.22s8.98-.43,12.26-1.22c3.75-.9,5.64-2.14,5.64-3.71V6.48c0-.06,0-.12-.02-.17.01-.08.02-.16.02-.25Zm-1.69,8.85v1.54s-.02.08-.05.14c-.22.38-1.23,1.19-4.3,1.93-.4.1-.81.19-1.24.27.29.5.54,1.02.75,1.57.3-.06.6-.13.89-.2,1.71-.41,3.02-.89,3.96-1.44v7.47c0,.1-.1.28-.4.52-.53.42-1.67,1.01-3.95,1.55-.05.01-.11.02-.16.04-.19.65-.44,1.28-.74,1.88.45-.09.88-.18,1.29-.28,1.71-.41,3.02-.89,3.96-1.44v7.62c0,.27-.8,1.22-4.35,2.07-3.16.76-7.38,1.17-11.87,1.17s-8.71-.42-11.87-1.17c-3.55-.85-4.35-1.8-4.35-2.07v-7.62c.93.55,2.25,1.03,3.96,1.44.41.1.84.19,1.29.28-.3-.6-.54-1.23-.74-1.88-.05-.01-.11-.02-.16-.04-2.28-.54-3.42-1.13-3.95-1.55-.3-.24-.4-.42-.4-.52v-7.47c.93.55,2.25,1.03,3.96,1.44.29.07.59.13.89.2.21-.54.46-1.07.75-1.57-.43-.08-.85-.17-1.24-.27-3.07-.74-4.09-1.55-4.3-1.93-.03-.06-.05-.11-.05-.14v-8.07c.93.56,2.25,1.06,3.95,1.48,3.29.81,7.64,1.26,12.27,1.26s8.98-.45,12.27-1.26c1.7-.42,3.02-.92,3.95-1.48v6.53Zm-.25-8.43c-.23.23-.65.53-1.36.84-.65.29-1.54.6-2.74.9-3.16.78-7.37,1.21-11.86,1.21s-8.71-.43-11.86-1.21c-1.21-.3-2.1-.61-2.74-.9-.71-.32-1.13-.61-1.36-.84-.19-.19-.25-.33-.25-.42s.07-.24.25-.42c.45-.45,1.58-1.12,4.1-1.74,3.16-.78,7.37-1.21,11.86-1.21s8.71.43,11.86,1.21c2.52.62,3.66,1.29,4.1,1.74.19.19.25.33.25.42s-.07.24-.25.42Z"/>
    <polygon class="cls-2" points="23.72 18.29 14.64 25.66 17.63 25.66 14.1 31.33 23.18 23.95 20.09 23.95 23.72 18.29"/>
    <path class="cls-2" d="m18.91,13.85c-6.04,0-10.96,4.91-10.96,10.96s4.91,10.96,10.96,10.96,10.96-4.91,10.96-10.96-4.91-10.96-10.96-10.96Zm0,20.23c-5.11,0-9.27-4.16-9.27-9.27s4.16-9.27,9.27-9.27,9.27,4.16,9.27,9.27-4.16,9.27-9.27,9.27Z"/>
  </g>
</svg>