<svg id="Layer_1" data-name="Layer 1" xmlns="http://www.w3.org/2000/svg" viewBox="0 0 43.84 42.12"><defs><style>.cls-1{fill:#fff;}.cls-2{fill:#2c5967;}</style></defs><title>Oracle Advanced Authentication</title><metadata><?xpacket begin="﻿" id="W5M0MpCehiHzreSzNTczkc9d"?>
<x:xmpmeta xmlns:x="adobe:ns:meta/" x:xmptk="Adobe XMP Core 6.0-c006 79.164648, 2021/01/12-15:52:29        ">
   <rdf:RDF xmlns:rdf="http://www.w3.org/1999/02/22-rdf-syntax-ns#">
      <rdf:Description rdf:about=""
            xmlns:xmp="http://ns.adobe.com/xap/1.0/"
            xmlns:xmpMM="http://ns.adobe.com/xap/1.0/mm/"
            xmlns:stEvt="http://ns.adobe.com/xap/1.0/sType/ResourceEvent#"
            xmlns:xmpRights="http://ns.adobe.com/xap/1.0/rights/"
            xmlns:dc="http://purl.org/dc/elements/1.1/"
            xmlns:lr="http://ns.adobe.com/lightroom/1.0/">
         <xmp:MetadataDate>2021-06-24T19:32:29-05:00</xmp:MetadataDate>
         <xmpMM:InstanceID>xmp.iid:08bec3d8-1c2a-479d-9190-44bef3b7bbae</xmpMM:InstanceID>
         <xmpMM:DocumentID>xmp.did:c14631c2-66fb-4aa2-8c21-ca540903933f</xmpMM:DocumentID>
         <xmpMM:OriginalDocumentID>xmp.did:c14631c2-66fb-4aa2-8c21-ca540903933f</xmpMM:OriginalDocumentID>
         <xmpMM:History>
            <rdf:Seq>
               <rdf:li>
                  <rdf:Description>
                     <stEvt:action>saved</stEvt:action>
                     <stEvt:instanceID>xmp.iid:c14631c2-66fb-4aa2-8c21-ca540903933f</stEvt:instanceID>
                     <stEvt:when>2021-06-18T11:41:55-05:00</stEvt:when>
                     <stEvt:softwareAgent>Adobe Bridge 2021 (Macintosh)</stEvt:softwareAgent>
                     <stEvt:changed>/metadata</stEvt:changed>
                  </rdf:Description>
               </rdf:li>
               <rdf:li>
                  <rdf:Description>
                     <stEvt:action>saved</stEvt:action>
                     <stEvt:instanceID>xmp.iid:08bec3d8-1c2a-479d-9190-44bef3b7bbae</stEvt:instanceID>
                     <stEvt:when>2021-06-24T19:32:29-05:00</stEvt:when>
                     <stEvt:softwareAgent>Adobe Bridge 2021 (Macintosh)</stEvt:softwareAgent>
                     <stEvt:changed>/metadata</stEvt:changed>
                  </rdf:Description>
               </rdf:li>
            </rdf:Seq>
         </xmpMM:History>
         <xmpRights:Marked>True</xmpRights:Marked>
         <dc:title>
            <rdf:Alt>
               <rdf:li xml:lang="x-default">Oracle Advanced Authentication</rdf:li>
            </rdf:Alt>
         </dc:title>
         <dc:subject>
            <rdf:Bag>
               <rdf:li>icon</rdf:li>
               <rdf:li>Access</rdf:li>
               <rdf:li>Security</rdf:li>
               <rdf:li>Protection</rdf:li>
               <rdf:li>technology</rdf:li>
            </rdf:Bag>
         </dc:subject>
         <dc:rights>
            <rdf:Alt>
               <rdf:li xml:lang="x-default">Oracle All Rights Reserved</rdf:li>
            </rdf:Alt>
         </dc:rights>
         <lr:hierarchicalSubject>
            <rdf:Bag>
               <rdf:li>icon</rdf:li>
               <rdf:li>Access</rdf:li>
               <rdf:li>Security</rdf:li>
               <rdf:li>Protection</rdf:li>
               <rdf:li>technology</rdf:li>
            </rdf:Bag>
         </lr:hierarchicalSubject>
      </rdf:Description>
   </rdf:RDF>
</x:xmpmeta>
                                                                                                    
                                                                                                    
                                                                                                    
                                                                                                    
                                                                                                    
                                                                                                    
                                                                                                    
                                                                                                    
                                                                                                    
            
<?xpacket end="w"?></metadata>
<path class="cls-1" d="M21.33,41.25C14.9,38,11,33,10.72,27.39v-5H.54l.11-1.5a10.34,10.34,0,0,1,5.52-8.41A2.52,2.52,0,0,0,7.5,10.7a7.9,7.9,0,0,1,7.76-6.39c.24,0,.49,0,.73,0h.26A2.37,2.37,0,0,0,18,3.6,9.75,9.75,0,0,1,25.12.5,9.65,9.65,0,0,1,33.8,5.87a2.6,2.6,0,0,0,1.77,1.37,9.92,9.92,0,0,1,6.59,14.39l-.4.73H33.25v5C32.93,33,29,38,22.58,41.25l-.63.31Z"/><path class="cls-1" d="M25.12,1a9.15,9.15,0,0,1,8.23,5.09,3.11,3.11,0,0,0,2.11,1.64,9,9,0,0,1,3,1.23,9.44,9.44,0,0,1,3.28,12.43l-.26.47H32.75v5.5c-.31,5.39-4.1,10.29-10.4,13.44L22,41l-.4-.2c-6.26-3.14-10-8-10.33-13.44v-5.5H1.08l.07-1a9.81,9.81,0,0,1,5.25-8A3.07,3.07,0,0,0,8,10.79a7.4,7.4,0,0,1,4.28-5.35,7.53,7.53,0,0,1,3-.63,5.07,5.07,0,0,1,.68,0h.31a2.89,2.89,0,0,0,2.13-.92A9.23,9.23,0,0,1,25.12,1m0-1a10.23,10.23,0,0,0-7.47,3.26,1.88,1.88,0,0,1-1.4.6H16c-.26,0-.52,0-.78,0a8.58,8.58,0,0,0-3.39.71A8.43,8.43,0,0,0,7,10.6,2,2,0,0,1,5.94,12,10.8,10.8,0,0,0,.15,20.83l-.07,1L0,22.86H10.21V27.4c.33,5.79,4.29,11,10.88,14.29l.41.2.44.23.45-.23.4-.2c6.63-3.32,10.62-8.52,11-14.27V22.86h8.31l.28-.52.26-.47A10.43,10.43,0,0,0,35.68,6.75a2.07,2.07,0,0,1-1.43-1.11A10.15,10.15,0,0,0,25.12,0Z"/><path class="cls-2" d="M38.44,9a9.24,9.24,0,0,0-3-1.22,3.11,3.11,0,0,1-2.11-1.64,9.2,9.2,0,0,0-15-2.15,2.92,2.92,0,0,1-2.44.91A7.39,7.39,0,0,0,8,10.79,3.07,3.07,0,0,1,6.4,12.9a9.81,9.81,0,0,0-5.25,8l-.07,1H9.87V20.07H3.07a8,8,0,0,1,4.17-5.58,4.82,4.82,0,0,0,2.51-3.35,5.61,5.61,0,0,1,6-4.51A4.7,4.7,0,0,0,19.7,5.16,7.4,7.4,0,0,1,31.75,6.89a4.85,4.85,0,0,0,3.32,2.59,7.61,7.61,0,0,1,5.3,10.59H34.1v1.79h7.36l.26-.47A9.45,9.45,0,0,0,38.44,9Z"/><path class="cls-2" d="M19.54,24.65a2.48,2.48,0,0,0,1.28,2.65l-.49,3.18h3.31l-.47-3.2a2.48,2.48,0,1,0-3.63-2.63Z"/><path class="cls-2" d="M28.85,14.82a6.87,6.87,0,0,0-13.74,0v.8l-3.9,1.71v10c.3,5.41,4.07,10.3,10.33,13.44l.4.2.41-.2c6.29-3.16,10.08-8,10.39-13.44V17.25l-3.9-1.67Zm-11.94,0a5.08,5.08,0,0,1,10.15,0L22,12.62l-5,2.21ZM31,27.28c-.28,4.61-3.55,8.85-9,11.71-5.42-2.84-8.67-7.08-8.94-11.71V18.5l9-3.92,9,3.85Z"/></svg>