<svg id="Layer_1" data-name="Layer 1" xmlns="http://www.w3.org/2000/svg" viewBox="0 0 47.27 42"><defs><style>.cls-1{fill:#fff;}.cls-2{fill:#2c5967;}</style></defs><title>Oracle Machine Learning for Spark</title><metadata><?xpacket begin="﻿" id="W5M0MpCehiHzreSzNTczkc9d"?>
<x:xmpmeta xmlns:x="adobe:ns:meta/" x:xmptk="Adobe XMP Core 6.0-c006 79.164648, 2021/01/12-15:52:29        ">
   <rdf:RDF xmlns:rdf="http://www.w3.org/1999/02/22-rdf-syntax-ns#">
      <rdf:Description rdf:about=""
            xmlns:xmpRights="http://ns.adobe.com/xap/1.0/rights/"
            xmlns:xmp="http://ns.adobe.com/xap/1.0/"
            xmlns:xmpMM="http://ns.adobe.com/xap/1.0/mm/"
            xmlns:stEvt="http://ns.adobe.com/xap/1.0/sType/ResourceEvent#"
            xmlns:dc="http://purl.org/dc/elements/1.1/"
            xmlns:lr="http://ns.adobe.com/lightroom/1.0/">
         <xmpRights:Marked>True</xmpRights:Marked>
         <xmp:MetadataDate>2021-07-22T15:12:07-05:00</xmp:MetadataDate>
         <xmpMM:InstanceID>xmp.iid:3140e62b-19b8-4c18-83a0-9cc742d9f96c</xmpMM:InstanceID>
         <xmpMM:DocumentID>xmp.did:dcfa133e-455e-43f6-a30b-8b9048460f70</xmpMM:DocumentID>
         <xmpMM:OriginalDocumentID>xmp.did:dcfa133e-455e-43f6-a30b-8b9048460f70</xmpMM:OriginalDocumentID>
         <xmpMM:History>
            <rdf:Seq>
               <rdf:li>
                  <rdf:Description>
                     <stEvt:action>saved</stEvt:action>
                     <stEvt:instanceID>xmp.iid:dcfa133e-455e-43f6-a30b-8b9048460f70</stEvt:instanceID>
                     <stEvt:when>2021-06-23T15:54:02-05:00</stEvt:when>
                     <stEvt:softwareAgent>Adobe Bridge 2021 (Macintosh)</stEvt:softwareAgent>
                     <stEvt:changed>/metadata</stEvt:changed>
                  </rdf:Description>
               </rdf:li>
               <rdf:li>
                  <rdf:Description>
                     <stEvt:action>saved</stEvt:action>
                     <stEvt:instanceID>xmp.iid:3140e62b-19b8-4c18-83a0-9cc742d9f96c</stEvt:instanceID>
                     <stEvt:when>2021-07-22T15:12:07-05:00</stEvt:when>
                     <stEvt:softwareAgent>Adobe Bridge 2021 (Macintosh)</stEvt:softwareAgent>
                     <stEvt:changed>/metadata</stEvt:changed>
                  </rdf:Description>
               </rdf:li>
            </rdf:Seq>
         </xmpMM:History>
         <dc:title>
            <rdf:Alt>
               <rdf:li xml:lang="x-default">Oracle Machine Learning for Spark</rdf:li>
            </rdf:Alt>
         </dc:title>
         <dc:rights>
            <rdf:Alt>
               <rdf:li xml:lang="x-default">Oracle All Rights Reserved</rdf:li>
            </rdf:Alt>
         </dc:rights>
         <dc:subject>
            <rdf:Bag>
               <rdf:li>icon</rdf:li>
               <rdf:li>AI</rdf:li>
               <rdf:li>Artificial Intelligence</rdf:li>
               <rdf:li>technology</rdf:li>
               <rdf:li>Spark</rdf:li>
               <rdf:li>OML</rdf:li>
            </rdf:Bag>
         </dc:subject>
         <lr:hierarchicalSubject>
            <rdf:Bag>
               <rdf:li>icon</rdf:li>
               <rdf:li>AI</rdf:li>
               <rdf:li>Artificial Intelligence</rdf:li>
               <rdf:li>technology</rdf:li>
               <rdf:li>Other Keywords|OML</rdf:li>
            </rdf:Bag>
         </lr:hierarchicalSubject>
      </rdf:Description>
   </rdf:RDF>
</x:xmpmeta>
                                                                                                    
                                                                                                    
                                                                                                    
                                                                                                    
                                                                                                    
                                                                                                    
                                   
<?xpacket end="w"?></metadata>
<path class="cls-1" d="M14.46,41.5a7.29,7.29,0,0,1-6.18-3.37,7.4,7.4,0,0,1-6-7.24c0-.14,0-.28,0-.42a7.38,7.38,0,0,1,0-9.52c0-.15,0-.3,0-.44a7.4,7.4,0,0,1,6.09-7.25A7.6,7.6,0,0,1,12,10.38a7.05,7.05,0,0,1,2.51-.46h.23a2.81,2.81,0,0,1,2.71,2.82V38.67a2.85,2.85,0,0,1-2.75,2.83Z"/><path class="cls-1" d="M14.47,10.42h.21a2.32,2.32,0,0,1,2.23,2.32V38.67A2.35,2.35,0,0,1,14.65,41h-.19a6.83,6.83,0,0,1-5.87-3.32,6.91,6.91,0,0,1-5.86-6.79c0-.19,0-.39,0-.59a6.87,6.87,0,0,1,0-9.18c0-.21,0-.41,0-.61a6.89,6.89,0,0,1,5.89-6.79,7,7,0,0,1,3.52-2.87,6.49,6.49,0,0,1,2.33-.43m0-1a7.52,7.52,0,0,0-2.68.49A8,8,0,0,0,8,12.81a7.91,7.91,0,0,0-6.3,7.7v.28a7.86,7.86,0,0,0,0,9.84v.26A7.91,7.91,0,0,0,8,38.58,7.8,7.8,0,0,0,14.46,42h.22a3.35,3.35,0,0,0,3.23-3.33V12.74a3.31,3.31,0,0,0-3.2-3.32Z"/><path class="cls-1" d="M20.49,41.5a2.86,2.86,0,0,1-2.81-2.83V.5H46.77V16.28H31.48l.34.48a7.44,7.44,0,0,1,1,3.75c0,.14,0,.29,0,.44a7.38,7.38,0,0,1,0,9.52c0,.14,0,.28,0,.42a7.41,7.41,0,0,1-6.06,7.24,7.28,7.28,0,0,1-6.18,3.37Z"/><path class="cls-1" d="M46.27,1V15.78H30.51l.9,1.27a6.83,6.83,0,0,1,.95,3.46,4.26,4.26,0,0,1,0,.61,6.88,6.88,0,0,1,0,9.18c0,.2,0,.4,0,.59a6.91,6.91,0,0,1-5.86,6.79A6.84,6.84,0,0,1,20.62,41h-.18a2.35,2.35,0,0,1-2.26-2.33V1H46.27m1-1H17.18V38.67A3.35,3.35,0,0,0,20.41,42h.21a7.77,7.77,0,0,0,6.48-3.42,7.91,7.91,0,0,0,6.26-7.69,2.26,2.26,0,0,0,0-.26,7.86,7.86,0,0,0,0-9.84c0-.1,0-.19,0-.28a7.86,7.86,0,0,0-1-3.73H47.27V0Z"/><path class="cls-2" d="M14.68,10.42a6.76,6.76,0,0,0-2.54.43,7,7,0,0,0-3.52,2.87,6.89,6.89,0,0,0-5.89,6.79c0,.2,0,.4,0,.61a6.87,6.87,0,0,0,0,9.18c0,.2,0,.4,0,.59a6.91,6.91,0,0,0,5.86,6.79A6.83,6.83,0,0,0,14.46,41h.19a2.35,2.35,0,0,0,2.26-2.33V12.74A2.32,2.32,0,0,0,14.68,10.42ZM14.6,39.31h-.14a5.18,5.18,0,0,1-4.6-2.81l-.21-.42-.47,0a5.19,5.19,0,0,1-4.76-5.15,5.5,5.5,0,0,1,.06-.76l.06-.43-.3-.3a5.17,5.17,0,0,1,0-7.38l.31-.3-.07-.43a5.77,5.77,0,0,1-.06-.78A5.18,5.18,0,0,1,9.2,15.36l.47,0,.22-.41a5.29,5.29,0,0,1,2.83-2.48,5,5,0,0,1,1.74-.32h.16a.64.64,0,0,1,.6.63v8.11H11.05l-.26-.26a2.59,2.59,0,0,0,.21-1,2.54,2.54,0,1,0-2.54,2.53,2.57,2.57,0,0,0,1.18-.29l.72.71h4.86v2.33H9a2.53,2.53,0,1,0,0,1.69h6.27v2.11H10.36l-.86.85a2.58,2.58,0,0,0-1-.22A2.54,2.54,0,1,0,11,31.84a2.6,2.6,0,0,0-.28-1.15l.33-.33h4.17v8.31A.65.65,0,0,1,14.6,39.31ZM8.46,20.43a.85.85,0,0,1,0-1.69.85.85,0,1,1,0,1.69ZM7.4,25.71a.84.84,0,1,1-1.68,0,.84.84,0,0,1,1.68,0Zm1.91,6.13a.85.85,0,0,1-.85.84.85.85,0,0,1,0-1.69A.85.85,0,0,1,9.31,31.84Z"/><path class="cls-2" d="M30.67,20.51a4.59,4.59,0,0,1-.07.78l-.06.43.3.3a5.16,5.16,0,0,1,0,7.38l-.31.3.06.43a4.38,4.38,0,0,1,.07.76A5.19,5.19,0,0,1,25.9,36l-.46,0-.22.42a5.15,5.15,0,0,1-4.6,2.81h-.13a.65.65,0,0,1-.62-.64V30.36h4.18l.32.32a2.49,2.49,0,0,0-.28,1.16,2.55,2.55,0,1,0,1.51-2.32l-.85-.85H19.87V26.56h6.27a2.54,2.54,0,1,0,0-1.69H19.87V22.54h4.88l.71-.71a2.4,2.4,0,0,0,1.16.29,2.54,2.54,0,1,0-2.53-2.53,2.61,2.61,0,0,0,.21,1l-.25.25H19.87v-3.8H18.18V38.67A2.35,2.35,0,0,0,20.44,41h.18a6.84,6.84,0,0,0,5.88-3.32,6.91,6.91,0,0,0,5.86-6.79c0-.19,0-.39,0-.59a6.89,6.89,0,0,0,0-9.18c0-.21,0-.41,0-.61a6.83,6.83,0,0,0-.95-3.46H29.33A5.17,5.17,0,0,1,30.67,20.51ZM26.62,31a.85.85,0,1,1-.84.85A.85.85,0,0,1,26.62,31Zm1.9-6.12a.84.84,0,0,1,.85.84.85.85,0,1,1-1.69,0A.84.84,0,0,1,28.52,24.87Zm-1.9-6.13a.85.85,0,1,1-.84.85A.85.85,0,0,1,26.62,18.74Z"/><path class="cls-2" d="M18.18,15.78H46.27V1H18.18ZM44.58,2.69v11.4H19.87V2.69Z"/><path class="cls-2" d="M24.22,10.44a1.54,1.54,0,0,1-.77.17,5,5,0,0,1-1.73-.34v1.09a2.46,2.46,0,0,0,.5.16,5.51,5.51,0,0,0,.67.11,5.58,5.58,0,0,0,.7,0,2.43,2.43,0,0,0,1.59-.46A1.54,1.54,0,0,0,25.75,10a1.59,1.59,0,0,0-.32-1,2.45,2.45,0,0,0-1.09-.64l-.59-.21a2.62,2.62,0,0,1-.69-.3.43.43,0,0,1-.18-.36q0-.57,1-.57a4.38,4.38,0,0,1,.77.08,5.41,5.41,0,0,1,.81.24V6.07a4,4,0,0,0-.73-.22,4.8,4.8,0,0,0-.85-.08A3,3,0,0,0,22.67,6a1.62,1.62,0,0,0-.76.59,1.53,1.53,0,0,0-.27.91,1.52,1.52,0,0,0,.33,1A2.35,2.35,0,0,0,23,9.14l.6.2a2.91,2.91,0,0,1,.69.31.41.41,0,0,1,.18.34A.5.5,0,0,1,24.22,10.44Z"/><path class="cls-2" d="M27.7,11.24a1.45,1.45,0,0,0,1.05.41A1.57,1.57,0,0,0,30,11.08a2.51,2.51,0,0,0,.45-1.59A2.44,2.44,0,0,0,30,7.91a1.57,1.57,0,0,0-1.29-.58A1.52,1.52,0,0,0,27.45,8l-.17-.61h-.77v5.7H27.7Zm0-2.59A1,1,0,0,1,28,8.32a.89.89,0,0,1,.45-.12.66.66,0,0,1,.6.34,1.8,1.8,0,0,1,.21,1,1.78,1.78,0,0,1-.21.95.66.66,0,0,1-.6.34,1,1,0,0,1-.81-.38Z"/><path class="cls-2" d="M32.89,8.93a2.14,2.14,0,0,0-1.33.38,1.22,1.22,0,0,0-.5,1,1.26,1.26,0,0,0,.38,1,1.37,1.37,0,0,0,1,.35,1.57,1.57,0,0,0,.75-.18,1.45,1.45,0,0,0,.55-.49l.16.58h.77V8.77a1.36,1.36,0,0,0-.42-1.07A1.89,1.89,0,0,0,33,7.33a4,4,0,0,0-.85.09,4,4,0,0,0-.73.22v.9a3.89,3.89,0,0,1,1.41-.3,1.05,1.05,0,0,1,.54.1.48.48,0,0,1,.18.45v.14Zm.7.69v.67a.89.89,0,0,1-.36.36.92.92,0,0,1-.48.14.56.56,0,0,1-.34-1A1,1,0,0,1,33,9.62Z"/><path class="cls-2" d="M37.21,8.7a1.08,1.08,0,0,1,.66-.2h.25V7.43a1.26,1.26,0,0,0-.3,0,1.45,1.45,0,0,0-.7.17,1.52,1.52,0,0,0-.51.47l-.16-.61h-.77v4.13h1.18V9.25A1,1,0,0,1,37.21,8.7Z"/><polygon class="cls-2" points="42.78 7.43 41.48 7.43 40.07 9.06 40.07 5.69 38.88 5.69 38.88 11.56 40.07 11.56 40.07 9.75 40.39 9.75 41.52 11.56 42.85 11.56 41.29 9.14 42.78 7.43"/></svg>