<svg id="Layer_1" data-name="Layer 1" xmlns="http://www.w3.org/2000/svg" viewBox="0 0 38.53 42.27"><metadata><?xpacket begin="﻿" id="W5M0MpCehiHzreSzNTczkc9d"?>
<x:xmpmeta xmlns:x="adobe:ns:meta/" x:xmptk="Adobe XMP Core 6.0-c006 79.164648, 2021/01/12-15:52:29        ">
   <rdf:RDF xmlns:rdf="http://www.w3.org/1999/02/22-rdf-syntax-ns#">
      <rdf:Description rdf:about=""
            xmlns:dc="http://purl.org/dc/elements/1.1/"
            xmlns:xmp="http://ns.adobe.com/xap/1.0/"
            xmlns:xmpMM="http://ns.adobe.com/xap/1.0/mm/"
            xmlns:stEvt="http://ns.adobe.com/xap/1.0/sType/ResourceEvent#"
            xmlns:xmpRights="http://ns.adobe.com/xap/1.0/rights/">
         <dc:subject>
            <rdf:Bag>
               <rdf:li>icon</rdf:li>
               <rdf:li>flow</rdf:li>
               <rdf:li>process</rdf:li>
               <rdf:li>automatic</rdf:li>
               <rdf:li>decision</rdf:li>
               <rdf:li>tree</rdf:li>
               <rdf:li>end</rdf:li>
               <rdf:li>start</rdf:li>
               <rdf:li>finish</rdf:li>
               <rdf:li>task</rdf:li>
               <rdf:li>user</rdf:li>
            </rdf:Bag>
         </dc:subject>
         <dc:rights>
            <rdf:Alt>
               <rdf:li xml:lang="x-default">Oracle All Rights Reserved</rdf:li>
            </rdf:Alt>
         </dc:rights>
         <xmp:MetadataDate>2023-02-01T15:06:16-06:00</xmp:MetadataDate>
         <xmpMM:InstanceID>xmp.iid:aad3e5a9-6f12-4cac-81d4-bc57da3b61c8</xmpMM:InstanceID>
         <xmpMM:DocumentID>xmp.did:e90bd33c-de0a-4df4-a2e1-ba9b23ff7462</xmpMM:DocumentID>
         <xmpMM:OriginalDocumentID>xmp.did:e90bd33c-de0a-4df4-a2e1-ba9b23ff7462</xmpMM:OriginalDocumentID>
         <xmpMM:History>
            <rdf:Seq>
               <rdf:li>
                  <rdf:Description>
                     <stEvt:action>saved</stEvt:action>
                     <stEvt:instanceID>xmp.iid:e90bd33c-de0a-4df4-a2e1-ba9b23ff7462</stEvt:instanceID>
                     <stEvt:when>2023-02-01T15:05:49-06:00</stEvt:when>
                     <stEvt:softwareAgent>Adobe Bridge 2021 (Macintosh)</stEvt:softwareAgent>
                     <stEvt:changed>/metadata</stEvt:changed>
                  </rdf:Description>
               </rdf:li>
               <rdf:li>
                  <rdf:Description>
                     <stEvt:action>saved</stEvt:action>
                     <stEvt:instanceID>xmp.iid:aad3e5a9-6f12-4cac-81d4-bc57da3b61c8</stEvt:instanceID>
                     <stEvt:when>2023-02-01T15:06:16-06:00</stEvt:when>
                     <stEvt:softwareAgent>Adobe Bridge 2021 (Macintosh)</stEvt:softwareAgent>
                     <stEvt:changed>/metadata</stEvt:changed>
                  </rdf:Description>
               </rdf:li>
            </rdf:Seq>
         </xmpMM:History>
         <xmpRights:Marked>True</xmpRights:Marked>
      </rdf:Description>
   </rdf:RDF>
</x:xmpmeta>
                                                                                                    
                                                                                                    
                                                                                                    
                                                                                                    
                                                                                                    
                                                                                                    
                                                                                                    
                                                                                                    
                                                                                                    
                                                                                                    
                                                                                                    
                                                                                                    
                                         
<?xpacket end="w"?></metadata>
<polygon points="4.53 25.94 8.15 22.32 0.5 22.32 0.5 5.89 12.74 5.89 12.74 0.5 25.61 0.5 25.61 13.37 12.74 13.37 12.74 8.35 2.96 8.35 2.96 19.86 8.21 19.86 4.53 16.18 6.27 14.44 12.89 21.06 6.27 27.68 4.53 25.94" fill="#fff"/><path d="M25.11,1V12.87H13.24v-5H2.46V20.36h7L5.24,16.18l1-1,5.91,5.92L6.27,27l-1-1,4.11-4.12H1V6.39H13.24V1H25.11m1-1H12.24V5.39H0V22.82H6.94L4.53,25.23l-.71.71.71.71,1,1,.71.71L7,27.68l5.91-5.92.71-.7-.71-.71L7,14.44l-.71-.71-.71.71-1,1-.71.71.71.7L7,19.36H3.46V8.85h8.78v5H26.11V0Z" fill="#fff"/><rect x="12.74" y="28.63" width="12.87" height="12.87" fill="#fff"/><path d="M25.11,29.13V41H13.24V29.13H25.11m1-1H12.24V42H26.11V28.13Z" fill="#fff"/><path d="M25.64,34.94l6.62-6.62L34,30.06l-3.68,3.68h5.25V22.23h-10v.56L24.07,23l-.09.2,1,1.21-2.4,2.41-1.21-1-.2.08L21,27.44H17.56l-.17-1.55-.2-.08-1.21,1-2.4-2.41,1-1.21-.09-.2-1.54-.17v-3.4l1.54-.17.09-.2-1-1.21L16,15.4l1.21,1,.2-.08.17-1.54H21l.17,1.54.2.08,1.21-1L25,17.81,24,19l.09.2,1.54.17v.38H38V36.2H30.38L34,39.82l-1.74,1.74Z" fill="#fff"/><path d="M20.52,15.25l.16,1.41a4.55,4.55,0,0,1,.72.3l1.11-.89,1.77,1.77L23.4,19a5.1,5.1,0,0,1,.3.73l1.41.16v.43H37.53V35.7H29.18l4.11,4.12-1,1-5.91-5.91L32.26,29l1,1-4.18,4.18h7V21.73h-11v.61l-1.41.16a4.66,4.66,0,0,1-.3.73l.88,1.11-1.77,1.77-1.11-.89a3.82,3.82,0,0,1-.72.31l-.16,1.41H18l-.15-1.41a3.64,3.64,0,0,1-.73-.31L16,26.11l-1.77-1.77.88-1.11a4.66,4.66,0,0,1-.3-.73l-1.41-.16v-2.5l1.41-.16a5.1,5.1,0,0,1,.3-.73l-.88-1.11L16,16.07l1.11.89a4.3,4.3,0,0,1,.73-.3L18,15.25h2.51m.89-1H17.12l-.1.89-.05.41-.33-.26-.7-.56-.63.64-1.77,1.77-.63.63.56.7.26.33-.42,0-.89.1v4.3l.89.1.42,0-.26.33-.56.7.63.63,1.77,1.78.63.63.7-.56.33-.26.05.42.1.89h4.29l.1-.89,0-.42.33.26.7.56.63-.63L25,25l.63-.63-.55-.7-.27-.33.42,0,.89-.1v-.51h9V33.24H31.52L34,30.77l.71-.71L34,29.35l-1-1-.71-.71-.71.71-5.91,5.91-.71.71.71.71,5.91,5.91.71.71.71-.71,1-1,.71-.71L34,39.11,31.59,36.7h6.94V19.27H26.11v-.33l-.89-.1-.42,0,.27-.33.55-.7L25,17.14l-1.77-1.77-.63-.64-.7.56-.33.26,0-.41-.1-.89Z" fill="#fff"/><polygon points="6.27 15.14 5.24 16.18 9.42 20.36 2.46 20.36 2.46 7.85 12.14 7.85 12.14 6.39 1 6.39 1 21.82 9.35 21.82 5.24 25.94 6.27 26.97 12.18 21.06 6.27 15.14" fill="#2c5967"/><path d="M25.11,1H13.24V12.87H25.11ZM23.65,11.41H14.7V2.46h9Z" fill="#2c5967"/><path d="M13.24,41H25.11V29.13H13.24ZM14.7,30.59h9v9H14.7Z" fill="#2c5967"/><polygon points="37.53 20.27 26.21 20.27 26.21 21.73 36.07 21.73 36.07 34.24 29.11 34.24 33.29 30.06 32.26 29.02 26.35 34.94 32.26 40.85 33.29 39.82 29.18 35.7 37.53 35.7 37.53 20.27" fill="#2c5967"/><path d="M23.4,19l.88-1.11-1.77-1.77L21.4,17a4.55,4.55,0,0,0-.72-.3l-.16-1.41H18l-.15,1.41a4.3,4.3,0,0,0-.73.3L16,16.07l-1.77,1.77L15.13,19a5.1,5.1,0,0,0-.3.73l-1.41.16v2.5l1.41.16a4.66,4.66,0,0,0,.3.73l-.88,1.11L16,26.11l1.11-.89a3.64,3.64,0,0,0,.73.31L18,26.94h2.51l.16-1.41a3.82,3.82,0,0,0,.72-.31l1.11.89,1.77-1.77-.88-1.11a4.66,4.66,0,0,0,.3-.73l1.41-.16v-2.5l-1.41-.16A5.1,5.1,0,0,0,23.4,19ZM19.27,24.2a3.11,3.11,0,1,1,3.1-3.11A3.11,3.11,0,0,1,19.27,24.2Z" fill="#2c5967"/></svg>