<?xml version="1.0" encoding="UTF-8"?>
<svg id="Layer_1" data-name="Layer 1" xmlns="http://www.w3.org/2000/svg" viewBox="0 0 39.68 42">
  <metadata><?xpacket begin="﻿" id="W5M0MpCehiHzreSzNTczkc9d"?>
<x:xmpmeta xmlns:x="adobe:ns:meta/" x:xmptk="Adobe XMP Core 7.1-c000 79.4d2f597, 2021/09/01-20:51:22        ">
   <rdf:RDF xmlns:rdf="http://www.w3.org/1999/02/22-rdf-syntax-ns#">
      <rdf:Description rdf:about=""
            xmlns:dc="http://purl.org/dc/elements/1.1/"
            xmlns:xmpRights="http://ns.adobe.com/xap/1.0/rights/"
            xmlns:xmp="http://ns.adobe.com/xap/1.0/"
            xmlns:xmpMM="http://ns.adobe.com/xap/1.0/mm/"
            xmlns:stEvt="http://ns.adobe.com/xap/1.0/sType/ResourceEvent#">
         <dc:rights>
            <rdf:Alt>
               <rdf:li xml:lang="x-default">Oracle All Rights</rdf:li>
            </rdf:Alt>
         </dc:rights>
         <dc:subject>
            <rdf:Bag>
               <rdf:li>database</rdf:li>
               <rdf:li>image</rdf:li>
               <rdf:li>folder</rdf:li>
               <rdf:li>user</rdf:li>
               <rdf:li>person</rdf:li>
               <rdf:li>icon</rdf:li>
            </rdf:Bag>
         </dc:subject>
         <xmpRights:Marked>True</xmpRights:Marked>
         <xmp:MetadataDate>2024-07-05T18:09:40-06:00</xmp:MetadataDate>
         <xmpMM:InstanceID>xmp.iid:e3f15221-30c6-4ca5-9b7f-9702056f05d4</xmpMM:InstanceID>
         <xmpMM:DocumentID>xmp.did:641f6c25-0565-4d5f-9118-2c7269a7189d</xmpMM:DocumentID>
         <xmpMM:OriginalDocumentID>xmp.did:641f6c25-0565-4d5f-9118-2c7269a7189d</xmpMM:OriginalDocumentID>
         <xmpMM:History>
            <rdf:Seq>
               <rdf:li>
                  <rdf:Description>
                     <stEvt:action>saved</stEvt:action>
                     <stEvt:instanceID>xmp.iid:641f6c25-0565-4d5f-9118-2c7269a7189d</stEvt:instanceID>
                     <stEvt:when>2024-07-05T18:05:08-06:00</stEvt:when>
                     <stEvt:softwareAgent>Adobe Bridge 2023</stEvt:softwareAgent>
                     <stEvt:changed>/metadata</stEvt:changed>
                  </rdf:Description>
               </rdf:li>
               <rdf:li>
                  <rdf:Description>
                     <stEvt:action>saved</stEvt:action>
                     <stEvt:instanceID>xmp.iid:e3f15221-30c6-4ca5-9b7f-9702056f05d4</stEvt:instanceID>
                     <stEvt:when>2024-07-05T18:09:40-06:00</stEvt:when>
                     <stEvt:softwareAgent>Adobe Bridge 2023</stEvt:softwareAgent>
                     <stEvt:changed>/metadata</stEvt:changed>
                  </rdf:Description>
               </rdf:li>
            </rdf:Seq>
         </xmpMM:History>
      </rdf:Description>
   </rdf:RDF>
</x:xmpmeta>
                                                                                                    
                                                                                                    
                                                                                                    
                                                                                                    
                                                                                                    
                                                                                                    
                                                                                                    
                                                                                                    
                                                                                                    
                                                                                                    
                                                                                                    
                                                                                                    
                 
<?xpacket end="w"?></metadata>
<defs>
    <style>
      .cls-1 {
        fill: #fff;
      }

      .cls-2 {
        fill: #2d5967;
      }
    </style>
  </defs>
  <path class="cls-1" d="m35.26,15.9c-2.06-.5-4.78-.78-7.67-.78s-5.63.28-7.67.78c-.08.02-.17.04-.28.07v-3.02h12.92v-4.53c.63.76,1.59,1.22,2.61,1.22,1.55,0,3.42-1.53,3.42-3.42s-1.54-3.42-3.42-3.42c-1.12,0-2.01.39-2.61,1.15V0h-12.92v7.54c-.04-1.18-1-2.12-2.19-2.12h-5.42l-.23-.34c-.42-.63-1.13-1.01-1.9-1.01h-3.47c-1.21,0-2.19.98-2.19,2.19v10.25H0v12.5h3.47c-.02.1-.04.2-.06.3-1.08.58-1.8,1.74-1.8,3,0,1.58,1.5,3.42,3.42,3.42s3.42-1.54,3.42-3.42c0-1.53-.67-2.33-1.39-2.79.03-.15.07-.32.11-.51h5.32v-10.86c.33-.41.66-.78.99-1.13h3.55c-.83.53-1.49,1.29-1.49,2.39v18.31c0,2.46,3.3,3.25,4.38,3.52,2.06.5,4.79.78,7.69.78s5.62-.28,7.69-.78c1.08-.26,4.38-1.05,4.38-3.52v-18.17c0-.49-.15-.91-.29-1.21-.78-1.61-3.22-2.21-4.13-2.42Z"/>
  <g>
    <path class="cls-2" d="m38.64,19.39c0-1.11-1.19-1.94-3.61-2.52-2-.48-4.64-.75-7.43-.75s-5.45.26-7.43.75c-2.44.59-3.61,1.41-3.61,2.52s0,.06,0,.08v18.23c0,1.13,1.19,1.96,3.61,2.54,2,.48,4.64.75,7.45.75s5.45-.26,7.45-.75c2.44-.59,3.61-1.41,3.61-2.54v-18.31h-.04Zm-11.07-1.68c5.9,0,8.97,1.13,9.41,1.66-.46.55-3.53,1.66-9.41,1.66s-8.97-1.13-9.41-1.66c.46-.55,3.53-1.66,9.41-1.66Zm9.45,19.91c-.3.52-3.37,1.72-9.45,1.72s-9.15-1.19-9.45-1.72v-4.18c.52.24,1.19.46,2,.67,2,.48,4.64.75,7.45.75s5.45-.26,7.45-.75c.81-.2,1.47-.42,2-.67v4.18h0Zm0-6.08c-.3.52-3.37,1.72-9.45,1.72s-9.15-1.19-9.45-1.72v-4.08c.52.24,1.19.46,2,.67,2,.48,4.64.75,7.45.75s5.45-.26,7.45-.75c.81-.2,1.47-.42,2-.67v4.08h0Zm0-6c-.3.52-3.37,1.72-9.45,1.72s-9.15-1.19-9.45-1.72v-4.3c.52.24,1.19.46,2,.67,2,.48,4.64.75,7.43.75s5.45-.26,7.43-.75c.81-.2,1.47-.42,2-.67v4.3h.04Z"/>
    <path class="cls-2" d="m26.12,7.48c1.19,0,2.14-.97,2.14-2.14s-.97-2.14-2.14-2.14-2.14.97-2.14,2.14.97,2.14,2.14,2.14Zm0-2.69c.3,0,.52.24.52.52s-.24.52-.52.52-.52-.24-.52-.52.24-.52.52-.52Z"/>
    <path class="cls-2" d="m13.09,16h5.55v-4.42c.65-.38,1.31-.75,2-1.09v1.45h10.92v-4.68c.44-.06.91-.12,1.37-.16.34.91,1.23,1.53,2.24,1.53s2.42-1.09,2.42-2.42-1.09-2.42-2.42-2.42-1.98.71-2.3,1.68c-.44.04-.89.1-1.31.16V1h-10.92v7.69c-.71.32-1.37.67-2,1.01v-2.1c0-.67-.55-1.19-1.19-1.19h-5.96l-.52-.79c-.24-.36-.65-.57-1.07-.57h-3.47c-.67,0-1.19.55-1.19,1.19v9.71h5.67c-.44.5-.85,1.03-1.23,1.53H1v8.99h0v1.51h3.72c-.2.85-.34,1.53-.4,2-.99.3-1.7,1.23-1.7,2.3s1.09,2.42,2.42,2.42,2.42-1.09,2.42-2.42-.63-1.88-1.51-2.24c.08-.48.22-1.19.44-2.06h5.11v-10.22c.5-.63,1.03-1.23,1.6-1.82v.04Zm22.11-10.56c.44,0,.81.36.81.81s-.36.81-.81.81-.81-.36-.81-.81.36-.81.81-.81Zm-7.73,4.91h-2.69v-.81s.04-.08.08-.08h2.5s.08.04.08.08v.81h.02Zm-5.19-7.69h7.69v7.69h-.89v-.81c0-.93-.77-1.7-1.7-1.7h-2.5c-.93,0-1.7.77-1.7,1.7v.81h-.89V2.66h-.02ZM6.86,6.71h2.89l.91,1.35h6.4v6.32H6.86s0-7.67,0-7.67Zm-1.8,26.41c-.44,0-.81-.36-.81-.81s.36-.81.81-.81.81.36.81.81-.36.81-.81.81Zm-2.44-13.97h7.27v3.35l-1.84-1.15-5.43,4v-6.2h0Zm1.27,7.27l4.24-3.11,1.78,1.11v2.02H3.89v-.02Z"/>
    <circle class="cls-2" cx="4.74" cy="21.11" r="1.29"/>
  </g>
</svg>