<?xml version="1.0" encoding="UTF-8"?>
<svg id="Layer_1" data-name="Layer 1" xmlns="http://www.w3.org/2000/svg" viewBox="0 0 42 42">
  <metadata><?xpacket begin="﻿" id="W5M0MpCehiHzreSzNTczkc9d"?>
<x:xmpmeta xmlns:x="adobe:ns:meta/" x:xmptk="Adobe XMP Core 7.1-c000 79.4d2f597, 2021/09/01-20:51:22        ">
   <rdf:RDF xmlns:rdf="http://www.w3.org/1999/02/22-rdf-syntax-ns#">
      <rdf:Description rdf:about=""
            xmlns:dc="http://purl.org/dc/elements/1.1/"
            xmlns:xmp="http://ns.adobe.com/xap/1.0/"
            xmlns:xmpMM="http://ns.adobe.com/xap/1.0/mm/"
            xmlns:stEvt="http://ns.adobe.com/xap/1.0/sType/ResourceEvent#"
            xmlns:xmpRights="http://ns.adobe.com/xap/1.0/rights/">
         <dc:subject>
            <rdf:Bag>
               <rdf:li>software</rdf:li>
               <rdf:li>patch</rdf:li>
               <rdf:li>compliance management</rdf:li>
               <rdf:li>scale</rdf:li>
               <rdf:li>arrows</rdf:li>
               <rdf:li>shapes</rdf:li>
               <rdf:li>technologies</rdf:li>
               <rdf:li>deployed</rdf:li>
               <rdf:li>icon</rdf:li>
            </rdf:Bag>
         </dc:subject>
         <dc:rights>
            <rdf:Alt>
               <rdf:li xml:lang="x-default">Oracle All Rights</rdf:li>
            </rdf:Alt>
         </dc:rights>
         <xmp:MetadataDate>2024-07-31T16:59:29-06:00</xmp:MetadataDate>
         <xmpMM:InstanceID>xmp.iid:ebdc4d39-978a-4461-b112-c8c6dcf9f077</xmpMM:InstanceID>
         <xmpMM:DocumentID>xmp.did:626a5c2b-0dff-4ab7-be03-1cb9a528dc92</xmpMM:DocumentID>
         <xmpMM:OriginalDocumentID>xmp.did:626a5c2b-0dff-4ab7-be03-1cb9a528dc92</xmpMM:OriginalDocumentID>
         <xmpMM:History>
            <rdf:Seq>
               <rdf:li>
                  <rdf:Description>
                     <stEvt:action>saved</stEvt:action>
                     <stEvt:instanceID>xmp.iid:626a5c2b-0dff-4ab7-be03-1cb9a528dc92</stEvt:instanceID>
                     <stEvt:when>2024-07-31T16:59:13-06:00</stEvt:when>
                     <stEvt:softwareAgent>Adobe Bridge 2023</stEvt:softwareAgent>
                     <stEvt:changed>/metadata</stEvt:changed>
                  </rdf:Description>
               </rdf:li>
               <rdf:li>
                  <rdf:Description>
                     <stEvt:action>saved</stEvt:action>
                     <stEvt:instanceID>xmp.iid:ebdc4d39-978a-4461-b112-c8c6dcf9f077</stEvt:instanceID>
                     <stEvt:when>2024-07-31T16:59:29-06:00</stEvt:when>
                     <stEvt:softwareAgent>Adobe Bridge 2023</stEvt:softwareAgent>
                     <stEvt:changed>/metadata</stEvt:changed>
                  </rdf:Description>
               </rdf:li>
            </rdf:Seq>
         </xmpMM:History>
         <xmpRights:Marked>True</xmpRights:Marked>
      </rdf:Description>
   </rdf:RDF>
</x:xmpmeta>
                                                                                                    
                                                                                                    
                                                                                                    
                                                                                                    
                                                                                                    
                                                                                                    
                                                                                                    
                                                                                                    
                                                                                                    
                                                                                                    
                                                                                                    
                                                                                                    
                         
<?xpacket end="w"?></metadata>
<defs>
    <style>
      .cls-1 {
        fill: #fff;
      }

      .cls-2 {
        fill: #2d5967;
      }
    </style>
  </defs>
  <g>
    <path class="cls-1" d="m41,19.39h-.67c-.77-9.33-8.39-16.91-17.72-17.64V0h-3.22v1.77h0C10.01,2.6,2.63,10.01,1.85,19.39H0v3.22h1.85c.78,9.39,8.15,16.8,17.53,17.62h0v1.77h3.22v-1.75c9.33-.73,16.95-8.31,17.72-17.64h1.67v-3.22h-1Zm-4.61,3.22h.7c-.76,7.66-6.81,13.68-14.48,14.4v-1.62h-3.22v1.6c-7.57-.8-13.54-6.8-14.3-14.38h1.51v-3.22h-1.51c.76-7.58,6.73-13.58,14.3-14.38v1.6h3.22v-1.62c7.67.72,13.72,6.73,14.48,14.4h-1.7v3.22h1Z"/>
    <path class="cls-1" d="m30.75,16.83c-.91,0-1.74.35-2.37.92v-1.98s0-1,0-1h-1s-1.22,0-1.22,0h-1s0,.78,0,.78c-.87-1.52-1.58-3.74-1.43-6.83l.05-1-1-.05-.61-.03-.52-.03v-.06s-.58.03-.58.03l-.48-.02v.05s-.04,0-.04,0l-.59.03-.61.03-1,.05.05,1c.16,3.09-.56,5.31-1.43,6.83v-.78s-1,0-1,0h-1.22s-1,0-1,0v1s0,1.14,0,1.14h-5.93v6.84h2.01c.36,1.8,1.16,3.5,2.33,4.92l.03.03-.18.32-.29.5.29.5,1.4,2.42.29.5h3.95l.29-.5h0c.99.27,2,.41,3.02.41,1.17,0,2.33-.18,3.45-.54l.15-.05.38.38.29.29h2.84l.29-.29,1.42-1.42.29-.29v-2.69c.99-1.33,1.66-2.82,2-4.43l.03-.15c1.28-.54,2.19-1.81,2.19-3.28,0-1.96-1.6-3.56-3.56-3.56Zm-2.86,9.27h-2.63l-.29.29-1.42,1.42-.29.29v1.41l-.22.04c-.67.17-1.36.26-2.05.26-.48,0-.95-.06-1.43-.14l.09-.16-.29-.5-1.4-2.42-.29-.5h-3.6c-.49-.73-.85-1.51-1.08-2.35h1.71v-2.49h.1s.95,0,.95,0h1.37s2.16-.01,2.16-.01h.2s0,.99,0,.99l-.68-.68-.71.71-.86.86-.71.71.71.71,3.16,3.16.72.72.71-.74,3.02-3.17.69-.72-.72-.69-.88-.84-.72-.69-.5.53v-.85h.21s2.16,0,2.16,0h1.37s.89,0,.89,0c.24.97.88,1.77,1.73,2.24-.23.93-.62,1.8-1.16,2.6Z"/>
  </g>
  <g>
    <polygon class="cls-2" points="5.61 21.61 5.61 20.39 4.02 20.39 2.8 20.39 1 20.39 1 21.61 2.8 21.61 4.02 21.61 5.61 21.61"/>
    <polygon class="cls-2" points="39.39 20.39 38.17 20.39 36.39 20.39 36.39 21.61 38.17 21.61 39.39 21.61 41 21.61 41 20.39 39.39 20.39"/>
    <polygon class="cls-2" points="20.39 38.07 20.39 39.29 20.39 41 21.61 41 21.61 39.3 21.61 38.08 21.61 36.39 20.39 36.39 20.39 38.07"/>
    <polygon class="cls-2" points="21.61 3.92 21.61 2.7 21.61 1 20.39 1 20.39 2.71 20.39 3.93 20.39 5.61 21.61 5.61 21.61 3.92"/>
    <path class="cls-2" d="m16,18.4v-1.31s0-1.32,0-1.32h-1.22s0,2.46,0,2.46v.41s0,1.63,0,1.63h.95s1.37,0,1.37,0h2.16s0-1.23,0-1.23h-.93s-1.24,0-1.24,0c1.36-1.36,3.26-4.01,3.53-8.4-.04-.64-.04-1.32,0-2.03h0s-.59.03-.59.03l-.61.03c.28,5.51-2.06,8.49-3.42,9.74Z"/>
    <path class="cls-2" d="m21.53,8.59h0c-.04.72-.03,1.39.01,2.04.27,4.4,2.17,7.05,3.53,8.4h-1.24s-.93,0-.93,0v1.22s2.15,0,2.15,0h1.37s.95,0,.95,0v-1.61s0-.43,0-.43v-2.45s-1.21,0-1.21,0v1.32s0,1.31,0,1.31c-1.36-1.26-3.7-4.24-3.42-9.74l-.61-.03-.59-.03h-.02Z"/>
    <path class="cls-2" d="m4.07,22.52h-1.22c.73,8.85,7.79,15.93,16.63,16.71v-1.22c-8.17-.77-14.68-7.31-15.4-15.49Z"/>
    <path class="cls-2" d="m19.48,3.99v-1.22C10.64,3.54,3.58,10.63,2.85,19.48h1.22c.73-8.18,7.24-14.72,15.4-15.49Z"/>
    <path class="cls-2" d="m22.52,38.03v1.22c8.92-.69,16.07-7.81,16.81-16.73h-1.22c-.73,8.24-7.34,14.82-15.59,15.5Z"/>
    <path class="cls-2" d="m22.52,2.75v1.22c8.25.69,14.86,7.26,15.59,15.5h1.22c-.74-8.91-7.89-16.03-16.81-16.73Z"/>
    <path class="cls-2" d="m21.08,13.64c-.17.67-.38,1.29-.61,1.87v9.14l-1.68-1.68-.86.86,3.16,3.16,3.02-3.17-.88-.84-1.54,1.62v-9.11c-.23-.57-.44-1.18-.61-1.85Z"/>
    <path class="cls-2" d="m31.11,23.62c-.12.01-.24.02-.36.02-.24,0-.47-.03-.69-.07-.28,1.25-.82,2.4-1.55,3.4l.74.74c.9-1.19,1.54-2.58,1.86-4.09Z"/>
    <path class="cls-2" d="m24.12,31.36l-.81-.81h0s-.03-.03-.03-.03c-.74.19-1.51.29-2.3.29s-1.55-.1-2.28-.28l-.54.93c.9.25,1.84.39,2.82.39,1.1,0,2.15-.17,3.14-.49Z"/>
    <path class="cls-2" d="m13.51,27.07c-.8-1.06-1.37-2.3-1.65-3.64h-1.06c.33,1.72,1.08,3.3,2.15,4.6l.56-.97Z"/>
    <path class="cls-2" d="m33.31,20.39c0-1.41-1.15-2.56-2.56-2.56s-2.56,1.15-2.56,2.56,1.15,2.56,2.56,2.56,2.56-1.15,2.56-2.56Zm-2.56,1.34c-.74,0-1.34-.6-1.34-1.34s.6-1.34,1.34-1.34,1.34.6,1.34,1.34-.6,1.34-1.34,1.34Z"/>
    <path class="cls-2" d="m13.68,17.9h-4.84v4.84h4.84v-4.84Zm-1.22,3.63h-2.41v-2.41h2.41v2.41Z"/>
    <path class="cls-2" d="m17.09,31.94l1.4-2.42-1.4-2.42h-2.8l-1.4,2.42,1.4,2.42h2.8Zm-2.09-3.63h1.39l.69,1.2-.69,1.2h-1.39l-.69-1.2.69-1.2Z"/>
    <path class="cls-2" d="m25.67,27.1l-1.42,1.42v2.01l1.42,1.42h2.01l1.42-1.42v-2.01l-1.42-1.42h-2.01Zm2.21,2.92l-.71.7h-1l-.71-.7v-1l.71-.7h1l.71.7v1Z"/>
  </g>
</svg>