<?xml version="1.0" encoding="UTF-8"?>
<svg id="Layer_1" data-name="Layer 1" xmlns="http://www.w3.org/2000/svg" viewBox="0 0 42 42">
  <metadata><?xpacket begin="﻿" id="W5M0MpCehiHzreSzNTczkc9d"?>
<x:xmpmeta xmlns:x="adobe:ns:meta/" x:xmptk="Adobe XMP Core 7.1-c000 79.4d2f597, 2021/09/01-20:51:22        ">
   <rdf:RDF xmlns:rdf="http://www.w3.org/1999/02/22-rdf-syntax-ns#">
      <rdf:Description rdf:about=""
            xmlns:xmp="http://ns.adobe.com/xap/1.0/"
            xmlns:xmpMM="http://ns.adobe.com/xap/1.0/mm/"
            xmlns:stEvt="http://ns.adobe.com/xap/1.0/sType/ResourceEvent#"
            xmlns:dc="http://purl.org/dc/elements/1.1/"
            xmlns:xmpRights="http://ns.adobe.com/xap/1.0/rights/">
         <xmp:MetadataDate>2023-11-08T16:48-06:00</xmp:MetadataDate>
         <xmpMM:InstanceID>xmp.iid:56d88b32-52f7-8748-a48b-46404cca854d</xmpMM:InstanceID>
         <xmpMM:DocumentID>xmp.did:abc88620-105c-724e-9b31-6d2f6f277b64</xmpMM:DocumentID>
         <xmpMM:OriginalDocumentID>xmp.did:abc88620-105c-724e-9b31-6d2f6f277b64</xmpMM:OriginalDocumentID>
         <xmpMM:History>
            <rdf:Seq>
               <rdf:li>
                  <rdf:Description>
                     <stEvt:action>saved</stEvt:action>
                     <stEvt:instanceID>xmp.iid:abc88620-105c-724e-9b31-6d2f6f277b64</stEvt:instanceID>
                     <stEvt:when>2023-11-08T16:45:45-06:00</stEvt:when>
                     <stEvt:softwareAgent>Adobe Bridge 2023</stEvt:softwareAgent>
                     <stEvt:changed>/metadata</stEvt:changed>
                  </rdf:Description>
               </rdf:li>
               <rdf:li>
                  <rdf:Description>
                     <stEvt:action>saved</stEvt:action>
                     <stEvt:instanceID>xmp.iid:56d88b32-52f7-8748-a48b-46404cca854d</stEvt:instanceID>
                     <stEvt:when>2023-11-08T16:48-06:00</stEvt:when>
                     <stEvt:softwareAgent>Adobe Bridge 2023</stEvt:softwareAgent>
                     <stEvt:changed>/metadata</stEvt:changed>
                  </rdf:Description>
               </rdf:li>
            </rdf:Seq>
         </xmpMM:History>
         <dc:subject>
            <rdf:Bag>
               <rdf:li>Scanner</rdf:li>
               <rdf:li>pod</rdf:li>
               <rdf:li>product</rdf:li>
               <rdf:li>object</rdf:li>
               <rdf:li>3D</rdf:li>
               <rdf:li>Box</rdf:li>
            </rdf:Bag>
         </dc:subject>
         <dc:rights>
            <rdf:Alt>
               <rdf:li xml:lang="x-default">Oracle All Rights</rdf:li>
            </rdf:Alt>
         </dc:rights>
         <xmpRights:Marked>True</xmpRights:Marked>
      </rdf:Description>
   </rdf:RDF>
</x:xmpmeta>
                                                                                                    
                                                                                                    
                                                                                                    
                                                                                                    
                                                                                                    
                                                                                                    
                                                                                                    
                                                                                                    
                                                                                                    
                                                                                                    
                                                                                                    
                                                                                                    
                                                                    
<?xpacket end="w"?></metadata>
<defs>
    <style>
      .cls-1 {
        fill: #2c5967;
      }

      .cls-2 {
        fill: #fff;
      }
    </style>
  </defs>
  <g>
    <polygon class="cls-2" points="34.17 28.73 34.17 28.11 34.17 14.05 34.17 13.44 33.63 13.16 21.68 6.99 21.23 6.76 20.78 6.98 8.39 13.15 7.83 13.43 7.83 14.05 7.83 28.12 7.83 28.74 8.4 29.02 20.79 35.02 21.24 35.23 21.68 35.01 33.62 29 34.17 28.73"/>
    <polygon class="cls-2" points="41 0 31.71 0 30.71 0 30.71 1 30.71 2.43 30.71 3.43 31.71 3.43 38.57 3.43 38.57 10.29 38.57 11.29 39.57 11.29 41 11.29 42 11.29 42 10.29 42 1 42 0 41 0"/>
    <polygon class="cls-2" points="2.43 11.29 3.43 11.29 3.43 10.29 3.43 3.43 10.29 3.43 11.29 3.43 11.29 2.43 11.29 1 11.29 0 10.29 0 1 0 0 0 0 1 0 10.29 0 11.29 1 11.29 2.43 11.29"/>
    <polygon class="cls-2" points="39.57 30.71 38.57 30.71 38.57 31.71 38.57 38.57 31.71 38.57 30.71 38.57 30.71 39.57 30.71 41 30.71 42 31.71 42 41 42 42 42 42 41 42 31.71 42 30.71 41 30.71 39.57 30.71"/>
    <polygon class="cls-2" points="3.43 38.57 3.43 31.71 3.43 30.71 2.43 30.71 1 30.71 0 30.71 0 31.71 0 41 0 42 1 42 10.29 42 11.29 42 11.29 41 11.29 39.57 11.29 38.57 10.29 38.57 3.43 38.57"/>
  </g>
  <g>
    <path class="cls-1" d="M33.17,14.05l-11.94-6.18-12.39,6.17v14.07l12.4,6,11.94-6.01V14.05Zm-2.28,.43l-9.67,4.83-10.05-4.83,10.04-5,9.67,5Zm-20.62,1.14l10.25,4.93v11.63l-10.25-4.96V15.62Zm11.68,16.54v-11.61l9.8-4.9v11.58l-9.8,4.93Z"/>
    <polygon class="cls-1" points="31.71 1 31.71 2.43 39.57 2.43 39.57 10.29 41 10.29 41 1 31.71 1"/>
    <polygon class="cls-1" points="2.43 2.43 10.29 2.43 10.29 1 1 1 1 10.29 2.43 10.29 2.43 2.43"/>
    <polygon class="cls-1" points="39.57 39.57 31.71 39.57 31.71 41 41 41 41 31.71 39.57 31.71 39.57 39.57"/>
    <polygon class="cls-1" points="2.43 31.71 1 31.71 1 41 10.29 41 10.29 39.57 2.43 39.57 2.43 31.71"/>
  </g>
</svg>