<?xml version="1.0" encoding="UTF-8"?>
<svg id="Layer_1" data-name="Layer 1" xmlns="http://www.w3.org/2000/svg" viewBox="0 0 42.74 42">
  <metadata><?xpacket begin="﻿" id="W5M0MpCehiHzreSzNTczkc9d"?>
<x:xmpmeta xmlns:x="adobe:ns:meta/" x:xmptk="Adobe XMP Core 7.1-c000 79.4d2f597, 2021/09/01-20:51:22        ">
   <rdf:RDF xmlns:rdf="http://www.w3.org/1999/02/22-rdf-syntax-ns#">
      <rdf:Description rdf:about=""
            xmlns:xmp="http://ns.adobe.com/xap/1.0/"
            xmlns:xmpMM="http://ns.adobe.com/xap/1.0/mm/"
            xmlns:stEvt="http://ns.adobe.com/xap/1.0/sType/ResourceEvent#"
            xmlns:dc="http://purl.org/dc/elements/1.1/"
            xmlns:xmpRights="http://ns.adobe.com/xap/1.0/rights/">
         <xmp:MetadataDate>2023-11-08T16:48-06:00</xmp:MetadataDate>
         <xmpMM:InstanceID>xmp.iid:787ee93e-edc8-b348-aca7-e71462ff9c49</xmpMM:InstanceID>
         <xmpMM:DocumentID>xmp.did:d533135e-48c8-204d-ad99-00e661338fb6</xmpMM:DocumentID>
         <xmpMM:OriginalDocumentID>xmp.did:d533135e-48c8-204d-ad99-00e661338fb6</xmpMM:OriginalDocumentID>
         <xmpMM:History>
            <rdf:Seq>
               <rdf:li>
                  <rdf:Description>
                     <stEvt:action>saved</stEvt:action>
                     <stEvt:instanceID>xmp.iid:d533135e-48c8-204d-ad99-00e661338fb6</stEvt:instanceID>
                     <stEvt:when>2023-11-08T16:46:01-06:00</stEvt:when>
                     <stEvt:softwareAgent>Adobe Bridge 2023</stEvt:softwareAgent>
                     <stEvt:changed>/metadata</stEvt:changed>
                  </rdf:Description>
               </rdf:li>
               <rdf:li>
                  <rdf:Description>
                     <stEvt:action>saved</stEvt:action>
                     <stEvt:instanceID>xmp.iid:787ee93e-edc8-b348-aca7-e71462ff9c49</stEvt:instanceID>
                     <stEvt:when>2023-11-08T16:48-06:00</stEvt:when>
                     <stEvt:softwareAgent>Adobe Bridge 2023</stEvt:softwareAgent>
                     <stEvt:changed>/metadata</stEvt:changed>
                  </rdf:Description>
               </rdf:li>
            </rdf:Seq>
         </xmpMM:History>
         <dc:subject>
            <rdf:Bag>
               <rdf:li>Message</rdf:li>
               <rdf:li>text</rdf:li>
               <rdf:li>Language</rdf:li>
               <rdf:li>communicate</rdf:li>
            </rdf:Bag>
         </dc:subject>
         <dc:rights>
            <rdf:Alt>
               <rdf:li xml:lang="x-default">Oracle All Rights</rdf:li>
            </rdf:Alt>
         </dc:rights>
         <xmpRights:Marked>True</xmpRights:Marked>
      </rdf:Description>
   </rdf:RDF>
</x:xmpmeta>
                                                                                                    
                                                                                                    
                                                                                                    
                                                                                                    
                                                                                                    
                                                                                                    
                                                                                                    
                                                                                                    
                                                                                                    
                                                                                                    
                                                                                                    
                                                                                                    
                                                                    
<?xpacket end="w"?></metadata>
<defs>
    <style>
      .cls-1 {
        fill: #2c5967;
      }

      .cls-2 {
        fill: #fff;
      }
    </style>
  </defs>
  <path class="cls-2" d="M25.01,23.78h7.1c.28,.06,.57,.11,.9,.11s.62-.05,.9-.11h8.84l-.88-1.5-1.24-2.12,2.07-3.46h-8.84c-.27-.07-.55-.11-.85-.11s-.58,.05-.85,.11h-7.16v-1.58h7.11c.28,.07,.57,.11,.9,.11s.62-.05,.9-.11h8.84l-.88-1.5-1.24-2.12,2.07-3.46h-8.84c-.27-.07-.55-.11-.85-.11s-.58,.05-.85,.11h-7.16V0h-3.33V5.67H0V40H4.5l.29-.3,4.82-4.87h12.05v7.17h3.33v-9.55h.02s1.62,0,1.62,0h5.48c.28,.06,.57,.11,.9,.11s.62-.05,.9-.11h8.84l-.88-1.5-1.24-2.12,2.07-3.46h-8.84c-.27-.07-.55-.11-.85-.11s-.58,.05-.85,.11h-7.16v-1.58h.02Z"/>
  <g>
    <polygon class="cls-1" points="8.64 32.5 3.53 37.67 2.33 37.67 2.33 8 21.66 8 21.66 6.67 1 6.67 1 39 4.08 39 9.2 33.83 21.66 33.83 21.66 32.5 8.64 32.5"/>
    <path class="cls-1" d="M10.55,24.17h1.33v-5.25h-.79l.3-.76,.72-1.82h-4.06l-.39,.61-1.68,2.6-.21,.33v4.3h4.78Zm-3.44-3.9l1.68-2.6h1.37l-1.02,2.58h1.41v2.58h-3.44v-2.57Z"/>
    <path class="cls-1" d="M17.56,24.17h1.33v-5.25h-.79l.3-.76,.72-1.82h-4.06l-.39,.61-1.68,2.6-.21,.33v4.3h4.78Zm-3.44-3.9l1.68-2.6h1.37l-1.02,2.58h1.41v2.58h-3.44v-2.57Z"/>
    <rect class="cls-1" x="22.66" y="1" width="1.33" height="40"/>
    <polygon class="cls-1" points="29.96 17.69 28.41 17.69 27.55 19.24 26.65 17.69 25.1 17.69 26.55 20.12 25.01 22.78 26.63 22.78 27.53 21.09 28.48 22.78 30.03 22.78 28.49 20.15 29.96 17.69"/>
    <path class="cls-1" d="M34.33,17.89c-.37-.21-.81-.31-1.33-.31s-.96,.1-1.33,.31c-.37,.21-.65,.51-.84,.91-.19,.39-.29,.87-.29,1.43,0,.84,.21,1.5,.64,1.96,.43,.46,1.03,.7,1.82,.7s1.39-.23,1.82-.7c.43-.46,.64-1.12,.64-1.96,0-.56-.1-1.04-.29-1.43-.19-.39-.47-.7-.84-.91Zm-1.33,3.82c-.68,0-1.02-.49-1.02-1.48s.34-1.48,1.02-1.48,1.02,.49,1.02,1.48-.34,1.48-1.02,1.48Z"/>
    <polygon class="cls-1" points="40.93 17.69 39.38 17.69 38.52 19.24 37.62 17.69 36.07 17.69 37.51 20.12 35.98 22.78 37.6 22.78 38.49 21.09 39.45 22.78 41 22.78 39.46 20.15 40.93 17.69"/>
    <polygon class="cls-1" points="29.96 9.02 28.41 9.02 27.55 10.57 26.65 9.02 25.1 9.02 26.55 11.45 25.01 14.11 26.63 14.11 27.53 12.42 28.48 14.11 30.03 14.11 28.49 11.48 29.96 9.02"/>
    <path class="cls-1" d="M34.33,9.22c-.37-.21-.81-.31-1.33-.31s-.96,.1-1.33,.31-.65,.51-.84,.91c-.19,.39-.29,.87-.29,1.43,0,.84,.21,1.5,.64,1.96,.43,.46,1.03,.7,1.82,.7s1.39-.23,1.82-.7c.43-.46,.64-1.12,.64-1.96,0-.56-.1-1.04-.29-1.43-.19-.39-.47-.7-.84-.91Zm-1.33,3.82c-.68,0-1.02-.49-1.02-1.48s.34-1.48,1.02-1.48,1.02,.49,1.02,1.48-.34,1.48-1.02,1.48Z"/>
    <polygon class="cls-1" points="37.6 14.11 38.49 12.42 39.45 14.11 41 14.11 39.46 11.48 40.93 9.02 39.38 9.02 38.52 10.57 37.62 9.02 36.07 9.02 37.51 11.45 35.98 14.11 37.6 14.11"/>
    <polygon class="cls-1" points="29.96 26.36 28.41 26.36 27.55 27.9 26.65 26.36 25.1 26.36 26.55 28.78 25.01 31.44 26.63 31.44 27.53 29.76 28.48 31.44 30.03 31.44 28.49 28.81 29.96 26.36"/>
    <path class="cls-1" d="M34.33,26.56c-.37-.21-.81-.31-1.33-.31s-.96,.1-1.33,.31-.65,.51-.84,.91c-.19,.39-.29,.87-.29,1.43,0,.84,.21,1.5,.64,1.96,.43,.46,1.03,.7,1.82,.7s1.39-.23,1.82-.7c.43-.46,.64-1.12,.64-1.96,0-.56-.1-1.04-.29-1.43-.19-.39-.47-.7-.84-.91Zm-1.33,3.82c-.68,0-1.02-.49-1.02-1.48s.34-1.48,1.02-1.48,1.02,.49,1.02,1.48-.34,1.48-1.02,1.48Z"/>
    <polygon class="cls-1" points="40.93 26.36 39.38 26.36 38.52 27.9 37.62 26.36 36.07 26.36 37.51 28.78 35.98 31.44 37.6 31.44 38.49 29.76 39.45 31.44 41 31.44 39.46 28.81 40.93 26.36"/>
  </g>
</svg>