<svg id="Layer_1" data-name="Layer 1" xmlns="http://www.w3.org/2000/svg" viewBox="0 0 45.58 42"><defs><style>.cls-1{fill:#fff;}.cls-2{fill:#2c5967;}</style></defs><title>Oracle Machine Learning for &amp;apos;R&amp;apos;+Python</title><metadata><?xpacket begin="﻿" id="W5M0MpCehiHzreSzNTczkc9d"?>
<x:xmpmeta xmlns:x="adobe:ns:meta/" x:xmptk="Adobe XMP Core 6.0-c006 79.164648, 2021/01/12-15:52:29        ">
   <rdf:RDF xmlns:rdf="http://www.w3.org/1999/02/22-rdf-syntax-ns#">
      <rdf:Description rdf:about=""
            xmlns:xmp="http://ns.adobe.com/xap/1.0/"
            xmlns:xmpMM="http://ns.adobe.com/xap/1.0/mm/"
            xmlns:stEvt="http://ns.adobe.com/xap/1.0/sType/ResourceEvent#"
            xmlns:xmpRights="http://ns.adobe.com/xap/1.0/rights/"
            xmlns:dc="http://purl.org/dc/elements/1.1/"
            xmlns:lr="http://ns.adobe.com/lightroom/1.0/">
         <xmp:MetadataDate>2021-07-22T15:12:07-05:00</xmp:MetadataDate>
         <xmpMM:InstanceID>xmp.iid:699e6110-eae5-4a6d-b833-c2634035d87b</xmpMM:InstanceID>
         <xmpMM:DocumentID>xmp.did:e7741820-2d85-417a-a82d-c2b5b6367322</xmpMM:DocumentID>
         <xmpMM:OriginalDocumentID>xmp.did:e7741820-2d85-417a-a82d-c2b5b6367322</xmpMM:OriginalDocumentID>
         <xmpMM:History>
            <rdf:Seq>
               <rdf:li>
                  <rdf:Description>
                     <stEvt:action>saved</stEvt:action>
                     <stEvt:instanceID>xmp.iid:e7741820-2d85-417a-a82d-c2b5b6367322</stEvt:instanceID>
                     <stEvt:when>2021-06-18T11:41:55-05:00</stEvt:when>
                     <stEvt:softwareAgent>Adobe Bridge 2021 (Macintosh)</stEvt:softwareAgent>
                     <stEvt:changed>/metadata</stEvt:changed>
                  </rdf:Description>
               </rdf:li>
               <rdf:li>
                  <rdf:Description>
                     <stEvt:action>saved</stEvt:action>
                     <stEvt:instanceID>xmp.iid:699e6110-eae5-4a6d-b833-c2634035d87b</stEvt:instanceID>
                     <stEvt:when>2021-07-22T15:12:07-05:00</stEvt:when>
                     <stEvt:softwareAgent>Adobe Bridge 2021 (Macintosh)</stEvt:softwareAgent>
                     <stEvt:changed>/metadata</stEvt:changed>
                  </rdf:Description>
               </rdf:li>
            </rdf:Seq>
         </xmpMM:History>
         <xmpRights:Marked>True</xmpRights:Marked>
         <dc:title>
            <rdf:Alt>
               <rdf:li xml:lang="x-default">Oracle Machine Learning for </rdf:li>
            </rdf:Alt>
         </dc:title>
         <dc:subject>
            <rdf:Bag>
               <rdf:li>icon</rdf:li>
               <rdf:li>AI</rdf:li>
               <rdf:li>Artificial Intelligence</rdf:li>
               <rdf:li>technology</rdf:li>
               <rdf:li>Python</rdf:li>
               <rdf:li>OML</rdf:li>
            </rdf:Bag>
         </dc:subject>
         <dc:rights>
            <rdf:Alt>
               <rdf:li xml:lang="x-default">Oracle All Rights Reserved</rdf:li>
            </rdf:Alt>
         </dc:rights>
         <lr:hierarchicalSubject>
            <rdf:Bag>
               <rdf:li>icon</rdf:li>
               <rdf:li>AI</rdf:li>
               <rdf:li>Artificial Intelligence</rdf:li>
               <rdf:li>technology</rdf:li>
               <rdf:li>Python</rdf:li>
               <rdf:li>Other Keywords|OML</rdf:li>
            </rdf:Bag>
         </lr:hierarchicalSubject>
      </rdf:Description>
   </rdf:RDF>
</x:xmpmeta>
                                                                                                    
                                                                                                    
                                                                                                    
                                                                                                    
                                                                                                    
                                                                                                    
                                                                                                    
                                                                                                    
            
<?xpacket end="w"?></metadata>
<path class="cls-1" d="M14.46,41.5a7.29,7.29,0,0,1-6.18-3.37,7.4,7.4,0,0,1-6-7.24c0-.14,0-.28,0-.42a7.38,7.38,0,0,1,0-9.52c0-.15,0-.29,0-.44a7.4,7.4,0,0,1,6.09-7.25A7.54,7.54,0,0,1,12,10.38a7.24,7.24,0,0,1,2.51-.46h.22a2.8,2.8,0,0,1,2.72,2.82V38.67a2.85,2.85,0,0,1-2.75,2.83Z"/><path class="cls-1" d="M14.47,10.42h.21a2.32,2.32,0,0,1,2.23,2.32V38.67A2.35,2.35,0,0,1,14.65,41h-.19a6.83,6.83,0,0,1-5.87-3.32,6.91,6.91,0,0,1-5.86-6.79c0-.19,0-.39,0-.59a6.87,6.87,0,0,1,0-9.18c0-.21,0-.41,0-.61a6.89,6.89,0,0,1,5.89-6.79,7,7,0,0,1,3.52-2.87,6.49,6.49,0,0,1,2.33-.43m0-1a7.52,7.52,0,0,0-2.68.49A8,8,0,0,0,8,12.81a7.91,7.91,0,0,0-6.3,7.7v.28a7.86,7.86,0,0,0,0,9.84v.26A7.91,7.91,0,0,0,8,38.58,7.8,7.8,0,0,0,14.46,42h.22a3.35,3.35,0,0,0,3.23-3.33V12.74a3.29,3.29,0,0,0-3.2-3.31Z"/><path class="cls-1" d="M20.42,41.5a2.85,2.85,0,0,1-2.74-2.83V.5h27.4V16.28H31.5l.32.49a7.28,7.28,0,0,1,1,3.74c0,.15,0,.29,0,.44a7.38,7.38,0,0,1,0,9.52c0,.14,0,.28,0,.42a7.41,7.41,0,0,1-6.06,7.24,7.28,7.28,0,0,1-6.18,3.37Z"/><path class="cls-1" d="M44.58,1V15.78h-14l.84,1.27a6.83,6.83,0,0,1,.95,3.46,4.26,4.26,0,0,1,0,.61,6.88,6.88,0,0,1,0,9.18c0,.2,0,.4,0,.59a6.91,6.91,0,0,1-5.86,6.79A6.84,6.84,0,0,1,20.62,41h-.18a2.35,2.35,0,0,1-2.26-2.33V1h26.4m1-1H17.18V38.67A3.35,3.35,0,0,0,20.41,42h.21a7.77,7.77,0,0,0,6.48-3.42,7.91,7.91,0,0,0,6.26-7.69c0-.09,0-.17,0-.26a7.86,7.86,0,0,0,0-9.84c0-.1,0-.19,0-.28a7.86,7.86,0,0,0-1-3.73H45.58V0Z"/><path class="cls-2" d="M14.68,10.42a6.76,6.76,0,0,0-2.54.43,7,7,0,0,0-3.52,2.87,6.89,6.89,0,0,0-5.89,6.79c0,.2,0,.4,0,.61a6.87,6.87,0,0,0,0,9.18c0,.2,0,.4,0,.59a6.91,6.91,0,0,0,5.86,6.79A6.83,6.83,0,0,0,14.46,41h.19a2.35,2.35,0,0,0,2.26-2.33V12.74A2.32,2.32,0,0,0,14.68,10.42ZM14.6,39.31A5.17,5.17,0,0,1,9.86,36.5l-.21-.42-.47,0a5.19,5.19,0,0,1-4.76-5.15,5.5,5.5,0,0,1,.06-.76l.06-.43-.3-.3a5.17,5.17,0,0,1,0-7.38l.31-.3-.07-.43a5.77,5.77,0,0,1-.06-.78A5.18,5.18,0,0,1,9.2,15.36l.47,0,.22-.41a5.29,5.29,0,0,1,2.83-2.48,5,5,0,0,1,1.74-.32h.16a.64.64,0,0,1,.6.63v8.11H11.05l-.26-.26a2.59,2.59,0,0,0,.21-1,2.54,2.54,0,1,0-2.54,2.53,2.57,2.57,0,0,0,1.18-.29l.71.71h4.87v2.33H9a2.53,2.53,0,1,0,0,1.69h6.27v2.11H10.35l-.85.85a2.58,2.58,0,0,0-1-.22A2.54,2.54,0,1,0,11,31.84a2.6,2.6,0,0,0-.28-1.15l.33-.33h4.17v8.31A.65.65,0,0,1,14.6,39.31ZM8.46,20.43a.85.85,0,0,1,0-1.69.85.85,0,1,1,0,1.69ZM7.4,25.71a.84.84,0,1,1-1.68,0,.84.84,0,0,1,1.68,0Zm1.91,6.13a.85.85,0,0,1-.85.84.85.85,0,0,1,0-1.69A.85.85,0,0,1,9.31,31.84Z"/><path class="cls-2" d="M30.67,20.51a4.59,4.59,0,0,1-.07.78l-.06.43.3.3a5.16,5.16,0,0,1,0,7.38l-.31.3.06.43a4.38,4.38,0,0,1,.07.76A5.19,5.19,0,0,1,25.9,36l-.46,0-.22.42a5.17,5.17,0,0,1-4.6,2.81h-.13a.65.65,0,0,1-.62-.64V30.36h4.18l.32.32a2.49,2.49,0,0,0-.28,1.16,2.55,2.55,0,1,0,1.51-2.32l-.85-.85H19.87V26.56h6.27a2.54,2.54,0,1,0,0-1.69H19.87V22.54h4.88l.71-.71a2.4,2.4,0,0,0,1.16.29,2.54,2.54,0,1,0-2.53-2.53,2.61,2.61,0,0,0,.21,1l-.25.25H19.87v-3.8H18.18V38.67A2.35,2.35,0,0,0,20.44,41h.18a6.84,6.84,0,0,0,5.88-3.32,6.91,6.91,0,0,0,5.86-6.79c0-.19,0-.39,0-.59a6.88,6.88,0,0,0,0-9.18,4.26,4.26,0,0,0,0-.61,6.83,6.83,0,0,0-.95-3.46H29.33A5.17,5.17,0,0,1,30.67,20.51ZM26.62,31a.85.85,0,1,1-.84.85A.85.85,0,0,1,26.62,31Zm1.9-6.12a.84.84,0,0,1,.85.84.85.85,0,1,1-1.69,0A.84.84,0,0,1,28.52,24.87Zm-1.9-6.13a.85.85,0,1,1-.84.85A.85.85,0,0,1,26.62,18.74Z"/><path class="cls-2" d="M44.58,15.78V1H18.18V15.78Zm-24.71-3v-10h23v11.4h-23Z"/><path class="cls-2" d="M21.9,11.56h1.21V9.33l.77.19,1.21,2h1.34L25,9.3a1.71,1.71,0,0,0,.87-.6,1.65,1.65,0,0,0,.31-1,1.63,1.63,0,0,0-.55-1.33,2.33,2.33,0,0,0-1.56-.47H21.9Zm1.21-4.69h.59a1.8,1.8,0,0,1,1,.19A.69.69,0,0,1,25,7.7a.69.69,0,0,1-.28.64,1.8,1.8,0,0,1-1,.19h-.59Z"/><polygon class="cls-2" points="28.34 10.65 29.34 10.65 29.34 9.18 30.72 9.18 30.72 8.18 29.34 8.18 29.34 6.78 28.34 6.78 28.34 8.18 26.95 8.18 26.95 9.18 28.34 9.18 28.34 10.65"/><path class="cls-2" d="M33,9.72h.82a2.3,2.3,0,0,0,1.58-.48,1.86,1.86,0,0,0,.54-1.44,1.86,1.86,0,0,0-.54-1.44,2.3,2.3,0,0,0-1.58-.48h-2v5.68H33Zm0-2.85h.57a1.45,1.45,0,0,1,.89.21.89.89,0,0,1,.26.72.92.92,0,0,1-.26.72,1.45,1.45,0,0,1-.89.21H33Z"/><polygon class="cls-2" points="37.94 11.56 39.16 11.56 39.16 9.34 41.15 5.88 39.8 5.88 38.58 8.24 37.35 5.88 35.95 5.88 37.94 9.34 37.94 11.56"/></svg>