<?xml version="1.0" encoding="utf-8"?>
<!-- Generator: Adobe Illustrator 27.7.0, SVG Export Plug-In . SVG Version: 6.00 Build 0)  -->
<svg version="1.1" id="Layer_1" xmlns="http://www.w3.org/2000/svg" xmlns:xlink="http://www.w3.org/1999/xlink" x="0px" y="0px"
	 viewBox="0 0 42.828 37.289" style="enable-background:new 0 0 42.828 37.289;" xml:space="preserve">
<metadata><?xpacket begin="﻿" id="W5M0MpCehiHzreSzNTczkc9d"?>
<x:xmpmeta xmlns:x="adobe:ns:meta/" x:xmptk="Adobe XMP Core 7.1-c000 79.4d2f597, 2021/09/01-20:51:22        ">
   <rdf:RDF xmlns:rdf="http://www.w3.org/1999/02/22-rdf-syntax-ns#">
      <rdf:Description rdf:about=""
            xmlns:dc="http://purl.org/dc/elements/1.1/"
            xmlns:xmpRights="http://ns.adobe.com/xap/1.0/rights/"
            xmlns:xmp="http://ns.adobe.com/xap/1.0/"
            xmlns:xmpMM="http://ns.adobe.com/xap/1.0/mm/"
            xmlns:stEvt="http://ns.adobe.com/xap/1.0/sType/ResourceEvent#"
            xmlns:lr="http://ns.adobe.com/lightroom/1.0/">
         <dc:rights>
            <rdf:Alt>
               <rdf:li xml:lang="x-default">Oracle All Rights</rdf:li>
            </rdf:Alt>
         </dc:rights>
         <dc:subject>
            <rdf:Bag>
               <rdf:li>icon</rdf:li>
               <rdf:li>data</rdf:li>
               <rdf:li>database</rdf:li>
               <rdf:li>query</rdf:li>
               <rdf:li>table</rdf:li>
               <rdf:li>AS OF</rdf:li>
            </rdf:Bag>
         </dc:subject>
         <xmpRights:Marked>True</xmpRights:Marked>
         <xmp:MetadataDate>2024-07-05T18:11:05-06:00</xmp:MetadataDate>
         <xmpMM:InstanceID>xmp.iid:f19d32a4-9a9b-4c15-a718-675083872f61</xmpMM:InstanceID>
         <xmpMM:DocumentID>xmp.did:ff1de42d-fded-48b1-b03a-67e9193a6f91</xmpMM:DocumentID>
         <xmpMM:OriginalDocumentID>xmp.did:ff1de42d-fded-48b1-b03a-67e9193a6f91</xmpMM:OriginalDocumentID>
         <xmpMM:History>
            <rdf:Seq>
               <rdf:li>
                  <rdf:Description>
                     <stEvt:action>saved</stEvt:action>
                     <stEvt:instanceID>xmp.iid:ff1de42d-fded-48b1-b03a-67e9193a6f91</stEvt:instanceID>
                     <stEvt:when>2024-07-05T18:10:13-06:00</stEvt:when>
                     <stEvt:softwareAgent>Adobe Bridge 2023</stEvt:softwareAgent>
                     <stEvt:changed>/metadata</stEvt:changed>
                  </rdf:Description>
               </rdf:li>
               <rdf:li>
                  <rdf:Description>
                     <stEvt:action>saved</stEvt:action>
                     <stEvt:instanceID>xmp.iid:f19d32a4-9a9b-4c15-a718-675083872f61</stEvt:instanceID>
                     <stEvt:when>2024-07-05T18:11:05-06:00</stEvt:when>
                     <stEvt:softwareAgent>Adobe Bridge 2023</stEvt:softwareAgent>
                     <stEvt:changed>/metadata</stEvt:changed>
                  </rdf:Description>
               </rdf:li>
            </rdf:Seq>
         </xmpMM:History>
         <lr:hierarchicalSubject>
            <rdf:Bag>
               <rdf:li>Other Keywords|icon</rdf:li>
            </rdf:Bag>
         </lr:hierarchicalSubject>
      </rdf:Description>
   </rdf:RDF>
</x:xmpmeta>
                                                                                                    
                                                                                                    
                                                                                                    
                                                                                                    
                                                                                                    
                                                                                                    
                                                                                                    
                                                                                                    
                                                                                                    
                                                                                                  
<?xpacket end="w"?></metadata>
<style type="text/css">
	.st0{fill:#FFFFFF;}
	.st1{fill:#2C5967;}
</style>
<g>
	<path class="st0" d="M42.121,16.502L41.18,15.56l-0.707-0.707l-0.707,0.707l-0.377,0.377l-0.007-0.066l-0.056-0.459l0.019-0.004
		l-0.049-0.244l-0.033-0.274l-0.021,0.002l-0.092-0.455l-0.023-0.103c-0.04-0.187-0.072-0.329-0.106-0.47l-0.062-0.253
		c-0.037-0.147-0.077-0.295-0.118-0.442l-0.066-0.231c-0.045-0.153-0.093-0.306-0.143-0.458l-0.018-0.055l-0.051-0.156
		c-0.054-0.159-0.111-0.317-0.169-0.474l-0.052-0.146l-0.344-0.905l-0.025,0.009c-0.162-0.367-0.336-0.726-0.52-1.076l-0.035-0.065
		c-0.106-0.199-0.203-0.374-0.302-0.547l-0.071-0.12l-0.035-0.059c-0.083-0.14-0.166-0.279-0.253-0.417L36.65,8.305l-0.04-0.062
		l-0.052-0.081c-0.038-0.059-0.076-0.118-0.115-0.177l-0.376-0.557l0.012-0.01l-0.106-0.13l-0.09-0.134l-0.009,0.006L35.75,6.983
		l-0.018,0.012l-0.286-0.35c-0.612-0.748-1.287-1.451-2.009-2.091l-0.338-0.3l0.013-0.018l-0.218-0.164l-0.205-0.182l-0.015,0.016
		l-0.361-0.272c-0.772-0.581-1.597-1.104-2.452-1.553L29.46,1.872l0.009-0.02l-0.248-0.106l-0.244-0.128l-0.01,0.02l-0.417-0.178
		c-0.89-0.379-1.817-0.689-2.756-0.919l-0.44-0.108l0.004-0.022l-0.269-0.043l-0.266-0.065l-0.005,0.022L24.37,0.251
		c-0.949-0.153-1.922-0.23-2.894-0.23h-0.001h-0.001l-0.032,0L20.99,0.022L20.988,0l-0.271,0.022l-0.274,0v0.022l-0.452,0.037
		c-0.964,0.079-1.928,0.236-2.864,0.469l-0.971,0.241l-0.921,0.298l-2.444,0.83c-0.123-0.002-0.244-0.008-0.369-0.008
		c-0.564,0-1.116,0.024-1.642,0.072c-0.531,0.048-1.049,0.122-1.54,0.219C9.111,2.228,8.979,2.255,8.85,2.284
		C8.588,2.343,8.341,2.409,8.108,2.48c-0.61,0.186-1.139,0.419-1.573,0.693C6.216,3.372,5.943,3.598,5.728,3.841
		c-0.079,0.09-0.15,0.181-0.214,0.274C5.379,4.314,5.275,4.526,5.206,4.746c-0.071,0.225-0.107,0.46-0.107,0.698v7.585
		c0,0.199,0.039,0.389,0.087,0.576l-0.013-0.013L4.466,14.3l-1.851,1.851l-1.908,1.908L0,18.766l0.707,0.707l0.942,0.942
		l0.707,0.707l0.707-0.707l0.482-0.482c0.011,0.107,0.023,0.214,0.036,0.321l0.053,0.434l-0.02,0.004l0.051,0.254l0.039,0.317
		l0.024-0.003l0.086,0.428l0.024,0.106c0.037,0.168,0.064,0.29,0.093,0.411c0.03,0.125,0.06,0.25,0.092,0.374
		c0.031,0.122,0.064,0.243,0.098,0.364c0.035,0.126,0.073,0.251,0.111,0.376c0.035,0.115,0.07,0.231,0.108,0.345
		c0.044,0.135,0.091,0.269,0.139,0.403l0.025,0.074l0.051,0.147l0.069,0.184c0.055,0.144,0.113,0.289,0.173,0.435L4.774,24.92
		l0.423,0.889l0.006,0.013l0.019,0.037c0.092,0.19,0.185,0.377,0.283,0.563l0.048,0.09l0.024,0.045
		c0.08,0.15,0.162,0.298,0.247,0.446l0.097,0.167c0.095,0.163,0.193,0.324,0.293,0.483l0.046,0.074
		c0.099,0.156,0.2,0.31,0.304,0.462l0.084,0.122l0.261,0.379l-0.016,0.013l0.154,0.188l0.17,0.247l0.021-0.014l0.289,0.352
		c0.611,0.746,1.288,1.449,2.012,2.089l0.338,0.299l-0.013,0.017l0.216,0.162l0.208,0.184l0.015-0.017l0.361,0.271
		c0.773,0.581,1.599,1.102,2.454,1.551l0.401,0.21l-0.009,0.02l0.248,0.105l0.245,0.128l0.01-0.02l0.417,0.177
		c0.889,0.378,1.816,0.687,2.757,0.916l0.44,0.108L17.622,35.7l0.271,0.043l0.264,0.065l0.005-0.021l0.447,0.071
		c0.943,0.151,1.909,0.227,2.87,0.227h1.654c1.745,1.004,4.772,1.203,6.853,1.203c3.078,0,8.242-0.424,8.242-3.261v-3.907v-0.081
		v-3.765v-0.231v-3.663v-0.072l0,0c0-0.004,0-0.007,0-0.011c0-0.153-0.02-0.299-0.049-0.441l0.182-0.182l2-2l1.759-1.759
		l0.707-0.707L42.121,16.502z"/>
	<g>
		<path class="st1" d="M14.821,33.734c0.84,0.357,1.716,0.648,2.603,0.865l0.316-1.294c-0.817-0.2-1.624-0.468-2.398-0.797
			L14.821,33.734z"/>
		<path class="st1" d="M21.444,1.021v1.332l0.036,0c0.844,0,1.692,0.068,2.519,0.201l0.212-1.315
			c-0.897-0.145-1.815-0.218-2.735-0.218L21.444,1.021z"/>
		<path class="st1" d="M32.774,5.303L31.89,6.3c0.629,0.558,1.218,1.171,1.751,1.822l1.031-0.843
			C34.095,6.572,33.456,5.908,32.774,5.303z"/>
		<path class="st1" d="M18.978,33.555l-0.211,1.315c0.891,0.142,1.803,0.215,2.712,0.215h0.018v-1.332H21.48
			C20.641,33.753,19.8,33.687,18.978,33.555z"/>
		<path class="st1" d="M17.368,1.521l0.32,1.293c0.814-0.202,1.653-0.339,2.492-0.408l-0.108-1.327
			C19.162,1.153,18.252,1.301,17.368,1.521z"/>
		<path class="st1" d="M11.263,31.682c0.73,0.548,1.51,1.041,2.317,1.464l0.618-1.179c-0.744-0.39-1.463-0.844-2.136-1.35
			L11.263,31.682z"/>
		<path class="st1" d="M25.237,2.805c0.817,0.201,1.623,0.47,2.397,0.8l0.523-1.225c-0.84-0.358-1.715-0.65-2.602-0.868
			L25.237,2.805z"/>
		<path class="st1" d="M9.33,27.998L8.3,28.842c0.578,0.705,1.217,1.369,1.901,1.973l0.882-0.998
			C10.453,29.261,9.863,28.648,9.33,27.998z"/>
		<path class="st1" d="M28.776,4.147c0.744,0.391,1.462,0.846,2.135,1.352l0.801-1.064c-0.73-0.549-1.509-1.043-2.316-1.467
			L28.776,4.147z"/>
		<polygon class="st1" points="16.052,1.904 16.05,1.905 16.052,1.905 		"/>
		<path class="st1" d="M4.448,18.053c0,0.222,0.006,0.445,0.015,0.667c0.003,0.065,0.006,0.13,0.009,0.196
			c0.009,0.182,0.021,0.364,0.036,0.546c0.004,0.044,0.006,0.088,0.01,0.131c0.016,0.181,0.035,0.361,0.057,0.54l0.003,0
			c0.055,0.455,0.13,0.906,0.221,1.353l-0.004,0.001c0.01,0.048,0.022,0.096,0.033,0.144c0.025,0.115,0.051,0.23,0.078,0.344
			c0.028,0.118,0.057,0.235,0.087,0.353c0.03,0.115,0.06,0.23,0.093,0.344c0.033,0.119,0.069,0.237,0.105,0.355
			c0.033,0.109,0.067,0.218,0.102,0.326c0.042,0.128,0.086,0.254,0.131,0.381c0.025,0.069,0.046,0.14,0.072,0.209
			c0.021,0.058,0.043,0.116,0.065,0.174c0.163,0.427,0.344,0.847,0.541,1.26l-0.001,0.001c0.008,0.016,0.016,0.032,0.024,0.048
			c0.086,0.178,0.175,0.355,0.267,0.531C6.412,26,6.436,26.042,6.458,26.084c0.076,0.142,0.154,0.282,0.233,0.421
			c0.03,0.053,0.061,0.106,0.091,0.158c0.09,0.153,0.182,0.306,0.277,0.456c0.015,0.023,0.029,0.047,0.043,0.07
			c0.093,0.147,0.189,0.292,0.287,0.436l0.081,0.117c0.001,0.001,0.002,0.003,0.003,0.004l0,0l0.005,0.007l1.094-0.76l-0.006-0.009
			c-0.116-0.168-0.229-0.338-0.339-0.511C8.213,26.453,8.2,26.43,8.185,26.407c-0.087-0.138-0.171-0.277-0.253-0.417
			c-0.029-0.049-0.057-0.097-0.085-0.146c-0.074-0.129-0.146-0.259-0.216-0.39c-0.02-0.038-0.042-0.076-0.062-0.114
			c-0.085-0.163-0.168-0.327-0.247-0.492c-0.189-0.394-0.363-0.795-0.518-1.203l0,0c-0.045-0.118-0.086-0.238-0.128-0.357
			c-0.041-0.115-0.081-0.231-0.119-0.347c-0.033-0.101-0.064-0.202-0.095-0.304c-0.033-0.108-0.065-0.216-0.096-0.325
			c-0.03-0.106-0.058-0.213-0.086-0.319c-0.028-0.107-0.054-0.214-0.079-0.322c-0.025-0.107-0.05-0.214-0.073-0.322
			c-0.132-0.618-0.229-1.244-0.285-1.877c-0.004-0.039-0.006-0.079-0.009-0.118c-0.014-0.168-0.025-0.337-0.033-0.507
			c-0.003-0.059-0.006-0.119-0.008-0.178c-0.008-0.205-0.013-0.41-0.013-0.616c0-0.181,0.005-0.363,0.011-0.545l2.068,2.068
			L8.8,18.634l-3.627-3.627l-1.851,1.851l-1.908,1.908l0.942,0.942l0.941-0.941l1.159-1.159C4.452,17.756,4.448,17.905,4.448,18.053
			z"/>
		<path class="st1" d="M38.512,18.053c0-0.016-0.001-0.032-0.001-0.049c0-0.176-0.004-0.352-0.01-0.527
			c-0.002-0.073-0.006-0.146-0.01-0.218c-0.006-0.122-0.012-0.244-0.02-0.366c-0.005-0.078-0.011-0.156-0.017-0.234
			c-0.01-0.124-0.022-0.247-0.034-0.37c-0.007-0.069-0.014-0.138-0.022-0.208c-0.003-0.03-0.006-0.06-0.009-0.09l-0.002,0
			c-0.055-0.455-0.129-0.906-0.219-1.353l0.003-0.001c-0.01-0.047-0.022-0.094-0.032-0.141c-0.029-0.134-0.059-0.268-0.09-0.402
			c-0.019-0.08-0.038-0.159-0.058-0.238c-0.035-0.14-0.073-0.279-0.112-0.418c-0.02-0.073-0.041-0.145-0.062-0.217
			c-0.043-0.145-0.088-0.289-0.135-0.432c-0.022-0.067-0.043-0.134-0.065-0.2c-0.051-0.15-0.105-0.299-0.16-0.448
			c-0.017-0.045-0.032-0.092-0.049-0.137l-0.001,0c-0.242-0.636-0.521-1.258-0.839-1.863c-0.015-0.028-0.031-0.055-0.045-0.083
			c-0.089-0.166-0.179-0.331-0.273-0.495c-0.033-0.057-0.067-0.113-0.101-0.169c-0.078-0.132-0.157-0.263-0.238-0.393
			c-0.045-0.072-0.092-0.143-0.138-0.214c-0.053-0.081-0.103-0.163-0.157-0.243l-0.002,0.002c-0.039-0.057-0.075-0.116-0.115-0.173
			l-1.095,0.758c0.086,0.125,0.169,0.252,0.251,0.38c0.043,0.067,0.087,0.133,0.13,0.2C34.857,9.83,34.929,9.95,35,10.07
			c0.031,0.053,0.064,0.106,0.095,0.159c0.087,0.15,0.17,0.303,0.252,0.456c0.014,0.026,0.028,0.051,0.042,0.077
			c0.096,0.184,0.189,0.369,0.278,0.555l0,0c0.202,0.425,0.383,0.86,0.545,1.301c0.048,0.131,0.096,0.262,0.141,0.395
			c0.023,0.066,0.043,0.133,0.065,0.2c0.041,0.127,0.081,0.254,0.119,0.382c0.021,0.071,0.041,0.142,0.061,0.214
			c0.035,0.124,0.068,0.248,0.1,0.372c0.019,0.076,0.038,0.153,0.056,0.229c0.029,0.121,0.056,0.241,0.081,0.362
			c0.102,0.482,0.183,0.969,0.24,1.46c0.008,0.066,0.014,0.132,0.021,0.198c0.011,0.112,0.022,0.224,0.031,0.336
			c0.006,0.072,0.011,0.145,0.016,0.217c0.008,0.112,0.013,0.224,0.019,0.337c0.003,0.067,0.007,0.135,0.009,0.202
			c0.005,0.161,0.008,0.321,0.009,0.483c0,0.016,0.001,0.032,0.001,0.049c0,0.182-0.004,0.364-0.011,0.545l-2.331-2.331
			l-0.942,0.942l3.759,3.759l1.999-2l1.759-1.759l-0.942-0.942l-0.821,0.82L38.51,18.23C38.51,18.171,38.512,18.112,38.512,18.053z"
			/>
		<path class="st1" d="M22.746,30.121v3.907c0,2.198,6.501,2.261,7.242,2.261s7.242-0.063,7.242-2.261v-3.907v-0.081v-3.765v-0.231
			v-3.662c0-0.009-0.002-0.017-0.003-0.026c0.001-0.019,0.003-0.038,0.003-0.057c0-1.924-5.044-2.202-6.752-2.241
			c-0.091,0.453-0.217,0.896-0.375,1.327c3.193,0.013,5.144,0.553,5.691,0.914c-0.553,0.365-2.543,0.916-5.805,0.916
			c-0.278,0-0.543-0.005-0.802-0.013c-0.296,0.451-0.634,0.878-1.013,1.277c0.892,0.062,1.598,0.067,1.815,0.067
			c0.527,0,3.967-0.032,5.91-0.836v2.486c-0.343,0.36-2.38,1.009-5.91,1.009c-2.297,0-3.961-0.275-4.938-0.566
			c-0.733,0.306-1.506,0.514-2.304,0.621v2.78V30.121z M24.078,27.694c1.943,0.809,5.383,0.841,5.91,0.841s3.967-0.032,5.91-0.841
			v2.346c-0.343,0.36-2.38,1.009-5.91,1.009s-5.567-0.649-5.91-1.009V27.694z M24.078,31.54c1.943,0.809,5.383,0.841,5.91,0.841
			s3.967-0.032,5.91-0.841v2.407c-0.343,0.36-2.38,1.009-5.91,1.009s-5.567-0.649-5.91-1.009V31.54z"/>
		<path class="st1" d="M18.735,5.338c-0.019-0.329-0.158-0.63-0.418-0.903c-0.052-0.055-0.109-0.108-0.17-0.161
			c-0.123-0.105-0.266-0.206-0.428-0.302c-0.587-0.344-1.371-0.612-2.351-0.804c-0.69-0.129-1.415-0.209-2.173-0.242
			c-0.253-0.011-0.509-0.016-0.77-0.016c-0.536,0-1.053,0.023-1.551,0.068c-0.498,0.045-0.977,0.114-1.437,0.205
			C9.311,3.208,9.189,3.233,9.07,3.26C8.833,3.313,8.61,3.372,8.399,3.436c-0.526,0.16-0.97,0.354-1.33,0.582
			C6.827,4.17,6.629,4.331,6.478,4.503C6.427,4.56,6.382,4.619,6.341,4.678C6.26,4.797,6.2,4.92,6.159,5.048
			c-0.04,0.128-0.061,0.26-0.061,0.396v7.585c0,0.273,0.081,0.529,0.243,0.766c0.04,0.059,0.086,0.118,0.137,0.175
			c0.152,0.172,0.349,0.333,0.592,0.485c0.288,0.182,0.63,0.343,1.024,0.482c0.296,0.104,0.622,0.197,0.977,0.277
			c0.119,0.027,0.24,0.052,0.366,0.076c0.46,0.091,0.939,0.159,1.437,0.205c0.498,0.045,1.015,0.068,1.551,0.068
			c0.113,0,0.222-0.005,0.334-0.007c0.032-0.103,0.066-0.205,0.102-0.307v-1.012c-0.171,0.005-0.343,0.009-0.519,0.009
			c-0.783,0-1.515-0.051-2.196-0.152c-0.59-0.081-1.123-0.197-1.601-0.349c-0.396-0.131-0.717-0.273-0.961-0.425
			c-0.213-0.131-0.32-0.243-0.32-0.334v-2.2c0.589,0.314,1.357,0.551,2.302,0.713c0.864,0.152,1.789,0.227,2.775,0.227h0.583v-1.232
			c-0.191,0.006-0.385,0.01-0.583,0.01c-0.783,0-1.515-0.051-2.196-0.153c-0.59-0.081-1.123-0.198-1.601-0.351
			C8.148,9.869,7.828,9.727,7.584,9.575c-0.213-0.132-0.32-0.244-0.32-0.336V7.028c0.589,0.305,1.357,0.544,2.302,0.717
			c0.864,0.152,1.789,0.229,2.775,0.229l0.595-0.015l0.518-0.031l0.823-0.061c0.234-0.03,0.462-0.066,0.686-0.107l0.808-0.152
			l0.229-0.061c0.132-0.031,0.264-0.066,0.396-0.107l0.427-0.137l0.396-0.168l0.061-0.031l0.137-0.076V9.23v0.009v0.908
			c0.429-0.212,0.874-0.391,1.332-0.533v-4.17L18.735,5.338z M17.215,5.778c-0.243,0.152-0.561,0.293-0.956,0.425
			c-0.475,0.152-1.006,0.268-1.593,0.349c-0.678,0.101-1.406,0.152-2.185,0.152c-0.779,0-1.507-0.051-2.185-0.152
			C9.711,6.471,9.18,6.354,8.705,6.203C8.31,6.071,7.992,5.929,7.749,5.778C7.536,5.646,7.43,5.535,7.43,5.444v-0.03
			C7.45,5.323,7.572,5.211,7.794,5.08C8.047,4.928,8.371,4.792,8.765,4.67c0.475-0.152,1.001-0.268,1.578-0.349
			c0.668-0.091,1.381-0.137,2.139-0.137c0.779,0,1.507,0.051,2.185,0.152c0.586,0.081,1.117,0.197,1.593,0.349
			c0.394,0.132,0.713,0.273,0.956,0.425c0.212,0.132,0.319,0.243,0.319,0.334C17.534,5.535,17.428,5.646,17.215,5.778z"/>
		<path class="st1" d="M13.859,10.543v2.664v2.664h2.164h3.163v-1.332h-3.375c0.248-0.367,0.534-0.712,0.857-1.031
			c1.331-1.317,3.08-1.975,4.829-1.975s3.498,0.658,4.829,1.975c1.287,1.273,1.996,2.965,1.996,4.765s-0.709,3.492-1.996,4.765
			c-2.663,2.633-6.995,2.633-9.658,0c-1.287-1.273-1.997-2.965-1.997-4.765c0-0.477,0.051-0.947,0.149-1.403h-1.356
			c-0.081,0.459-0.124,0.928-0.124,1.403c0,2.158,0.849,4.187,2.392,5.712c1.59,1.572,3.677,2.358,5.765,2.358
			c2.088,0,4.176-0.786,5.765-2.358c1.542-1.525,2.392-3.554,2.392-5.712s-0.849-4.187-2.392-5.712
			c-3.179-3.144-8.352-3.144-11.531,0c-0.191,0.189-0.371,0.386-0.541,0.589v-1.452v-1.155H13.859z"/>
		<path class="st1" d="M22.951,20.659c0.13,0.128,0.299,0.192,0.468,0.192c0.172,0,0.343-0.066,0.474-0.198
			c0.258-0.262,0.256-0.683-0.006-0.942l-1.704-1.684v-3.989c0-0.368-0.298-0.666-0.666-0.666s-0.666,0.298-0.666,0.666v4.268
			c0,0.178,0.071,0.349,0.198,0.474L22.951,20.659z"/>
	</g>
</g>
</svg>
