<?xml version="1.0" encoding="UTF-8"?>
<svg id="Icon" xmlns="http://www.w3.org/2000/svg" version="1.1" viewBox="0 0 288 288">
  <!-- Generator: Adobe Illustrator 29.5.0, SVG Export Plug-In . SVG Version: 2.1.0 Build 137)  -->
  <defs>
    <style>
      .st0 {
        fill: #312d2a;
      }

      .st1 {
        fill: #2f5967;
      }

      .st2 {
        fill: #fff;
      }
    </style>
  </defs>
  <g>
    <path class="st2" d="M164.6905212,31.9454517c-1.987381-.3682804-4.003479-.6642265-6.011322-.9189835-2.0130615-.2554169-4.033371-.453495-6.0576324-.5950031-2.0230408-.1414242-4.0500336-.2263489-6.0777893-.2556858-2.0275574-.029335-4.0559082-.0030975-6.0820618.0777035-2.0266113.0808201-4.0510254.2162285-6.0704193.4051685-2.0202179.1890182-4.0354156.4316101-6.0428925.7267075-2.0084229.2952385-4.0091095.6430302-5.9994583,1.0423222-1.9912338.3994675-3.9721222.8504791-5.9401245,1.3520088-1.9686813.5017014-3.9244766,1.0539551-5.8648911,1.6557693-1.9407959.6019325-3.8662033,1.2534523-5.7737656,1.9536057-1.9075928.7001686-3.7973328,1.4489784-5.6667404,2.2455177-1.8691025.7964134-3.7178802,1.6405411-5.543808,2.5315018-1.8253479.8906784-3.6278687,1.8281593-5.4049835,2.8115616-1.7763519.9829788-3.5273209,2.0118446-5.2502594,3.0856934-1.7221222,1.0733376-3.4162445,2.1916237-5.0796356,3.3539009-1.662674,1.1617775-3.2946548,2.3675156-4.8931122,3.6161842-1.5980301,1.2483253-3.1625595,2.5395584-4.6906967,3.8725395-1.5281754,1.3330154-3.0199585,2.7077789-4.472374,4.1229668-1.4531212,1.4158783-2.8668442,2.8722153-4.2381554,4.3674698-1.3728561,1.4969482-2.7032051,3.0328979-3.9880371,4.6060486-.1993446.2440796-.3975945.4890518-.5947342.7349167-25.5871353,31.910408-31.9872875,78.0961914-16.0416069,115.7619781,15.9456787,37.6657867,53.5622559,65.2172394,94.2837372,69.0561371s82.8242188-16.1973114,105.5280457-50.2195435,25.0477295-80.5904083,5.8748932-116.7204132c8.385498-2.902092,16.7709808-5.804184,25.1564789-8.7062759-11.0047607-3.7855301-22.0095215-7.5710678-33.0142822-11.3565979-1.7659454-.6074677-3.5960541-1.2538605-4.922821-2.5681305-1.2840576-1.2719879-1.9489594-3.0241394-2.5775757-4.7187195-3.947403-10.6411324-7.8948212-21.2822647-11.8422241-31.9233932-2.4855499,6.5955276-4.9710999,13.1910553-7.456665,19.7865829.0257874-.0684471-1.308197-.9191895-1.4397736-1.0099602-.4923859-.3396873-.9874725-.6754494-1.4852142-1.0072517-.9954529-.6636047-2.0014648-1.3113823-3.0174713-1.9430695-2.0320282-1.2633781-4.1040802-2.4623833-6.2118225-3.5949402-2.1077728-1.1325722-4.2512512-2.1986961-6.4261627-3.1963158-2.174881-.997612-4.3811951-1.9267197-6.6146545-2.7852516-2.2334137-.8585205-4.4939728-1.6464729-6.777298-2.3617554-1.1929321-.373703-2.3940277-.7188721-3.5938721-1.0694122l-9.678833-2.2155762"/>
    <g>
      <g>
        <path class="st1" d="M170.5564117,47.6466293c-.3800049-.1099854-.7600098-.210022-1.1500244-.3099976l.5200195-1.3699951.6300049,1.6799927Z"/>
        <path class="st1" d="M174.2464142,40.3766098c11.6699829,3.4100342,22.7099609,8.7900391,32.6599731,15.9500122l-2.9199829,7.7799683c-8.0100098-6.0299683-16.8300171-10.7799683-26.1600342-14.1499634l-3.5799561-9.5800171Z"/>
        <path class="st1" d="M239.33638,93.4966049l-7.3200073,2.5300293-.1599731.4299927c7.8900146,14.5499878,12.0299683,30.8200073,12.0299683,47.5800247,0,.5799561-.0100098,1.1599731-.0199585,1.7399902-7.1900024-.8900146-13.7600098-4.5100098-18.4000244-10.25l-3.1099854-3.8599854-3.1099854,3.8599854c-4.3600464,5.3999634-10.4100342,8.9299927-17.1000366,10.0599976l.0100098,8.0899658c7.6099854-1,14.6599731-4.3999634,20.2000122-9.7299805,5.75,5.5300293,13.1199951,8.9700317,21.0499878,9.8300171-.9500122,9.8999634-3.3499756,19.5100098-7.1699829,28.6599731-3.1700439-1.75-6-4.1099854-8.3000488-6.9599609l-3.1099854-3.8600464-3.1099854,3.8600464c-4.8800049,6.039978-11.9099731,9.7399902-19.5300293,10.3599854v6.2000122c0,.5899658-.039978,1.2099609-.1299438,1.8399658,8.5799561-.5200195,16.5999756-4.0499878,22.7699585-9.9799805,2.4000244,2.2999878,5.1099854,4.2600098,8.0400391,5.8099976-7.0599976,13.7399902-17.3000488,25.7600098-29.8200073,34.9500122-2.6600342.8200073-5.4200439,1.2299805-8.2200317,1.2299805-8.5100098,0-16.4799805-3.8099976-21.8499756-10.460022l-3.0599976-3.7999878c-.0300293.0100098-.0700073.0200195-.1099854.0100098l-3.0500488,3.789978c-5.3699951,6.6500244-13.3399658,10.460022-21.8499756,10.460022-8.5200195,0-16.4899902-3.8099976-21.8499756-10.460022l-3.1100464-3.8599854-3.1099854,3.8599854c-5.3699951,6.6500244-13.3399658,10.460022-21.8499756,10.460022-4.3600464,0-8.6900024-1.0200195-12.5500488-2.960022-10.3599854-8.0799561-19.1199951-18.2399902-25.5799561-29.6300049,6.8399658-1.289978,13.1599731-4.5499878,18.2000122-9.3999634,6.6900024,6.4299927,15.5599976,10.039978,24.9599609,10.039978,4.6300049,0,9.1099854-.8599854,13.2700195-2.5v-8.8300171c-4.0300293,2.1800537-8.5499878,3.3300171-13.2700195,3.3300171-8.5100098,0-16.4799805-3.8099976-21.8499756-10.4599609l-3.1099854-3.8600464-3.1100464,3.8600464c-4.7399902,5.8699951-11.539978,9.5499878-18.9499512,10.3099976-4.6600342-10.1100464-7.5500488-20.8200073-8.6200562-31.9400024,1.0900269.0899658,2.1700439.1399536,3.2600098.1399536,9.4000244,0,18.2800293-3.6099854,24.960022-10.0499878,3.7299805,3.5800171,8.1699829,6.2999878,13,7.9899902l.0100098-8.6300049c-3.7999878-1.7799683-7.2000122-4.4299927-9.9000244-7.7699585l-3.1099854-3.8599854-3.1099854,3.8599854c-5.3699951,6.6499634-13.3400269,10.4599609-21.8500366,10.4599609-1.2399902,0-2.4899902-.0799561-3.7299805-.25-.0200195-.5599976-.0200195-1.1300049-.0200195-1.6999512,0-55.1400146,44.8600464-100,100-100,6.6400146,0,13.210022.6599731,19.6300049,1.9400024l2.8500366-7.5800171c-7.3300171-1.5599976-14.8600464-2.3599854-22.4800415-2.3599854-59.5499878,0-108,48.4499512-108,108,0,1.8099976.0499878,3.5799561.1300049,5.2299805.710022,14.8800049,4.3900146,29.1599731,10.9400024,42.4400024,7.2200317,14.6599731,17.8900146,27.7299805,30.8699951,37.7700195,19.0499878,14.7599487,41.8900146,22.5599976,66.0599976,22.5599976,22.9299927,0,44.8400269-7.1000366,63.3400269-20.5200195,14.9299927-10.8300171,26.9199829-25.3699951,34.6599731-42.039978,5.75-12.3800049,9.0499878-25.5900269,9.8099976-39.25.1300049-2.0400391.1900024-4.1200562.1900024-6.1900024,0-17.7700195-4.3099976-35.0400391-12.5499878-50.5400467ZM143.8863678,244.0366364c-15.7099609,0-30.8200073-3.5599976-44.5299683-10.4100342,7.75-.9400024,14.9500122-4.3599854,20.5899658-9.7799683,6.6799927,6.4299927,15.5500488,10.039978,24.960022,10.039978,9.4000244,0,18.2700195-3.6099854,24.960022-10.039978,5.25,5.039978,11.8299561,8.3499756,18.9599609,9.539978-13.8499756,7.0100098-29.1199951,10.6500244-44.9400024,10.6500244Z"/>
      </g>
      <path class="st1" d="M169.9163971,211.6266022c-.0300293.0100098-.0700073.0200195-.1099854.0100098l.0599976-.0700073.0499878.0599976Z"/>
      <path class="st1" d="M105.3963776,142.6666412l.210022.2799683v-.2199707c-.0700073-.0200195-.1400146-.0400391-.210022-.0599976Z"/>
      <path class="st1" d="M119.5663605,141.1065826c-.1599731.3800049-.25.7900391-.2699585,1.210022-.0100098-.0999756-.0100098-.2000122-.0100098-.2999878,0-.3200073.0200195-.6300049.0599976-.9299927.0700073,0,.1500244.0100098.2199707.0199585Z"/>
      <path class="st1" d="M168.4763947,106.2566147c.0100098-.0999756.0100098-.2000122.0100098-.2999878,0-11.1400146-24.1700439-14.1099854-38.4400024-14.1099854-14.2800293,0-38.4500122,2.9699707-38.4500122,14.1099854,0,.0999756,0,.2000122.0100098.2999878v.0200195c-.0100098.0700073-.0100098.1400146-.0100098.2099609v49.4900589c0,7.9699707,12.0299683,11.4499512,21.6900024,12.9499512v-4.039978l.0100098-4.0300293c-8.9100342-1.539978-13.0300293-4-13.7000122-5.0699463v-15.1700439c1.6699829.7600098,3.6199951,1.4500122,5.789978,2.0500488h.0100098c.0700073.0199585.1400146.039978.210022.0599976,2.3499756.6499634,4.9400024,1.1900024,7.7299805,1.6299438v-1.25c-.0299683-.3599854-.0499878-.7299805-.0499878-1.0899658,0-.5800171.0299683-1.1500244.0999756-1.7000122.1600342-1.3900146.5300293-2.6900024,1.0700073-3.8800049-3.3399658-.5299683-6.3499756-1.2299805-8.8399658-2.0499878v-.0100098c-1.1199951-.3699951-2.1400146-.7600098-3.0200195-1.1799927-1.960022-.9099731-2.7800293-1.6900024-3-2.0100098v-16.039978c1.2799683.5700073,2.6799927,1.0899658,4.1500244,1.5499878h.0099487c.6100464.1900024,1.2300415.3699951,1.8699951.539978,7.8000488,2.1000366,17.3300171,2.8400269,24.4200439,2.8400269,7.0899658,0,16.6099854-.7399902,24.4099731-2.8400269,2.1799927-.5899658,4.2200317-1.2799683,6.0300293-2.0899658v6.7799683c1.1699829.0300293,2.5.0700073,3.9299927.1500244.0100098,0,.0299683,0,.0499878.0100098,0,0,.0100098-.0100098.0200195,0,1.2600098.0599976,2.5999756.1499634,4,.2699585v-15.8699951c0-.0699463,0-.1399536-.0100098-.2099609v-.0200272ZM153.796402,109.1166c-5.0700073,1.5700073-12.9800415,2.960022-23.75,2.960022-10.7800293,0-18.6900024-1.3900146-23.7600098-2.960022-3.6199951-1.1099854-5.789978-2.3200073-6.5300293-3.1599731,1.7700195-2.0300293,11.8200073-6.1099854,30.2900391-6.1099854,18.4599609,0,28.5100098,4.0799561,30.2799683,6.1099854-.7299805.8399658-2.9099731,2.0499878-6.5299683,3.1599731Z"/>
      <path class="st1" d="M105.6063995,142.7266388v.2199707l-.210022-.2799683c.0700073.0199585.1400146.039978.210022.0599976Z"/>
      <path class="st1" d="M119.5663605,141.1065826c-.1599731.3800049-.25.7900391-.2699585,1.210022-.0100098-.0999756-.0100098-.2000122-.0100098-.2999878,0-.3200073.0200195-.6300049.0599976-.9299927.0700073,0,.1500244.0100098.2199707.0199585Z"/>
      <path class="st1" d="M119.3463898,141.0866241c-.039978.2999878-.0599976.6099854-.0599976.9299927,0,.0999756,0,.2000122.0100098.2999878.0199585-.4199829.1099854-.8300171.2699585-1.210022-.0699463-.0099487-.1499634-.0199585-.2199707-.0199585ZM169.8664093,211.5666046l-.0599976.0700073c.039978.0100098.0799561,0,.1099854-.0100098l-.0499878-.0599976Z"/>
      <path class="st1" d="M196.1764069,142.3166046c.0099487-.0999756.0099487-.2000122.0099487-.2999878,0-7.3300171-10.4799805-11.1300049-21.7099609-12.8699951-1.9899902-.3099976-4-.5499878-5.9899902-.7399902-1.3500366-.1199951-2.6900024-.2300415-4-.3000488-.0300293-.0099487-.0599976-.0099487-.0800171-.0099487-1.3499756-.0800171-2.6599731-.1300049-3.9199829-.1600342-.9500122-.0299683-1.8699951-.039978-2.75-.039978-1.0400391,0-2.1300049.0200195-3.2600098.0499878-11.8800049.3499756-28.1099854,2.6699829-33.4199829,9.2700195-.1800537.2099609-.3400269.4299927-.4900513.6599731-.6499634.9799805-1.0799561,2.0499878-1.2199707,3.210022.0700073,0,.1500244.0100098.2199707.0199585-.1599731.3800049-.25.7900391-.2699585,1.210022v.0200195c-.0100098.0700073-.0100098.1400146-.0100098.2099609v49.4900513c0,11.2099609,24.1699829,14.1999512,38.4500122,14.1999512,13.5299683,0,35.9499512-2.6900024,38.25-12.5099487.1300049-.5400391.1999512-1.1000366.1999512-1.6900024v-49.4900513c0-.0699463,0-.1399536-.0099487-.2099609v-.0200195ZM157.7364044,135.8966217c.7199707,0,1.4099731.0100098,2.0999756.0200195h.0100098c17.1300049.289978,26.4699707,4.1499634,28.1799927,6.0999756-.1500244.1599731-.3499756.3399658-.5999756.5299683-1.0400391.7800293-3.0100098,1.7300415-5.9200439,2.6300049-5.0700073,1.5599976-12.9799805,2.9500122-23.7699585,2.9500122-4.4899902,0-8.4800415-.2399902-11.9700317-.6400146-4.9099731-.5499878-8.8399658-1.3999634-11.7999878-2.3099976-2.9099731-.8999634-4.8800049-1.8499756-5.9199829-2.6300049-.25-.1900024-.4500122-.3699951-.6000366-.5299683,1.7800293-2.0300293,11.8200073-6.1199951,30.2900391-6.1199951ZM188.1863556,191.8466339c-1.1899414,1.9599609-11.2599487,6.3899536-30.4499512,6.3899536-19.2000122,0-29.2700195-4.4299927-30.4500122-6.3899536v-15.1600342c1.8099976.8200073,3.8399658,1.5100098,6.0100098,2.1000366,7.7999878,2.1199951,17.3399658,2.8599854,24.4400024,2.8599854,7.0999756,0,16.6399536-.7399902,24.4400024-2.8599854,2.1699829-.5900269,4.1999512-1.2800293,6.0099487-2.1000366v15.1600342ZM188.1863556,167.2566071c-.4899902.8099976-2.4899902,2.039978-6.0199585,3.2000122-5.0200195,1.6599731-13.1500244,3.1900024-24.4299927,3.1900024-11.2800293,0-19.4000244-1.5300293-24.4299927-3.1900024-3.5300293-1.1600342-5.5300293-2.3900146-6.0200195-3.2000122v-16.0499878c1.8099976.8099976,3.8499756,1.5,6.0299683,2.0800171,1.3600464.3699951,2.7700195.6999512,4.210022.9799805,6.8400269,1.3599854,14.3499756,1.8599854,20.210022,1.8599854,7.0899658,0,16.6099854-.7299805,24.4099731-2.8399658,2.1799927-.5800171,4.2200317-1.2700195,6.039978-2.0800171v16.0499878Z"/>
      <path class="st1" d="M119.3463898,141.0866241c-.039978.2999878-.0599976.6099854-.0599976.9299927,0,.0999756,0,.2000122.0100098.2999878.0199585-.4199829.1099854-.8300171.2699585-1.210022-.0699463-.0099487-.1499634-.0199585-.2199707-.0199585Z"/>
      <path class="st1" d="M226.6663971,73.3466415l-9.3099976-24.9100342-4.6500244,12.3599854-2.9899902,7.9700317-1.7199707,4.5800171-24.6200562,8.5599976,24.5700073,8.5799561,9.4299927,24.7300415,9.2300415-24.7300415,1.4299927-.4899902,7.7600098-2.6900024,15.5999756-5.3899536-24.7299805-8.5700073ZM221.9763947,85.7466049l-4.6600342,12.4800415-4.7599487-12.4800415-10.9500122-3.8299561,11.0199585-3.8300171,4.7200317-12.5599976,4.6799927,12.5599976,11.0300293,3.8200073-11.0800171,3.8399658Z"/>
      <g>
        <path class="st1" d="M170.5564117,47.6466293c-.3800049-.1099854-.7600098-.210022-1.1500244-.3099976l.5200195-1.3699951.6300049,1.6799927Z"/>
        <path class="st1" d="M169.9264069,45.9666367l-.5200195,1.3699951c.3900146.0999756.7700195.2000122,1.1500244.3099976l-.6300049-1.6799927Z"/>
        <g>
          <path class="st1" d="M191.876358,67.1266098l-16.1499634,5.5800171-1.9100342,5.1199951-2.6999512,7.2199707-1.1600342,3.1100464-1.5499878-4.0599976-1.4799805-3.8800049-2.8600464-7.5100098-16.0299683-5.5900269,16.039978-5.5799561,5.3300171-14.2000122c.3900146.0999756.7700195.2000122,1.1500244.3099976l5.1900024,13.8800049,16.1299438,5.5999756Z"/>
          <path class="st1" d="M170.5564117,47.6466293c-.3800049-.1099854-.7600098-.210022-1.1500244-.3099976l.5200195-1.3699951.6300049,1.6799927Z"/>
        </g>
      </g>
    </g>
  </g>
  <path class="st0" d="M169.9500122,211.5999756c-.0300293.0100098-.0700073.0200195-.1099854.0100098l.0599976-.0700073.0499878.0599976Z"/>
  <path class="st2" d="M105.4299927,142.6400146l.210022.2799683v-.2199707c-.0700073-.0200195-.1400146-.0400391-.210022-.0599976Z"/>
  <path class="st2" d="M119.5999756,141.0799561c-.1599731.3800049-.25.7900391-.2699585,1.210022-.0100098-.0999756-.0100098-.2000122-.0100098-.2999878,0-.3200073.0200195-.6300049.0599976-.9299927.0700073,0,.1500244.0100098.2199707.0199585Z"/>
  <path class="st2" d="M105.6400146,142.7000122v.2199707l-.210022-.2799683c.0700073.0199585.1400146.039978.210022.0599976Z"/>
  <path class="st0" d="M119.5999756,141.0799561c-.1599731.3800049-.25.7900391-.2699585,1.210022-.0100098-.0999756-.0100098-.2000122-.0100098-.2999878,0-.3200073.0200195-.6300049.0599976-.9299927.0700073,0,.1500244.0100098.2199707.0199585Z"/>
  <path class="st2" d="M119.3800049,141.0599976c-.039978.2999878-.0599976.6099854-.0599976.9299927,0,.0999756,0,.2000122.0100098.2999878.0199585-.4199829.1099854-.8300171.2699585-1.210022-.0699463-.0099487-.1499634-.0199585-.2199707-.0199585ZM169.9000244,211.539978l-.0599976.0700073c.039978.0100098.0799561,0,.1099854-.0100098l-.0499878-.0599976Z"/>
  <path class="st0" d="M119.3800049,141.0599976c-.039978.2999878-.0599976.6099854-.0599976.9299927,0,.0999756,0,.2000122.0100098.2999878.0199585-.4199829.1099854-.8300171.2699585-1.210022-.0699463-.0099487-.1499634-.0199585-.2199707-.0199585Z"/>
</svg>