<?xml version="1.0" encoding="UTF-8"?>
<svg id="Icon" xmlns="http://www.w3.org/2000/svg" version="1.1" viewBox="0 0 288 288">
  <!-- Generator: Adobe Illustrator 29.5.0, SVG Export Plug-In . SVG Version: 2.1.0 Build 137)  -->
  <defs>
    <style>
      .st0 {
        fill: #2f5967;
      }

      .st1 {
        fill: #fff;
      }
    </style>
  </defs>
  <path class="st1" d="M107.9121094,252.2392578c9.5649414.8999023,19.7260742,1.3564453,30.2021484,1.3564453,22.3813477,0,43.5463867-2.1147461,59.5981445-5.9550781,7.7670898-1.8613281,31.4018555-7.5244141,31.4018555-23.4350586v-105.1726074c4.3334961-5.8470459,7.4290161-12.3433228,9.1655273-19.2468262l6.1186523,6.1186523,14.1274414-14.1533203-24.3660889-24.3656616,1.8787842-1.878479-1.9770508-3.8837891c-2.5639648-5.0366211-5.9130859-9.6391602-9.9545898-13.6806641-10.2143555-10.2133789-23.8325195-15.8383789-38.3461914-15.8383789l-.3442383.0009766c-16.3165283.102356-31.4248657,7.2668457-41.9191284,19.7583618l-4.1555786-.1157837c-.4057617-.0112305-.8222656-.012207-1.2275391-.012207-22.418457,0-43.6123047,2.1821289-59.6806641,6.1450195-7.7148438,1.9082031-31.1918945,7.7143555-31.3193359,23.784668v91.6524658c-7.7493286,4.2440796-12.8319702,12.25-13.1982422,21.2147217-2.8779297,4.1928711-4.4418945,9.2119141-4.4418945,14.362793,0,5.2285156,1.5292969,10.1518555,4.4448242,14.371582.4731445,10.8466797,7.8417969,20.1889648,18.1645508,23.2519531,4.7978516,5.9121094,11.9956055,9.3764648,19.7006836,9.3764648.2944336,0,.5737305-.0024414.7719727-.0136719.5351562-.0185547,1.0214844-.0600586,1.4438477-.1206055.3950195-.0537109.7631836-.1220703,1.1152344-.2070312.0541992-.0112305.4150391-.0981445.4150391-.0981445.237793-.0634766.5410156-.1484375.8896484-.2709961.0522461-.0166016.1025391-.0332031.1503906-.0498047l.4150391-.1054688.300293-.1533203c.9257812-.3574219,1.7734375-.7807617,2.6030273-1.2446289,1.0161133.5712891,2.1791992,1.1455078,3.5102539,1.5791016.2885742.090332.5913086.1791992.9077148.2578125.0581055.0151367.2392578.0595703.2392578.0595703.3886719.0966797.7753906.1635742,1.1987305.2265625.4506836.0644531.921875.1054688,1.4389648.1254883.2670898.0126953.5458984.0151367.8105469.0151367,4.7177124,0,9.3278809-1.3401489,13.3157349-3.7910156l6.6022339.1347656Z"/>
  <g>
    <g>
      <circle class="st0" cx="57.1326141" cy="208.8955383" r="4"/>
      <path class="st0" d="M58.2225723,199.1303558c-1.5291443-1.5939178-1.4763794-4.1265259.1177025-5.655838,1.5940819-1.5289764,4.1268539-1.4763794,5.6559982.1178589,1.5291405,1.5939178,1.4763832,4.1265259-.1177025,5.655838-1.5942459,1.5289764-4.1268539,1.4763794-5.6559982-.1178589Z"/>
      <path class="st0" d="M64.0528717,224.1382599c-1.4956703,1.6257019-4.0267677,1.7305756-5.6521492.2350769-1.6253815-1.4958344-1.7305794-4.0267639-.2347488-5.6521454,1.4956703-1.6257019,4.0266037-1.7305756,5.6521492-.2350769,1.6253815,1.4958344,1.7305832,4.0267639.2347488,5.6521454Z"/>
      <path class="st0" d="M125.5551758,208.8954926c0-2.9897461-.6699219-5.8798828-1.9501953-8.5-.6699219-1.3696289-1.5097656-2.6699219-2.5-3.8696289.0097656-.3203125.0200195-.6401367.0200195-.9501953,0-1.1401367-.1000977-2.25-.2900391-3.3398438-1.3901367-7.8803711-7.6098633-14.2402344-15.5498047-15.7304688-2.300293-3.3798828-5.590332-5.9794922-9.4501953-7.409668-2.3798828-.8803711-4.8398438-1.2802734-7.3100586-1.1899414-.25.0097656-.5097656.0297852-.7597656.0698242-.2402344.0297852-.4799805.0800781-.7099609.1401367-.0400391,0-.0703125.0097656-.1000977.0200195-.1601562.0400391-.3100586.0795898-.4501953.1298828-.1298828.0498047-.25.0898438-.3798828.1401367-.2602539.0996094-.5102539.199707-.7602539.3095703-.0195312.0205078-.0498047.0302734-.0795898.0400391-.2700195.1303711-.5400391.2705078-.8100586.4101562-.2001953.1201172-.4101562.2402344-.6103516.3500977-.3295898.199707-.6499023.3999023-.9794922.6000977-.5302734.3300781-1.1000977.6899414-1.75,1.0600586-.6503906-.3701172-1.2304688-.7202148-1.7602539-1.0600586-.2700195-.1699219-.5400391-.3300781-.8100586-.4902344-.1401367-.0800781-.2700195-.1601562-.4101562-.2397461-.1396484-.0800781-.2797852-.1601562-.4199219-.2402344-.2700195-.1401367-.5400391-.2797852-.8100586-.409668-.1499023-.0703125-.2998047-.1401367-.449707-.2001953-.1298828-.0498047-.2700195-.1000977-.3999023-.1499023-.1000977-.0302734-.1899414-.0703125-.2900391-.1098633-.1801758-.0605469-.3701172-.1103516-.5600586-.1601562-.4799805-.1201172-.9702148-.1899414-1.4799805-.2099609-2.4702148-.090332-4.9301758.3095703-7.3100586,1.1899414-1.4399414.5297852-2.8100586,1.2299805-4.0800781,2.0698242-2.1098633,1.4101562-3.9399414,3.2202148-5.3798828,5.3398438-.8999023.1704102-1.7700195.4003906-2.6201172.6904297-7.7001953,2.6098633-13.2197266,9.9399414-13.2197266,18.3798828,0,.3100586.0097656.6298828.0297852.9501953-2.8901367,3.4697266-4.4501953,7.7998047-4.4501953,12.3696289s1.5600586,8.8901367,4.4501953,12.3701172c-.0200195.2998047-.0297852.6000977-.0297852.8901367,0,9.3300781,6.75,17.3198242,15.7294922,19.0595703,3.5800781,5.4003906,9.6000977,8.6801758,16.1601562,8.6801758.1899414,0,.3701172,0,.5600586-.0097656.2900391-.0102539.5698242-.0302734.8500977-.0703125.2197266-.0297852.4399414-.0698242.6499023-.1298828.050293,0,.1000977-.0200195.1499023-.0297852.1899414-.050293.3603516-.1000977.5400391-.1699219.0898438-.0205078.1801758-.0600586.2700195-.090332.0200195-.0097656.0400391-.0097656.0600586-.0200195,1.2099609-.4296875,2.3198242-1.0898438,3.4702148-1.7900391.4799805-.2998047.9897461-.6098633,1.5600586-.9399414.5698242.3300781,1.0795898.6401367,1.5595703.9399414,1.2299805.75,2.4199219,1.4702148,3.7402344,1.9003906.1899414.0595703.3901367.1196289.6000977.1699219.0698242.0200195.1298828.0297852.199707.0498047.2001953.0498047.4003906.0800781.6000977.1098633.2797852.0400391.5600586.0600586.8500977.0703125.1796875.0097656.3701172.0097656.5498047.0097656,4.6000977,0,8.9301758-1.6098633,12.340332-4.4199219,1.4599609-1.2099609,2.7597656-2.6401367,3.8295898-4.2602539,2.4301758-.4697266,4.6801758-1.3999023,6.6904297-2.6796875,5.4296875-3.4702148,9.0297852-9.5703125,9.0297852-16.3798828,0-.2900391,0-.590332-.0200195-.8901367,2.8798828-3.4799805,4.4501953-7.800293,4.4501953-12.3701172ZM77.1352539,239.7255707c-.4702148.2700195-.9003906.5297852-1.300293.7602539-.1499023.0996094-.2900391.1899414-.4301758.2695312-.7900391.4804688-1.7695312,1.0800781-2.0595703,1.1401367h-.3203125c-4.2797852,0-8.1699219-2.3798828-10.1396484-6.2099609l-.2304688-.449707-.7900391-1.5302734-1.7895508-.1401367-.4301758-.0297852c-5.8901367-.4702148-10.5097656-5.4702148-10.5097656-11.3798828,0-.4902344.0498047-1.0200195.1396484-1.6801758l.300293-2.0102539-1.4501953-1.4296875c-2.2001953-2.1699219-3.4101562-5.0600586-3.4101562-8.1401367s1.2099609-5.9799805,3.4204102-8.1401367l1.449707-1.4399414-.2998047-2.0200195c-.1000977-.659668-.1499023-1.2099609-.1499023-1.7197266,0-3.9702148,2.0698242-7.5200195,5.2197266-9.5600586,1.5600586-1.0200195,3.3798828-1.6601562,5.3398438-1.8100586l2.1904297-.1601562,1.0395508-1.9399414c.4204102-.7797852.9204102-1.5097656,1.4799805-2.1699219,1.2900391-1.4897461,2.9404297-2.6499023,4.8100586-3.3398438,1.2802734-.4702148,2.590332-.7099609,3.8203125-.7099609.1000977,0,.199707,0,.3100586.0097656.2900391.0698242,1.1298828.6000977,1.8095703,1.0200195.5703125.3500977,1.2202148.7602539,1.9804688,1.1899414v61.6201172ZM114.1352539,217.0356293l-1.4501953,1.4296875.2998047,2.0102539c.1000977.6601562.1401367,1.1899414.1401367,1.6801758,0,5.909668-4.6098633,10.909668-10.5,11.3798828l-2.2202148.1699219-1.0195312,1.9799805c-.2402344.4599609-.5.8999023-.800293,1.3198242-2.1201172,3.050293-5.5800781,4.8901367-9.3500977,4.8901367h-.2797852c-.3198242-.0600586-1.3100586-.659668-2.1000977-1.1401367-.5097656-.3095703-1.0800781-.659668-1.7197266-1.0297852v-61.6201172c.75-.4296875,1.3999023-.8398438,1.9794922-1.1899414.6801758-.4199219,1.5205078-.9501953,1.7104492-1.0097656,1.4199219-.0600586,2.8398438.1796875,4.2299805.6899414,2.6899414,1,4.9199219,2.9599609,6.2797852,5.5097656l1.0400391,1.9399414,2.1899414.1601562c4.5498047.3398438,8.3398438,3.3701172,9.8500977,7.4399414.4599609,1.2299805.7099609,2.550293.7099609,3.9301758,0,.5097656-.0400391,1.0600586-.1401367,1.7197266l-.3100586,2.0200195.4101562.4101562,1.050293,1.0297852c2.199707,2.1601562,3.4199219,5.0600586,3.4199219,8.1401367s-1.2099609,5.9702148-3.4199219,8.1401367Z"/>
      <circle class="st0" cx="105.1352539" cy="208.8954926" r="4"/>
      <path class="st0" d="M104.3647461,198.8857269c-.0698242.0898438-.1499023.1796875-.2294922.2597656-1.5302734,1.590332-4.0600586,1.6303711-5.6503906.090332-.3701172-.3603516-.6499023-.7705078-.8496094-1.2099609-.6704102-1.4501953-.4204102-3.2304688.7597656-4.4501953,1.5297852-1.5800781,4.0600586-1.6201172,5.6499023-.0898438,1.5102539,1.4599609,1.6201172,3.7998047.3198242,5.3999023Z"/>
      <path class="st0" d="M103.9248047,224.4155121c-1.659668,1.4702148-4.1796875,1.3203125-5.6499023-.3300781-1.4697266-1.6499023-1.3198242-4.1796875.3300781-5.6499023,1.6601562-1.4599609,4.1801758-1.3100586,5.6499023.340332,1.4702148,1.6499023,1.3203125,4.1796875-.3300781,5.6396484Z"/>
    </g>
    <g>
      <g>
        <path class="st0" d="M193.125,100.8754654l-2.8300781-7.5898438-8.4897461-22.7597656h-8.7802734l-9.7597656,26.3896484-2.2802734,6.1699219h9.5800781l1.6098633-5.6396484h10.1704102l1.5097656,5.1396484.1499023.5h9.9399414l-.8198242-2.2099609ZM177.1948242,79.8456802l3.1303711,10.699707h-6.1801758l3.0498047-10.699707Z"/>
        <path class="st0" d="M196.9448242,70.525856v32.5595703h8.9501953v-32.5595703h-8.9501953Z"/>
      </g>
      <g>
        <path class="st0" d="M229.9550781,64.3456802l-2.9902344,2.9897461-3.0297852,3.0200195c-1.9702148-4.6196289-4.8300781-8.8500977-8.4799805-12.5097656-7.5800781-7.5698242-17.6699219-11.7402344-28.4399414-11.7402344h-.2700195c-11.2900391.0703125-21.550293,4.75-28.9902344,12.2299805-2.2998047,2.3203125-4.3398438,4.9003906-6.0400391,7.7099609-3.3100586,5.4199219-5.409668,11.6601562-5.8999023,18.3203125l10.0703125-10.0703125,5.6499023,5.6601562-11.1401367,11.1499023-6.6801758,6.6801758-2.2998047,2.2998047-2.2700195-2.2700195-.4399414-.4399414-6.9199219-6.9199219-1.6499023-1.6499023-8.8500977-8.8500977,5.659668-5.6601562,10.8100586,10.8100586c.3203125-6.8696289,2.0800781-13.3999023,4.9702148-19.2700195,1.3701172-2.7998047,3-5.449707,4.8598633-7.9199219,8.9599609-11.9199219,23.1699219-19.7099609,39.1098633-19.8100586,13.0400391-.0795898,25.25,4.9204102,34.4101562,14.0800781,3.6201172,3.6201172,6.5898438,7.7202148,8.8500977,12.1601562Z"/>
        <path class="st0" d="M251.2851562,91.7553482l-5.6499023,5.6601562-4.8100586-4.8100586-5.6503906-5.6499023c-.1499023,11.3300781-4.1796875,21.7802734-10.8198242,30.0600586-2.3598633,2.9399414-5.0400391,5.6098633-8,7.949707-8.3300781,6.5903244-18.8100586,10.5703049-30.1699219,10.6401291h-.3203125c-12.909668,0-25.0097656-4.9897461-34.0898438-14.0795898-4.0400391-4.0400391-7.2700195-8.6801758-9.6098633-13.7104492l2.0297852-2.0297852,1.0102539-1.0097656,3.0698242-3.0703125c.5102539,1.3398438,1.0800781,2.6601562,1.7299805,3.9399414.2700195.5200195.550293,1.0400391.840332,1.5600586.1499023.2597656.2998047.5200195.449707.7802734.2900391.5.6000977.9794922.9199219,1.4599609.1401367.2197266.2900391.449707.4399414.659668.2001953.300293.4003906.590332.6103516.8701172.1098633.1601562.2197266.3198242.3496094.4702148.6000977.8198242,1.2402344,1.6196289,1.9301758,2.3999023.25.2900391.5.5800781.7700195.8598633.3598633.3901367.7299805.7802734,1.1098633,1.1601562,7.6401367,7.6396484,17.840332,11.7998047,28.7104492,11.7397461.3696289,0,.7397461-.0097656,1.1098633-.0200195.5898438-.0200195,1.1796875-.0498047,1.7597656-.0996094.1499023-.0102539.300293-.0205078.4501953-.0400391.3598633-.0302734.7299805-.0600586,1.0898438-.1103516.25-.0200195.5-.0498047.75-.0898438.2299805-.0302734.4599609-.0600586.6899414-.1000977.2099609-.0297852.4199219-.0600586.6298828-.0898438.3901367-.0698242.7802734-.1401367,1.1601562-.2202148.3603516-.0698242.7099609-.1396484,1.0600586-.2197266s.7001953-.1601562,1.0400391-.25c4.3701172-1.0898438,8.4599609-2.8901367,12.1601562-5.2700195.2797852-.1699219.5498047-.3500977.8198242-.5400391,1.2998047-.8701172,2.5498047-1.8198242,3.7402344-2.840332.2695312-.2197266.5297852-.449707.7900391-.6894531.1899414-.1704102.3896484-.3500977.5795898-.5205078.8300781-.7797852,1.6201172-1.5795898,2.3901367-2.4199219.3598633-.3896484.7099609-.7900391,1.0498047-1.199707.1303711-.1401367.25-.300293.3701172-.4501953.3500977-.409668.6801758-.8300781,1-1.2597656.0102539,0,.0102539-.0102539.0102539-.0102539.3100586-.4101562.6098633-.8198242.8999023-1.2397461.0898438-.1201172.1699219-.2299805.25-.3500977,1.0600586-1.5400391,2.0200195-3.1601562,2.8598633-4.8398438.1499023-.2900391.2900391-.5703125.4199219-.8603516.1401367-.2797852.2802734-.5698242.4101562-.8701172.1201172-.2797852.25-.5698242.3598633-.8496094.1298828-.300293.2602539-.6000977.3701172-.9101562.1801758-.4399414.3398438-.8901367.5-1.3398438.0698242-.1801758.1298828-.3603516.1899414-.550293.1499023-.4399414.300293-.8901367.4301758-1.3500977.0297852-.0996094.0600586-.199707.0898438-.2998047.1499023-.5297852.2998047-1.0698242.4301758-1.6201172,0,0,.0097656-.0097656.0097656-.0200195.1303711-.5395508.2602539-1.1000977.3701172-1.6499023.1298828-.6396484.2397461-1.2797852.3300781-1.9199219.0498047-.2998047.1000977-.6000977.1298828-.9101562.0400391-.2900391.0800781-.5800781.1098633-.8798828.0400391-.3999023.0800781-.7998047.1103516-1.2099609.0200195-.2299805.0400391-.4599609.0498047-.6899414.0400391-.6201172.0600586-1.2402344.0698242-1.8701172l-10.4799805,10.4799805-.3398438-.3398438-5.3198242-5.3203125,15.0200195-15.0195312,3.2597656-3.25,1.8500977-1.8500977,2.4897461,2.4897461,6.4804688,6.4799805.8295898.8300781s10.3203125,10.3198242,10.3203125,10.3198318Z"/>
      </g>
    </g>
    <path class="st0" d="M195.2548828,140.8056488h-.0200195c-.0097656,0-.0297852.0097656-.0400391.0097656-14.9399414,3.6303711-34.7397461,5.6303711-55.8398438,5.6303711-21.3300781,0-41.3300781-2.0400391-56.3198242-5.7402344-16.9702148-4.1899414-20.6801758-8.8198242-20.6801758-10.25v-37.7001953c4.4301758,2.6704102,10.6899414,5.0102539,18.7597656,7,14.5302734,3.590332,33.4604492,5.6801758,53.7104492,5.9501953-.6201172-1.7299805-1.1401367-3.5-1.5800781-5.2900391l-2.800293-2.7998047c-17.949707-.4902344-34.5297852-2.4399414-47.409668-5.6201172-16.9702148-4.1899414-20.6801758-8.8300781-20.6801758-10.2597656v-.0703125c.1201172-1.5,3.9799805-6.0698242,20.6801758-10.1899414,14.2397461-3.5102539,33-5.5297852,53.1298828-5.7202148,1.1899414-2.7900391,2.6201172-5.4697266,4.25-8.0097656-.3500977-.0097656-.7099609-.0097656-1.0600586-.0097656-21.9501953,0-42.6298828,2.1196289-58.2402344,5.9697266-17.7099609,4.3798828-26.699707,10.4101562-26.7597656,17.9599609v88.5200195c2.2597656-2.4702148,4.9599609-4.4599609,8-5.8798828v-22.840332c4.4301758,2.6704102,10.6899414,5.0102539,18.7597656,7,15.6103516,3.8603516,36.2900391,5.9804688,58.2402344,5.9804688s42.6298828-2.1201172,58.2299805-5.9804688c8.0800781-1.9897461,14.3398438-4.3295898,18.7700195-7v35.8203125c0,1.2597656-3.7998047,5.7797852-20.6601562,9.8198242-15,3.590332-35.0097656,5.5703125-56.3398438,5.5703125-4.2099609,0-8.3598633-.0800781-12.4301758-.2299805.090332.6796875.1503906,1.3798828.1801758,2.0800781,1.2802734,1.8598633,2.2998047,3.8896484,3.0400391,6.0195312,3.0297852.090332,6.1098633.1303711,9.2099609.1303711,21.9399414,0,42.6098633-2.0600586,58.2001953-5.7900391,8.0898438-1.9399414,14.3598633-4.2099609,18.7998047-6.8300781v36.1499023c0,1.2597656-3.7998047,5.7802734-20.6601562,9.8203125-15,3.5898438-35.0097656,5.5698242-56.3398438,5.5698242-6.3901367,0-12.6499023-.1801758-18.7001953-.5302734-2.8999023,3.2602539-6.6499023,5.7802734-10.9399414,7.2001953,9.3500977.8798828,19.3500977,1.3300781,29.6401367,1.3300781,21.9399414,0,42.6098633-2.0600586,58.2001953-5.7900391,17.7797852-4.2602539,26.7998047-10.1801758,26.7998047-17.6000977v-98.3100586c-7.8398438,7.6303711-17.9101562,12.9702148-29.1000977,14.9101562Z"/>
  </g>
</svg>