<?xml version="1.0" encoding="UTF-8"?>
<svg id="Layer_1" data-name="Layer 1" xmlns="http://www.w3.org/2000/svg" viewBox="0 0 42 40.52">
  <metadata><?xpacket begin="﻿" id="W5M0MpCehiHzreSzNTczkc9d"?>
<x:xmpmeta xmlns:x="adobe:ns:meta/" x:xmptk="Adobe XMP Core 7.1-c000 79.4d2f597, 2021/09/01-20:51:22        ">
   <rdf:RDF xmlns:rdf="http://www.w3.org/1999/02/22-rdf-syntax-ns#">
      <rdf:Description rdf:about=""
            xmlns:dc="http://purl.org/dc/elements/1.1/"
            xmlns:xmpRights="http://ns.adobe.com/xap/1.0/rights/"
            xmlns:xmp="http://ns.adobe.com/xap/1.0/"
            xmlns:xmpMM="http://ns.adobe.com/xap/1.0/mm/"
            xmlns:stEvt="http://ns.adobe.com/xap/1.0/sType/ResourceEvent#">
         <dc:rights>
            <rdf:Alt>
               <rdf:li xml:lang="x-default">Oracle All Rights</rdf:li>
            </rdf:Alt>
         </dc:rights>
         <dc:subject>
            <rdf:Bag>
               <rdf:li>MySQL</rdf:li>
               <rdf:li>idea</rdf:li>
               <rdf:li>fire</rdf:li>
               <rdf:li>speedometer</rdf:li>
               <rdf:li>flame</rdf:li>
               <rdf:li>icon</rdf:li>
            </rdf:Bag>
         </dc:subject>
         <xmpRights:Marked>True</xmpRights:Marked>
         <xmp:MetadataDate>2024-07-05T18:09:40-06:00</xmp:MetadataDate>
         <xmpMM:InstanceID>xmp.iid:16f57c14-ee5f-4aa0-8c5d-88a18446ad11</xmpMM:InstanceID>
         <xmpMM:DocumentID>xmp.did:14a17344-ec67-42df-a44f-74db39ad99a3</xmpMM:DocumentID>
         <xmpMM:OriginalDocumentID>xmp.did:14a17344-ec67-42df-a44f-74db39ad99a3</xmpMM:OriginalDocumentID>
         <xmpMM:History>
            <rdf:Seq>
               <rdf:li>
                  <rdf:Description>
                     <stEvt:action>saved</stEvt:action>
                     <stEvt:instanceID>xmp.iid:14a17344-ec67-42df-a44f-74db39ad99a3</stEvt:instanceID>
                     <stEvt:when>2024-07-05T18:05:08-06:00</stEvt:when>
                     <stEvt:softwareAgent>Adobe Bridge 2023</stEvt:softwareAgent>
                     <stEvt:changed>/metadata</stEvt:changed>
                  </rdf:Description>
               </rdf:li>
               <rdf:li>
                  <rdf:Description>
                     <stEvt:action>saved</stEvt:action>
                     <stEvt:instanceID>xmp.iid:16f57c14-ee5f-4aa0-8c5d-88a18446ad11</stEvt:instanceID>
                     <stEvt:when>2024-07-05T18:09:40-06:00</stEvt:when>
                     <stEvt:softwareAgent>Adobe Bridge 2023</stEvt:softwareAgent>
                     <stEvt:changed>/metadata</stEvt:changed>
                  </rdf:Description>
               </rdf:li>
            </rdf:Seq>
         </xmpMM:History>
      </rdf:Description>
   </rdf:RDF>
</x:xmpmeta>
                                                                                                    
                                                                                                    
                                                                                                    
                                                                                                    
                                                                                                    
                                                                                                    
                                                                                                    
                                                                                                    
                                                                                                    
                                                                                                    
                                                                                                    
                                                                                                    
                 
<?xpacket end="w"?></metadata>
<defs>
    <style>
      .cls-1 {
        fill: #fff;
      }

      .cls-2 {
        fill: #2d5967;
      }
    </style>
  </defs>
  <path class="cls-1" d="m42,8.22v3.61h-4.42c-.23.87-.6,1.52-.89,2.04l-.03.05c-.33.58-.47.85-.47,1.3v3.21l-.54.28-2.56,1.34h.69v14.84h-9.22v-1.32c-.37.92-.84,1.79-1.41,2.6v1.06l-1.26-.36-1.55-.42c-.46,1.39-1.31,2.68-2.53,3.66l-.22.18-.27.23h-9l-.27-.23-.22-.18c-.25-.2-.48-.41-.71-.64-.86-.88-1.48-1.93-1.84-3.07l-1.65.45-.65.19-.41-.55c-.13-.17-.25-.32-.37-.48-1.44-1.89-2.2-3.06-2.2-7.18,0-4.5,2.07-10.89,4.61-14.23l.54-.72.68-.91.82.79,3.16,3.07,3.02-8.29.48-1.32,1.1.89.88.73c3.44,2.85,10.19,11.94,10.19,19.99,0,.83-.09,1.65-.25,2.45h4.95v-11.23h.68l-2.56-1.34-.53-.28v-3.21c0-.45-.15-.72-.49-1.33-.07-.13-.15-.23-.22-.33-.33-.46-.6-.91-.76-1.73h-4.35v-3.61h4.5c.1-.28.22-.55.36-.82l-.36-.35-2.13-2.13-.7-.71.7-.71,1.14-1.13.7-.71.71.71,2.5,2.5c.26-.13.53-.25.81-.34V0h3.6v4.48c.3.09.58.21.86.35l.33-.33,2.12-2.12.71-.71,1.84,1.84.71.71-.71.7-2.13,2.13-.32.33c.13.27.25.55.35.84h4.46Z"/>
  <g>
    <rect class="cls-2" x="25.56" y="32.28" width="1.6" height="1.6"/>
    <g>
      <rect class="cls-2" x="37.99" y="9.22" width="3.01" height="1.6"/>
      <rect class="cls-2" x="22.95" y="9.22" width="3.01" height="1.6"/>
      <rect class="cls-2" x="35.8" y="3.91" width="3.01" height="1.6" transform="translate(7.59 27.76) rotate(-45)"/>
      <rect class="cls-2" x="31.18" y="1" width="1.6" height="3.01"/>
      <rect class="cls-2" x="25.86" y="3.2" width="1.6" height="3.01" transform="translate(4.48 20.23) rotate(-45)"/>
      <path class="cls-2" d="m32.04,5.21c-2.65,0-4.87,2.19-4.87,4.75s.54,2.65.98,3.43c.34.6.62,1.08.62,1.82v2.61l3.21,1.68,3.21-1.68v-2.61c0-.74.28-1.22.62-1.82.44-.78,1-1.76,1-3.43,0-2.63-2.13-4.75-4.75-4.75h-.02Zm1.54,11.67l-1.6.84-1.6-.84v-.84h3.21v.84Zm.82-4.27c-.28.52-.6,1.08-.74,1.82h-.88v-2.61h-1.6v2.61h-.88c-.14-.74-.46-1.3-.74-1.82-.4-.72-.78-1.4-.78-2.65s1.3-3.15,3.27-3.15,3.15,1.64,3.15,3.15-.38,1.92-.78,2.65h0Z"/>
      <rect class="cls-2" x="31.18" y="32.28" width="1.6" height="1.6"/>
      <rect class="cls-2" x="28.37" y="32.28" width="1.6" height="1.6"/>
      <rect class="cls-2" x="31.18" y="29.47" width="1.6" height="1.6"/>
      <rect class="cls-2" x="31.18" y="26.67" width="1.6" height="1.6"/>
      <rect class="cls-2" x="31.18" y="23.86" width="1.6" height="1.6"/>
      <rect class="cls-2" x="31.18" y="21.05" width="1.6" height="1.6"/>
    </g>
    <path class="cls-2" d="m18.44,29.96l2.89-3.83-.58-.62-3.87,2.87-.08-.06c-2.71-1.92-6.4-1.62-8.78.68-2.75,2.65-2.85,7.04-.18,9.78.2.2.4.38.62.56l.22.18h8.28l.22-.18c2.83-2.29,3.39-6.4,1.3-9.34v-.04h-.04Zm-.42,4.89c-.14.82-.46,1.58-.96,2.27l-.94-.94-1.16,1.16.56.56h-5.45l.58-.56-1.16-1.16-.92.94c-.5-.66-.82-1.42-.96-2.25h1.32v-1.66h-1.3c.12-.84.44-1.62.94-2.33l.94.96,1.16-1.16-.96-.96c.66-.5,1.44-.82,2.27-.96v1.42h1.64v-1.44c.66.1,1.32.32,1.9.66l-2.59,1.9h-.04c-.76,0-1.48.32-1.96.9-.1.12-.2.24-.26.36-.66,1.1-.42,2.49.54,3.31.46.4,1.06.62,1.66.62h.04c.44,0,.86-.1,1.24-.32.84-.46,1.34-1.34,1.34-2.29l1.94-2.57c.34.58.56,1.2.64,1.86h-1.44v1.64h1.42l-.04.02Zm-4.29-.92c0,.44-.36.8-.8.8s-.8-.36-.8-.8.36-.8.8-.8.8.36.8.8Z"/>
    <path class="cls-2" d="m14.65,9.61l-.88-.72-3.55,9.74-4.27-4.15-.54.72c-2.43,3.19-4.41,9.3-4.41,13.63s.84,5.03,2.37,7.06l1.74-.48c-.1-.52-.16-1.04-.16-1.56,0-4.35,3.55-7.9,7.9-7.9s3.13.5,4.39,1.32l1.4-1.12c-1.6-1.22-3.61-1.94-5.79-1.94-4.87,0-8.9,3.63-9.54,8.34-.46-1.18-.72-2.45-.72-3.73,0-3.65,1.58-8.84,3.55-11.91l4.73,4.59,3.61-9.88c3.03,3.03,8.4,10.55,8.4,17.2s-.2,2.25-.56,3.31c-.26-1.48-.88-2.85-1.74-4.01l-1.12,1.42c.82,1.24,1.28,2.73,1.28,4.31s-.1,1.1-.24,1.6l1.66.46s.02-.08.04-.12c1.48-2.01,2.29-4.45,2.29-6.96,0-7.74-6.52-16.48-9.82-19.23h0Z"/>
  </g>
</svg>