<?xml version="1.0" encoding="UTF-8"?>
<svg id="Layer_1" data-name="Layer 1" xmlns="http://www.w3.org/2000/svg" viewBox="0 0 42.08 38.01">
  <metadata><?xpacket begin="﻿" id="W5M0MpCehiHzreSzNTczkc9d"?>
<x:xmpmeta xmlns:x="adobe:ns:meta/" x:xmptk="Adobe XMP Core 7.1-c000 79.4d2f597, 2021/09/01-20:51:22        ">
   <rdf:RDF xmlns:rdf="http://www.w3.org/1999/02/22-rdf-syntax-ns#">
      <rdf:Description rdf:about=""
            xmlns:dc="http://purl.org/dc/elements/1.1/"
            xmlns:xmpRights="http://ns.adobe.com/xap/1.0/rights/"
            xmlns:xmp="http://ns.adobe.com/xap/1.0/"
            xmlns:xmpMM="http://ns.adobe.com/xap/1.0/mm/"
            xmlns:stEvt="http://ns.adobe.com/xap/1.0/sType/ResourceEvent#"
            xmlns:lr="http://ns.adobe.com/lightroom/1.0/">
         <dc:rights>
            <rdf:Alt>
               <rdf:li xml:lang="x-default">Oracle All Rights</rdf:li>
            </rdf:Alt>
         </dc:rights>
         <dc:subject>
            <rdf:Bag>
               <rdf:li>cloud</rdf:li>
               <rdf:li>guard</rdf:li>
               <rdf:li>containers</rdf:li>
               <rdf:li>shield</rdf:li>
               <rdf:li>protection</rdf:li>
               <rdf:li>security</rdf:li>
               <rdf:li>ship</rdf:li>
               <rdf:li>icon</rdf:li>
            </rdf:Bag>
         </dc:subject>
         <xmpRights:Marked>True</xmpRights:Marked>
         <xmp:MetadataDate>2024-07-05T18:11:05-06:00</xmp:MetadataDate>
         <xmpMM:InstanceID>xmp.iid:dfba96b5-608c-4235-a32a-82f0ecb4a0fd</xmpMM:InstanceID>
         <xmpMM:DocumentID>xmp.did:a7d0ee81-360f-48a8-95c9-2f613000bb02</xmpMM:DocumentID>
         <xmpMM:OriginalDocumentID>xmp.did:a7d0ee81-360f-48a8-95c9-2f613000bb02</xmpMM:OriginalDocumentID>
         <xmpMM:History>
            <rdf:Seq>
               <rdf:li>
                  <rdf:Description>
                     <stEvt:action>saved</stEvt:action>
                     <stEvt:instanceID>xmp.iid:a7d0ee81-360f-48a8-95c9-2f613000bb02</stEvt:instanceID>
                     <stEvt:when>2024-07-05T18:10:13-06:00</stEvt:when>
                     <stEvt:softwareAgent>Adobe Bridge 2023</stEvt:softwareAgent>
                     <stEvt:changed>/metadata</stEvt:changed>
                  </rdf:Description>
               </rdf:li>
               <rdf:li>
                  <rdf:Description>
                     <stEvt:action>saved</stEvt:action>
                     <stEvt:instanceID>xmp.iid:dfba96b5-608c-4235-a32a-82f0ecb4a0fd</stEvt:instanceID>
                     <stEvt:when>2024-07-05T18:11:05-06:00</stEvt:when>
                     <stEvt:softwareAgent>Adobe Bridge 2023</stEvt:softwareAgent>
                     <stEvt:changed>/metadata</stEvt:changed>
                  </rdf:Description>
               </rdf:li>
            </rdf:Seq>
         </xmpMM:History>
         <lr:hierarchicalSubject>
            <rdf:Bag>
               <rdf:li>Other Keywords|icon</rdf:li>
            </rdf:Bag>
         </lr:hierarchicalSubject>
      </rdf:Description>
   </rdf:RDF>
</x:xmpmeta>
                                                                                                    
                                                                                                    
                                                                                                    
                                                                                                    
                                                                                                    
                                                                                                    
                                                                                                    
                                                                                                    
                                                                                                    
           
<?xpacket end="w"?></metadata>
<defs>
    <style>
      .cls-1 {
        fill: #fff;
      }

      .cls-2 {
        fill: #2d5967;
      }
    </style>
  </defs>
  <path class="cls-1" d="m38.2,8.35l.02-.04-.76-.49c-.97-.61-2.03-1.05-3.14-1.29-.69-.15-1.19-.54-1.5-1.16-1.65-3.31-4.98-5.37-8.68-5.37-2.69,0-5.28,1.13-7.11,3.1-.38.41-.91.63-1.49.63-.07,0-.14,0-.21-.01-.25-.02-.5-.04-.74-.04-1.1,0-2.2.23-3.21.67-2.38,1.05-4.11,3.2-4.61,5.76-.13.63-.53,1.18-1.12,1.49C2.46,13.28.4,16.42.13,20l-.05.71-.08,1.07h9.88v2.18c.32,5.51,4.13,10.49,10.47,13.67l.3.15.45.23.45-.23.3-.15c6.34-3.18,10.16-8.16,10.47-13.67v-.03s0-.03,0-.03v-2.12h8.1l.28-.53.19-.35c2.32-4.3,1.12-9.65-2.7-12.57Z"/>
  <g id="Extras">
    <g>
      <path class="cls-2" d="m36.92,8.67c-.87-.55-1.82-.94-2.82-1.16s-1.75-.83-2.18-1.69c-1.48-2.97-4.47-4.81-7.78-4.81-2.41,0-4.73,1.01-6.38,2.78-.64.69-1.56,1.03-2.53.94-1.17-.11-2.37.08-3.45.56-2.08.92-3.59,2.8-4.03,5.03-.18.93-.78,1.73-1.64,2.18-2.88,1.51-4.74,4.35-4.98,7.58l-.05.71h8.82v-1.33H2.53c.4-2.48,1.93-4.61,4.19-5.79,1.22-.64,2.06-1.77,2.32-3.1.36-1.81,1.58-3.34,3.26-4.08.88-.39,1.84-.54,2.79-.45,1.38.13,2.7-.36,3.63-1.36,1.39-1.5,3.36-2.36,5.4-2.36,2.81,0,5.34,1.56,6.6,4.08.61,1.23,1.73,2.1,3.08,2.4.85.19,1.66.52,2.4.99,3.25,2.05,4.44,6.23,2.81,9.67h-6.65v1.33h7.45l.19-.35c2.22-4.11.86-9.28-3.1-11.77h0Z"/>
      <path class="cls-2" d="m10.88,14.32v9.59c.3,5.14,3.91,9.82,9.92,12.83l.3.15.3-.15c6.01-3.01,9.63-7.69,9.92-12.83v-9.59l-10.22-4.38-10.22,4.38h0Zm19.11,9.53c-.27,4.57-3.5,8.76-8.89,11.55-5.39-2.79-8.62-6.98-8.89-11.55v-8.66l8.89-3.81,8.89,3.81v8.66h0Z"/>
      <rect class="cls-2" x="17.56" y="16.32" width="2.98" height="2.98"/>
      <rect class="cls-2" x="21.59" y="16.32" width="2.98" height="2.98"/>
      <polygon class="cls-2" points="21.1 21.88 21.34 21.94 22.6 22.25 22.6 20.35 19.61 20.35 19.61 22.25 20.86 21.94 21.1 21.88"/>
      <polygon class="cls-2" points="26.62 20.35 23.64 20.35 23.64 22.51 26.62 23.25 26.62 20.35"/>
      <polygon class="cls-2" points="18.57 20.35 15.58 20.35 15.58 23.25 18.57 22.51 18.57 20.35"/>
      <path class="cls-2" d="m21.1,22.9l-6.81,1.69.16.64c.76,3.06,3.49,5.2,6.65,5.2s5.9-2.14,6.65-5.2l.16-.64-6.81-1.69Zm-5.17,2.65l4.51-1.12v4.64c-2.04-.24-3.78-1.6-4.51-3.52h0Zm5.83,3.52v-4.64l4.51,1.12c-.73,1.92-2.46,3.27-4.51,3.52h0Z"/>
    </g>
  </g>
</svg>