<?xml version="1.0" encoding="UTF-8"?>
<svg id="Extras" xmlns="http://www.w3.org/2000/svg" version="1.1" viewBox="0 0 31.21 42">
  <!-- Generator: Adobe Illustrator 29.0.0, SVG Export Plug-In . SVG Version: 2.1.0 Build 186)  -->
  <defs>
    <style>
      .st0 {
        fill: #fff;
      }

      .st1 {
        fill: #2d5967;
      }
    </style>
  </defs>
  <path class="st0" d="M3.02,0h25.17C29.86,0,31.21,1.35,31.21,3.02v35.96c0,1.67-1.35,3.02-3.02,3.02H3.02c-1.67,0-3.02-1.35-3.02-3.02V3.02C0,1.35,1.35,0,3.02,0Z"/>
  <g>
    <path class="st1" d="M15.61,18.01c2.44,0,4.42-1.98,4.42-4.42s-1.98-4.42-4.42-4.42-4.42,1.98-4.42,4.42,1.98,4.42,4.42,4.42ZM15.61,10.96c1.45,0,2.62,1.18,2.62,2.62s-1.18,2.62-2.62,2.62-2.62-1.18-2.62-2.62,1.18-2.62,2.62-2.62Z"/>
    <path class="st1" d="M18.95,19.48h-6.68c-1.58,0-2.87,1.28-2.87,2.87v1.32c.43.74.96,1.45,1.58,2.13h.22v-3.44c0-.6.48-1.08,1.08-1.08h6.67c.6,0,1.08.48,1.08,1.08v3.44h.19c.63-.69,1.16-1.41,1.61-2.15v-1.29c0-1.58-1.28-2.87-2.87-2.87Z"/>
    <path class="st1" d="M4.82,19.23v.05c.31,5.41,4.08,10.32,10.35,13.46l.4.2.4-.2c6.31-3.16,10.11-8.07,10.41-13.46v-10.13s-10.82-4.64-10.82-4.64l-10.75,4.71v10ZM6.62,10.4l8.96-3.93,9.01,3.86v8.87c-.27,4.61-3.55,8.87-9.02,11.72-5.43-2.84-8.68-7.09-8.96-11.72v-8.8Z"/>
    <path class="st1" d="M28.19,1H3.02C1.91,1,1,1.91,1,3.02v35.96c0,1.12.91,2.02,2.02,2.02h25.17c1.12,0,2.02-.91,2.02-2.02V3.02c0-1.12-.91-2.02-2.02-2.02ZM28.42,38.98c0,.12-.1.22-.22.22H3.02c-.12,0-.22-.1-.22-.22V3.02c0-.12.1-.22.22-.22h25.17c.12,0,.22.1.22.22v35.96Z"/>
    <rect class="st1" x="13.36" y="36.06" width="4.49" height="1.8"/>
  </g>
</svg>