<svg id="Layer_1" data-name="Layer 1" xmlns="http://www.w3.org/2000/svg" viewBox="0 0 43.67 42"><defs><style>.cls-1{fill:#fff;}.cls-2{fill:#2c5967;}</style></defs><title>OKE Development Environment</title><metadata><?xpacket begin="﻿" id="W5M0MpCehiHzreSzNTczkc9d"?>
<x:xmpmeta xmlns:x="adobe:ns:meta/" x:xmptk="Adobe XMP Core 6.0-c006 79.164648, 2021/01/12-15:52:29        ">
   <rdf:RDF xmlns:rdf="http://www.w3.org/1999/02/22-rdf-syntax-ns#">
      <rdf:Description rdf:about=""
            xmlns:xmpRights="http://ns.adobe.com/xap/1.0/rights/"
            xmlns:xmp="http://ns.adobe.com/xap/1.0/"
            xmlns:xmpMM="http://ns.adobe.com/xap/1.0/mm/"
            xmlns:stEvt="http://ns.adobe.com/xap/1.0/sType/ResourceEvent#"
            xmlns:dc="http://purl.org/dc/elements/1.1/"
            xmlns:lr="http://ns.adobe.com/lightroom/1.0/">
         <xmpRights:Marked>True</xmpRights:Marked>
         <xmp:MetadataDate>2021-07-22T15:14:23-05:00</xmp:MetadataDate>
         <xmpMM:InstanceID>xmp.iid:2833ff34-af8b-441b-8623-c7c9f0b0ecfe</xmpMM:InstanceID>
         <xmpMM:DocumentID>xmp.did:6d828522-682b-411e-9ad7-19a00768ce00</xmpMM:DocumentID>
         <xmpMM:OriginalDocumentID>xmp.did:6d828522-682b-411e-9ad7-19a00768ce00</xmpMM:OriginalDocumentID>
         <xmpMM:History>
            <rdf:Seq>
               <rdf:li>
                  <rdf:Description>
                     <stEvt:action>saved</stEvt:action>
                     <stEvt:instanceID>xmp.iid:6d828522-682b-411e-9ad7-19a00768ce00</stEvt:instanceID>
                     <stEvt:when>2021-06-23T15:54:01-05:00</stEvt:when>
                     <stEvt:softwareAgent>Adobe Bridge 2021 (Macintosh)</stEvt:softwareAgent>
                     <stEvt:changed>/metadata</stEvt:changed>
                  </rdf:Description>
               </rdf:li>
               <rdf:li>
                  <rdf:Description>
                     <stEvt:action>saved</stEvt:action>
                     <stEvt:instanceID>xmp.iid:2833ff34-af8b-441b-8623-c7c9f0b0ecfe</stEvt:instanceID>
                     <stEvt:when>2021-07-22T15:14:23-05:00</stEvt:when>
                     <stEvt:softwareAgent>Adobe Bridge 2021 (Macintosh)</stEvt:softwareAgent>
                     <stEvt:changed>/metadata</stEvt:changed>
                  </rdf:Description>
               </rdf:li>
            </rdf:Seq>
         </xmpMM:History>
         <dc:title>
            <rdf:Alt>
               <rdf:li xml:lang="x-default">OKE Development Environment</rdf:li>
            </rdf:Alt>
         </dc:title>
         <dc:rights>
            <rdf:Alt>
               <rdf:li xml:lang="x-default">Oracle All Rights Reserved</rdf:li>
            </rdf:Alt>
         </dc:rights>
         <dc:subject>
            <rdf:Bag>
               <rdf:li>icon</rdf:li>
               <rdf:li>technology</rdf:li>
               <rdf:li>OKE</rdf:li>
            </rdf:Bag>
         </dc:subject>
         <lr:hierarchicalSubject>
            <rdf:Bag>
               <rdf:li>icon</rdf:li>
               <rdf:li>technology</rdf:li>
               <rdf:li>OKE</rdf:li>
            </rdf:Bag>
         </lr:hierarchicalSubject>
      </rdf:Description>
   </rdf:RDF>
</x:xmpmeta>
                                                                                                    
                                                                                                    
                                                                                                    
                                                                                                    
                                                                                                    
                                                                                                    
                                                                                                    
                                                                                                    
                                                                    
<?xpacket end="w"?></metadata>
<path class="cls-1" d="M.5,41.5V25.92H2.17v-23A2.38,2.38,0,0,1,4.54.5H40.79a2.39,2.39,0,0,1,2.38,2.38V39.13a2.38,2.38,0,0,1-2.38,2.37Z"/><path class="cls-1" d="M40.79,1a1.88,1.88,0,0,1,1.88,1.88V39.13A1.88,1.88,0,0,1,40.79,41H1V26.42H2.67V2.88A1.88,1.88,0,0,1,4.54,1H40.79m0-1H4.54A2.88,2.88,0,0,0,1.67,2.88V25.42H0V42H40.79a2.88,2.88,0,0,0,2.88-2.87V2.88A2.88,2.88,0,0,0,40.79,0Z"/><path class="cls-2" d="M40.79,1H4.54A1.88,1.88,0,0,0,2.67,2.88V25.17H4.33V9.33H41v29.8a.2.2,0,0,1-.21.2H25.17V41H40.79a1.88,1.88,0,0,0,1.88-1.87V2.88A1.88,1.88,0,0,0,40.79,1ZM4.33,7.67V2.88a.21.21,0,0,1,.21-.21H40.79a.21.21,0,0,1,.21.21V7.67Z"/><circle class="cls-2" cx="7.15" cy="5.31" r="1.04"/><circle class="cls-2" cx="10.83" cy="5.31" r="1.04"/><circle class="cls-2" cx="14.44" cy="5.31" r="1.04"/><polygon class="cls-2" points="33.92 18.29 26.63 14.54 26.63 16 31.21 18.5 26.63 20.79 26.63 22.25 33.92 18.71 33.92 18.29"/><polygon class="cls-2" points="11.42 18.71 18.71 22.25 18.71 20.79 14.13 18.5 18.71 16 18.71 14.54 11.42 18.29 11.42 18.71"/><polygon class="cls-2" points="23.71 14.54 19.96 22.25 21.63 22.25 25.38 14.54 23.71 14.54"/><path class="cls-2" d="M23.92,26.42H1V41H23.92ZM4.54,39.33H2.67V28.08H22.25V39.33Z"/><path class="cls-2" d="M9.14,36a3.07,3.07,0,0,0,.68-2.15,3.1,3.1,0,0,0-.68-2.14A2.49,2.49,0,0,0,7.2,30.9a2.45,2.45,0,0,0-1.93.77,3.06,3.06,0,0,0-.69,2.14A3.11,3.11,0,0,0,5.26,36a2.47,2.47,0,0,0,1.94.76A2.45,2.45,0,0,0,9.14,36Zm-3-.75a3,3,0,0,1,0-2.8,1.18,1.18,0,0,1,1-.48,1.21,1.21,0,0,1,1,.48,3.05,3.05,0,0,1,0,2.8,1.19,1.19,0,0,1-1,.49A1.16,1.16,0,0,1,6.16,35.21Z"/><polygon class="cls-2" points="10.72 31.01 10.72 36.61 11.93 36.61 11.93 34.26 12.27 34.26 14.01 36.61 15.5 36.61 13.15 33.49 15.28 31.01 13.86 31.01 11.93 33.37 11.93 31.01 10.72 31.01"/><polygon class="cls-2" points="17.27 34.29 19.49 34.29 19.49 33.28 17.27 33.28 17.27 32.03 19.71 32.03 19.71 31.01 16.07 31.01 16.07 36.61 19.79 36.61 19.79 35.6 17.27 35.6 17.27 34.29"/></svg>