<?xml version="1.0" encoding="UTF-8"?>
<svg id="Layer_1" data-name="Layer 1" xmlns="http://www.w3.org/2000/svg" viewBox="0 0 36.37 42">
  <metadata><?xpacket begin="﻿" id="W5M0MpCehiHzreSzNTczkc9d"?>
<x:xmpmeta xmlns:x="adobe:ns:meta/" x:xmptk="Adobe XMP Core 7.1-c000 79.4d2f597, 2021/09/01-20:51:22        ">
   <rdf:RDF xmlns:rdf="http://www.w3.org/1999/02/22-rdf-syntax-ns#">
      <rdf:Description rdf:about=""
            xmlns:dc="http://purl.org/dc/elements/1.1/"
            xmlns:xmpRights="http://ns.adobe.com/xap/1.0/rights/"
            xmlns:xmp="http://ns.adobe.com/xap/1.0/"
            xmlns:xmpMM="http://ns.adobe.com/xap/1.0/mm/"
            xmlns:stEvt="http://ns.adobe.com/xap/1.0/sType/ResourceEvent#">
         <dc:rights>
            <rdf:Alt>
               <rdf:li xml:lang="x-default">Oracle All Rights</rdf:li>
            </rdf:Alt>
         </dc:rights>
         <dc:subject>
            <rdf:Bag>
               <rdf:li>cloud</rdf:li>
               <rdf:li>gear</rdf:li>
               <rdf:li>shape</rdf:li>
               <rdf:li>square</rdf:li>
               <rdf:li>triangle</rdf:li>
               <rdf:li>hexagon</rdf:li>
               <rdf:li>circle</rdf:li>
               <rdf:li>square</rdf:li>
               <rdf:li>icon</rdf:li>
            </rdf:Bag>
         </dc:subject>
         <xmpRights:Marked>True</xmpRights:Marked>
         <xmp:MetadataDate>2024-07-05T18:09:40-06:00</xmp:MetadataDate>
         <xmpMM:InstanceID>xmp.iid:bd876ee8-b446-4077-b021-cc0d9354f40d</xmpMM:InstanceID>
         <xmpMM:DocumentID>xmp.did:0924532b-1bb7-4d2f-8415-246c2fbefbe3</xmpMM:DocumentID>
         <xmpMM:OriginalDocumentID>xmp.did:0924532b-1bb7-4d2f-8415-246c2fbefbe3</xmpMM:OriginalDocumentID>
         <xmpMM:History>
            <rdf:Seq>
               <rdf:li>
                  <rdf:Description>
                     <stEvt:action>saved</stEvt:action>
                     <stEvt:instanceID>xmp.iid:0924532b-1bb7-4d2f-8415-246c2fbefbe3</stEvt:instanceID>
                     <stEvt:when>2024-07-05T18:05:08-06:00</stEvt:when>
                     <stEvt:softwareAgent>Adobe Bridge 2023</stEvt:softwareAgent>
                     <stEvt:changed>/metadata</stEvt:changed>
                  </rdf:Description>
               </rdf:li>
               <rdf:li>
                  <rdf:Description>
                     <stEvt:action>saved</stEvt:action>
                     <stEvt:instanceID>xmp.iid:bd876ee8-b446-4077-b021-cc0d9354f40d</stEvt:instanceID>
                     <stEvt:when>2024-07-05T18:09:40-06:00</stEvt:when>
                     <stEvt:softwareAgent>Adobe Bridge 2023</stEvt:softwareAgent>
                     <stEvt:changed>/metadata</stEvt:changed>
                  </rdf:Description>
               </rdf:li>
            </rdf:Seq>
         </xmpMM:History>
      </rdf:Description>
   </rdf:RDF>
</x:xmpmeta>
                                                                                                    
                                                                                                    
                                                                                                    
                                                                                                    
                                                                                                    
                                                                                                    
                                                                                                    
                                                                                                    
                                                                                                    
                                                                                                    
                                                                                                    
 
<?xpacket end="w"?></metadata>
<defs>
    <style>
      .cls-1 {
        fill: #fff;
      }

      .cls-2 {
        fill: #2d5967;
      }
    </style>
  </defs>
  <path class="cls-1" d="m34.45,12.63c.71,2.17.5,4.57-.58,6.6l-.19.37-.28.53h-1.69v5.73c0,.84-.42,1.57-1.07,2.01.65.43,1.09,1.17,1.09,2.01v9.71c0,1.33-1.08,2.41-2.41,2.41h-9.71c-.83,0-1.56-.42-2-1.07-.43.65-1.17,1.07-2,1.07H5.9c-1.33,0-2.41-1.08-2.41-2.41v-9.71c0-.83.43-1.57,1.08-2-.66-.43-1.09-1.17-1.09-2.02v-5.73H0l.08-1.07.05-.76c.22-3.03,1.96-5.68,4.65-7.1.39-.21.66-.56.74-.97.44-2.2,1.91-4.05,3.96-4.94.88-.37,1.8-.56,2.75-.56.2,0,.41.01.62.03.05,0,.1,0,.15,0,.38,0,.71-.14.95-.4,1.57-1.67,3.77-2.63,6.03-2.63,1.21,0,2.42.27,3.48.77l.21.1c1.32-1.59,3.31-2.61,5.53-2.61,3.95,0,7.17,3.22,7.17,7.17,0,1.95-.79,3.73-2.07,5.02l.15.44Z"/>
  <g>
    <path class="cls-2" d="m6.78,24.31h7.79l-3.86-7.08s-3.93,7.08-3.93,7.08Zm2.4-1.41l1.52-2.75,1.5,2.75h-3.01Z"/>
    <path class="cls-2" d="m22.55,17.86l-1.89,3.22,1.83,3.22h3.72l1.89-3.22-1.83-3.22h-3.72Zm2.87,5.04h-2.1l-1.02-1.81,1.07-1.81h2.1l1.02,1.81-1.07,1.81Z"/>
    <path class="cls-2" d="m15.61,28.47H5.9c-.78,0-1.41.63-1.41,1.41v9.71c0,.78.63,1.41,1.41,1.41h9.71c.78,0,1.41-.63,1.41-1.41v-9.71c0-.78-.63-1.41-1.41-1.41Zm-9.73,11.12v-9.71h9.71v9.71H5.89Z"/>
    <path class="cls-2" d="m29.32,28.47h-9.71c-.78,0-1.41.63-1.41,1.41v9.71c0,.78.63,1.41,1.41,1.41h9.71c.78,0,1.41-.63,1.41-1.41v-9.71c0-.78-.63-1.41-1.41-1.41Zm-9.73,11.12v-9.71h9.71v9.71h-9.71,0Z"/>
    <path class="cls-2" d="m21.69,37.63h5.67v-5.67h-5.67v5.67Zm1.41-4.26h2.85v2.85h-2.85v-2.85Z"/>
    <path class="cls-2" d="m10.68,31.57c-1.78,0-3.22,1.44-3.22,3.22s1.44,3.22,3.22,3.22,3.22-1.44,3.22-3.22-1.44-3.22-3.22-3.22Zm0,5.04c-1,0-1.81-.81-1.81-1.81s.81-1.81,1.81-1.81,1.81.81,1.81,1.81-.81,1.81-1.81,1.81Z"/>
    <path class="cls-2" d="m32.26,13.7c.35,1.3.26,2.73-.32,4.04h-1.23v-1.57c0-.78-.63-1.41-1.41-1.41h-9.71c-.78,0-1.41.63-1.41,1.41v1.57h-1.18v-1.57c0-.78-.63-1.41-1.41-1.41H5.89c-.78,0-1.41.63-1.41,1.41v1.57h-1.83c.37-1.87,1.55-3.47,3.28-4.39,1.02-.55,1.74-1.5,1.97-2.63.28-1.41,1.23-2.61,2.56-3.19.69-.3,1.44-.42,2.19-.35,1.18.11,2.29-.32,3.08-1.16,1.09-1.18,2.64-1.87,4.26-1.87s1.69.19,2.43.53c.16-.44.37-.86.62-1.27-.93-.44-1.97-.67-3.05-.67-2.01,0-3.93.85-5.3,2.31-.48.53-1.18.78-1.92.7-.99-.09-1.97.07-2.89.46-1.74.76-3,2.34-3.37,4.21-.14.7-.6,1.3-1.25,1.66-2.38,1.25-3.93,3.61-4.12,6.29l-.05.76h3.4v6.73c0,.78.63,1.41,1.41,1.41h9.71c.78,0,1.41-.63,1.41-1.41v-6.73h1.18v6.73c0,.78.63,1.41,1.41,1.41h9.71c.78,0,1.41-.63,1.41-1.41v-6.73h2.08l.19-.37c.99-1.85,1.13-3.95.51-5.81-.39.28-.81.55-1.25.74l.02.02ZM5.89,25.88v-9.71h9.71v9.71H5.89Zm13.71,0v-9.71h9.71v9.71h-9.71,0Z"/>
    <path class="cls-2" d="m29.2,13.33c3.4,0,6.17-2.77,6.17-6.17s-2.77-6.17-6.17-6.17-6.17,2.77-6.17,6.17,2.77,6.17,6.17,6.17Zm0-10.93c2.63,0,4.76,2.13,4.76,4.76s-2.13,4.76-4.76,4.76-4.76-2.13-4.76-4.76,2.13-4.76,4.76-4.76Z"/>
    <path class="cls-2" d="m26.59,8.52l-.56.7,1.11,1.11.7-.56c.14.07.3.14.46.19l.11.88h1.59l.11-.88c.16-.05.32-.11.46-.19l.7.56,1.11-1.11-.56-.7c.07-.14.14-.3.19-.46l.88-.11v-1.59l-.88-.11c-.05-.16-.11-.32-.19-.46l.56-.7-1.11-1.11-.7.56c-.14-.07-.3-.14-.46-.19l-.11-.88h-1.59l-.11.88c-.16.05-.32.11-.46.19l-.7-.56-1.11,1.11.56.7c-.07.14-.14.3-.19.46l-.88.11v1.59l.88.11c.05.16.11.32.19.46Zm2.61-2.96c.88,0,1.6.72,1.6,1.6s-.72,1.6-1.6,1.6-1.6-.72-1.6-1.6.72-1.6,1.6-1.6Z"/>
  </g>
</svg>