<?xml version="1.0" encoding="UTF-8"?>
<svg id="Layer_1" data-name="Layer 1" xmlns="http://www.w3.org/2000/svg" viewBox="0 0 39.72 42">
  <metadata><?xpacket begin="﻿" id="W5M0MpCehiHzreSzNTczkc9d"?>
<x:xmpmeta xmlns:x="adobe:ns:meta/" x:xmptk="Adobe XMP Core 9.1-c001 79.a8d4753, 2023/03/23-08:56:37        ">
   <rdf:RDF xmlns:rdf="http://www.w3.org/1999/02/22-rdf-syntax-ns#">
      <rdf:Description rdf:about=""
            xmlns:dc="http://purl.org/dc/elements/1.1/"
            xmlns:xmp="http://ns.adobe.com/xap/1.0/"
            xmlns:xmpMM="http://ns.adobe.com/xap/1.0/mm/"
            xmlns:stEvt="http://ns.adobe.com/xap/1.0/sType/ResourceEvent#"
            xmlns:xmpRights="http://ns.adobe.com/xap/1.0/rights/">
         <dc:subject>
            <rdf:Bag>
               <rdf:li>circle</rdf:li>
               <rdf:li>cycle</rdf:li>
               <rdf:li>protections</rdf:li>
               <rdf:li>shield</rdf:li>
            </rdf:Bag>
         </dc:subject>
         <xmp:MetadataDate>2024-12-13T00:30:58-06:00</xmp:MetadataDate>
         <xmpMM:InstanceID>xmp.iid:5dbbeeec-22e2-4655-b6d5-24a3fb514ec9</xmpMM:InstanceID>
         <xmpMM:DocumentID>xmp.did:9dad983b-9f0e-4bf2-a16a-1b713b5d6af8</xmpMM:DocumentID>
         <xmpMM:OriginalDocumentID>xmp.did:9dad983b-9f0e-4bf2-a16a-1b713b5d6af8</xmpMM:OriginalDocumentID>
         <xmpMM:History>
            <rdf:Seq>
               <rdf:li>
                  <rdf:Description>
                     <stEvt:action>saved</stEvt:action>
                     <stEvt:instanceID>xmp.iid:9dad983b-9f0e-4bf2-a16a-1b713b5d6af8</stEvt:instanceID>
                     <stEvt:when>2024-12-13T00:30:43-06:00</stEvt:when>
                     <stEvt:softwareAgent>Adobe Bridge 2024</stEvt:softwareAgent>
                     <stEvt:changed>/metadata</stEvt:changed>
                  </rdf:Description>
               </rdf:li>
               <rdf:li>
                  <rdf:Description>
                     <stEvt:action>saved</stEvt:action>
                     <stEvt:instanceID>xmp.iid:5dbbeeec-22e2-4655-b6d5-24a3fb514ec9</stEvt:instanceID>
                     <stEvt:when>2024-12-13T00:30:58-06:00</stEvt:when>
                     <stEvt:softwareAgent>Adobe Bridge 2024</stEvt:softwareAgent>
                     <stEvt:changed>/metadata</stEvt:changed>
                  </rdf:Description>
               </rdf:li>
            </rdf:Seq>
         </xmpMM:History>
         <xmpRights:Marked>True</xmpRights:Marked>
         <xmpRights:UsageTerms>
            <rdf:Alt>
               <rdf:li xml:lang="x-default">Oracle All Rights</rdf:li>
            </rdf:Alt>
         </xmpRights:UsageTerms>
      </rdf:Description>
   </rdf:RDF>
</x:xmpmeta>
                                                                                                    
                                                                                                    
                                                                                                    
                                                                                                    
                                                                                                    
                                                                                                    
                                                                                                    
                                                                                                    
                                                                                                    
                                                                                                    
                                                                                                    
                                                                                                    
                                        
<?xpacket end="w"?></metadata>
<defs>
    <style>
      .cls-1 {
        fill: #fff;
      }

      .cls-2 {
        fill: #2d5967;
      }
    </style>
  </defs>
  <path class="cls-1" d="m35.78,33.55c.42.82.64,1.72.64,2.65,0,3.2-2.6,5.8-5.8,5.8-1.52,0-2.95-.58-4.02-1.62-2.16.78-4.43,1.18-6.74,1.18C8.91,41.56,0,32.65,0,21.7c0-5.69,2.43-11.06,6.68-14.83-.07-.35-.1-.71-.1-1.07,0-3.2,2.6-5.8,5.8-5.8,1.73,0,3.35.77,4.44,2.08,1.01-.16,2.03-.23,3.04-.23,10.95,0,19.86,8.9,19.86,19.85,0,4.26-1.4,8.44-3.94,11.85Z"/>
  <g>
    <path class="cls-2" d="m19.965,9.904l-.105-.164-.105.164c-.449.704-2.4,2.998-8.625,2.998h-.124v12.346c0,4.178,8.442,8.131,8.802,8.297l.052.024.052-.024c.36-.166,8.802-4.119,8.802-8.297v-12.346h-.124c-5.838,0-7.91-1.878-8.625-2.998Zm.643,10.886v-8.222c.27.176.551.336.839.479,1.512.752,3.454,1.194,5.773,1.316v6.427h-6.611Zm6.611,1.496v2.962c0,.698-.488,2.212-3.755,4.505-1.043.733-2.1,1.346-2.856,1.757v-9.224h6.611Zm-8.107-9.75v8.254h-6.611v-6.429c2.745-.152,4.967-.765,6.611-1.825Zm0,9.75v9.224c-.757-.411-1.814-1.024-2.857-1.757-3.266-2.292-3.753-3.806-3.753-4.505v-2.962h6.611Z"/>
    <path class="cls-2" d="m38.715,21.702c0-10.397-8.459-18.856-18.855-18.856-1.162,0-2.329.108-3.471.321-.894-1.359-2.387-2.167-4.011-2.167-2.648,0-4.801,2.154-4.801,4.801,0,.484.073.962.216,1.423C3.477,10.826,1.004,16.098,1.004,21.702c0,10.397,8.459,18.856,18.856,18.856,2.42,0,4.78-.456,7.015-1.355.918,1.143,2.277,1.797,3.741,1.797,2.648,0,4.801-2.154,4.801-4.801,0-.976-.292-1.914-.847-2.717,2.674-3.331,4.145-7.51,4.145-11.78ZM12.378,9.106c-1.134,0-2.177-.574-2.789-1.535-.226-.354-.379-.741-.458-1.153-.039-.205-.059-.412-.059-.617,0-1.823,1.483-3.306,3.306-3.306.982,0,1.907.434,2.538,1.192.269.322.472.687.602,1.086.109.332.164.678.164,1.028,0,1.823-1.482,3.305-3.305,3.305Zm18.239,23.787c.749,0,1.458.247,2.048.714.321.254.588.561.796.909.302.51.462,1.091.462,1.682,0,1.823-1.483,3.306-3.306,3.306-.918,0-1.803-.389-2.429-1.067-.277-.3-.493-.644-.643-1.022-.154-.389-.233-.799-.233-1.217,0-1.823,1.483-3.306,3.306-3.306Zm0-1.496c-2.648,0-4.801,2.154-4.801,4.801,0,.583.104,1.152.31,1.694-2,.776-4.107,1.169-6.265,1.169-9.572,0-17.36-7.788-17.36-17.36,0-5.025,2.178-9.792,5.981-13.099.904,1.254,2.35,1.999,3.897,1.999,2.647,0,4.801-2.154,4.801-4.801,0-.414-.054-.826-.16-1.226.936-.155,1.891-.233,2.842-.233,9.572,0,17.36,7.788,17.36,17.36,0,3.915-1.275,7.608-3.688,10.686-.835-.64-1.865-.99-2.915-.99Z"/>
  </g>
</svg>