<svg id="Layer_1" data-name="Layer 1" xmlns="http://www.w3.org/2000/svg" viewBox="0 0 40.31 42.35"><title>Analytics-Publisher-Oracle-Service</title><metadata><?xpacket begin="﻿" id="W5M0MpCehiHzreSzNTczkc9d"?>
<x:xmpmeta xmlns:x="adobe:ns:meta/" x:xmptk="Adobe XMP Core 6.0-c002 79.164488, 2020/07/10-22:06:53        ">
   <rdf:RDF xmlns:rdf="http://www.w3.org/1999/02/22-rdf-syntax-ns#">
      <rdf:Description rdf:about=""
            xmlns:dc="http://purl.org/dc/elements/1.1/"
            xmlns:xmpRights="http://ns.adobe.com/xap/1.0/rights/"
            xmlns:xmp="http://ns.adobe.com/xap/1.0/"
            xmlns:xmpMM="http://ns.adobe.com/xap/1.0/mm/"
            xmlns:stEvt="http://ns.adobe.com/xap/1.0/sType/ResourceEvent#"
            xmlns:lr="http://ns.adobe.com/lightroom/1.0/">
         <dc:title>
            <rdf:Alt>
               <rdf:li xml:lang="x-default">Analytics-Publisher-Oracle-Service</rdf:li>
            </rdf:Alt>
         </dc:title>
         <dc:rights>
            <rdf:Alt>
               <rdf:li xml:lang="x-default">Oracle All Rights Reserved</rdf:li>
            </rdf:Alt>
         </dc:rights>
         <dc:subject>
            <rdf:Bag>
               <rdf:li>upload</rdf:li>
               <rdf:li>magnifying</rdf:li>
               <rdf:li>glass</rdf:li>
               <rdf:li>chart</rdf:li>
               <rdf:li>graph</rdf:li>
               <rdf:li>analysis</rdf:li>
               <rdf:li>publish</rdf:li>
               <rdf:li>icon</rdf:li>
            </rdf:Bag>
         </dc:subject>
         <xmpRights:Marked>True</xmpRights:Marked>
         <xmp:MetadataDate>2022-05-16T17:13:20-05:00</xmp:MetadataDate>
         <xmpMM:InstanceID>xmp.iid:141b6b0e-93c8-b84d-bb23-1d9e419ce853</xmpMM:InstanceID>
         <xmpMM:DocumentID>xmp.did:3346fa08-e970-3c4b-a949-916041d7e614</xmpMM:DocumentID>
         <xmpMM:OriginalDocumentID>xmp.did:3346fa08-e970-3c4b-a949-916041d7e614</xmpMM:OriginalDocumentID>
         <xmpMM:History>
            <rdf:Seq>
               <rdf:li>
                  <rdf:Description>
                     <stEvt:action>saved</stEvt:action>
                     <stEvt:instanceID>xmp.iid:3346fa08-e970-3c4b-a949-916041d7e614</stEvt:instanceID>
                     <stEvt:when>2022-05-16T17:06:06-05:00</stEvt:when>
                     <stEvt:softwareAgent>Adobe Bridge 2021 (Windows)</stEvt:softwareAgent>
                     <stEvt:changed>/metadata</stEvt:changed>
                  </rdf:Description>
               </rdf:li>
               <rdf:li>
                  <rdf:Description>
                     <stEvt:action>saved</stEvt:action>
                     <stEvt:instanceID>xmp.iid:141b6b0e-93c8-b84d-bb23-1d9e419ce853</stEvt:instanceID>
                     <stEvt:when>2022-05-16T17:13:20-05:00</stEvt:when>
                     <stEvt:softwareAgent>Adobe Bridge 2021 (Windows)</stEvt:softwareAgent>
                     <stEvt:changed>/metadata</stEvt:changed>
                  </rdf:Description>
               </rdf:li>
            </rdf:Seq>
         </xmpMM:History>
         <lr:hierarchicalSubject>
            <rdf:Bag>
               <rdf:li>icon</rdf:li>
            </rdf:Bag>
         </lr:hierarchicalSubject>
      </rdf:Description>
   </rdf:RDF>
</x:xmpmeta>
                                                                                                    
                                                                                                    
                                                                                                    
                                                                                                    
                                                                                                    
                                                                                                    
                                                                                                    
                                                    
<?xpacket end="w"?></metadata>
<path d="M31.75,39.65c-.49-.49-1-1-1.53-1.66v2.5l-2,1H2.53l-2-1V.5H23.29l6.93,6.93V19a9.59,9.59,0,0,1,.46,9.28l3.38,2.44a32.64,32.64,0,0,1,3.54,3l2,2-5.86,5.86Z" fill="#fff"/><path d="M23.09,1l6.63,6.63V19.17A9.11,9.11,0,0,1,30,28.46l3.73,2.69a32.56,32.56,0,0,1,3.48,3l1.64,1.64-5.15,5.15L32.1,39.3a35.69,35.69,0,0,1-2.38-2.71v3.59L28.08,41H2.64L1,40.18V1H23.09m.41-1H0V15.36H0V40.8l.55.27,1.65.82.21.11H28.32l.21-.11,1.64-.82.55-.27V39.31l.67.69L33,41.65l.71.7.71-.7L39.6,36.5l.71-.71-.71-.71L38,33.44a34.62,34.62,0,0,0-3.59-3.09l-3.06-2.21a10.09,10.09,0,0,0-.59-9.25V15.36h0V7.22l-.29-.29L23.79.29,23.5,0Z" fill="#fff"/><path d="M28.09,36.59h0L28,36.49H2.64V2.64H21.31V9.41h6.77v6.24a10.54,10.54,0,0,1,1.31,1.11l.33.35V7.63L23.09,1H1V38.13H29.31c-.41-.49-.82-1-1.22-1.53ZM27.54,7.77H23V3.19Z" fill="#2c5967"/><polygon points="28.08 39.36 2.64 39.36 2.64 39.36 1 39.36 1 40.18 2.64 41 2.64 41 28.08 41 28.08 41 29.73 40.18 29.73 39.36 28.08 39.36 28.08 39.36" fill="#2c5967"/><path d="M5.11,23h6.62a11.06,11.06,0,0,1,.32-1.64H5.11Z" fill="#2c5967"/><path d="M5.11,34H19a10.36,10.36,0,0,1-3.2-1.65H5.11Z" fill="#2c5967"/><path d="M5.11,5.1V18.23h8.38a10.57,10.57,0,0,1,1.22-1.47l.18-.17H6.75V15L9.88,11.9l3.28,3.29,3.43-3.44v3.52a10.52,10.52,0,0,1,1.64-.83V5.1Zm8.05,7.77L9.88,9.58,6.75,12.71v-6h9.84V9.43Z" fill="#2c5967"/><path d="M5.11,28.49h7.53a9.77,9.77,0,0,1-.6-1.64H5.11Z" fill="#2c5967"/><path d="M12.9,24.08a9.13,9.13,0,0,0,13.51,8l2.7,3.74a33.37,33.37,0,0,0,3,3.47l1.64,1.64,5.15-5.15-1.64-1.64a32.56,32.56,0,0,0-3.48-3L30,28.46A9.13,9.13,0,1,0,12.9,24.08ZM36.09,35.31l.48.48-2.83,2.83-.48-.48a31.82,31.82,0,0,1-2.83-3.28l-2.65-3.69a8.42,8.42,0,0,0,.7-.64,7.2,7.2,0,0,0,.64-.71l3.68,2.65A31,31,0,0,1,36.09,35.31ZM29.52,24.08a7.49,7.49,0,1,1-2.2-5.3A7.4,7.4,0,0,1,29.52,24.08Z" fill="#2c5967"/><polygon points="18.58 22.47 19.74 23.63 21.31 22.06 21.31 29.31 22.95 29.31 22.95 22.06 24.42 23.53 25.58 22.37 22.13 18.92 18.58 22.47" fill="#2c5967"/></svg>