<?xml version="1.0" encoding="UTF-8"?>
<svg id="Layer_1" data-name="Layer 1" xmlns="http://www.w3.org/2000/svg" viewBox="0 0 42 40.14">
  <metadata><?xpacket begin="﻿" id="W5M0MpCehiHzreSzNTczkc9d"?>
<x:xmpmeta xmlns:x="adobe:ns:meta/" x:xmptk="Adobe XMP Core 7.1-c000 79.4d2f597, 2021/09/01-20:51:22        ">
   <rdf:RDF xmlns:rdf="http://www.w3.org/1999/02/22-rdf-syntax-ns#">
      <rdf:Description rdf:about=""
            xmlns:dc="http://purl.org/dc/elements/1.1/"
            xmlns:xmpRights="http://ns.adobe.com/xap/1.0/rights/"
            xmlns:xmp="http://ns.adobe.com/xap/1.0/"
            xmlns:xmpMM="http://ns.adobe.com/xap/1.0/mm/"
            xmlns:stEvt="http://ns.adobe.com/xap/1.0/sType/ResourceEvent#">
         <dc:rights>
            <rdf:Alt>
               <rdf:li xml:lang="x-default">Oracle All Rights</rdf:li>
            </rdf:Alt>
         </dc:rights>
         <dc:subject>
            <rdf:Bag>
               <rdf:li>earth</rdf:li>
               <rdf:li>world</rdf:li>
               <rdf:li>data</rdf:li>
               <rdf:li>icon</rdf:li>
            </rdf:Bag>
         </dc:subject>
         <xmpRights:Marked>True</xmpRights:Marked>
         <xmp:MetadataDate>2024-07-05T18:09:40-06:00</xmp:MetadataDate>
         <xmp:Rating>1</xmp:Rating>
         <xmpMM:InstanceID>xmp.iid:97b7d2f8-e993-4ead-bbca-37a10eb617ab</xmpMM:InstanceID>
         <xmpMM:DocumentID>xmp.did:00ce3fcf-5a6a-4c66-acc6-245e6231e44c</xmpMM:DocumentID>
         <xmpMM:OriginalDocumentID>xmp.did:00ce3fcf-5a6a-4c66-acc6-245e6231e44c</xmpMM:OriginalDocumentID>
         <xmpMM:History>
            <rdf:Seq>
               <rdf:li>
                  <rdf:Description>
                     <stEvt:action>saved</stEvt:action>
                     <stEvt:instanceID>xmp.iid:00ce3fcf-5a6a-4c66-acc6-245e6231e44c</stEvt:instanceID>
                     <stEvt:when>2024-07-05T18:05:08-06:00</stEvt:when>
                     <stEvt:softwareAgent>Adobe Bridge 2023</stEvt:softwareAgent>
                     <stEvt:changed>/metadata</stEvt:changed>
                  </rdf:Description>
               </rdf:li>
               <rdf:li>
                  <rdf:Description>
                     <stEvt:action>saved</stEvt:action>
                     <stEvt:instanceID>xmp.iid:97b7d2f8-e993-4ead-bbca-37a10eb617ab</stEvt:instanceID>
                     <stEvt:when>2024-07-05T18:09:40-06:00</stEvt:when>
                     <stEvt:softwareAgent>Adobe Bridge 2023</stEvt:softwareAgent>
                     <stEvt:changed>/metadata</stEvt:changed>
                  </rdf:Description>
               </rdf:li>
            </rdf:Seq>
         </xmpMM:History>
      </rdf:Description>
   </rdf:RDF>
</x:xmpmeta>
                                                                                                    
                                                                                                    
                                                                                                    
                                                                                                    
                                                                                                    
                                                                                                    
                                                                                                    
                                                                                                    
                                                                                                    
                                                                                                    
                                                                                                    
                                                                                                    
                                                              
<?xpacket end="w"?></metadata>
<defs>
    <style>
      .cls-1 {
        fill: #fff;
      }

      .cls-2 {
        fill: #2d5967;
      }
    </style>
  </defs>
  <path class="cls-1" d="m42,10.81v10.11c0,.82-.44,1.42-1.12,1.86l-.12.68c-1.66,9.67-9.97,16.68-19.76,16.68-5.93,0-11.54-2.62-15.37-7.18l-.6-.71c-2.45-.24-5.03-.96-5.03-2.94v-10.11c0-.82.43-1.42,1.12-1.87l.11-.65C2.89,7.01,11.2,0,21,0c5.93,0,11.53,2.62,15.36,7.18l.6.71c2.63.24,5.04.99,5.04,2.92Z"/>
  <g>
    <path class="cls-2" d="m38.39,23.65c-1.66,8.09-8.83,14.19-17.4,14.19h0c-5.04,0-9.59-2.13-12.82-5.51-.36.01-.65.02-.85.02-.21,0-.54,0-.93-.02,3.5,4.17,8.74,6.83,14.6,6.83,9.42,0,17.24-6.87,18.78-15.85-.4.14-.86.26-1.37.35,0,0-.01,0-.02,0Z"/>
    <path class="cls-2" d="m3.61,16.49c.36-1.77.98-3.44,1.83-4.97h1.58v.49l-.75,1.89c-.07.18-.07.38.02.55l.87,1.74c.06,0,.12,0,.17,0,.28,0,.75,0,1.32.04l-1.05-2.09.74-1.79c.03-.08,0-.24,0-.33v-1.15c0-.36-.46-.66-.82-.66h-1.28c1.8-2.69,4.32-4.86,7.28-6.24h0s2.37,1.67,2.37,1.67c.09.06.19.1.29.12l2.34.31.66.66-.11.17-1.75-.54c-.24-.08-.51,0-.68.19l-1.71,1.88c-.11.12-.17.28-.17.44v1.02c0,.34.25.62.59.65l1.04.12.09.53c.05.32.25.49.58.49h1.48c.33,0,.57-.19.61-.51l.11-.79,1.15-.38s.06-.02.09-.04l.72-.36.78.44v1.32l-2.04.83c-.22.09-.37.3-.39.53l-.14,1.23-1.28.85c-.15.1-.25.26-.28.44l-.17,1.02c-.02.1,0,.2.02.29l.39,1.37-.47-.09-.38-1.02c-.1-.26-.34-.43-.62-.43h-1.71c-.14,0-.28.05-.39.13l-.68.51c-.12.09-.19.22-.23.36.69.47,1.04,1.06,1.04,1.79v1.92s.06.02.09.02h1.12l1.35,1.2c.14.12.32.18.5.16l3.13-.31,1.49,1.34c.08.08.19.13.3.15l1.34.34h1.32l1.15.66v2.47l-.78,2.1-3.16,1.68c-.21.12-.33.42-.33.66v1.64l-1.1.7c-.19.12-.21.39-.21.61v.99s-.33.16-.66.16-.49-.33-.49-.33v-6.91c0-.12-.1-.22-.16-.33l-1.64-2.47v-1.97c0-.29-.21-.58-.49-.66l-2.16-.59-.58-.5v1.68s.05.03.08.04l1.83.51v1.64c0,.12.1.22.16.33l1.64,2.47v6.91c0,.13.02.2.1.31,0,0,.56,1.17,1.55,1.17s1.81-.49,1.81-.49c0,0,.33-.23.33-.49v-1.15l.99-.66c.19-.12.33-.43.33-.66v-1.64l3.03-1.63c.14-.08.25-.2.3-.36,0,0,.94-2.54.94-2.62v-2.96c0-.22-.16-.37-.34-.49l-1.54-1.02c-.11-.07-.29-.13-.42-.13h-1.15l-1.21-.27-1.58-1.42c-.14-.12-.32-.18-.5-.17l-3.13.31-1.32-1.18c-.12-.11-.28-.17-.44-.17h-.82l-.35-1.96.18-.14h1.03l.35.94c.08.22.27.37.5.42l1.88.34c.23.04.45-.04.6-.21.15-.17.21-.4.14-.62l-.64-2.25.1-.6,1.3-.87c.16-.11.27-.28.29-.48l.13-1.16,2.04-.87c.22-.1.43-.28.45-.52v-2.14c.02-.26-.1-.53-.33-.66l-1.43-.77c-.19-.11-.42-.11-.61-.01l-.98.49-1.49.5c-.24.08-.41.28-.44.53l-.09.63h-.24l-.08-.48c-.05-.29-.28-.51-.58-.55l-.95-.11v-.18l1.26-1.38,1.82.56c.28.09.58-.02.74-.26l.68-1.02c.17-.26.14-.61-.08-.83l-1.2-1.2c-.1-.1-.24-.17-.38-.19l-2.4-.32-1.56-1.1c.62-.23,1.26-.42,1.92-.57l.17.58c.07.25.29.44.55.47l2.56.34s.06,0,.09,0c.28,0,.53-.18.62-.45.23-.67.38-1.12.48-1.44.49,0,.98.04,1.46.09v2.05c0,.21,0,.33.21.47l.46.35.31,2.29c.04.33.32.51.65.51h1v2.3c0,.36.29.65.66.65h1.26v-.22c0-1.23,1-2.09,2.96-2.57l1.88-1.94c.58.47,1.12.98,1.63,1.51.35-.01.65-.02.84-.02.21,0,.54,0,.93.02C32.09,3.66,26.85,1,21,1,11.58,1,3.76,7.86,2.22,16.85c.4-.14.86-.26,1.37-.35,0,0,.01,0,.02,0ZM24.12,2.59c2.57.46,4.95,1.47,7.02,2.91l-4.07,4.21h-.31v-2.25c0-.36-.29-.72-.66-.72h-1.13l-.21-1.93c-.02-.17-.12-.33-.26-.44l-.37-.26v-1.53Zm-4.17-.24c-.05.15-.11.31-.16.47l-1.6-.21-.02-.06c.58-.09,1.18-.16,1.78-.19Z"/>
    <path class="cls-2" d="m41,10.81c0-1.92-5.28-2.02-6.33-2.02s-6.33.1-6.33,2.02,0,.03,0,.03v10.08c0,1.94,5.28,2.04,6.33,2.04s6.33-.1,6.33-2.04v-10.08s0-.03,0-.03Zm-6.33-.71c2.58,0,4.24.41,4.83.71-.59.3-2.27.71-4.83.71s-4.24-.41-4.83-.71c.59-.3,2.27-.71,4.83-.71h0Zm5.01,10.72c-.35.3-2.1.82-5.01.82s-4.67-.53-5.01-.82v-1.91c1.63.64,4.29.67,5.01.67s3.39-.05,5.01-.67v1.91Zm0-3.37c-.35.3-2.1.82-5.01.82s-4.67-.53-5.01-.82v-1.86c1.63.64,4.29.67,5.01.67s3.39-.05,5.01-.67v1.86Zm0-3.32c-.35.3-2.1.82-5.01.82s-4.67-.53-5.01-.82v-1.97c1.63.62,4.29.67,5.01.67s3.39-.05,5.01-.67v1.97Z"/>
    <path class="cls-2" d="m13.66,29.31v-10.11c0-1.92-5.28-2.02-6.33-2.02s-6.33.1-6.33,2.02,0,.03,0,.03v10.08c0,1.94,5.28,2.04,6.33,2.04s6.33-.1,6.33-2.04h0Zm-6.33-10.82c2.56,0,4.24.41,4.83.71-.59.3-2.27.71-4.83.71s-4.24-.41-4.83-.71c.59-.3,2.27-.71,4.83-.71Zm-5.01,2.06c1.63.62,4.29.67,5.01.67s3.39-.05,5.01-.67v1.97c-.35.3-2.1.82-5.01.82s-4.67-.53-5.01-.82v-1.97Zm0,3.44c1.63.64,4.29.67,5.01.67s3.39-.05,5.01-.67v1.86c-.35.3-2.1.82-5.01.82s-4.67-.53-5.01-.82v-1.86Zm0,3.32c1.63.64,4.29.67,5.01.67s3.39-.05,5.01-.67v1.91c-.35.3-2.1.82-5.01.82s-4.67-.53-5.01-.82v-1.91Z"/>
  </g>
</svg>