<svg id="Layer_1" data-name="Layer 1" xmlns="http://www.w3.org/2000/svg" viewBox="0 0 42.08 37.67"><defs><style>.cls-1{fill:#fff;}.cls-2{fill:#2c5967;}</style></defs><title>Business Intelligence Cloud Service</title><metadata><?xpacket begin="﻿" id="W5M0MpCehiHzreSzNTczkc9d"?>
<x:xmpmeta xmlns:x="adobe:ns:meta/" x:xmptk="Adobe XMP Core 6.0-c006 79.164648, 2021/01/12-15:52:29        ">
   <rdf:RDF xmlns:rdf="http://www.w3.org/1999/02/22-rdf-syntax-ns#">
      <rdf:Description rdf:about=""
            xmlns:xmp="http://ns.adobe.com/xap/1.0/"
            xmlns:xmpMM="http://ns.adobe.com/xap/1.0/mm/"
            xmlns:stEvt="http://ns.adobe.com/xap/1.0/sType/ResourceEvent#"
            xmlns:xmpRights="http://ns.adobe.com/xap/1.0/rights/"
            xmlns:dc="http://purl.org/dc/elements/1.1/"
            xmlns:lr="http://ns.adobe.com/lightroom/1.0/">
         <xmp:MetadataDate>2021-06-24T19:27:34-05:00</xmp:MetadataDate>
         <xmpMM:InstanceID>xmp.iid:bf05f192-0dcb-4b81-9534-0cb000366f62</xmpMM:InstanceID>
         <xmpMM:DocumentID>xmp.did:cff56d26-93f5-45d1-ac92-643f59a31057</xmpMM:DocumentID>
         <xmpMM:OriginalDocumentID>xmp.did:cff56d26-93f5-45d1-ac92-643f59a31057</xmpMM:OriginalDocumentID>
         <xmpMM:History>
            <rdf:Seq>
               <rdf:li>
                  <rdf:Description>
                     <stEvt:action>saved</stEvt:action>
                     <stEvt:instanceID>xmp.iid:cff56d26-93f5-45d1-ac92-643f59a31057</stEvt:instanceID>
                     <stEvt:when>2021-06-18T11:41:54-05:00</stEvt:when>
                     <stEvt:softwareAgent>Adobe Bridge 2021 (Macintosh)</stEvt:softwareAgent>
                     <stEvt:changed>/metadata</stEvt:changed>
                  </rdf:Description>
               </rdf:li>
               <rdf:li>
                  <rdf:Description>
                     <stEvt:action>saved</stEvt:action>
                     <stEvt:instanceID>xmp.iid:bf05f192-0dcb-4b81-9534-0cb000366f62</stEvt:instanceID>
                     <stEvt:when>2021-06-24T19:27:34-05:00</stEvt:when>
                     <stEvt:softwareAgent>Adobe Bridge 2021 (Macintosh)</stEvt:softwareAgent>
                     <stEvt:changed>/metadata</stEvt:changed>
                  </rdf:Description>
               </rdf:li>
            </rdf:Seq>
         </xmpMM:History>
         <xmpRights:Marked>True</xmpRights:Marked>
         <dc:title>
            <rdf:Alt>
               <rdf:li xml:lang="x-default">Business Intelligence Cloud Service</rdf:li>
            </rdf:Alt>
         </dc:title>
         <dc:subject>
            <rdf:Bag>
               <rdf:li>icon</rdf:li>
               <rdf:li>Business</rdf:li>
               <rdf:li>intelligence</rdf:li>
               <rdf:li>Cloud</rdf:li>
               <rdf:li>Service</rdf:li>
               <rdf:li>technology</rdf:li>
            </rdf:Bag>
         </dc:subject>
         <dc:rights>
            <rdf:Alt>
               <rdf:li xml:lang="x-default">Oracle All Rights Reserved</rdf:li>
            </rdf:Alt>
         </dc:rights>
         <lr:hierarchicalSubject>
            <rdf:Bag>
               <rdf:li>icon</rdf:li>
               <rdf:li>Business</rdf:li>
               <rdf:li>intelligence</rdf:li>
               <rdf:li>Cloud</rdf:li>
               <rdf:li>Service</rdf:li>
               <rdf:li>technology</rdf:li>
            </rdf:Bag>
         </lr:hierarchicalSubject>
      </rdf:Description>
   </rdf:RDF>
</x:xmpmeta>
                                                                                                    
                                                                                                    
                                                                                                    
                                                                                                    
                                                                                                    
                                                                                                    
                                                                                                    
                                                                                                    
                               
<?xpacket end="w"?></metadata>
<path class="cls-1" d="M7.51,37.17V35.5l1.71-.86L9.06,21.48H.54L.65,20A9.87,9.87,0,0,1,6,12,2.37,2.37,0,0,0,7.2,10.28a7.59,7.59,0,0,1,7.46-6.13,5.37,5.37,0,0,1,.7,0h.25a2.26,2.26,0,0,0,1.67-.72,9.37,9.37,0,0,1,6.83-3,9.26,9.26,0,0,1,8.33,5.15A2.42,2.42,0,0,0,34.12,7a9.55,9.55,0,0,1,6.32,13.82l-.38.71H33V34.64l1.72.86v1.67Z"/><path class="cls-1" d="M24.11,1A8.76,8.76,0,0,1,32,5.88a2.94,2.94,0,0,0,2,1.56,9.16,9.16,0,0,1,2.86,1.18A9,9,0,0,1,40,20.53l-.24.45H32.51V35l1.72.86v.86H8v-.86L9.73,35,9.55,21H1.08l.07-.92a9.4,9.4,0,0,1,5-7.67,2.91,2.91,0,0,0,1.52-2,7.09,7.09,0,0,1,4.1-5.13,7.22,7.22,0,0,1,2.86-.6l.66,0,.29,0a2.8,2.8,0,0,0,2-.88A8.85,8.85,0,0,1,24.11,1m0-1a9.82,9.82,0,0,0-7.19,3.14,1.78,1.78,0,0,1-1.31.56h-.2a6.28,6.28,0,0,0-.75,0,8.12,8.12,0,0,0-7.95,6.54,1.91,1.91,0,0,1-1,1.32A10.4,10.4,0,0,0,.15,20l-.07.93L0,22H8.56l.16,12.36-1.15.57L7,35.19v2.48H35.23V35.19l-.55-.28-1.17-.58V22h6.85l.28-.52.24-.45A10,10,0,0,0,34.23,6.47a2,2,0,0,1-1.35-1A9.74,9.74,0,0,0,24.11,0Z"/><path class="cls-2" d="M39.76,21h-6V19.26h4.91A7.32,7.32,0,0,0,36,10.07a7.19,7.19,0,0,0-2.31-1,4.7,4.7,0,0,1-3.19-2.48,7,7,0,0,0-6.34-3.92A7.12,7.12,0,0,0,18.91,5a4.49,4.49,0,0,1-3.76,1.4,5.42,5.42,0,0,0-2.66.44,5.37,5.37,0,0,0-3.11,3.88A4.6,4.6,0,0,1,7,13.92a7.7,7.7,0,0,0-4,5.34H8.23V21H1.08l.07-.92a9.4,9.4,0,0,1,5-7.67,2.91,2.91,0,0,0,1.52-2,7.09,7.09,0,0,1,4.1-5.13,7.21,7.21,0,0,1,3.52-.57,2.78,2.78,0,0,0,2.33-.86A8.85,8.85,0,0,1,24.11,1,8.76,8.76,0,0,1,32,5.88a2.94,2.94,0,0,0,2,1.56,9.16,9.16,0,0,1,2.86,1.18A9,9,0,0,1,40,20.53Z"/><polygon class="cls-2" points="32.51 34.95 32.51 34.95 9.73 34.95 9.73 34.95 8.01 35.81 8.01 36.67 34.23 36.67 34.23 35.81 32.51 34.95"/><path class="cls-2" d="M14.46,33.66H9.75L9.51,17.54h5Zm-3-1.72h1.3V19.26H11.25Z"/><path class="cls-2" d="M20.48,33.66H15.75V14.11h4.73Zm-3-1.72h1.29V15.82H17.47Z"/><path class="cls-2" d="M26.49,33.66H21.77V10.24h4.72Zm-3-1.72h1.29V12H23.49Z"/><path class="cls-2" d="M32.51,33.66H27.78V13.46h4.73Zm-3-1.72h1.29V15.18H29.5Z"/></svg>