<svg id="Layer_1" data-name="Layer 1" xmlns="http://www.w3.org/2000/svg" viewBox="0 0 35.92 42"><metadata><?xpacket begin="﻿" id="W5M0MpCehiHzreSzNTczkc9d"?>
<x:xmpmeta xmlns:x="adobe:ns:meta/" x:xmptk="Adobe XMP Core 6.0-c006 79.164648, 2021/01/12-15:52:29        ">
   <rdf:RDF xmlns:rdf="http://www.w3.org/1999/02/22-rdf-syntax-ns#">
      <rdf:Description rdf:about=""
            xmlns:dc="http://purl.org/dc/elements/1.1/"
            xmlns:xmp="http://ns.adobe.com/xap/1.0/"
            xmlns:xmpMM="http://ns.adobe.com/xap/1.0/mm/"
            xmlns:stEvt="http://ns.adobe.com/xap/1.0/sType/ResourceEvent#"
            xmlns:xmpRights="http://ns.adobe.com/xap/1.0/rights/"
            xmlns:lr="http://ns.adobe.com/lightroom/1.0/">
         <dc:subject>
            <rdf:Bag>
               <rdf:li>factory</rdf:li>
               <rdf:li>building</rdf:li>
               <rdf:li>mmigration</rdf:li>
               <rdf:li>icon</rdf:li>
            </rdf:Bag>
         </dc:subject>
         <dc:rights>
            <rdf:Alt>
               <rdf:li xml:lang="x-default">Oracle All Rights</rdf:li>
            </rdf:Alt>
         </dc:rights>
         <xmp:MetadataDate>2023-08-02T14:36:32-06:00</xmp:MetadataDate>
         <xmpMM:InstanceID>xmp.iid:1ca37ea4-e241-4c53-9b20-45e72ba0f648</xmpMM:InstanceID>
         <xmpMM:DocumentID>xmp.did:c04c3f77-33fb-421f-8c12-f8f7068395cd</xmpMM:DocumentID>
         <xmpMM:OriginalDocumentID>xmp.did:c04c3f77-33fb-421f-8c12-f8f7068395cd</xmpMM:OriginalDocumentID>
         <xmpMM:History>
            <rdf:Seq>
               <rdf:li>
                  <rdf:Description>
                     <stEvt:action>saved</stEvt:action>
                     <stEvt:instanceID>xmp.iid:c04c3f77-33fb-421f-8c12-f8f7068395cd</stEvt:instanceID>
                     <stEvt:when>2023-08-02T14:26:13-06:00</stEvt:when>
                     <stEvt:softwareAgent>Adobe Bridge 2021 (Macintosh)</stEvt:softwareAgent>
                     <stEvt:changed>/metadata</stEvt:changed>
                  </rdf:Description>
               </rdf:li>
               <rdf:li>
                  <rdf:Description>
                     <stEvt:action>saved</stEvt:action>
                     <stEvt:instanceID>xmp.iid:1ca37ea4-e241-4c53-9b20-45e72ba0f648</stEvt:instanceID>
                     <stEvt:when>2023-08-02T14:36:32-06:00</stEvt:when>
                     <stEvt:softwareAgent>Adobe Bridge 2021 (Macintosh)</stEvt:softwareAgent>
                     <stEvt:changed>/metadata</stEvt:changed>
                  </rdf:Description>
               </rdf:li>
            </rdf:Seq>
         </xmpMM:History>
         <xmpRights:Marked>True</xmpRights:Marked>
         <lr:hierarchicalSubject>
            <rdf:Bag>
               <rdf:li>Other Keywords|icon</rdf:li>
            </rdf:Bag>
         </lr:hierarchicalSubject>
      </rdf:Description>
   </rdf:RDF>
</x:xmpmeta>
                                                                                                    
                                                                                                    
                                                                                                    
                                                                                                    
                                                                                                    
                                                                                                    
                                                                                                    
                                                                                                    
                                                                                                    
                                                                                            
<?xpacket end="w"?></metadata>
<path d="M16.49,13.17,16.58,12a4.81,4.81,0,0,1,2.58-3.92.51.51,0,0,0,.27-.38A3.84,3.84,0,0,1,21.63,5a4,4,0,0,1,1.55-.32l.4,0h0a.49.49,0,0,0,.23-.06l.42-.28.42-.28a4.89,4.89,0,1,1,9.27,3.06,4.36,4.36,0,0,1,.48.5,4.65,4.65,0,0,1,.37,5l-.3.59Z" fill="#fff"/><path d="M29.35,1a4.4,4.4,0,0,1,4.39,4.39,4.23,4.23,0,0,1-.44,1.88,3.84,3.84,0,0,1,.72.65,4.17,4.17,0,0,1,.31,4.43l-.16.32H17l0-.65A4.35,4.35,0,0,1,19.39,8.5a1,1,0,0,0,.53-.73,3.37,3.37,0,0,1,1.91-2.35,3.5,3.5,0,0,1,1.35-.27,2.06,2.06,0,0,1,.35,0h.06a1.12,1.12,0,0,0,.46-.12c.17-.1.7-.48,1-.69A4.39,4.39,0,0,1,29.35,1m0-1a5.37,5.37,0,0,0-5.12,3.73L24,3.91l-.38.26a2.55,2.55,0,0,0-.39,0A4.31,4.31,0,0,0,19,7.56l0,.06a5.3,5.3,0,0,0-2.85,4.31l0,.67L16,13.67H34.77l.28-.54.17-.32a5.18,5.18,0,0,0-.4-5.48c-.09-.11-.2-.24-.32-.36a5.31,5.31,0,0,0,.24-1.58A5.4,5.4,0,0,0,29.35,0Z" fill="#fff"/><path d="M18.06,41.5V40.09l1.21-.61V25.76l6.46,1.83A4.84,4.84,0,0,1,29.35,26a4.9,4.9,0,0,1,4.89,4.9v8.63l1.19.61V41.5Z" fill="#fff"/><path d="M19.77,26.42l6.13,1.74a4.37,4.37,0,0,1,7.84,2.69s0,.1,0,.15v8.79l1.19.6V41H18.56v-.61l1.21-.6V26.42m-1-1.32V39.17l-.66.33-.55.28V42H35.92V39.78l-.54-.28-.65-.33V31.05a1.34,1.34,0,0,0,0-.2A5.37,5.37,0,0,0,25.57,27L20,25.46l-1.27-.36Z" fill="#fff"/><path d="M8.2,28.71C5.88,28.71.5,28.45.5,26V14.33c0-2.5,5.38-2.77,7.7-2.77s7.69.27,7.69,2.77v3.44h7.9a1,1,0,0,0,.45-.1l-1.48-1.45L26,12.92l3.25,3.3-1.58,1.55-.63-.64A3.3,3.3,0,0,1,23.79,20h-7.9v.22h7.9a3.3,3.3,0,0,1,3.27,2.85l.63-.63L29.27,24,26,27.26,22.76,24l1.48-1.46a1,1,0,0,0-.45-.1h-7.9V26C15.89,28.45,10.51,28.71,8.2,28.71Z" fill="#fff"/><path d="M8.2,12.06c.74,0,7.19.06,7.19,2.27v3.94h8.4a1.59,1.59,0,0,0,1.59-1.59V16l-1.05,1.06-.86-.85L26,13.64l2.54,2.57-.86.85-1.11-1.12v.74a2.8,2.8,0,0,1-2.8,2.8h-8.4V20.7h8.4a2.8,2.8,0,0,1,2.8,2.8v.74l1.11-1.12.86.85L26,26.55,23.47,24l.86-.85,1.05,1.06V23.5a1.59,1.59,0,0,0-1.59-1.59h-8.4V26c0,2.13-6.45,2.19-7.19,2.19S1,28.15,1,26V14.33c0-2.21,6.45-2.27,7.2-2.27m0-1c-3.06,0-8.2.43-8.2,3.27V26c0,2.78,5.14,3.19,8.2,3.19s8.19-.41,8.19-3.19V22.91h6.73l-.35.35-.72.7.71.71,2.54,2.58L26,28l.71-.72,2.54-2.58L30,24l-.72-.7-.86-.85-.71-.7-.37.37a3.79,3.79,0,0,0-1.85-2,3.79,3.79,0,0,0,1.85-2l.37.37.71-.7.86-.84.72-.71-.71-.71-2.54-2.58L26,12.21l-.72.72-2.54,2.58-.71.71.72.71.35.34H16.39V14.33c0-2.84-5.13-3.27-8.19-3.27Z" fill="#fff"/><path d="M33.41,11.45H26.24a1.51,1.51,0,0,1-1.5-1.53H23.53a2.73,2.73,0,0,0,2.71,2.75h7.93l.16-.32A4.17,4.17,0,0,0,34,7.92,5.82,5.82,0,0,1,33.26,9,3,3,0,0,1,33.41,11.45Z" fill="#2c5967"/><path d="M19.68,12.67h4.18a5.19,5.19,0,0,1-1.21-1.22H18.42A3.13,3.13,0,0,1,20,9.58,2.26,2.26,0,0,0,21.12,8a2.09,2.09,0,0,1,1.2-1.49,2.16,2.16,0,0,1,1.06-.17,2,2,0,0,0,.73,0A5.64,5.64,0,0,1,24,5.39a1.94,1.94,0,0,1,0-.34,1,1,0,0,1-.52.12,3.52,3.52,0,0,0-1.7.25,3.37,3.37,0,0,0-1.91,2.35,1,1,0,0,1-.53.73A4.35,4.35,0,0,0,17.08,12l0,.65h2.65Z" fill="#2c5967"/><path d="M25,5.39A4.4,4.4,0,1,0,29.35,1,4.4,4.4,0,0,0,25,5.39Zm7.58,0a3.18,3.18,0,1,1-3.18-3.18A3.18,3.18,0,0,1,32.53,5.39Z" fill="#2c5967"/><polygon points="28.76 5.33 28.24 4.82 27.38 5.68 28.76 7.06 31.15 4.68 30.29 3.82 28.76 5.33" fill="#2c5967"/><path d="M33.73,39.79h0V33.85a5.79,5.79,0,0,1-1.21,1.26v4.68h-3V36.15h-.13a6.38,6.38,0,0,1-1.08-.1v3.74h-2v-3H23v3H21V28l3.38,1a5.78,5.78,0,0,1,.56-1.11l-5.17-1.47V39.79l-1.21.6V41H34.92v-.61Zm-9.55,0V38h.91v1.82Z" fill="#2c5967"/><path d="M21.91,33.42h2.82a5,5,0,0,1-.49-1.21H21.92v1.21Z" fill="#2c5967"/><path d="M21.91,31.3h2.17a3.39,3.39,0,0,1,0-.45,4.68,4.68,0,0,1,.06-.76h-2.2V31.3Z" fill="#2c5967"/><path d="M21.91,35.55h5a5.19,5.19,0,0,1-1.53-1.22H21.91v1.22Z" fill="#2c5967"/><path d="M31.61,36.76V35.65a5,5,0,0,1-1.22.4v.71Z" fill="#2c5967"/><rect x="30.39" y="37.67" width="1.21" height="1.21" fill="#2c5967"/><path d="M25,30.85a4.4,4.4,0,1,0,4.4-4.4A4.4,4.4,0,0,0,25,30.85Zm7.58,0a3.18,3.18,0,1,1-3.18-3.18A3.18,3.18,0,0,1,32.53,30.85Z" fill="#2c5967"/><polygon points="28.76 30.79 28.24 30.27 27.38 31.14 28.76 32.52 31.15 30.14 30.29 29.27 28.76 30.79" fill="#2c5967"/><path d="M23.79,19.48a2.8,2.8,0,0,0,2.8-2.8v-.74l1.11,1.12.86-.85L26,13.64l-2.55,2.57.86.85L25.38,16v.68a1.59,1.59,0,0,1-1.59,1.59h-7.5v1.21ZM26,15.35l0,0H26Z" fill="#2c5967"/><path d="M23.79,21.91a1.59,1.59,0,0,1,1.59,1.59v.68l-1.05-1.06-.86.85L26,26.55,28.56,24l-.86-.85-1.11,1.12V23.5a2.8,2.8,0,0,0-2.8-2.8h-7.5v1.21ZM26,24.83l-.05,0h.1Z" fill="#2c5967"/><path d="M15.39,26V14.33c0-2.21-6.45-2.27-7.19-2.27S1,12.12,1,14.33V26c0,2.13,6.45,2.19,7.2,2.19S15.39,28.15,15.39,26Zm-1.21-3.91c-.32.37-2.51,1-6,1s-5.67-.66-6-1V19.53a19,19,0,0,0,6,.86,18.93,18.93,0,0,0,6-.86Zm-6-5.5c.53,0,4.07,0,6-.9v2.43c-.32.38-2.51,1-6,1s-5.67-.65-6-1V15.71C4.12,16.58,7.67,16.61,8.2,16.61Zm6-2.28c-.39.41-2.54,1.06-6,1.06s-5.56-.65-6-1.06c.4-.41,2.55-1.06,6-1.06S13.76,13.92,14.15,14.33ZM2.21,23.5a19,19,0,0,0,6,.86,18.93,18.93,0,0,0,6-.86V26c-.32.38-2.51,1-6,1s-5.67-.65-6-1Z" fill="#2c5967"/></svg>