<svg width="36" height="36" viewBox="0 0 36 36" fill="none" xmlns="http://www.w3.org/2000/svg">
<metadata><?xpacket begin="﻿" id="W5M0MpCehiHzreSzNTczkc9d"?>
<x:xmpmeta xmlns:x="adobe:ns:meta/" x:xmptk="Adobe XMP Core 7.1-c000 79.4d2f597, 2021/09/01-20:51:22        ">
   <rdf:RDF xmlns:rdf="http://www.w3.org/1999/02/22-rdf-syntax-ns#">
      <rdf:Description rdf:about=""
            xmlns:dc="http://purl.org/dc/elements/1.1/"
            xmlns:xmp="http://ns.adobe.com/xap/1.0/"
            xmlns:xmpMM="http://ns.adobe.com/xap/1.0/mm/"
            xmlns:stEvt="http://ns.adobe.com/xap/1.0/sType/ResourceEvent#"
            xmlns:xmpRights="http://ns.adobe.com/xap/1.0/rights/">
         <dc:subject>
            <rdf:Bag>
               <rdf:li>OS</rdf:li>
               <rdf:li>management</rdf:li>
               <rdf:li>gear</rdf:li>
               <rdf:li>hub</rdf:li>
            </rdf:Bag>
         </dc:subject>
         <dc:rights>
            <rdf:Alt>
               <rdf:li xml:lang="x-default">Oracle All Rights</rdf:li>
            </rdf:Alt>
         </dc:rights>
         <xmp:MetadataDate>2025-02-06T15:37:27-06:00</xmp:MetadataDate>
         <xmpMM:InstanceID>xmp.iid:780e9c34-eca0-40c3-a01e-ec570b7bd956</xmpMM:InstanceID>
         <xmpMM:DocumentID>xmp.did:2551e32c-6cd0-4098-9311-de308d85b943</xmpMM:DocumentID>
         <xmpMM:OriginalDocumentID>xmp.did:2551e32c-6cd0-4098-9311-de308d85b943</xmpMM:OriginalDocumentID>
         <xmpMM:History>
            <rdf:Seq>
               <rdf:li>
                  <rdf:Description>
                     <stEvt:action>saved</stEvt:action>
                     <stEvt:instanceID>xmp.iid:2551e32c-6cd0-4098-9311-de308d85b943</stEvt:instanceID>
                     <stEvt:when>2025-02-06T15:37:13-06:00</stEvt:when>
                     <stEvt:softwareAgent>Adobe Bridge 2023</stEvt:softwareAgent>
                     <stEvt:changed>/metadata</stEvt:changed>
                  </rdf:Description>
               </rdf:li>
               <rdf:li>
                  <rdf:Description>
                     <stEvt:action>saved</stEvt:action>
                     <stEvt:instanceID>xmp.iid:780e9c34-eca0-40c3-a01e-ec570b7bd956</stEvt:instanceID>
                     <stEvt:when>2025-02-06T15:37:27-06:00</stEvt:when>
                     <stEvt:softwareAgent>Adobe Bridge 2023</stEvt:softwareAgent>
                     <stEvt:changed>/metadata</stEvt:changed>
                  </rdf:Description>
               </rdf:li>
            </rdf:Seq>
         </xmpMM:History>
         <xmpRights:Marked>True</xmpRights:Marked>
      </rdf:Description>
   </rdf:RDF>
</x:xmpmeta>
                                                                                                    
                                                                                                    
                                                                                                    
                                                                                                    
                                                                                                    
                                                                                                    
                                                                                                    
                                                                                                    
                                                                                                    
                                                                                                    
                                                                                                    
                                                                                                    
                                                              
<?xpacket end="w"?></metadata>
<path d="M35.2449 25.2432L34.7358 24.9802V24.9632L35.2109 24.6578L35.9236 24.1911L35.457 23.4784L34.3031 21.7221L33.8364 21.0179L33.1237 21.4846L32.708 21.7561L32.691 21.2724L32.6571 20.4155L31.8001 20.4579L31.0026 20.5004L31.2317 20.1185L30.4935 19.6858L30.0014 19.3974L30.4935 19.1004L31.2317 18.6762L30.799 17.938L29.7384 16.1308L29.3057 15.4011L28.576 15.8254L28.1518 16.0799V14.7309H24.3677V15.5708L24.3507 16.0884L23.9095 15.8254L23.7992 15.7575L23.8162 15.732L23.375 15.2654C21.9665 13.806 20.0745 13 18.0467 13C16.0189 13 13.9995 13.8654 12.5996 15.3757C12.379 15.6132 12.0735 15.749 11.7257 15.749C11.6917 15.749 11.6493 15.749 11.6069 15.749C11.4117 15.732 11.2251 15.7235 11.0299 15.7235C10.19 15.7235 9.33302 15.9017 8.56092 16.2411C6.71977 17.0471 5.3877 18.7101 4.99741 20.687C4.92105 21.0603 4.68348 21.3827 4.32713 21.5694C1.90054 22.8336 0.330898 25.2263 0.127268 27.9668L0.0678765 28.688L0 29.6043H5.42164C6.15979 32.9896 9.17181 35.535 12.7693 35.535C16.3667 35.535 19.3872 32.9896 20.1169 29.6043H29.3057L29.3226 29.9267L30.1711 29.8843L32.2753 29.774L33.1237 29.7316L33.0813 28.8831L33.0559 28.3825L33.4971 28.6116L34.2522 29.0019L34.6425 28.2468L35.6097 26.3802L36 25.6335L35.2449 25.2432Z" fill="#FBF9F8"/>
<path d="M27.2949 23.2155V22.0955C27.5664 21.9937 27.8125 21.841 28.0416 21.6628L29.0088 22.2312L30.0694 20.4155L29.1106 19.8556C29.1361 19.7028 29.1615 19.5501 29.1615 19.3889C29.1615 19.2277 29.1361 19.075 29.1106 18.9223L30.0694 18.3623L29.0088 16.5551L28.0416 17.1235C27.8125 16.9454 27.5664 16.7926 27.2949 16.6908L27.3119 15.5793H25.2162L25.1993 16.6908C24.9278 16.8011 24.6817 16.9454 24.4611 17.1235L23.4854 16.5551L22.4248 18.3623L23.4005 18.9307C23.3751 19.0835 23.3581 19.2277 23.3581 19.3889C23.3581 19.5501 23.3836 19.6944 23.4005 19.8471L22.4248 20.4155L23.4854 22.2312L24.4611 21.6628C24.6817 21.841 24.9278 21.9852 25.1908 22.0955V23.2155H27.3034H27.2949ZM24.6987 19.3974C24.6987 18.5405 25.3944 17.8447 26.2513 17.8447C27.1083 17.8447 27.804 18.5405 27.804 19.3974C27.804 20.2543 27.1083 20.9501 26.2513 20.9501C25.3944 20.9501 24.6987 20.2543 24.6987 19.3974Z" fill="#2D5967"/>
<path d="M33.8876 27.8564L34.8548 25.9898L33.8706 25.4807C33.8876 25.328 33.896 25.1753 33.8876 25.0141C33.8876 24.8529 33.8536 24.7002 33.8197 24.5559L34.7445 23.945L33.5906 22.1887L32.6573 22.7996C32.4197 22.6299 32.1652 22.4942 31.8852 22.4008L31.8428 21.2979L29.7471 21.4082L29.7895 22.5196C29.5265 22.6384 29.2889 22.7996 29.0768 22.9948L28.0756 22.4772L27.1084 24.3438L28.1096 24.8614C28.0926 25.0141 28.0841 25.1668 28.0926 25.3195C28.0926 25.4723 28.1265 25.625 28.1605 25.7692L27.2187 26.3886L28.3726 28.1449L29.3144 27.5255C29.552 27.6952 29.798 27.8225 30.0695 27.9158L30.1289 29.0358L32.2331 28.9255L32.1737 27.814C32.4367 27.6952 32.6743 27.534 32.8949 27.3389L33.8876 27.8564ZM32.1397 26.2019C31.8598 26.5074 31.4779 26.694 31.0707 26.711C30.6465 26.7365 30.2562 26.5922 29.9507 26.3122C29.6453 26.0322 29.4586 25.6589 29.4417 25.2432C29.4162 24.8274 29.5604 24.4287 29.8404 24.1232C30.1204 23.8178 30.4937 23.6311 30.9095 23.6141C30.9095 23.6141 30.9604 23.6141 30.9943 23.6141C31.3761 23.6141 31.741 23.7499 32.0294 24.0129C32.3349 24.2929 32.5215 24.6747 32.5385 25.082C32.564 25.4977 32.4197 25.8965 32.1397 26.2019Z" fill="#2D5967"/>
<path d="M27.6088 28.7558L27.5409 28.654L26.7179 27.4067H20.3884C20.4054 27.6104 20.4224 27.814 20.4224 28.0176C20.4224 28.2637 20.4054 28.5182 20.3884 28.7558H27.6173H27.6088Z" fill="#2D5967"/>
<path d="M9.44343 18.2519C10.0628 17.9804 10.7331 17.8701 11.3949 17.9379C12.4639 18.0398 13.4991 17.658 14.2118 16.8774C15.196 15.8168 16.5874 15.2059 18.0383 15.2059C19.6164 15.2059 21.0588 15.9101 22.0345 17.081L22.6115 16.0968L22.7557 15.8507C21.5424 14.5865 19.854 13.8484 18.0383 13.8484C16.2226 13.8484 14.4578 14.612 13.2191 15.9526C12.7863 16.4107 12.167 16.6398 11.5221 16.5804C10.6313 16.4956 9.72342 16.6398 8.89193 17.0046C7.30532 17.7004 6.1599 19.1343 5.82052 20.8397C5.69325 21.4675 5.29448 22.0021 4.71753 22.3075C2.54548 23.4444 1.14553 25.5825 0.958866 28.0261L0.907959 28.7558H5.12479V28.2128C5.12479 28.1449 5.1163 28.0855 5.1163 28.0176C5.1163 27.9497 5.1163 27.8903 5.12479 27.8225V27.4067H2.40973C2.74911 25.7437 3.80968 24.3183 5.34539 23.5123C6.28717 23.0202 6.94897 22.1378 7.1526 21.1112C7.39865 19.847 8.25559 18.7779 9.43495 18.2604L9.44343 18.2519Z" fill="#2D5967"/>
<path d="M12.7695 21.3403C9.09564 21.3403 6.10059 24.3354 6.10059 28.0092C6.10059 31.683 9.09564 34.6781 12.7695 34.6781C16.4433 34.6781 19.4383 31.683 19.4383 28.0092C19.4383 24.3354 16.4433 21.3403 12.7695 21.3403ZM12.7695 33.329C9.84228 33.329 7.45812 30.9449 7.45812 28.0092C7.45812 25.0735 9.84228 22.6979 12.7695 22.6979C15.6966 22.6979 18.0808 25.082 18.0808 28.0092C18.0808 30.9364 15.6966 33.329 12.7695 33.329Z" fill="#2D5967"/>
<path d="M14.5087 26.9401L14.9075 27.3389H13.3803V25.7438L13.7875 26.1426L14.7463 25.1838L12.71 23.156L10.6822 25.1838L11.6324 26.1426L12.0227 25.7523V27.3389H10.5973L10.9961 26.9316L10.0288 25.9814L8.00952 28.0092L10.0288 30.0455L10.9961 29.0867L10.5973 28.6879H12.0227V30.2746L11.6324 29.8843L10.6822 30.843L12.71 32.8708L14.7463 30.843L13.7875 29.8843L13.3803 30.283V28.6879H14.8905L14.5002 29.0952L15.4675 30.037L17.4868 27.9668L15.459 25.9729L14.5087 26.9401Z" fill="#2D5967"/>
</svg>
