<svg id="Layer_1" data-name="Layer 1" xmlns="http://www.w3.org/2000/svg" viewBox="0 0 47.1 42"><metadata><?xpacket begin="﻿" id="W5M0MpCehiHzreSzNTczkc9d"?>
<x:xmpmeta xmlns:x="adobe:ns:meta/" x:xmptk="Adobe XMP Core 6.0-c006 79.164648, 2021/01/12-15:52:29        ">
   <rdf:RDF xmlns:rdf="http://www.w3.org/1999/02/22-rdf-syntax-ns#">
      <rdf:Description rdf:about=""
            xmlns:dc="http://purl.org/dc/elements/1.1/"
            xmlns:xmp="http://ns.adobe.com/xap/1.0/"
            xmlns:xmpMM="http://ns.adobe.com/xap/1.0/mm/"
            xmlns:stEvt="http://ns.adobe.com/xap/1.0/sType/ResourceEvent#"
            xmlns:lr="http://ns.adobe.com/lightroom/1.0/">
         <dc:subject>
            <rdf:Bag>
               <rdf:li>operating system</rdf:li>
               <rdf:li>manage</rdf:li>
               <rdf:li>administration</rdf:li>
               <rdf:li>monitor</rdf:li>
               <rdf:li>device</rdf:li>
               <rdf:li>computer</rdf:li>
               <rdf:li>icon</rdf:li>
            </rdf:Bag>
         </dc:subject>
         <xmp:MetadataDate>2022-12-08T14:01:11-06:00</xmp:MetadataDate>
         <xmpMM:InstanceID>xmp.iid:622c2073-78b9-460f-9020-7d738e8b133e</xmpMM:InstanceID>
         <xmpMM:DocumentID>xmp.did:8accc7d3-3e4b-424e-8d93-0757bc71bdc6</xmpMM:DocumentID>
         <xmpMM:OriginalDocumentID>xmp.did:8accc7d3-3e4b-424e-8d93-0757bc71bdc6</xmpMM:OriginalDocumentID>
         <xmpMM:History>
            <rdf:Seq>
               <rdf:li>
                  <rdf:Description>
                     <stEvt:action>saved</stEvt:action>
                     <stEvt:instanceID>xmp.iid:8accc7d3-3e4b-424e-8d93-0757bc71bdc6</stEvt:instanceID>
                     <stEvt:when>2022-12-08T13:55:18-06:00</stEvt:when>
                     <stEvt:softwareAgent>Adobe Bridge 2021 (Macintosh)</stEvt:softwareAgent>
                     <stEvt:changed>/metadata</stEvt:changed>
                  </rdf:Description>
               </rdf:li>
               <rdf:li>
                  <rdf:Description>
                     <stEvt:action>saved</stEvt:action>
                     <stEvt:instanceID>xmp.iid:622c2073-78b9-460f-9020-7d738e8b133e</stEvt:instanceID>
                     <stEvt:when>2022-12-08T14:01:11-06:00</stEvt:when>
                     <stEvt:softwareAgent>Adobe Bridge 2021 (Macintosh)</stEvt:softwareAgent>
                     <stEvt:changed>/metadata</stEvt:changed>
                  </rdf:Description>
               </rdf:li>
            </rdf:Seq>
         </xmpMM:History>
         <lr:hierarchicalSubject>
            <rdf:Bag>
               <rdf:li>Other Keywords|icon</rdf:li>
            </rdf:Bag>
         </lr:hierarchicalSubject>
      </rdf:Description>
   </rdf:RDF>
</x:xmpmeta>
                                                                                                    
                                                                                                    
                                                                                                    
                                                                                                    
                                                                                                    
                                                                                                    
                                                                                                    
                                                                                                    
                                                                                                    
                                                                                                    
                                                                                                    
                                                                                                    
                         
<?xpacket end="w"?></metadata>
<polygon points="30.18 11.26 28.65 12.78 30.29 14.42 24.62 14.42 24.62 8.76 26.11 10.24 27.62 8.72 23.43 4.55 19.24 8.72 20.76 10.24 22.48 8.53 22.48 14.42 16.6 14.42 18.23 12.78 16.71 11.26 12.54 15.46 16.71 19.65 18.23 18.14 16.67 16.57 22.48 16.57 22.48 22.39 20.76 20.68 19.24 22.2 23.43 26.37 27.62 22.2 26.11 20.68 24.62 22.15 24.62 16.57 30.21 16.57 28.65 18.14 30.18 19.65 34.34 15.46 30.18 11.26" fill="#2c5967"/><polygon points="12.04 41.5 12.04 39.62 14.57 38.35 16.37 38.35 16.71 35.86 0.5 35.86 0.5 0.5 46.6 0.5 46.6 35.86 30.66 35.86 31 38.35 32.8 38.35 35.33 39.62 35.33 41.5 12.04 41.5" fill="#fff"/><path d="M46.1,1V35.36h-16l.47,3.49h2.12l2.15,1.08V41H12.54V39.93l2.15-1.08h2.12l.47-3.49H1V1H46.1m1-1H0V36.36H16.14l-.21,1.49H14.46l-.22.11L12.09,39l-.55.28V42H35.83V39.31L35.28,39,33.12,38l-.21-.11H31.43l-.2-1.49H47.1V0Z" fill="#fff"/><polygon points="30.18 11.26 28.65 12.78 30.29 14.42 24.62 14.42 24.62 8.76 26.11 10.24 27.62 8.72 23.43 4.55 19.24 8.72 20.76 10.24 22.48 8.53 22.48 14.42 16.6 14.42 18.23 12.78 16.71 11.26 12.54 15.46 16.71 19.65 18.23 18.14 16.67 16.57 22.48 16.57 22.48 22.39 20.76 20.68 19.24 22.2 23.43 26.37 27.62 22.2 26.11 20.68 24.62 22.15 24.62 16.57 30.21 16.57 28.65 18.14 30.18 19.65 34.34 15.46 30.18 11.26" fill="#2c5967"/><path d="M46.1,1H1V35.36H17.28l-.47,3.49H14.69l-2.15,1.08V41H34.83V39.93l-2.15-1.08H30.56l-.47-3.49h16ZM19,38.85l.48-3.49h8.47l.47,3.49Zm25-5.64H3.15V30H44Zm0-5.36H3.15V3.15H44Z" fill="#2c5967"/></svg>