<svg id="Layer_1" data-name="Layer 1" xmlns="http://www.w3.org/2000/svg" viewBox="0 0 42.08 42"><defs><style>.cls-1{fill:#fff;}.cls-2{fill:#2c5967;}</style></defs><title>Oracle Session Delivery Management Cloud OSDMC</title><metadata><?xpacket begin="﻿" id="W5M0MpCehiHzreSzNTczkc9d"?>
<x:xmpmeta xmlns:x="adobe:ns:meta/" x:xmptk="Adobe XMP Core 6.0-c006 79.164648, 2021/01/12-15:52:29        ">
   <rdf:RDF xmlns:rdf="http://www.w3.org/1999/02/22-rdf-syntax-ns#">
      <rdf:Description rdf:about=""
            xmlns:dc="http://purl.org/dc/elements/1.1/"
            xmlns:lr="http://ns.adobe.com/lightroom/1.0/"
            xmlns:xmp="http://ns.adobe.com/xap/1.0/"
            xmlns:xmpMM="http://ns.adobe.com/xap/1.0/mm/"
            xmlns:stEvt="http://ns.adobe.com/xap/1.0/sType/ResourceEvent#"
            xmlns:xmpRights="http://ns.adobe.com/xap/1.0/rights/">
         <dc:title>
            <rdf:Alt>
               <rdf:li xml:lang="x-default">Oracle Session Delivery Management Cloud OSDMC</rdf:li>
            </rdf:Alt>
         </dc:title>
         <dc:subject>
            <rdf:Bag>
               <rdf:li>icon</rdf:li>
               <rdf:li>OSDMC</rdf:li>
            </rdf:Bag>
         </dc:subject>
         <dc:rights>
            <rdf:Alt>
               <rdf:li xml:lang="x-default">Oracle All Rights Reserved</rdf:li>
            </rdf:Alt>
         </dc:rights>
         <lr:hierarchicalSubject>
            <rdf:Bag>
               <rdf:li>icon</rdf:li>
            </rdf:Bag>
         </lr:hierarchicalSubject>
         <xmp:MetadataDate>2021-07-21T19:19:26-05:00</xmp:MetadataDate>
         <xmpMM:InstanceID>xmp.iid:7f5c36a6-ee7e-4e7a-8ce5-c9c49fdf68b3</xmpMM:InstanceID>
         <xmpMM:DocumentID>xmp.did:8988fe73-292e-49fa-a298-da7e86d513c7</xmpMM:DocumentID>
         <xmpMM:OriginalDocumentID>xmp.did:8988fe73-292e-49fa-a298-da7e86d513c7</xmpMM:OriginalDocumentID>
         <xmpMM:History>
            <rdf:Seq>
               <rdf:li>
                  <rdf:Description>
                     <stEvt:action>saved</stEvt:action>
                     <stEvt:instanceID>xmp.iid:8988fe73-292e-49fa-a298-da7e86d513c7</stEvt:instanceID>
                     <stEvt:when>2021-06-18T11:42-05:00</stEvt:when>
                     <stEvt:softwareAgent>Adobe Bridge 2021 (Macintosh)</stEvt:softwareAgent>
                     <stEvt:changed>/metadata</stEvt:changed>
                  </rdf:Description>
               </rdf:li>
               <rdf:li>
                  <rdf:Description>
                     <stEvt:action>saved</stEvt:action>
                     <stEvt:instanceID>xmp.iid:7f5c36a6-ee7e-4e7a-8ce5-c9c49fdf68b3</stEvt:instanceID>
                     <stEvt:when>2021-07-21T19:19:26-05:00</stEvt:when>
                     <stEvt:softwareAgent>Adobe Bridge 2021 (Macintosh)</stEvt:softwareAgent>
                     <stEvt:changed>/metadata</stEvt:changed>
                  </rdf:Description>
               </rdf:li>
            </rdf:Seq>
         </xmpMM:History>
         <xmpRights:Marked>True</xmpRights:Marked>
      </rdf:Description>
   </rdf:RDF>
</x:xmpmeta>
                                                                                                    
                                                                                                    
                                                                                                    
                                                                                                    
                                                                                                    
                                                                                                    
                                                                                                    
                                                                                                    
                                                                                                    
                                                                                                    
                                                                                                    
                                                                                                    

<?xpacket end="w"?></metadata>
<path class="cls-1" d="M28.3,41.5A3.4,3.4,0,0,1,26.94,35v-.14H22.57V35a3.4,3.4,0,1,1-2.72,0v-.14H15.48V35a3.4,3.4,0,1,1-2.72,0V32.12h7.09V32H17.94l-.27-2.39L15.8,31.1l-4.63-4.62,1.51-1.88-2.39-.27V21.48H.54L.65,20A9.87,9.87,0,0,1,6,12,2.38,2.38,0,0,0,7.2,10.29a7.63,7.63,0,0,1,4.4-5.5,7.84,7.84,0,0,1,3.06-.64,5.48,5.48,0,0,1,.7,0h.25a2.26,2.26,0,0,0,1.67-.72A9.31,9.31,0,0,1,32.44,5.65,2.46,2.46,0,0,0,34.12,7a9.22,9.22,0,0,1,3,1.24,9.53,9.53,0,0,1,3.31,12.57l-.38.71H32.13v2.85l-2.39.27,1.5,1.88L26.62,31.1l-1.88-1.5L24.47,32h-1.9v.13h7.09V35A3.4,3.4,0,0,1,28.3,41.5Z"/><path class="cls-1" d="M24.11,1A8.76,8.76,0,0,1,32,5.88a2.94,2.94,0,0,0,2,1.56,9.16,9.16,0,0,1,2.86,1.18A9,9,0,0,1,40,20.53l-.24.45H31.63v2.91l-2.54.28c0,.09-.07.19-.11.28l1.59,2-4,4-2-1.59-.28.11L24,31.49h-2v1.13h7.09v2.71a2.9,2.9,0,1,1-1.72,0v-1H22.07v1a2.9,2.9,0,1,1-1.72,0v-1H15v1a2.9,2.9,0,1,1-1.72,0V32.62h7.09V31.49h-2L18.11,29l-.28-.11-2,1.59-4-4,1.6-2-.12-.28-2.53-.28V21H1.08l.07-.92a9.37,9.37,0,0,1,5-7.66,3,3,0,0,0,1.52-2,7.09,7.09,0,0,1,4.1-5.13,7.22,7.22,0,0,1,2.86-.6l.66,0,.29,0a2.78,2.78,0,0,0,2-.88A8.85,8.85,0,0,1,24.11,1m0-1a9.82,9.82,0,0,0-7.19,3.14,1.78,1.78,0,0,1-1.31.56h-.2a6.28,6.28,0,0,0-.75,0,8.12,8.12,0,0,0-7.95,6.54,1.91,1.91,0,0,1-1,1.32A10.41,10.41,0,0,0,.15,20l-.07.92L0,22H9.79v2.8l.89.1,1,.12-.66.82-.56.7.64.63,4,4,.48.48H12.26v3.05a3.9,3.9,0,1,0,5.4,5.06,3.9,3.9,0,0,0,7.09,0,3.9,3.9,0,1,0,5.41-5.06V31.62H26.81l.48-.48,4-4,.63-.63-.56-.7L30.69,25l1-.12.89-.1V22h7.73l.28-.52.24-.45A10,10,0,0,0,34.23,6.47a2,2,0,0,1-1.34-1A9.77,9.77,0,0,0,24.11,0ZM25,31.62v0l.12-1.05.82.66.51.41Zm-9.07,0,.51-.41.82-.65.11,1v0Zm8,3.72h1.57a3.85,3.85,0,0,0-.79,1.12A3.82,3.82,0,0,0,24,35.34Zm-7.09,0h1.57a3.67,3.67,0,0,0-.79,1.12,3.82,3.82,0,0,0-.78-1.12Z"/><path class="cls-2" d="M36.87,8.62A9.16,9.16,0,0,0,34,7.44a2.94,2.94,0,0,1-2-1.56A8.76,8.76,0,0,0,24.11,1a8.85,8.85,0,0,0-6.46,2.82,2.78,2.78,0,0,1-2.33.86,7.21,7.21,0,0,0-3.52.57,7.09,7.09,0,0,0-4.1,5.13,2.91,2.91,0,0,1-1.52,2,9.4,9.4,0,0,0-5,7.67L1.08,21H9.5V19.26H3a7.7,7.7,0,0,1,4-5.34,4.6,4.6,0,0,0,2.4-3.21,5.37,5.37,0,0,1,3.11-3.88,5.42,5.42,0,0,1,2.66-.44A4.49,4.49,0,0,0,18.91,5a7.12,7.12,0,0,1,5.2-2.27,7,7,0,0,1,6.34,3.92,4.7,4.7,0,0,0,3.19,2.48,7.19,7.19,0,0,1,2.31,1,7.32,7.32,0,0,1,2.76,9.19H32.92V21h6.84l.24-.45A9,9,0,0,0,36.87,8.62Z"/><path class="cls-2" d="M25.41,21.07a4.2,4.2,0,1,0-4.2,4.2A4.21,4.21,0,0,0,25.41,21.07Zm-4.2,2.48a2.48,2.48,0,1,1,2.48-2.48A2.49,2.49,0,0,1,21.21,23.55Z"/><path class="cls-2" d="M22.07,31.49h2L24.31,29l.28-.11,2,1.59,4-4-1.59-2c0-.09.07-.19.11-.28l2.54-.28V18.25L29.09,18c0-.1-.07-.19-.11-.28l1.59-2-4-4-2,1.59-.28-.12L24,10.65H18.39l-.28,2.53-.28.12-2-1.59-4,4,1.6,2-.12.28-2.53.28v5.64l2.53.28.12.28-1.6,2,4,4,2-1.59.28.11.28,2.54h2v1.13H13.26v2.71a2.9,2.9,0,1,0,1.72,0v-1h5.37v1a2.9,2.9,0,1,0,1.72,0v-1h5.37v1a2.9,2.9,0,1,0,1.72,0V32.62H22.07V31.49Zm-2.38-3.82-.53-.17a6.92,6.92,0,0,1-1.06-.43l-.49-.26L16,28.13l-1.81-1.81,1.32-1.65-.26-.5a6.57,6.57,0,0,1-.44-1.06l-.17-.53-2.09-.23V19.79l2.09-.24.17-.53A6.47,6.47,0,0,1,15.21,18l.26-.5-1.32-1.65L16,14l1.65,1.32.49-.26a7,7,0,0,1,1.06-.44l.53-.17.24-2.09h2.56l.23,2.09.53.17a6.57,6.57,0,0,1,1.06.44l.5.26L26.45,14l1.82,1.81L27,17.47l.26.5A6.43,6.43,0,0,1,27.64,19l.17.53,2.1.24v2.56l-2.1.23-.17.53a6.53,6.53,0,0,1-.43,1.06l-.26.5,1.32,1.65-1.82,1.81-1.64-1.32-.5.26a6.53,6.53,0,0,1-1.06.43l-.53.17-.23,2.1H19.93ZM14.12,39.28A1.18,1.18,0,1,1,15.3,38.1,1.18,1.18,0,0,1,14.12,39.28Zm7.09,0a1.18,1.18,0,1,1,1.18-1.18A1.18,1.18,0,0,1,21.21,39.28Zm7.09,0a1.18,1.18,0,1,1,1.18-1.18A1.18,1.18,0,0,1,28.3,39.28Z"/></svg>