<svg id="Layer_1" data-name="Layer 1" xmlns="http://www.w3.org/2000/svg" viewBox="0 0 37.82 42"><metadata><?xpacket begin="﻿" id="W5M0MpCehiHzreSzNTczkc9d"?>
<x:xmpmeta xmlns:x="adobe:ns:meta/" x:xmptk="Adobe XMP Core 6.0-c006 79.164648, 2021/01/12-15:52:29        ">
   <rdf:RDF xmlns:rdf="http://www.w3.org/1999/02/22-rdf-syntax-ns#">
      <rdf:Description rdf:about=""
            xmlns:dc="http://purl.org/dc/elements/1.1/"
            xmlns:xmp="http://ns.adobe.com/xap/1.0/"
            xmlns:xmpMM="http://ns.adobe.com/xap/1.0/mm/"
            xmlns:stEvt="http://ns.adobe.com/xap/1.0/sType/ResourceEvent#"
            xmlns:lr="http://ns.adobe.com/lightroom/1.0/"
            xmlns:xmpRights="http://ns.adobe.com/xap/1.0/rights/">
         <dc:subject>
            <rdf:Bag>
               <rdf:li>data</rdf:li>
               <rdf:li>database</rdf:li>
               <rdf:li>force</rdf:li>
               <rdf:li>move suction</rdf:li>
               <rdf:li>compress</rdf:li>
               <rdf:li>raise</rdf:li>
               <rdf:li>icon</rdf:li>
            </rdf:Bag>
         </dc:subject>
         <dc:rights>
            <rdf:Alt>
               <rdf:li xml:lang="x-default">Oracle All Rights</rdf:li>
            </rdf:Alt>
         </dc:rights>
         <xmp:MetadataDate>2023-04-12T12:13:31-06:00</xmp:MetadataDate>
         <xmpMM:InstanceID>xmp.iid:b6a98d50-636e-4950-88ee-508c5be5acc1</xmpMM:InstanceID>
         <xmpMM:DocumentID>xmp.did:a6dd09d7-43c6-443a-8806-d3553b592802</xmpMM:DocumentID>
         <xmpMM:OriginalDocumentID>xmp.did:a6dd09d7-43c6-443a-8806-d3553b592802</xmpMM:OriginalDocumentID>
         <xmpMM:History>
            <rdf:Seq>
               <rdf:li>
                  <rdf:Description>
                     <stEvt:action>saved</stEvt:action>
                     <stEvt:instanceID>xmp.iid:a6dd09d7-43c6-443a-8806-d3553b592802</stEvt:instanceID>
                     <stEvt:when>2023-04-12T11:19:44-06:00</stEvt:when>
                     <stEvt:softwareAgent>Adobe Bridge 2021 (Macintosh)</stEvt:softwareAgent>
                     <stEvt:changed>/metadata</stEvt:changed>
                  </rdf:Description>
               </rdf:li>
               <rdf:li>
                  <rdf:Description>
                     <stEvt:action>saved</stEvt:action>
                     <stEvt:instanceID>xmp.iid:b6a98d50-636e-4950-88ee-508c5be5acc1</stEvt:instanceID>
                     <stEvt:when>2023-04-12T12:13:31-06:00</stEvt:when>
                     <stEvt:softwareAgent>Adobe Bridge 2021 (Macintosh)</stEvt:softwareAgent>
                     <stEvt:changed>/metadata</stEvt:changed>
                  </rdf:Description>
               </rdf:li>
            </rdf:Seq>
         </xmpMM:History>
         <lr:hierarchicalSubject>
            <rdf:Bag>
               <rdf:li>Other Keywords|icon</rdf:li>
            </rdf:Bag>
         </lr:hierarchicalSubject>
         <xmpRights:Marked>True</xmpRights:Marked>
      </rdf:Description>
   </rdf:RDF>
</x:xmpmeta>
                                                                                                    
                                                                                                    
                                                                                                    
                                                                                                    
                                                                                                    
                                                                                                    
                                                                                                    
                                                                                                    
                                                                                                    
                                                                                                    
                            
<?xpacket end="w"?></metadata>
<path d="M18.91,41.5C17,41.5.5,41.35.5,36.07V6.48a1.21,1.21,0,0,1,0-.19,1.77,1.77,0,0,1,0-.23C.5,2,10.42.5,18.91.5S37.32,2,37.32,6.06a1.79,1.79,0,0,1,0,.23,1.23,1.23,0,0,1,0,.19V36.07C37.32,41.35,20.79,41.5,18.91,41.5Z" fill="#fff"/><path d="M18.91,1c8.62,0,17.91,1.58,17.91,5.06a2.29,2.29,0,0,1,0,.25.88.88,0,0,1,0,.17V36.07C36.82,40,25.1,41,18.91,41S1,40,1,36.07V6.48a.88.88,0,0,1,0-.17,2.29,2.29,0,0,1,0-.25C1,2.58,10.28,1,18.91,1m0-1C15.75,0,0,.29,0,6.06a1.85,1.85,0,0,0,0,.23,1.15,1.15,0,0,0,0,.19V36.07C0,41.71,15.75,42,18.91,42s18.91-.29,18.91-5.93V6.48c0-.07,0-.13,0-.19s0-.16,0-.23C37.82.29,22.07,0,18.91,0Z" fill="#fff"/><path d="M36.82,6.06C36.82,2.58,27.53,1,18.91,1S1,2.58,1,6.06a2.29,2.29,0,0,0,0,.25.88.88,0,0,0,0,.17V36.07C1,40,12.71,41,18.91,41s17.91-1,17.91-4.93V6.48a.88.88,0,0,0,0-.17A2.29,2.29,0,0,0,36.82,6.06Zm-6,32.08a53.31,53.31,0,0,1-11.87,1.17A53.25,53.25,0,0,1,7,38.14c-3.56-.85-4.35-1.8-4.35-2.07V28.46a22.08,22.08,0,0,0,7.58,2.09,12.35,12.35,0,0,1-1.22-1.88c-.71-.13-1.38-.26-2-.41-3.56-.85-4.35-1.81-4.35-2.07V18.72A17.37,17.37,0,0,0,8.1,20.46a11.27,11.27,0,0,1,.54-1.61c-.56-.1-1.09-.21-1.6-.33-3.56-.85-4.35-1.81-4.35-2.07V8.37c3.06,1.87,9.82,2.74,16.22,2.74s13.16-.87,16.22-2.74v8.08c0,.26-.8,1.22-4.35,2.07L30,18.7a12.62,12.62,0,0,1,.56,1.6,15.73,15.73,0,0,0,4.62-1.58v7.47c0,.26-.8,1.22-4.35,2.07l-1.08.23a11.28,11.28,0,0,1-1.21,1.92,20,20,0,0,0,6.64-1.95v7.61C35.13,36.34,34.33,37.29,30.78,38.14ZM18.91,2.69A51.86,51.86,0,0,1,30.77,3.9c3.58.88,4.36,1.85,4.36,2.16s-.78,1.28-4.36,2.16A51.86,51.86,0,0,1,18.91,9.43,52,52,0,0,1,7,8.22C3.47,7.34,2.69,6.36,2.69,6.06S3.47,4.78,7,3.9A52,52,0,0,1,18.91,2.69Z" fill="#2c5967"/><path d="M29.65,23.33A10.32,10.32,0,1,0,19.33,33.66,10.33,10.33,0,0,0,29.65,23.33Zm-19,0A8.64,8.64,0,1,1,19.33,32,8.66,8.66,0,0,1,10.69,23.33Z" fill="#2c5967"/><polygon points="18.3 21.41 17.21 22.5 18.4 23.69 21.52 20.57 18.4 17.45 17.21 18.64 18.29 19.72 13.03 19.72 13.03 21.41 18.3 21.41" fill="#2c5967"/><polygon points="20.23 29.56 21.42 28.36 20.39 27.34 25.23 27.34 25.23 25.65 20.28 25.65 21.42 24.51 20.23 23.32 17.11 26.44 20.23 29.56" fill="#2c5967"/></svg>