<svg id="Layer_1" data-name="Layer 1" xmlns="http://www.w3.org/2000/svg" viewBox="0 0 41.91 41.91"><defs><style>.cls-1{fill:#fff;}.cls-2{fill:#2c5967;}</style></defs><title>Java Cloud Service</title><metadata><?xpacket begin="﻿" id="W5M0MpCehiHzreSzNTczkc9d"?>
<x:xmpmeta xmlns:x="adobe:ns:meta/" x:xmptk="Adobe XMP Core 6.0-c006 79.164648, 2021/01/12-15:52:29        ">
   <rdf:RDF xmlns:rdf="http://www.w3.org/1999/02/22-rdf-syntax-ns#">
      <rdf:Description rdf:about=""
            xmlns:dc="http://purl.org/dc/elements/1.1/"
            xmlns:lr="http://ns.adobe.com/lightroom/1.0/"
            xmlns:xmp="http://ns.adobe.com/xap/1.0/"
            xmlns:xmpMM="http://ns.adobe.com/xap/1.0/mm/"
            xmlns:stEvt="http://ns.adobe.com/xap/1.0/sType/ResourceEvent#"
            xmlns:xmpRights="http://ns.adobe.com/xap/1.0/rights/">
         <dc:title>
            <rdf:Alt>
               <rdf:li xml:lang="x-default">Java Cloud Service</rdf:li>
            </rdf:Alt>
         </dc:title>
         <dc:subject>
            <rdf:Bag>
               <rdf:li>icon</rdf:li>
               <rdf:li>programming</rdf:li>
               <rdf:li>java</rdf:li>
            </rdf:Bag>
         </dc:subject>
         <dc:rights>
            <rdf:Alt>
               <rdf:li xml:lang="x-default">Oracle All Rights Reserved</rdf:li>
            </rdf:Alt>
         </dc:rights>
         <lr:hierarchicalSubject>
            <rdf:Bag>
               <rdf:li>icon</rdf:li>
               <rdf:li>Other Keywords|programming</rdf:li>
               <rdf:li>java</rdf:li>
            </rdf:Bag>
         </lr:hierarchicalSubject>
         <xmp:MetadataDate>2021-07-21T19:19:39-05:00</xmp:MetadataDate>
         <xmpMM:InstanceID>xmp.iid:ff7f1274-2ad2-4d63-b7c8-8e9fddeeb366</xmpMM:InstanceID>
         <xmpMM:DocumentID>xmp.did:a0dccadd-38a6-42e9-8c6f-4eec19f04725</xmpMM:DocumentID>
         <xmpMM:OriginalDocumentID>xmp.did:a0dccadd-38a6-42e9-8c6f-4eec19f04725</xmpMM:OriginalDocumentID>
         <xmpMM:History>
            <rdf:Seq>
               <rdf:li>
                  <rdf:Description>
                     <stEvt:action>saved</stEvt:action>
                     <stEvt:instanceID>xmp.iid:a0dccadd-38a6-42e9-8c6f-4eec19f04725</stEvt:instanceID>
                     <stEvt:when>2021-06-18T11:42-05:00</stEvt:when>
                     <stEvt:softwareAgent>Adobe Bridge 2021 (Macintosh)</stEvt:softwareAgent>
                     <stEvt:changed>/metadata</stEvt:changed>
                  </rdf:Description>
               </rdf:li>
               <rdf:li>
                  <rdf:Description>
                     <stEvt:action>saved</stEvt:action>
                     <stEvt:instanceID>xmp.iid:ff7f1274-2ad2-4d63-b7c8-8e9fddeeb366</stEvt:instanceID>
                     <stEvt:when>2021-07-21T19:19:39-05:00</stEvt:when>
                     <stEvt:softwareAgent>Adobe Bridge 2021 (Macintosh)</stEvt:softwareAgent>
                     <stEvt:changed>/metadata</stEvt:changed>
                  </rdf:Description>
               </rdf:li>
            </rdf:Seq>
         </xmpMM:History>
         <xmpRights:Marked>True</xmpRights:Marked>
      </rdf:Description>
   </rdf:RDF>
</x:xmpmeta>
                                                                                                    
                                                                                                    
                                                                                                    
                                                                                                    
                                                                                                    
                                                                                                    
                                                                                                    
                                                                                                    
                                                                                                    
                                                                                                    
                                                               
<?xpacket end="w"?></metadata>
<path class="cls-1" d="M21.29,41.41c-1.3,0-2.57,0-3.78-.12a16,16,0,0,1-5.09-.87L7.85,38.48c-.92-.4-.95-1-.89-1.29.28-1.36,3.64-2.41,5.32-2.45h2l-.11-.31a1.17,1.17,0,0,1-.22-.66l-1.05-3.49L10,26.88a.59.59,0,0,1-.09-.56,1.65,1.65,0,0,1,.86-1.05V21.52l-.52,0H.85l-.2-.18L.5,21.14v-.27l.06-.8A9.61,9.61,0,0,1,5.78,12a2.39,2.39,0,0,0,1.34-1.72,7.59,7.59,0,0,1,7.45-6.13,5.53,5.53,0,0,1,.71,0h.24a2.32,2.32,0,0,0,1.61-.64A10,10,0,0,1,22.42.63,9.63,9.63,0,0,1,24,.5a9.27,9.27,0,0,1,8.33,5.16A2.42,2.42,0,0,0,34,7a9.55,9.55,0,0,1,3.6,1.63,9.75,9.75,0,0,1,2.57,12.5l-.19.37-.36,0H31.17c0,.44,0,1.13,0,1.78a.42.42,0,0,1,0,.25h.39a3.34,3.34,0,0,1,3.5,2.74c.23,1.8-1.27,4.19-6.2,5.49l-2.54.69-.69.76,1.38.67,5.42,1.22,0,0a2.46,2.46,0,0,1,.6.37l2,1.73v.32C34.73,41,25.32,41.41,21.29,41.41Z"/><path class="cls-1" d="M24,1a8.76,8.76,0,0,1,7.88,4.88,2.91,2.91,0,0,0,2,1.56A9.08,9.08,0,0,1,37.32,9a9.26,9.26,0,0,1,2.43,11.86l0,.11-.06,0H30.69s0,2.39,0,2.39h0s-.62.88-.54.88h0A4.26,4.26,0,0,1,31.56,24c3.6,0,5.39,5.08-2.83,7.24L26.07,32l0,0-1.17,1.28a.06.06,0,0,0,0,.1l1.94,1h0l5.42,1.23a2,2,0,0,1,.47.29h0l0,0h0l1.77,1.51a.06.06,0,0,1,0,.06c-.27,2.56-7.19,3.45-13.31,3.45-1.31,0-2.59,0-3.75-.11A15.42,15.42,0,0,1,12.62,40h0L12,39.71,8.39,38.16,8.05,38c-2.21-1,2.12-2.78,4.33-2.78H15l-.37-1a.63.63,0,0,1-.17-.48v0L13.33,30l0,0-2.9-3.45s0-.59.89-1V21.05a7.63,7.63,0,0,1-1-.07H1.06A.07.07,0,0,1,1,20.91l.06-.81A9.14,9.14,0,0,1,6,12.45a2.91,2.91,0,0,0,1.62-2.07,7.13,7.13,0,0,1,4.11-5.13,7.21,7.21,0,0,1,2.85-.6c.22,0,.45,0,.67,0l.28,0a2.78,2.78,0,0,0,2-.79,9.56,9.56,0,0,1,5-2.78A9,9,0,0,1,24,1m0-1a10.7,10.7,0,0,0-1.69.14A10.46,10.46,0,0,0,16.78,3.2a1.8,1.8,0,0,1-1.26.5h-.19a6.34,6.34,0,0,0-.76,0,8.12,8.12,0,0,0-7.94,6.54,1.86,1.86,0,0,1-1.07,1.35A10.13,10.13,0,0,0,.06,20L0,20.84A1.06,1.06,0,0,0,1.06,22H10.3v3a2.09,2.09,0,0,0-.85,1.2,1.1,1.1,0,0,0,.19,1l2.78,3.31,1,3.33a1.5,1.5,0,0,0,.08.39H12.15c-1.74.09-5.33,1.15-5.68,2.85a1.63,1.63,0,0,0,1.19,1.85l.34.14,3.64,1.55.59.25a16.23,16.23,0,0,0,5.25.91c1.22.08,2.5.12,3.81.12,5.17,0,13.91-.56,14.3-4.35a1.07,1.07,0,0,0-.37-.93l-1.77-1.5-.05,0L33.34,35h0a3.41,3.41,0,0,0-.65-.4l-.09,0-.1,0-5.32-1.2L26.45,33l.15-.15L29,32.21c6.59-1.73,6.69-5.06,6.57-6A3.83,3.83,0,0,0,31.68,23c0-.36,0-.71,0-1h8a1.07,1.07,0,0,0,.94-.56l.05-.1A10.25,10.25,0,0,0,37.91,8.18a10,10,0,0,0-3.79-1.72,1.91,1.91,0,0,1-1.32-1A9.74,9.74,0,0,0,24,0Z"/><path class="cls-2" d="M39.68,21h-9V19.26h7.94A7.3,7.3,0,0,0,33.56,9.12a4.67,4.67,0,0,1-3.19-2.48A7,7,0,0,0,24,2.72,7.12,7.12,0,0,0,18.83,5a4.49,4.49,0,0,1-3.76,1.4,5.42,5.42,0,0,0-2.66.44A5.37,5.37,0,0,0,9.3,10.71a4.63,4.63,0,0,1-2.4,3.21,7.67,7.67,0,0,0-4,5.34h8.45V21H1l.07-.92a9.43,9.43,0,0,1,5-7.67,2.89,2.89,0,0,0,1.51-2,7.1,7.1,0,0,1,7.63-5.7,2.78,2.78,0,0,0,2.33-.86A8.81,8.81,0,0,1,31.91,5.88a2.92,2.92,0,0,0,2,1.56,9.16,9.16,0,0,1,2.86,1.18,9,9,0,0,1,3.13,11.91Z"/><path class="cls-2" d="M22.73,21.69c1.78,2-.46,3.88-.46,3.88s4.51-2.32,2.43-5.24c-1.93-2.72-3.42-4.07,4.62-8.73C29.32,11.6,16.71,14.75,22.73,21.69Z"/><path class="cls-2" d="M21.07,13.79C28.53,7.9,24.7,4.08,24.7,4.08c1.55,6.08-5.44,7.91-8,11.7-1.72,2.58.84,5.36,4.33,8.5C19.71,21.21,15.09,18.52,21.07,13.79Z"/><path class="cls-2" d="M17.19,33.66c-2.41-.28-1-1.1-1-1.1-5.66,1.58,3.45,4.85,10.66,1.76a13.53,13.53,0,0,1-2-1A21.09,21.09,0,0,1,17.19,33.66Z"/><path class="cls-2" d="M16.14,30c-2.42-.25-.84-1.42-.84-1.42C9.07,30.6,18.78,33,27.49,30.4A4.4,4.4,0,0,1,26,29.47,29.84,29.84,0,0,1,16.14,30Z"/><path class="cls-2" d="M10.14,37.12c-1.31-.57,1.15-1.37,1.93-1.53a5,5,0,0,1,1.27-.15c-1.46-1-9.45,2-4.06,2.9,14.7,2.38,26.8-1.07,23-2.79,0,0,1,.85-1.15,1.52C27,38.33,13.8,38.71,10.14,37.12Z"/><path class="cls-2" d="M28.9,25.69s-2.78.5-5.55.73a50.28,50.28,0,0,1-8.86.1c-4.32-.58,2.37-2.17,2.37-2.17a12.72,12.72,0,0,0-5.79,1.37c-3.79,1.83,9.35,2.66,16.14.87A12.09,12.09,0,0,1,28.9,25.69Z"/><path class="cls-2" d="M29.56,24.7a5.13,5.13,0,0,1,.79-.21c2.24-.47,5.43,3-1.48,6.57a.51.51,0,0,1-.14.18c9.23-2.42,5.84-8.55,1.42-7A1.32,1.32,0,0,0,29.56,24.7Z"/><path class="cls-2" d="M12.33,39.81s.85.7,5.21,1c6.63.42,16.82-.24,17.06-3.38,0,0-.46,1.19-5.48,2.14A54.49,54.49,0,0,1,12.33,39.81Z"/></svg>