<svg width="41" height="41" viewBox="0 0 41 41" fill="none" xmlns="http://www.w3.org/2000/svg">
<path d="M0.65332 39.7914V13.3491H17.4152V5.56062L28.6533 0.75293L39.7962 5.56062V15.7529C39.7962 15.8491 39.7962 18.3491 38.3676 21.3299C37.1295 24.0222 34.5581 27.676 29.0343 29.6952V39.6952H0.65332V39.7914Z" fill="white"/>
<path d="M28.5577 1.33015L39.2244 5.84938V15.7532C39.2244 15.8494 39.2244 18.2532 37.891 21.1378C36.6529 23.8302 34.1768 27.3878 28.8434 29.3109L28.6529 29.4071H28.5577V39.3109H1.12914V13.8302H17.891V5.84938L28.5577 1.33015ZM28.5577 0.272461L28.1768 0.464769L17.5101 4.984L16.9387 5.27246V5.94554V12.9648H1.12914H0.176758V13.9263V39.3109V40.2725H1.12914H28.5577H29.5101V39.3109V30.0802C34.8434 27.9648 37.5101 24.3109 38.7482 21.5225C40.1768 18.4455 40.1768 15.8494 40.1768 15.7532V5.84938V5.27246L39.6053 4.984L28.9387 0.464769L28.5577 0.272461Z" fill="white"/>
<path d="M27.2241 29.984H9.70033V23.2532H19.2241C18.9384 22.7725 18.748 22.3878 18.5575 22.0032H9.70033V15.2725H16.8432V14.0225H1.12891V39.4071H28.5575V30.5609L28.0813 30.3686C27.7956 30.1763 27.5099 30.0802 27.2241 29.984ZM2.367 15.1763H8.46224V21.9071H2.367V15.1763ZM8.46224 23.1571V29.8878H2.367V23.1571H8.46224ZM2.367 31.234H8.46224V37.9648H2.367V31.234ZM27.2241 37.9648H9.70033V31.234H27.2241V37.9648Z" fill="#2D5967"/>
<path d="M25.7957 35.4648H24.5576V36.7148H25.7957V35.4648Z" fill="#2D5967"/>
<path d="M20.5569 36.7147L21.6997 35.5608L22.8426 36.7147L23.6997 35.7532L22.5569 34.5993L23.6997 33.4455L22.8426 32.5801L21.6997 33.7339L20.5569 32.5801L19.6045 33.4455L20.7474 34.5993L19.6045 35.7532L20.5569 36.7147Z" fill="#2D5967"/>
<path d="M17.7957 35.4648H16.5576V36.7148H17.7957V35.4648Z" fill="#2D5967"/>
<path d="M11.7002 35.7532L12.5573 36.7147L13.7002 35.5608L14.8431 36.7147L15.7954 35.7532L14.6526 34.5993L15.7954 33.4455L14.8431 32.5801L13.7002 33.7339L12.5573 32.5801L11.7002 33.4455L12.8431 34.5993L11.7002 35.7532Z" fill="#2D5967"/>
<path d="M17.7957 27.3877H16.5576V28.6377H17.7957V27.3877Z" fill="#2D5967"/>
<path d="M11.7002 27.676L12.5573 28.6375L13.7002 27.4837L14.8431 28.6375L15.7954 27.676L14.6526 26.5222L15.7954 25.3683L14.8431 24.5029L13.7002 25.6568L12.5573 24.5029L11.7002 25.3683L12.8431 26.5222L11.7002 27.676Z" fill="#2D5967"/>
<path d="M16.2715 20.6577H17.5096V19.4077C17.5096 19.4077 17.5096 19.4077 17.5096 19.3115H16.2715V20.6577Z" fill="#2D5967"/>
<path d="M11.3193 19.696L12.2717 20.5614L13.4146 19.4075L14.5574 20.5614L15.4146 19.696L14.2717 18.5421L15.4146 17.3883L14.5574 16.4268L13.4146 17.5806L12.2717 16.4268L11.3193 17.3883L12.4622 18.5421L11.3193 19.696Z" fill="#2D5967"/>
<path d="M17.8906 5.84931V15.7532C17.8906 15.8493 17.9859 18.2532 19.224 21.1378C20.4621 23.8301 23.0335 27.3878 28.3668 29.3108L28.5573 29.407L28.7478 29.3108C34.0811 27.3878 36.6525 23.8301 37.7954 21.1378C39.1287 18.2532 39.1287 15.8493 39.1287 15.7532V5.84931L28.5573 1.33008L17.8906 5.84931ZM37.9859 15.7532C37.9859 15.8493 37.7954 24.5032 28.6525 27.9647C24.843 26.5224 22.0811 24.0224 20.4621 20.657C19.224 18.0608 19.224 15.7532 19.224 15.7532V6.71469L28.6525 2.67623L37.9859 6.71469V15.7532Z" fill="#2D5967"/>
<path d="M27.4143 17.0996H22.4619V18.3496H27.4143V17.0996Z" fill="#2D5967"/>
<path d="M27.4143 10.6572H22.4619V11.9072H27.4143V10.6572Z" fill="#2D5967"/>
<path d="M34.0807 9.21484L31.3188 11.9072L30.3664 10.9456L29.4141 11.811L31.3188 13.7341L34.9379 10.0802L34.0807 9.21484Z" fill="#2D5967"/>
<path d="M22.4619 15.1762H27.2238H27.4143V13.8301H22.4619V15.1762Z" fill="#2D5967"/>
</svg>
