<?xml version="1.0" encoding="UTF-8"?>
<svg id="Layer_1" data-name="Layer 1" xmlns="http://www.w3.org/2000/svg" viewBox="0 0 39.59 42">
  <metadata><?xpacket begin="﻿" id="W5M0MpCehiHzreSzNTczkc9d"?>
<x:xmpmeta xmlns:x="adobe:ns:meta/" x:xmptk="Adobe XMP Core 7.1-c000 79.4d2f597, 2021/09/01-20:51:22        ">
   <rdf:RDF xmlns:rdf="http://www.w3.org/1999/02/22-rdf-syntax-ns#">
      <rdf:Description rdf:about=""
            xmlns:dc="http://purl.org/dc/elements/1.1/"
            xmlns:xmpRights="http://ns.adobe.com/xap/1.0/rights/"
            xmlns:xmp="http://ns.adobe.com/xap/1.0/"
            xmlns:xmpMM="http://ns.adobe.com/xap/1.0/mm/"
            xmlns:stEvt="http://ns.adobe.com/xap/1.0/sType/ResourceEvent#">
         <dc:rights>
            <rdf:Alt>
               <rdf:li xml:lang="x-default">Oracle All Rights</rdf:li>
            </rdf:Alt>
         </dc:rights>
         <dc:subject>
            <rdf:Bag>
               <rdf:li>data</rdf:li>
               <rdf:li>database</rdf:li>
               <rdf:li>gear</rdf:li>
               <rdf:li>cloud</rdf:li>
               <rdf:li>clock</rdf:li>
               <rdf:li>time</rdf:li>
               <rdf:li>icon</rdf:li>
            </rdf:Bag>
         </dc:subject>
         <xmpRights:Marked>True</xmpRights:Marked>
         <xmp:MetadataDate>2024-07-05T18:09:40-06:00</xmp:MetadataDate>
         <xmpMM:InstanceID>xmp.iid:fac8b1de-76d3-4cd1-ae51-46981e7adbf5</xmpMM:InstanceID>
         <xmpMM:DocumentID>xmp.did:0a667eea-1e0f-497c-b05d-1d7a44932935</xmpMM:DocumentID>
         <xmpMM:OriginalDocumentID>xmp.did:0a667eea-1e0f-497c-b05d-1d7a44932935</xmpMM:OriginalDocumentID>
         <xmpMM:History>
            <rdf:Seq>
               <rdf:li>
                  <rdf:Description>
                     <stEvt:action>saved</stEvt:action>
                     <stEvt:instanceID>xmp.iid:0a667eea-1e0f-497c-b05d-1d7a44932935</stEvt:instanceID>
                     <stEvt:when>2024-07-05T18:05:08-06:00</stEvt:when>
                     <stEvt:softwareAgent>Adobe Bridge 2023</stEvt:softwareAgent>
                     <stEvt:changed>/metadata</stEvt:changed>
                  </rdf:Description>
               </rdf:li>
               <rdf:li>
                  <rdf:Description>
                     <stEvt:action>saved</stEvt:action>
                     <stEvt:instanceID>xmp.iid:fac8b1de-76d3-4cd1-ae51-46981e7adbf5</stEvt:instanceID>
                     <stEvt:when>2024-07-05T18:09:40-06:00</stEvt:when>
                     <stEvt:softwareAgent>Adobe Bridge 2023</stEvt:softwareAgent>
                     <stEvt:changed>/metadata</stEvt:changed>
                  </rdf:Description>
               </rdf:li>
            </rdf:Seq>
         </xmpMM:History>
      </rdf:Description>
   </rdf:RDF>
</x:xmpmeta>
                                                                                                    
                                                                                                    
                                                                                                    
                                                                                                    
                                                                                                    
                                                                                                    
                                                                                                    
                                                                                                    
                                                                                                    
                                                                                                    
                                                                                                    
                                                                                    
<?xpacket end="w"?></metadata>
<defs>
    <style>
      .cls-1 {
        fill: #fff;
      }

      .cls-2 {
        fill: #2d5967;
      }
    </style>
  </defs>
  <path class="cls-1" d="m34.8,29.12v-2.77h-2.4v-.29s0-4.46,0-4.46v-.62h3.97l.26-.5.24-.42c1.13-2.11,1.35-4.61.6-6.86l-.17-.52c1.33-1.35,2.16-3.19,2.16-5.23,0-4.11-3.34-7.45-7.45-7.45-2.32,0-4.39,1.07-5.76,2.73l-.24-.11c-1.1-.52-2.35-.8-3.61-.8-2.36,0-4.64.99-6.27,2.73-.26.29-.62.43-1.02.43-.05,0-.11,0-.16,0-.22-.02-.44-.03-.65-.03-.98,0-1.94.2-2.86.58-2.12.92-3.66,2.84-4.11,5.13-.09.44-.38.82-.8,1.05-2.79,1.47-4.61,4.23-4.83,7.39l-.06.79-.07,1.07h5.62v5.39h-2.38v2.77c-3.06.29-4.79,1.39-4.79,3.07v6.93c0,2.38,3.55,2.88,6.53,2.88s6.53-.5,6.53-2.88v-6.93c0-1.02-.64-1.83-1.83-2.37h3.88c-1.19.54-1.83,1.35-1.83,2.37v6.93c0,2.38,3.55,2.88,6.53,2.88s6.53-.5,6.53-2.88v-6.93c0-1.02-.64-1.83-1.83-2.37h3.88c-1.19.54-1.83,1.35-1.83,2.37v6.93c0,2.38,3.55,2.88,6.53,2.88s6.53-.5,6.53-2.88v-6.93c0-1.68-1.73-2.78-4.79-3.07Z"/>
  <g>
    <path class="cls-2" d="m31.4,26.06v-4.46l-2.82-.31c-.07-.2-.15-.39-.24-.57l1.77-2.21-4.24-4.24-2.21,1.77c-.18-.09-.39-.17-.57-.24l-.31-2.82h-5.99l-.31,2.82c-.2.07-.39.15-.57.24l-2.21-1.77-4.24,4.24,1.77,2.21c-.09.18-.17.39-.24.57l-2.82.31v4.46h7.55v-1.29h0c.09-2.16,1.88-3.87,4.05-3.87s3.94,1.71,4.05,3.87h0v1.29h7.57Zm-11.61-6.63c-2.93,0-5.32,2.28-5.51,5.16h-4.62v-1.68l2.45-.28.15-.46c.13-.42.31-.85.52-1.23l.22-.42-1.53-1.92,2.36-2.36,1.92,1.53.42-.22c.41-.2.81-.39,1.23-.52l.46-.15.28-2.45h3.33l.28,2.45.46.15c.42.13.85.31,1.23.52l.42.22,1.92-1.53,2.36,2.36-1.53,1.92.22.42c.2.41.39.81.52,1.23l.15.46,2.45.28v1.68h-4.62c-.18-2.87-2.58-5.16-5.51-5.16h-.02Z"/>
    <path class="cls-2" d="m38.59,32.19c0-1.44-2.43-2.05-4.79-2.14v-2.71h-13.27v-3.32h-1.47v3.32H5.79v2.71c-2.36.09-4.79.7-4.79,2.14s0,.06,0,.07v6.85c0,1.75,4.24,1.88,5.53,1.88s5.53-.13,5.53-1.88v-6.93c0-1.44-2.43-2.05-4.79-2.14v-1.23h11.79v1.23c-2.36.09-4.79.7-4.79,2.14s0,.06,0,.07v6.85c0,1.75,4.24,1.88,5.53,1.88s5.53-.13,5.53-1.88v-6.93c0-1.44-2.43-2.05-4.79-2.14v-1.23h11.79v1.23c-2.36.09-4.79.7-4.79,2.14s0,.06,0,.07v6.85c0,1.75,4.24,1.88,5.53,1.88s5.53-.13,5.53-1.88v-6.93Zm-28.01,1.55v1.71c-.41.24-1.81.61-4.05.61s-3.65-.37-4.05-.61v-1.71c1.09.42,2.63.61,4.05.61s2.97-.17,4.05-.61Zm-4.05,5.8c-2.25,0-3.65-.37-4.05-.61v-1.9c1.35.44,3.26.5,4.05.5s2.71-.06,4.05-.5v1.9c-.41.24-1.81.61-4.05.61Zm0-6.67c-2.08,0-3.45-.39-3.92-.68.48-.29,1.84-.68,3.92-.68s3.45.39,3.92.68c-.48.29-1.84.68-3.92.68Zm17.32.87v1.71c-.41.24-1.81.61-4.05.61s-3.65-.37-4.05-.61v-1.71c1.09.42,2.63.61,4.05.61s2.95-.17,4.05-.61Zm-4.05,5.8c-2.25,0-3.65-.37-4.05-.61v-1.9c1.35.44,3.26.5,4.05.5s2.71-.06,4.05-.5v1.9c-.41.24-1.81.61-4.05.61Zm0-6.67c-2.08,0-3.45-.39-3.92-.68.48-.29,1.84-.68,3.92-.68s3.45.39,3.92.68c-.48.29-1.84.68-3.92.68Zm17.32,2.6c-.41.24-1.81.61-4.05.61s-3.65-.37-4.05-.61v-1.71c1.09.42,2.63.61,4.05.61s2.97-.17,4.05-.61v1.71Zm-4.05-3.96c2.08,0,3.45.39,3.92.68-.48.29-1.84.68-3.92.68s-3.45-.39-3.92-.68c.48-.29,1.84-.68,3.92-.68Zm0,8.03c-2.25,0-3.65-.37-4.05-.61v-1.9c1.35.44,3.26.5,4.05.5s2.71-.06,4.05-.5v1.9c-.41.24-1.81.61-4.05.61Z"/>
    <path class="cls-2" d="m35.99,19.59c1.03-1.93,1.18-4.13.53-6.08-.41.29-.85.57-1.31.77.37,1.36.28,2.86-.33,4.22h-3.54l-1.11,1.47h5.53l.2-.39h.02Z"/>
    <path class="cls-2" d="m32.01,13.9c3.56,0,6.45-2.89,6.45-6.45s-2.89-6.45-6.45-6.45-6.45,2.89-6.45,6.45,2.89,6.45,6.45,6.45Zm0-11.42c2.75,0,4.97,2.23,4.97,4.97s-2.23,4.97-4.97,4.97-4.97-2.23-4.97-4.97,2.23-4.97,4.97-4.97Z"/>
    <polygon class="cls-2" points="35.36 8.57 32.71 7.02 32.71 3.95 31.23 3.95 31.23 7.87 34.63 9.84 35.36 8.57"/>
    <path class="cls-2" d="m8.08,18.5h-3.81c.39-1.95,1.62-3.63,3.43-4.59,1.07-.57,1.82-1.57,2.06-2.75.29-1.47,1.29-2.73,2.67-3.33.72-.31,1.51-.44,2.28-.37,1.23.11,2.4-.33,3.22-1.22,1.14-1.23,2.76-1.95,4.46-1.95s1.77.2,2.54.55c.17-.46.39-.9.64-1.33-.98-.46-2.06-.7-3.19-.7-2.1,0-4.11.88-5.55,2.41-.5.55-1.23.81-2.01.74-1.03-.09-2.06.07-3.02.48-1.82.79-3.13,2.45-3.52,4.4-.15.74-.63,1.36-1.31,1.73-2.49,1.31-4.11,3.78-4.31,6.58l-.06.79h6.63l-1.18-1.47v.02Z"/>
  </g>
</svg>