<?xml version="1.0" encoding="UTF-8"?>
<svg id="Extras" xmlns="http://www.w3.org/2000/svg" version="1.1" viewBox="0 0 42.07 22.84">
  <metadata><?xpacket begin="﻿" id="W5M0MpCehiHzreSzNTczkc9d"?>
<x:xmpmeta xmlns:x="adobe:ns:meta/" x:xmptk="Adobe XMP Core 7.1-c000 79.4d2f597, 2021/09/01-20:51:22        ">
   <rdf:RDF xmlns:rdf="http://www.w3.org/1999/02/22-rdf-syntax-ns#">
      <rdf:Description rdf:about=""
            xmlns:dc="http://purl.org/dc/elements/1.1/"
            xmlns:xmpRights="http://ns.adobe.com/xap/1.0/rights/"
            xmlns:xmp="http://ns.adobe.com/xap/1.0/"
            xmlns:xmpMM="http://ns.adobe.com/xap/1.0/mm/"
            xmlns:stEvt="http://ns.adobe.com/xap/1.0/sType/ResourceEvent#">
         <dc:rights>
            <rdf:Alt>
               <rdf:li xml:lang="x-default">Oracle All Rights</rdf:li>
            </rdf:Alt>
         </dc:rights>
         <dc:subject>
            <rdf:Bag>
               <rdf:li>icon</rdf:li>
               <rdf:li>technology</rdf:li>
               <rdf:li>data</rdf:li>
               <rdf:li>exadata</rdf:li>
               <rdf:li>exascale</rdf:li>
            </rdf:Bag>
         </dc:subject>
         <xmpRights:Marked>True</xmpRights:Marked>
         <xmp:MetadataDate>2024-07-29T13:44:19-06:00</xmp:MetadataDate>
         <xmpMM:InstanceID>xmp.iid:95048cd9-f4fa-4c42-8179-02b243f31858</xmpMM:InstanceID>
         <xmpMM:DocumentID>xmp.did:7a791e43-412d-4c93-ba18-5d1fd30fb083</xmpMM:DocumentID>
         <xmpMM:OriginalDocumentID>xmp.did:7a791e43-412d-4c93-ba18-5d1fd30fb083</xmpMM:OriginalDocumentID>
         <xmpMM:History>
            <rdf:Seq>
               <rdf:li>
                  <rdf:Description>
                     <stEvt:action>saved</stEvt:action>
                     <stEvt:instanceID>xmp.iid:7a791e43-412d-4c93-ba18-5d1fd30fb083</stEvt:instanceID>
                     <stEvt:when>2024-07-29T13:43:04-06:00</stEvt:when>
                     <stEvt:softwareAgent>Adobe Bridge 2023</stEvt:softwareAgent>
                     <stEvt:changed>/metadata</stEvt:changed>
                  </rdf:Description>
               </rdf:li>
               <rdf:li>
                  <rdf:Description>
                     <stEvt:action>saved</stEvt:action>
                     <stEvt:instanceID>xmp.iid:95048cd9-f4fa-4c42-8179-02b243f31858</stEvt:instanceID>
                     <stEvt:when>2024-07-29T13:44:19-06:00</stEvt:when>
                     <stEvt:softwareAgent>Adobe Bridge 2023</stEvt:softwareAgent>
                     <stEvt:changed>/metadata</stEvt:changed>
                  </rdf:Description>
               </rdf:li>
            </rdf:Seq>
         </xmpMM:History>
      </rdf:Description>
   </rdf:RDF>
</x:xmpmeta>
                                                                                                    
                                                                                                    
                                                                                                    
                                                                                                    
                                                                                                    
                                                                                                    
                                                                                                    
                                                                                                    
                                                                                                    
                                                                                                    
                                                                                                    
                                                                                                    
                                                  
<?xpacket end="w"?></metadata>
<defs>
    <style>
      .cls-1 {
        fill: #2d5967;
      }

      .cls-1, .cls-2 {
        stroke-width: 0px;
      }

      .cls-2 {
        fill: #fff;
      }
    </style>
  </defs>
  <path class="cls-2" d="M37.43,8.15c-.99-.65-2.06-1.11-3.19-1.37-.58-.13-1.07-.54-1.34-1.11-1.67-3.5-5.04-5.67-8.79-5.67-2.74,0-5.37,1.2-7.22,3.29-.33.38-.79.58-1.29.58-.06,0-.12,0-.18,0-.25-.03-.51-.04-.77-.04-1.12,0-2.26.25-3.29.72-2.41,1.11-4.15,3.38-4.66,6.07-.12.62-.49,1.15-1.03,1.45C2.48,13.82.41,17.11.14,20.85l-.07.92L0,22.84h40.38l.28-.54.24-.47c2.46-4.77.94-10.79-3.47-13.69Z"/>
  <g>
    <path class="cls-1" d="M36.84,8.98c-.89-.58-1.85-1-2.86-1.23-.88-.2-1.62-.81-2.02-1.65-1.5-3.14-4.52-5.1-7.89-5.1-2.45,0-4.81,1.08-6.47,2.95-.59.66-1.43.99-2.32.91-1.2-.12-2.42.09-3.53.6-2.12.98-3.65,2.97-4.09,5.34-.17.92-.73,1.7-1.53,2.14-2.9,1.6-4.78,4.58-5.02,7.99l-.07.92h38.7l.24-.47c2.23-4.33.85-9.77-3.13-12.4ZM38.66,20.13H2.93c.44-2.43,1.89-4.51,4.02-5.68,1.25-.69,2.12-1.9,2.39-3.33.34-1.82,1.51-3.36,3.12-4.1.83-.38,1.75-.54,2.64-.45,1.44.14,2.81-.39,3.77-1.48,1.36-1.53,3.2-2.37,5.19-2.37,2.7,0,5.13,1.58,6.34,4.12.63,1.32,1.79,2.26,3.18,2.58.82.19,1.59.52,2.31.99,3.12,2.06,4.28,6.24,2.77,9.71Z"/>
    <polygon class="cls-1" points="26.34 8.57 24.34 8.57 22.64 11.5 20.89 8.57 18.8 8.57 21.29 12.65 18.68 17.04 20.68 17.04 22.5 13.84 24.39 17.04 26.47 17.04 23.85 12.69 26.34 8.57"/>
  </g>
</svg>