<?xml version="1.0" encoding="UTF-8"?>
<svg id="Layer_1" data-name="Layer 1" xmlns="http://www.w3.org/2000/svg" viewBox="0 0 42.4 41.32">
  <metadata><?xpacket begin="﻿" id="W5M0MpCehiHzreSzNTczkc9d"?>
<x:xmpmeta xmlns:x="adobe:ns:meta/" x:xmptk="Adobe XMP Core 7.1-c000 79.4d2f597, 2021/09/01-20:51:22        ">
   <rdf:RDF xmlns:rdf="http://www.w3.org/1999/02/22-rdf-syntax-ns#">
      <rdf:Description rdf:about=""
            xmlns:dc="http://purl.org/dc/elements/1.1/"
            xmlns:xmpRights="http://ns.adobe.com/xap/1.0/rights/"
            xmlns:xmp="http://ns.adobe.com/xap/1.0/"
            xmlns:xmpMM="http://ns.adobe.com/xap/1.0/mm/"
            xmlns:stEvt="http://ns.adobe.com/xap/1.0/sType/ResourceEvent#">
         <dc:rights>
            <rdf:Alt>
               <rdf:li xml:lang="x-default">Oracle All Rights</rdf:li>
            </rdf:Alt>
         </dc:rights>
         <dc:subject>
            <rdf:Bag>
               <rdf:li>data</rdf:li>
               <rdf:li>database</rdf:li>
               <rdf:li>brain</rdf:li>
               <rdf:li>AI</rdf:li>
               <rdf:li>autonomous</rdf:li>
               <rdf:li>icon</rdf:li>
            </rdf:Bag>
         </dc:subject>
         <xmpRights:Marked>True</xmpRights:Marked>
         <xmp:MetadataDate>2024-07-05T18:09:40-06:00</xmp:MetadataDate>
         <xmpMM:InstanceID>xmp.iid:68e772ff-b4ba-412c-9577-8b190bf68f8f</xmpMM:InstanceID>
         <xmpMM:DocumentID>xmp.did:02086dad-ff0d-42d5-8eee-d08ee4f1d99a</xmpMM:DocumentID>
         <xmpMM:OriginalDocumentID>xmp.did:02086dad-ff0d-42d5-8eee-d08ee4f1d99a</xmpMM:OriginalDocumentID>
         <xmpMM:History>
            <rdf:Seq>
               <rdf:li>
                  <rdf:Description>
                     <stEvt:action>saved</stEvt:action>
                     <stEvt:instanceID>xmp.iid:02086dad-ff0d-42d5-8eee-d08ee4f1d99a</stEvt:instanceID>
                     <stEvt:when>2024-07-05T18:05:08-06:00</stEvt:when>
                     <stEvt:softwareAgent>Adobe Bridge 2023</stEvt:softwareAgent>
                     <stEvt:changed>/metadata</stEvt:changed>
                  </rdf:Description>
               </rdf:li>
               <rdf:li>
                  <rdf:Description>
                     <stEvt:action>saved</stEvt:action>
                     <stEvt:instanceID>xmp.iid:68e772ff-b4ba-412c-9577-8b190bf68f8f</stEvt:instanceID>
                     <stEvt:when>2024-07-05T18:09:40-06:00</stEvt:when>
                     <stEvt:softwareAgent>Adobe Bridge 2023</stEvt:softwareAgent>
                     <stEvt:changed>/metadata</stEvt:changed>
                  </rdf:Description>
               </rdf:li>
            </rdf:Seq>
         </xmpMM:History>
      </rdf:Description>
   </rdf:RDF>
</x:xmpmeta>
                                                                                                    
                                                                                                    
                                                                                                    
                                                                                                    
                                                                                                    
                                                                                                    
                                                                                                    
                                                                                                    
                                                                                                    
                                                                                                    
                                                                                                    
                                                                                                    
                 
<?xpacket end="w"?></metadata>
<defs>
    <style>
      .cls-1 {
        fill: #fff;
      }

      .cls-2 {
        fill: #2d5967;
      }
    </style>
  </defs>
  <path class="cls-1" d="m41.48,10.1l-3.56-3.57-.11-.11.35-.35-.34-.65c-.48-.92-1.09-1.76-1.8-2.5-1.89-1.88-4.38-2.92-7.03-2.92h-.08c-3.1.03-5.87,1.44-7.72,3.66h-1c-4.17,0-8.09.41-11.04,1.14-1.42.35-5.73,1.42-5.73,4.31v16.98c-1.5.73-2.52,2.23-2.58,3.95-.55.78-.84,1.69-.84,2.65s.29,1.86.84,2.64c.07,1.98,1.43,3.7,3.32,4.25.87,1.1,2.19,1.74,3.6,1.74h.56v-.05c.39-.08.7-.25.96-.4.36.21.8.42,1.37.45h.15c.93,0,1.82-.29,2.57-.79l1.07.1c1.87.17,3.81.26,5.77.26,4.12,0,8.03-.39,11.03-1.1,1.43-.35,5.75-1.39,5.75-4.24V15.97c.81-1.09,1.42-2.35,1.74-3.72l1.21,1.21.71-.71,1.06-1.05.69-.69-.92-.91Z"/>
  <g>
    <g>
      <path class="cls-2" d="m17.85,7.74l-1.06,1.06,3.73,3.73,3.73-3.73-1.06-1.06-1.87,1.87c.3-3.94,3.6-7.07,7.59-7.11h.06c2,0,3.88.78,5.27,2.17.69.69,1.21,1.47,1.58,2.32l1.11-1.11c-.43-.82-.97-1.58-1.63-2.26-1.71-1.71-3.97-2.64-6.39-2.62-4.86.04-8.85,3.92-9.08,8.72l-2-2,.02.02Z"/>
      <path class="cls-2" d="m40.94,10.97l-3.73-3.73-3.73,3.73,1.06,1.06,1.95-1.95c-.06,4.14-3.47,7.52-7.61,7.55-2.02,0-3.92-.76-5.33-2.17-.76-.76-1.34-1.65-1.69-2.64l-1.13,1.13c.43.93,1.04,1.8,1.78,2.54,1.69,1.69,3.94,2.62,6.33,2.62s.04,0,.06,0c4.96-.04,9.02-4.08,9.1-9.02l1.95,1.95,1.06-1.06-.06-.02Z"/>
      <path class="cls-2" d="m24.89,14.7h2.15l.46-2.02h2.39l.46,2.02h2.23l-2.82-9.84h-2.02l-2.84,9.84h-.02Zm3.82-7.41l.84,3.64h-1.67l.84-3.64Z"/>
    </g>
    <g>
      <path class="cls-2" d="m34.11,18.73c-.46.37-1.47.89-3.49,1.37-2.78.67-6.5,1.04-10.45,1.04s-7.67-.37-10.45-1.04c-3.14-.74-3.84-1.6-3.84-1.82v-7.11c.82.5,1.99.93,3.49,1.3,2.69.67,6.22,1.06,9.97,1.1-.17-.48-.32-.98-.41-1.48-3.49-.07-6.72-.45-9.21-1.06-3.16-.78-3.84-1.63-3.84-1.91s.69-1.13,3.84-1.91c2.64-.65,6.13-1.02,9.86-1.06.22-.52.48-1.02.8-1.48h-.19c-4.06,0-7.91.39-10.8,1.11-3.3.82-4.97,1.93-4.97,3.34s0,.15,0,.22v16.06c.43-.45.93-.78,1.48-1.04v-4.08c.82.48,1.99.91,3.49,1.26,2.9.69,6.74,1.08,10.8,1.08s7.91-.39,10.8-1.08c1.5-.35,2.67-.78,3.49-1.26v6.59c0,.24-.71,1.08-3.84,1.82-2.78.67-6.5,1.04-10.45,1.04s-1.61,0-2.39-.06c0,.11.02.22.04.35.24.35.45.74.58,1.15.59,0,1.19.02,1.8.02,4.06,0,7.91-.39,10.8-1.08,1.5-.35,2.67-.78,3.49-1.26v6.72c0,.24-.71,1.08-3.84,1.82-2.78.67-6.5,1.04-10.45,1.04s-2.43-.04-3.6-.11c-.56.61-1.26,1.08-2.08,1.32,1.78.17,3.71.26,5.68.26,4.06,0,7.91-.39,10.8-1.08,3.3-.8,4.97-1.89,4.97-3.27v-18.26c-.56.54-1.17,1.02-1.84,1.43l-.04.02Z"/>
      <circle class="cls-2" cx="4.81" cy="32.69" r=".74"/>
      <path class="cls-2" d="m5.03,29.83c-.3.28-.3.76-.02,1.06.28.3.76.3,1.06.02s.3-.76.02-1.06c-.28-.3-.76-.3-1.06-.02Z"/>
      <path class="cls-2" d="m4.99,34.51c-.28.3-.26.78.04,1.06.3.28.78.26,1.06-.04.28-.3.26-.78-.04-1.06s-.78-.26-1.06.04Z"/>
      <path class="cls-2" d="m16.68,35.16v-.17c.54-.65.84-1.45.84-2.3s-.3-1.65-.84-2.3v-.17c0-1.74-1.26-3.23-2.93-3.55-.43-.63-1.04-1.11-1.76-1.37-.45-.17-.89-.24-1.35-.22-.41,0-.72.2-1.04.41-.09.06-.2.13-.33.2-.11-.07-.22-.13-.33-.2-.33-.2-.63-.39-1.04-.41-.46,0-.91.06-1.35.22-.72.26-1.34.74-1.76,1.37-1.67.32-2.93,1.8-2.93,3.55s0,.11,0,.17c-.54.65-.84,1.45-.84,2.3s.3,1.65.84,2.3v.17c0,1.73,1.26,3.21,2.91,3.55.67,1,1.78,1.61,3.01,1.61s.07,0,.11,0c.43,0,.76-.22,1.11-.43.09-.06.19-.11.3-.17.11.06.2.11.3.17.35.2.69.41,1.11.43h.11c1.23,0,2.34-.61,3.01-1.61,1.67-.32,2.91-1.8,2.91-3.55h-.04Zm-8.87,3.66h-.06c-.8,0-1.52-.45-1.87-1.15l-.19-.37-.41-.04c-1.1-.09-1.95-1.02-1.95-2.12s0-.19.02-.32l.06-.37-.28-.26c-.41-.41-.63-.95-.63-1.5s.22-1.11.63-1.5l.28-.26-.06-.37c-.02-.13-.02-.22-.02-.32,0-1.1.85-2.02,1.97-2.12l.41-.04.19-.35c.26-.48.67-.84,1.17-1.02.24-.09.48-.13.71-.13s.04,0,.06,0c.06,0,.2.11.33.19.11.07.22.15.37.22v11.43c-.11.07-.22.13-.32.19-.15.09-.33.2-.39.2h-.02Zm7.37-3.97c0,.13.02.22.02.32,0,1.1-.85,2.02-1.95,2.12l-.41.04-.19.37c-.37.71-1.1,1.15-1.87,1.15s-.04,0-.06,0c-.06,0-.24-.13-.39-.2-.09-.06-.2-.13-.32-.19v-11.43c.15-.07.26-.15.37-.22.13-.07.28-.17.32-.19.26,0,.52.04.78.13.5.19.91.56,1.17,1.02l.19.35.41.04c1.1.07,1.97,1,1.97,2.12s0,.2-.02.32l-.06.37.28.26c.41.41.63.95.63,1.5s-.22,1.11-.63,1.5l-.28.26.06.37h-.02Z"/>
      <circle class="cls-2" cx="13.71" cy="32.69" r=".74"/>
      <path class="cls-2" d="m13.53,30.87c.28-.3.28-.76,0-1.06-.3-.28-.76-.28-1.06,0-.28.3-.28.76,0,1.06.3.28.76.28,1.06,0Z"/>
      <path class="cls-2" d="m12.51,34.45c-.32.28-.33.74-.06,1.04.28.32.74.33,1.04.06.32-.28.33-.74.06-1.04-.28-.32-.74-.33-1.04-.06Z"/>
    </g>
  </g>
</svg>