<svg id="Layer_1" data-name="Layer 1" xmlns="http://www.w3.org/2000/svg" viewBox="0 0 44.53 42"><defs><style>.cls-1{fill:#fff;}.cls-2{fill:#2c5967;}</style></defs><title>WebLogic Container</title><metadata><?xpacket begin="﻿" id="W5M0MpCehiHzreSzNTczkc9d"?>
<x:xmpmeta xmlns:x="adobe:ns:meta/" x:xmptk="Adobe XMP Core 6.0-c006 79.164648, 2021/01/12-15:52:29        ">
   <rdf:RDF xmlns:rdf="http://www.w3.org/1999/02/22-rdf-syntax-ns#">
      <rdf:Description rdf:about=""
            xmlns:xmp="http://ns.adobe.com/xap/1.0/"
            xmlns:xmpMM="http://ns.adobe.com/xap/1.0/mm/"
            xmlns:stEvt="http://ns.adobe.com/xap/1.0/sType/ResourceEvent#"
            xmlns:xmpRights="http://ns.adobe.com/xap/1.0/rights/"
            xmlns:dc="http://purl.org/dc/elements/1.1/"
            xmlns:lr="http://ns.adobe.com/lightroom/1.0/">
         <xmp:MetadataDate>2021-06-24T19:34:39-05:00</xmp:MetadataDate>
         <xmpMM:InstanceID>xmp.iid:3a86e091-467c-406d-b81d-0bb47ab6a143</xmpMM:InstanceID>
         <xmpMM:DocumentID>xmp.did:546a1379-8984-4e52-925e-6cf64423db82</xmpMM:DocumentID>
         <xmpMM:OriginalDocumentID>xmp.did:546a1379-8984-4e52-925e-6cf64423db82</xmpMM:OriginalDocumentID>
         <xmpMM:History>
            <rdf:Seq>
               <rdf:li>
                  <rdf:Description>
                     <stEvt:action>saved</stEvt:action>
                     <stEvt:instanceID>xmp.iid:546a1379-8984-4e52-925e-6cf64423db82</stEvt:instanceID>
                     <stEvt:when>2021-06-18T11:41:56-05:00</stEvt:when>
                     <stEvt:softwareAgent>Adobe Bridge 2021 (Macintosh)</stEvt:softwareAgent>
                     <stEvt:changed>/metadata</stEvt:changed>
                  </rdf:Description>
               </rdf:li>
               <rdf:li>
                  <rdf:Description>
                     <stEvt:action>saved</stEvt:action>
                     <stEvt:instanceID>xmp.iid:3a86e091-467c-406d-b81d-0bb47ab6a143</stEvt:instanceID>
                     <stEvt:when>2021-06-24T19:34:39-05:00</stEvt:when>
                     <stEvt:softwareAgent>Adobe Bridge 2021 (Macintosh)</stEvt:softwareAgent>
                     <stEvt:changed>/metadata</stEvt:changed>
                  </rdf:Description>
               </rdf:li>
            </rdf:Seq>
         </xmpMM:History>
         <xmpRights:Marked>True</xmpRights:Marked>
         <dc:title>
            <rdf:Alt>
               <rdf:li xml:lang="x-default">WebLogic Container</rdf:li>
            </rdf:Alt>
         </dc:title>
         <dc:subject>
            <rdf:Bag>
               <rdf:li>icon</rdf:li>
               <rdf:li>technology</rdf:li>
            </rdf:Bag>
         </dc:subject>
         <dc:rights>
            <rdf:Alt>
               <rdf:li xml:lang="x-default">Oracle All Rights Reserved</rdf:li>
            </rdf:Alt>
         </dc:rights>
         <lr:hierarchicalSubject>
            <rdf:Bag>
               <rdf:li>icon</rdf:li>
               <rdf:li>technology</rdf:li>
            </rdf:Bag>
         </lr:hierarchicalSubject>
      </rdf:Description>
   </rdf:RDF>
</x:xmpmeta>
                                                                                                    
                                                                                                    
                                                                                                    
                                                                                                    
                                                                                                    
                                                                                                    
                                                                                                    
                                                                                                    
                                                                                                    
                                                                                                    
                                                                                                    
                                                        
<?xpacket end="w"?></metadata>
<path class="cls-1" d="M.5,41.5V39.85L2,39.11V19.87H9.14v-17A2.39,2.39,0,0,1,11.53.5H33a2.4,2.4,0,0,1,2.4,2.39v17h7.16V39.11l1.47.74V41.5Z"/><path class="cls-1" d="M33,1a1.9,1.9,0,0,1,1.9,1.89V20.37h7.16V39.42l1.47.74V41H1v-.84l1.48-.74v-19H9.64V2.89A1.89,1.89,0,0,1,11.53,1H33m0-1H11.53A2.89,2.89,0,0,0,8.64,2.89V19.37H1.48V38.8l-.93.46L0,39.54V42H44.53V39.54L44,39.26l-.92-.46V19.37H35.9V2.89A2.9,2.9,0,0,0,33,0Z"/><path class="cls-2" d="M42.06,39.42v-19H2.48V39.42L1,40.16V41H43.53v-.84ZM40.37,22.05V39.32H4.16V22.05Z"/><rect class="cls-2" x="10.9" y="23.32" width="1.68" height="14.74"/><rect class="cls-2" x="6.69" y="23.32" width="1.68" height="14.74"/><rect class="cls-2" x="15.11" y="23.32" width="1.68" height="14.74"/><rect class="cls-2" x="23.53" y="23.32" width="1.68" height="14.74"/><rect class="cls-2" x="27.74" y="23.32" width="1.68" height="14.74"/><rect class="cls-2" x="31.95" y="23.32" width="1.68" height="14.74"/><rect class="cls-2" x="36.16" y="23.32" width="1.68" height="14.74"/><rect class="cls-2" x="19.32" y="23.32" width="1.68" height="14.74"/><path class="cls-2" d="M11.32,8.6H33.21V19.11H34.9V2.89A1.9,1.9,0,0,0,33,1H11.53a1.9,1.9,0,0,0-1.9,1.89V19.11h1.69Zm.21-5.92H33a.21.21,0,0,1,.21.21v4H11.32v-4A.21.21,0,0,1,11.53,2.68Z"/><polygon class="cls-2" points="14.06 17.84 21.42 14.26 21.42 13.84 14.06 10.05 14.06 11.53 18.69 14.05 14.06 16.37 14.06 17.84"/><rect class="cls-2" x="22.48" y="15.95" width="7.58" height="1.68"/><circle class="cls-2" cx="13.42" cy="4.79" r="0.84"/><circle class="cls-2" cx="16.37" cy="4.79" r="0.84"/><circle class="cls-2" cx="19.32" cy="4.79" r="0.84"/></svg>