<?xml version="1.0" encoding="UTF-8"?>
<svg id="Layer_1" data-name="Layer 1" xmlns="http://www.w3.org/2000/svg" viewBox="0 0 42 31.85">
  <metadata><?xpacket begin="﻿" id="W5M0MpCehiHzreSzNTczkc9d"?>
<x:xmpmeta xmlns:x="adobe:ns:meta/" x:xmptk="Adobe XMP Core 7.1-c000 79.4d2f597, 2021/09/01-20:51:22        ">
   <rdf:RDF xmlns:rdf="http://www.w3.org/1999/02/22-rdf-syntax-ns#">
      <rdf:Description rdf:about=""
            xmlns:dc="http://purl.org/dc/elements/1.1/"
            xmlns:xmpRights="http://ns.adobe.com/xap/1.0/rights/"
            xmlns:xmp="http://ns.adobe.com/xap/1.0/"
            xmlns:xmpMM="http://ns.adobe.com/xap/1.0/mm/"
            xmlns:stEvt="http://ns.adobe.com/xap/1.0/sType/ResourceEvent#">
         <dc:rights>
            <rdf:Alt>
               <rdf:li xml:lang="x-default">Oracle All Rights</rdf:li>
            </rdf:Alt>
         </dc:rights>
         <dc:subject>
            <rdf:Bag>
               <rdf:li>bridge</rdf:li>
               <rdf:li>connection</rdf:li>
               <rdf:li>structure</rdf:li>
               <rdf:li>water</rdf:li>
               <rdf:li>graph</rdf:li>
               <rdf:li>stats</rdf:li>
               <rdf:li>analytic</rdf:li>
               <rdf:li>icon</rdf:li>
            </rdf:Bag>
         </dc:subject>
         <xmpRights:Marked>True</xmpRights:Marked>
         <xmp:MetadataDate>2024-07-05T18:09:40-06:00</xmp:MetadataDate>
         <xmpMM:InstanceID>xmp.iid:3d80b24d-865a-47c0-b54f-51f799ddb2b7</xmpMM:InstanceID>
         <xmpMM:DocumentID>xmp.did:8838b9a9-428d-4962-8eb9-35d70969c47f</xmpMM:DocumentID>
         <xmpMM:OriginalDocumentID>xmp.did:8838b9a9-428d-4962-8eb9-35d70969c47f</xmpMM:OriginalDocumentID>
         <xmpMM:History>
            <rdf:Seq>
               <rdf:li>
                  <rdf:Description>
                     <stEvt:action>saved</stEvt:action>
                     <stEvt:instanceID>xmp.iid:8838b9a9-428d-4962-8eb9-35d70969c47f</stEvt:instanceID>
                     <stEvt:when>2024-07-05T18:05:08-06:00</stEvt:when>
                     <stEvt:softwareAgent>Adobe Bridge 2023</stEvt:softwareAgent>
                     <stEvt:changed>/metadata</stEvt:changed>
                  </rdf:Description>
               </rdf:li>
               <rdf:li>
                  <rdf:Description>
                     <stEvt:action>saved</stEvt:action>
                     <stEvt:instanceID>xmp.iid:3d80b24d-865a-47c0-b54f-51f799ddb2b7</stEvt:instanceID>
                     <stEvt:when>2024-07-05T18:09:40-06:00</stEvt:when>
                     <stEvt:softwareAgent>Adobe Bridge 2023</stEvt:softwareAgent>
                     <stEvt:changed>/metadata</stEvt:changed>
                  </rdf:Description>
               </rdf:li>
            </rdf:Seq>
         </xmpMM:History>
      </rdf:Description>
   </rdf:RDF>
</x:xmpmeta>
                                                                                                    
                                                                                                    
                                                                                                    
                                                                                                    
                                                                                                    
                                                                                                    
                                                                                                    
                                                                                                    
                                                                                                    
                                                                                                    
                                                                                                    
                                 
<?xpacket end="w"?></metadata>
<defs>
    <style>
      .cls-1 {
        fill: #fff;
      }

      .cls-2 {
        fill: #2d5967;
      }
    </style>
  </defs>
  <path class="cls-1" d="m41,18.18h-.67c-2.47,0-4.47-1.18-5.94-3.51-1.27-2.02-1.73-4.29-1.73-5.33v-1.67h-3.33v1.67c0,.83-.23,2.47-.97,4.13V0h-14.68v13.28c-.58-1.4-.85-2.88-.85-3.93v-1.67h-3.33v1.67c0,1.04-.46,3.31-1.73,5.33-1.46,2.33-3.46,3.51-5.94,3.51H0v6h9.5v1.38c-.07.05-.13.09-.18.14-.06.04-.17.13-.21.15,0,0-.03,0-.11,0s-.11,0-.11,0c-.03-.01-.15-.1-.2-.15-.39-.3-1.11-.84-2.35-.84s-1.96.55-2.34.84c-.06.05-.18.14-.21.15,0,0-.03,0-.11,0s-.11,0-.11,0c-.03-.01-.15-.1-.2-.15-.39-.3-1.11-.84-2.35-.84H0v6h1c.09,0,.11,0,.11,0,.03.01.15.1.2.15.39.3,1.11.84,2.35.84s1.96-.55,2.34-.84c.06-.05.18-.14.21-.15,0,0,.03,0,.11,0s.11,0,.11,0c.03.01.15.1.2.15.39.3,1.11.84,2.35.84s1.96-.55,2.34-.84c.06-.05.18-.14.21-.15,0,0,.03,0,.11,0s.11,0,.11,0c.03.01.15.1.2.15.39.3,1.11.84,2.35.84s1.96-.55,2.34-.84c.06-.05.18-.14.21-.15,0,0,.03,0,.11,0s.11,0,.11,0c.03.01.15.1.2.15.39.3,1.11.84,2.35.84s1.96-.55,2.34-.84c.06-.05.18-.14.21-.15,0,0,.03,0,.11,0s.11,0,.11,0c.03.01.15.1.2.15.39.3,1.11.84,2.35.84s1.96-.55,2.34-.84c.06-.05.18-.14.21-.15,0,0,.03,0,.11,0s.11,0,.11,0c.03.01.15.1.2.15.39.3,1.11.84,2.35.84s1.96-.55,2.34-.84c.06-.05.18-.14.21-.15,0,0,.03,0,.11,0s.11,0,.11,0c.03.01.15.1.2.15.39.3,1.11.84,2.35.84s1.96-.55,2.34-.84c.06-.05.18-.14.21-.15,0,0,.03,0,.11,0s.11,0,.11,0c.03.01.15.1.2.15.39.3,1.11.84,2.35.84h1v-6h-1c-.09,0-.11,0-.11,0-.03-.01-.15-.1-.2-.15-.39-.3-1.11-.84-2.35-.84s-1.96.55-2.34.84c-.06.05-.18.14-.21.15,0,0-.03,0-.11,0s-.11,0-.11,0c-.03-.01-.15-.1-.2-.15-.39-.3-1.11-.84-2.35-.84-.12,0-.23,0-.33,0v-.67h9.33v-6h-1Zm-26.32-3.5h13.05c-1.46,2.35-3.61,3.5-6.56,3.5s-5.27-1.15-6.72-3.42c-.02-.03-.03-.05-.05-.08h.29Zm14.65,10.56c-.41-.21-.95-.4-1.67-.4-1.24,0-1.96.55-2.34.84-.06.05-.18.14-.21.15,0,0-.03,0-.11,0s-.11,0-.11,0c-.03-.01-.15-.1-.2-.15-.39-.3-1.11-.84-2.35-.84s-1.96.55-2.34.84c-.06.05-.18.14-.21.15,0,0-.03,0-.11,0s-.11,0-.11,0c-.03-.01-.15-.1-.2-.15-.39-.3-1.11-.84-2.35-.84s-1.96.55-2.34.84c-.06.05-.18.14-.21.15,0,0-.03,0-.11,0s-.11,0-.11,0c-.03-.01-.15-.1-.2-.15-.25-.19-.63-.47-1.18-.65v-.86h16.5v1.06Z"/>
  <g>
    <path class="cls-2" d="m1,23.18h9.5v2.93c-.23.12-.42.25-.57.37-.3.23-.48.37-.93.37s-.63-.13-.93-.37c-.35-.27-.85-.63-1.73-.63s-1.38.37-1.73.63c-.3.23-.48.37-.93.37s-.63-.13-.93-.37c-.35-.27-.85-.63-1.73-.63v1.33c.45,0,.63.13.93.37.35.27.85.63,1.73.63s1.38-.37,1.73-.63c.3-.23.48-.37.93-.37s.63.13.93.37c.35.27.85.63,1.73.63s1.38-.37,1.73-.63c.3-.23.48-.37.93-.37s.63.13.93.37c.35.27.85.63,1.73.63s1.38-.37,1.73-.63c.3-.23.48-.37.93-.37s.63.13.93.37c.35.27.85.63,1.73.63s1.38-.37,1.73-.63c.3-.23.48-.37.93-.37s.63.13.93.37c.35.27.85.63,1.73.63s1.38-.37,1.73-.63c.3-.23.48-.37.93-.37s.63.13.93.37c.35.27.85.63,1.73.63s1.38-.37,1.73-.63c.3-.23.48-.37.93-.37s.63.13.93.37c.35.27.85.63,1.73.63s1.38-.37,1.73-.63c.3-.23.48-.37.93-.37s.63.13.93.37c.35.27.85.63,1.73.63v-1.33c-.45,0-.63-.13-.93-.37-.35-.27-.85-.63-1.73-.63s-1.38.37-1.73.63c-.3.23-.48.37-.93.37s-.63-.13-.93-.37c-.35-.27-.85-.63-1.73-.63s-1.02.17-1.33.35v-3.02h9.33v-1.33H1v1.33Zm10.83,0h18.5v3.67h0c-.45,0-.63-.13-.93-.37-.35-.27-.85-.63-1.73-.63s-1.38.37-1.73.63c-.3.23-.48.37-.93.37s-.63-.13-.93-.37c-.35-.27-.85-.63-1.73-.63s-1.38.37-1.73.63c-.3.23-.48.37-.93.37s-.63-.13-.93-.37c-.35-.27-.85-.63-1.73-.63s-1.38.37-1.73.63c-.3.23-.48.37-.93.37s-.63-.13-.93-.37c-.33-.25-.78-.58-1.57-.62,0,0,0-2.68,0-2.68Z"/>
    <path class="cls-2" d="m40.5,19.18h-.17c-6.53,0-8.67-7.32-8.67-9.83v-.67h-1.33v.67c0,1.12-.35,3.58-1.7,5.78-1.63,2.68-4.15,4.05-7.47,4.05s-5.92-1.3-7.57-3.88c-1.3-2.03-1.77-4.48-1.77-5.95v-.67h-1.33v.67c0,2.52-2.13,9.83-8.67,9.83h-.83v1.33h40v-1.33h-.5Zm-30,0h-3.92c1.4-.88,2.4-2.08,3.1-3.17.3-.48.58-.97.82-1.47v4.63Zm1.33,0v-4.32c.2.4.4.78.65,1.15.7,1.08,1.75,2.28,3.28,3.17h-3.93Zm18.5,0h-3.9c1.35-.78,2.47-1.92,3.35-3.37.2-.33.38-.68.55-1.03v4.4h0Zm1.33,0v-4.63c.23.5.5,1,.82,1.47.7,1.08,1.7,2.28,3.1,3.17h-3.92Z"/>
    <path class="cls-2" d="m38.33,28.52c-.88,0-1.38.37-1.73.63-.3.23-.48.37-.93.37s-.63-.13-.93-.37c-.35-.27-.85-.63-1.73-.63s-1.38.37-1.73.63c-.3.23-.48.37-.93.37s-.63-.13-.93-.37c-.35-.27-.85-.63-1.73-.63s-1.38.37-1.73.63c-.3.23-.48.37-.93.37s-.63-.13-.93-.37c-.35-.27-.85-.63-1.73-.63s-1.38.37-1.73.63c-.3.23-.48.37-.93.37s-.63-.13-.93-.37c-.35-.27-.85-.63-1.73-.63s-1.38.37-1.73.63c-.3.23-.48.37-.93.37s-.63-.13-.93-.37c-.35-.27-.85-.63-1.73-.63s-1.38.37-1.73.63c-.3.23-.48.37-.93.37s-.63-.13-.93-.37c-.35-.27-.85-.63-1.73-.63s-1.38.37-1.73.63c-.3.23-.48.37-.93.37s-.63-.13-.93-.37c-.35-.27-.85-.63-1.73-.63v1.33c.45,0,.63.13.93.37.35.27.85.63,1.73.63s1.38-.37,1.73-.63c.3-.23.48-.37.93-.37s.63.13.93.37c.35.27.85.63,1.73.63s1.38-.37,1.73-.63c.3-.23.48-.37.93-.37s.63.13.93.37c.35.27.85.63,1.73.63s1.38-.37,1.73-.63c.3-.23.48-.37.93-.37s.63.13.93.37c.35.27.85.63,1.73.63s1.38-.37,1.73-.63c.3-.23.48-.37.93-.37s.63.13.93.37c.35.27.85.63,1.73.63s1.38-.37,1.73-.63c.3-.23.48-.37.93-.37s.63.13.93.37c.35.27.85.63,1.73.63s1.38-.37,1.73-.63c.3-.23.48-.37.93-.37s.63.13.93.37c.35.27.85.63,1.73.63s1.38-.37,1.73-.63c.3-.23.48-.37.93-.37s.63.13.93.37c.35.27.85.63,1.73.63v-1.33c-.45,0-.63-.13-.93-.37-.35-.27-.85-.63-1.73-.63h0Z"/>
    <path class="cls-2" d="m27.37,1h-12.68v12.68h12.68V1Zm-1.33,11.35h-1.5v-7.85h-1.33v7.85h-1.5v-5.82h-1.33v5.82h-1.5v-3.78h-1.33v3.78h-1.5V2.33h10.02v10.02h-.02Z"/>
  </g>
</svg>