<svg id="Layer_1" data-name="Layer 1" xmlns="http://www.w3.org/2000/svg" viewBox="0 0 42.08 41.12"><defs><style>.cls-1{fill:#fff;}.cls-2{fill:#2c5967;}</style></defs><title>SaaS Cloud Service</title><metadata><?xpacket begin="﻿" id="W5M0MpCehiHzreSzNTczkc9d"?>
<x:xmpmeta xmlns:x="adobe:ns:meta/" x:xmptk="Adobe XMP Core 6.0-c006 79.164648, 2021/01/12-15:52:29        ">
   <rdf:RDF xmlns:rdf="http://www.w3.org/1999/02/22-rdf-syntax-ns#">
      <rdf:Description rdf:about=""
            xmlns:dc="http://purl.org/dc/elements/1.1/"
            xmlns:lr="http://ns.adobe.com/lightroom/1.0/"
            xmlns:xmp="http://ns.adobe.com/xap/1.0/"
            xmlns:xmpMM="http://ns.adobe.com/xap/1.0/mm/"
            xmlns:stEvt="http://ns.adobe.com/xap/1.0/sType/ResourceEvent#"
            xmlns:xmpRights="http://ns.adobe.com/xap/1.0/rights/">
         <dc:title>
            <rdf:Alt>
               <rdf:li xml:lang="x-default">SaaS Cloud Service</rdf:li>
            </rdf:Alt>
         </dc:title>
         <dc:subject>
            <rdf:Bag>
               <rdf:li>icon</rdf:li>
               <rdf:li>cloud</rdf:li>
               <rdf:li>software</rdf:li>
            </rdf:Bag>
         </dc:subject>
         <dc:rights>
            <rdf:Alt>
               <rdf:li xml:lang="x-default">Oracle All Rights Reserved</rdf:li>
            </rdf:Alt>
         </dc:rights>
         <lr:hierarchicalSubject>
            <rdf:Bag>
               <rdf:li>icon</rdf:li>
               <rdf:li>Other Keywords|cloud</rdf:li>
               <rdf:li>software</rdf:li>
            </rdf:Bag>
         </lr:hierarchicalSubject>
         <xmp:MetadataDate>2021-07-21T19:19:58-05:00</xmp:MetadataDate>
         <xmpMM:InstanceID>xmp.iid:f2b30878-48e9-4e10-aa28-60095e629175</xmpMM:InstanceID>
         <xmpMM:DocumentID>xmp.did:7348849f-755f-4684-b4e2-5a7636487562</xmpMM:DocumentID>
         <xmpMM:OriginalDocumentID>xmp.did:7348849f-755f-4684-b4e2-5a7636487562</xmpMM:OriginalDocumentID>
         <xmpMM:History>
            <rdf:Seq>
               <rdf:li>
                  <rdf:Description>
                     <stEvt:action>saved</stEvt:action>
                     <stEvt:instanceID>xmp.iid:7348849f-755f-4684-b4e2-5a7636487562</stEvt:instanceID>
                     <stEvt:when>2021-06-18T11:42-05:00</stEvt:when>
                     <stEvt:softwareAgent>Adobe Bridge 2021 (Macintosh)</stEvt:softwareAgent>
                     <stEvt:changed>/metadata</stEvt:changed>
                  </rdf:Description>
               </rdf:li>
               <rdf:li>
                  <rdf:Description>
                     <stEvt:action>saved</stEvt:action>
                     <stEvt:instanceID>xmp.iid:f2b30878-48e9-4e10-aa28-60095e629175</stEvt:instanceID>
                     <stEvt:when>2021-07-21T19:19:58-05:00</stEvt:when>
                     <stEvt:softwareAgent>Adobe Bridge 2021 (Macintosh)</stEvt:softwareAgent>
                     <stEvt:changed>/metadata</stEvt:changed>
                  </rdf:Description>
               </rdf:li>
            </rdf:Seq>
         </xmpMM:History>
         <xmpRights:Marked>True</xmpRights:Marked>
      </rdf:Description>
   </rdf:RDF>
</x:xmpmeta>
                                                                                                    
                                                                                                    
                                                                                                    
                                                                                                    
                                                                                                    
                                                                                                    
                                                                                                    
                                                                                                    
                                                                                                    
                                                                                                    
                                                                   
<?xpacket end="w"?></metadata>
<path class="cls-1" d="M13.37,40.62a2.43,2.43,0,0,1-2.43-2.43V21.48H.54L.65,20A9.87,9.87,0,0,1,6,12,2.37,2.37,0,0,0,7.2,10.28a7.59,7.59,0,0,1,7.45-6.13,5.79,5.79,0,0,1,.72,0h.23a2.26,2.26,0,0,0,1.68-.72A9.31,9.31,0,0,1,32.44,5.65,2.46,2.46,0,0,0,34.12,7a9.22,9.22,0,0,1,3,1.24,9.53,9.53,0,0,1,3.31,12.57l-.38.71H33V38.19a2.44,2.44,0,0,1-2.44,2.43Z"/><path class="cls-1" d="M24.11,1A8.76,8.76,0,0,1,32,5.88a2.94,2.94,0,0,0,2,1.56,9.16,9.16,0,0,1,2.86,1.18A9,9,0,0,1,40,20.53l-.24.45H32.5V38.19a1.93,1.93,0,0,1-1.94,1.93H13.37a1.93,1.93,0,0,1-1.93-1.93V21H1.08l.07-.92a9.4,9.4,0,0,1,5-7.67,2.91,2.91,0,0,0,1.52-2,7.09,7.09,0,0,1,4.1-5.13,7.21,7.21,0,0,1,2.85-.6c.23,0,.45,0,.67,0l.28,0a2.8,2.8,0,0,0,2-.88A8.85,8.85,0,0,1,24.11,1m0-1a9.82,9.82,0,0,0-7.19,3.14,1.78,1.78,0,0,1-1.32.56h-.19a6.34,6.34,0,0,0-.76,0,8.12,8.12,0,0,0-7.94,6.54,1.91,1.91,0,0,1-1,1.32A10.41,10.41,0,0,0,.15,20l-.07.92L0,22H10.44V38.19a2.93,2.93,0,0,0,2.93,2.93H30.56a2.94,2.94,0,0,0,2.94-2.93V22h6.86l.28-.52.24-.45A10,10,0,0,0,34.23,6.47a2,2,0,0,1-1.34-1A9.77,9.77,0,0,0,24.11,0Z"/><rect class="cls-2" x="26.7" y="30.14" width="2.79" height="2.79" rx="0.86"/><rect class="cls-2" x="18.53" y="30.24" width="2.79" height="2.79" rx="0.86"/><rect class="cls-2" x="14.45" y="30.24" width="2.79" height="2.79" rx="0.86"/><rect class="cls-2" x="22.62" y="30.24" width="2.79" height="2.79" rx="0.86"/><path class="cls-2" d="M28.42,14.56H15.53a1.07,1.07,0,0,0-1.08,1.07V27.88A1.07,1.07,0,0,0,15.53,29H28.42a1.07,1.07,0,0,0,1.07-1.07V15.63A1.07,1.07,0,0,0,28.42,14.56Zm-.65,12.68H16.17v-11h11.6Z"/><path class="cls-2" d="M30.56,11.55H13.37a1.94,1.94,0,0,0-1.93,1.94v24.7a1.93,1.93,0,0,0,1.93,1.93H30.56a1.93,1.93,0,0,0,1.94-1.93V13.49A1.94,1.94,0,0,0,30.56,11.55Zm.22,26.64a.21.21,0,0,1-.22.21H13.37a.21.21,0,0,1-.21-.21V13.49a.21.21,0,0,1,.21-.22H30.56a.22.22,0,0,1,.22.22Z"/><rect class="cls-2" x="20.47" y="35.4" width="3" height="1.72"/><path class="cls-2" d="M36.87,8.62A9.16,9.16,0,0,0,34,7.44a2.94,2.94,0,0,1-2-1.56A8.76,8.76,0,0,0,24.11,1a8.85,8.85,0,0,0-6.46,2.82,2.78,2.78,0,0,1-2.33.86,7.21,7.21,0,0,0-3.52.57,7.09,7.09,0,0,0-4.1,5.13,2.91,2.91,0,0,1-1.52,2,9.4,9.4,0,0,0-5,7.67L1.08,21h9.07V19.26H3a7.7,7.7,0,0,1,4-5.34,4.6,4.6,0,0,0,2.4-3.21,5.37,5.37,0,0,1,3.11-3.88,5.42,5.42,0,0,1,2.66-.44A4.48,4.48,0,0,0,18.91,5a7.12,7.12,0,0,1,5.2-2.27,7,7,0,0,1,6.34,3.92,4.7,4.7,0,0,0,3.19,2.48,7.19,7.19,0,0,1,2.31,1,7.32,7.32,0,0,1,2.76,9.19H33.82V21h5.94l.24-.45A9,9,0,0,0,36.87,8.62Z"/></svg>