<svg id="Layer_1" data-name="Layer 1" xmlns="http://www.w3.org/2000/svg" viewBox="0 0 39.66 42.11"><metadata><?xpacket begin="﻿" id="W5M0MpCehiHzreSzNTczkc9d"?>
<x:xmpmeta xmlns:x="adobe:ns:meta/" x:xmptk="Adobe XMP Core 6.0-c006 79.164648, 2021/01/12-15:52:29        ">
   <rdf:RDF xmlns:rdf="http://www.w3.org/1999/02/22-rdf-syntax-ns#">
      <rdf:Description rdf:about=""
            xmlns:dc="http://purl.org/dc/elements/1.1/"
            xmlns:xmp="http://ns.adobe.com/xap/1.0/"
            xmlns:xmpMM="http://ns.adobe.com/xap/1.0/mm/"
            xmlns:stEvt="http://ns.adobe.com/xap/1.0/sType/ResourceEvent#"
            xmlns:xmpRights="http://ns.adobe.com/xap/1.0/rights/"
            xmlns:lr="http://ns.adobe.com/lightroom/1.0/">
         <dc:subject>
            <rdf:Bag>
               <rdf:li>house</rdf:li>
               <rdf:li>warehouse</rdf:li>
               <rdf:li>building</rdf:li>
               <rdf:li>logistics</rdf:li>
               <rdf:li>icon</rdf:li>
            </rdf:Bag>
         </dc:subject>
         <dc:rights>
            <rdf:Alt>
               <rdf:li xml:lang="x-default">Oracle All Rights</rdf:li>
            </rdf:Alt>
         </dc:rights>
         <xmp:MetadataDate>2023-08-02T14:36:32-06:00</xmp:MetadataDate>
         <xmpMM:InstanceID>xmp.iid:cdfbb6ea-6143-4f94-b9f3-e3f0aad855f9</xmpMM:InstanceID>
         <xmpMM:DocumentID>xmp.did:f92c46db-f8b5-4c82-85fc-45b5dc10a618</xmpMM:DocumentID>
         <xmpMM:OriginalDocumentID>xmp.did:f92c46db-f8b5-4c82-85fc-45b5dc10a618</xmpMM:OriginalDocumentID>
         <xmpMM:History>
            <rdf:Seq>
               <rdf:li>
                  <rdf:Description>
                     <stEvt:action>saved</stEvt:action>
                     <stEvt:instanceID>xmp.iid:f92c46db-f8b5-4c82-85fc-45b5dc10a618</stEvt:instanceID>
                     <stEvt:when>2023-08-02T14:27:25-06:00</stEvt:when>
                     <stEvt:softwareAgent>Adobe Bridge 2021 (Macintosh)</stEvt:softwareAgent>
                     <stEvt:changed>/metadata</stEvt:changed>
                  </rdf:Description>
               </rdf:li>
               <rdf:li>
                  <rdf:Description>
                     <stEvt:action>saved</stEvt:action>
                     <stEvt:instanceID>xmp.iid:cdfbb6ea-6143-4f94-b9f3-e3f0aad855f9</stEvt:instanceID>
                     <stEvt:when>2023-08-02T14:36:32-06:00</stEvt:when>
                     <stEvt:softwareAgent>Adobe Bridge 2021 (Macintosh)</stEvt:softwareAgent>
                     <stEvt:changed>/metadata</stEvt:changed>
                  </rdf:Description>
               </rdf:li>
            </rdf:Seq>
         </xmpMM:History>
         <xmpRights:Marked>True</xmpRights:Marked>
         <lr:hierarchicalSubject>
            <rdf:Bag>
               <rdf:li>Other Keywords|icon</rdf:li>
            </rdf:Bag>
         </lr:hierarchicalSubject>
      </rdf:Description>
   </rdf:RDF>
</x:xmpmeta>
                                                                                                    
                                                                                                    
                                                                                                    
                                                                                                    
                                                                                                    
                                                                                                    
                                                                                                    
                                                                                                    
                                                                                                    
                                                                                            
<?xpacket end="w"?></metadata>
<polygon points="38.76 9.03 38.09 8.71 37.19 8.28 37.17 8.27 36.28 7.85 20.25 0.21 19.82 0 19.39 0.21 2.47 8.39 0.9 9.15 0 9.58 0.43 10.48 0.81 11.27 1.08 11.82 1.7 11.83 2.06 11.84 2.06 25.97 2.06 27.71 2.06 28.71 3.06 28.71 6.52 28.71 6.52 31.22 3.96 31.22 2.96 31.22 2.96 32.22 2.96 41.11 2.96 42.11 3.96 42.11 12.85 42.11 13.85 42.11 14.4 42.11 15.4 42.11 24.29 42.11 25.29 42.11 25.83 42.11 26.83 42.11 29.83 42.11 35.72 42.11 36.72 42.11 36.72 41.11 36.72 32.22 36.72 31.22 35.72 31.22 33.13 31.22 33.13 28.71 36.59 28.71 37.59 28.71 37.59 27.71 37.59 25.97 37.59 24.97 37.58 24.97 37.58 11.72 37.97 11.71 38.59 11.7 38.85 11.14 39.23 10.36 39.66 9.46 38.76 9.03" fill="#fff"/><path d="M2.9,9.29l-1.56.76.37.78,1.35,0V26h0v1.74H7.52v4.51H4v8.89h8.89V32.22H9.27V27.71H19v4.51H15.4v8.89h8.88V32.22H20.7V27.71h9.69v4.51H26.83v8.89h8.89V32.22H32.13V27.71h4.46V26h0V10.74l1.37,0,.38-.78-1.58-.75-.21.46h0l.21-.46L19.82,1.11,2.9,9.29m8.21,30.08H5.7V34h5.41Zm11.43,0h-5.4V34h5.4Zm11.44,0H28.57V34H34ZM20.7,26V22.53h3.58V13.64H15.39v8.89H19V26H4.81V10.3L19.83,3l15,7.16V26Zm-3.57-5.18V15.38h5.41v5.41Z" fill="#2c5967"/></svg>