<svg id="Layer_1" data-name="Layer 1" xmlns="http://www.w3.org/2000/svg" viewBox="0 0 41.94 41.94"><defs><style>.cls-1{fill:#fff;}.cls-2{fill:#2c5967;}</style></defs><title>OCI-VM-Endpoint</title><metadata><?xpacket begin="﻿" id="W5M0MpCehiHzreSzNTczkc9d"?>
<x:xmpmeta xmlns:x="adobe:ns:meta/" x:xmptk="Adobe XMP Core 6.0-c006 79.164648, 2021/01/12-15:52:29        ">
   <rdf:RDF xmlns:rdf="http://www.w3.org/1999/02/22-rdf-syntax-ns#">
      <rdf:Description rdf:about=""
            xmlns:dc="http://purl.org/dc/elements/1.1/"
            xmlns:lr="http://ns.adobe.com/lightroom/1.0/"
            xmlns:xmp="http://ns.adobe.com/xap/1.0/"
            xmlns:xmpMM="http://ns.adobe.com/xap/1.0/mm/"
            xmlns:stEvt="http://ns.adobe.com/xap/1.0/sType/ResourceEvent#">
         <dc:title>
            <rdf:Alt>
               <rdf:li xml:lang="x-default">OCI-VM-Endpoint</rdf:li>
            </rdf:Alt>
         </dc:title>
         <dc:subject>
            <rdf:Bag>
               <rdf:li>icon</rdf:li>
               <rdf:li>Connectivity</rdf:li>
               <rdf:li>Networking</rdf:li>
               <rdf:li>Network</rdf:li>
               <rdf:li>VM</rdf:li>
            </rdf:Bag>
         </dc:subject>
         <lr:hierarchicalSubject>
            <rdf:Bag>
               <rdf:li>icon</rdf:li>
               <rdf:li>Connectivity</rdf:li>
               <rdf:li>Networking</rdf:li>
               <rdf:li>Network</rdf:li>
               <rdf:li>VM</rdf:li>
            </rdf:Bag>
         </lr:hierarchicalSubject>
         <xmp:MetadataDate>2021-07-22T15:45:12-05:00</xmp:MetadataDate>
         <xmpMM:InstanceID>xmp.iid:045f5fce-5566-4642-8c54-0b1a751498fd</xmpMM:InstanceID>
         <xmpMM:DocumentID>xmp.did:85888b4c-b773-48c0-98fa-70d4711b6f6b</xmpMM:DocumentID>
         <xmpMM:OriginalDocumentID>xmp.did:85888b4c-b773-48c0-98fa-70d4711b6f6b</xmpMM:OriginalDocumentID>
         <xmpMM:History>
            <rdf:Seq>
               <rdf:li>
                  <rdf:Description>
                     <stEvt:action>saved</stEvt:action>
                     <stEvt:instanceID>xmp.iid:85888b4c-b773-48c0-98fa-70d4711b6f6b</stEvt:instanceID>
                     <stEvt:when>2021-07-16T14:19:59-05:00</stEvt:when>
                     <stEvt:softwareAgent>Adobe Bridge 2021 (Macintosh)</stEvt:softwareAgent>
                     <stEvt:changed>/metadata</stEvt:changed>
                  </rdf:Description>
               </rdf:li>
               <rdf:li>
                  <rdf:Description>
                     <stEvt:action>saved</stEvt:action>
                     <stEvt:instanceID>xmp.iid:045f5fce-5566-4642-8c54-0b1a751498fd</stEvt:instanceID>
                     <stEvt:when>2021-07-22T15:45:12-05:00</stEvt:when>
                     <stEvt:softwareAgent>Adobe Bridge 2021 (Macintosh)</stEvt:softwareAgent>
                     <stEvt:changed>/metadata</stEvt:changed>
                  </rdf:Description>
               </rdf:li>
            </rdf:Seq>
         </xmpMM:History>
      </rdf:Description>
   </rdf:RDF>
</x:xmpmeta>
                                                                                                    
                                                                                                    
                                                                                                    
                                                                                                    
                                                                                                    
                                                                                                    
                                                                                                    
                                                                                                    
                                                                                                    
                                                                                                    
                                                                                                    
                                                                                                    

<?xpacket end="w"?></metadata>
<rect class="cls-1" x="0.5" y="0.5" width="40.94" height="40.94" rx="2.16"/><path class="cls-1" d="M39.28,1a1.66,1.66,0,0,1,1.66,1.66V39.28a1.66,1.66,0,0,1-1.66,1.66H2.66A1.66,1.66,0,0,1,1,39.28V2.66A1.67,1.67,0,0,1,2.66,1H39.28m0-1H2.66A2.67,2.67,0,0,0,0,2.66V39.28a2.67,2.67,0,0,0,2.66,2.66H39.28a2.66,2.66,0,0,0,2.66-2.66V2.66A2.67,2.67,0,0,0,39.28,0Z"/><path class="cls-2" d="M39.28,1H32.93V2.48h6.35a.18.18,0,0,1,.18.18V39.28a.18.18,0,0,1-.18.18H2.66a.18.18,0,0,1-.18-.18V2.66a.18.18,0,0,1,.18-.18H29.23V1H2.66A1.67,1.67,0,0,0,1,2.66V39.28a1.66,1.66,0,0,0,1.66,1.66H39.28a1.66,1.66,0,0,0,1.66-1.66V2.66A1.66,1.66,0,0,0,39.28,1Z"/><path class="cls-2" d="M6.55,35.39h29V26.52h-29ZM8,28H34.1v5.92H8Z"/><circle class="cls-2" cx="30.77" cy="30.96" r="1.11"/><path class="cls-2" d="M15.42,6.55H6.55v8.87h8.87Zm-1.48,7.39H8V8h5.91Z"/><path class="cls-2" d="M16.53,15.42h8.15a7.36,7.36,0,0,1-.89-1.48H18V8h5.44a7.58,7.58,0,0,1,.66-1.48H16.53Z"/><path class="cls-2" d="M15.42,16.53H6.55v8.88h8.87Zm-1.48,7.4H8V18h5.91Z"/><path class="cls-2" d="M25.41,16.53H16.53v8.88h8.88Zm-1.48,7.4H18V18h5.92Z"/><path class="cls-2" d="M35.39,25.41V17.34a7.23,7.23,0,0,1-1.47.74v5.85H28V18h.06a8.17,8.17,0,0,1-1.54-.83v8.23Z"/><path class="cls-2" d="M24.15,10.56a6.93,6.93,0,0,0,6.93,6.93,6.56,6.56,0,0,0,1.73-.22,4.88,4.88,0,0,0,.65-.2l.32-.12A7.47,7.47,0,0,0,35,16.31l.27-.2a6.36,6.36,0,0,0,1-.89c.08-.08.15-.17.22-.25a5.39,5.39,0,0,0,.4-.54c.12-.18.24-.37.35-.57s.2-.4.29-.6a7,7,0,0,0,0-5.4c-.09-.21-.19-.41-.29-.61s-.23-.39-.35-.57-.26-.36-.4-.53a2.62,2.62,0,0,0-.22-.25,7,7,0,0,0-1-.9L35,4.81a6.74,6.74,0,0,0-1.18-.64L33.46,4l-.53-.17V5.42a5.46,5.46,0,1,1-3.7,0V3.88A6.93,6.93,0,0,0,24.15,10.56Z"/><path class="cls-2" d="M30.34,7.88a2.78,2.78,0,1,0,1.48,0V1H30.34Z"/></svg>