<svg id="Layer_1" data-name="Layer 1" xmlns="http://www.w3.org/2000/svg" viewBox="0 0 42 30.52"><metadata><?xpacket begin="﻿" id="W5M0MpCehiHzreSzNTczkc9d"?>
<x:xmpmeta xmlns:x="adobe:ns:meta/" x:xmptk="Adobe XMP Core 6.0-c006 79.164648, 2021/01/12-15:52:29        ">
   <rdf:RDF xmlns:rdf="http://www.w3.org/1999/02/22-rdf-syntax-ns#">
      <rdf:Description rdf:about=""
            xmlns:dc="http://purl.org/dc/elements/1.1/"
            xmlns:xmp="http://ns.adobe.com/xap/1.0/"
            xmlns:xmpMM="http://ns.adobe.com/xap/1.0/mm/"
            xmlns:stEvt="http://ns.adobe.com/xap/1.0/sType/ResourceEvent#"
            xmlns:xmpRights="http://ns.adobe.com/xap/1.0/rights/"
            xmlns:lr="http://ns.adobe.com/lightroom/1.0/">
         <dc:subject>
            <rdf:Bag>
               <rdf:li>Tools</rdf:li>
               <rdf:li>computer</rdf:li>
               <rdf:li>migration</rdf:li>
               <rdf:li>service</rdf:li>
               <rdf:li>icon</rdf:li>
            </rdf:Bag>
         </dc:subject>
         <dc:rights>
            <rdf:Alt>
               <rdf:li xml:lang="x-default">Oracle All Rights</rdf:li>
            </rdf:Alt>
         </dc:rights>
         <xmp:MetadataDate>2023-08-02T14:36:31-06:00</xmp:MetadataDate>
         <xmpMM:InstanceID>xmp.iid:f9de9193-17d1-42d0-98bc-a04088f5369f</xmpMM:InstanceID>
         <xmpMM:DocumentID>xmp.did:84e5d1e1-f654-42dc-94c1-43ad3084cec2</xmpMM:DocumentID>
         <xmpMM:OriginalDocumentID>xmp.did:84e5d1e1-f654-42dc-94c1-43ad3084cec2</xmpMM:OriginalDocumentID>
         <xmpMM:History>
            <rdf:Seq>
               <rdf:li>
                  <rdf:Description>
                     <stEvt:action>saved</stEvt:action>
                     <stEvt:instanceID>xmp.iid:84e5d1e1-f654-42dc-94c1-43ad3084cec2</stEvt:instanceID>
                     <stEvt:when>2023-08-02T13:50:04-06:00</stEvt:when>
                     <stEvt:softwareAgent>Adobe Bridge 2021 (Macintosh)</stEvt:softwareAgent>
                     <stEvt:changed>/metadata</stEvt:changed>
                  </rdf:Description>
               </rdf:li>
               <rdf:li>
                  <rdf:Description>
                     <stEvt:action>saved</stEvt:action>
                     <stEvt:instanceID>xmp.iid:f9de9193-17d1-42d0-98bc-a04088f5369f</stEvt:instanceID>
                     <stEvt:when>2023-08-02T14:36:31-06:00</stEvt:when>
                     <stEvt:softwareAgent>Adobe Bridge 2021 (Macintosh)</stEvt:softwareAgent>
                     <stEvt:changed>/metadata</stEvt:changed>
                  </rdf:Description>
               </rdf:li>
            </rdf:Seq>
         </xmpMM:History>
         <xmpRights:Marked>True</xmpRights:Marked>
         <lr:hierarchicalSubject>
            <rdf:Bag>
               <rdf:li>Other Keywords|icon</rdf:li>
            </rdf:Bag>
         </lr:hierarchicalSubject>
      </rdf:Description>
   </rdf:RDF>
</x:xmpmeta>
                                                                                                    
                                                                                                    
                                                                                                    
                                                                                                    
                                                                                                    
                                                                                                    
                                                                                                    
                                                                                                    
                                                                                                    
                                                                                            
<?xpacket end="w"?></metadata>
<path d="M2.37,30,.5,29.09V27.91l3.89-7.26v-18A2.17,2.17,0,0,1,6.56.5H35.44a2.17,2.17,0,0,1,2.17,2.17V20.38l3.89,7.54v1.17L39.63,30Z" fill="#fff"/><path d="M35.44,1a1.67,1.67,0,0,1,1.67,1.67V20.5L41,28v.74l-1.48.74h-37L1,28.78V28l3.89-7.26V2.67A1.67,1.67,0,0,1,6.56,1H35.44m0-1H6.56A2.68,2.68,0,0,0,3.89,2.67V20.53l-3.77,7L0,27.79V29.4l.55.27L2,30.41l.21.11h37.5l.21-.11,1.49-.74L42,29.4V27.79l-.11-.21-3.78-7.32V2.67A2.68,2.68,0,0,0,35.44,0Z" fill="#fff"/><path d="M8.78,22.67H33.22v1.48H8.78Zm6.29,4.07H26.93V25.26H15.07ZM41,28h0v.74l-1.48.74h-37L1,28.78V28H1l3.89-7.26V2.67A1.67,1.67,0,0,1,6.56,1H35.44a1.67,1.67,0,0,1,1.67,1.67V20.5L41,28Zm-5-6.48H6.16L2.68,28H39.33ZM6.37,20.07H35.63V2.67a.18.18,0,0,0-.19-.19H6.56a.18.18,0,0,0-.19.19Z" fill="#2c5967"/><path d="M26.69,14,28,15.2a1.27,1.27,0,0,0,.37.86l1.09,1.11a1.26,1.26,0,0,0,.9.39h0a1.11,1.11,0,0,0,.79-.33L34,14.4a1.2,1.2,0,0,0-.06-1.68l-1.09-1.11a1.26,1.26,0,0,0-.9-.39h-.15c-.86-.83-3-2.88-4.87-4.79a3.45,3.45,0,0,0-4.25-.5c-1,.43-3.91,1.75-3.94,1.77l-.13,0a8.43,8.43,0,0,1,.49,1.36c.32,0,2.71,0,3.76,0a1.16,1.16,0,0,1,.87.41,1.94,1.94,0,0,1,.13,1.54v0a16.83,16.83,0,0,1-2.07,2.42l1.11,1c2.22-2.33,2.41-2.86,2.43-3.18a3.23,3.23,0,0,0-.39-2.67,2.68,2.68,0,0,0-1.95-1l-.49,0,.78-.35c1.1-.48,1.84-.6,2.6.17,1.76,1.8,3.76,3.73,4.72,4.66L28.81,13.9l-1.14-1a1.82,1.82,0,0,0-1.26-.42c-.33,0-.67,0-3.09,2.49l1.12,1a20.27,20.27,0,0,1,2.1-2A.3.3,0,0,1,26.69,14Zm5.25-1.14.74.76L30.37,16l-.74-.76Z" fill="#2c5967"/><path d="M18.59,20.07h0Z" fill="#2c5967"/><path d="M16.79,18.49l-1.67,1.58h2.15l.64-.61Z" fill="#2c5967"/><path d="M19.56,13.14A6.44,6.44,0,0,1,18.11,10a6.21,6.21,0,0,0-1.93-3.61,5.85,5.85,0,0,0-5.68-.57,1.49,1.49,0,0,0-.86.83.88.88,0,0,0,.43,1l3.17,1.72a.44.44,0,0,1,.18.22h0l0,0,0,.07A5.32,5.32,0,0,1,13,10.79,3,3,0,0,1,12.16,12a.34.34,0,0,1-.26,0l-3-1.63a.88.88,0,0,0-1.21.35,1.6,1.6,0,0,0-.1,1.11,5.46,5.46,0,0,0,1.77,3A5.26,5.26,0,0,0,12.9,16a5.41,5.41,0,0,1,3.72.89l.73.64,2.95,2.56h2.26l-4.24-3.68-.73-.64a6.48,6.48,0,0,0-4.14-1.27l-.66,0a3.76,3.76,0,0,1-2.46-.89,4.05,4.05,0,0,1-1-1.39l1.9,1a1.8,1.8,0,0,0,1.73,0,4,4,0,0,0,1.4-1.82,4.33,4.33,0,0,0,.58-1.9,1.85,1.85,0,0,0-1-1.46L11.81,6.9a4.36,4.36,0,0,1,3.4.58,4.85,4.85,0,0,1,1.45,2.76,7.7,7.7,0,0,0,1.93,4l.45.39,6.24,5.42h2.26L20,13.53ZM13.42,9.58Z" fill="#2c5967"/><path d="M8.78,22.67H33.22v1.48H8.78Zm6.29,4.07H26.93V25.26H15.07ZM41,28h0v.74l-1.48.74h-37L1,28.78V28H1l3.89-7.26V2.67A1.67,1.67,0,0,1,6.56,1H35.44a1.67,1.67,0,0,1,1.67,1.67V20.5L41,28Zm-5-6.48H6.16L2.68,28H39.33ZM6.37,20.07H35.63V2.67a.18.18,0,0,0-.19-.19H6.56a.18.18,0,0,0-.19.19Z" fill="#2c5967"/><path d="M26.69,14,28,15.2a1.27,1.27,0,0,0,.37.86l1.09,1.11a1.26,1.26,0,0,0,.9.39h0a1.11,1.11,0,0,0,.79-.33L34,14.4a1.2,1.2,0,0,0-.06-1.68l-1.09-1.11a1.26,1.26,0,0,0-.9-.39h-.15c-.86-.83-3-2.88-4.87-4.79a3.45,3.45,0,0,0-4.25-.5c-1,.43-3.91,1.75-3.94,1.77l-.13,0a8.43,8.43,0,0,1,.49,1.36c.32,0,2.71,0,3.76,0a1.16,1.16,0,0,1,.87.41,1.94,1.94,0,0,1,.13,1.54v0a16.83,16.83,0,0,1-2.07,2.42l1.11,1c2.22-2.33,2.41-2.86,2.43-3.18a3.23,3.23,0,0,0-.39-2.67,2.68,2.68,0,0,0-1.95-1l-.49,0,.78-.35c1.1-.48,1.84-.6,2.6.17,1.76,1.8,3.76,3.73,4.72,4.66L28.81,13.9l-1.14-1a1.82,1.82,0,0,0-1.26-.42c-.33,0-.67,0-3.09,2.49l1.12,1a20.27,20.27,0,0,1,2.1-2A.3.3,0,0,1,26.69,14Zm5.25-1.14.74.76L30.37,16l-.74-.76Z" fill="#2c5967"/><path d="M18.59,20.07h0Z" fill="#2c5967"/><path d="M16.79,18.49l-1.67,1.58h2.15l.64-.61Z" fill="#2c5967"/><path d="M19.56,13.14A6.44,6.44,0,0,1,18.11,10a6.21,6.21,0,0,0-1.93-3.61,5.85,5.85,0,0,0-5.68-.57,1.49,1.49,0,0,0-.86.83.88.88,0,0,0,.43,1l3.17,1.72a.44.44,0,0,1,.18.22h0l0,0,0,.07A5.32,5.32,0,0,1,13,10.79,3,3,0,0,1,12.16,12a.34.34,0,0,1-.26,0l-3-1.63a.88.88,0,0,0-1.21.35,1.6,1.6,0,0,0-.1,1.11,5.46,5.46,0,0,0,1.77,3A5.26,5.26,0,0,0,12.9,16a5.41,5.41,0,0,1,3.72.89l.73.64,2.95,2.56h2.26l-4.24-3.68-.73-.64a6.48,6.48,0,0,0-4.14-1.27l-.66,0a3.76,3.76,0,0,1-2.46-.89,4.05,4.05,0,0,1-1-1.39l1.9,1a1.8,1.8,0,0,0,1.73,0,4,4,0,0,0,1.4-1.82,4.33,4.33,0,0,0,.58-1.9,1.85,1.85,0,0,0-1-1.46L11.81,6.9a4.36,4.36,0,0,1,3.4.58,4.85,4.85,0,0,1,1.45,2.76,7.7,7.7,0,0,0,1.93,4l.45.39,6.24,5.42h2.26L20,13.53ZM13.42,9.58Z" fill="#2c5967"/></svg>