<svg id="Layer_1" data-name="Layer 1" xmlns="http://www.w3.org/2000/svg" viewBox="0 0 42.41 40.99"><metadata><?xpacket begin="﻿" id="W5M0MpCehiHzreSzNTczkc9d"?>
<x:xmpmeta xmlns:x="adobe:ns:meta/" x:xmptk="Adobe XMP Core 6.0-c006 79.164648, 2021/01/12-15:52:29        ">
   <rdf:RDF xmlns:rdf="http://www.w3.org/1999/02/22-rdf-syntax-ns#">
      <rdf:Description rdf:about=""
            xmlns:dc="http://purl.org/dc/elements/1.1/"
            xmlns:xmp="http://ns.adobe.com/xap/1.0/"
            xmlns:xmpMM="http://ns.adobe.com/xap/1.0/mm/"
            xmlns:stEvt="http://ns.adobe.com/xap/1.0/sType/ResourceEvent#"
            xmlns:xmpRights="http://ns.adobe.com/xap/1.0/rights/"
            xmlns:lr="http://ns.adobe.com/lightroom/1.0/">
         <dc:subject>
            <rdf:Bag>
               <rdf:li>database</rdf:li>
               <rdf:li>compass</rdf:li>
               <rdf:li>magnifying glass</rdf:li>
               <rdf:li>search</rdf:li>
               <rdf:li>explore</rdf:li>
               <rdf:li>icon</rdf:li>
            </rdf:Bag>
         </dc:subject>
         <dc:rights>
            <rdf:Alt>
               <rdf:li xml:lang="x-default">Oracle All Rights</rdf:li>
            </rdf:Alt>
         </dc:rights>
         <xmp:MetadataDate>2023-08-02T14:36:32-06:00</xmp:MetadataDate>
         <xmpMM:InstanceID>xmp.iid:83fa2336-261c-4024-9d4d-868e194cf690</xmpMM:InstanceID>
         <xmpMM:DocumentID>xmp.did:fbc0448f-c461-484e-b0ef-d7d7d9312880</xmpMM:DocumentID>
         <xmpMM:OriginalDocumentID>xmp.did:fbc0448f-c461-484e-b0ef-d7d7d9312880</xmpMM:OriginalDocumentID>
         <xmpMM:History>
            <rdf:Seq>
               <rdf:li>
                  <rdf:Description>
                     <stEvt:action>saved</stEvt:action>
                     <stEvt:instanceID>xmp.iid:fbc0448f-c461-484e-b0ef-d7d7d9312880</stEvt:instanceID>
                     <stEvt:when>2023-08-02T14:24:59-06:00</stEvt:when>
                     <stEvt:softwareAgent>Adobe Bridge 2021 (Macintosh)</stEvt:softwareAgent>
                     <stEvt:changed>/metadata</stEvt:changed>
                  </rdf:Description>
               </rdf:li>
               <rdf:li>
                  <rdf:Description>
                     <stEvt:action>saved</stEvt:action>
                     <stEvt:instanceID>xmp.iid:83fa2336-261c-4024-9d4d-868e194cf690</stEvt:instanceID>
                     <stEvt:when>2023-08-02T14:36:32-06:00</stEvt:when>
                     <stEvt:softwareAgent>Adobe Bridge 2021 (Macintosh)</stEvt:softwareAgent>
                     <stEvt:changed>/metadata</stEvt:changed>
                  </rdf:Description>
               </rdf:li>
            </rdf:Seq>
         </xmpMM:History>
         <xmpRights:Marked>True</xmpRights:Marked>
         <lr:hierarchicalSubject>
            <rdf:Bag>
               <rdf:li>Other Keywords|icon</rdf:li>
            </rdf:Bag>
         </lr:hierarchicalSubject>
      </rdf:Description>
   </rdf:RDF>
</x:xmpmeta>
                                                                                                    
                                                                                                    
                                                                                                    
                                                                                                    
                                                                                                    
                                                                                                    
                                                                                                    
                                                                                                    
                                                                                                    
                                                                                            
<?xpacket end="w"?></metadata>
<path d="M21.18,40.49c-2.34,0-10-.24-10-3.29V26q-.76.84-1.53,1.56l-3,2.88-6-6.18,3-2.88a37.65,37.65,0,0,1,3.92-3.26l3.84-2.69A10.36,10.36,0,0,1,28.18,3.66,10.23,10.23,0,0,1,31.08,11a10,10,0,0,1-.53,3.13A4.94,4.94,0,0,1,31.1,14a16.07,16.07,0,0,1,4.42-.54c2.38,0,6.37.32,6.39,2.48v8.87c0,1.3-1.46,2.1-4.34,2.36v3.17c0,1.64-2.15,2.59-6.4,2.83v4C31.17,40.25,23.52,40.49,21.18,40.49Z" fill="#fff"/><path d="M20.72,1a9.89,9.89,0,0,1,8.91,14.12,5.5,5.5,0,0,1,1.59-.63,15.68,15.68,0,0,1,4.3-.52c1.39,0,5.88.14,5.89,2v8.86c0,1.34-2.45,1.77-4.34,1.9v3.63c0,1.86-4.3,2.26-6.4,2.35v4.5c0,2.72-8.51,2.79-9.49,2.79s-9.49-.07-9.49-2.79V24.7a34.4,34.4,0,0,1-2.37,2.54L6.69,29.77,1.41,24.31,4,21.78a38.4,38.4,0,0,1,3.87-3.22l4.19-2.93A9.84,9.84,0,0,1,20.72,1m0-1a10.84,10.84,0,0,0-9.9,15.31L7.33,17.74a38,38,0,0,0-4,3.32L.72,23.59l-.72.7L.7,25,6,30.47l.69.72.72-.7L10,28l.68-.67V37.2c0,3.3,6.57,3.79,10.49,3.79s10.49-.49,10.49-3.79V33.65c4.25-.32,6.4-1.42,6.4-3.3V27.63q4.34-.51,4.34-2.81V16c0-2.48-3.76-3-6.89-3a17.55,17.55,0,0,0-4.24.46A10.94,10.94,0,0,0,28.54,3.31,10.77,10.77,0,0,0,20.72,0Z" fill="#fff"/><path d="M13.13,28.76v3.42c.38.5,3.31,1.39,8,1.39s7.67-.89,8.05-1.39V28.76c-2.48,1.12-7.33,1.16-8,1.16S15.61,29.88,13.13,28.76Z" fill="none"/><path d="M13.13,33.84v3.31c.38.51,3.31,1.39,8,1.39s7.67-.88,8.05-1.39V33.84C26.75,35,21.9,35,21.18,35S15.61,35,13.13,33.84Z" fill="none"/><path d="M30.67,31.25c2.93-.12,4.61-.66,5-1V28a16.89,16.89,0,0,1-5,.83Z" fill="none"/><path d="M14.63,10.89v.73H12.37a8.39,8.39,0,0,0,7.87,7.63V17.4h1.45v1.81a8.25,8.25,0,0,0,4.88-2.3,8.4,8.4,0,0,0,2.53-5.29H27.29V10.17h1.83A8.42,8.42,0,0,0,21.69,2.5V4.38H20.24V2.47A8.29,8.29,0,0,0,14.89,4.8a8.4,8.4,0,0,0-2.54,5.35h2.28v.74ZM25.47,6.3l-2.21,6.31-.76-.76A1.82,1.82,0,0,0,20,9.39l-.9-.9Zm-7.09,3,.9.9a1.68,1.68,0,0,0-.2.81,1.82,1.82,0,0,0,1.81,1.81,1.73,1.73,0,0,0,.81-.2l.78.78-6.31,2.21Z" fill="none"/><path d="M30.67,27v.36c3-.12,4.63-.68,5-1V24a17.39,17.39,0,0,1-5,.83Z" fill="none"/><path d="M13.66,17.71a9.43,9.43,0,0,1-.73-.83L8.77,19.77a35.46,35.46,0,0,0-3.68,3.08l-1.6,1.52,3.28,3.38,1.59-1.52a35.56,35.56,0,0,0,3.22-3.6l3-4.05A8,8,0,0,1,13.66,17.71Z" fill="none"/><path d="M37.06,18.54v.83A7.24,7.24,0,0,0,40,18.74V17.37a12,12,0,0,1-3.09.52A1.16,1.16,0,0,1,37.06,18.54Z" fill="none"/><path d="M30.67,22.1v1.31c3-.13,4.63-.71,5-1v-2.3a18.11,18.11,0,0,1-5.59.85A1.56,1.56,0,0,1,30.67,22.1Z" fill="none"/><path d="M37.06,22.32A7.24,7.24,0,0,0,40,21.69V20.31a11.44,11.44,0,0,1-2.89.51Z" fill="none"/><path d="M35.52,15.41a13.14,13.14,0,0,0-4.09.53,12.75,12.75,0,0,0,4.09.54,12.75,12.75,0,0,0,4.09-.54A13,13,0,0,0,35.52,15.41Z" fill="none"/><path d="M37.06,25.27A7.54,7.54,0,0,0,40,24.65V23.26a11.44,11.44,0,0,1-2.89.51Z" fill="none"/><path d="M35.52,14a15.68,15.68,0,0,0-4.3.52,10.45,10.45,0,0,1-1.65,3.09c3.29,0,5.32.58,5.91,1-.59.38-2.65,1-6,1-.61,0-1.17,0-1.7-.05-.16.12-.31.25-.47.36a12.43,12.43,0,0,1-1.88,1.12c2.19.31,3.51.83,3.78,1.17-.4.55-3.29,1.47-8,1.47a24.71,24.71,0,0,1-6.38-.71l-.91,1.22a25.74,25.74,0,0,0,7.31.94c2.44,0,6.06-.29,8.05-1.23V27.1c-.38.5-3.31,1.39-8,1.39s-7.67-.89-8-1.39V25c-.47.58-1,1.14-1.44,1.67V37.2c0,2.72,8.51,2.79,9.49,2.79s9.49-.07,9.49-2.79V32.7c2.1-.09,6.4-.49,6.4-2.35V26.72c1.89-.13,4.34-.56,4.34-1.9V16C41.4,14.11,36.91,14,35.52,14ZM29.23,37.15c-.38.51-3.31,1.39-8,1.39s-7.67-.88-8-1.39V33.84C15.61,35,20.46,35,21.18,35s5.57,0,8.05-1.16Zm0-5c-.38.5-3.31,1.39-8,1.39s-7.67-.89-8-1.39V28.76c2.48,1.12,7.33,1.16,8,1.16s5.57,0,8.05-1.16Zm6.38-1.92c-.34.33-2,.87-4.95,1V28.78A16.83,16.83,0,0,0,35.61,28Zm0-4c-.31.33-2,.89-4.95,1V24.85A16.76,16.76,0,0,0,35.61,24Zm0-3.92c-.31.32-2,.88-4.95,1V22.1A1.48,1.48,0,0,0,30,20.93a18,18,0,0,0,5.59-.85v2.3Zm-.09-5.9a12.75,12.75,0,0,1-4.09-.54,12.83,12.83,0,0,1,4.09-.53,13.14,13.14,0,0,1,4.09.53A12.6,12.6,0,0,1,35.52,16.48ZM40,24.65a7.54,7.54,0,0,1-2.89.62v-1.5A12.4,12.4,0,0,0,40,23.26Zm0-3a7.24,7.24,0,0,1-2.89.63V20.84A12.4,12.4,0,0,0,40,20.33Zm0-3a7.24,7.24,0,0,1-2.89.63v-.83a1.27,1.27,0,0,0-.2-.65A12,12,0,0,0,40,17.37Z" fill="#2c5967"/><path d="M15.79,19.39a9.71,9.71,0,0,0,4.77,1.32h.19A9.83,9.83,0,0,0,30.58,11a9.77,9.77,0,0,0-2.76-7A9.86,9.86,0,0,0,12.1,15.63L7.91,18.56A38.4,38.4,0,0,0,4,21.78L1.41,24.31l5.28,5.46,2.63-2.53a34.56,34.56,0,0,0,3.36-3.76ZM14.9,4.82a8.36,8.36,0,0,1,5.36-2.34v1.9H21.7V2.52a8.42,8.42,0,0,1,7.44,7.67H27.31v1.44h1.81a8.39,8.39,0,0,1-7.42,7.6V17.42H20.26v1.86a8.39,8.39,0,0,1-7.87-7.63h2.26V10.21H12.37A8.34,8.34,0,0,1,14.9,4.82ZM8.34,26.23,6.75,27.75,3.48,24.37l1.59-1.52a34.58,34.58,0,0,1,3.69-3.08l4.16-2.89a7.14,7.14,0,0,0,.72.83,9.91,9.91,0,0,0,1,.87l-3,4.05A35.56,35.56,0,0,1,8.34,26.23Z" fill="#2c5967"/><path d="M21.72,12.61a1.68,1.68,0,0,1-.81.2A1.81,1.81,0,0,1,19.1,11a1.73,1.73,0,0,1,.2-.81l-.91-.91-2.22,6.3,6.31-2.21Z" fill="#2c5967"/><path d="M20.91,9.18a1.81,1.81,0,0,1,1.59,2.67l.76.76L25.47,6.3,19.15,8.51l.91.9A1.55,1.55,0,0,1,20.91,9.18Z" fill="#2c5967"/></svg>