<?xml version="1.0" encoding="UTF-8"?>
<svg id="Layer_1" data-name="Layer 1" xmlns="http://www.w3.org/2000/svg" viewBox="0 0 28.8 42">
  <metadata><?xpacket begin="﻿" id="W5M0MpCehiHzreSzNTczkc9d"?>
<x:xmpmeta xmlns:x="adobe:ns:meta/" x:xmptk="Adobe XMP Core 7.1-c000 79.4d2f597, 2021/09/01-20:51:22        ">
   <rdf:RDF xmlns:rdf="http://www.w3.org/1999/02/22-rdf-syntax-ns#">
      <rdf:Description rdf:about=""
            xmlns:dc="http://purl.org/dc/elements/1.1/"
            xmlns:xmpRights="http://ns.adobe.com/xap/1.0/rights/"
            xmlns:xmp="http://ns.adobe.com/xap/1.0/"
            xmlns:xmpMM="http://ns.adobe.com/xap/1.0/mm/"
            xmlns:stEvt="http://ns.adobe.com/xap/1.0/sType/ResourceEvent#">
         <dc:subject>
            <rdf:Bag>
               <rdf:li>icon</rdf:li>
               <rdf:li>database</rdf:li>
               <rdf:li>server</rdf:li>
               <rdf:li>technology</rdf:li>
               <rdf:li>automatic storage management</rdf:li>
               <rdf:li>disk</rdf:li>
               <rdf:li>group</rdf:li>
               <rdf:li>administration</rdf:li>
               <rdf:li>server</rdf:li>
               <rdf:li>platform</rdf:li>
            </rdf:Bag>
         </dc:subject>
         <dc:rights>
            <rdf:Alt>
               <rdf:li xml:lang="x-default">Oracle All Rights</rdf:li>
            </rdf:Alt>
         </dc:rights>
         <xmpRights:Marked/>
         <xmp:MetadataDate>2024-07-03T13:24:29-06:00</xmp:MetadataDate>
         <xmpMM:InstanceID>xmp.iid:3c3e28a8-6295-453d-a315-d3735952ab99</xmpMM:InstanceID>
         <xmpMM:DocumentID>xmp.did:3c3e28a8-6295-453d-a315-d3735952ab99</xmpMM:DocumentID>
         <xmpMM:OriginalDocumentID>xmp.did:3c3e28a8-6295-453d-a315-d3735952ab99</xmpMM:OriginalDocumentID>
         <xmpMM:History>
            <rdf:Seq>
               <rdf:li>
                  <rdf:Description>
                     <stEvt:action>saved</stEvt:action>
                     <stEvt:instanceID>xmp.iid:3c3e28a8-6295-453d-a315-d3735952ab99</stEvt:instanceID>
                     <stEvt:when>2024-07-03T13:24:29-06:00</stEvt:when>
                     <stEvt:softwareAgent>Adobe Bridge 2023</stEvt:softwareAgent>
                     <stEvt:changed>/metadata</stEvt:changed>
                  </rdf:Description>
               </rdf:li>
            </rdf:Seq>
         </xmpMM:History>
      </rdf:Description>
   </rdf:RDF>
</x:xmpmeta>
                                                                                                    
                                                                                                    
                                                                                                    
                                                                                                    
                                                                                                    
                                                                                                    
                                                                                                    
                                                                                                    
                                                                                                    
                                                                                                    
                                                                                                    
                                                                                                    
                                                                                                    
                                                                                                    
                                                                                                    
                                                                                                    
                                                                                                    
                                                                                                    
                                                                                                    
                                                                                                    
                           
<?xpacket end="w"?></metadata>
<defs>
    <style>
      .cls-1 {
        fill: #fff;
      }

      .cls-2 {
        fill: #2d5967;
      }
    </style>
  </defs>
  <path class="cls-1" d="m27.79,0h-10.35v19.58h3.85v.58h-4.38c-.54-.79-1.44-1.29-2.43-1.29s-1.89.5-2.43,1.29h-4.57v-.58h3.89V0H.01v19.58h4.17v3.87h7.87c.21.31.48.58.79.79-1.24.07-2.37.22-3.31.45-.78.19-3.15.75-3.15,2.69v.04h0s0,.04,0,.04v11.34c0,2.78,5.07,3.2,8.1,3.2s8.1-.42,8.1-3.2v-11.41h0s0-.01,0-.01c0-1.94-2.37-2.5-3.15-2.69-.93-.22-2.05-.38-3.28-.45v-.02c.3-.21.56-.47.77-.77h7.66v-3.87h4.21V0h-1Z"/>
  <g>
    <polygon class="cls-2" points="25.69 1 25.69 2.29 26.5 2.29 26.5 3.1 27.79 3.1 27.79 1 25.69 1"/>
    <rect class="cls-2" x="26.5" y="8.25" width="1.29" height="3.09"/>
    <rect class="cls-2" x="26.5" y="12.36" width="1.29" height="3.09"/>
    <rect class="cls-2" x="26.5" y="4.13" width="1.29" height="3.09"/>
    <rect class="cls-2" x="18.43" y="8.25" width="1.29" height="3.09"/>
    <rect class="cls-2" x="18.43" y="4.13" width="1.29" height="3.09"/>
    <rect class="cls-2" x="18.43" y="12.36" width="1.29" height="3.09"/>
    <polygon class="cls-2" points="19.72 2.29 20.53 2.29 20.53 1 18.43 1 18.43 3.1 19.72 3.1 19.72 2.29"/>
    <rect class="cls-2" x="21.56" y="1" width="3.1" height="1.29"/>
    <rect class="cls-2" x="20.69" y="3.9" width="4.84" height="1.29"/>
    <circle class="cls-2" cx="23.03" cy="14.55" r=".65"/>
    <rect class="cls-2" x="20.69" y="6.48" width="4.84" height="1.29"/>
    <rect class="cls-2" x="20.69" y="9.06" width="4.84" height="1.29"/>
    <rect class="cls-2" x="3.27" y="3.9" width="4.84" height="1.29"/>
    <circle class="cls-2" cx="5.61" cy="14.55" r=".65"/>
    <rect class="cls-2" x="3.27" y="6.48" width="4.84" height="1.29"/>
    <rect class="cls-2" x="3.27" y="9.06" width="4.84" height="1.29"/>
    <g>
      <polygon class="cls-2" points="20.53 17.29 19.72 17.29 19.72 16.48 18.43 16.48 18.43 18.58 20.53 18.58 20.53 17.29"/>
      <polygon class="cls-2" points="26.5 16.48 26.5 17.29 25.69 17.29 25.69 18.58 27.79 18.58 27.79 16.48 26.5 16.48"/>
      <path class="cls-2" d="m21.56,18.58h.72v2.58h-5.98c-.27-.75-.98-1.29-1.82-1.29s-1.56.54-1.82,1.29h-6.18v-2.58h3.89V1H1.01v17.58h4.17v3.87h7.47c.2.55.64.99,1.2,1.18v1.56c-1.54.03-2.97.2-4.09.46-1.6.38-2.39.94-2.39,1.72,0,.02,0,.03,0,.05,0,.01,0,.02,0,.03v11.34c0,2.14,6.37,2.2,7.1,2.2s7.1-.06,7.1-2.2v-11.34s0-.02,0-.03c0-.02,0-.03,0-.05,0-.77-.78-1.33-2.38-1.72-1.11-.26-2.52-.42-4.05-.46v-1.58c.54-.2.97-.63,1.16-1.17h7.27v-3.87h1.08v-1.29h-3.1v1.29Zm-19.26-1.29V2.29h6.77v15H2.3Zm11.53,4.52c0-.36.29-.65.65-.65,0,0,.01,0,.02,0,.35.01.63.29.63.64s-.28.63-.63.64c0,0-.01,0-.02,0-.36,0-.65-.29-.65-.65Zm6.45,16.92c-.34.35-2.34.99-5.81.99s-5.47-.63-5.81-.99v-2.35c1.9.79,5.29.82,5.81.82s3.9-.03,5.81-.82v2.35Zm0-4.45v.65h0c-.17.18-.79.44-1.82.65-.97.19-2.3.34-3.99.34s-3.02-.15-3.99-.34c-1.03-.21-1.65-.46-1.82-.64h0v-2.29c1.9.79,5.29.82,5.81.82s3.9-.03,5.81-.82v1.65Zm0-3.89v.79c-.13.14-.53.33-1.19.5-.98.26-2.54.49-4.62.49s-3.64-.23-4.62-.49c-.65-.17-1.05-.36-1.19-.5v-2.42c.31.13.67.24,1.09.34,1.27.3,2.94.47,4.71.47s3.45-.17,4.71-.47c.42-.1.79-.21,1.09-.34v1.63Zm-1.87-3.57c.91.18,1.5.39,1.77.56-.04.03-.09.05-.14.08-.43.22-1.33.48-2.66.65-.81.1-1.78.17-2.91.17s-2.1-.07-2.91-.17c-1.33-.17-2.22-.43-2.66-.65-.05-.03-.1-.06-.14-.08.26-.17.86-.39,1.77-.56.97-.19,2.28-.33,3.94-.33s2.97.14,3.94.33Z"/>
    </g>
  </g>
</svg>