<svg id="Layer_1" data-name="Layer 1" xmlns="http://www.w3.org/2000/svg" viewBox="0 0 41.67 40"><path d="M1.67,25.93H3.15V5.56h37V38.33a.19.19,0,0,1-.19.19H11.48V40H40a1.67,1.67,0,0,0,1.67-1.67V4.07h-40Z" fill="#2c5967"/><path d="M40,0H3.33A1.66,1.66,0,0,0,1.67,1.67V3h40V1.67A1.67,1.67,0,0,0,40,0Z" fill="#2c5967"/><path d="M36.67,14.82a1.51,1.51,0,0,0-1.52-1.49H18.26l-1.58-2a1.5,1.5,0,0,0-1.19-.57H8a1.48,1.48,0,0,0-1.5,1.46V25.93H8V17.41h7.86A1.57,1.57,0,0,0,17,16.83l1.59-2H35.19V32H11.48v1.48H36.67ZM15.86,15.91s0,0,0,0H8V12.22h7.55l1.63,2.07Z" fill="#2c5967"/><rect x="9.26" y="13.33" width="5.74" height="1.48" fill="#2c5967"/><path d="M10.37,27H0V40H10.37Zm-7,11.48H1.48v-10H8.89v10Z" fill="#2c5967"/><path d="M6.84,33.59a1.62,1.62,0,0,0-.2-2.06,2.07,2.07,0,0,0-1.37-.41H3.35v5H4.42v-2l.67.17L6.15,36.1H7.33l-1.25-2A1.41,1.41,0,0,0,6.84,33.59Zm-1-.31a1.63,1.63,0,0,1-.86.16H4.42V32h.52a1.63,1.63,0,0,1,.86.16.65.65,0,0,1,.25.57A.63.63,0,0,1,5.8,33.28Z" fill="#2c5967"/></svg>