<?xml version="1.0" encoding="UTF-8"?>
<svg id="Layer_1" data-name="Layer 1" xmlns="http://www.w3.org/2000/svg" viewBox="0 0 38.33 42">
  <metadata><?xpacket begin="﻿" id="W5M0MpCehiHzreSzNTczkc9d"?>
<x:xmpmeta xmlns:x="adobe:ns:meta/" x:xmptk="Adobe XMP Core 7.1-c000 79.4d2f597, 2021/09/01-20:51:22        ">
   <rdf:RDF xmlns:rdf="http://www.w3.org/1999/02/22-rdf-syntax-ns#">
      <rdf:Description rdf:about=""
            xmlns:xmp="http://ns.adobe.com/xap/1.0/"
            xmlns:xmpMM="http://ns.adobe.com/xap/1.0/mm/"
            xmlns:stEvt="http://ns.adobe.com/xap/1.0/sType/ResourceEvent#"
            xmlns:dc="http://purl.org/dc/elements/1.1/"
            xmlns:xmpRights="http://ns.adobe.com/xap/1.0/rights/">
         <xmp:MetadataDate>2023-11-08T16:48-06:00</xmp:MetadataDate>
         <xmpMM:InstanceID>xmp.iid:325efb5f-7720-784f-b816-ebd88e37d03b</xmpMM:InstanceID>
         <xmpMM:DocumentID>xmp.did:a12998d2-e0e3-6f4f-83a2-23d905952f4f</xmpMM:DocumentID>
         <xmpMM:OriginalDocumentID>xmp.did:a12998d2-e0e3-6f4f-83a2-23d905952f4f</xmpMM:OriginalDocumentID>
         <xmpMM:History>
            <rdf:Seq>
               <rdf:li>
                  <rdf:Description>
                     <stEvt:action>saved</stEvt:action>
                     <stEvt:instanceID>xmp.iid:a12998d2-e0e3-6f4f-83a2-23d905952f4f</stEvt:instanceID>
                     <stEvt:when>2023-11-08T16:46:08-06:00</stEvt:when>
                     <stEvt:softwareAgent>Adobe Bridge 2023</stEvt:softwareAgent>
                     <stEvt:changed>/metadata</stEvt:changed>
                  </rdf:Description>
               </rdf:li>
               <rdf:li>
                  <rdf:Description>
                     <stEvt:action>saved</stEvt:action>
                     <stEvt:instanceID>xmp.iid:325efb5f-7720-784f-b816-ebd88e37d03b</stEvt:instanceID>
                     <stEvt:when>2023-11-08T16:48-06:00</stEvt:when>
                     <stEvt:softwareAgent>Adobe Bridge 2023</stEvt:softwareAgent>
                     <stEvt:changed>/metadata</stEvt:changed>
                  </rdf:Description>
               </rdf:li>
            </rdf:Seq>
         </xmpMM:History>
         <dc:subject>
            <rdf:Bag>
               <rdf:li>Document</rdf:li>
               <rdf:li>File</rdf:li>
               <rdf:li>Tech-lines</rdf:li>
               <rdf:li>magnifying glass</rdf:li>
               <rdf:li>search</rdf:li>
               <rdf:li>text</rdf:li>
            </rdf:Bag>
         </dc:subject>
         <dc:rights>
            <rdf:Alt>
               <rdf:li xml:lang="x-default">Oracle All Rights</rdf:li>
            </rdf:Alt>
         </dc:rights>
         <xmpRights:Marked>True</xmpRights:Marked>
      </rdf:Description>
   </rdf:RDF>
</x:xmpmeta>
                                                                                                    
                                                                                                    
                                                                                                    
                                                                                                    
                                                                                                    
                                                                                                    
                                                                                                    
                                                                                                    
                                                                                                    
                                                                                                    
                                                                                                    
                                                                                                    
                                                                    
<?xpacket end="w"?></metadata>
<defs>
    <style>
      .cls-1 {
        fill: #2c5967;
      }

      .cls-2 {
        fill: #fff;
      }
    </style>
  </defs>
  <path class="cls-2" d="M32.93,22.57c.6,.6,1.39,.93,2.24,.93s1.64-.33,2.24-.93c.6-.6,.93-1.39,.93-2.24s-.33-1.64-.93-2.24c-.6-.6-1.39-.93-2.24-.93s-1.64,.33-2.24,.93c-.17,.17-.32,.36-.45,.57h-1.64V10.23l-.29-.29-1.77-1.77h3.72l.29-.29,1.63-1.63c.25,.06,.5,.09,.76,.09,.85,0,1.64-.33,2.24-.93,1.23-1.23,1.23-3.24,0-4.48-.6-.6-1.39-.93-2.24-.93s-1.64,.33-2.24,.93c-.6,.6-.93,1.39-.93,2.24,0,.24,.03,.47,.08,.69l-.97,.97H8v7.83h-2.12c-.57-.94-1.59-1.53-2.71-1.53-.44,0-.86,.09-1.27,.27-.77,.34-1.37,.96-1.68,1.75s-.29,1.65,.05,2.42c.5,1.15,1.64,1.9,2.9,1.9,.44,0,.87-.09,1.27-.27,.58-.25,1.07-.68,1.4-1.21h2.16v8.5h-2.14c-.13-.21-.28-.4-.45-.57-.6-.6-1.39-.93-2.24-.93s-1.64,.33-2.24,.93S0,25.32,0,26.17s.33,1.64,.93,2.24,1.39,.93,2.24,.93,1.64-.33,2.24-.93c.17-.17,.32-.37,.45-.57h2.14v4.67h0v2.29l.55,.28,1.34,.67,.21,.1h5.78s-.96,1.33-.96,1.33h-3.22c-.57-.92-1.58-1.5-2.69-1.5-1.75,0-3.17,1.42-3.17,3.17s1.42,3.17,3.17,3.17c1.12,0,2.12-.58,2.69-1.5h4.93l.3-.42,3.06-4.25h8.75l.21-.11,1.29-.64,.26-.13,.53,.53,.71,.71,.71-.71,3.81-3.81,.71-.71-.71-.71-1.23-1.23c-.78-.78-1.66-1.54-2.62-2.26l-1.95-1.4c.43-1.08,.6-2.23,.53-3.37h1.51c.13,.21,.28,.4,.45,.57Z"/>
  <g>
    <path class="cls-1" d="M32.07,7.17l2.08-2.08c.32,.17,.66,.25,1.01,.25,.55,0,1.11-.21,1.53-.63,.84-.84,.84-2.22,0-3.06-.84-.85-2.22-.84-3.06,0-.41,.41-.63,.95-.63,1.53,0,.34,.08,.66,.23,.96l-1.71,1.71h-5.09l1.34,1.33h4.31Zm2.51-4.59c.16-.16,.38-.24,.59-.24s.43,.08,.59,.24c.32,.33,.32,.85,0,1.18-.32,.32-.85,.33-1.18,0h0c-.16-.16-.24-.37-.24-.59s.09-.43,.24-.59Z"/>
    <path class="cls-1" d="M8,25.5h-2.77c-.1-.32-.28-.61-.53-.87-.84-.84-2.22-.85-3.06,0-.41,.41-.63,.95-.63,1.53s.23,1.12,.63,1.53c.42,.42,.98,.63,1.53,.63s1.11-.21,1.53-.63c.25-.25,.43-.55,.53-.87h2.77v-1.33Zm-4.24,1.26c-.32,.32-.85,.33-1.18,0-.16-.16-.24-.37-.24-.59s.09-.43,.24-.59c.16-.16,.38-.24,.59-.24s.43,.08,.59,.24c.32,.33,.32,.85,0,1.18Z"/>
    <path class="cls-1" d="M33.64,18.8c-.25,.25-.43,.54-.53,.87h-2.27v1.33h2.27c.1,.32,.28,.62,.53,.87,.42,.42,.98,.63,1.53,.63s1.11-.21,1.53-.63c.84-.84,.84-2.22,0-3.06-.84-.85-2.22-.84-3.06,0Zm2.12,2.12c-.32,.32-.85,.33-1.18,0h0c-.16-.16-.24-.37-.24-.59s.09-.43,.24-.59c.16-.16,.38-.24,.59-.24s.43,.08,.59,.24c.32,.33,.32,.85,0,1.18Z"/>
    <path class="cls-1" d="M3.17,16.47c.29,0,.58-.06,.87-.18,.58-.25,.99-.73,1.18-1.29h2.79v-1.33h-2.76c-.02-.08-.05-.15-.08-.23-.48-1.09-1.76-1.6-2.85-1.12-.53,.23-.94,.66-1.15,1.2-.21,.54-.2,1.13,.03,1.66,.36,.81,1.15,1.3,1.99,1.3Zm-.78-2.47c.08-.21,.24-.37,.44-.46,.11-.05,.22-.07,.33-.07,.1,0,.21,.02,.3,.06,.21,.08,.37,.24,.46,.44s.09,.43,.01,.64c-.08,.21-.24,.37-.44,.46-.42,.18-.91,0-1.1-.43-.09-.2-.09-.43-.01-.64Z"/>
    <path class="cls-1" d="M27.57,31.62h0s0-.02,0-.02l-.19-.27H10.34V7.17h13.33v4.83h4.83v5.03c.06,.06,.12,.11,.18,.17,.45,.45,.84,.95,1.16,1.48V10.64l-4.82-4.81H9v26.83H28.4c-.28-.34-.56-.69-.83-1.05Zm-2.57-23.91l2.97,2.96h-2.97v-2.96Z"/>
    <path class="cls-1" d="M28.5,33.5h0s-18.17,0-18.17,0h0s-1.34,0-1.34,0v.67l1.34,.67h0s7.49,0,7.49,0l-2.4,3.33h-4.37c-.28-.87-1.1-1.5-2.06-1.5-1.19,0-2.17,.97-2.17,2.17s.97,2.17,2.17,2.17c.96,0,1.78-.63,2.06-1.5h5.05l3.36-4.67h9.03s1.28-.64,1.28-.64c-.22-.22-.44-.45-.66-.69h-.63Zm-19.5,6.17c-.46,0-.83-.37-.83-.83s.37-.83,.83-.83,.83,.37,.83,.83-.37,.83-.83,.83Z"/>
    <path class="cls-1" d="M23.32,14.98c.19,0,.37,0,.55,.02h2.97v-1.33H12v1.33h10.76c.18-.01,.37-.02,.55-.02Z"/>
    <path class="cls-1" d="M17.96,17.2c.19-.19,.39-.37,.59-.53h-6.54v1.33h5.26c.21-.28,.44-.55,.7-.8Z"/>
    <path class="cls-1" d="M16.3,19.67h-4.3v1.33h3.89c.1-.46,.23-.9,.41-1.33Z"/>
    <path class="cls-1" d="M12,23.83h3.84c-.07-.42-.11-.84-.11-1.27,0-.02,0-.04,0-.06h-3.73v1.33Z"/>
    <path class="cls-1" d="M12,26.83h5.05c-.29-.42-.53-.87-.73-1.33h-4.32v1.33Z"/>
    <path class="cls-1" d="M31.79,27.57l-2.61-1.88c1.38-2.53,1-5.77-1.14-7.91-2.6-2.6-6.83-2.6-9.43,0-2.6,2.6-2.6,6.83,0,9.43,1.3,1.3,3.01,1.95,4.71,1.95,1.07,0,2.13-.25,3.1-.76l1.9,2.64c.69,.92,1.41,1.76,2.16,2.5l1.23,1.23,3.81-3.81-1.23-1.23c-.74-.74-1.59-1.47-2.51-2.16Zm-12.23-1.3c-2.08-2.08-2.08-5.46,0-7.54,1.04-1.04,2.41-1.56,3.77-1.56s2.73,.52,3.77,1.56c2.08,2.08,2.08,5.46,0,7.54-2.08,2.08-5.46,2.08-7.54,0Zm12.16,6.63l-.29-.29c-.7-.7-1.38-1.49-2.03-2.35l-1.86-2.59c.17-.14,.34-.29,.5-.45,.14-.14,.26-.28,.38-.42l2.57,1.85c.87,.65,1.66,1.33,2.36,2.03l.29,.29-1.93,1.93Z"/>
    <path class="cls-1" d="M27.44,20.96l-1.25,.47c.07,.18,.12,.36,.15,.55l1.31-.23c-.05-.27-.12-.54-.22-.8Z"/>
    <path class="cls-1" d="M26.46,19.44c-.65-.65-1.47-1.07-2.38-1.21l-.21,1.32c.63,.1,1.19,.39,1.64,.83,.2,.2,.36,.42,.5,.66l1.17-.65c-.19-.35-.44-.67-.72-.95Z"/>
  </g>
</svg>