<?xml version="1.0" encoding="UTF-8"?>
<svg id="Icon" xmlns="http://www.w3.org/2000/svg" version="1.1" viewBox="0 0 288 288">
  <!-- Generator: Adobe Illustrator 29.5.0, SVG Export Plug-In . SVG Version: 2.1.0 Build 137)  -->
  <defs>
    <style>
      .st0, .st1 {
        fill: #2f5967;
      }

      .st2 {
        fill: #fff;
      }

      .st1 {
        fill-rule: evenodd;
      }
    </style>
  </defs>
  <path class="st2" d="M176,21.6350098v6.7900391H51.7700195c-8.2709961,0-15,6.7290039-15,15v87.1225586c-10.6420898,3.753418-16.2636719,9.2192383-16.7299805,16.2827148-.0400391.4067383-.0400391.7319336-.0400391.9248047v95.6499023c0,9.1474609,8.6455078,15.6616211,25.6967773,19.3608398,14.9711914,3.2485352,31.8647461,3.5991211,38.4331055,3.5991211,6.5703125,0,23.4692383-.3505859,38.4423828-3.5991211,17.0517578-3.6992188,25.6977539-10.2128906,25.6977539-19.3608398v-.5200195h87.9599609c8.2709961,0,15-6.7290039,15-15v-124.25h16.7700195V21.6350098h-92Z"/>
  <g>
    <g>
      <path class="st0" d="M51.7700195,34.4250488c-4.9599609,0-9,4.0400391-9,9v85.3300781c.25-.0600586.4799805-.1201172.6899414-.1699219,2.2900391-.5703125,4.7402344-1.0800781,7.3100586-1.5400391V43.4250488c0-.5400391.4599609-1,1-1h124.2299805v-8H51.7700195ZM237.2299805,103.6350098v124.25c0,.5400391-.4599609,1-1,1h-87.9599609v8h87.9599609c4.9599609,0,9-4.0400391,9-9v-124.25h-8Z"/>
      <g>
        <path class="st0" d="M148.2700195,163.4450684v8h61.8500977v29.3901367h-61.8500977v8h69.8500977v-45.3901367h-69.8500977Z"/>
        <circle class="st0" cx="193.5480499" cy="186.1379547" r="5.6092072"/>
      </g>
      <path class="st0" d="M70.8198242,62.4748535v45.3901367h45.3901367v-45.3901367h-45.3901367ZM108.2099609,99.8649902h-29.3901367v-29.3901367h29.3901367v29.3901367Z"/>
      <path class="st0" d="M121.2998047,62.4748535v45.3901367h45.4003906v-45.3901367h-45.4003906ZM158.7001953,99.8649902h-29.4003906v-29.3901367h29.4003906v29.3901367Z"/>
      <path class="st0" d="M70.8198242,112.954834v11.800293c2.6201172-.1601562,5.2900391-.2700195,8-.3300781v-3.4702148h29.3901367v4.7402344c2.7700195.3198242,5.4399414.7001953,8,1.1201172v-13.8603516h-45.3901367ZM115.7998047,140.9748535c.1401367.0302734.2802734.050293.4101562.0800781v-.0097656c-.1298828-.0200195-.2700195-.050293-.4101562-.0703125ZM78.6298828,138.4348145h.1899414v-.0097656c-.0600586.0097656-.1298828.0097656-.1899414.0097656Z"/>
      <path class="st0" d="M121.2998047,112.954834v14.8300781c1.2099609.25,2.3803711.5200195,3.5102539.800293,1.1201172.2700195,2.6899414.659668,4.4897461,1.199707v-8.8300781h29.4003906v29.4003906h-10.4301758v8h18.4301758v-45.4003906h-45.4003906Z"/>
      <path class="st0" d="M171.7900391,112.954834v45.4003906h45.3901367v-45.4003906h-45.3901367ZM209.1801758,150.3552246h-29.3901367v-29.4003906h29.3901367v29.4003906Z"/>
    </g>
    <polygon class="st0" points="217.2197266 66.3747559 217.1801758 66.3747559 217.1801758 66.2351074 217.2197266 66.3747559"/>
    <g>
      <path class="st1" d="M217.1801758,66.2351074v.1396484h.0395508l-.0395508-.1396484ZM217.1801758,66.2351074v.1396484h.0395508l-.0395508-.1396484ZM217.1801758,66.2351074v.1396484h.0395508l-.0395508-.1396484ZM217.1801758,66.2351074v.1396484h.0395508l-.0395508-.1396484ZM217.1801758,66.2351074v.1396484h.0395508l-.0395508-.1396484ZM217.1801758,66.2351074v.1396484h.0395508l-.0395508-.1396484ZM217.1801758,66.2351074v.1396484h.0395508l-.0395508-.1396484ZM217.1801758,66.2351074v.1396484h.0395508l-.0395508-.1396484ZM217.1801758,66.2351074v.1396484h.0395508l-.0395508-.1396484ZM217.1801758,66.2351074v.1396484h.0395508l-.0395508-.1396484ZM217.1801758,66.2351074v.1396484h.0395508l-.0395508-.1396484ZM217.1801758,66.2351074v.1396484h.0395508l-.0395508-.1396484ZM217.1801758,66.2351074v.1396484h.0395508l-.0395508-.1396484ZM217.1801758,66.2351074v.1396484h.0395508l-.0395508-.1396484ZM217.1801758,66.2351074v.1396484h.0395508l-.0395508-.1396484ZM217.1801758,66.2351074v.1396484h.0395508l-.0395508-.1396484ZM217.1801758,66.2351074v.1396484h.0395508l-.0395508-.1396484ZM217.1801758,66.2351074v.1396484h.0395508l-.0395508-.1396484ZM217.1801758,66.2351074v.1396484h.0395508l-.0395508-.1396484Z"/>
      <path class="st0" d="M182,27.6350098v70h80V27.6350098h-80ZM254,89.6350098h-64v-54h64v54Z"/>
      <g>
        <path class="st0" d="M221.4199219,53.6550293l-2.7197266-7.2998047h-8.7802734l-2.7001953,7.2998047-3.2695312,8.8198242-2.9599609,8-3.1201172,8.4399414h9.5800781l1.6196289-5.6499023h10.1601562l1.6601562,5.6499023h9.9399414l-9.4101562-25.2597656ZM211.0400391,66.3747559l1.1098633-3.8999023,1.9301758-6.8100586,2,6.8100586,1.1000977,3.7602539.0395508.1396484h-6.1796875Z"/>
        <rect class="st0" x="233.8300781" y="46.3552246" width="8.9599609" height="32.5595703"/>
      </g>
    </g>
    <g>
      <path class="st0" d="M34,243.2248535v.0200195c.1499023.2700195.5200195.6201172,1.1201172,1.0200195-.7202148-.5200195-1.0200195-.8999023-1.1201172-1.0400391ZM35.6098633,244.5949707c1.7802734,1.1401367,5.3701172,2.800293,12.4799805,4.3798828-6.3798828-1.4697266-10.409668-3.1298828-12.4799805-4.3798828ZM49.0600586,249.1848145c6.2202148,1.3701172,14.5400391,2.5302734,25.25,2.9702148-9.3500977-.4301758-18.0698242-1.4501953-25.25-2.9702148ZM93.9501953,252.1550293c10.7197266-.4399414,19.0400391-1.6000977,25.2597656-2.9702148-7.1699219,1.5200195-15.8999023,2.5400391-25.2597656,2.9702148ZM120.1801758,248.9748535c7.1098633-1.5795898,10.699707-3.2397461,12.4697266-4.3798828-2.0698242,1.25-6.1000977,2.9101562-12.4697266,4.3798828ZM115.7998047,140.9748535c.1401367.0302734.2802734.050293.4101562.0800781v-.0097656c-.1298828-.0200195-.2700195-.050293-.4101562-.0703125ZM78.8198242,138.4250488c-.0600586.0097656-.1298828.0097656-.1899414.0097656h.1899414c.3603516-.0097656.7299805-.0200195,1.1103516-.0297852-.3701172.0097656-.7402344.0097656-1.1103516.0200195ZM133.1499023,244.2648926c.6000977-.3999023.9599609-.75,1.1201172-1.0200195v-.0200195c-.0898438.1401367-.3901367.5200195-1.1201172,1.0400391ZM141.6298828,208.8352051c.4003906.6196289.6401367,1.3696289.6401367,2.1699219v-2.1699219h-.6401367Z"/>
      <path class="st0" d="M141.6298828,208.8352051c.4003906.6196289.6401367,1.3696289.6401367,2.1699219v-2.1699219h-.6401367Z"/>
      <path class="st0" d="M34,243.2248535v.0200195c.1499023.2700195.5200195.6201172,1.1201172,1.0200195-.7202148-.5200195-1.0200195-.8999023-1.1201172-1.0400391ZM49.0600586,249.1848145c6.2202148,1.3701172,14.5400391,2.5302734,25.25,2.9702148-9.3500977-.4301758-18.0698242-1.4501953-25.25-2.9702148ZM93.9501953,252.1550293c10.7197266-.4399414,19.0400391-1.6000977,25.2597656-2.9702148-7.1699219,1.5200195-15.8999023,2.5400391-25.2597656,2.9702148ZM115.7998047,140.9748535c.1401367.0302734.2802734.050293.4101562.0800781v-.0097656c-.1298828-.0200195-.2700195-.050293-.4101562-.0703125ZM133.1499023,244.2648926c.6000977-.3999023.9599609-.75,1.1201172-1.0200195v-.0200195c-.0898438.1401367-.3901367.5200195-1.1201172,1.0400391ZM141.6298828,208.8352051c.4003906.6196289.6401367,1.3696289.6401367,2.1699219v-2.1699219h-.6401367Z"/>
    </g>
    <g>
      <g>
        <path class="st0" d="M34,243.2248535v.0200195c.1499023.2700195.5200195.6201172,1.1201172,1.0200195-.7202148-.5200195-1.0200195-.8999023-1.1201172-1.0400391ZM35.6098633,244.5949707c1.7802734,1.1401367,5.3701172,2.800293,12.4799805,4.3798828-6.3798828-1.4697266-10.409668-3.1298828-12.4799805-4.3798828ZM49.0600586,249.1848145c6.2202148,1.3701172,14.5400391,2.5302734,25.25,2.9702148-9.3500977-.4301758-18.0698242-1.4501953-25.25-2.9702148ZM93.9501953,252.1550293c10.7197266-.4399414,19.0400391-1.6000977,25.2597656-2.9702148-7.1699219,1.5200195-15.8999023,2.5400391-25.2597656,2.9702148ZM120.1801758,248.9748535c7.1098633-1.5795898,10.699707-3.2397461,12.4697266-4.3798828-2.0698242,1.25-6.1000977,2.9101562-12.4697266,4.3798828ZM133.1499023,244.2648926c.6000977-.3999023.9599609-.75,1.1201172-1.0200195v-.0200195c-.0898438.1401367-.3901367.5200195-1.1201172,1.0400391Z"/>
        <path class="st0" d="M35.6098633,244.5949707c1.7802734,1.1401367,5.3701172,2.800293,12.4799805,4.3798828-6.3798828-1.4697266-10.409668-3.1298828-12.4799805-4.3798828ZM120.1801758,248.9748535c7.1098633-1.5795898,10.699707-3.2397461,12.4697266-4.3798828-2.0698242,1.25-6.1000977,2.9101562-12.4697266,4.3798828Z"/>
      </g>
      <path class="st0" d="M141.6298828,208.8352051c.4003906.6196289.6401367,1.3696289.6401367,2.1699219v-2.1699219h-.6401367Z"/>
      <g>
        <path class="st0" d="M115.7998047,140.9748535c.1401367.0302734.2802734.050293.4101562.0800781v-.0097656c-.1298828-.0200195-.2700195-.050293-.4101562-.0703125ZM78.8198242,138.4250488c-.0600586.0097656-.1298828.0097656-.1899414.0097656h.1899414c.3603516-.0097656.7299805-.0200195,1.1103516-.0297852-.3701172.0097656-.7402344.0097656-1.1103516.0200195Z"/>
        <path class="st0" d="M78.8198242,138.4250488c-.0600586.0097656-.1298828.0097656-.1899414.0097656h.1899414c.3603516-.0097656.7299805-.0200195,1.1103516-.0297852-.3701172.0097656-.7402344.0097656-1.1103516.0200195Z"/>
        <path class="st0" d="M142.2700195,147.755127c0-.1401367,0-.2700195-.0200195-.4101562-.2597656-4.9897461-5.4399414-8.6298828-12.9501953-11.2099609-2.449707-.8500977-5.1396484-1.5898438-8-2.2202148-1.6499023-.3696289-3.3496094-.699707-5.0898438-1-2.6098633-.4599609-5.2998047-.8398438-8-1.159668-8.4296875-1-17.0498047-1.3901367-24.0800781-1.3901367-1.6899414,0-3.4599609.0200195-5.3100586.0698242-2.5600586.0703125-5.25.1801758-8,.3603516-6.6196289.409668-13.6098633,1.159668-20.0498047,2.3500977-2.800293.5195312-5.4897461,1.1196289-8,1.8095703-9.5,2.6303711-16.4501953,6.590332-16.75,12.3901367-.0200195.1401367-.0200195.2700195-.0200195.4101562v95.6499023c0,13.3798828,36.5400391,16.9599609,58.1298828,16.9599609,21.6000977,0,58.1401367-3.5800781,58.1401367-16.9599609v-32.3999023c0-.800293-.2397461-1.550293-.6401367-2.1699219h.6401367v-61.0800781ZM34.3999023,147.2648926c.050293-.0600586.1098633-.1098633.1699219-.1699219s.1201172-.1201172.1899414-.1699219c.050293-.050293.1201172-.1000977.1801758-.1499023.0800781-.0703125.1699219-.1401367.2700195-.2099609.0800781-.0600586.1699219-.1201172.2597656-.1801758.090332-.0600586.1801758-.1201172.2802734-.1801758.1000977-.0595703.2001953-.1298828.3100586-.1899414,1.2299805-.7299805,2.9897461-1.5,5.25-2.2597656h.0097656c.1704102-.0600586.3500977-.1201172.5302734-.1699219.199707-.0703125.409668-.1401367.6196289-.2001953.1000977-.0297852.2001953-.0698242.300293-.0898438.3300781-.1103516.6601562-.2099609,1-.300293.199707-.0600586.3999023-.1201172.6000977-.1699219,1.8896484-.5297852,4.0297852-1.0498047,6.3999023-1.5200195v-.0097656c1.4897461-.2900391,3.0698242-.5800781,4.7397461-.8500977.8803711-.1401367,1.7802734-.2700195,2.7099609-.3999023.5-.0703125,1.0205078-.1401367,1.5400391-.2099609.2705078-.0302734.5400391-.0703125.8203125-.1000977,1.7099609-.2202148,3.5097656-.4101562,5.3798828-.5800781.7202148-.0698242,1.4599609-.1298828,2.2099609-.1899414.8603516-.0698242,1.75-.1298828,2.6499023-.1801758.5800781-.0400391,1.1801758-.0800781,1.7802734-.1098633.2700195-.0200195.5400391-.0297852.8100586-.0400391,1.6899414-.0898438,3.4296875-.1601562,5.2197266-.2001953.0600586,0,.1298828,0,.1899414-.0097656.3701172-.0102539.7402344-.0102539,1.1103516-.0200195,1.3696289-.0302734,2.7700195-.0400391,4.199707-.0400391,5.7402344,0,11.050293.2202148,15.9003906.6000977.7695312.0600586,1.5297852.1201172,2.2695312.1899414,2.0600586.1899414,4.0302734.3999023,5.9101562.6401367.6000977.0795898,1.2001953.159668,1.7802734.2397461.6098633.0800781,1.2099609.1699219,1.7900391.2602539,1.3999023.2099609,2.7397461.4399414,4.0195312.6796875.1401367.0200195.2802734.050293.4101562.0703125v.0097656c1.8300781.340332,3.5200195.7099609,5.0898438,1.090332.9101562.2197266,1.7802734.449707,2.6103516.6796875.199707.0498047.3999023.1098633.5898438.1699219.4501953.1201172.8798828.2602539,1.2998047.3901367.2099609.0600586.4199219.1298828.6201172.2001953.1801758.0498047.3603516.1098633.5302734.1699219h.0097656c.8500977.2900391,1.6298828.5800781,2.3398438.8598633v.0097656c1.1699219.4702148,2.1401367.9404297,2.9101562,1.3901367.1098633.0600586.2099609.1303711.3100586.1899414.1000977.0600586.1899414.1201172.2797852.1801758.090332.0600586.1801758.1201172.2602539.1801758.1000977.0698242.1899414.1396484.2700195.2099609.0600586.0498047.1298828.0996094.1796875.1499023.0703125.0498047.1303711.1098633.1904297.1699219.0595703.0600586.1196289.1098633.1699219.1699219.1499023.1699219.2700195.3300781.3496094.4902344-.3999023.7597656-1.6396484,1.659668-3.6894531,2.6000977-1.0102539.4599609-2.2202148.9296875-3.6103516,1.3999023-1.6201172.5498047-3.5,1.0898438-5.6201172,1.6000977-1.5698242.3798828-3.2597656.75-5.0898438,1.0996094-8.2099609,1.550293-19.0297852,2.6801758-32.0800781,2.6801758-4.7397461,0-9.1796875-.1499023-13.3100586-.4199219-7.8500977-.4902344-14.5698242-1.4101562-20.0498047-2.5102539-3.0600586-.6196289-5.7397461-1.2998047-8-1.9897461-.4897461-.1499023-.9702148-.3100586-1.4199219-.4599609-4.2202148-1.4101562-6.7099609-2.8598633-7.300293-4,.0800781-.1601562.2001953-.3203125.3500977-.4902344ZM134.2700195,243.244873c-.1601562.2700195-.5200195.6201172-1.1201172,1.0200195-.1499023.1098633-.3198242.2202148-.5.3300781-1.7700195,1.1401367-5.3598633,2.800293-12.4697266,4.3798828-.3203125.0703125-.6401367.1499023-.9702148.2099609-6.2197266,1.3701172-14.5400391,2.5302734-25.2597656,2.9702148-1.3100586.0600586-2.6601562.1098633-4.050293.1401367-.8500977.0200195-1.7099609.0400391-2.5800781.0498047h-.1899414c-.4599609.0102539-.9199219.0102539-1.3896484.0102539-.5302734.0097656-1.0703125.0097656-1.6103516.0097656s-1.0800781,0-1.6098633-.0097656c-.4702148,0-.9301758,0-1.3901367-.0102539h-.1899414c-.8701172-.0097656-1.7299805-.0297852-2.5800781-.0498047-1.3901367-.0302734-2.7397461-.0800781-4.0498047-.1401367-10.7099609-.4399414-19.0297852-1.6000977-25.25-2.9702148-.3300781-.0600586-.6499023-.1396484-.9702148-.2099609-7.1098633-1.5795898-10.699707-3.2397461-12.4799805-4.3798828-.1796875-.1201172-.3398438-.2202148-.4897461-.3300781-.6000977-.3999023-.9702148-.75-1.1201172-1.0200195v-22.6298828c2.5097656,1.2202148,5.4902344,2.2597656,8.7700195,3.1499023,2.5102539.6699219,5.199707,1.2602539,8,1.7602539,11.0400391,2,23.699707,2.7099609,33.3598633,2.7099609,15.3203125,0,38.1601562-1.800293,50.1401367-7.6103516v22.6201172ZM134.2700195,211.1149902c-.4599609.8100586-2.8198242,2.3198242-7.4702148,3.8901367-7.5595703,2.5400391-21.2099609,5.2299805-42.6699219,5.2299805-14.5200195,0-25.4599609-1.2299805-33.3598633-2.8100586-3.1298828-.6298828-5.7900391-1.3198242-8-2-.4501953-.1401367-.8901367-.2797852-1.300293-.4199219-4.659668-1.5703125-7.0097656-3.0800781-7.4697266-3.8901367v-22.3999023c2.5097656,1.2197266,5.4902344,2.2597656,8.7700195,3.1499023,2.5102539.6699219,5.199707,1.2597656,8,1.7597656,6.4399414,1.1704102,13.4301758,1.8901367,20.0498047,2.2900391,2.75.1801758,5.4399414.2900391,8,.3500977,1.8500977.050293,3.6201172.0703125,5.3100586.0703125,15.3203125,0,38.1601562-1.800293,50.1401367-7.6103516v22.3901367ZM134.2700195,179.2150879c-.3701172.6401367-1.9399414,1.7397461-4.9199219,2.949707-6.8300781,2.7700195-21.090332,6.1704102-45.2202148,6.1704102-1.8300781,0-3.5996094-.0200195-5.3100586-.050293-2.8100586-.0698242-5.4799805-.1796875-8-.3198242-8.1396484-.4902344-14.7700195-1.3798828-20.0498047-2.4399414-3.1298828-.6298828-5.7900391-1.3203125-8-2-1.4799805-.4599609-2.7602539-.9199219-3.8500977-1.3603516-2.9799805-1.2099609-4.5600586-2.3095703-4.9199219-2.949707v-21.8901367c2.5097656,1.25,5.4902344,2.3203125,8.7700195,3.2299805,2.5102539.6899414,5.199707,1.2900391,8,1.800293,6.4399414,1.1899414,13.4301758,1.9399414,20.0498047,2.3496094,4.7299805.300293,9.2802734.4301758,13.3100586.4301758,7.7001953,0,17.300293-.4702148,26.4599609-1.6899414,7.9799805-1.0600586,15.6298828-2.6899414,21.4101562-5.0898438.7900391-.3300781,1.5498047-.6704102,2.2700195-1.0302734v21.8901367Z"/>
      </g>
    </g>
  </g>
</svg>