<svg id="Layer_1" data-name="Layer 1" xmlns="http://www.w3.org/2000/svg" viewBox="0 0 42 42"><defs><style>.cls-1{fill:#fff;}.cls-2{fill:#2c5967;}.cls-3{fill:none;stroke:#fff;stroke-linecap:round;stroke-linejoin:round;stroke-width:0;}</style></defs><title>Oracle APEX</title><metadata><?xpacket begin="﻿" id="W5M0MpCehiHzreSzNTczkc9d"?>
<x:xmpmeta xmlns:x="adobe:ns:meta/" x:xmptk="Adobe XMP Core 6.0-c006 79.164648, 2021/01/12-15:52:29        ">
   <rdf:RDF xmlns:rdf="http://www.w3.org/1999/02/22-rdf-syntax-ns#">
      <rdf:Description rdf:about=""
            xmlns:xmpRights="http://ns.adobe.com/xap/1.0/rights/"
            xmlns:xmp="http://ns.adobe.com/xap/1.0/"
            xmlns:xmpMM="http://ns.adobe.com/xap/1.0/mm/"
            xmlns:stEvt="http://ns.adobe.com/xap/1.0/sType/ResourceEvent#"
            xmlns:dc="http://purl.org/dc/elements/1.1/"
            xmlns:lr="http://ns.adobe.com/lightroom/1.0/">
         <xmpRights:Marked>True</xmpRights:Marked>
         <xmp:MetadataDate>2021-07-22T15:08:30-05:00</xmp:MetadataDate>
         <xmpMM:InstanceID>xmp.iid:2c14e7a2-1d05-4207-a3c4-291709a076c3</xmpMM:InstanceID>
         <xmpMM:DocumentID>xmp.did:44dc40a6-1399-4b36-ae26-65c260ff0f15</xmpMM:DocumentID>
         <xmpMM:OriginalDocumentID>xmp.did:44dc40a6-1399-4b36-ae26-65c260ff0f15</xmpMM:OriginalDocumentID>
         <xmpMM:History>
            <rdf:Seq>
               <rdf:li>
                  <rdf:Description>
                     <stEvt:action>saved</stEvt:action>
                     <stEvt:instanceID>xmp.iid:44dc40a6-1399-4b36-ae26-65c260ff0f15</stEvt:instanceID>
                     <stEvt:when>2021-06-23T15:54:02-05:00</stEvt:when>
                     <stEvt:softwareAgent>Adobe Bridge 2021 (Macintosh)</stEvt:softwareAgent>
                     <stEvt:changed>/metadata</stEvt:changed>
                  </rdf:Description>
               </rdf:li>
               <rdf:li>
                  <rdf:Description>
                     <stEvt:action>saved</stEvt:action>
                     <stEvt:instanceID>xmp.iid:2c14e7a2-1d05-4207-a3c4-291709a076c3</stEvt:instanceID>
                     <stEvt:when>2021-07-22T15:08:30-05:00</stEvt:when>
                     <stEvt:softwareAgent>Adobe Bridge 2021 (Macintosh)</stEvt:softwareAgent>
                     <stEvt:changed>/metadata</stEvt:changed>
                  </rdf:Description>
               </rdf:li>
            </rdf:Seq>
         </xmpMM:History>
         <dc:title>
            <rdf:Alt>
               <rdf:li xml:lang="x-default">Oracle APEX</rdf:li>
            </rdf:Alt>
         </dc:title>
         <dc:rights>
            <rdf:Alt>
               <rdf:li xml:lang="x-default">Oracle All Rights Reserved</rdf:li>
            </rdf:Alt>
         </dc:rights>
         <dc:subject>
            <rdf:Bag>
               <rdf:li>icon</rdf:li>
               <rdf:li>technology</rdf:li>
               <rdf:li>APEX</rdf:li>
            </rdf:Bag>
         </dc:subject>
         <lr:hierarchicalSubject>
            <rdf:Bag>
               <rdf:li>icon</rdf:li>
               <rdf:li>technology</rdf:li>
            </rdf:Bag>
         </lr:hierarchicalSubject>
      </rdf:Description>
   </rdf:RDF>
</x:xmpmeta>
                                                                                                    
                                                                                                    
                                                                                                    
                                                                                                    
                                                                                                    
                                                                                                    
                                                                                                    
                                                                                                    
                                                                                                    
  
<?xpacket end="w"?></metadata>
<rect class="cls-1" x="0.5" y="0.5" width="41" height="41" rx="2.17"/><path class="cls-1" d="M39.33,1A1.67,1.67,0,0,1,41,2.67V39.33A1.67,1.67,0,0,1,39.33,41H2.67A1.67,1.67,0,0,1,1,39.33V2.67A1.67,1.67,0,0,1,2.67,1H39.33m0-1H2.67A2.68,2.68,0,0,0,0,2.67V39.33A2.68,2.68,0,0,0,2.67,42H39.33A2.68,2.68,0,0,0,42,39.33V2.67A2.68,2.68,0,0,0,39.33,0Z"/><path class="cls-1" d="M39.33,2.67H2.67V39.33H39.33ZM29,28.83l-.58-.59h0l-.59-.6,1.11-1.09-1.25-1.26-1.13,1.1L26,25.8h0l-.58-.6,1.11-1.09-1.22-1.22,1.18-1.18,7.48,7.49-4.67,4.63L21.8,26.36,23,25.18l6.28,6.29,2.3-2.27-1.47-1.47ZM16.65,16.48l-.58-.6h0l-.59-.59L16.6,14.2l-1.47-1.47L14,13.83l-.59-.59h0l-.58-.6L14,11.55l-1.42-1.42-2.3,2.28,6.33,6.35L15.4,19.94,7.88,12.4l4.66-4.62L20,15.29l-1.18,1.18-1.09-1.09Zm-5.91,9.9h0v0h0L29.3,7.78,34,12.4,15.4,31h0l-6.7,2.08Z"/><path class="cls-2" d="M39.33,1H2.67A1.67,1.67,0,0,0,1,2.67V39.33A1.67,1.67,0,0,0,2.67,41H39.33A1.67,1.67,0,0,0,41,39.33V2.67A1.67,1.67,0,0,0,39.33,1ZM2.67,2.67H39.33V39.33H2.67Z"/><path class="cls-2" d="M29.26,31.47,23,25.18,21.8,26.36l7.45,7.47,4.67-4.63-7.48-7.49-1.18,1.18,1.22,1.22L25.37,25.2l.58.6.58.59,1.13-1.1,1.25,1.26L27.8,27.64l.59.6.58.59,1.12-1.1,1.47,1.47Zm-1.6-7.35Z"/><path class="cls-2" d="M20,15.29l-7.5-7.51L7.88,12.4l7.52,7.54,1.17-1.18-6.33-6.35,2.3-2.28L14,11.55l-1.11,1.09.58.6.59.59,1.11-1.1L16.6,14.2l-1.12,1.09.59.59.58.6,1.12-1.1,1.09,1.09ZM17.78,14.2Z"/><line class="cls-3" x1="13.43" y1="13.24" x2="13.43" y2="13.24"/><line class="cls-3" x1="16.07" y1="15.88" x2="16.07" y2="15.88"/><line class="cls-3" x1="17.78" y1="14.2" x2="17.78" y2="14.2"/><line class="cls-3" x1="28.39" y1="28.24" x2="28.39" y2="28.24"/><polygon class="cls-1" points="29.79 14.23 31.6 12.41 29.3 10.13 27.49 11.95 29.79 14.23"/><polygon class="cls-1" points="13.1 26.37 15.4 28.65 28.61 15.41 26.31 13.13 13.1 26.37"/><polygon class="cls-1" points="14.07 29.68 12.08 27.7 11.21 30.57 14.07 29.68"/><path class="cls-2" d="M15.41,31h0L34,12.4,29.3,7.78,10.77,26.34h0v0h0l-2,6.71ZM31.6,12.41l-1.81,1.82L27.49,12l1.81-1.82Zm-5.29.72,2.3,2.28L15.4,28.65l-2.3-2.28ZM12.08,27.7l2,2-2.86.89Z"/></svg>