<svg id="Layer_1" data-name="Layer 1" xmlns="http://www.w3.org/2000/svg" viewBox="0 0 50.84 42"><title>Technology - Oracle-Storage-Technology-Male</title><metadata><?xpacket begin="﻿" id="W5M0MpCehiHzreSzNTczkc9d"?>
<x:xmpmeta xmlns:x="adobe:ns:meta/" x:xmptk="Adobe XMP Core 6.0-c006 79.164648, 2021/01/12-15:52:29        ">
   <rdf:RDF xmlns:rdf="http://www.w3.org/1999/02/22-rdf-syntax-ns#">
      <rdf:Description rdf:about=""
            xmlns:xmpRights="http://ns.adobe.com/xap/1.0/rights/"
            xmlns:xmp="http://ns.adobe.com/xap/1.0/"
            xmlns:xmpMM="http://ns.adobe.com/xap/1.0/mm/"
            xmlns:stEvt="http://ns.adobe.com/xap/1.0/sType/ResourceEvent#"
            xmlns:dc="http://purl.org/dc/elements/1.1/"
            xmlns:lr="http://ns.adobe.com/lightroom/1.0/">
         <xmpRights:Marked>True</xmpRights:Marked>
         <xmp:MetadataDate>2022-01-29T10:33:08-06:00</xmp:MetadataDate>
         <xmpMM:InstanceID>xmp.iid:33716a9f-c351-4ff1-9fb3-6b3359d9eef8</xmpMM:InstanceID>
         <xmpMM:DocumentID>xmp.did:21ae6271-6b23-8b46-be6e-5480ec2e8ba2</xmpMM:DocumentID>
         <xmpMM:OriginalDocumentID>xmp.did:21ae6271-6b23-8b46-be6e-5480ec2e8ba2</xmpMM:OriginalDocumentID>
         <xmpMM:History>
            <rdf:Seq>
               <rdf:li>
                  <rdf:Description>
                     <stEvt:action>saved</stEvt:action>
                     <stEvt:instanceID>xmp.iid:21ae6271-6b23-8b46-be6e-5480ec2e8ba2</stEvt:instanceID>
                     <stEvt:when>2022-01-28T20:44:46-06:00</stEvt:when>
                     <stEvt:softwareAgent>Adobe Bridge 2020 (Windows)</stEvt:softwareAgent>
                     <stEvt:changed>/metadata</stEvt:changed>
                  </rdf:Description>
               </rdf:li>
               <rdf:li>
                  <rdf:Description>
                     <stEvt:action>saved</stEvt:action>
                     <stEvt:instanceID>xmp.iid:33716a9f-c351-4ff1-9fb3-6b3359d9eef8</stEvt:instanceID>
                     <stEvt:when>2022-01-29T10:33:08-06:00</stEvt:when>
                     <stEvt:softwareAgent>Adobe Bridge 2021 (Macintosh)</stEvt:softwareAgent>
                     <stEvt:changed>/metadata</stEvt:changed>
                  </rdf:Description>
               </rdf:li>
            </rdf:Seq>
         </xmpMM:History>
         <dc:title>
            <rdf:Alt>
               <rdf:li xml:lang="x-default">Technology - Oracle-Storage-Technology-Male</rdf:li>
            </rdf:Alt>
         </dc:title>
         <dc:rights>
            <rdf:Alt>
               <rdf:li xml:lang="x-default">Oracle, All rights reserved</rdf:li>
            </rdf:Alt>
         </dc:rights>
         <dc:subject>
            <rdf:Bag>
               <rdf:li>icon</rdf:li>
               <rdf:li>user</rdf:li>
               <rdf:li>person</rdf:li>
               <rdf:li>persona</rdf:li>
               <rdf:li>database</rdf:li>
               <rdf:li>profile</rdf:li>
               <rdf:li>data</rdf:li>
               <rdf:li>men</rdf:li>
               <rdf:li>man</rdf:li>
            </rdf:Bag>
         </dc:subject>
         <lr:hierarchicalSubject>
            <rdf:Bag>
               <rdf:li>icon</rdf:li>
               <rdf:li>Other Keywords|user</rdf:li>
               <rdf:li>Other Keywords|person</rdf:li>
               <rdf:li>Other Keywords|persona</rdf:li>
               <rdf:li>database</rdf:li>
               <rdf:li>Other Keywords|profile</rdf:li>
               <rdf:li>men</rdf:li>
               <rdf:li>man</rdf:li>
            </rdf:Bag>
         </lr:hierarchicalSubject>
      </rdf:Description>
   </rdf:RDF>
</x:xmpmeta>
                                                                                                    
                                                                                                    
                                                                                                    
                                                                                                    
                                                                                                    
                                                             
<?xpacket end="w"?></metadata>
<path d="M25.09,41.5a35.52,35.52,0,0,1-8-.8C14.26,40,12.88,39,12.88,37.53V24.26H6.58a22.54,22.54,0,0,0-1.44,5.35,3.15,3.15,0,1,1-2.78-.1,25.47,25.47,0,0,1,2.12-7.37V2.71H25.15V4.28a34.9,34.9,0,0,1,8.78-1.93A3.16,3.16,0,1,1,34,5.12a32.52,32.52,0,0,0-8.87,2.11v8.3h.32v-.77c0-1.94,2.65-2.58,3.52-2.79a27.23,27.23,0,0,1,6-.64c.33-2.3,4.9-2.65,7.67-2.65s7.68.38,7.68,2.92V22.44c0,1.54-1.78,2.47-5.3,2.78v4c0,2.37-4.1,3.13-7.74,3.34v5c0,1.45-1.38,2.49-4.23,3.17A35.52,35.52,0,0,1,25.09,41.5Z" fill="#fff"/><path d="M36.8,1a2.65,2.65,0,1,1-2.48,3.59,33.12,33.12,0,0,0-9.67,2.3V16H26V14.76c0-1,1-1.79,3.14-2.31a27.28,27.28,0,0,1,6.14-.62h.23V11.6c0-2.25,5.49-2.42,7.18-2.42s7.18.17,7.18,2.42V22.44c0,1.64-3,2.16-5.3,2.32v4.45c0,2.24-5.15,2.75-7.74,2.86v5.46c0,1.19-1.26,2.07-3.85,2.69a35.67,35.67,0,0,1-7.86.78,35.67,35.67,0,0,1-7.86-.78c-2.6-.62-3.85-1.5-3.85-2.69V23.76H6.25A22.81,22.81,0,0,0,4.6,29.91,2.65,2.65,0,1,1,1,32.38a2.66,2.66,0,0,1,1.83-2.52A24.49,24.49,0,0,1,5,22.25v-19H24.65V5a34.32,34.32,0,0,1,9.63-2.18A2.66,2.66,0,0,1,36.8,1m0-1a3.66,3.66,0,0,0-3.19,1.87,35.78,35.78,0,0,0-8,1.71V2.21H4V22A26,26,0,0,0,1.9,29.18a3.65,3.65,0,1,0,5.4,3.2,3.69,3.69,0,0,0-1.62-3,22,22,0,0,1,1.25-4.59h5.45V37.53c0,2.55,3.47,3.39,4.61,3.66a36.61,36.61,0,0,0,8.1.81,36.51,36.51,0,0,0,8.09-.81c1.15-.27,4.62-1.11,4.62-3.66V33c5.14-.35,7.74-1.63,7.74-3.81V25.68c3.52-.39,5.3-1.48,5.3-3.24V11.6c0-2.83-4.45-3.42-8.18-3.42-3.37,0-7.33.48-8.06,2.65a27.43,27.43,0,0,0-5.73.65,6.65,6.65,0,0,0-3.22,1.57V7.58a31.81,31.81,0,0,1,8.1-1.93A3.65,3.65,0,1,0,36.8,0Z" fill="#fff"/><path d="M42.66,9.18c-1.69,0-7.18.17-7.18,2.42v.23h-.23a27.28,27.28,0,0,0-6.14.62C27,13,26,13.72,26,14.76v2.38c5.28.11,8.51,1.12,9,1.75-.48.54-3.43,1.64-9,1.75V22.4a32.86,32.86,0,0,0,7-.79A12.09,12.09,0,0,0,35,20.93V25c-.34.55-3.58,1.81-9.94,1.81-6.19,0-9.43-1.19-9.91-1.76h-1.8V37.53c0,1.19,1.25,2.07,3.85,2.69a35.67,35.67,0,0,0,7.86.78A35.67,35.67,0,0,0,33,40.22c2.59-.62,3.85-1.5,3.85-2.69V32.07c2.59-.11,7.74-.62,7.74-2.86V24.76c2.28-.16,5.3-.68,5.3-2.32V11.6c0-2.25-5.5-2.42-7.18-2.42M35,37.47c-.37.54-3.64,1.76-9.94,1.76S15.52,38,15.14,37.47V33.32a13,13,0,0,0,2.08.69,35.12,35.12,0,0,0,7.87.79A35,35,0,0,0,33,34,13,13,0,0,0,35,33.32Zm0-6.24c-.34.55-3.58,1.81-9.94,1.81s-9.61-1.26-9.95-1.81v-4.1a11.23,11.23,0,0,0,2.08.69,34.49,34.49,0,0,0,7.87.8,34.4,34.4,0,0,0,7.86-.8A11.23,11.23,0,0,0,35,27.13ZM48.07,15a9.17,9.17,0,0,1-3.53.77v-1a1.53,1.53,0,0,0-.24-.8,17.59,17.59,0,0,0,3-.42c.17,0,.45-.11.75-.21Zm0,3.6a9.17,9.17,0,0,1-3.53.77V17.56a14.58,14.58,0,0,0,3.53-.62Zm-5.3.84c-.38.4-2.39,1.09-6,1.25V18.89a1.68,1.68,0,0,0-.52-1.21,26,26,0,0,0,5.12-.61,10.15,10.15,0,0,0,1.37-.43Zm-6,3a20.39,20.39,0,0,0,6-1v2.8a5.05,5.05,0,0,1-2,.77,24.54,24.54,0,0,1-3.93.48ZM47.66,11.6a15.78,15.78,0,0,1-5,.65,15.73,15.73,0,0,1-5-.65,15.4,15.4,0,0,1,5-.66,15.45,15.45,0,0,1,5,.66m-12.41,2c4.12,0,6.64.69,7.37,1.16-.73.47-3.26,1.16-7.37,1.16s-6.63-.69-7.36-1.16c.73-.47,3.25-1.16,7.36-1.16M36.8,30.3v-3a24.67,24.67,0,0,0,4.83-.65,11.2,11.2,0,0,0,1.14-.36v2.83c-.41.39-2.43,1.05-6,1.21M44.54,23V21.16a14.12,14.12,0,0,0,3.53-.63v1.7a9.37,9.37,0,0,1-3.53.76M4.6,29.91a22.81,22.81,0,0,1,1.65-6.15h18.4V6.89a33.12,33.12,0,0,1,9.67-2.3,2.65,2.65,0,1,0,0-1.77A34.32,34.32,0,0,0,24.65,5V3.21H5v19a24.49,24.49,0,0,0-2.15,7.61A2.65,2.65,0,1,0,6.3,32.38a2.63,2.63,0,0,0-1.7-2.47M36.8,2.77a.89.89,0,1,1-.88.88.88.88,0,0,1,.88-.88M22.88,22H6.75V21.2a2.86,2.86,0,0,1,2.86-2.73h2.5l2.74,3,2.69-3h2.69a2.7,2.7,0,0,1,2.65,2.74ZM16.25,10.28A3.24,3.24,0,0,0,17.57,10v2.3a2.79,2.79,0,0,1-2.73,2.78,2.71,2.71,0,0,1-2.79-2.61V10.28ZM12.18,8.51a1.32,1.32,0,0,1,1.42-.88h3.87a1.14,1.14,0,0,1-1.22.88Zm1.19,8.12a4.53,4.53,0,0,0,1.47.24,4.44,4.44,0,0,0,1.41-.24v.63l-1.41,1.56-1.47-1.59ZM22.88,5V17.6a4.33,4.33,0,0,0-2.65-.91H18V15.51a4.58,4.58,0,0,0,1.32-3.19V5.86H13.6c-2,0-3.32,1.36-3.32,3.54v3.09a4.27,4.27,0,0,0,1.33,3.08V16.7h-2a4.64,4.64,0,0,0-2.86,1V5ZM3.65,33.27a.89.89,0,1,1,.89-.89.88.88,0,0,1-.89.89" fill="#2c5967"/></svg>