<svg id="Layer_1" data-name="Layer 1" xmlns="http://www.w3.org/2000/svg" viewBox="0 0 34.81 42"><defs><style>.cls-1{fill:#fff;}.cls-2{fill:#2c5967;}</style></defs><title>On-Premises-Database</title><metadata><?xpacket begin="﻿" id="W5M0MpCehiHzreSzNTczkc9d"?>
<x:xmpmeta xmlns:x="adobe:ns:meta/" x:xmptk="Adobe XMP Core 6.0-c006 79.164648, 2021/01/12-15:52:29        ">
   <rdf:RDF xmlns:rdf="http://www.w3.org/1999/02/22-rdf-syntax-ns#">
      <rdf:Description rdf:about=""
            xmlns:xmp="http://ns.adobe.com/xap/1.0/"
            xmlns:xmpMM="http://ns.adobe.com/xap/1.0/mm/"
            xmlns:stEvt="http://ns.adobe.com/xap/1.0/sType/ResourceEvent#"
            xmlns:xmpRights="http://ns.adobe.com/xap/1.0/rights/"
            xmlns:dc="http://purl.org/dc/elements/1.1/"
            xmlns:lr="http://ns.adobe.com/lightroom/1.0/">
         <xmp:MetadataDate>2021-06-24T19:32:29-05:00</xmp:MetadataDate>
         <xmpMM:InstanceID>xmp.iid:0579accf-b067-4511-930c-bafe8de641f7</xmpMM:InstanceID>
         <xmpMM:DocumentID>xmp.did:d3f66e26-ba4f-4f33-960e-00812c51b5a2</xmpMM:DocumentID>
         <xmpMM:OriginalDocumentID>xmp.did:d3f66e26-ba4f-4f33-960e-00812c51b5a2</xmpMM:OriginalDocumentID>
         <xmpMM:History>
            <rdf:Seq>
               <rdf:li>
                  <rdf:Description>
                     <stEvt:action>saved</stEvt:action>
                     <stEvt:instanceID>xmp.iid:d3f66e26-ba4f-4f33-960e-00812c51b5a2</stEvt:instanceID>
                     <stEvt:when>2021-06-18T11:41:55-05:00</stEvt:when>
                     <stEvt:softwareAgent>Adobe Bridge 2021 (Macintosh)</stEvt:softwareAgent>
                     <stEvt:changed>/metadata</stEvt:changed>
                  </rdf:Description>
               </rdf:li>
               <rdf:li>
                  <rdf:Description>
                     <stEvt:action>saved</stEvt:action>
                     <stEvt:instanceID>xmp.iid:0579accf-b067-4511-930c-bafe8de641f7</stEvt:instanceID>
                     <stEvt:when>2021-06-24T19:32:29-05:00</stEvt:when>
                     <stEvt:softwareAgent>Adobe Bridge 2021 (Macintosh)</stEvt:softwareAgent>
                     <stEvt:changed>/metadata</stEvt:changed>
                  </rdf:Description>
               </rdf:li>
            </rdf:Seq>
         </xmpMM:History>
         <xmpRights:Marked>True</xmpRights:Marked>
         <dc:title>
            <rdf:Alt>
               <rdf:li xml:lang="x-default">On-Premises-Database</rdf:li>
            </rdf:Alt>
         </dc:title>
         <dc:subject>
            <rdf:Bag>
               <rdf:li>icon</rdf:li>
               <rdf:li>Data</rdf:li>
               <rdf:li>technology</rdf:li>
            </rdf:Bag>
         </dc:subject>
         <dc:rights>
            <rdf:Alt>
               <rdf:li xml:lang="x-default">Oracle All Rights Reserved</rdf:li>
            </rdf:Alt>
         </dc:rights>
         <lr:hierarchicalSubject>
            <rdf:Bag>
               <rdf:li>icon</rdf:li>
               <rdf:li>Data</rdf:li>
               <rdf:li>technology</rdf:li>
            </rdf:Bag>
         </lr:hierarchicalSubject>
      </rdf:Description>
   </rdf:RDF>
</x:xmpmeta>
                                                                                                    
                                                                                                    
                                                                                                    
                                                                                                    
                                                                                                    
                                                                                                    
                                                                                                    
                                                                                                    
                                                                                                    
                                                                                                    
                                                                                   
<?xpacket end="w"?></metadata>
<path class="cls-1" d="M11.23,41.5C8,41.5.5,41.14.5,37.8V21.62h0s0,0,0-.08c0-1.54,1.57-2.62,4.68-3.23V.5h17V6.17L32.33,3.82V38.69l2,1v1.79H12.59Z"/><path class="cls-1" d="M21.72,1V6.79L31.83,4.45V39l2,1v1H12.59l-1.36,0C9.52,41,1,40.85,1,37.8v-16s0-.07,0-.11,0-.08,0-.12C1,20,3.27,19.15,5.68,18.72V1h16m1-1h-18V17.9C1.57,18.58,0,19.81,0,21.54a.49.49,0,0,0,0,.12.41.41,0,0,0,0,.11v16C0,41.45,7,42,11.23,42l1.4,0H34.81v-2.6l-.55-.28-1.43-.71V3.19l-1.22.28L22.72,5.54V0Z"/><polygon class="cls-2" points="31.83 39 31.83 4.45 16.04 8.11 16.04 16.79 18.02 16.79 18.02 9.68 29.86 6.93 29.86 39 24.93 39 24.93 36.28 22.95 36.28 22.95 39 22.95 39.99 22.95 40.97 31.83 40.97 33.81 40.97 33.81 39.99 31.83 39"/><rect class="cls-2" x="19.5" y="11.36" width="1.97" height="1.97"/><rect class="cls-2" x="19.5" y="14.82" width="1.97" height="1.97"/><rect class="cls-2" x="22.95" y="11.36" width="1.97" height="1.97"/><rect class="cls-2" x="22.95" y="14.82" width="1.97" height="1.97"/><rect class="cls-2" x="22.95" y="18.27" width="1.97" height="1.97"/><rect class="cls-2" x="22.95" y="21.73" width="1.97" height="1.97"/><rect class="cls-2" x="22.95" y="25.18" width="1.97" height="1.97"/><rect class="cls-2" x="22.95" y="28.64" width="1.97" height="1.97"/><rect class="cls-2" x="26.41" y="11.36" width="1.97" height="1.97"/><rect class="cls-2" x="26.41" y="14.82" width="1.97" height="1.97"/><rect class="cls-2" x="26.41" y="18.27" width="1.97" height="1.97"/><rect class="cls-2" x="26.41" y="21.73" width="1.97" height="1.97"/><rect class="cls-2" x="26.41" y="25.18" width="1.97" height="1.97"/><rect class="cls-2" x="26.41" y="28.64" width="1.97" height="1.97"/><rect class="cls-2" x="22.95" y="32.09" width="1.97" height="1.97"/><rect class="cls-2" x="26.41" y="32.09" width="1.97" height="1.97"/><polygon class="cls-2" points="7.65 2.97 19.74 2.97 19.74 3.71 19.74 5.75 21.72 5.3 21.72 3.71 21.72 1 5.68 1 5.68 16.79 7.65 16.79 7.65 2.97"/><rect class="cls-2" x="9.13" y="4.45" width="1.97" height="3.21"/><rect class="cls-2" x="12.59" y="4.45" width="1.97" height="3.21"/><rect class="cls-2" x="9.13" y="9.14" width="1.97" height="3.21"/><rect class="cls-2" x="12.59" y="9.14" width="1.97" height="3.21"/><rect class="cls-2" x="9.13" y="13.83" width="1.97" height="2.96"/><rect class="cls-2" x="12.59" y="13.83" width="1.97" height="2.96"/><polygon class="cls-2" points="18.02 6.15 18.02 4.45 16.04 4.45 16.04 6.6 18.02 6.15"/><path class="cls-2" d="M21.23,20.73c-1.42-2.38-9-2.46-10-2.46S1,18.36,1,21.54c0,0,0,.08,0,.12s0,.07,0,.11v16C1,40.85,9.52,41,11.23,41s10.23-.15,10.23-3.2v-16s0-.07,0-.11,0-.08,0-.12A1.5,1.5,0,0,0,21.23,20.73ZM11.23,39C6.37,39,3.51,38.15,3,37.66V34.51c2.63,1.06,7.08,1.14,8.26,1.14s5.63-.08,8.26-1.14v3.15C19,38.15,16.09,39,11.23,39Zm8.26-6.73c-.53.5-3.4,1.37-8.26,1.37S3.51,32.8,3,32.3V29.24c2.63,1.05,7.08,1.13,8.26,1.13s5.63-.08,8.26-1.13Zm-8.26-7.49c.74,0,5.5,0,8.26-1.18V27c-.53.49-3.4,1.37-8.26,1.37S3.51,27.52,3,27v-3.4C5.73,24.76,10.49,24.81,11.23,24.81Zm8.1-3.27c-.79.52-3.58,1.3-8.1,1.3s-7.3-.78-8.1-1.3c.8-.52,3.58-1.29,8.1-1.29S18.54,21,19.33,21.54Z"/></svg>