<svg id="Layer_1" data-name="Layer 1" xmlns="http://www.w3.org/2000/svg" viewBox="0 0 37.87 42"><metadata><?xpacket begin="﻿" id="W5M0MpCehiHzreSzNTczkc9d"?>
<x:xmpmeta xmlns:x="adobe:ns:meta/" x:xmptk="Adobe XMP Core 6.0-c006 79.164648, 2021/01/12-15:52:29        ">
   <rdf:RDF xmlns:rdf="http://www.w3.org/1999/02/22-rdf-syntax-ns#">
      <rdf:Description rdf:about=""
            xmlns:dc="http://purl.org/dc/elements/1.1/"
            xmlns:xmp="http://ns.adobe.com/xap/1.0/"
            xmlns:xmpMM="http://ns.adobe.com/xap/1.0/mm/"
            xmlns:stEvt="http://ns.adobe.com/xap/1.0/sType/ResourceEvent#"
            xmlns:xmpRights="http://ns.adobe.com/xap/1.0/rights/">
         <dc:subject>
            <rdf:Bag>
               <rdf:li>icon</rdf:li>
               <rdf:li>OCI</rdf:li>
               <rdf:li>Data</rdf:li>
               <rdf:li>Database</rdf:li>
               <rdf:li>Generic</rdf:li>
               <rdf:li>cloud</rdf:li>
            </rdf:Bag>
         </dc:subject>
         <dc:rights>
            <rdf:Alt>
               <rdf:li xml:lang="x-default">Oracle All Rights</rdf:li>
            </rdf:Alt>
         </dc:rights>
         <xmp:MetadataDate>2023-11-01T14:06:16-06:00</xmp:MetadataDate>
         <xmpMM:InstanceID>xmp.iid:6486c296-7e24-4808-9170-6c0a119cbf74</xmpMM:InstanceID>
         <xmpMM:DocumentID>xmp.did:4c1859b5-5a8f-4882-851a-70b3251304ed</xmpMM:DocumentID>
         <xmpMM:OriginalDocumentID>xmp.did:4c1859b5-5a8f-4882-851a-70b3251304ed</xmpMM:OriginalDocumentID>
         <xmpMM:History>
            <rdf:Seq>
               <rdf:li>
                  <rdf:Description>
                     <stEvt:action>saved</stEvt:action>
                     <stEvt:instanceID>xmp.iid:4c1859b5-5a8f-4882-851a-70b3251304ed</stEvt:instanceID>
                     <stEvt:when>2023-11-01T14:06:05-06:00</stEvt:when>
                     <stEvt:softwareAgent>Adobe Bridge 2021 (Macintosh)</stEvt:softwareAgent>
                     <stEvt:changed>/metadata</stEvt:changed>
                  </rdf:Description>
               </rdf:li>
               <rdf:li>
                  <rdf:Description>
                     <stEvt:action>saved</stEvt:action>
                     <stEvt:instanceID>xmp.iid:6486c296-7e24-4808-9170-6c0a119cbf74</stEvt:instanceID>
                     <stEvt:when>2023-11-01T14:06:16-06:00</stEvt:when>
                     <stEvt:softwareAgent>Adobe Bridge 2021 (Macintosh)</stEvt:softwareAgent>
                     <stEvt:changed>/metadata</stEvt:changed>
                  </rdf:Description>
               </rdf:li>
            </rdf:Seq>
         </xmpMM:History>
         <xmpRights:Marked>True</xmpRights:Marked>
      </rdf:Description>
   </rdf:RDF>
</x:xmpmeta>
                                                                                                    
                                                                                                    
                                                                                                    
                                                                                                    
                                                                                                    
                                                                                                    
                                                                                                    
                                                                                                    
                                                                                                    
                                                                                                    
                                                                                                    
                                                                                                    
                                                  
<?xpacket end="w"?></metadata>
<path d="M36.37,25.6V6.28s0-.11,0-.16a2.44,2.44,0,0,0,0-.27C36.37.28,21.22,0,18.19,0S0,.28,0,5.85v.21a1.7,1.7,0,0,0,0,.22v28.4c0,5.45,15.15,5.73,18.18,5.73l1.42,0,1.63,0a10.88,10.88,0,0,0,16.64-9.26A10.7,10.7,0,0,0,36.37,25.6Z" fill="#fff"/><path d="M18.1,37.79A51,51,0,0,1,6.79,36.66c-3.41-.81-4.17-1.73-4.17-2v-7.3c2.82,1.66,8.77,2.33,13.3,2.5a10.88,10.88,0,0,1,.3-1.61,48.19,48.19,0,0,1-9.43-1.09c-3.41-.82-4.17-1.73-4.17-2V18c3.32,2,11,2.55,15.56,2.55S30.42,20,33.75,18V22.4a11.33,11.33,0,0,1,1.06.91c.19.19.38.38.56.58V6.28a1,1,0,0,0,0-.16,2.45,2.45,0,0,0,0-.27C35.37,2.52,26.46,1,18.19,1S1,2.52,1,5.85A2.09,2.09,0,0,0,1,6.1a1.1,1.1,0,0,0,0,.18v28.4c0,3.74,11.24,4.73,17.18,4.73l1.4,0A10.68,10.68,0,0,1,18.1,37.79ZM6.8,3.78A49.75,49.75,0,0,1,18.19,2.62,49.65,49.65,0,0,1,29.57,3.78c3.43.84,4.18,1.78,4.18,2.07S33,7.08,29.57,7.93A50.22,50.22,0,0,1,18.19,9.09,50.31,50.31,0,0,1,6.8,7.93C3.37,7.08,2.62,6.14,2.62,5.85S3.37,4.62,6.8,3.78ZM29.57,17.83A51.05,51.05,0,0,1,18.18,19,51.12,51.12,0,0,1,6.79,17.83c-3.41-.81-4.17-1.73-4.17-2V8.07C5.55,9.87,12,10.7,18.19,10.7s12.62-.83,15.56-2.62v7.77C33.75,16.1,33,17,29.57,17.83Z" fill="#2c5967"/><path d="M27,21.38a9.71,9.71,0,0,0-9.91,9.71,9.91,9.91,0,1,0,19.81,0A9.71,9.71,0,0,0,27,21.38Zm-8.29,9.71A8.1,8.1,0,0,1,27,23a8.1,8.1,0,0,1,8.29,8.09,8.29,8.29,0,1,1-16.58,0Z" fill="#2c5967"/><path d="M30.5,34.75a2.67,2.67,0,0,0,2.66-2.66,2.64,2.64,0,0,0-1.11-2.16,4.23,4.23,0,0,0-6.74-2.44,2.83,2.83,0,0,0-2.94,2.16,2.66,2.66,0,0,0,1.07,5.1Zm-8.1-2.66a1.06,1.06,0,0,1,.85-1l.65-.12v-.66a1.21,1.21,0,0,1,1.2-1.18.93.93,0,0,1,.27,0l.42.09.32-.3a2.61,2.61,0,0,1,4.39,1.59l0,.44.39.19a1,1,0,0,1-.45,2H23.44A1,1,0,0,1,22.4,32.09Z" fill="#2c5967"/></svg>