<svg id="Layer_1" data-name="Layer 1" xmlns="http://www.w3.org/2000/svg" viewBox="0 0 31.65 42"><defs><style>.cls-1{fill:#fff;}.cls-2{fill:#2c5967;}</style></defs><title>Technology_Oracle-Public-Cloud-Machine Cloud Service</title><metadata><?xpacket begin="﻿" id="W5M0MpCehiHzreSzNTczkc9d"?>
<x:xmpmeta xmlns:x="adobe:ns:meta/" x:xmptk="Adobe XMP Core 6.0-c006 79.164648, 2021/01/12-15:52:29        ">
   <rdf:RDF xmlns:rdf="http://www.w3.org/1999/02/22-rdf-syntax-ns#">
      <rdf:Description rdf:about=""
            xmlns:xmp="http://ns.adobe.com/xap/1.0/"
            xmlns:xmpMM="http://ns.adobe.com/xap/1.0/mm/"
            xmlns:stEvt="http://ns.adobe.com/xap/1.0/sType/ResourceEvent#"
            xmlns:xmpRights="http://ns.adobe.com/xap/1.0/rights/"
            xmlns:dc="http://purl.org/dc/elements/1.1/"
            xmlns:lr="http://ns.adobe.com/lightroom/1.0/">
         <xmp:MetadataDate>2021-06-28T14:21:40-05:00</xmp:MetadataDate>
         <xmpMM:InstanceID>xmp.iid:b5a69ee5-7b6a-4826-86d4-dab89e43d1c4</xmpMM:InstanceID>
         <xmpMM:DocumentID>xmp.did:67d9aad1-580d-4d5b-8db7-bf8a0ab68781</xmpMM:DocumentID>
         <xmpMM:OriginalDocumentID>xmp.did:67d9aad1-580d-4d5b-8db7-bf8a0ab68781</xmpMM:OriginalDocumentID>
         <xmpMM:History>
            <rdf:Seq>
               <rdf:li>
                  <rdf:Description>
                     <stEvt:action>saved</stEvt:action>
                     <stEvt:instanceID>xmp.iid:67d9aad1-580d-4d5b-8db7-bf8a0ab68781</stEvt:instanceID>
                     <stEvt:when>2021-06-18T11:42:01-05:00</stEvt:when>
                     <stEvt:softwareAgent>Adobe Bridge 2021 (Macintosh)</stEvt:softwareAgent>
                     <stEvt:changed>/metadata</stEvt:changed>
                  </rdf:Description>
               </rdf:li>
               <rdf:li>
                  <rdf:Description>
                     <stEvt:action>saved</stEvt:action>
                     <stEvt:instanceID>xmp.iid:b5a69ee5-7b6a-4826-86d4-dab89e43d1c4</stEvt:instanceID>
                     <stEvt:when>2021-06-28T14:21:40-05:00</stEvt:when>
                     <stEvt:softwareAgent>Adobe Bridge 2021 (Macintosh)</stEvt:softwareAgent>
                     <stEvt:changed>/metadata</stEvt:changed>
                  </rdf:Description>
               </rdf:li>
            </rdf:Seq>
         </xmpMM:History>
         <xmpRights:Marked>True</xmpRights:Marked>
         <dc:title>
            <rdf:Alt>
               <rdf:li xml:lang="x-default">Technology_Oracle-Public-Cloud-Machine Cloud Service</rdf:li>
            </rdf:Alt>
         </dc:title>
         <dc:subject>
            <rdf:Bag>
               <rdf:li>icon</rdf:li>
               <rdf:li>Hardware</rdf:li>
            </rdf:Bag>
         </dc:subject>
         <dc:rights>
            <rdf:Alt>
               <rdf:li xml:lang="x-default">Oracle All Rights Reserved</rdf:li>
            </rdf:Alt>
         </dc:rights>
         <lr:hierarchicalSubject>
            <rdf:Bag>
               <rdf:li>icon</rdf:li>
               <rdf:li>Hardware</rdf:li>
            </rdf:Bag>
         </lr:hierarchicalSubject>
      </rdf:Description>
   </rdf:RDF>
</x:xmpmeta>
                                                                                                    
                                                                                                    
                                                                                                    
                                                                                                    
                                                                                                    
                                                                                                    
                                                                                                    
                                                                                                    
                                                                                                    
                                                                                                    
                                                                                                    
                                                            
<?xpacket end="w"?></metadata>
<path class="cls-1" d="M6.53,41.5V39.88l1.61-.81V16.45H.54L.64,15a7.54,7.54,0,0,1,4-6.14,1.48,1.48,0,0,0,.76-1A5.86,5.86,0,0,1,8.83,3.66a6,6,0,0,1,2.35-.49,5,5,0,0,1,.55,0h.14a1.32,1.32,0,0,0,1-.43A7.14,7.14,0,0,1,18.08.5a7.07,7.07,0,0,1,6.37,3.94,1.49,1.49,0,0,0,1,.78,7.13,7.13,0,0,1,2.3,1,7.27,7.27,0,0,1,2.53,9.59l-.37.69h-5V39.07l1.62.81V41.5Z"/><path class="cls-1" d="M18.09,1A6.57,6.57,0,0,1,24,4.66a2,2,0,0,0,1.35,1,6.76,6.76,0,0,1,4.5,9.81l-.23.43H24.4V39.38l1.62.81V41H7v-.81l1.61-.81V16H1.08l.06-.87A7,7,0,0,1,4.91,9.34,2,2,0,0,0,5.93,8a5.35,5.35,0,0,1,5.25-4.32,4.1,4.1,0,0,1,.5,0h.19a1.84,1.84,0,0,0,1.37-.59A6.64,6.64,0,0,1,18.09,1m0-1a7.65,7.65,0,0,0-5.58,2.43.88.88,0,0,1-.64.27h-.09l-.6,0A6.35,6.35,0,0,0,4.94,7.8a.9.9,0,0,1-.49.65A8.05,8.05,0,0,0,.14,15l-.06.87L0,17H7.64V38.77l-1.06.53L6,39.57V42H27V39.57l-.56-.27-1.06-.53V17h4.82l.28-.53.23-.42A7.8,7.8,0,0,0,28,5.74a7.66,7.66,0,0,0-2.46-1,.94.94,0,0,1-.67-.52A7.57,7.57,0,0,0,18.09,0Z"/><path class="cls-2" d="M24.4,9.08H8.64v30.3L7,40.19V41H26v-.81l-1.62-.81ZM10.26,10.7H22.78V39.38H10.26Zm1.21,1.21h10.1v1.62H11.47Zm8.89,2.83H12.68v1.41H11.47v1.62h1.21v1.41h7.68V17.77h1.21V16.15H20.36Zm-1.62,2.83H14.3V16.35h4.44ZM15.91,22H11.47V20.39h4.44Zm1.22-1.62h4.44V22H17.13Zm-1.22,4.45H11.47V23.22h4.44Zm1.22-1.62h4.44v1.62H17.13Zm.12,12.19A4,4,0,0,0,18.92,35v1.5a4.37,4.37,0,0,1-.86.32A4.43,4.43,0,0,1,17,37a3.42,3.42,0,0,1-2.85-1.22,5.5,5.5,0,0,1-1-3.48,6.55,6.55,0,0,1,.48-2.71A3.39,3.39,0,0,1,15,28a3.81,3.81,0,0,1,2-.5,4.32,4.32,0,0,1,1.07.12,2.43,2.43,0,0,1,.66.23v1.51a3.53,3.53,0,0,0-.65-.22,3.79,3.79,0,0,0-.77-.08,1.87,1.87,0,0,0-1.63.77,4.11,4.11,0,0,0-.56,2.39,4.37,4.37,0,0,0,.53,2.35,1.81,1.81,0,0,0,1.66.84m12.6-19.89-.23.43h-4V14.33h3a5.16,5.16,0,0,0-2-6.37A5,5,0,0,0,25,7.29a3.58,3.58,0,0,1-2.44-1.91,5,5,0,0,0-4.47-2.76,5,5,0,0,0-3.67,1.59A3.45,3.45,0,0,1,11.53,5.3a3.68,3.68,0,0,0-1.85.3A3.75,3.75,0,0,0,7.51,8.31a3.56,3.56,0,0,1-1.85,2.46,5.42,5.42,0,0,0-2.77,3.56H7.43V16H1.08l.06-.87A7,7,0,0,1,4.91,9.34,2,2,0,0,0,5.93,8,5.31,5.31,0,0,1,9,4.12a5.25,5.25,0,0,1,2.65-.43,1.83,1.83,0,0,0,1.56-.58A6.64,6.64,0,0,1,18.09,1,6.57,6.57,0,0,1,24,4.66a2,2,0,0,0,1.35,1,6.76,6.76,0,0,1,4.5,9.81"/></svg>