<svg id="Layer_1" data-name="Layer 1" xmlns="http://www.w3.org/2000/svg" viewBox="0 0 30.21 42"><title>Personas_Database Administrator - Female</title><metadata><?xpacket begin="﻿" id="W5M0MpCehiHzreSzNTczkc9d"?>
<x:xmpmeta xmlns:x="adobe:ns:meta/" x:xmptk="Adobe XMP Core 6.0-c006 79.164648, 2021/01/12-15:52:29        ">
   <rdf:RDF xmlns:rdf="http://www.w3.org/1999/02/22-rdf-syntax-ns#">
      <rdf:Description rdf:about=""
            xmlns:xmpRights="http://ns.adobe.com/xap/1.0/rights/"
            xmlns:xmp="http://ns.adobe.com/xap/1.0/"
            xmlns:xmpMM="http://ns.adobe.com/xap/1.0/mm/"
            xmlns:stEvt="http://ns.adobe.com/xap/1.0/sType/ResourceEvent#"
            xmlns:dc="http://purl.org/dc/elements/1.1/"
            xmlns:lr="http://ns.adobe.com/lightroom/1.0/">
         <xmpRights:Marked>True</xmpRights:Marked>
         <xmp:MetadataDate>2022-01-29T10:33:07-06:00</xmp:MetadataDate>
         <xmpMM:InstanceID>xmp.iid:0ac714e2-f19b-442e-a90c-1f9ebc09478a</xmpMM:InstanceID>
         <xmpMM:DocumentID>xmp.did:437b821f-e039-a34a-9ecd-d0a81668e960</xmpMM:DocumentID>
         <xmpMM:OriginalDocumentID>xmp.did:437b821f-e039-a34a-9ecd-d0a81668e960</xmpMM:OriginalDocumentID>
         <xmpMM:History>
            <rdf:Seq>
               <rdf:li>
                  <rdf:Description>
                     <stEvt:action>saved</stEvt:action>
                     <stEvt:instanceID>xmp.iid:437b821f-e039-a34a-9ecd-d0a81668e960</stEvt:instanceID>
                     <stEvt:when>2022-01-28T20:44:44-06:00</stEvt:when>
                     <stEvt:softwareAgent>Adobe Bridge 2020 (Windows)</stEvt:softwareAgent>
                     <stEvt:changed>/metadata</stEvt:changed>
                  </rdf:Description>
               </rdf:li>
               <rdf:li>
                  <rdf:Description>
                     <stEvt:action>saved</stEvt:action>
                     <stEvt:instanceID>xmp.iid:0ac714e2-f19b-442e-a90c-1f9ebc09478a</stEvt:instanceID>
                     <stEvt:when>2022-01-29T10:33:07-06:00</stEvt:when>
                     <stEvt:softwareAgent>Adobe Bridge 2021 (Macintosh)</stEvt:softwareAgent>
                     <stEvt:changed>/metadata</stEvt:changed>
                  </rdf:Description>
               </rdf:li>
            </rdf:Seq>
         </xmpMM:History>
         <dc:title>
            <rdf:Alt>
               <rdf:li xml:lang="x-default">Personas_Database Administrator - Female</rdf:li>
            </rdf:Alt>
         </dc:title>
         <dc:rights>
            <rdf:Alt>
               <rdf:li xml:lang="x-default">Oracle, All rights reserved</rdf:li>
            </rdf:Alt>
         </dc:rights>
         <dc:subject>
            <rdf:Bag>
               <rdf:li>icon</rdf:li>
               <rdf:li>user</rdf:li>
               <rdf:li>person</rdf:li>
               <rdf:li>persona</rdf:li>
               <rdf:li>data</rdf:li>
               <rdf:li>women</rdf:li>
               <rdf:li>man</rdf:li>
               <rdf:li>woman</rdf:li>
            </rdf:Bag>
         </dc:subject>
         <lr:hierarchicalSubject>
            <rdf:Bag>
               <rdf:li>icon</rdf:li>
               <rdf:li>Other Keywords|user</rdf:li>
               <rdf:li>Other Keywords|person</rdf:li>
               <rdf:li>Other Keywords|persona</rdf:li>
               <rdf:li>Other Keywords|women</rdf:li>
               <rdf:li>man</rdf:li>
               <rdf:li>woman</rdf:li>
            </rdf:Bag>
         </lr:hierarchicalSubject>
      </rdf:Description>
   </rdf:RDF>
</x:xmpmeta>
                                                                                                    
                                                                                                    
                                                                                                    
                                                                                                    
                                                                                                    
                                                                                                    
                                          
<?xpacket end="w"?></metadata>
<path d="M4.46,41.5l-2.07-1V38.82H5.34v-6H.5V27.26a7.53,7.53,0,0,1,6-7.44A10,10,0,0,1,5.19,18l-.26-.47L8.26,4.1l.05,0A5.64,5.64,0,0,1,13.53.5h3.14a5.67,5.67,0,0,1,5.22,3.63h.05l.15.48L25.3,17.49,25,18a9.54,9.54,0,0,1-1.35,1.87,7.51,7.51,0,0,1,6,7.43v5.58H25.08v6h3v1.65L26,41.5H4.46Z" fill="#fff"/><path d="M16.67,1a5.21,5.21,0,0,1,4.9,3.73h0l3.16,12.7-.17.29a8.64,8.64,0,0,1-2,2.47,7,7,0,0,1,6.63,7.08v5.08H24.58v7h3v.84L25.84,41H4.58l-1.69-.84v-.84H5.84v-7H1V27.26a7,7,0,0,1,6.64-7.08,8.79,8.79,0,0,1-2-2.47l-.17-.29L8.62,4.72h0A5.15,5.15,0,0,1,13.53,1h3.14m0-1H13.53A6.13,6.13,0,0,0,8,3.53l-.12,0-.25,1L4.49,17.18l-.1.39.2.34.17.3a11,11,0,0,0,.88,1.33A8,8,0,0,0,0,27.26v6.08H4.84v5H1.89v2.46l.55.27,1.69.84.21.11H26.08l.21-.11L28,41.05l.55-.27V38.32h-3v-5h4.63V27.26a8,8,0,0,0-5.63-7.72,11,11,0,0,0,.89-1.33l.17-.29.2-.35-.1-.39L22.58,4.48l-.24-1-.17,0A6.13,6.13,0,0,0,16.67,0Z" fill="#fff"/><path d="M22.58,20.18a8.64,8.64,0,0,0,2-2.47l.17-.29L21.61,4.72h0A5.21,5.21,0,0,0,16.67,1H13.53a5.15,5.15,0,0,0-4.9,3.72h0L5.46,17.42l.17.29a8.79,8.79,0,0,0,2,2.47A7,7,0,0,0,1,27.26v5.08H2.68V27.26a5.39,5.39,0,0,1,5.48-5.42h3a4,4,0,0,0,7.95,0h3a5.39,5.39,0,0,1,5.48,5.42v5.08h1.68V27.26A7,7,0,0,0,22.58,20.18ZM10.05,10.47v-2a6.27,6.27,0,0,0,5.06-1.29A6.29,6.29,0,0,0,19,8.54a6.54,6.54,0,0,0,1.14-.1v2A5.29,5.29,0,0,1,15.11,16,5.29,5.29,0,0,1,10.05,10.47Zm9.06,9.61V16.23A7.33,7.33,0,0,0,21.69,12L23,17.16A6.1,6.1,0,0,1,19.11,20.08ZM13.53,2.68h3.14a3.61,3.61,0,0,1,3.49,3.79v.25a4.76,4.76,0,0,1-4.49-1.28l-.56-.52-.57.52a4.79,4.79,0,0,1-4.49,1.28V6.47A3.61,3.61,0,0,1,13.53,2.68ZM8.53,12a7.21,7.21,0,0,0,2.58,4.19v3.84a6,6,0,0,1-3.85-2.91ZM15.1,23.53a2.33,2.33,0,0,1-2.31-2.11V17.2a6.45,6.45,0,0,0,4.63,0v4.22A2.34,2.34,0,0,1,15.1,23.53Z" fill="#2c5967"/><path d="M15.32,29.21c-.67,0-4,.1-4,2.11v5.26c0,1.31,2.33,1.89,4,1.89s4-.58,4-1.89V31.32C19.32,30.53,18.8,29.21,15.32,29.21Zm0,1.68a4.86,4.86,0,0,1,2.21.37,4.56,4.56,0,0,1-2.21.48,4.55,4.55,0,0,1-2.17-.46A5.53,5.53,0,0,1,15.32,30.89Zm2.31,3a5.77,5.77,0,0,1-2.31.41A5.83,5.83,0,0,1,13,33.85v-.8a7.43,7.43,0,0,0,4.63,0Zm-2.31,2.94A5.11,5.11,0,0,1,13,36.3v-.65a9.08,9.08,0,0,0,4.63,0v.65A5.1,5.1,0,0,1,15.32,36.79Z" fill="#2c5967"/><path d="M22.68,28.37H7.74a.21.21,0,0,0-.21.21V39.32H22.89V28.58A.21.21,0,0,0,22.68,28.37Z" fill="none"/><path d="M22.68,28.37H7.74a.21.21,0,0,0-.21.21V39.32H22.89V28.58A.21.21,0,0,0,22.68,28.37Z" fill="none"/><path d="M24.58,39.32V28.58a1.9,1.9,0,0,0-1.9-1.9H7.74a1.9,1.9,0,0,0-1.9,1.9V39.32H2.89v.84L4.58,41H25.84l1.69-.84v-.84Zm-1.69,0H7.53V28.58a.21.21,0,0,1,.21-.21H22.68a.21.21,0,0,1,.21.21Z" fill="#2c5967"/></svg>