<?xml version="1.0" encoding="UTF-8"?><svg id="Layer_1" xmlns="http://www.w3.org/2000/svg" viewBox="0 0 42.72 39.47"><metadata><?xpacket begin="﻿" id="W5M0MpCehiHzreSzNTczkc9d"?>
<x:xmpmeta xmlns:x="adobe:ns:meta/" x:xmptk="Adobe XMP Core 7.1-c000 79.4d2f597, 2021/09/01-20:51:22        ">
   <rdf:RDF xmlns:rdf="http://www.w3.org/1999/02/22-rdf-syntax-ns#">
      <rdf:Description rdf:about=""
            xmlns:dc="http://purl.org/dc/elements/1.1/"
            xmlns:xmp="http://ns.adobe.com/xap/1.0/"
            xmlns:xmpMM="http://ns.adobe.com/xap/1.0/mm/"
            xmlns:stEvt="http://ns.adobe.com/xap/1.0/sType/ResourceEvent#"
            xmlns:lr="http://ns.adobe.com/lightroom/1.0/"
            xmlns:xmpRights="http://ns.adobe.com/xap/1.0/rights/">
         <dc:subject>
            <rdf:Bag>
               <rdf:li>technology</rdf:li>
               <rdf:li>data</rdf:li>
               <rdf:li>backup</rdf:li>
               <rdf:li>duplicate</rdf:li>
               <rdf:li>icon</rdf:li>
            </rdf:Bag>
         </dc:subject>
         <dc:rights>
            <rdf:Alt>
               <rdf:li xml:lang="x-default">Oracle All Rights</rdf:li>
            </rdf:Alt>
         </dc:rights>
         <xmp:MetadataDate>2023-05-03T13:17:40-06:00</xmp:MetadataDate>
         <xmpMM:InstanceID>xmp.iid:d2dbc1fa-91c5-2943-93a0-056810275778</xmpMM:InstanceID>
         <xmpMM:DocumentID>xmp.did:e424312a-a6aa-2b49-853b-96262157824c</xmpMM:DocumentID>
         <xmpMM:OriginalDocumentID>xmp.did:e424312a-a6aa-2b49-853b-96262157824c</xmpMM:OriginalDocumentID>
         <xmpMM:History>
            <rdf:Seq>
               <rdf:li>
                  <rdf:Description>
                     <stEvt:action>saved</stEvt:action>
                     <stEvt:instanceID>xmp.iid:e424312a-a6aa-2b49-853b-96262157824c</stEvt:instanceID>
                     <stEvt:when>2023-05-03T13:15:45-06:00</stEvt:when>
                     <stEvt:softwareAgent>Adobe Bridge 2023</stEvt:softwareAgent>
                     <stEvt:changed>/metadata</stEvt:changed>
                  </rdf:Description>
               </rdf:li>
               <rdf:li>
                  <rdf:Description>
                     <stEvt:action>saved</stEvt:action>
                     <stEvt:instanceID>xmp.iid:d2dbc1fa-91c5-2943-93a0-056810275778</stEvt:instanceID>
                     <stEvt:when>2023-05-03T13:17:40-06:00</stEvt:when>
                     <stEvt:softwareAgent>Adobe Bridge 2023</stEvt:softwareAgent>
                     <stEvt:changed>/metadata</stEvt:changed>
                  </rdf:Description>
               </rdf:li>
            </rdf:Seq>
         </xmpMM:History>
         <lr:hierarchicalSubject>
            <rdf:Bag>
               <rdf:li>Other Keywords|icon</rdf:li>
            </rdf:Bag>
         </lr:hierarchicalSubject>
         <xmpRights:Marked>True</xmpRights:Marked>
      </rdf:Description>
   </rdf:RDF>
</x:xmpmeta>
                                                                                                    
                                                                                                    
                                                                                                    
                                                                                                    
                                                                                                    
                                                                                                    
                                                                                                    
                                                                                                    
                                                                                                    
                                                                                                    
   
<?xpacket end="w"?></metadata>
<defs><style>.cls-1{fill:#fff;}.cls-2{fill:#2d5967;}</style></defs><g><g><path class="cls-1" d="M23.86,38.97c-10.2,0-18.68-7.99-19.4-18.05l-1.79,1.79-1.95-1.95,5.05-5.05,5.2,4.9-1.9,2.01-1.83-1.73c.71,8.55,7.93,15.31,16.63,15.31,6.81,0,12.88-4.08,15.46-10.38l.19-.46,2.56,1.04-.19,.46c-3,7.35-10.08,12.1-18.02,12.1Z"/><path class="cls-1" d="M5.77,16.41l4.48,4.23-1.21,1.28-2.37-2.23c.09,9.4,7.77,17.02,17.19,17.02,7.02,0,13.27-4.2,15.92-10.69l1.63,.67c-2.93,7.16-9.82,11.79-17.55,11.79-10.37,0-18.82-8.37-18.95-18.71l-2.25,2.25-1.25-1.25,4.35-4.35m-.02-1.39l-.69,.69L.71,20.06l-.71,.71,.71,.71,1.25,1.25,.71,.71,.71-.71,.7-.7c1.24,9.81,9.69,17.45,19.8,17.45,8.14,0,15.4-4.87,18.48-12.41l.38-.93-.93-.38-1.63-.67-.93-.38-.38,.92c-2.5,6.12-8.39,10.07-15,10.07-7.98,0-14.67-5.85-15.96-13.49l.46,.43,.73,.69,.69-.73,1.21-1.28,.69-.73-.73-.69-4.48-4.23-.71-.67h0Z"/></g><g><path class="cls-1" d="M24.11,31.58c-.11,0-.56,0-.56,0-.26,0-.64,0-1.09-.03-.86-.03-1.7-.09-2.48-.17-2.4-.24-4.23-.66-5.43-1.25-1.18-.58-1.78-1.34-1.78-2.26v-8.5c-4.43-.86-7.71-4.81-7.71-9.35C5.06,4.78,9.34,.5,14.6,.5c4.3,0,8.02,2.84,9.17,6.95h.98c6.76,.12,10.18,1.31,10.18,3.55V28.03c0,2.24-3.43,3.43-10.18,3.55h-.65Z"/><path class="cls-1" d="M14.6,1c4.26,0,7.84,2.97,8.79,6.96,.21,0,.38,0,.47,0,.15,0,.47,0,.89,.01h0c3.49,.05,9.69,.51,9.69,3.04V28.03c0,2.53-6.2,2.99-9.69,3.05h0c-.42,0-.74,0-.89,0-.07,0-.17,0-.3,0-.26,0-.63,0-1.08-.03-.68-.03-1.53-.07-2.45-.16-1.83-.18-3.9-.53-5.26-1.2-.91-.45-1.5-1.04-1.5-1.81v-8.92c-4.36-.64-7.71-4.4-7.71-8.93C5.56,5.05,9.62,1,14.6,1m0-1C9.07,0,4.56,4.5,4.56,10.04c0,4.64,3.26,8.69,7.71,9.75v8.09c0,.77,.36,1.87,2.06,2.71,1.25,.62,3.14,1.05,5.6,1.29,.8,.08,1.64,.14,2.51,.17,.44,.02,.81,.02,1.07,.03v.02l1.25-.02c7.18-.13,10.67-1.45,10.67-4.05V11c0-2.6-3.49-3.93-10.67-4.05h-.63C22.81,2.82,19,0,14.6,0h0Z"/></g></g><path class="cls-2" d="M41.41,26.68c-2.93,7.16-9.82,11.79-17.55,11.79-10.37,0-18.82-8.37-18.95-18.71l-2.25,2.25-1.25-1.25,4.35-4.35,4.48,4.23-1.21,1.28-2.37-2.23c.09,9.4,7.77,17.02,17.19,17.02,7.02,0,13.27-4.2,15.92-10.69l1.63,.67Z"/><path class="cls-2" d="M32.68,22.25v.09c0-.07,.02-.11,.03-.12,0,.01-.02,.02-.03,.03Zm0-5.59v.09c0-.06,.02-.11,.03-.12,0,.01-.02,.02-.03,.03Zm0-5.54v.09c0-.07,.02-.11,.03-.12,0,.01-.02,.02-.03,.03ZM15.02,22.21s.03,.06,.03,.12v-.09s-.02-.02-.03-.03Z"/><path class="cls-2" d="M24.75,7.95c.12,.57,.19,1.17,.2,1.77,4.75,.11,7.31,.9,7.72,1.37v.03s.02-.02,.03-.03c0,.01-.03,.06-.03,.12v-.09c-.43,.54-3.36,1.43-8.04,1.52-.16,.61-.37,1.21-.64,1.77,1.13,0,6.01-.1,8.68-1.27v3.52s.02-.02,.03-.03c0,.01-.03,.06-.03,.12v-.09c-.45,.57-3.68,1.53-8.82,1.53-.99,0-1.9-.04-2.74-.1-.75,.61-1.59,1.12-2.49,1.5,2.36,.34,4.73,.36,5.24,.36,.79,0,6.02-.05,8.82-1.27v3.57s.02-.02,.03-.03c0,.01-.03,.06-.03,.12v-.09c-.45,.57-3.68,1.53-8.82,1.53s-8.37-.96-8.82-1.53v.09c0-.07-.02-.11-.03-.12,0,.01,.02,.02,.03,.03v-1.86c-.15,0-.29,.01-.44,.01-.45,0-.89-.03-1.32-.08v7.57c0,3.11,9.5,3.2,10.58,3.2s10.58-.09,10.58-3.2V11c0-2.53-6.2-2.99-9.69-3.05Zm7.93,19.85c-.47,.57-3.69,1.52-8.82,1.52s-8.35-.96-8.82-1.52v-3.53c2.8,1.22,8.03,1.27,8.82,1.27s6.02-.05,8.82-1.27v3.53Z"/><path class="cls-2" d="M15.04,22.25v.09c0-.07-.02-.11-.03-.12,0,.01,.02,.02,.03,.03Z"/><path class="cls-2" d="M32.7,22.21s-.03,.06-.03,.12v-.09s.02-.02,.03-.03Z"/><path class="cls-2" d="M32.7,16.62s-.03,.06-.03,.12v-.09s.02-.02,.03-.03Z"/><path class="cls-2" d="M32.7,11.08s-.03,.06-.03,.12v-.09s.02-.02,.03-.03Z"/><path class="cls-2" d="M14.6,1C9.62,1,5.56,5.05,5.56,10.04s4.05,9.04,9.04,9.04,9.04-4.05,9.04-9.04S19.58,1,14.6,1Zm0,16.31c-4.01,0-7.27-3.26-7.27-7.27s3.26-7.27,7.27-7.27,7.27,3.26,7.27,7.27-3.26,7.27-7.27,7.27Z"/><path class="cls-2" d="M18.74,12.94l-1.25,1.25-3.53-3.53c-.17-.17-.26-.39-.26-.62V5.85h1.76v3.82l3.27,3.27Z"/></svg>