<svg id="Layer_1" data-name="Layer 1" xmlns="http://www.w3.org/2000/svg" viewBox="0 0 46.69 42.02"><title>Other - Services - Data_Management - Autonomous</title><metadata><?xpacket begin="﻿" id="W5M0MpCehiHzreSzNTczkc9d"?>
<x:xmpmeta xmlns:x="adobe:ns:meta/" x:xmptk="Adobe XMP Core 6.0-c006 79.164648, 2021/01/12-15:52:29        ">
   <rdf:RDF xmlns:rdf="http://www.w3.org/1999/02/22-rdf-syntax-ns#">
      <rdf:Description rdf:about=""
            xmlns:dc="http://purl.org/dc/elements/1.1/"
            xmlns:lr="http://ns.adobe.com/lightroom/1.0/"
            xmlns:xmp="http://ns.adobe.com/xap/1.0/"
            xmlns:xmpMM="http://ns.adobe.com/xap/1.0/mm/"
            xmlns:stEvt="http://ns.adobe.com/xap/1.0/sType/ResourceEvent#"
            xmlns:xmpRights="http://ns.adobe.com/xap/1.0/rights/">
         <dc:title>
            <rdf:Alt>
               <rdf:li xml:lang="x-default">Other - Services - Data_Management - Autonomous</rdf:li>
            </rdf:Alt>
         </dc:title>
         <dc:subject>
            <rdf:Bag>
               <rdf:li>icon</rdf:li>
            </rdf:Bag>
         </dc:subject>
         <dc:rights>
            <rdf:Alt>
               <rdf:li xml:lang="x-default">Oracle All Rights Reserved</rdf:li>
            </rdf:Alt>
         </dc:rights>
         <lr:hierarchicalSubject>
            <rdf:Bag>
               <rdf:li>icon</rdf:li>
            </rdf:Bag>
         </lr:hierarchicalSubject>
         <xmp:MetadataDate>2021-11-23T13:28:06-06:00</xmp:MetadataDate>
         <xmpMM:InstanceID>xmp.iid:282c3e55-4376-4e11-97b3-2878ba5a9bc9</xmpMM:InstanceID>
         <xmpMM:DocumentID>xmp.did:5d09a010-5d69-0d45-8997-d9f2978f5fa1</xmpMM:DocumentID>
         <xmpMM:OriginalDocumentID>xmp.did:5d09a010-5d69-0d45-8997-d9f2978f5fa1</xmpMM:OriginalDocumentID>
         <xmpMM:History>
            <rdf:Seq>
               <rdf:li>
                  <rdf:Description>
                     <stEvt:action>saved</stEvt:action>
                     <stEvt:instanceID>xmp.iid:5d09a010-5d69-0d45-8997-d9f2978f5fa1</stEvt:instanceID>
                     <stEvt:when>2021-11-22T15:45:01-06:00</stEvt:when>
                     <stEvt:softwareAgent>Adobe Bridge 2020 (Windows)</stEvt:softwareAgent>
                     <stEvt:changed>/metadata</stEvt:changed>
                  </rdf:Description>
               </rdf:li>
               <rdf:li>
                  <rdf:Description>
                     <stEvt:action>saved</stEvt:action>
                     <stEvt:instanceID>xmp.iid:282c3e55-4376-4e11-97b3-2878ba5a9bc9</stEvt:instanceID>
                     <stEvt:when>2021-11-23T13:28:06-06:00</stEvt:when>
                     <stEvt:softwareAgent>Adobe Bridge 2021 (Macintosh)</stEvt:softwareAgent>
                     <stEvt:changed>/metadata</stEvt:changed>
                  </rdf:Description>
               </rdf:li>
            </rdf:Seq>
         </xmpMM:History>
         <xmpRights:Marked>True</xmpRights:Marked>
      </rdf:Description>
   </rdf:RDF>
</x:xmpmeta>
                                                                                                    
                                                                                                    
                                                                                                    
                                                                                                    
                                                                                                    
                                                                                                    
                                                                                                    
                                                                                                    
                                                                                                    
                                                                                                    
                                                                                                    
                                                                                                    
                                         
<?xpacket end="w"?></metadata>
<path d="M9.46,41.52V22.08H.54l.11-1.49A10.16,10.16,0,0,1,6.09,12.3a2.49,2.49,0,0,0,1.3-1.73A7.81,7.81,0,0,1,15,4.28c.24,0,.49,0,.73,0l.25,0a2.37,2.37,0,0,0,1.74-.75A9.48,9.48,0,0,1,24,.55h0l1,0v0a9.49,9.49,0,0,1,8.31,5.28,2.65,2.65,0,0,0,.46.65l1.63,1.22.31.05.55.11.39.1c.24.07.48.15.71.24l.2.07c.33.14.63.29.93.45a10.21,10.21,0,0,1,.87.56l.1.08a9.78,9.78,0,0,1,.76.63,9.45,9.45,0,0,1,1.39,1.69l.18.29h0a9.28,9.28,0,0,1,.79,1.83l3.4,3.4-2,2-1.24-1.24A8.69,8.69,0,0,1,34.28,25h-.4V41.52Z" fill="#fff"/><path d="M24.77,1a9,9,0,0,1,8.1,5,3,3,0,0,0,.56.77l1.78,1.35c.15,0,.29,0,.43.06l.51.11.37.09a6.59,6.59,0,0,1,.67.23l.2.07a7,7,0,0,1,.87.42l.06,0a7.52,7.52,0,0,1,.75.5l.12.09a7.56,7.56,0,0,1,.69.58l0,0a7.84,7.84,0,0,1,1.26,1.55l0,0h0a8.25,8.25,0,0,1,.93,2.1l3.14,3.14L44,18.44l-1.6-1.6a8.18,8.18,0,0,1-8.15,7.62c-.3,0-.6,0-.9-.05V41H10V21.58H1.08l.07-.95a9.68,9.68,0,0,1,5.17-7.89,3,3,0,0,0,1.56-2.07A7.32,7.32,0,0,1,15,4.78c.23,0,.46,0,.68,0l.3,0a2.85,2.85,0,0,0,2.1-.91A9,9,0,0,1,24.52,1l0,.54,0-.54h.25m.72-1-1,0h0l-1,0V.1a10,10,0,0,0-6.11,3.14A1.84,1.84,0,0,1,16,3.83h-.2a6.79,6.79,0,0,0-.78,0,8.29,8.29,0,0,0-8.14,6.7,2,2,0,0,1-1,1.38A10.66,10.66,0,0,0,.15,20.55l-.07.95L0,22.58H9V42H34.38V25.46a9.22,9.22,0,0,0,8.69-6.57l.25.26.71.71.71-.71L46,17.9l.7-.71-.7-.7-3-3a9.71,9.71,0,0,0-.58-1.41l0,0-.42-.68,0,0v0a9.59,9.59,0,0,0-1.4-1.71h0l0,0A8,8,0,0,0,39.8,9l-.14-.1a8.14,8.14,0,0,0-.85-.55l-.06,0a9.85,9.85,0,0,0-1-.48l-.16-.06,0,0c-.27-.1-.52-.18-.76-.25l-.42-.11-.58-.11-.09,0h-.1L34.09,6.06a2.06,2.06,0,0,1-.32-.47A10,10,0,0,0,25.49.05V0Z" fill="#fff"/><path d="M10,41H21V22.9H10Zm1.77-16.35h7.51V39.26H11.73Z" fill="#2c5967"/><path d="M19,18H12a2,2,0,0,0-2,2v1.55H21V20A2,2,0,0,0,19,18Z" fill="#2c5967"/><path d="M31.62,39.26H24.1V24.67h5.41a9.4,9.4,0,0,1-2.19-1.77h-5V41H33.38V25.94a9.46,9.46,0,0,1-1.76-.35Z" fill="#2c5967"/><path d="M25.64,20.4h0a11.21,11.21,0,0,1-.47-1.26l-1.08-1.08a2,2,0,0,0-1.76,2v1.55h4a10.19,10.19,0,0,1-.64-1.17Z" fill="#2c5967"/><path d="M32,7,32.43,7h0l.44-.07h0l.48-.05A3,3,0,0,1,32.87,6a9,9,0,0,0-8.1-5h-.25a9,9,0,0,0-6.4,2.89,2.86,2.86,0,0,1-2.4.89,7.22,7.22,0,0,0-3.61.59,7.29,7.29,0,0,0-4.23,5.27,3,3,0,0,1-1.56,2.07,9.68,9.68,0,0,0-5.17,7.89l-.07.95H8.63V19.81H3a7.88,7.88,0,0,1,4.11-5.5A4.76,4.76,0,0,0,9.62,11a5.55,5.55,0,0,1,5.94-4.44,4.63,4.63,0,0,0,3.86-1.45,7.25,7.25,0,0,1,5.15-2.33h.2a7.25,7.25,0,0,1,6.52,4,4,4,0,0,0,.2.35l.14,0,.17-.05Z" fill="#2c5967"/><path d="M27,19.07l.71-.71,1.26-1.26h0l1.75-1.75L29.44,14.1l-1.55,1.55a6.41,6.41,0,0,1,12-2.41l.7-.7.59-.59a8.18,8.18,0,0,0-15.1,3.76l-1.6-1.61-1.25,1.25Z" fill="#2c5967"/><path d="M44,18.44l1.25-1.25-3.72-3.72-3.72,3.72,1.25,1.25,1.56-1.55a6.41,6.41,0,0,1-12,2.41l-1.29,1.29a8.17,8.17,0,0,0,15.09-3.75Z" fill="#2c5967"/><path d="M35.13,11.58H33.39L30.93,20.1h1.83l.41-1.8h2.12l.41,1.8h1.88ZM33.5,16.85l.73-3.18L35,16.85Z" fill="#2c5967"/></svg>