<svg id="Layer_1" data-name="Layer 1" xmlns="http://www.w3.org/2000/svg" viewBox="0 0 42 31.26"><title>Other - Technology - Database-Container</title><metadata><?xpacket begin="﻿" id="W5M0MpCehiHzreSzNTczkc9d"?>
<x:xmpmeta xmlns:x="adobe:ns:meta/" x:xmptk="Adobe XMP Core 6.0-c006 79.164648, 2021/01/12-15:52:29        ">
   <rdf:RDF xmlns:rdf="http://www.w3.org/1999/02/22-rdf-syntax-ns#">
      <rdf:Description rdf:about=""
            xmlns:dc="http://purl.org/dc/elements/1.1/"
            xmlns:lr="http://ns.adobe.com/lightroom/1.0/"
            xmlns:xmp="http://ns.adobe.com/xap/1.0/"
            xmlns:xmpMM="http://ns.adobe.com/xap/1.0/mm/"
            xmlns:stEvt="http://ns.adobe.com/xap/1.0/sType/ResourceEvent#"
            xmlns:xmpRights="http://ns.adobe.com/xap/1.0/rights/">
         <dc:title>
            <rdf:Alt>
               <rdf:li xml:lang="x-default">Other - Technology - Database-Container</rdf:li>
            </rdf:Alt>
         </dc:title>
         <dc:subject>
            <rdf:Bag>
               <rdf:li>icon</rdf:li>
               <rdf:li>database</rdf:li>
               <rdf:li>data</rdf:li>
               <rdf:li>technology</rdf:li>
            </rdf:Bag>
         </dc:subject>
         <dc:rights>
            <rdf:Alt>
               <rdf:li xml:lang="x-default">Oracle All Rights Reserved</rdf:li>
            </rdf:Alt>
         </dc:rights>
         <lr:hierarchicalSubject>
            <rdf:Bag>
               <rdf:li>icon</rdf:li>
               <rdf:li>database</rdf:li>
               <rdf:li>data</rdf:li>
               <rdf:li>technology</rdf:li>
            </rdf:Bag>
         </lr:hierarchicalSubject>
         <xmp:MetadataDate>2021-11-23T13:28:06-06:00</xmp:MetadataDate>
         <xmpMM:InstanceID>xmp.iid:a12ec21b-9fd5-4af3-b190-e8b33a67909e</xmpMM:InstanceID>
         <xmpMM:DocumentID>xmp.did:33a8ed2b-6c63-0c48-9165-d69af89b416e</xmpMM:DocumentID>
         <xmpMM:OriginalDocumentID>xmp.did:33a8ed2b-6c63-0c48-9165-d69af89b416e</xmpMM:OriginalDocumentID>
         <xmpMM:History>
            <rdf:Seq>
               <rdf:li>
                  <rdf:Description>
                     <stEvt:action>saved</stEvt:action>
                     <stEvt:instanceID>xmp.iid:33a8ed2b-6c63-0c48-9165-d69af89b416e</stEvt:instanceID>
                     <stEvt:when>2021-11-22T15:45:01-06:00</stEvt:when>
                     <stEvt:softwareAgent>Adobe Bridge 2020 (Windows)</stEvt:softwareAgent>
                     <stEvt:changed>/metadata</stEvt:changed>
                  </rdf:Description>
               </rdf:li>
               <rdf:li>
                  <rdf:Description>
                     <stEvt:action>saved</stEvt:action>
                     <stEvt:instanceID>xmp.iid:a12ec21b-9fd5-4af3-b190-e8b33a67909e</stEvt:instanceID>
                     <stEvt:when>2021-11-23T13:28:06-06:00</stEvt:when>
                     <stEvt:softwareAgent>Adobe Bridge 2021 (Macintosh)</stEvt:softwareAgent>
                     <stEvt:changed>/metadata</stEvt:changed>
                  </rdf:Description>
               </rdf:li>
            </rdf:Seq>
         </xmpMM:History>
         <xmpRights:Marked>True</xmpRights:Marked>
      </rdf:Description>
   </rdf:RDF>
</x:xmpmeta>
                                                                                                    
                                                                                                    
                                                                                                    
                                                                                                    
                                                                                                    
                                                                                                    
                                                                                                    
                                                                                                    
                                                                                                    
                                                                                                    
 
<?xpacket end="w"?></metadata>
<path d="M32.3,18.54a2.17,2.17,0,0,1-2.17-2.17V14.54c-1.72-.37-2.59-1.06-2.59-2.07V3.61C27.54.72,32.17.5,33.59.5c5,0,6.06,1.69,6.06,3.11a.49.49,0,0,1,0,.12V9.62h0v2.86c0,1-.87,1.7-2.6,2.07v1.83a2.17,2.17,0,0,1-2.16,2.17Z" fill="#fff"/><path d="M33.59,1c2.54,0,5.56.45,5.56,2.61,0,0,0,.08,0,.12s0,0,0,.08V6.56a.09.09,0,0,1,0,.05,0,0,0,0,1,0,0V9.52s0,.05,0,.08,0,0,0,.06v2.81c0,.95-1.23,1.42-2.6,1.66v2.24A1.66,1.66,0,0,1,34.89,18H32.3a1.67,1.67,0,0,1-1.67-1.67V14.13c-1.37-.24-2.59-.71-2.59-1.66V3.81a.19.19,0,0,1,0-.08.49.49,0,0,1,0-.12C28,1.13,32.66,1,33.59,1m0-1C32.05,0,27,.26,27,3.61v3h0v5.85c0,1.19.87,2,2.59,2.47v1.43A2.68,2.68,0,0,0,32.3,19h2.59a2.67,2.67,0,0,0,2.66-2.67V14.94c1.73-.45,2.6-1.28,2.6-2.47V9.59h0v-3h0V3.81a.28.28,0,0,0,0-.09.45.45,0,0,0,0-.11C40.15,2,39,0,33.59,0Z" fill="#fff"/><path d="M.5,30.76V22.3a2.17,2.17,0,0,1,2.17-2.17H5.13V19c-1.72-.36-2.59-1.05-2.59-2.06V8.05c0-2.88,4.63-3.11,6.05-3.11,5,0,6.06,1.69,6.06,3.11a.49.49,0,0,1,0,.12v5.89h0v2.87c0,1-.87,1.7-2.6,2.06v1.15h5.49V19c-1.72-.36-2.6-1.05-2.6-2.06V14h0a.1.1,0,0,1,0,0V8.17s0-.08,0-.12c0-2.88,4.64-3.11,6.06-3.11,5,0,6.06,1.69,6.06,3.11,0,0,0,.08,0,.12v5.89h0a.2.2,0,0,1,0,0v2.82c0,1-.88,1.7-2.6,2.06v1.15H39.33A2.17,2.17,0,0,1,41.5,22.3v8.46Z" fill="#fff"/><path d="M21,5.44c2.53,0,5.56.46,5.56,2.61,0,0,0,.08,0,.12s0,.06,0,.09V11s0,0,0,0V14s0,0,0,.07,0,0,0,.06v2.82c0,.95-1.23,1.42-2.6,1.65v2.06H39.33A1.67,1.67,0,0,1,41,22.3v8H1v-8a1.67,1.67,0,0,1,1.67-1.67h3V18.57C4.26,18.34,3,17.87,3,16.92V8.26a.28.28,0,0,1,0-.09.49.49,0,0,1,0-.12C3,5.57,7.66,5.44,8.59,5.44c2.54,0,5.56.46,5.56,2.61,0,0,0,.08,0,.12s0,.06,0,.09V11a.08.08,0,0,0,0,.08V14s0,0,0,.07,0,0,0,.06v2.82c0,.95-1.23,1.42-2.6,1.65v2.06H18V18.57c-1.37-.23-2.6-.7-2.6-1.65V14.1s0,0,0-.06,0,0,0-.07V11.05s0,0,0,0V8.26s0-.06,0-.09,0-.08,0-.12c0-2.48,4.63-2.61,5.56-2.61m0-1c-1.29,0-5,.19-6.19,2.2-.64-1.18-2.32-2.2-6.22-2.2C7.05,4.44,2,4.7,2,8.05v3H2v5.86c0,1.19.87,2,2.59,2.46v.25h-2A2.68,2.68,0,0,0,0,22.3v9H42v-9a2.68,2.68,0,0,0-2.67-2.67H25v-.25c1.72-.45,2.6-1.27,2.6-2.46V14h0a.09.09,0,0,0,0,0V11.06h0V8.26s0-.07,0-.1,0-.07,0-.11c0-1.64-1.14-3.61-6.56-3.61ZM12.55,19.38a3.81,3.81,0,0,0,2.25-1.3A3.75,3.75,0,0,0,17,19.38v.25H12.55v-.25Z" fill="#fff"/><path d="M30.63,14.13v2.24A1.67,1.67,0,0,0,32.3,18h2.59a1.66,1.66,0,0,0,1.66-1.67V14.13c1.37-.24,2.6-.71,2.6-1.66V9.66s0,0,0-.06,0,0,0-.08V6.64a0,0,0,0,0,0,0,.09.09,0,0,0,0-.05V3.81s0-.06,0-.08,0-.08,0-.12c0-2.16-3-2.61-5.56-2.61C32.66,1,28,1.13,28,3.61a.49.49,0,0,0,0,.12.19.19,0,0,0,0,.08v8.66C28,13.42,29.26,13.89,30.63,14.13Zm4.44,2.24a.19.19,0,0,1-.18.19H32.3a.2.2,0,0,1-.19-.19V14.29c.56,0,1.09,0,1.48,0s.92,0,1.48,0Zm-1.48-3.52a10.28,10.28,0,0,1-4.07-.58V10.91a14.51,14.51,0,0,0,4.07.46,14.58,14.58,0,0,0,4.08-.46v1.36A10.39,10.39,0,0,1,33.59,12.85Zm0-7.41A14.14,14.14,0,0,0,37.67,5V6.36a10.56,10.56,0,0,1-4.08.57,10.44,10.44,0,0,1-4.07-.57V5A14.07,14.07,0,0,0,33.59,5.44Zm0,3A13,13,0,0,0,37.67,8V9.32a11.22,11.22,0,0,1-4.08.57,11.15,11.15,0,0,1-4.07-.57V8A14.09,14.09,0,0,0,33.59,8.41Zm0-5.93c2.52,0,3.89.37,4.08.93-.19.37-1.91.55-4.08.55s-3.89-.18-4.07-.55C29.7,2.85,31.55,2.48,33.59,2.48Z" fill="#2c5967"/><path d="M39.33,20.63H25.07v1.48H39.33a.18.18,0,0,1,.19.19v6.48h-37V22.3a.18.18,0,0,1,.19-.19H4.52V20.63H2.67A1.67,1.67,0,0,0,1,22.3v8H41v-8A1.67,1.67,0,0,0,39.33,20.63Z" fill="#2c5967"/><rect x="12.67" y="20.63" width="4.26" height="1.48" fill="#2c5967"/><path d="M18,18.57v2.25a1.67,1.67,0,0,0,1.66,1.66h2.6A1.67,1.67,0,0,0,24,20.82V18.57c1.37-.23,2.6-.7,2.6-1.65V14.1s0,0,0-.06,0,0,0-.07V11.05s0,0,0,0V8.26s0-.06,0-.09,0-.08,0-.12c0-2.15-3-2.61-5.56-2.61-.93,0-5.56.13-5.56,2.61,0,0,0,.08,0,.12s0,.06,0,.09V11s0,0,0,0V14s0,0,0,.07,0,0,0,.06v2.82C15.44,17.87,16.67,18.34,18,18.57Zm4.44,2.25a.18.18,0,0,1-.18.18H19.7a.18.18,0,0,1-.18-.18V18.74c.56,0,1.08,0,1.48,0s.92,0,1.48,0ZM21,17.3a10.49,10.49,0,0,1-4.07-.58V15.36a14.81,14.81,0,0,0,4.07.45,14.81,14.81,0,0,0,4.07-.45v1.36A10.49,10.49,0,0,1,21,17.3Zm0-7.41a14.39,14.39,0,0,0,4.07-.45V10.8a10.44,10.44,0,0,1-4.07.57,10.44,10.44,0,0,1-4.07-.57V9.44A14.39,14.39,0,0,0,21,9.89Zm0,3a13.13,13.13,0,0,0,4.07-.45v1.37a11.49,11.49,0,0,1-4.07.56,11.49,11.49,0,0,1-4.07-.56V12.4A14.39,14.39,0,0,0,21,12.85Zm0-5.92c2.51,0,3.89.37,4.07.92-.18.37-1.9.56-4.07.56s-3.89-.19-4.07-.56C17.11,7.3,19,6.93,21,6.93Z" fill="#2c5967"/><path d="M5.63,18.57v2.25A1.67,1.67,0,0,0,7.3,22.48H9.89a1.66,1.66,0,0,0,1.66-1.66V18.57c1.37-.23,2.6-.7,2.6-1.65V14.1s0,0,0-.06,0,0,0-.07V11.09a.08.08,0,0,1,0-.08V8.26s0-.06,0-.09,0-.08,0-.12c0-2.15-3-2.61-5.56-2.61C7.66,5.44,3,5.57,3,8.05a.49.49,0,0,0,0,.12.28.28,0,0,0,0,.09v8.66C3,17.87,4.26,18.34,5.63,18.57Zm4.44,2.25a.18.18,0,0,1-.18.18H7.3a.19.19,0,0,1-.19-.18V18.74c.56,0,1.09,0,1.48,0s.92,0,1.48,0ZM8.59,17.3a10.49,10.49,0,0,1-4.07-.58V15.36a14.85,14.85,0,0,0,4.07.45,14.92,14.92,0,0,0,4.08-.45v1.36A10.6,10.6,0,0,1,8.59,17.3Zm0-7.41a14.49,14.49,0,0,0,4.08-.45V10.8a10.56,10.56,0,0,1-4.08.57,10.44,10.44,0,0,1-4.07-.57V9.44A14.43,14.43,0,0,0,8.59,9.89Zm0,3a13.22,13.22,0,0,0,4.08-.45v1.37a11.56,11.56,0,0,1-4.08.56,11.49,11.49,0,0,1-4.07-.56V12.4A14.43,14.43,0,0,0,8.59,12.85Zm0-5.92c2.52,0,3.89.37,4.08.92-.19.37-1.91.56-4.08.56S4.7,8.22,4.52,7.85C4.7,7.3,6.55,6.93,8.59,6.93Z" fill="#2c5967"/><path d="M35.81,25.44a2.22,2.22,0,1,0-2.22,2.23A2.22,2.22,0,0,0,35.81,25.44Zm-3,0a.74.74,0,1,1,.74.75A.74.74,0,0,1,32.85,25.44Z" fill="#2c5967"/><circle cx="21" cy="25.44" r="1.48" fill="#2c5967"/><circle cx="8.59" cy="25.44" r="1.48" fill="#2c5967"/><path d="M30.63,14.13v2.24A1.67,1.67,0,0,0,32.3,18h2.59a1.66,1.66,0,0,0,1.66-1.67V14.13c1.37-.24,2.6-.71,2.6-1.66V9.66s0,0,0-.06,0,0,0-.08V6.64a0,0,0,0,0,0,0,.09.09,0,0,0,0-.05V3.81s0-.06,0-.08,0-.08,0-.12c0-2.16-3-2.61-5.56-2.61C32.66,1,28,1.13,28,3.61a.49.49,0,0,0,0,.12.19.19,0,0,0,0,.08v8.66C28,13.42,29.26,13.89,30.63,14.13Zm4.44,2.24a.19.19,0,0,1-.18.19H32.3a.2.2,0,0,1-.19-.19V14.29c.56,0,1.09,0,1.48,0s.92,0,1.48,0Zm-1.48-3.52a10.28,10.28,0,0,1-4.07-.58V10.91a14.51,14.51,0,0,0,4.07.46,14.58,14.58,0,0,0,4.08-.46v1.36A10.39,10.39,0,0,1,33.59,12.85Zm0-7.41A14.14,14.14,0,0,0,37.67,5V6.36a10.56,10.56,0,0,1-4.08.57,10.44,10.44,0,0,1-4.07-.57V5A14.07,14.07,0,0,0,33.59,5.44Zm0,3A13,13,0,0,0,37.67,8V9.32a11.22,11.22,0,0,1-4.08.57,11.15,11.15,0,0,1-4.07-.57V8A14.09,14.09,0,0,0,33.59,8.41Zm0-5.93c2.52,0,3.89.37,4.08.93-.19.37-1.91.55-4.08.55s-3.89-.18-4.07-.55C29.7,2.85,31.55,2.48,33.59,2.48Z" fill="#2c5967"/><path d="M39.33,20.63H25.07v1.48H39.33a.18.18,0,0,1,.19.19v6.48h-37V22.3a.18.18,0,0,1,.19-.19H4.52V20.63H2.67A1.67,1.67,0,0,0,1,22.3v8H41v-8A1.67,1.67,0,0,0,39.33,20.63Z" fill="#2c5967"/><rect x="12.67" y="20.63" width="4.26" height="1.48" fill="#2c5967"/><path d="M18,18.57v2.25a1.67,1.67,0,0,0,1.66,1.66h2.6A1.67,1.67,0,0,0,24,20.82V18.57c1.37-.23,2.6-.7,2.6-1.65V14.1s0,0,0-.06,0,0,0-.07V11.05s0,0,0,0V8.26s0-.06,0-.09,0-.08,0-.12c0-2.15-3-2.61-5.56-2.61-.93,0-5.56.13-5.56,2.61,0,0,0,.08,0,.12s0,.06,0,.09V11s0,0,0,0V14s0,0,0,.07,0,0,0,.06v2.82C15.44,17.87,16.67,18.34,18,18.57Zm4.44,2.25a.18.18,0,0,1-.18.18H19.7a.18.18,0,0,1-.18-.18V18.74c.56,0,1.08,0,1.48,0s.92,0,1.48,0ZM21,17.3a10.49,10.49,0,0,1-4.07-.58V15.36a14.81,14.81,0,0,0,4.07.45,14.81,14.81,0,0,0,4.07-.45v1.36A10.49,10.49,0,0,1,21,17.3Zm0-7.41a14.39,14.39,0,0,0,4.07-.45V10.8a10.44,10.44,0,0,1-4.07.57,10.44,10.44,0,0,1-4.07-.57V9.44A14.39,14.39,0,0,0,21,9.89Zm0,3a13.13,13.13,0,0,0,4.07-.45v1.37a11.49,11.49,0,0,1-4.07.56,11.49,11.49,0,0,1-4.07-.56V12.4A14.39,14.39,0,0,0,21,12.85Zm0-5.92c2.51,0,3.89.37,4.07.92-.18.37-1.9.56-4.07.56s-3.89-.19-4.07-.56C17.11,7.3,19,6.93,21,6.93Z" fill="#2c5967"/><path d="M5.63,18.57v2.25A1.67,1.67,0,0,0,7.3,22.48H9.89a1.66,1.66,0,0,0,1.66-1.66V18.57c1.37-.23,2.6-.7,2.6-1.65V14.1s0,0,0-.06,0,0,0-.07V11.09a.08.08,0,0,1,0-.08V8.26s0-.06,0-.09,0-.08,0-.12c0-2.15-3-2.61-5.56-2.61C7.66,5.44,3,5.57,3,8.05a.49.49,0,0,0,0,.12.28.28,0,0,0,0,.09v8.66C3,17.87,4.26,18.34,5.63,18.57Zm4.44,2.25a.18.18,0,0,1-.18.18H7.3a.19.19,0,0,1-.19-.18V18.74c.56,0,1.09,0,1.48,0s.92,0,1.48,0ZM8.59,17.3a10.49,10.49,0,0,1-4.07-.58V15.36a14.85,14.85,0,0,0,4.07.45,14.92,14.92,0,0,0,4.08-.45v1.36A10.6,10.6,0,0,1,8.59,17.3Zm0-7.41a14.49,14.49,0,0,0,4.08-.45V10.8a10.56,10.56,0,0,1-4.08.57,10.44,10.44,0,0,1-4.07-.57V9.44A14.43,14.43,0,0,0,8.59,9.89Zm0,3a13.22,13.22,0,0,0,4.08-.45v1.37a11.56,11.56,0,0,1-4.08.56,11.49,11.49,0,0,1-4.07-.56V12.4A14.43,14.43,0,0,0,8.59,12.85Zm0-5.92c2.52,0,3.89.37,4.08.92-.19.37-1.91.56-4.08.56S4.7,8.22,4.52,7.85C4.7,7.3,6.55,6.93,8.59,6.93Z" fill="#2c5967"/><path d="M35.81,25.44a2.22,2.22,0,1,0-2.22,2.23A2.22,2.22,0,0,0,35.81,25.44Zm-3,0a.74.74,0,1,1,.74.75A.74.74,0,0,1,32.85,25.44Z" fill="#2c5967"/><circle cx="21" cy="25.44" r="1.48" fill="#2c5967"/><circle cx="8.59" cy="25.44" r="1.48" fill="#2c5967"/></svg>