<svg id="Layer_1" data-name="Layer 1" xmlns="http://www.w3.org/2000/svg" viewBox="0 0 44.39 42"><title>Other - EBS-Cloud-Backup</title><metadata><?xpacket begin="﻿" id="W5M0MpCehiHzreSzNTczkc9d"?>
<x:xmpmeta xmlns:x="adobe:ns:meta/" x:xmptk="Adobe XMP Core 6.0-c006 79.164648, 2021/01/12-15:52:29        ">
   <rdf:RDF xmlns:rdf="http://www.w3.org/1999/02/22-rdf-syntax-ns#">
      <rdf:Description rdf:about=""
            xmlns:dc="http://purl.org/dc/elements/1.1/"
            xmlns:lr="http://ns.adobe.com/lightroom/1.0/"
            xmlns:xmp="http://ns.adobe.com/xap/1.0/"
            xmlns:xmpMM="http://ns.adobe.com/xap/1.0/mm/"
            xmlns:stEvt="http://ns.adobe.com/xap/1.0/sType/ResourceEvent#"
            xmlns:xmpRights="http://ns.adobe.com/xap/1.0/rights/">
         <dc:title>
            <rdf:Alt>
               <rdf:li xml:lang="x-default">Other - EBS-Cloud-Backup</rdf:li>
            </rdf:Alt>
         </dc:title>
         <dc:subject>
            <rdf:Bag>
               <rdf:li>icon</rdf:li>
               <rdf:li>enterprise</rdf:li>
               <rdf:li>cloud</rdf:li>
            </rdf:Bag>
         </dc:subject>
         <dc:rights>
            <rdf:Alt>
               <rdf:li xml:lang="x-default">Oracle All Rights Reserved</rdf:li>
            </rdf:Alt>
         </dc:rights>
         <lr:hierarchicalSubject>
            <rdf:Bag>
               <rdf:li>icon</rdf:li>
               <rdf:li>enterprise</rdf:li>
               <rdf:li>cloud</rdf:li>
            </rdf:Bag>
         </lr:hierarchicalSubject>
         <xmp:MetadataDate>2021-11-23T13:28:03-06:00</xmp:MetadataDate>
         <xmpMM:InstanceID>xmp.iid:f842d4ff-4e21-46ab-88df-d5f9de9237ff</xmpMM:InstanceID>
         <xmpMM:DocumentID>xmp.did:a008ea45-c683-eb49-9b38-0164fa3d8e44</xmpMM:DocumentID>
         <xmpMM:OriginalDocumentID>xmp.did:a008ea45-c683-eb49-9b38-0164fa3d8e44</xmpMM:OriginalDocumentID>
         <xmpMM:History>
            <rdf:Seq>
               <rdf:li>
                  <rdf:Description>
                     <stEvt:action>saved</stEvt:action>
                     <stEvt:instanceID>xmp.iid:a008ea45-c683-eb49-9b38-0164fa3d8e44</stEvt:instanceID>
                     <stEvt:when>2021-11-22T15:44:48-06:00</stEvt:when>
                     <stEvt:softwareAgent>Adobe Bridge 2020 (Windows)</stEvt:softwareAgent>
                     <stEvt:changed>/metadata</stEvt:changed>
                  </rdf:Description>
               </rdf:li>
               <rdf:li>
                  <rdf:Description>
                     <stEvt:action>saved</stEvt:action>
                     <stEvt:instanceID>xmp.iid:f842d4ff-4e21-46ab-88df-d5f9de9237ff</stEvt:instanceID>
                     <stEvt:when>2021-11-23T13:28:03-06:00</stEvt:when>
                     <stEvt:softwareAgent>Adobe Bridge 2021 (Macintosh)</stEvt:softwareAgent>
                     <stEvt:changed>/metadata</stEvt:changed>
                  </rdf:Description>
               </rdf:li>
            </rdf:Seq>
         </xmpMM:History>
         <xmpRights:Marked>True</xmpRights:Marked>
      </rdf:Description>
   </rdf:RDF>
</x:xmpmeta>
                                                                                                    
                                                                                                    
                                                                                                    
                                                                                                    
                                                                                                    
                                                                                                    
                                                                                                    
                                                                                                    
                                                                                                    
                                                                                                    
                                                                                 
<?xpacket end="w"?></metadata>
<path d="M9.5,41.5V39.78l1.82-.91V22.64H.54l.11-1.52a10.44,10.44,0,0,1,5.59-8.51,2.57,2.57,0,0,0,1.35-1.78A8,8,0,0,1,12.22,5a8.12,8.12,0,0,1,3.22-.68c.25,0,.5,0,.75,0h.25a2.41,2.41,0,0,0,1.8-.77,9.82,9.82,0,0,1,16,2.29A2.64,2.64,0,0,0,36,7.33,10.05,10.05,0,0,1,42.69,21.9l-.4.74H33.22v4.27a7.43,7.43,0,0,1-2,14.59Z" fill="#fff"/><path d="M25.44,1a9.28,9.28,0,0,1,8.34,5.16,3.15,3.15,0,0,0,2.13,1.66,9.27,9.27,0,0,1,3,1.24,9.56,9.56,0,0,1,3.32,12.6l-.26.48H32.72V27.3A6.93,6.93,0,0,1,31.25,41H10v-.91l1.81-.91v-17H1.08l.07-1a10,10,0,0,1,5.32-8.11,3.09,3.09,0,0,0,1.61-2.13,7.52,7.52,0,0,1,7.36-6.06,5.37,5.37,0,0,1,.7,0h.3A2.93,2.93,0,0,0,18.61,4a9.37,9.37,0,0,1,6.83-3m0-1a10.36,10.36,0,0,0-7.57,3.3,1.92,1.92,0,0,1-1.43.61h-.21c-.26,0-.52,0-.79,0A8.5,8.5,0,0,0,7.1,10.73,2.09,2.09,0,0,1,6,12.17,10.92,10.92,0,0,0,.15,21.09l-.07,1L0,23.14H10.81V38.56l-1.26.64L9,39.47V42H31.25a7.92,7.92,0,0,0,2.47-15.46v-3.4h8.87l.28-.53.26-.48a10.53,10.53,0,0,0-7-15.29,2.13,2.13,0,0,1-1.46-1.13A10.27,10.27,0,0,0,25.44,0Z" fill="#fff"/><path d="M38.93,9.06a9.27,9.27,0,0,0-3-1.24,3.15,3.15,0,0,1-2.13-1.66A9.32,9.32,0,0,0,18.61,4a3,3,0,0,1-2.47.92,7.5,7.5,0,0,0-8.06,6,3.09,3.09,0,0,1-1.61,2.13,10,10,0,0,0-5.32,8.11l-.07,1h9.37V20.32H3.09a8.17,8.17,0,0,1,4.23-5.66,4.86,4.86,0,0,0,2.54-3.39,5.71,5.71,0,0,1,3.29-4.11A5.59,5.59,0,0,1,16,6.71a4.76,4.76,0,0,0,4-1.49A7.5,7.5,0,0,1,32.15,7a4.93,4.93,0,0,0,3.37,2.62,7.56,7.56,0,0,1,2.44,1,7.75,7.75,0,0,1,2.93,9.72h-6.8v1.82H42l.26-.48A9.56,9.56,0,0,0,38.93,9.06Z" fill="#2c5967"/><rect x="15" y="18.05" width="1.82" height="1.82" fill="#2c5967"/><rect x="18.18" y="18.05" width="1.82" height="1.82" fill="#2c5967"/><rect x="21.36" y="18.05" width="1.82" height="1.82" fill="#2c5967"/><rect x="15" y="21.23" width="1.82" height="1.82" fill="#2c5967"/><rect x="18.18" y="21.23" width="1.82" height="1.82" fill="#2c5967"/><rect x="15" y="24.41" width="1.82" height="1.82" fill="#2c5967"/><rect x="18.18" y="24.41" width="1.82" height="1.82" fill="#2c5967"/><rect x="15" y="27.59" width="1.82" height="1.82" fill="#2c5967"/><rect x="18.18" y="27.59" width="1.82" height="1.82" fill="#2c5967"/><rect x="15" y="30.77" width="1.82" height="1.82" fill="#2c5967"/><rect x="18.18" y="30.77" width="1.82" height="1.82" fill="#2c5967"/><rect x="15" y="33.95" width="1.82" height="1.82" fill="#2c5967"/><rect x="18.18" y="33.95" width="1.82" height="1.82" fill="#2c5967"/><rect x="21.36" y="21.23" width="1.82" height="1.82" fill="#2c5967"/><rect x="21.36" y="24.41" width="1.82" height="1.82" fill="#2c5967"/><rect x="21.36" y="27.59" width="1.82" height="1.82" fill="#2c5967"/><path d="M21.36,32.59h1.72c0-.15.06-.31.1-.46V30.77H21.36Z" fill="#2c5967"/><path d="M21.36,35.77h1.77a8,8,0,0,1-.18-1.7V34H21.36Z" fill="#2c5967"/><rect x="24.54" y="18.05" width="1.82" height="1.82" fill="#2c5967"/><rect x="24.54" y="21.23" width="1.82" height="1.82" fill="#2c5967"/><rect x="24.54" y="24.41" width="1.82" height="1.82" fill="#2c5967"/><path d="M24.54,27.59v1.59h0v3.41h4.77V30.77h-2c.09-.11.19-.21.29-.32a5.12,5.12,0,0,1,8.73,3.62,5.12,5.12,0,0,1-10.23,0s0-.08,0-.12H24.32a6.93,6.93,0,1,0,2-4.8V27.59H24.54Z" fill="#2c5967"/><rect x="27.72" y="18.05" width="1.82" height="1.82" fill="#2c5967"/><rect x="27.72" y="21.23" width="1.82" height="1.82" fill="#2c5967"/><path d="M27.72,24.41v1.82h.81a7.21,7.21,0,0,1,1-.28V24.41Z" fill="#2c5967"/><path d="M24.72,39.18H13.63V16.45h5.75l2.89-2.07,2.89,2.07h5.75v9.33h.34a8,8,0,0,1,1.47.14V14.64h-7l-3.47-2.5-3.48,2.5h-7V39.18L10,40.09V41H26.69a7.86,7.86,0,0,1-1.31-1.07A6.68,6.68,0,0,1,24.72,39.18Z" fill="#2c5967"/></svg>