<svg id="Layer_1" data-name="Layer 1" xmlns="http://www.w3.org/2000/svg" viewBox="0 0 42.91 42"><title>Technology - RMIL_SQL-Developer-Data-Modeler</title><metadata><?xpacket begin="﻿" id="W5M0MpCehiHzreSzNTczkc9d"?>
<x:xmpmeta xmlns:x="adobe:ns:meta/" x:xmptk="Adobe XMP Core 6.0-c002 79.164352, 2020/01/30-15:50:38        ">
   <rdf:RDF xmlns:rdf="http://www.w3.org/1999/02/22-rdf-syntax-ns#">
      <rdf:Description rdf:about=""
            xmlns:dc="http://purl.org/dc/elements/1.1/"
            xmlns:xmpRights="http://ns.adobe.com/xap/1.0/rights/"
            xmlns:xmp="http://ns.adobe.com/xap/1.0/"
            xmlns:xmpMM="http://ns.adobe.com/xap/1.0/mm/"
            xmlns:stEvt="http://ns.adobe.com/xap/1.0/sType/ResourceEvent#">
         <dc:title>
            <rdf:Alt>
               <rdf:li xml:lang="x-default">Technology - RMIL_SQL-Developer-Data-Modeler</rdf:li>
            </rdf:Alt>
         </dc:title>
         <dc:subject>
            <rdf:Bag>
               <rdf:li>icon</rdf:li>
               <rdf:li>database</rdf:li>
               <rdf:li>model</rdf:li>
               <rdf:li>storage</rdf:li>
               <rdf:li>data</rdf:li>
            </rdf:Bag>
         </dc:subject>
         <dc:rights>
            <rdf:Alt>
               <rdf:li xml:lang="x-default">Oracle All Rights Reserved</rdf:li>
            </rdf:Alt>
         </dc:rights>
         <xmpRights:Marked>True</xmpRights:Marked>
         <xmp:MetadataDate>2021-12-20T15:19:36-06:00</xmp:MetadataDate>
         <xmpMM:InstanceID>xmp.iid:49074b56-75db-ac47-bc86-17d363fc8eb2</xmpMM:InstanceID>
         <xmpMM:DocumentID>xmp.did:e1976ab8-d477-7648-9840-bb3344158486</xmpMM:DocumentID>
         <xmpMM:OriginalDocumentID>xmp.did:e1976ab8-d477-7648-9840-bb3344158486</xmpMM:OriginalDocumentID>
         <xmpMM:History>
            <rdf:Seq>
               <rdf:li>
                  <rdf:Description>
                     <stEvt:action>saved</stEvt:action>
                     <stEvt:instanceID>xmp.iid:e1976ab8-d477-7648-9840-bb3344158486</stEvt:instanceID>
                     <stEvt:when>2021-12-20T15:10:14-06:00</stEvt:when>
                     <stEvt:softwareAgent>Adobe Bridge 2020 (Windows)</stEvt:softwareAgent>
                     <stEvt:changed>/metadata</stEvt:changed>
                  </rdf:Description>
               </rdf:li>
               <rdf:li>
                  <rdf:Description>
                     <stEvt:action>saved</stEvt:action>
                     <stEvt:instanceID>xmp.iid:49074b56-75db-ac47-bc86-17d363fc8eb2</stEvt:instanceID>
                     <stEvt:when>2021-12-20T15:19:36-06:00</stEvt:when>
                     <stEvt:softwareAgent>Adobe Bridge 2020 (Windows)</stEvt:softwareAgent>
                     <stEvt:changed>/metadata</stEvt:changed>
                  </rdf:Description>
               </rdf:li>
            </rdf:Seq>
         </xmpMM:History>
      </rdf:Description>
   </rdf:RDF>
</x:xmpmeta>
                                                                                                    
                                                                                                    
                                                                                                    
                                                                                                    
                                                                                                    
                                                                                                    
                                                                                                    
                                                                                                    
                                                                                                    
                                                                                                    
                                                                               
<?xpacket end="w"?></metadata>
<path d="M16.86,41.5V32.92c-1.25,0-2-.06-2.09-.06C11.44,32.83.5,32.39.5,28.27V5.09C.5.72,12.84.5,15.32.5S30.14.72,30.14,5.09V23h1V19.59H42.41V29H31.18V25.82H28.09V29H24v3.09h4.09V41.5Z" fill="#fff"/><path d="M15.32,1c5.32,0,14.32.86,14.32,4.09V23.5h2V20.09H41.91V28.5H31.68V25.32H27.59V28.5H23.5v4.09h4.09V41H17.36V32.42c-1.53,0-2.56-.06-2.56-.06h0C9.44,32.3,1,31.4,1,28.27V5.09C1,1.86,10,1,15.32,1m0-1C11.72,0,0,.37,0,5.09V28.27c0,4.44,10.23,5,14.72,5.09h0s.65,0,1.62,0V42H28.59V31.59H24.5V29.5h4.09V26.32h2.09V29.5H42.91V19.09H30.68V22.5h0V5.09C30.64.37,18.91,0,15.32,0Z" fill="#fff"/><path d="M15.32,15.09c7.64,0,12.19-1.5,12.5-2.3V7.26c-2.9,1.47-8.66,1.92-12.5,1.92s-9.6-.45-12.5-1.92v5.56C3.11,13.59,7.67,15.09,15.32,15.09Z" fill="none"/><path d="M15.32,7.36c7.54,0,12.08-1.46,12.49-2.27-.41-.81-4.95-2.27-12.49-2.27S3.13,4.31,2.82,5.12h0C3.13,5.87,7.68,7.36,15.32,7.36Z" fill="none"/><rect x="19.18" y="34.41" width="6.59" height="4.77" fill="none"/><rect x="19.18" y="21.91" width="6.59" height="4.77" fill="none"/><rect x="33.5" y="21.91" width="6.59" height="4.77" fill="none"/><path d="M31.68,20.09V23.5H27.59V20.09H17.36V28.5h4.32v4.09H17.36V41H27.59V32.59H23.5V28.5h4.09V25.32h4.09V28.5H41.91V20.09ZM25.77,34.41v4.77H19.18V34.41Zm0-7.73H19.18V21.91h6.59Zm14.32,0H33.5V21.91h6.59Z" fill="#2c5967"/><path d="M2.82,20.54V15c2.9,1.47,8.65,1.93,12.5,1.93s9.6-.46,12.5-1.93v3.75h1.82V5.09c0-3.23-9-4.09-14.32-4.09S1,1.86,1,5.09V28.27c0,3.23,9,4.09,14.32,4.09H16V30.53l-.68,0c-7.65,0-12.21-1.51-12.5-2.28V22.71c2.9,1.47,8.65,1.93,12.5,1.93l.68,0V22.8l-.68,0C7.67,22.82,3.11,21.32,2.82,20.54Zm0-15.42c.31-.81,4.86-2.3,12.5-2.3S27.4,4.28,27.81,5.09c-.41.81-4.95,2.27-12.49,2.27S3.13,5.87,2.82,5.13Zm0,2.14c2.9,1.47,8.65,1.92,12.5,1.92s9.6-.45,12.5-1.92v5.53c-.31.8-4.86,2.3-12.5,2.3s-12.21-1.5-12.5-2.27Z" fill="#2c5967"/></svg>