<svg id="Layer_1" data-name="Layer 1" xmlns="http://www.w3.org/2000/svg" viewBox="0 0 53.65 42"><defs><style>.cls-1{fill:#fff;}.cls-2{fill:#2c5967;}</style></defs><title>RAC Database</title><metadata><?xpacket begin="﻿" id="W5M0MpCehiHzreSzNTczkc9d"?>
<x:xmpmeta xmlns:x="adobe:ns:meta/" x:xmptk="Adobe XMP Core 6.0-c006 79.164648, 2021/01/12-15:52:29        ">
   <rdf:RDF xmlns:rdf="http://www.w3.org/1999/02/22-rdf-syntax-ns#">
      <rdf:Description rdf:about=""
            xmlns:xmpRights="http://ns.adobe.com/xap/1.0/rights/"
            xmlns:xmp="http://ns.adobe.com/xap/1.0/"
            xmlns:xmpMM="http://ns.adobe.com/xap/1.0/mm/"
            xmlns:stEvt="http://ns.adobe.com/xap/1.0/sType/ResourceEvent#"
            xmlns:dc="http://purl.org/dc/elements/1.1/"
            xmlns:lr="http://ns.adobe.com/lightroom/1.0/">
         <xmpRights:Marked>True</xmpRights:Marked>
         <xmp:MetadataDate>2021-07-22T15:05:05-05:00</xmp:MetadataDate>
         <xmpMM:InstanceID>xmp.iid:718f46f4-b72c-48e8-aa6e-12f1760f2c75</xmpMM:InstanceID>
         <xmpMM:DocumentID>xmp.did:b7a3ecba-c972-4095-81a3-5367a197ea2f</xmpMM:DocumentID>
         <xmpMM:OriginalDocumentID>xmp.did:b7a3ecba-c972-4095-81a3-5367a197ea2f</xmpMM:OriginalDocumentID>
         <xmpMM:History>
            <rdf:Seq>
               <rdf:li>
                  <rdf:Description>
                     <stEvt:action>saved</stEvt:action>
                     <stEvt:instanceID>xmp.iid:b7a3ecba-c972-4095-81a3-5367a197ea2f</stEvt:instanceID>
                     <stEvt:when>2021-06-23T15:54:03-05:00</stEvt:when>
                     <stEvt:softwareAgent>Adobe Bridge 2021 (Macintosh)</stEvt:softwareAgent>
                     <stEvt:changed>/metadata</stEvt:changed>
                  </rdf:Description>
               </rdf:li>
               <rdf:li>
                  <rdf:Description>
                     <stEvt:action>saved</stEvt:action>
                     <stEvt:instanceID>xmp.iid:718f46f4-b72c-48e8-aa6e-12f1760f2c75</stEvt:instanceID>
                     <stEvt:when>2021-07-22T15:05:05-05:00</stEvt:when>
                     <stEvt:softwareAgent>Adobe Bridge 2021 (Macintosh)</stEvt:softwareAgent>
                     <stEvt:changed>/metadata</stEvt:changed>
                  </rdf:Description>
               </rdf:li>
            </rdf:Seq>
         </xmpMM:History>
         <dc:title>
            <rdf:Alt>
               <rdf:li xml:lang="x-default">RAC Database</rdf:li>
            </rdf:Alt>
         </dc:title>
         <dc:rights>
            <rdf:Alt>
               <rdf:li xml:lang="x-default">Oracle All Rights Reserved</rdf:li>
            </rdf:Alt>
         </dc:rights>
         <dc:subject>
            <rdf:Bag>
               <rdf:li>icon</rdf:li>
               <rdf:li>Data</rdf:li>
               <rdf:li>technology</rdf:li>
               <rdf:li>RAC</rdf:li>
            </rdf:Bag>
         </dc:subject>
         <lr:hierarchicalSubject>
            <rdf:Bag>
               <rdf:li>icon</rdf:li>
               <rdf:li>Data</rdf:li>
               <rdf:li>technology</rdf:li>
            </rdf:Bag>
         </lr:hierarchicalSubject>
      </rdf:Description>
   </rdf:RDF>
</x:xmpmeta>
                                                                                                    
                                                                                                    
                                                                                                    
                                                                                                    
                                                                                                    
                                                                                                    
                                                                                                    
                                                                                                    
                              
<?xpacket end="w"?></metadata>
<path class="cls-1" d="M26.71,41.5c-2.84,0-12.1-.29-12.1-4V27.34l-.92,0H12.62c-.26,0-.66,0-1.19,0A41.15,41.15,0,0,1,6.8,27l-.53-.08-1-.19-.51-.12C1.92,25.93.5,24.85.5,23.39V4.59c0-1,.69-1.89,2.05-2.54C5.64.57,11.46.5,12.6.5s7,.07,10,1.55c1.36.65,2.05,1.5,2.05,2.54V14.66c1-.05,1.78-.05,2-.05s1.11,0,2.25.06V4.59c0-1,.69-1.89,2.05-2.54C34.1.57,39.92.5,41.05.5S48,.57,51.1,2.05c1.36.65,2,1.5,2,2.54v18.8c0,1.46-1.42,2.54-4.22,3.21l-.51.12-1,.19-.53.08a41.18,41.18,0,0,1-4.62.38c-.57,0-1,0-1.18,0H39.73l-.93,0V37.5C38.8,41.21,29.54,41.5,26.71,41.5Z"/><path class="cls-1" d="M41.05,1c.88,0,6.81.06,9.83,1.5,1.06.5,1.77,1.18,1.77,2.09v18.8c0,1.38-1.72,2.22-3.84,2.73l-.49.11-1,.19-.52.08a40.81,40.81,0,0,1-4.57.37c-.56,0-1,0-1.16,0H39.74L38.3,26.8V37.5c0,3.4-10.41,3.5-11.59,3.5s-11.6-.1-11.6-3.5V26.81l-1.44.06H12.6c-.19,0-.6,0-1.16,0a40.81,40.81,0,0,1-4.57-.37l-.52-.08-1-.19-.49-.11C2.72,25.61,1,24.77,1,23.39V4.59C1,3.68,1.71,3,2.77,2.5c3-1.44,9-1.5,9.83-1.5s6.8.06,9.83,1.5c1.06.5,1.76,1.18,1.76,2.09v10.6c1.24-.07,2.2-.08,2.52-.08s1.39,0,2.75.09V4.59c0-.91.7-1.59,1.76-2.09,3-1.44,9-1.5,9.83-1.5m0-1C39.9,0,34,.08,30.79,1.6c-1.93.92-2.33,2.13-2.33,3v9.56c-.88,0-1.53,0-1.75,0s-.75,0-1.52,0V4.59c0-.86-.4-2.07-2.33-3C19.67.08,13.75,0,12.6,0S5.52.08,2.34,1.6C.41,2.52,0,3.73,0,4.59v18.8c0,1.72,1.55,3,4.61,3.7l.52.12c.35.07.7.14,1.06.19l.54.09a42.66,42.66,0,0,0,4.68.38c.58,0,1,0,1.19,0h1.51V37.5c0,4.06,8.81,4.5,12.6,4.5s12.59-.44,12.59-4.5V27.85l.4,0h1.35c.19,0,.61,0,1.19,0a42.66,42.66,0,0,0,4.68-.38l.54-.09c.36,0,.71-.12,1.06-.19l.52-.12c3.06-.73,4.61-2,4.61-3.7V4.59c0-.86-.41-2.07-2.34-3C48.13.08,42.21,0,41.05,0Z"/><path class="cls-2" d="M13.67,25H12.6C7,25,3.41,23.92,2.91,23.3V19.18c3.07,1.34,8.82,1.4,9.69,1.4l1.07,0V18.65H12.6C7,18.66,3.41,17.61,2.91,17V12.91c3.07,1.34,8.82,1.4,9.69,1.4s6.62-.06,9.68-1.4v1c.68-.07,1.33-.12,1.91-.16V4.59C24.19,1.1,13.78,1,12.6,1S1,1.1,1,4.59v18.8c0,3.4,10.41,3.5,11.6,3.5.17,0,.55,0,1.07,0ZM2.91,10.71v-4C6,8.12,11.73,8.17,12.6,8.17s6.62-.05,9.68-1.43v4c-.5.63-4,1.68-9.68,1.68S3.41,11.34,2.91,10.71ZM22.22,4.59c-.65.65-4.13,1.67-9.62,1.67s-9-1-9.63-1.67c.66-.65,4.13-1.68,9.63-1.68S21.57,3.94,22.22,4.59Z"/><path class="cls-2" d="M41.05,1c-1.18,0-11.59.1-11.59,3.59v9.18c.59,0,1.24.09,1.91.16v-1c3.06,1.34,8.82,1.4,9.68,1.4s6.62-.06,9.69-1.4V17c-.51.62-4.05,1.67-9.69,1.67-.45,0-.89,0-1.31,0v1.91l1.31,0c.87,0,6.62-.06,9.69-1.4V23.3c-.5.62-4.05,1.68-9.69,1.68l-1.31,0v1.91c.64,0,1.11,0,1.31,0,1.19,0,11.6-.1,11.6-3.5V4.59C52.65,1.1,42.24,1,41.05,1Zm9.63,3.59c-.66.65-4.14,1.67-9.63,1.67s-9-1-9.62-1.67c.65-.65,4.13-1.68,9.62-1.68S50,3.94,50.68,4.59ZM31.37,10.71v-4c3.06,1.38,8.82,1.43,9.68,1.43s6.62-.05,9.69-1.43v4c-.51.63-4.05,1.68-9.69,1.68S31.87,11.34,31.37,10.71Z"/><path class="cls-2" d="M38.3,24.91V18.69c0-3.48-10.41-3.58-11.59-3.58s-11.6.1-11.6,3.58V37.5c0,3.4,10.41,3.5,11.6,3.5s11.59-.1,11.59-3.5V24.91ZM26.71,39.09c-5.65,0-9.19-1.06-9.69-1.68V33.29c3.07,1.34,8.82,1.4,9.69,1.4s6.61-.06,9.68-1.4v4.12C35.89,38,32.35,39.09,26.71,39.09ZM17,20.85c3.07,1.38,8.82,1.43,9.69,1.43s6.61-.05,9.68-1.43v4c-.5.63-4,1.68-9.68,1.68S17.52,25.45,17,24.82ZM26.71,17c5.49,0,9,1,9.62,1.67-.66.65-4.13,1.68-9.62,1.68s-9-1-9.63-1.68C17.74,18,21.21,17,26.71,17Zm0,11.39c.86,0,6.61-.05,9.68-1.39v4.07c-.5.63-4,1.68-9.68,1.68S17.52,31.72,17,31.09V27C20.09,28.36,25.84,28.41,26.71,28.41Z"/></svg>