<svg id="Layer_1" data-name="Layer 1" xmlns="http://www.w3.org/2000/svg" viewBox="0 0 38.91 42"><defs><style>.cls-1{fill:#fff;}.cls-2{fill:#2c5967;}</style></defs><title>Oracle Key Vault (OKV) Administer</title><metadata><?xpacket begin="﻿" id="W5M0MpCehiHzreSzNTczkc9d"?>
<x:xmpmeta xmlns:x="adobe:ns:meta/" x:xmptk="Adobe XMP Core 6.0-c006 79.164648, 2021/01/12-15:52:29        ">
   <rdf:RDF xmlns:rdf="http://www.w3.org/1999/02/22-rdf-syntax-ns#">
      <rdf:Description rdf:about=""
            xmlns:xmpRights="http://ns.adobe.com/xap/1.0/rights/"
            xmlns:xmp="http://ns.adobe.com/xap/1.0/"
            xmlns:xmpMM="http://ns.adobe.com/xap/1.0/mm/"
            xmlns:stEvt="http://ns.adobe.com/xap/1.0/sType/ResourceEvent#"
            xmlns:dc="http://purl.org/dc/elements/1.1/"
            xmlns:lr="http://ns.adobe.com/lightroom/1.0/">
         <xmpRights:Marked>True</xmpRights:Marked>
         <xmp:MetadataDate>2021-07-22T15:10:37-05:00</xmp:MetadataDate>
         <xmpMM:InstanceID>xmp.iid:f281a047-f3c1-4c66-8c1c-33bc9a71b2d3</xmpMM:InstanceID>
         <xmpMM:DocumentID>xmp.did:7ba04672-fac8-42d5-9ce4-fda7b6a6d113</xmpMM:DocumentID>
         <xmpMM:OriginalDocumentID>xmp.did:7ba04672-fac8-42d5-9ce4-fda7b6a6d113</xmpMM:OriginalDocumentID>
         <xmpMM:History>
            <rdf:Seq>
               <rdf:li>
                  <rdf:Description>
                     <stEvt:action>saved</stEvt:action>
                     <stEvt:instanceID>xmp.iid:7ba04672-fac8-42d5-9ce4-fda7b6a6d113</stEvt:instanceID>
                     <stEvt:when>2021-06-23T15:54:02-05:00</stEvt:when>
                     <stEvt:softwareAgent>Adobe Bridge 2021 (Macintosh)</stEvt:softwareAgent>
                     <stEvt:changed>/metadata</stEvt:changed>
                  </rdf:Description>
               </rdf:li>
               <rdf:li>
                  <rdf:Description>
                     <stEvt:action>saved</stEvt:action>
                     <stEvt:instanceID>xmp.iid:f281a047-f3c1-4c66-8c1c-33bc9a71b2d3</stEvt:instanceID>
                     <stEvt:when>2021-07-22T15:10:37-05:00</stEvt:when>
                     <stEvt:softwareAgent>Adobe Bridge 2021 (Macintosh)</stEvt:softwareAgent>
                     <stEvt:changed>/metadata</stEvt:changed>
                  </rdf:Description>
               </rdf:li>
            </rdf:Seq>
         </xmpMM:History>
         <dc:title>
            <rdf:Alt>
               <rdf:li xml:lang="x-default">Oracle Key Vault (OKV) Administer</rdf:li>
            </rdf:Alt>
         </dc:title>
         <dc:rights>
            <rdf:Alt>
               <rdf:li xml:lang="x-default">Oracle All Rights Reserved</rdf:li>
            </rdf:Alt>
         </dc:rights>
         <dc:subject>
            <rdf:Bag>
               <rdf:li>icon</rdf:li>
               <rdf:li>administration</rdf:li>
               <rdf:li>Security</rdf:li>
               <rdf:li>Protection</rdf:li>
               <rdf:li>technology</rdf:li>
               <rdf:li>OKV</rdf:li>
            </rdf:Bag>
         </dc:subject>
         <lr:hierarchicalSubject>
            <rdf:Bag>
               <rdf:li>icon</rdf:li>
               <rdf:li>administration</rdf:li>
               <rdf:li>Security</rdf:li>
               <rdf:li>Protection</rdf:li>
               <rdf:li>technology</rdf:li>
            </rdf:Bag>
         </lr:hierarchicalSubject>
      </rdf:Description>
   </rdf:RDF>
</x:xmpmeta>
                                                                                                    
                                                                                                    
                                                                                                    
                                                                                                    
                                                                                                    
                                                                                                    
                                            
<?xpacket end="w"?></metadata>
<path class="cls-1" d="M.5,41.5V40l1.8-.9h.15v-5H1V24.18H2.45V20.92H1V11.05H2.45v-5H23.39V4.61A4.1,4.1,0,0,1,26.31.66,4,4,0,0,1,27.44.5a4,4,0,0,1,2.42.81,4.09,4.09,0,0,1,1.63,3.24V6.08h6.92v9.51h-3V39.08h.15l1.8.9V41.5Z"/><path class="cls-1" d="M27.44,1a3.53,3.53,0,0,1,2.12.71A3.61,3.61,0,0,1,31,4.55v2h6.92V15.1h-3V39.58h.53l1.42.71V41H1v-.71l1.42-.71H3v-6H1.53V24.68H3V20.42H1.53V11.55H3v-5H23.89v-2a3.59,3.59,0,0,1,2.56-3.47,3.76,3.76,0,0,1,1-.14m0-1h0a4.55,4.55,0,0,0-4.55,4.61v1H2v5H.53V21.42H2v2.26H.53V34.55H2V38.7l-1.4.7L0,39.67V42H37.84V39.67l-.55-.27-1.4-.7V16.1h3V5.58H32v-1A4.59,4.59,0,0,0,30.16.92,4.51,4.51,0,0,0,27.44,0Z"/><polygon class="cls-2" points="2.42 39.58 1 40.29 1 41 36.84 41 36.84 40.29 35.42 39.58 2.42 39.58"/><polygon class="cls-2" points="4.37 10.48 4.37 9.77 4.37 8 6.15 8 26.78 8 26.78 6.58 2.95 6.58 2.95 10.48 4.37 10.48"/><polygon class="cls-2" points="33.47 16.16 33.47 35.32 33.47 37.1 31.7 37.1 6.15 37.1 4.37 37.1 4.37 35.32 4.37 34.61 2.95 34.61 2.95 38.52 34.89 38.52 34.89 16.16 33.47 16.16"/><rect class="cls-2" x="2.95" y="21.48" width="1.42" height="2.13"/><polygon class="cls-2" points="5.44 11.55 1.53 11.55 1.53 20.42 5.44 20.42 5.44 24.68 1.53 24.68 1.53 33.55 5.44 33.55 5.44 36.03 32.41 36.03 32.41 16.16 30.99 16.16 30.99 34.61 6.86 34.61 6.86 32.13 2.95 32.13 2.95 31.06 4.37 31.06 4.37 29.64 2.95 29.64 2.95 28.58 4.37 28.58 4.37 27.16 2.95 27.16 2.95 26.1 6.86 26.1 6.86 19 2.95 19 2.95 17.93 4.37 17.93 4.37 16.52 2.95 16.52 2.95 15.45 4.37 15.45 4.37 14.03 2.95 14.03 2.95 12.97 6.86 12.97 6.86 10.48 26.78 10.48 26.78 9.06 5.44 9.06 5.44 11.55"/><path class="cls-2" d="M31,6.58v-2a3.61,3.61,0,0,0-1.43-2.84,3.53,3.53,0,0,0-3.11-.57,3.59,3.59,0,0,0-2.56,3.47v.9h1.42v-.9A2.18,2.18,0,0,1,26.84,2.5a2.1,2.1,0,0,1,1.86.35,2.16,2.16,0,0,1,.87,1.7v2H28V15.1h9.94V6.58Zm5.5,7.1h-7.1V8h7.1Z"/><path class="cls-2" d="M32.94,9.06h-.13a1.07,1.07,0,0,0-.37,2l-.21,1.36h1.42l-.2-1.37a1.06,1.06,0,0,0-.51-2Z"/><path class="cls-2" d="M18.21,22.14v5H16.79v1.42h1.42v2.13H15.9v1.42h3.73v-10a4.61,4.61,0,1,0-1.42,0Zm.71-7.75a3.19,3.19,0,1,1-3.19,3.19A3.19,3.19,0,0,1,18.92,14.39Z"/></svg>