<svg id="Layer_1" data-name="Layer 1" xmlns="http://www.w3.org/2000/svg" viewBox="0 0 42.08 31.43"><title>Human Capital Management Cloud Service HCM Female</title><metadata><?xpacket begin="﻿" id="W5M0MpCehiHzreSzNTczkc9d"?>
<x:xmpmeta xmlns:x="adobe:ns:meta/" x:xmptk="Adobe XMP Core 6.0-c006 79.164648, 2021/01/12-15:52:29        ">
   <rdf:RDF xmlns:rdf="http://www.w3.org/1999/02/22-rdf-syntax-ns#">
      <rdf:Description rdf:about=""
            xmlns:xmpRights="http://ns.adobe.com/xap/1.0/rights/"
            xmlns:xmp="http://ns.adobe.com/xap/1.0/"
            xmlns:xmpMM="http://ns.adobe.com/xap/1.0/mm/"
            xmlns:stEvt="http://ns.adobe.com/xap/1.0/sType/ResourceEvent#"
            xmlns:dc="http://purl.org/dc/elements/1.1/"
            xmlns:lr="http://ns.adobe.com/lightroom/1.0/">
         <xmpRights:Marked>True</xmpRights:Marked>
         <xmp:MetadataDate>2022-01-29T10:33:07-06:00</xmp:MetadataDate>
         <xmpMM:InstanceID>xmp.iid:b1510b44-46d7-4554-af91-bfaccc7e87ba</xmpMM:InstanceID>
         <xmpMM:DocumentID>xmp.did:5db4b6f3-a92b-fa4a-abb2-2b9e7b28876e</xmpMM:DocumentID>
         <xmpMM:OriginalDocumentID>xmp.did:5db4b6f3-a92b-fa4a-abb2-2b9e7b28876e</xmpMM:OriginalDocumentID>
         <xmpMM:History>
            <rdf:Seq>
               <rdf:li>
                  <rdf:Description>
                     <stEvt:action>saved</stEvt:action>
                     <stEvt:instanceID>xmp.iid:5db4b6f3-a92b-fa4a-abb2-2b9e7b28876e</stEvt:instanceID>
                     <stEvt:when>2022-01-28T20:44:43-06:00</stEvt:when>
                     <stEvt:softwareAgent>Adobe Bridge 2020 (Windows)</stEvt:softwareAgent>
                     <stEvt:changed>/metadata</stEvt:changed>
                  </rdf:Description>
               </rdf:li>
               <rdf:li>
                  <rdf:Description>
                     <stEvt:action>saved</stEvt:action>
                     <stEvt:instanceID>xmp.iid:b1510b44-46d7-4554-af91-bfaccc7e87ba</stEvt:instanceID>
                     <stEvt:when>2022-01-29T10:33:07-06:00</stEvt:when>
                     <stEvt:softwareAgent>Adobe Bridge 2021 (Macintosh)</stEvt:softwareAgent>
                     <stEvt:changed>/metadata</stEvt:changed>
                  </rdf:Description>
               </rdf:li>
            </rdf:Seq>
         </xmpMM:History>
         <dc:title>
            <rdf:Alt>
               <rdf:li xml:lang="x-default">Human Capital Management Cloud Service HCM Female</rdf:li>
            </rdf:Alt>
         </dc:title>
         <dc:rights>
            <rdf:Alt>
               <rdf:li xml:lang="x-default">Oracle, All rights reserved</rdf:li>
            </rdf:Alt>
         </dc:rights>
         <dc:subject>
            <rdf:Bag>
               <rdf:li>icon</rdf:li>
               <rdf:li>user</rdf:li>
               <rdf:li>person</rdf:li>
               <rdf:li>persona</rdf:li>
               <rdf:li>team</rdf:li>
               <rdf:li>group</rdf:li>
               <rdf:li>women</rdf:li>
               <rdf:li>man</rdf:li>
               <rdf:li>woman</rdf:li>
            </rdf:Bag>
         </dc:subject>
         <lr:hierarchicalSubject>
            <rdf:Bag>
               <rdf:li>icon</rdf:li>
               <rdf:li>Other Keywords|user</rdf:li>
               <rdf:li>Other Keywords|person</rdf:li>
               <rdf:li>Other Keywords|persona</rdf:li>
               <rdf:li>Other Keywords|team</rdf:li>
               <rdf:li>Other Keywords|women</rdf:li>
               <rdf:li>man</rdf:li>
               <rdf:li>woman</rdf:li>
            </rdf:Bag>
         </lr:hierarchicalSubject>
      </rdf:Description>
   </rdf:RDF>
</x:xmpmeta>
                                                                                                    
                                                                                                    
                                                                                                    
                                                                                                    
                                                                                                    
                                                     
<?xpacket end="w"?></metadata>
<path d="M5.78,30.93V27.24a3.12,3.12,0,0,1,3.11-3.12h5.69a5.3,5.3,0,0,1,1-.62l-.24-.38-.24-.43,0-.25.25-1h-.8a3.68,3.68,0,0,1-6.22,0H.54L.65,20A9.87,9.87,0,0,1,6,12a2.39,2.39,0,0,0,1.26-1.67,7.58,7.58,0,0,1,7.45-6.13,5.48,5.48,0,0,1,.7,0h.24a2.26,2.26,0,0,0,1.68-.72A9.31,9.31,0,0,1,32.44,5.65,2.42,2.42,0,0,0,34.12,7a9.55,9.55,0,0,1,6.32,13.82l-.38.71H34.74a3.68,3.68,0,0,1-6.22,0H26.89l.26,1.15-.09.2-.17.29-.18.31a5.27,5.27,0,0,1,1.13.69H34a3.12,3.12,0,0,1,3.11,3.12v3.69Z" fill="#fff"/><path d="M24.11,1A8.76,8.76,0,0,1,32,5.88a2.94,2.94,0,0,0,2,1.56,9.16,9.16,0,0,1,2.86,1.18A9,9,0,0,1,40,20.53l-.24.45h-5.3a3.2,3.2,0,0,1-5.66,0H26.26l.36,1.57v0l-.17.3a6.36,6.36,0,0,1-.55.81,4.2,4.2,0,0,1,1.74.93H34a2.62,2.62,0,0,1,2.61,2.62v3.19H6.27V27.24a2.63,2.63,0,0,1,2.62-2.62h5.88a4.22,4.22,0,0,1,1.57-.89,6.07,6.07,0,0,1-.59-.85l-.15-.26,0-.05L16,21H14.26A3.2,3.2,0,0,1,8.6,21H1.08l.07-.92a9.4,9.4,0,0,1,5-7.67,2.91,2.91,0,0,0,1.52-2,7.09,7.09,0,0,1,4.1-5.13,7.22,7.22,0,0,1,2.86-.6l.66,0,.29,0a2.78,2.78,0,0,0,2-.88A8.85,8.85,0,0,1,24.11,1m0-1a9.82,9.82,0,0,0-7.19,3.14,1.78,1.78,0,0,1-1.31.56h-.2a6.28,6.28,0,0,0-.75,0,8.12,8.12,0,0,0-7.95,6.54,1.91,1.91,0,0,1-1,1.32A10.41,10.41,0,0,0,.15,20l-.07.92L0,22H8.06a4.14,4.14,0,0,0,2.63,1.64H8.89a3.63,3.63,0,0,0-3.62,3.62v4.19h32.3V27.24A3.62,3.62,0,0,0,34,23.62H32.37A4.14,4.14,0,0,0,35,22h5.36l.28-.52.24-.45A10,10,0,0,0,34.23,6.47a2,2,0,0,1-1.34-1A9.77,9.77,0,0,0,24.11,0Zm3.41,22h.73a4.19,4.19,0,0,0,2.64,1.64H28a6.17,6.17,0,0,0-.6-.39l.09-.15.19-.34-.09-.38L27.52,22ZM12.17,23.62a4.19,4.19,0,0,0,2.47-1.43l0,.12-.11.4.21.36,0,.05.12.2a4.27,4.27,0,0,0-.44.3Z" fill="#fff"/><circle cx="31.63" cy="19.47" r="0.21" fill="none"/><path d="M23.46,18.86v-.61h-.19a3.66,3.66,0,0,1-2.06-.64,3.72,3.72,0,0,1-2.26.63v.61a2.26,2.26,0,1,0,4.51,0Z" fill="none"/><circle cx="11.43" cy="19.47" r="0.21" fill="none"/><path d="M21.21,23a3.85,3.85,0,0,1-1-.13V24.6a.79.79,0,0,0,.75.65.78.78,0,0,0,.75-.65V23A4.55,4.55,0,0,1,21.21,23Z" fill="none"/><path d="M20.63,15.9l.58-.53.58.53a2.13,2.13,0,0,0,1.66.63A1.46,1.46,0,0,0,22,15.17H20.37A1.45,1.45,0,0,0,19,16.53,2.14,2.14,0,0,0,20.63,15.9Z" fill="none"/><path d="M8.89,24.62a2.63,2.63,0,0,0-2.62,2.62v3.19H8V27.24a.9.9,0,0,1,.9-.9h3.37a5.39,5.39,0,0,1,.79-1.72Z" fill="#2c5967"/><path d="M34,24.62H29.37a5.61,5.61,0,0,1,.79,1.72H34a.89.89,0,0,1,.89.9v3.19h1.72V27.24A2.62,2.62,0,0,0,34,24.62Z" fill="#2c5967"/><path d="M36.87,8.62A9.16,9.16,0,0,0,34,7.44a2.94,2.94,0,0,1-2-1.56A8.76,8.76,0,0,0,24.11,1a8.85,8.85,0,0,0-6.46,2.82,2.78,2.78,0,0,1-2.33.86,7.21,7.21,0,0,0-3.52.57,7.09,7.09,0,0,0-4.1,5.13,2.91,2.91,0,0,1-1.52,2,9.4,9.4,0,0,0-5,7.67L1.08,21H7.19a4.44,4.44,0,0,1-.27-1.51c0-.07,0-.14,0-.21H3a7.7,7.7,0,0,1,4-5.34,4.6,4.6,0,0,0,2.4-3.21,5.37,5.37,0,0,1,3.11-3.88,5.42,5.42,0,0,1,2.66-.44A4.49,4.49,0,0,0,18.91,5a7.12,7.12,0,0,1,5.2-2.27,7,7,0,0,1,6.34,3.92,4.7,4.7,0,0,0,3.19,2.48,7.19,7.19,0,0,1,2.31,1,7.32,7.32,0,0,1,2.76,9.19H36.13c0,.07,0,.14,0,.21A4.44,4.44,0,0,1,35.87,21h3.89l.24-.45A9,9,0,0,0,36.87,8.62Z" fill="#2c5967"/><path d="M34.85,19.47a3.22,3.22,0,1,0-3.22,3.22A3.23,3.23,0,0,0,34.85,19.47ZM31.63,21a1.51,1.51,0,1,1,1.5-1.5A1.51,1.51,0,0,1,31.63,21Z" fill="#2c5967"/><path d="M8.21,19.47a3.22,3.22,0,1,0,3.22-3.23A3.22,3.22,0,0,0,8.21,19.47ZM11.43,18a1.51,1.51,0,1,1,0,3,1.51,1.51,0,0,1,0-3Z" fill="#2c5967"/><path d="M25.91,23.69a5.47,5.47,0,0,0,.55-.81l.17-.3v0l-1.51-6.5h0A3.2,3.2,0,0,0,22,13.45H20.37a3.13,3.13,0,0,0-3.07,2.62l-1.73,6.5,0,.05.15.26a6.07,6.07,0,0,0,.59.85,4.19,4.19,0,0,0-3,4v2.69h1.71V27.74a2.48,2.48,0,0,1,2.47-2.47h1.08a2.49,2.49,0,0,0,1,1.25A2.43,2.43,0,0,0,21,27a2.54,2.54,0,0,0,1.83-.82,2.33,2.33,0,0,0,.53-.88h1.52a2.47,2.47,0,0,1,2.46,2.47v2.69h1.72V27.74A4.19,4.19,0,0,0,25.91,23.69Zm-7-4.83v-.61a3.72,3.72,0,0,0,2.26-.63,3.66,3.66,0,0,0,2.06.64h.19v.61a2.26,2.26,0,1,1-4.51,0ZM24.8,22.3a2.68,2.68,0,0,1-1.34,1.09V22.3l.05,0a4.16,4.16,0,0,0,1-1.11l.26,1.11Zm-4.43-7.13H22a1.46,1.46,0,0,1,1.42,1.36,2.13,2.13,0,0,1-1.66-.63l-.58-.53-.58.53a2.14,2.14,0,0,1-1.66.63A1.45,1.45,0,0,1,20.37,15.17ZM17.78,21a4.15,4.15,0,0,0,.74,1v1.36a2.64,2.64,0,0,1-1.1-1v0ZM21,25.25a.79.79,0,0,1-.75-.65V22.91a3.85,3.85,0,0,0,1,.13,4.55,4.55,0,0,0,.53,0v1.6A.78.78,0,0,1,21,25.25Z" fill="#2c5967"/></svg>