<?xml version="1.0" encoding="UTF-8"?>
<svg id="Layer_1" data-name="Layer 1" xmlns="http://www.w3.org/2000/svg" viewBox="0 0 35.12 42.41">
  <metadata><?xpacket begin="﻿" id="W5M0MpCehiHzreSzNTczkc9d"?>
<x:xmpmeta xmlns:x="adobe:ns:meta/" x:xmptk="Adobe XMP Core 7.1-c000 79.4d2f597, 2021/09/01-20:51:22        ">
   <rdf:RDF xmlns:rdf="http://www.w3.org/1999/02/22-rdf-syntax-ns#">
      <rdf:Description rdf:about=""
            xmlns:dc="http://purl.org/dc/elements/1.1/"
            xmlns:xmpRights="http://ns.adobe.com/xap/1.0/rights/"
            xmlns:xmp="http://ns.adobe.com/xap/1.0/"
            xmlns:xmpMM="http://ns.adobe.com/xap/1.0/mm/"
            xmlns:stEvt="http://ns.adobe.com/xap/1.0/sType/ResourceEvent#">
         <dc:rights>
            <rdf:Alt>
               <rdf:li xml:lang="x-default">Oracle All Rights</rdf:li>
            </rdf:Alt>
         </dc:rights>
         <dc:subject>
            <rdf:Bag>
               <rdf:li>document</rdf:li>
               <rdf:li>file</rdf:li>
               <rdf:li>glass</rdf:li>
               <rdf:li>search</rdf:li>
               <rdf:li>health</rdf:li>
               <rdf:li>autonomous</rdf:li>
               <rdf:li>icon</rdf:li>
            </rdf:Bag>
         </dc:subject>
         <xmpRights:Marked>True</xmpRights:Marked>
         <xmp:MetadataDate>2024-07-05T18:09:40-06:00</xmp:MetadataDate>
         <xmpMM:InstanceID>xmp.iid:cbf0a669-2f97-439a-972c-066df5436a44</xmpMM:InstanceID>
         <xmpMM:DocumentID>xmp.did:4ab39f53-72c5-45de-997d-bb4b569b17d5</xmpMM:DocumentID>
         <xmpMM:OriginalDocumentID>xmp.did:4ab39f53-72c5-45de-997d-bb4b569b17d5</xmpMM:OriginalDocumentID>
         <xmpMM:History>
            <rdf:Seq>
               <rdf:li>
                  <rdf:Description>
                     <stEvt:action>saved</stEvt:action>
                     <stEvt:instanceID>xmp.iid:4ab39f53-72c5-45de-997d-bb4b569b17d5</stEvt:instanceID>
                     <stEvt:when>2024-07-05T18:05:08-06:00</stEvt:when>
                     <stEvt:softwareAgent>Adobe Bridge 2023</stEvt:softwareAgent>
                     <stEvt:changed>/metadata</stEvt:changed>
                  </rdf:Description>
               </rdf:li>
               <rdf:li>
                  <rdf:Description>
                     <stEvt:action>saved</stEvt:action>
                     <stEvt:instanceID>xmp.iid:cbf0a669-2f97-439a-972c-066df5436a44</stEvt:instanceID>
                     <stEvt:when>2024-07-05T18:09:40-06:00</stEvt:when>
                     <stEvt:softwareAgent>Adobe Bridge 2023</stEvt:softwareAgent>
                     <stEvt:changed>/metadata</stEvt:changed>
                  </rdf:Description>
               </rdf:li>
            </rdf:Seq>
         </xmpMM:History>
      </rdf:Description>
   </rdf:RDF>
</x:xmpmeta>
                                                                                                    
                                                                                                    
                                                                                                    
                                                                                                    
                                                                                                    
                                                                                                    
                                                                                                    
                                                                                                    
                                                                                                    
                                                                                                    
                                                                                                    
                                                                           
<?xpacket end="w"?></metadata>
<defs>
    <style>
      .cls-1 {
        fill: #fff;
      }

      .cls-2 {
        fill: #2d5967;
      }
    </style>
  </defs>
  <path class="cls-1" d="m26.6,15.02v-.27c2.51-.58,4.57-2.4,5.42-4.82l.68.68.71-.71,1-1,.71-.71-.71-.71-2.95-2.95-.05-.05.29-.29-.42-.67c-1.36-2.18-3.8-3.53-6.37-3.53-1.91,0-3.65.73-4.98,1.92H0v33.81h22.13l1.07,1.48c.81,1.09,1.7,2.13,2.67,3.09l1.41,1.41.71.71.71-.71,4.41-4.41.71-.71s-3.08-2.99-5.48-4.98l-2.25-1.62c.67-1.6.84-3.35.53-5.02v-9.95Z"/>
  <g>
    <rect class="cls-2" x="4.51" y="15.75" width="17.57" height="1.41"/>
    <path class="cls-2" d="m11.98,33.32H2.41V4.32h15.68c.23-.49.51-.97.84-1.41H1v31.81h13.43c-.81-.35-1.56-.83-2.23-1.41h-.21Z"/>
    <path class="cls-2" d="m25.6,15.01c-.23.02-.44.04-.67.04s-.49,0-.74-.04v5.22s.05.04.07.07c.53.53.97,1.09,1.34,1.7v-6.99Z"/>
    <path class="cls-2" d="m28.01,32.62l-3.2-2.3c1.62-2.95,1.18-6.75-1.34-9.26-3.04-3.04-8-3.04-11.04,0-1.48,1.48-2.28,3.43-2.28,5.52s.81,4.04,2.28,5.52,3.43,2.28,5.52,2.28,2.6-.33,3.74-.95l2.3,3.2c.81,1.09,1.69,2.09,2.57,2.97l1.41,1.41,4.41-4.41-1.41-1.41c-.88-.88-1.88-1.74-2.99-2.57h.02Zm-10.04.35c-1.7,0-3.32-.67-4.52-1.88-1.21-1.21-1.88-2.81-1.88-4.52s.67-3.32,1.88-4.52c1.25-1.25,2.88-1.86,4.52-1.86s3.27.62,4.52,1.86c2.5,2.5,2.5,6.56,0,9.05-1.21,1.21-2.81,1.88-4.52,1.88v-.02Zm10.02,6.05l-.4-.4c-.84-.84-1.65-1.78-2.43-2.81l-2.27-3.16c.21-.18.4-.35.62-.54.19-.19.37-.4.54-.62l3.15,2.27c1.04.77,1.99,1.6,2.81,2.43l.4.4-2.43,2.43v.02Z"/>
    <path class="cls-2" d="m20.19,22.05h-4.43v2.3h-2.3v4.43h2.3v2.3h4.43v-2.3h2.3v-4.43h-2.3v-2.3Zm.9,3.71v1.62h-2.3v2.3h-1.62v-2.3h-2.3v-1.62h2.3v-2.3h1.62v2.3h2.3Z"/>
    <path class="cls-2" d="m19.05,12.23H4.51v1.41h16.05c-.56-.4-1.07-.86-1.51-1.41Z"/>
    <path class="cls-2" d="m22.28,10.53h1.46l.33-1.42h1.69l.33,1.42h1.49l-1.95-6.77h-1.39l-1.95,6.77h-.02Zm2.62-5.11l.58,2.53h-1.16s.58-2.53.58-2.53Z"/>
    <path class="cls-2" d="m17.17,5.76l-1,1,2.95,2.95,2.95-2.95-1-1-1.23,1.23c.25-2.58,2.43-4.6,5.08-4.6s3.62,1.07,4.5,2.69l1.02-1.02c-1.16-1.86-3.23-3.06-5.52-3.06-3.43,0-6.26,2.67-6.49,6.05l-1.28-1.28h.02Z"/>
    <path class="cls-2" d="m30.74,5.25l-2.95,2.95,1,1,1.23-1.23c-.25,2.58-2.43,4.6-5.08,4.6s-3.62-1.07-4.5-2.69l-1.02,1.02c1.16,1.86,3.23,3.06,5.52,3.06,3.43,0,6.26-2.67,6.49-6.05l1.28,1.28,1-1-2.95-2.95h-.02Z"/>
    <polygon class="cls-2" points="4.51 8.73 4.51 10.14 18.08 10.14 16.68 8.73 4.51 8.73"/>
    <path class="cls-2" d="m4.51,26.29v1.41h4.64c-.05-.37-.07-.74-.07-1.12s0-.19,0-.28h-4.57Z"/>
    <path class="cls-2" d="m9.93,22.78h-5.41v1.41h4.9c.14-.47.3-.95.53-1.41h-.02Z"/>
    <path class="cls-2" d="m11.69,20.28c.39-.39.79-.72,1.23-1.02H4.51v1.41h6.82c.12-.12.23-.26.35-.39Z"/>
  </g>
</svg>