<svg id="Layer_1" data-name="Layer 1" xmlns="http://www.w3.org/2000/svg" viewBox="0 0 42 36.24"><metadata><?xpacket begin="﻿" id="W5M0MpCehiHzreSzNTczkc9d"?>
<x:xmpmeta xmlns:x="adobe:ns:meta/" x:xmptk="Adobe XMP Core 6.0-c006 79.164648, 2021/01/12-15:52:29        ">
   <rdf:RDF xmlns:rdf="http://www.w3.org/1999/02/22-rdf-syntax-ns#">
      <rdf:Description rdf:about=""
            xmlns:dc="http://purl.org/dc/elements/1.1/"
            xmlns:xmp="http://ns.adobe.com/xap/1.0/"
            xmlns:xmpMM="http://ns.adobe.com/xap/1.0/mm/"
            xmlns:stEvt="http://ns.adobe.com/xap/1.0/sType/ResourceEvent#">
         <dc:subject>
            <rdf:Bag>
               <rdf:li>network</rdf:li>
               <rdf:li>servers</rdf:li>
               <rdf:li>remote</rdf:li>
               <rdf:li>cloud</rdf:li>
               <rdf:li>icon</rdf:li>
            </rdf:Bag>
         </dc:subject>
         <xmp:MetadataDate>2023-02-15T13:22:48-06:00</xmp:MetadataDate>
         <xmpMM:InstanceID>xmp.iid:f3efe37c-ebde-455e-a2e4-979638a83ef4</xmpMM:InstanceID>
         <xmpMM:DocumentID>xmp.did:22720d5d-0d7f-40b3-b67a-4ab8385db6ab</xmpMM:DocumentID>
         <xmpMM:OriginalDocumentID>xmp.did:22720d5d-0d7f-40b3-b67a-4ab8385db6ab</xmpMM:OriginalDocumentID>
         <xmpMM:History>
            <rdf:Seq>
               <rdf:li>
                  <rdf:Description>
                     <stEvt:action>saved</stEvt:action>
                     <stEvt:instanceID>xmp.iid:22720d5d-0d7f-40b3-b67a-4ab8385db6ab</stEvt:instanceID>
                     <stEvt:when>2023-02-15T13:19:18-06:00</stEvt:when>
                     <stEvt:softwareAgent>Adobe Bridge 2021 (Macintosh)</stEvt:softwareAgent>
                     <stEvt:changed>/metadata</stEvt:changed>
                  </rdf:Description>
               </rdf:li>
               <rdf:li>
                  <rdf:Description>
                     <stEvt:action>saved</stEvt:action>
                     <stEvt:instanceID>xmp.iid:f3efe37c-ebde-455e-a2e4-979638a83ef4</stEvt:instanceID>
                     <stEvt:when>2023-02-15T13:22:48-06:00</stEvt:when>
                     <stEvt:softwareAgent>Adobe Bridge 2021 (Macintosh)</stEvt:softwareAgent>
                     <stEvt:changed>/metadata</stEvt:changed>
                  </rdf:Description>
               </rdf:li>
            </rdf:Seq>
         </xmpMM:History>
      </rdf:Description>
   </rdf:RDF>
</x:xmpmeta>
                                                                                                    
                                                                                                    
                                                                                                    
                                                                                                    
                                                                                                    
                                                                                                    
                                                                                                    
                                                                                                    
                                                                                                    
                                                                                                    
                                                                                                    
                                                                                                    
                                                                                                    
                                                                                                    
                                                                                       
<?xpacket end="w"?></metadata>
<path d="M38.24,11.39A14.14,14.14,0,0,0,31,1.66,14.38,14.38,0,0,0,24.34,0a13.93,13.93,0,0,0-4.91.9,15.31,15.31,0,0,0-4,2.26H15a9.22,9.22,0,0,0-9.53,7.3A8.48,8.48,0,0,0,.86,14.73a9.11,9.11,0,0,0,1,9.38,8.47,8.47,0,0,0,6.79,3.4H18.93v1.55a3.76,3.76,0,0,0-1.49,1.47H9.72v3.68h7.67a3.82,3.82,0,0,0,6.75,0h7.67V30.53H24.09a3.76,3.76,0,0,0-1.49-1.47V27.51H33a9.21,9.21,0,0,0,7.37-3.67c.23-.32.36-.54.4-.6C43.74,17.92,40.71,13.41,38.24,11.39Z" fill="#fff"/><path d="M21.6,29.71V21.28H19.93v8.43a2.89,2.89,0,0,0-1.85,1.82H10.72v1.68h7.34a2.82,2.82,0,0,0,5.41,0h7.34V31.53H23.45A2.89,2.89,0,0,0,21.6,29.71Zm-.83,3.85a1.15,1.15,0,1,1,1.15-1.15A1.15,1.15,0,0,1,20.77,33.56Z" fill="#2c5967"/><path d="M37.34,12a13.28,13.28,0,0,0-6.79-9.4,13,13,0,0,0-10.77-.72,13.9,13.9,0,0,0-4.05,2.34c-7.35-.39-9,5.18-9.4,7a7.61,7.61,0,0,0-4.57,4,8.11,8.11,0,0,0,.91,8.35,7.49,7.49,0,0,0,6,3h10V24.84H8.71A5.88,5.88,0,0,1,4,22.51a6.46,6.46,0,0,1-.74-6.63,6,6,0,0,1,4-3.23l.56-.16,0-.57c0-.27.66-6.63,8-6l.38,0,.27-.26A11.61,11.61,0,0,1,29.8,4.06l0,0a11.56,11.56,0,0,1,5.93,8.5l.06.35.29.2c.21.15,5.19,3.65,2.33,8.77a2.07,2.07,0,0,1-.23.34A6.52,6.52,0,0,1,33,24.84H22.87v1.67H33a8.18,8.18,0,0,0,6.57-3.27c.21-.28.32-.47.35-.51C42.68,17.77,39.59,13.64,37.34,12Z" fill="#2c5967"/></svg>