<svg width="80" height="80" viewBox="0 0 80 80" fill="none" xmlns="http://www.w3.org/2000/svg">
<metadata><?xpacket begin="﻿" id="W5M0MpCehiHzreSzNTczkc9d"?>
<x:xmpmeta xmlns:x="adobe:ns:meta/" x:xmptk="Adobe XMP Core 6.0-c006 79.164648, 2021/01/12-15:52:29        ">
   <rdf:RDF xmlns:rdf="http://www.w3.org/1999/02/22-rdf-syntax-ns#">
      <rdf:Description rdf:about=""
            xmlns:xmp="http://ns.adobe.com/xap/1.0/"
            xmlns:xmpMM="http://ns.adobe.com/xap/1.0/mm/"
            xmlns:stEvt="http://ns.adobe.com/xap/1.0/sType/ResourceEvent#"
            xmlns:dc="http://purl.org/dc/elements/1.1/"
            xmlns:xmpRights="http://ns.adobe.com/xap/1.0/rights/">
         <xmp:MetadataDate>2021-11-23T13:28:03-06:00</xmp:MetadataDate>
         <xmpMM:InstanceID>xmp.iid:fe339648-a52d-4bda-b107-eac8333c2c30</xmpMM:InstanceID>
         <xmpMM:DocumentID>xmp.did:2898bef6-ffa5-4099-8f31-5eb590ce8947</xmpMM:DocumentID>
         <xmpMM:OriginalDocumentID>xmp.did:2898bef6-ffa5-4099-8f31-5eb590ce8947</xmpMM:OriginalDocumentID>
         <xmpMM:History>
            <rdf:Seq>
               <rdf:li>
                  <rdf:Description>
                     <stEvt:action>saved</stEvt:action>
                     <stEvt:instanceID>xmp.iid:2898bef6-ffa5-4099-8f31-5eb590ce8947</stEvt:instanceID>
                     <stEvt:when>2021-11-22T11:59:51-06:00</stEvt:when>
                     <stEvt:softwareAgent>Adobe Bridge 2021 (Macintosh)</stEvt:softwareAgent>
                     <stEvt:changed>/metadata</stEvt:changed>
                  </rdf:Description>
               </rdf:li>
               <rdf:li>
                  <rdf:Description>
                     <stEvt:action>saved</stEvt:action>
                     <stEvt:instanceID>xmp.iid:fe339648-a52d-4bda-b107-eac8333c2c30</stEvt:instanceID>
                     <stEvt:when>2021-11-23T13:28:03-06:00</stEvt:when>
                     <stEvt:softwareAgent>Adobe Bridge 2021 (Macintosh)</stEvt:softwareAgent>
                     <stEvt:changed>/metadata</stEvt:changed>
                  </rdf:Description>
               </rdf:li>
            </rdf:Seq>
         </xmpMM:History>
         <dc:subject>
            <rdf:Bag>
               <rdf:li>icon</rdf:li>
            </rdf:Bag>
         </dc:subject>
         <dc:rights>
            <rdf:Alt>
               <rdf:li xml:lang="x-default">Oracle All Rights Reserved</rdf:li>
            </rdf:Alt>
         </dc:rights>
         <xmpRights:Marked>True</xmpRights:Marked>
      </rdf:Description>
   </rdf:RDF>
</x:xmpmeta>
                                                                                                    
                                                                                                    
                                                                                                    
                                                                                                    
                                                                                                    
                                                                                                    
                                                                                                    
                                                                                                    
                                                                                                    
                                                                                                    
                                                                                                    
                                                                                                    
                                         
<?xpacket end="w"?></metadata>
<g id="Database-System-DBS">
<g id="Group">
<g id="Group_2">
<g id="Group_3">
<path id="Vector" d="M56.5704 79.0478V70.4764H38.0942V51.2383H28.7608V42.2859H23.618V51.2383H14.6656V56.3811H23.618V78.8573H0.951324V56.5716H9.9037V51.4288H0.951324V28.7621H23.4275V37.7145H28.5704V28.7621H37.9037V23.6192H28.5704V0.95256H51.0466V23.4288H42.4751V28.5716H51.0466V37.524H56.1894V28.5716H78.6656V51.0478H69.7132V56.1907H78.6656V78.6668H56.5704V79.0478ZM56.5704 65.7145V56.3811H65.5228V51.2383H56.5704V42.2859H51.4275V51.2383H42.8561V65.7145H56.5704Z" fill="white"/>
<path id="Vector_2" d="M50.2857 1.90476V22.4762H41.7143V29.5238H50.2857V38.4762H57.3333V29.5238H78.0952V50.0952H69.1429V57.1429H78.0952V78.0952H57.5238V69.5238H39.0476V50.2857H29.7143V41.3333H22.6667V50.2857H13.7143V57.3333H22.6667V78.0952H1.90476V57.5238H10.8571V50.4762H1.90476V29.7143H22.4762V38.6667H29.5238V29.7143H38.8571V22.6667H29.5238V1.90476H50.2857ZM41.7143 66.6667H57.3333V57.3333H66.2857V50.2857H57.3333V41.3333H50.2857V50.2857H41.7143V66.6667ZM52.1905 0H50.2857H29.7143H27.8095V1.90476V22.4762V24.381H29.7143H37.1429V27.619H29.7143H27.8095V29.5238V36.5714H24.5714V29.5238V27.619H22.6667H1.90476H0V29.5238V50.0952V52H1.90476H8.95238V55.2381H1.90476H0V57.1429V78.0952V80H1.90476H22.4762H24.381V78.0952V57.5238V55.619H22.4762H15.619V52.381H22.6667H24.5714V50.4762V43.4286H27.8095V50.4762V52.381H29.7143H37.1429V69.7143V71.619H39.0476H55.619V78.0952V80H57.5238H78.0952H80V78.0952V57.5238V55.619H78.0952H71.0476V52.381H78.0952H80V50.4762V29.7143V27.8095H78.0952H57.5238H55.619V29.7143V36.7619H52.381V29.7143V27.8095H50.4762H43.8095V24.5714H50.4762H52.381V22.6667V1.90476V0H52.1905ZM52.1905 43.4286H55.4286V50.4762V52.381H57.3333H64.381V55.619H57.3333H55.4286V57.5238V64.7619H43.619V52.1905H50.2857H52.1905V50.2857V43.4286Z" fill="white"/>
</g>
<path id="Vector_3" d="M78.0956 50.2861V29.7146H57.5242V38.667H50.4765V29.7146H41.9051V22.667H50.4765V1.90511H29.7146V22.4765H39.048V29.5241H29.7146V38.4765H22.667V29.5241H1.90512V50.0956H10.8575V57.1432H1.90512V78.0956H22.4765V57.5241H13.7146V50.4765H22.667V41.5241H29.7146V50.4765H39.048V69.7146H57.5242V78.0956H78.0956V57.5241H69.1432V50.4765H78.0956V50.2861ZM32.5718 4.76225H47.6194V19.8099H32.5718V4.76225ZM19.8099 75.2384H4.76226V60.1908H19.8099V75.2384ZM19.8099 47.4289H4.76226V32.3813H19.8099V47.4289ZM60.1908 32.5718H75.2385V47.6194H60.1908V32.5718ZM32.5718 32.5718H47.6194V47.6194H32.5718V32.5718ZM75.2385 75.2384H60.1908V60.1908H75.2385V75.2384ZM66.2861 57.5241H57.3337V66.667H41.7146V50.2861H50.2861V41.3337H57.3337V50.2861H66.2861V57.5241Z" fill="#7A7464"/>
</g>
</g>
</g>
</svg>
