<svg id="Layer_1" data-name="Layer 1" xmlns="http://www.w3.org/2000/svg" viewBox="0 0 42.83 35.81"><metadata><?xpacket begin="﻿" id="W5M0MpCehiHzreSzNTczkc9d"?>
<x:xmpmeta xmlns:x="adobe:ns:meta/" x:xmptk="Adobe XMP Core 6.0-c006 79.164648, 2021/01/12-15:52:29        ">
   <rdf:RDF xmlns:rdf="http://www.w3.org/1999/02/22-rdf-syntax-ns#">
      <rdf:Description rdf:about=""
            xmlns:dc="http://purl.org/dc/elements/1.1/"
            xmlns:xmp="http://ns.adobe.com/xap/1.0/"
            xmlns:xmpMM="http://ns.adobe.com/xap/1.0/mm/"
            xmlns:stEvt="http://ns.adobe.com/xap/1.0/sType/ResourceEvent#"
            xmlns:xmpRights="http://ns.adobe.com/xap/1.0/rights/"
            xmlns:lr="http://ns.adobe.com/lightroom/1.0/">
         <dc:subject>
            <rdf:Bag>
               <rdf:li>icon</rdf:li>
               <rdf:li>database</rdf:li>
               <rdf:li>backup</rdf:li>
               <rdf:li>recovery</rdf:li>
               <rdf:li>time</rdf:li>
            </rdf:Bag>
         </dc:subject>
         <dc:rights>
            <rdf:Alt>
               <rdf:li xml:lang="x-default">Oracle All Rights</rdf:li>
            </rdf:Alt>
         </dc:rights>
         <xmp:MetadataDate>2023-08-02T14:41:16-06:00</xmp:MetadataDate>
         <xmpMM:InstanceID>xmp.iid:979af777-51a1-4c5b-a88e-e085235e856c</xmpMM:InstanceID>
         <xmpMM:DocumentID>xmp.did:c62ee03e-a9bc-4e24-a140-3bc4d99c0abe</xmpMM:DocumentID>
         <xmpMM:OriginalDocumentID>xmp.did:c62ee03e-a9bc-4e24-a140-3bc4d99c0abe</xmpMM:OriginalDocumentID>
         <xmpMM:History>
            <rdf:Seq>
               <rdf:li>
                  <rdf:Description>
                     <stEvt:action>saved</stEvt:action>
                     <stEvt:instanceID>xmp.iid:c62ee03e-a9bc-4e24-a140-3bc4d99c0abe</stEvt:instanceID>
                     <stEvt:when>2023-08-02T12:33:10-06:00</stEvt:when>
                     <stEvt:softwareAgent>Adobe Bridge 2021 (Macintosh)</stEvt:softwareAgent>
                     <stEvt:changed>/metadata</stEvt:changed>
                  </rdf:Description>
               </rdf:li>
               <rdf:li>
                  <rdf:Description>
                     <stEvt:action>saved</stEvt:action>
                     <stEvt:instanceID>xmp.iid:979af777-51a1-4c5b-a88e-e085235e856c</stEvt:instanceID>
                     <stEvt:when>2023-08-02T14:41:16-06:00</stEvt:when>
                     <stEvt:softwareAgent>Adobe Bridge 2021 (Macintosh)</stEvt:softwareAgent>
                     <stEvt:changed>/metadata</stEvt:changed>
                  </rdf:Description>
               </rdf:li>
            </rdf:Seq>
         </xmpMM:History>
         <xmpRights:Marked>True</xmpRights:Marked>
         <lr:hierarchicalSubject>
            <rdf:Bag>
               <rdf:li>Other Keywords|icon</rdf:li>
            </rdf:Bag>
         </lr:hierarchicalSubject>
      </rdf:Description>
   </rdf:RDF>
</x:xmpmeta>
                                                                                                    
                                                                                                    
                                                                                                    
                                                                                                    
                                                                                                    
                                                                                                    
                                                                                                    
                                                                                                    
                                                                                                    
            
<?xpacket end="w"?></metadata>
<path d="M21.43,35.31a17.48,17.48,0,0,1-17.35-16L2.53,20.84.71,19l4.58-4.58L10,18.88,8.23,20.75,6.66,19.28a14.83,14.83,0,0,0,28.5,4.23l.19-.46,2.38,1-.19.46A17.33,17.33,0,0,1,21.43,35.31Z" fill="#fff"/><path d="M5.3,15.14l4,3.76L8.21,20.05l-2.11-2A15.33,15.33,0,0,0,35.62,23.7l1.46.59A16.9,16.9,0,0,1,4.53,18.13l-2,2L1.41,19,5.3,15.14m0-1.4-.69.69L.71,18.31,0,19l.71.7,1.11,1.12.71.7.7-.7.47-.47A17.9,17.9,0,0,0,38,24.67l.37-.93-.92-.37L36,22.77l-.92-.37-.38.92a14.33,14.33,0,0,1-27.34-2.7l.16.15.73.69.69-.73L10,19.59l.68-.73L10,18.18,6,14.41l-.7-.67Z" fill="#fff"/><path d="M32.83,16.92l1.77-1.87,1.57,1.48A14.89,14.89,0,0,0,21.4,3.07a14.68,14.68,0,0,0-1.87.12l-.24,0-.17-.16a8.44,8.44,0,0,0-1.66-1.22L16.32,1.2,17.6.91A17.91,17.91,0,0,1,21.4.5a17.48,17.48,0,0,1,17.35,16L40.3,15l1.82,1.82-4.58,4.58Z" fill="#fff"/><path d="M21.4,1A16.92,16.92,0,0,1,38.3,17.68l2-2,1.11,1.11-3.88,3.88-4-3.77,1.08-1.14,2.11,2A15.35,15.35,0,0,0,21.4,2.57a15.67,15.67,0,0,0-1.94.12A9.37,9.37,0,0,0,17.7,1.4,17.47,17.47,0,0,1,21.4,1m0-1a17.61,17.61,0,0,0-3.91.43L14.94,1l2.27,1.28a8.79,8.79,0,0,1,1.57,1.15l.34.32.47-.06a15.7,15.7,0,0,1,1.81-.11A14.39,14.39,0,0,1,35.47,15.19L35.3,15l-.72-.68-.69.72-1.08,1.15-.68.72.72.69,4,3.77.7.66.69-.68,3.88-3.88.71-.71-.71-.71L41,15l-.71-.71-.71.71-.46.46A18,18,0,0,0,21.4,0Z" fill="#fff"/><path d="M21.61,28.72h-.18c-2.33,0-9.94-.24-9.94-3.36V17.83a8.55,8.55,0,1,1,9.9-10.74h.84c6.06.11,9.13,1.19,9.13,3.22V25.5c0,2-3.07,3.11-9.13,3.22h-.62Z" fill="#fff"/><path d="M13.17,1.39A8.07,8.07,0,0,1,21,7.6h1.21c3.11.06,8.64.47,8.64,2.72V25.5c0,2.25-5.53,2.66-8.64,2.72h-.79c-1,0-9.44-.08-9.44-2.86V17.41a8.05,8.05,0,0,1,1.18-16m0-1A9.05,9.05,0,0,0,11,18.23v7.13c0,1.42,1.32,3.8,10.08,3.86h1.17c6.47-.12,9.62-1.33,9.62-3.72V10.31c0-2.39-3.15-3.6-9.62-3.72h-.48A9,9,0,0,0,13.17.39Z" fill="#fff"/><path d="M37.08,24.29A16.9,16.9,0,0,1,4.53,18.13l-2,2L1.41,19,5.3,15.14l4,3.76L8.21,20.05l-2.11-2A15.33,15.33,0,0,0,35.62,23.7Z" fill="#2c5967"/><path d="M41.41,16.79l-3.88,3.88-4-3.77,1.08-1.14,2.11,2A15.35,15.35,0,0,0,21.4,2.57a15.67,15.67,0,0,0-1.94.12A9.37,9.37,0,0,0,17.7,1.4,17.47,17.47,0,0,1,21.4,1,16.92,16.92,0,0,1,38.3,17.68l2-2Z" fill="#2c5967"/><path d="M29.29,20.34v.08a.42.42,0,0,1,0-.11S29.3,20.33,29.29,20.34Zm0-5v.08a.54.54,0,0,1,0-.11Zm0-4.94v.08a.42.42,0,0,1,0-.11Zm-15.75,9.9a.18.18,0,0,1,0,.11v-.08Z" fill="#2c5967"/><path d="M22.22,7.59a8.22,8.22,0,0,1,.18,1.58c4.24.09,6.52.8,6.89,1.22v0l0,0a.42.42,0,0,0,0,.11v-.08c-.38.48-3,1.28-7.17,1.36a10.48,10.48,0,0,1-.57,1.57c1,0,5.36-.09,7.74-1.13v3.14l0,0a.54.54,0,0,0,0,.11v-.08c-.4.51-3.28,1.37-7.86,1.37-.88,0-1.7,0-2.45-.09A9.21,9.21,0,0,1,16.76,18a35.21,35.21,0,0,0,4.67.33c.7,0,5.36-.05,7.86-1.13v3.18s0,0,0,0a.42.42,0,0,0,0,.11v-.08c-.4.5-3.28,1.36-7.86,1.36s-7.46-.86-7.86-1.36v.08a.18.18,0,0,0,0-.11l0,0V18.68h-.4A9.23,9.23,0,0,1,12,18.61v6.75c0,2.78,8.47,2.86,9.44,2.86s9.43-.08,9.43-2.86v-15C30.86,8.06,25.33,7.65,22.22,7.59Zm7.07,17.7c-.42.5-3.29,1.36-7.86,1.36s-7.45-.86-7.86-1.36V22.14c2.49,1.09,7.16,1.13,7.86,1.13s5.36,0,7.86-1.13Z" fill="#2c5967"/><path d="M13.57,20.34v.08a.18.18,0,0,0,0-.11Z" fill="#2c5967"/><path d="M29.31,20.31a.42.42,0,0,0,0,.11v-.08S29.31,20.32,29.31,20.31Z" fill="#2c5967"/><path d="M29.31,15.32a.54.54,0,0,0,0,.11v-.08Z" fill="#2c5967"/><path d="M29.31,10.38a.42.42,0,0,0,0,.11v-.08Z" fill="#2c5967"/><path d="M13.17,1.39a8.06,8.06,0,1,0,8.06,8.06A8.07,8.07,0,0,0,13.17,1.39Zm0,14.55a6.49,6.49,0,1,1,6.49-6.49A6.49,6.49,0,0,1,13.17,15.94Z" fill="#2c5967"/><path d="M16.87,12l-1.12,1.11L12.61,10a.79.79,0,0,1-.23-.56V5.72H14V9.13Z" fill="#2c5967"/></svg>