<svg id="Layer_1" data-name="Layer 1" xmlns="http://www.w3.org/2000/svg" viewBox="0 0 37.98 42"><title>Scheduled-Database-backup-op1</title><metadata><?xpacket begin="﻿" id="W5M0MpCehiHzreSzNTczkc9d"?>
<x:xmpmeta xmlns:x="adobe:ns:meta/" x:xmptk="Adobe XMP Core 6.0-c006 79.164648, 2021/01/12-15:52:29        ">
   <rdf:RDF xmlns:rdf="http://www.w3.org/1999/02/22-rdf-syntax-ns#">
      <rdf:Description rdf:about=""
            xmlns:xmp="http://ns.adobe.com/xap/1.0/"
            xmlns:xmpMM="http://ns.adobe.com/xap/1.0/mm/"
            xmlns:stEvt="http://ns.adobe.com/xap/1.0/sType/ResourceEvent#"
            xmlns:dc="http://purl.org/dc/elements/1.1/"
            xmlns:lr="http://ns.adobe.com/lightroom/1.0/">
         <xmp:MetadataDate>2022-03-11T10:17:11-06:00</xmp:MetadataDate>
         <xmpMM:InstanceID>xmp.iid:a3928ee0-bfe3-4d06-b030-b6941ae4ba38</xmpMM:InstanceID>
         <xmpMM:DocumentID>xmp.did:3b3b2281-3fac-0d45-a074-3b66af72c4ab</xmpMM:DocumentID>
         <xmpMM:OriginalDocumentID>xmp.did:3b3b2281-3fac-0d45-a074-3b66af72c4ab</xmpMM:OriginalDocumentID>
         <xmpMM:History>
            <rdf:Seq>
               <rdf:li>
                  <rdf:Description>
                     <stEvt:action>saved</stEvt:action>
                     <stEvt:instanceID>xmp.iid:3b3b2281-3fac-0d45-a074-3b66af72c4ab</stEvt:instanceID>
                     <stEvt:when>2022-03-10T20:02:44-06:00</stEvt:when>
                     <stEvt:softwareAgent>Adobe Bridge 2020 (Windows)</stEvt:softwareAgent>
                     <stEvt:changed>/metadata</stEvt:changed>
                  </rdf:Description>
               </rdf:li>
               <rdf:li>
                  <rdf:Description>
                     <stEvt:action>saved</stEvt:action>
                     <stEvt:instanceID>xmp.iid:a3928ee0-bfe3-4d06-b030-b6941ae4ba38</stEvt:instanceID>
                     <stEvt:when>2022-03-11T10:17:11-06:00</stEvt:when>
                     <stEvt:softwareAgent>Adobe Bridge 2021 (Macintosh)</stEvt:softwareAgent>
                     <stEvt:changed>/metadata</stEvt:changed>
                  </rdf:Description>
               </rdf:li>
            </rdf:Seq>
         </xmpMM:History>
         <dc:title>
            <rdf:Alt>
               <rdf:li xml:lang="x-default">Scheduled-Database-backup-op1</rdf:li>
            </rdf:Alt>
         </dc:title>
         <dc:subject>
            <rdf:Bag>
               <rdf:li>icon</rdf:li>
               <rdf:li>database</rdf:li>
               <rdf:li>timely</rdf:li>
               <rdf:li>backup</rdf:li>
               <rdf:li>clock</rdf:li>
               <rdf:li>duplicate</rdf:li>
               <rdf:li>technology</rdf:li>
               <rdf:li>Data</rdf:li>
            </rdf:Bag>
         </dc:subject>
         <lr:hierarchicalSubject>
            <rdf:Bag>
               <rdf:li>icon</rdf:li>
               <rdf:li>Other Keywords|duplicate</rdf:li>
               <rdf:li>Other Keywords|technology</rdf:li>
               <rdf:li>Other Keywords|Data</rdf:li>
            </rdf:Bag>
         </lr:hierarchicalSubject>
      </rdf:Description>
   </rdf:RDF>
</x:xmpmeta>
                                                                                                    
                                                                                                    
                                                                                                    
                                                                                                    
                                                                                                    
                                                                                                    
                                                                                                    
                                                                                                    
                                                                                                    
                                                                                                    
                                                                                  
<?xpacket end="w"?></metadata>
<path d="M27.07,41.5a10.44,10.44,0,0,1-5.74-1.71l-1.73.07-1.42,0-1.4,0C13,39.77.5,39.12.5,34.65V6.25a1,1,0,0,1,0-.17,1.77,1.77,0,0,1,0-.23c0-1.19.87-2.22,2.6-3C6.46,1.19,12,.71,15,.57c1,0,2.08-.07,3.14-.07s2.11,0,3.14.07c3,.14,8.58.62,11.94,2.23,1.73.83,2.6,1.86,2.6,3.05a1.77,1.77,0,0,1,0,.23,1,1,0,0,1,0,.17V25.7a10.2,10.2,0,0,1-1.44,12.8A10.41,10.41,0,0,1,27.07,41.5Z" fill="#fff"/><path d="M18.18,1c1,0,2.08,0,3.11.07C26,1.29,30.44,2,33,3.25c1.45.7,2.32,1.56,2.32,2.6a1.94,1.94,0,0,1,0,.24.88.88,0,0,1,0,.16v19.6a9.69,9.69,0,0,1-1.29,12.29,9.93,9.93,0,0,1-7,2.86,10,10,0,0,1-5.6-1.71l-1.88.07H16.77C10.63,39.21,1,38.11,1,34.65V6.25a.88.88,0,0,1,0-.16,1.94,1.94,0,0,1,0-.24c0-1,.87-1.9,2.32-2.6,2.61-1.25,7.09-2,11.75-2.18C16.1,1,17.15,1,18.18,1m0-1C17.12,0,16.06,0,15,.07,12,.21,6.32.7,2.88,2.35,1,3.27,0,4.45,0,5.85a1.62,1.62,0,0,0,0,.22,1.09,1.09,0,0,0,0,.18v28.4c0,4.79,11.71,5.59,16.75,5.71h2.84l1.6-.06a11,11,0,0,0,13.58-1.45,10.68,10.68,0,0,0,1.59-13.29V6.25a1.09,1.09,0,0,0,0-.18,1.62,1.62,0,0,0,0-.22c0-1.4-1-2.58-2.88-3.5C30,.7,24.4.21,21.34.07c-1,0-2.1-.07-3.16-.07Z" fill="#fff"/><path d="M18.12,37.76A51.75,51.75,0,0,1,6.79,36.63c-3.41-.81-4.17-1.73-4.17-2v-7.3C5.46,29,11.49,29.69,16,29.85a12.24,12.24,0,0,1,.32-1.6,48.6,48.6,0,0,1-9.56-1.1c-3.41-.82-4.17-1.73-4.17-2V18c3.32,2,11,2.55,15.56,2.55S30.42,20,33.74,18v4.41a9.4,9.4,0,0,1,1.18,1c.15.15.3.3.44.46V6.26a.88.88,0,0,0,0-.17,1.94,1.94,0,0,0,0-.24C35.36,2.52,26.45,1,18.18,1S1,2.52,1,5.85a1.94,1.94,0,0,0,0,.24.88.88,0,0,0,0,.17V34.65c0,3.74,11.24,4.72,17.18,4.72h1.41L19.21,39A11.52,11.52,0,0,1,18.12,37.76Zm.06-35.14A49.65,49.65,0,0,1,29.56,3.78c3.43.84,4.18,1.78,4.18,2.07S33,7.08,29.56,7.92A49.65,49.65,0,0,1,18.18,9.08,49.65,49.65,0,0,1,6.8,7.92C3.37,7.08,2.62,6.14,2.62,5.85S3.37,4.62,6.8,3.78A49.65,49.65,0,0,1,18.18,2.62ZM29.57,17.8a51.05,51.05,0,0,1-11.39,1.13A51.05,51.05,0,0,1,6.79,17.8c-3.41-.81-4.17-1.73-4.17-2V8.07C5.56,9.87,12,10.7,18.18,10.7S30.8,9.87,33.74,8.07v7.75C33.74,16.07,33,17,29.57,17.8Z" fill="#2c5967"/><path d="M17.78,21.8v6.47h6.46V26.66H20.18a7.4,7.4,0,0,1,1-1.23,8.37,8.37,0,0,1,11.73,0,8.09,8.09,0,0,1,0,11.56A8.39,8.39,0,0,1,21.2,37a8,8,0,0,1-2.43-5.78A8.34,8.34,0,0,1,19,29.48H17.31a9.94,9.94,0,0,0-.15,1.73,9.68,9.68,0,0,0,2.9,6.93,10,10,0,0,0,14,0,9.71,9.71,0,0,0,0-13.86,10,10,0,0,0-14,0c-.23.23-.46.48-.67.73V21.8Z" fill="#2c5967"/><path d="M26.26,31.23a.77.77,0,0,0,.25.57l2.3,2.29a.85.85,0,0,0,.57.23.82.82,0,0,0,.58-.24.81.81,0,0,0,0-1.14l-2.07-2V26.05a.81.81,0,0,0-1.62,0Z" fill="#2c5967"/></svg>