<svg id="Layer_1" data-name="Layer 1" xmlns="http://www.w3.org/2000/svg" viewBox="0 0 44.23 42.41"><title>Technology - RMIL_Apex-Cloud</title><metadata><?xpacket begin="﻿" id="W5M0MpCehiHzreSzNTczkc9d"?>
<x:xmpmeta xmlns:x="adobe:ns:meta/" x:xmptk="Adobe XMP Core 6.0-c002 79.164352, 2020/01/30-15:50:38        ">
   <rdf:RDF xmlns:rdf="http://www.w3.org/1999/02/22-rdf-syntax-ns#">
      <rdf:Description rdf:about=""
            xmlns:dc="http://purl.org/dc/elements/1.1/"
            xmlns:lr="http://ns.adobe.com/lightroom/1.0/"
            xmlns:xmp="http://ns.adobe.com/xap/1.0/"
            xmlns:xmpMM="http://ns.adobe.com/xap/1.0/mm/"
            xmlns:stEvt="http://ns.adobe.com/xap/1.0/sType/ResourceEvent#">
         <dc:title>
            <rdf:Alt>
               <rdf:li xml:lang="x-default">Technology - RMIL_Apex-Cloud</rdf:li>
            </rdf:Alt>
         </dc:title>
         <dc:subject>
            <rdf:Bag>
               <rdf:li>icon</rdf:li>
               <rdf:li>technology</rdf:li>
               <rdf:li>Cloud Service</rdf:li>
               <rdf:li>Apex</rdf:li>
               <rdf:li>pencil</rdf:li>
               <rdf:li>ruler</rdf:li>
            </rdf:Bag>
         </dc:subject>
         <lr:hierarchicalSubject>
            <rdf:Bag>
               <rdf:li>icon</rdf:li>
               <rdf:li>technology</rdf:li>
            </rdf:Bag>
         </lr:hierarchicalSubject>
         <xmp:MetadataDate>2021-12-16T16:16:45-06:00</xmp:MetadataDate>
         <xmpMM:InstanceID>xmp.iid:2bccc6df-f556-4646-97fd-2ac480c008eb</xmpMM:InstanceID>
         <xmpMM:DocumentID>xmp.did:c266e36f-2fc7-ab4e-ba8a-234c28e73638</xmpMM:DocumentID>
         <xmpMM:OriginalDocumentID>xmp.did:c266e36f-2fc7-ab4e-ba8a-234c28e73638</xmpMM:OriginalDocumentID>
         <xmpMM:History>
            <rdf:Seq>
               <rdf:li>
                  <rdf:Description>
                     <stEvt:action>saved</stEvt:action>
                     <stEvt:instanceID>xmp.iid:c266e36f-2fc7-ab4e-ba8a-234c28e73638</stEvt:instanceID>
                     <stEvt:when>2021-12-16T16:09:38-06:00</stEvt:when>
                     <stEvt:softwareAgent>Adobe Bridge 2020 (Windows)</stEvt:softwareAgent>
                     <stEvt:changed>/metadata</stEvt:changed>
                  </rdf:Description>
               </rdf:li>
               <rdf:li>
                  <rdf:Description>
                     <stEvt:action>saved</stEvt:action>
                     <stEvt:instanceID>xmp.iid:2bccc6df-f556-4646-97fd-2ac480c008eb</stEvt:instanceID>
                     <stEvt:when>2021-12-16T16:16:45-06:00</stEvt:when>
                     <stEvt:softwareAgent>Adobe Bridge 2020 (Windows)</stEvt:softwareAgent>
                     <stEvt:changed>/metadata</stEvt:changed>
                  </rdf:Description>
               </rdf:li>
            </rdf:Seq>
         </xmpMM:History>
      </rdf:Description>
   </rdf:RDF>
</x:xmpmeta>
                                                                                                    
                                                                                                    
                                                                                                    
                                                                                                    
                                                                                                    
                                                                                                    
                                                                                                    
                                                                                                    
                                                                                                    
                                                                                                    
                                                                                                    
                                                                                                    
                                                                                  
<?xpacket end="w"?></metadata>
<path d="M22.1,32.64l-5.67,5.69-1.64.54L8.07,41l2-6.73.52-1.63,5.72-5.73L12,22.56H.54l.11-1.51a10.42,10.42,0,0,1,5.57-8.49,2.54,2.54,0,0,0,1.34-1.77,8,8,0,0,1,7.83-6.44c.25,0,.49,0,.74,0l.25,0a2.41,2.41,0,0,0,1.79-.77A9.78,9.78,0,0,1,34.1,5.92,2.6,2.6,0,0,0,35.89,7.3a10,10,0,0,1,6.65,14.52l-.4.74h-10l-4.31,4.32L36.92,36l-5.78,5.73Z" fill="#fff"/><path d="M25.35,1a9.22,9.22,0,0,1,8.3,5.14,3.14,3.14,0,0,0,2.13,1.65,9.51,9.51,0,0,1,6.31,13.79l-.25.48h-9.9l-4.8,4.82L36.21,36l-5.07,5-6.57-6.58L22.1,31.93l-5.94,6-1.52.51L8.82,40.2l1.76-5.83.48-1.5,6-6-4.79-4.81H1.08l.07-1A9.89,9.89,0,0,1,6.45,13a3.07,3.07,0,0,0,1.6-2.13,7.47,7.47,0,0,1,7.34-6l.69,0,.3,0A2.91,2.91,0,0,0,18.54,4a9.3,9.3,0,0,1,6.81-3m0-1a10.32,10.32,0,0,0-7.54,3.29,1.94,1.94,0,0,1-1.43.61h-.2a7,7,0,0,0-.79,0A8.73,8.73,0,0,0,12,4.56a8.5,8.5,0,0,0-4.9,6.13A2.06,2.06,0,0,1,6,12.12,10.9,10.9,0,0,0,.15,21L.08,22,0,23.06H11.83l3.8,3.81-5.28,5.29-.17.17-.08.24-.47,1.5L7.86,39.92l-.55,1.8,1.8-.56,5.82-1.81,1.54-.51.23-.07.17-.17,5.23-5.25,1.77,1.77,6.56,6.59.71.7.71-.7,5.07-5,.71-.71-.71-.71-8.37-8.39,3.8-3.82H42.43l.29-.53.25-.47A10.53,10.53,0,0,0,39.32,8.18,10.37,10.37,0,0,0,36,6.81a2.1,2.1,0,0,1-1.45-1.12A10.24,10.24,0,0,0,25.35,0Z" fill="#fff"/><path d="M38.79,9a9.44,9.44,0,0,0-3-1.24,3.14,3.14,0,0,1-2.13-1.65A9.28,9.28,0,0,0,18.54,4a2.94,2.94,0,0,1-2.46.91,7.48,7.48,0,0,0-8,6A3.07,3.07,0,0,1,6.45,13a9.89,9.89,0,0,0-5.3,8.07l-.07,1H8.37V20.24H3.09A8.11,8.11,0,0,1,7.3,14.61a4.9,4.9,0,0,0,2.53-3.38,5.68,5.68,0,0,1,6.08-4.55,4.71,4.71,0,0,0,4-1.48A7.47,7.47,0,0,1,32,7a5,5,0,0,0,3.36,2.61,7.7,7.7,0,0,1,5.35,10.68H36v1.82h5.86l.25-.48A9.52,9.52,0,0,0,38.79,9Z" fill="#2c5967"/><polygon points="7.91 17.71 16.09 25.91 17.36 24.62 10.48 17.72 12.98 15.24 15.21 17.49 15.19 17.52 13.32 19.33 13.95 19.98 14.59 20.63 16.57 18.84 18.05 20.33 16.18 22.21 16.82 22.86 17.45 23.51 19.35 21.64 19.85 22.13 21.13 20.85 12.98 12.69 7.91 17.71" fill="#2c5967"/><polygon points="26.81 29.11 28.13 30.44 26.92 31.63 27.55 32.27 28.19 32.92 29.41 31.72 30.78 33.09 29.57 34.28 30.84 35.57 32.06 34.37 33.65 35.97 31.15 38.44 24.32 31.6 23.05 32.88 31.14 41 36.21 35.98 28.09 27.83 26.81 29.11" fill="#2c5967"/><path d="M16.09,37.93l.07,0L36.27,17.71l-5.08-5L11.06,32.87h0v0h0l-.44,1.47L8.82,40.2l5.82-1.8,1.46-.46ZM31.2,15.25l2.5,2.47-2,2-2.49-2.48ZM13.18,37l-1.64.51.5-1.64.44-1.47,2.17,2.15Zm.41-4.06L28,18.51,30.45,21,16.09,35.37Z" fill="#2c5967"/></svg>