<svg id="Layer_1" data-name="Layer 1" xmlns="http://www.w3.org/2000/svg" viewBox="0 0 42.08 31.43"><title>Human Capital Management Cloud Service HCM Male</title><metadata><?xpacket begin="﻿" id="W5M0MpCehiHzreSzNTczkc9d"?>
<x:xmpmeta xmlns:x="adobe:ns:meta/" x:xmptk="Adobe XMP Core 6.0-c006 79.164648, 2021/01/12-15:52:29        ">
   <rdf:RDF xmlns:rdf="http://www.w3.org/1999/02/22-rdf-syntax-ns#">
      <rdf:Description rdf:about=""
            xmlns:xmpRights="http://ns.adobe.com/xap/1.0/rights/"
            xmlns:xmp="http://ns.adobe.com/xap/1.0/"
            xmlns:xmpMM="http://ns.adobe.com/xap/1.0/mm/"
            xmlns:stEvt="http://ns.adobe.com/xap/1.0/sType/ResourceEvent#"
            xmlns:dc="http://purl.org/dc/elements/1.1/"
            xmlns:lr="http://ns.adobe.com/lightroom/1.0/">
         <xmpRights:Marked>True</xmpRights:Marked>
         <xmp:MetadataDate>2022-01-29T10:33:07-06:00</xmp:MetadataDate>
         <xmpMM:InstanceID>xmp.iid:0b3e3fe0-c408-4e9b-87cf-2f35afa19c68</xmpMM:InstanceID>
         <xmpMM:DocumentID>xmp.did:863ddd41-71d0-9f44-ba58-2747fb752f22</xmpMM:DocumentID>
         <xmpMM:OriginalDocumentID>xmp.did:863ddd41-71d0-9f44-ba58-2747fb752f22</xmpMM:OriginalDocumentID>
         <xmpMM:History>
            <rdf:Seq>
               <rdf:li>
                  <rdf:Description>
                     <stEvt:action>saved</stEvt:action>
                     <stEvt:instanceID>xmp.iid:863ddd41-71d0-9f44-ba58-2747fb752f22</stEvt:instanceID>
                     <stEvt:when>2022-01-28T20:44:43-06:00</stEvt:when>
                     <stEvt:softwareAgent>Adobe Bridge 2020 (Windows)</stEvt:softwareAgent>
                     <stEvt:changed>/metadata</stEvt:changed>
                  </rdf:Description>
               </rdf:li>
               <rdf:li>
                  <rdf:Description>
                     <stEvt:action>saved</stEvt:action>
                     <stEvt:instanceID>xmp.iid:0b3e3fe0-c408-4e9b-87cf-2f35afa19c68</stEvt:instanceID>
                     <stEvt:when>2022-01-29T10:33:07-06:00</stEvt:when>
                     <stEvt:softwareAgent>Adobe Bridge 2021 (Macintosh)</stEvt:softwareAgent>
                     <stEvt:changed>/metadata</stEvt:changed>
                  </rdf:Description>
               </rdf:li>
            </rdf:Seq>
         </xmpMM:History>
         <dc:title>
            <rdf:Alt>
               <rdf:li xml:lang="x-default">Human Capital Management Cloud Service HCM Male</rdf:li>
            </rdf:Alt>
         </dc:title>
         <dc:rights>
            <rdf:Alt>
               <rdf:li xml:lang="x-default">Oracle, All rights reserved</rdf:li>
            </rdf:Alt>
         </dc:rights>
         <dc:subject>
            <rdf:Bag>
               <rdf:li>icon</rdf:li>
               <rdf:li>user</rdf:li>
               <rdf:li>person</rdf:li>
               <rdf:li>persona</rdf:li>
               <rdf:li>team</rdf:li>
               <rdf:li>group</rdf:li>
               <rdf:li>men</rdf:li>
               <rdf:li>man</rdf:li>
            </rdf:Bag>
         </dc:subject>
         <lr:hierarchicalSubject>
            <rdf:Bag>
               <rdf:li>icon</rdf:li>
               <rdf:li>Other Keywords|user</rdf:li>
               <rdf:li>Other Keywords|person</rdf:li>
               <rdf:li>Other Keywords|persona</rdf:li>
               <rdf:li>Other Keywords|team</rdf:li>
               <rdf:li>men</rdf:li>
               <rdf:li>man</rdf:li>
            </rdf:Bag>
         </lr:hierarchicalSubject>
      </rdf:Description>
   </rdf:RDF>
</x:xmpmeta>
                                                                                                    
                                                                                                    
                                                                                                    
                                                                                                    
                                                                                                    
                                                                                                    
                                               
<?xpacket end="w"?></metadata>
<path d="M6,30.93V27.24A3.12,3.12,0,0,1,9.1,24.12h4.81a5.19,5.19,0,0,1,3.72-1.59H18v-.44l0,0a3.93,3.93,0,0,1-.41-.58H14.54a3.68,3.68,0,0,1-6.22,0H.54L.65,20A9.87,9.87,0,0,1,6,12a2.41,2.41,0,0,0,1.26-1.67,7.58,7.58,0,0,1,7.45-6.13,5.48,5.48,0,0,1,.7,0h.24a2.26,2.26,0,0,0,1.68-.72A9.31,9.31,0,0,1,32.44,5.65,2.42,2.42,0,0,0,34.12,7a9.55,9.55,0,0,1,6.32,13.82l-.38.71H34.74a3.68,3.68,0,0,1-6.22,0H25.43A4.27,4.27,0,0,1,25,22v.49h.41a5.23,5.23,0,0,1,3.72,1.59H34a3.12,3.12,0,0,1,3.11,3.12v3.69Z" fill="#fff"/><path d="M24.11,1A8.76,8.76,0,0,1,32,5.88a2.94,2.94,0,0,0,2,1.56,9.16,9.16,0,0,1,2.86,1.18A9,9,0,0,1,40,20.53l-.24.45h-5.3a3.2,3.2,0,0,1-5.66,0H25.14a4.44,4.44,0,0,1-.52.76l-.1.11V23h.91a4.66,4.66,0,0,1,3.5,1.59h5a2.62,2.62,0,0,1,2.61,2.62v3.19H6.49V27.24A2.62,2.62,0,0,1,9.1,24.62h5A4.66,4.66,0,0,1,17.63,23h.91V21.9l-.14-.16a4.39,4.39,0,0,1-.51-.76H14.26A3.2,3.2,0,0,1,8.6,21H1.08l.07-.92a9.4,9.4,0,0,1,5-7.67,2.91,2.91,0,0,0,1.52-2,7.09,7.09,0,0,1,4.1-5.13,7.22,7.22,0,0,1,2.86-.6l.66,0,.28,0a2.8,2.8,0,0,0,2-.88A8.85,8.85,0,0,1,24.11,1m0-1a9.82,9.82,0,0,0-7.19,3.14,1.78,1.78,0,0,1-1.32.56h-.19a6.28,6.28,0,0,0-.75,0,8.12,8.12,0,0,0-7.95,6.54,1.91,1.91,0,0,1-1,1.32A10.41,10.41,0,0,0,.15,20l-.07.92L0,22H8.06a4.14,4.14,0,0,0,2.63,1.64H9.1a3.62,3.62,0,0,0-3.61,3.62v4.19H37.57V27.24A3.62,3.62,0,0,0,34,23.62H32.37A4.14,4.14,0,0,0,35,22h5.36l.28-.52.24-.45A10.06,10.06,0,0,0,37.4,7.77a9.74,9.74,0,0,0-3.17-1.3,2,2,0,0,1-1.35-1A9.74,9.74,0,0,0,24.11,0ZM25.7,22h2.55a4.19,4.19,0,0,0,2.64,1.64H29.35A5.69,5.69,0,0,0,25.66,22l0-.05ZM14.8,22h2.53l0,.05a5.71,5.71,0,0,0-3.65,1.59H12.17A4.14,4.14,0,0,0,14.8,22Z" fill="#fff"/><path d="M36.87,8.62A9.16,9.16,0,0,0,34,7.44a2.94,2.94,0,0,1-2-1.56A8.76,8.76,0,0,0,24.11,1a8.85,8.85,0,0,0-6.46,2.82,2.78,2.78,0,0,1-2.33.86,7.21,7.21,0,0,0-3.52.57,7.09,7.09,0,0,0-4.1,5.13,2.91,2.91,0,0,1-1.52,2,9.4,9.4,0,0,0-5,7.67L1.08,21H7.19a4.44,4.44,0,0,1-.27-1.51c0-.07,0-.14,0-.21H3a7.7,7.7,0,0,1,4-5.34,4.6,4.6,0,0,0,2.4-3.21,5.37,5.37,0,0,1,3.11-3.88,5.42,5.42,0,0,1,2.66-.44A4.49,4.49,0,0,0,18.91,5a7.12,7.12,0,0,1,5.2-2.27,7,7,0,0,1,6.34,3.92,4.7,4.7,0,0,0,3.19,2.48,7.3,7.3,0,0,1,5.07,10.14H36.13c0,.07,0,.14,0,.21A4.44,4.44,0,0,1,35.87,21h3.89l.24-.45A9,9,0,0,0,36.87,8.62Z" fill="#2c5967"/><path d="M9.1,24.62a2.62,2.62,0,0,0-2.61,2.62v3.19H8.21V27.24a.89.89,0,0,1,.89-.9h2.71a6.48,6.48,0,0,1,.7-1.72Z" fill="#2c5967"/><path d="M34,26.34a.89.89,0,0,1,.89.9v3.19h1.72V27.24A2.62,2.62,0,0,0,34,24.62H30.54a6.19,6.19,0,0,1,.71,1.72Z" fill="#2c5967"/><path d="M34.85,19.47a3.22,3.22,0,1,0-3.22,3.22A3.23,3.23,0,0,0,34.85,19.47ZM31.63,21a1.51,1.51,0,1,1,1.5-1.5A1.51,1.51,0,0,1,31.63,21Z" fill="#2c5967"/><path d="M14.65,19.47a3.22,3.22,0,1,0-3.22,3.22A3.23,3.23,0,0,0,14.65,19.47ZM11.43,21a1.51,1.51,0,0,1,0-3,1.51,1.51,0,1,1,0,3Z" fill="#2c5967"/><path d="M25.43,23h-.91V21.85l.1-.11a4.1,4.1,0,0,0,1-2.7v-5.8H20.41a2.89,2.89,0,0,0-3,3.22h0v2.63a4,4,0,0,0,1,2.65l.14.16V23h-.91a4.7,4.7,0,0,0-4.69,4.7v2.7h1.71v-2.7a3,3,0,0,1,3-3h1.51l.26.28,2.14,2.25,2-2.14.38-.39h1.5a3,3,0,0,1,3,3v2.7h1.71v-2.7A4.7,4.7,0,0,0,25.43,23ZM19.12,19.1V17.32h3.74a3,3,0,0,0,1.06-.18V19a2.47,2.47,0,0,1-2.4,2.42A2.39,2.39,0,0,1,19.12,19.1ZM20.41,15h3.4a.85.85,0,0,1-.94.64h-3.6A1.07,1.07,0,0,1,20.41,15Zm1.12,9.82-1.27-1.34V23a4,4,0,0,0,2.54,0v.47Z" fill="#2c5967"/></svg>