<svg id="Layer_1" data-name="Layer 1" xmlns="http://www.w3.org/2000/svg" viewBox="0 0 37.98 42"><title>Other - Database-Backup</title><metadata><?xpacket begin="﻿" id="W5M0MpCehiHzreSzNTczkc9d"?>
<x:xmpmeta xmlns:x="adobe:ns:meta/" x:xmptk="Adobe XMP Core 6.0-c006 79.164648, 2021/01/12-15:52:29        ">
   <rdf:RDF xmlns:rdf="http://www.w3.org/1999/02/22-rdf-syntax-ns#">
      <rdf:Description rdf:about=""
            xmlns:xmp="http://ns.adobe.com/xap/1.0/"
            xmlns:xmpMM="http://ns.adobe.com/xap/1.0/mm/"
            xmlns:stEvt="http://ns.adobe.com/xap/1.0/sType/ResourceEvent#"
            xmlns:dc="http://purl.org/dc/elements/1.1/"
            xmlns:xmpRights="http://ns.adobe.com/xap/1.0/rights/">
         <xmp:MetadataDate>2021-11-23T13:28:02-06:00</xmp:MetadataDate>
         <xmpMM:InstanceID>xmp.iid:f3b41449-2faa-4598-916a-b3a0e0875e27</xmpMM:InstanceID>
         <xmpMM:DocumentID>xmp.did:28ce11e3-1389-4ffa-bd53-e44abaac6d21</xmpMM:DocumentID>
         <xmpMM:OriginalDocumentID>xmp.did:28ce11e3-1389-4ffa-bd53-e44abaac6d21</xmpMM:OriginalDocumentID>
         <xmpMM:History>
            <rdf:Seq>
               <rdf:li>
                  <rdf:Description>
                     <stEvt:action>saved</stEvt:action>
                     <stEvt:instanceID>xmp.iid:28ce11e3-1389-4ffa-bd53-e44abaac6d21</stEvt:instanceID>
                     <stEvt:when>2021-11-22T11:59:51-06:00</stEvt:when>
                     <stEvt:softwareAgent>Adobe Bridge 2021 (Macintosh)</stEvt:softwareAgent>
                     <stEvt:changed>/metadata</stEvt:changed>
                  </rdf:Description>
               </rdf:li>
               <rdf:li>
                  <rdf:Description>
                     <stEvt:action>saved</stEvt:action>
                     <stEvt:instanceID>xmp.iid:f3b41449-2faa-4598-916a-b3a0e0875e27</stEvt:instanceID>
                     <stEvt:when>2021-11-23T13:28:02-06:00</stEvt:when>
                     <stEvt:softwareAgent>Adobe Bridge 2021 (Macintosh)</stEvt:softwareAgent>
                     <stEvt:changed>/metadata</stEvt:changed>
                  </rdf:Description>
               </rdf:li>
            </rdf:Seq>
         </xmpMM:History>
         <dc:title>
            <rdf:Alt>
               <rdf:li xml:lang="x-default">Other - Database-Backup</rdf:li>
            </rdf:Alt>
         </dc:title>
         <dc:subject>
            <rdf:Bag>
               <rdf:li>icon</rdf:li>
               <rdf:li>technology</rdf:li>
               <rdf:li>data</rdf:li>
            </rdf:Bag>
         </dc:subject>
         <dc:rights>
            <rdf:Alt>
               <rdf:li xml:lang="x-default">Oracle All Rights Reserved</rdf:li>
            </rdf:Alt>
         </dc:rights>
         <xmpRights:Marked>True</xmpRights:Marked>
      </rdf:Description>
   </rdf:RDF>
</x:xmpmeta>
                                                                                                    
                                                                                                    
                                                                                                    
                                                                                                    
                                                                                                    
                                                                                                    
                                                                                                    
                                                                                                    
                                                                                                    
                                                                                                    
                                                                                                    
                                                              
<?xpacket end="w"?></metadata>
<path d="M27.07,41.5a10.44,10.44,0,0,1-5.7-1.68l-3.19.06C16.37,39.88.5,39.73.5,34.65V6.25a.91.91,0,0,1,0-.17,1.77,1.77,0,0,1,0-.23C.5,1.9,10,.5,18.18.5S35.86,1.9,35.86,5.85a1.77,1.77,0,0,1,0,.23.91.91,0,0,1,0,.17V25.7a10.2,10.2,0,0,1-1.44,12.8A10.41,10.41,0,0,1,27.07,41.5Z" fill="#fff"/><path d="M18.18,1c8.27,0,17.18,1.52,17.18,4.85a1.94,1.94,0,0,1,0,.24.88.88,0,0,1,0,.16v19.6a9.69,9.69,0,0,1-1.29,12.29,10,10,0,0,1-12.56,1.18l-3.33,0c-5.94,0-17.18-1-17.18-4.72V6.25a.88.88,0,0,1,0-.16,1.94,1.94,0,0,1,0-.24C1,2.52,9.91,1,18.18,1m0-1C15.14,0,0,.28,0,5.85a1.62,1.62,0,0,0,0,.22,1.09,1.09,0,0,0,0,.18v28.4c0,5.45,15.14,5.72,18.18,5.72l3.05,0a11,11,0,0,0,13.54-1.47,10.68,10.68,0,0,0,1.59-13.29V6.25a1.09,1.09,0,0,0,0-.18,1.62,1.62,0,0,0,0-.22C36.36.28,21.22,0,18.18,0Z" fill="#fff"/><path d="M18.12,37.76A51.75,51.75,0,0,1,6.79,36.63c-3.41-.81-4.17-1.73-4.17-2v-7.3C5.46,29,11.49,29.69,16,29.85a12.24,12.24,0,0,1,.32-1.6,48.6,48.6,0,0,1-9.56-1.1c-3.41-.82-4.17-1.73-4.17-2V18c3.32,2,11,2.55,15.56,2.55S30.42,20,33.74,18v4.41a9.4,9.4,0,0,1,1.18,1c.15.15.3.3.44.46V6.26a.88.88,0,0,0,0-.17,1.94,1.94,0,0,0,0-.24C35.36,2.52,26.45,1,18.18,1S1,2.52,1,5.85a1.94,1.94,0,0,0,0,.24.88.88,0,0,0,0,.17V34.65c0,3.74,11.24,4.72,17.18,4.72h1.41L19.21,39A11.52,11.52,0,0,1,18.12,37.76Zm.06-35.14A49.65,49.65,0,0,1,29.56,3.78c3.43.84,4.18,1.78,4.18,2.07S33,7.08,29.56,7.92A49.65,49.65,0,0,1,18.18,9.08,49.65,49.65,0,0,1,6.8,7.92C3.37,7.08,2.62,6.14,2.62,5.85S3.37,4.62,6.8,3.78A49.65,49.65,0,0,1,18.18,2.62ZM29.57,17.8a51.05,51.05,0,0,1-11.39,1.13A51.05,51.05,0,0,1,6.79,17.8c-3.41-.81-4.17-1.73-4.17-2V8.07C5.56,9.87,12,10.7,18.18,10.7S30.8,9.87,33.74,8.07v7.75C33.74,16.07,33,17,29.57,17.8Z" fill="#2c5967"/><path d="M17.78,21.8v6.47h6.46V26.66H20.18a7.4,7.4,0,0,1,1-1.23,8.37,8.37,0,0,1,11.73,0,8.09,8.09,0,0,1,0,11.56A8.39,8.39,0,0,1,21.2,37a8,8,0,0,1-2.43-5.78A8.34,8.34,0,0,1,19,29.48H17.31a9.94,9.94,0,0,0-.15,1.73,9.68,9.68,0,0,0,2.9,6.93,10,10,0,0,0,14,0,9.71,9.71,0,0,0,0-13.86,10,10,0,0,0-14,0c-.23.23-.46.48-.67.73V21.8Z" fill="#2c5967"/></svg>