<svg id="Layer_1" data-name="Layer 1" xmlns="http://www.w3.org/2000/svg" viewBox="0 0 33.29 42"><title>Other - Business - Oracle-Wallet</title><metadata><?xpacket begin="﻿" id="W5M0MpCehiHzreSzNTczkc9d"?>
<x:xmpmeta xmlns:x="adobe:ns:meta/" x:xmptk="Adobe XMP Core 6.0-c006 79.164648, 2021/01/12-15:52:29        ">
   <rdf:RDF xmlns:rdf="http://www.w3.org/1999/02/22-rdf-syntax-ns#">
      <rdf:Description rdf:about=""
            xmlns:xmp="http://ns.adobe.com/xap/1.0/"
            xmlns:xmpMM="http://ns.adobe.com/xap/1.0/mm/"
            xmlns:stEvt="http://ns.adobe.com/xap/1.0/sType/ResourceEvent#"
            xmlns:dc="http://purl.org/dc/elements/1.1/"
            xmlns:xmpRights="http://ns.adobe.com/xap/1.0/rights/">
         <xmp:MetadataDate>2021-11-23T13:28:02-06:00</xmp:MetadataDate>
         <xmpMM:InstanceID>xmp.iid:6d53820a-d27b-471b-9844-459fefdf1e14</xmpMM:InstanceID>
         <xmpMM:DocumentID>xmp.did:1ec39c5a-3e86-4043-a43c-7e497a5db0a7</xmpMM:DocumentID>
         <xmpMM:OriginalDocumentID>xmp.did:1ec39c5a-3e86-4043-a43c-7e497a5db0a7</xmpMM:OriginalDocumentID>
         <xmpMM:History>
            <rdf:Seq>
               <rdf:li>
                  <rdf:Description>
                     <stEvt:action>saved</stEvt:action>
                     <stEvt:instanceID>xmp.iid:1ec39c5a-3e86-4043-a43c-7e497a5db0a7</stEvt:instanceID>
                     <stEvt:when>2021-11-22T11:59:51-06:00</stEvt:when>
                     <stEvt:softwareAgent>Adobe Bridge 2021 (Macintosh)</stEvt:softwareAgent>
                     <stEvt:changed>/metadata</stEvt:changed>
                  </rdf:Description>
               </rdf:li>
               <rdf:li>
                  <rdf:Description>
                     <stEvt:action>saved</stEvt:action>
                     <stEvt:instanceID>xmp.iid:6d53820a-d27b-471b-9844-459fefdf1e14</stEvt:instanceID>
                     <stEvt:when>2021-11-23T13:28:02-06:00</stEvt:when>
                     <stEvt:softwareAgent>Adobe Bridge 2021 (Macintosh)</stEvt:softwareAgent>
                     <stEvt:changed>/metadata</stEvt:changed>
                  </rdf:Description>
               </rdf:li>
            </rdf:Seq>
         </xmpMM:History>
         <dc:title>
            <rdf:Alt>
               <rdf:li xml:lang="x-default">Other - Business - Oracle-Wallet</rdf:li>
            </rdf:Alt>
         </dc:title>
         <dc:subject>
            <rdf:Bag>
               <rdf:li>icon</rdf:li>
               <rdf:li>card</rdf:li>
            </rdf:Bag>
         </dc:subject>
         <dc:rights>
            <rdf:Alt>
               <rdf:li xml:lang="x-default">Oracle All Rights Reserved</rdf:li>
            </rdf:Alt>
         </dc:rights>
         <xmpRights:Marked>True</xmpRights:Marked>
      </rdf:Description>
   </rdf:RDF>
</x:xmpmeta>
                                                                                                    
                                                                                                    
                                                                                                    
                                                                                                    
                                                                                                    
                                                                                                    
                                                                                                    
                                                                                                    
                                                                                                    
                                                                                                    
                                                                                                    
                                                                                                    
    
<?xpacket end="w"?></metadata>
<path d="M4.43,41.5A3.41,3.41,0,0,1,1,38.09V20.43a3.39,3.39,0,0,1,2.11-3.15l-2.42-9L21.34,2.71l2.6,9.73h.85a2.37,2.37,0,0,1,2.37,2.37v6.57h.54a3.4,3.4,0,0,1,3.41,3.4v1.36h1.66V36.71H31.11v1.38A3.41,3.41,0,0,1,27.7,41.5Z" fill="#fff"/><path d="M21,3.32l2.58,9.62h1.23a1.87,1.87,0,0,1,1.87,1.87v7.06l1,0h0a2.92,2.92,0,0,1,2.91,2.9v1.86h1.66v9.56H30.61v1.88A2.92,2.92,0,0,1,27.7,41H4.43a2.91,2.91,0,0,1-2.91-2.91V20.43a2.91,2.91,0,0,1,2.21-2.82l-2.4-9L21,3.32m.71-1.22-1,.26L1.07,7.67l-1,.26.26,1L2.54,17a3.9,3.9,0,0,0-2,3.42V38.09A3.91,3.91,0,0,0,4.43,42H27.7a3.92,3.92,0,0,0,3.91-3.91v-.88h1.66V25.65H31.61v-.86a3.91,3.91,0,0,0-3.91-3.9h0V14.81a2.87,2.87,0,0,0-2.87-2.87h-.46L22,3.07l-.26-1Z" fill="#fff"/><path d="M.52,7.5A2.39,2.39,0,0,1,2.26,4.88l16-4.3A2.57,2.57,0,0,1,18.93.5a2.35,2.35,0,0,1,1.18.32,2.38,2.38,0,0,1,1,1.11l.23.53L.6,8.06Z" fill="#fff"/><path d="M18.93,1a1.83,1.83,0,0,1,.93.25,1.86,1.86,0,0,1,.78.88L1,7.43a1.83,1.83,0,0,1,.23-1.19,1.86,1.86,0,0,1,1.14-.87L18.44,1.06A2.05,2.05,0,0,1,18.93,1m0-1a2.76,2.76,0,0,0-.75.1l-16,4.3A2.86,2.86,0,0,0,0,7.57L.19,8.69l1.09-.3L20.9,3.09,22,2.79l-.45-1.06A2.85,2.85,0,0,0,18.93,0Z" fill="#fff"/><path d="M9.21,17.51V17.3a1.45,1.45,0,0,1,1.45-1.45h1.66a1.45,1.45,0,0,1,1.46,1.45v.21H12.32V19h1.46v.21a1.45,1.45,0,0,1-1.46,1.45H10.66a1.45,1.45,0,0,1-1.45-1.45V19h1.45V17.51Z" fill="#2c5967"/><path d="M6.3,17.52V14.81a1.87,1.87,0,0,1,1.87-1.87H21.84l-2-7.31L3.43,10.08l2,7.44Z" fill="none"/><path d="M25,29.56V33.3a1.24,1.24,0,0,0,1.24,1.24h2.7V28.31h-2.7A1.25,1.25,0,0,0,25,29.56Z" fill="none"/><path d="M27.7,23.55H4.43a2.9,2.9,0,0,1-1.25-.28V38.09a1.25,1.25,0,0,0,1.25,1.25H27.7a1.25,1.25,0,0,0,1.24-1.25V36.21h-2.7a2.92,2.92,0,0,1-2.91-2.91V29.56a2.91,2.91,0,0,1,2.91-2.91h2.7V24.79a1.23,1.23,0,0,0-1.24-1.24Z" fill="none"/><path d="M19.86,1.25a1.86,1.86,0,0,0-1.42-.19l-16,4.31A1.86,1.86,0,0,0,1,7.43l19.62-5.3A1.86,1.86,0,0,0,19.86,1.25Z" fill="#2c5967"/><line x1="25.29" y1="36.76" x2="33.29" y2="36.76" fill="none" stroke="#fff" stroke-miterlimit="10"/><path d="M28.94,37.22v.87a1.25,1.25,0,0,1-1.24,1.25H4.43a1.25,1.25,0,0,1-1.25-1.25V23.27a2.9,2.9,0,0,0,1.25.28H27.7a1.23,1.23,0,0,1,1.24,1.24v.88h1.67v-.88a2.92,2.92,0,0,0-2.91-2.9H4.43a1.25,1.25,0,0,1-1.25-1.25v-.21a1.25,1.25,0,0,1,1.25-1.25H6.3v1.44H8V14.81a.21.21,0,0,1,.21-.21H24.79a.21.21,0,0,1,.21.21v5.81h1.66V14.81a1.87,1.87,0,0,0-1.87-1.87H23.56L21,3.32,1.33,8.64l2.4,9a2.91,2.91,0,0,0-2.21,2.82V38.09A2.91,2.91,0,0,0,4.43,41H27.7a2.92,2.92,0,0,0,2.91-2.91v-.87ZM3.43,10.08,19.88,5.63l2,7.31H8.17A1.87,1.87,0,0,0,6.3,14.81v2.71H5.43Z" fill="#2c5967"/><path d="M26.57,26.67a3.32,3.32,0,0,0-3.24,2.89V33.3a2.92,2.92,0,0,0,2.91,2.91h6V26.67Zm2.37,7.87h-2.7A1.24,1.24,0,0,1,25,33.3V29.56a1.25,1.25,0,0,1,1.24-1.25h2.7Z" fill="#2c5967"/><path d="M25,29.56V33.3a1.24,1.24,0,0,0,1.24,1.24h4.37V28.31H26.24A1.25,1.25,0,0,0,25,29.56Z" fill="#fff"/></svg>