<svg id="Layer_1" data-name="Layer 1" xmlns="http://www.w3.org/2000/svg" viewBox="0 0 42 42"><defs><style>.cls-1{fill:#fff;}.cls-2{fill:#2c5967;}</style></defs><title>MySQL Server (Right)</title><metadata><?xpacket begin="﻿" id="W5M0MpCehiHzreSzNTczkc9d"?>
<x:xmpmeta xmlns:x="adobe:ns:meta/" x:xmptk="Adobe XMP Core 6.0-c006 79.164648, 2021/01/12-15:52:29        ">
   <rdf:RDF xmlns:rdf="http://www.w3.org/1999/02/22-rdf-syntax-ns#">
      <rdf:Description rdf:about=""
            xmlns:xmpRights="http://ns.adobe.com/xap/1.0/rights/"
            xmlns:xmp="http://ns.adobe.com/xap/1.0/"
            xmlns:xmpMM="http://ns.adobe.com/xap/1.0/mm/"
            xmlns:stEvt="http://ns.adobe.com/xap/1.0/sType/ResourceEvent#"
            xmlns:dc="http://purl.org/dc/elements/1.1/"
            xmlns:lr="http://ns.adobe.com/lightroom/1.0/">
         <xmpRights:Marked>True</xmpRights:Marked>
         <xmp:MetadataDate>2021-07-22T15:17:46-05:00</xmp:MetadataDate>
         <xmpMM:InstanceID>xmp.iid:b83a331f-b2e3-4a9c-894f-13e6b47617bf</xmpMM:InstanceID>
         <xmpMM:DocumentID>xmp.did:a06de55c-7c8d-4f0d-aa14-bc8c640fd27f</xmpMM:DocumentID>
         <xmpMM:OriginalDocumentID>xmp.did:a06de55c-7c8d-4f0d-aa14-bc8c640fd27f</xmpMM:OriginalDocumentID>
         <xmpMM:History>
            <rdf:Seq>
               <rdf:li>
                  <rdf:Description>
                     <stEvt:action>saved</stEvt:action>
                     <stEvt:instanceID>xmp.iid:a06de55c-7c8d-4f0d-aa14-bc8c640fd27f</stEvt:instanceID>
                     <stEvt:when>2021-06-23T15:54:01-05:00</stEvt:when>
                     <stEvt:softwareAgent>Adobe Bridge 2021 (Macintosh)</stEvt:softwareAgent>
                     <stEvt:changed>/metadata</stEvt:changed>
                  </rdf:Description>
               </rdf:li>
               <rdf:li>
                  <rdf:Description>
                     <stEvt:action>saved</stEvt:action>
                     <stEvt:instanceID>xmp.iid:b83a331f-b2e3-4a9c-894f-13e6b47617bf</stEvt:instanceID>
                     <stEvt:when>2021-07-22T15:17:46-05:00</stEvt:when>
                     <stEvt:softwareAgent>Adobe Bridge 2021 (Macintosh)</stEvt:softwareAgent>
                     <stEvt:changed>/metadata</stEvt:changed>
                  </rdf:Description>
               </rdf:li>
            </rdf:Seq>
         </xmpMM:History>
         <dc:title>
            <rdf:Alt>
               <rdf:li xml:lang="x-default">MySQL Server (Right)</rdf:li>
            </rdf:Alt>
         </dc:title>
         <dc:rights>
            <rdf:Alt>
               <rdf:li xml:lang="x-default">Oracle All Rights Reserved</rdf:li>
            </rdf:Alt>
         </dc:rights>
         <dc:subject>
            <rdf:Bag>
               <rdf:li>icon</rdf:li>
               <rdf:li>technology</rdf:li>
               <rdf:li>Hardware</rdf:li>
               <rdf:li>MySQL</rdf:li>
            </rdf:Bag>
         </dc:subject>
         <lr:hierarchicalSubject>
            <rdf:Bag>
               <rdf:li>icon</rdf:li>
               <rdf:li>technology</rdf:li>
               <rdf:li>Hardware</rdf:li>
               <rdf:li>MySQL</rdf:li>
            </rdf:Bag>
         </lr:hierarchicalSubject>
      </rdf:Description>
   </rdf:RDF>
</x:xmpmeta>
                                                                                                    
                                                                                                    
                                                                                                    
                                                                                                    
                                                                                                    
                                                                                                    
                                                                                                    
                                                                                   
<?xpacket end="w"?></metadata>
<polygon class="cls-1" points="0.5 41.5 0.5 25.39 18.37 25.39 18.37 0.5 38.95 0.5 38.95 38.8 39.42 38.8 41.5 39.84 41.5 41.5 0.5 41.5"/><path class="cls-1" d="M38.45,1V39.3h.85l1.7.85V41H1V25.89H18.87V1H38.45m1-1H17.87V24.89H0V42H42V39.53l-.55-.28-1.71-.85-.21-.1h-.08V0Z"/><path class="cls-2" d="M33.77,8.23H23.55V9.94h-1.7v1.7h1.7v1.7H33.77v-1.7h1.7V9.94h-1.7Zm-1.71,3.41h-6.8V9.94h6.8Z"/><rect class="cls-2" x="21.85" y="5.26" width="13.62" height="1.7"/><rect class="cls-2" x="21.85" y="14.62" width="13.62" height="1.7"/><path class="cls-2" d="M21.85,23.55H35.47V17.6H21.85Zm1.7-4.25H33.77v2.55H23.55Z"/><polygon class="cls-2" points="39.3 39.3 38.45 39.3 38.45 1 18.87 1 18.87 24.62 20.57 24.62 20.57 2.7 36.74 2.7 36.74 24.62 36.74 39.3 36.74 41 38.45 41 39.3 41 39.3 41 41 41 41 40.15 39.3 39.3"/><path class="cls-2" d="M35.47,35V25.89H1V41H35.47V35ZM20.57,39.3H2.7V27.6H33.77V39.3Z"/><polygon class="cls-2" points="8.17 34.57 6.35 30.8 5.07 30.8 5.07 36.52 6.25 36.52 6.25 32.86 7.77 35.97 8.52 35.97 10.03 32.81 10.03 36.52 11.24 36.52 11.24 30.8 9.96 30.8 8.17 34.57"/><path class="cls-2" d="M14,37.93a2,2,0,0,0,.7-.66,3.62,3.62,0,0,0,.46-1.08l1-3.83H15l-.81,3.32-1.06-3.32H11.89l1.39,4.07h.63a1.05,1.05,0,0,1-.37.54,2.65,2.65,0,0,1-.88.33l.25,1A3.47,3.47,0,0,0,14,37.93Z"/><path class="cls-2" d="M20.7,34.9a1.6,1.6,0,0,0-.32-1,2.55,2.55,0,0,0-1.1-.65l-.6-.2A2.91,2.91,0,0,1,18,32.7a.41.41,0,0,1-.19-.36c0-.38.33-.57,1-.57a3.6,3.6,0,0,1,.77.08,4,4,0,0,1,.82.24V31a4.08,4.08,0,0,0-.74-.22,4.8,4.8,0,0,0-.85-.08,3,3,0,0,0-1.18.21,1.71,1.71,0,0,0-.77.59,1.56,1.56,0,0,0-.27.92,1.53,1.53,0,0,0,.33,1,2.39,2.39,0,0,0,1.07.65l.6.21a2.36,2.36,0,0,1,.7.31.41.41,0,0,1,.18.34.51.51,0,0,1-.28.46,1.56,1.56,0,0,1-.78.16,4.84,4.84,0,0,1-1.74-.34v1.1a2.46,2.46,0,0,0,.5.16,4.26,4.26,0,0,0,.67.11,5.85,5.85,0,0,0,.71,0,2.49,2.49,0,0,0,1.61-.46A1.56,1.56,0,0,0,20.7,34.9Z"/><path class="cls-2" d="M26.25,35.45a3.49,3.49,0,0,0,.41-1.79,3.15,3.15,0,0,0-.7-2.19,2.53,2.53,0,0,0-2-.78,2.5,2.5,0,0,0-2,.78,3.15,3.15,0,0,0-.7,2.19,3.4,3.4,0,0,0,.53,2,2.26,2.26,0,0,0,1.54.92l-.1.52,3.43.49.15-.71L25,36.42A2.34,2.34,0,0,0,26.25,35.45Zm-3.33-.23a2.71,2.71,0,0,1-.35-1.56,2.38,2.38,0,0,1,.35-1.43,1.2,1.2,0,0,1,1.06-.5,1.25,1.25,0,0,1,1.07.5,2.45,2.45,0,0,1,.35,1.43,2.79,2.79,0,0,1-.35,1.56,1.23,1.23,0,0,1-1.07.51A1.19,1.19,0,0,1,22.92,35.22Z"/><polygon class="cls-2" points="27.58 36.52 31.33 36.52 31.33 35.43 28.81 35.43 28.81 30.8 27.58 30.8 27.58 36.52"/></svg>