<?xml version="1.0" encoding="utf-8"?>
<!-- Generator: Adobe Illustrator 27.7.0, SVG Export Plug-In . SVG Version: 6.00 Build 0)  -->
<svg version="1.1" id="Extras" xmlns="http://www.w3.org/2000/svg" xmlns:xlink="http://www.w3.org/1999/xlink" x="0px" y="0px"
	 viewBox="0 0 42.416 40.979" style="enable-background:new 0 0 42.416 40.979;" xml:space="preserve">
<metadata><?xpacket begin="﻿" id="W5M0MpCehiHzreSzNTczkc9d"?>
<x:xmpmeta xmlns:x="adobe:ns:meta/" x:xmptk="Adobe XMP Core 7.1-c000 79.4d2f597, 2021/09/01-20:51:22        ">
   <rdf:RDF xmlns:rdf="http://www.w3.org/1999/02/22-rdf-syntax-ns#">
      <rdf:Description rdf:about=""
            xmlns:dc="http://purl.org/dc/elements/1.1/"
            xmlns:xmp="http://ns.adobe.com/xap/1.0/"
            xmlns:xmpMM="http://ns.adobe.com/xap/1.0/mm/"
            xmlns:stEvt="http://ns.adobe.com/xap/1.0/sType/ResourceEvent#"
            xmlns:xmpRights="http://ns.adobe.com/xap/1.0/rights/">
         <dc:subject>
            <rdf:Bag>
               <rdf:li>marker</rdf:li>
               <rdf:li>storage</rdf:li>
               <rdf:li>data</rdf:li>
               <rdf:li>label</rdf:li>
               <rdf:li>icon</rdf:li>
            </rdf:Bag>
         </dc:subject>
         <dc:rights>
            <rdf:Alt>
               <rdf:li xml:lang="x-default">Oracle All Rights</rdf:li>
            </rdf:Alt>
         </dc:rights>
         <xmp:MetadataDate>2024-09-13T12:59:50-06:00</xmp:MetadataDate>
         <xmpMM:InstanceID>xmp.iid:7e0b6e8d-1c62-4c21-a575-4eac8e2a5ec8</xmpMM:InstanceID>
         <xmpMM:DocumentID>xmp.did:c51713ef-1448-45e8-be10-04ed89be29dc</xmpMM:DocumentID>
         <xmpMM:OriginalDocumentID>xmp.did:c51713ef-1448-45e8-be10-04ed89be29dc</xmpMM:OriginalDocumentID>
         <xmpMM:History>
            <rdf:Seq>
               <rdf:li>
                  <rdf:Description>
                     <stEvt:action>saved</stEvt:action>
                     <stEvt:instanceID>xmp.iid:c51713ef-1448-45e8-be10-04ed89be29dc</stEvt:instanceID>
                     <stEvt:when>2024-09-13T12:58:55-06:00</stEvt:when>
                     <stEvt:softwareAgent>Adobe Bridge 2023</stEvt:softwareAgent>
                     <stEvt:changed>/metadata</stEvt:changed>
                  </rdf:Description>
               </rdf:li>
               <rdf:li>
                  <rdf:Description>
                     <stEvt:action>saved</stEvt:action>
                     <stEvt:instanceID>xmp.iid:7e0b6e8d-1c62-4c21-a575-4eac8e2a5ec8</stEvt:instanceID>
                     <stEvt:when>2024-09-13T12:59:50-06:00</stEvt:when>
                     <stEvt:softwareAgent>Adobe Bridge 2023</stEvt:softwareAgent>
                     <stEvt:changed>/metadata</stEvt:changed>
                  </rdf:Description>
               </rdf:li>
            </rdf:Seq>
         </xmpMM:History>
         <xmpRights:Marked>True</xmpRights:Marked>
      </rdf:Description>
   </rdf:RDF>
</x:xmpmeta>
                                                                                                    
                                                                                                    
                                                                                                    
                                                                                                    
                                                                                                    
                                                                                                    
                                                                                                    
                                                                                                    
                                                                                                    
                                                                                                    
                                                                                                    
                                                                                                    
                         
<?xpacket end="w"?></metadata>
<style type="text/css">
	.st0{fill:#FCFBFA;}
	.st1{fill:#2C5967;}
</style>
<g>
	<path class="st0" d="M41.706,31.232l-4.804-4.785v-0.904v-0.318v-0.102v-9.071v-0.681V6.338c0-0.063-0.003-0.127-0.01-0.19
		c0.006-0.073,0.01-0.146,0.01-0.22c0-2.104-2.046-3.632-6.255-4.672C27.367,0.446,23.036,0,18.451,0
		C13.866,0,9.535,0.446,6.255,1.256C2.046,2.295,0,3.823,0,5.927c0,0.074,0.004,0.147,0.01,0.22C0.003,6.211,0,6.275,0,6.338v9.033
		v0.681v9.071v0.102v0.318v9.633c0,1.419,1.012,2.596,3.012,3.511l-0.067,0.067l1.545,0.511l0.159,0.048l0.086,0.026
		c0.127,0.039,0.253,0.078,0.384,0.116c0.363,0.106,0.74,0.21,1.149,0.307c3.275,0.784,7.602,1.216,12.183,1.216
		s8.907-0.432,12.183-1.216c0.409-0.098,0.787-0.202,1.151-0.308c0.129-0.038,0.256-0.076,0.382-0.115l0.087-0.026l0.159-0.048
		l0.731-0.238l0.385,0.385l0.707,0.707l0.707-0.707l6.765-6.765l0.709-0.708L41.706,31.232z"/>
	<g>
		<path class="st1" d="M30.784,36.997c-0.24,0.066-0.493,0.132-0.765,0.197c-3.08,0.737-7.188,1.143-11.568,1.143
			s-8.488-0.406-11.568-1.143c-3.462-0.829-4.241-1.756-4.241-2.016v-7.424c0.911,0.537,2.196,1.006,3.858,1.404
			c3.202,0.766,7.446,1.188,11.95,1.188c1.887,0,3.727-0.075,5.465-0.217l-0.537-0.537v-0.85v-0.217
			c-1.573,0.118-3.229,0.18-4.927,0.18c-4.379,0-8.488-0.406-11.568-1.143c-3.462-0.829-4.241-1.756-4.241-2.016v-7.282
			c0.911,0.537,2.196,1.006,3.858,1.404c3.202,0.766,7.446,1.188,11.95,1.188s8.748-0.422,11.95-1.188
			c1.662-0.398,2.947-0.868,3.858-1.404v5.226l1.642,1.636v-9.071v-0.681V6.338c0-0.058-0.007-0.115-0.018-0.17
			c0.01-0.08,0.018-0.159,0.018-0.241c0-1.555-1.849-2.8-5.495-3.701C27.203,1.436,22.957,1,18.451,1S9.699,1.436,6.495,2.227
			C2.849,3.127,1,4.372,1,5.927c0,0.081,0.008,0.161,0.018,0.241C1.007,6.223,1,6.28,1,6.338v9.033v0.681v9.173v0.318v9.633
			c0,1.524,1.851,2.74,5.501,3.613c3.202,0.766,7.446,1.188,11.95,1.188s8.748-0.422,11.95-1.188
			c0.621-0.149,1.185-0.308,1.701-0.476L30.784,36.997z M18.451,2.642c4.378,0,8.484,0.419,11.562,1.179
			c3.483,0.86,4.246,1.812,4.246,2.106s-0.763,1.246-4.246,2.106c-3.078,0.76-7.185,1.179-11.562,1.179S9.967,8.794,6.889,8.034
			c-3.483-0.86-4.246-1.812-4.246-2.106s0.763-1.246,4.246-2.106C9.967,3.061,14.073,2.642,18.451,2.642z M30.019,18.069
			c-3.08,0.737-7.188,1.143-11.568,1.143s-8.488-0.406-11.568-1.143c-3.462-0.829-4.241-1.756-4.241-2.016V8.187
			c0.91,0.549,2.193,1.031,3.853,1.441c3.203,0.791,7.449,1.227,11.956,1.227s8.752-0.436,11.956-1.227
			c1.66-0.41,2.943-0.892,3.853-1.441v7.866C34.259,16.312,33.48,17.24,30.019,18.069z"/>
		<path class="st1" d="M34.235,38.706L41,31.941l-9.627-9.589H24.61v6.729L34.235,38.706z M26.253,28.4v-4.406h4.442l7.98,7.949
			l-4.44,4.44L26.253,28.4z"/>
	</g>
</g>
</svg>
