<svg id="Layer_1" data-name="Layer 1" xmlns="http://www.w3.org/2000/svg" viewBox="0 0 40.02 42"><defs><style>.cls-1{fill:#fff;}.cls-2{fill:#2c5967;}</style></defs><title>Technology - Database-Virtual</title><metadata><?xpacket begin="﻿" id="W5M0MpCehiHzreSzNTczkc9d"?>
<x:xmpmeta xmlns:x="adobe:ns:meta/" x:xmptk="Adobe XMP Core 6.0-c006 79.164648, 2021/01/12-15:52:29        ">
   <rdf:RDF xmlns:rdf="http://www.w3.org/1999/02/22-rdf-syntax-ns#">
      <rdf:Description rdf:about=""
            xmlns:xmp="http://ns.adobe.com/xap/1.0/"
            xmlns:xmpMM="http://ns.adobe.com/xap/1.0/mm/"
            xmlns:stEvt="http://ns.adobe.com/xap/1.0/sType/ResourceEvent#"
            xmlns:xmpRights="http://ns.adobe.com/xap/1.0/rights/"
            xmlns:dc="http://purl.org/dc/elements/1.1/"
            xmlns:lr="http://ns.adobe.com/lightroom/1.0/">
         <xmp:MetadataDate>2021-06-24T19:42:49-05:00</xmp:MetadataDate>
         <xmpMM:InstanceID>xmp.iid:859f1093-f11b-414f-b7c9-8d4cbccb7734</xmpMM:InstanceID>
         <xmpMM:DocumentID>xmp.did:6d76c6ff-3bd5-45f8-9aff-442eb6018a3e</xmpMM:DocumentID>
         <xmpMM:OriginalDocumentID>xmp.did:6d76c6ff-3bd5-45f8-9aff-442eb6018a3e</xmpMM:OriginalDocumentID>
         <xmpMM:History>
            <rdf:Seq>
               <rdf:li>
                  <rdf:Description>
                     <stEvt:action>saved</stEvt:action>
                     <stEvt:instanceID>xmp.iid:6d76c6ff-3bd5-45f8-9aff-442eb6018a3e</stEvt:instanceID>
                     <stEvt:when>2021-06-18T11:42:16-05:00</stEvt:when>
                     <stEvt:softwareAgent>Adobe Bridge 2021 (Macintosh)</stEvt:softwareAgent>
                     <stEvt:changed>/metadata</stEvt:changed>
                  </rdf:Description>
               </rdf:li>
               <rdf:li>
                  <rdf:Description>
                     <stEvt:action>saved</stEvt:action>
                     <stEvt:instanceID>xmp.iid:859f1093-f11b-414f-b7c9-8d4cbccb7734</stEvt:instanceID>
                     <stEvt:when>2021-06-24T19:42:49-05:00</stEvt:when>
                     <stEvt:softwareAgent>Adobe Bridge 2021 (Macintosh)</stEvt:softwareAgent>
                     <stEvt:changed>/metadata</stEvt:changed>
                  </rdf:Description>
               </rdf:li>
            </rdf:Seq>
         </xmpMM:History>
         <xmpRights:Marked>True</xmpRights:Marked>
         <dc:title>
            <rdf:Alt>
               <rdf:li xml:lang="x-default">Technology - Database-Virtual</rdf:li>
            </rdf:Alt>
         </dc:title>
         <dc:subject>
            <rdf:Bag>
               <rdf:li>icon</rdf:li>
               <rdf:li>technology</rdf:li>
               <rdf:li>Data</rdf:li>
            </rdf:Bag>
         </dc:subject>
         <dc:rights>
            <rdf:Alt>
               <rdf:li xml:lang="x-default">Oracle All Rights Reserved</rdf:li>
            </rdf:Alt>
         </dc:rights>
         <lr:hierarchicalSubject>
            <rdf:Bag>
               <rdf:li>icon</rdf:li>
               <rdf:li>technology</rdf:li>
               <rdf:li>Data</rdf:li>
            </rdf:Bag>
         </lr:hierarchicalSubject>
      </rdf:Description>
   </rdf:RDF>
</x:xmpmeta>
                                                                                                    
                                                                                                    
                                                                                                    
                                                                                                    
                                                                                                    
                                                                                                    
                                                                                                    
                                                                                                    
                                                                                                    
                                                                                                    
                                                                                   
<?xpacket end="w"?></metadata>
<path class="cls-1" d="M11.5,41.5a32.41,32.41,0,0,1-7.17-.71C1.75,40.17.5,39.22.5,37.89V21.13a1.36,1.36,0,0,1,0-.2c.2-1.24,1.44-2.09,3.81-2.67A26.53,26.53,0,0,1,9,17.61v-5a.88.88,0,0,1,0-.17c.2-1.26,1.45-2.12,3.81-2.69a26.73,26.73,0,0,1,4.69-.66v-5a1.36,1.36,0,0,1,0-.2l0-.1c.18-1.14,1.42-2,3.79-2.57A31.63,31.63,0,0,1,28.52.5a31.66,31.66,0,0,1,7.17.73c2.37.58,3.61,1.43,3.8,2.61a1.7,1.7,0,0,1,0,.26V20.86c0,1.33-1.25,2.28-3.83,2.89a25.73,25.73,0,0,1-3.76.58H31v5c0,1.34-1.26,2.28-3.84,2.9a25.92,25.92,0,0,1-4,.59h-.73v5c0,1.33-1.25,2.28-3.83,2.9A32.31,32.31,0,0,1,11.5,41.5Z"/><path class="cls-1" d="M28.52,1a30.6,30.6,0,0,1,7.05.72C37.72,2.24,38.84,3,39,3.92V4s0,.08,0,.12V20.86c0,1.06-1.13,1.85-3.45,2.41a26.31,26.31,0,0,1-3.68.56H30.5v5.54c0,1.07-1.12,1.86-3.44,2.41a26.17,26.17,0,0,1-3.88.58H22v5.53c0,1.06-1.13,1.85-3.45,2.41a31.82,31.82,0,0,1-7,.7,31.85,31.85,0,0,1-7-.7C2.13,39.74,1,39,1,37.89V21.13s0-.08,0-.12V21c.16-1,1.28-1.68,3.43-2.2a26.91,26.91,0,0,1,5.06-.67V12.61a.5.5,0,0,1,0-.12v-.05c.15-1,1.27-1.69,3.42-2.21A28.78,28.78,0,0,1,18,9.56V4.1S18,4,18,4V3.92c.16-1,1.28-1.68,3.43-2.2a30.57,30.57,0,0,1,7-.72m0-1a32.13,32.13,0,0,0-7.28.74c-1.64.4-3.85,1.15-4.17,3v.12a1.94,1.94,0,0,0,0,.24V8.62a27,27,0,0,0-4.31.64c-1.64.4-3.85,1.14-4.17,3v.13a1.79,1.79,0,0,0,0,.23v4.53a28.13,28.13,0,0,0-4.3.63c-1.64.4-3.85,1.15-4.17,3v.12a1.94,1.94,0,0,0,0,.24V37.89C0,40.26,3.17,41,4.22,41.27A32.7,32.7,0,0,0,11.5,42a32.67,32.67,0,0,0,7.27-.73c1.05-.25,4.22-1,4.22-3.38V33.36h.27a28.6,28.6,0,0,0,4-.6c1-.25,4.21-1,4.21-3.39V24.83H32a26.55,26.55,0,0,0,3.82-.59c1.05-.25,4.22-1,4.22-3.38V4.1a1.94,1.94,0,0,0,0-.24h0v0s0-.06,0-.08c-.31-1.85-2.53-2.6-4.17-3A32.16,32.16,0,0,0,28.52,0Z"/><path class="cls-2" d="M11.68,36.64a26.32,26.32,0,0,0,7.54-.94v1.64l-.51.14a30.46,30.46,0,0,1-7,.74ZM22,21s0,.08,0,.12V37.89c0,1.06-1.13,1.85-3.45,2.41a31.82,31.82,0,0,1-7,.7,31.85,31.85,0,0,1-7-.7C2.13,39.74,1,39,1,37.89V21.13s0-.08,0-.12V21c.16-1,1.28-1.68,3.43-2.2A30.6,30.6,0,0,1,11.5,18a30.57,30.57,0,0,1,7,.72C20.69,19.27,21.81,20,22,21V21m-19.36.18c.45.51,3.35,1.57,8.88,1.57s8.42-1.06,8.87-1.57c-.45-.52-3.35-1.58-8.87-1.58s-8.43,1.06-8.88,1.58m17.79,13a10.81,10.81,0,0,1-1.87.61,31.82,31.82,0,0,1-7,.7,31.85,31.85,0,0,1-7-.7,10.81,10.81,0,0,1-1.87-.61v3.69c.39.59,3.62,1.59,8.92,1.59s8.52-1,8.91-1.59Zm0-5.54a10.86,10.86,0,0,1-1.87.6,31.18,31.18,0,0,1-7,.71,31.21,31.21,0,0,1-7-.71,10.86,10.86,0,0,1-1.87-.6v3.68c.39.58,3.62,1.58,8.92,1.58s8.52-1,8.91-1.58Zm0-5.59a10.21,10.21,0,0,1-1.87.62,31.13,31.13,0,0,1-7,.72,31.16,31.16,0,0,1-7-.72A10.21,10.21,0,0,1,2.58,23v3.73c.39.58,3.62,1.58,8.92,1.58s8.52-1,8.91-1.58ZM39,4.1V20.86c0,1.06-1.13,1.85-3.45,2.41a26.31,26.31,0,0,1-3.68.56V22.24c3.29-.3,5.25-1,5.55-1.43v-3.7a10.81,10.81,0,0,1-1.87.61,26.31,26.31,0,0,1-3.68.56V16.69c3.29-.3,5.25-1,5.55-1.44V11.57a10.86,10.86,0,0,1-1.87.6,25,25,0,0,1-3.69.57v-.35a2.62,2.62,0,0,0-.42-1.21c3.55-.27,5.68-1,6-1.47V6a10.21,10.21,0,0,1-1.87.62,31.16,31.16,0,0,1-7,.72,31.13,31.13,0,0,1-7-.72A10.21,10.21,0,0,1,19.61,6V8.13H18v-4S18,4,18,4V3.92c.16-1,1.28-1.68,3.43-2.2a30.57,30.57,0,0,1,7-.72,30.6,30.6,0,0,1,7.05.72C37.72,2.24,38.84,3,39,3.92V4s0,.08,0,.12m-1.62.06c-.45-.52-3.35-1.58-8.88-1.58S20.1,3.64,19.65,4.16c.45.51,3.35,1.57,8.87,1.57S37,4.67,37.4,4.16m-25.72,23a31.06,31.06,0,0,0,7-.73l.51-.14V24.62a26.4,26.4,0,0,1-7.54.93ZM30.49,12.49a.49.49,0,0,1,0,.12V29.37c0,1.07-1.12,1.86-3.44,2.41a26.17,26.17,0,0,1-3.88.58V30.77c3.4-.29,5.44-1,5.74-1.45v-3.7a10.4,10.4,0,0,1-1.86.61,24,24,0,0,1-3.68.56V25.2c3.28-.3,5.25-1,5.54-1.43V20.08a10.4,10.4,0,0,1-1.86.61,26.71,26.71,0,0,1-3.69.56V20.9a2.88,2.88,0,0,0-.42-1.2c3.54-.28,5.67-1,6-1.47V14.5a11.2,11.2,0,0,1-1.86.62,31.27,31.27,0,0,1-7,.71,31.27,31.27,0,0,1-7-.71,11.2,11.2,0,0,1-1.86-.62v2.14H9.51v-4a.5.5,0,0,1,0-.12v-.05c.15-1,1.27-1.69,3.42-2.21A31.22,31.22,0,0,1,20,9.51a31.22,31.22,0,0,1,7,.72c2.15.52,3.27,1.25,3.42,2.21v.05m-1.6.18c-.45-.51-3.36-1.57-8.88-1.57s-8.43,1.06-8.88,1.57c.45.52,3.36,1.58,8.88,1.58s8.43-1.06,8.88-1.58m-17.21,20a31,31,0,0,0,7-.74l.51-.14V30.16a26.4,26.4,0,0,1-7.54.93Z"/></svg>