<?xml version="1.0" encoding="UTF-8"?><svg id="Layer_1" xmlns="http://www.w3.org/2000/svg" viewBox="0 0 42.41 32.02"><metadata><?xpacket begin="﻿" id="W5M0MpCehiHzreSzNTczkc9d"?>
<x:xmpmeta xmlns:x="adobe:ns:meta/" x:xmptk="Adobe XMP Core 7.1-c000 79.4d2f597, 2021/09/01-20:51:22        ">
   <rdf:RDF xmlns:rdf="http://www.w3.org/1999/02/22-rdf-syntax-ns#">
      <rdf:Description rdf:about=""
            xmlns:dc="http://purl.org/dc/elements/1.1/"
            xmlns:xmp="http://ns.adobe.com/xap/1.0/"
            xmlns:xmpMM="http://ns.adobe.com/xap/1.0/mm/"
            xmlns:stEvt="http://ns.adobe.com/xap/1.0/sType/ResourceEvent#"
            xmlns:lr="http://ns.adobe.com/lightroom/1.0/"
            xmlns:xmpRights="http://ns.adobe.com/xap/1.0/rights/">
         <dc:subject>
            <rdf:Bag>
               <rdf:li>technology</rdf:li>
               <rdf:li>data</rdf:li>
               <rdf:li>backup</rdf:li>
               <rdf:li>duplicate</rdf:li>
               <rdf:li>recovery</rdf:li>
               <rdf:li>icon</rdf:li>
            </rdf:Bag>
         </dc:subject>
         <dc:rights>
            <rdf:Alt>
               <rdf:li xml:lang="x-default">Oracle All Rights</rdf:li>
            </rdf:Alt>
         </dc:rights>
         <xmp:MetadataDate>2023-05-03T13:17:41-06:00</xmp:MetadataDate>
         <xmpMM:InstanceID>xmp.iid:eb066442-21dd-1248-92d7-3ddd562c67a1</xmpMM:InstanceID>
         <xmpMM:DocumentID>xmp.did:5b2d2cab-d17e-dc44-88e5-e0ba7d37aa15</xmpMM:DocumentID>
         <xmpMM:OriginalDocumentID>xmp.did:5b2d2cab-d17e-dc44-88e5-e0ba7d37aa15</xmpMM:OriginalDocumentID>
         <xmpMM:History>
            <rdf:Seq>
               <rdf:li>
                  <rdf:Description>
                     <stEvt:action>saved</stEvt:action>
                     <stEvt:instanceID>xmp.iid:5b2d2cab-d17e-dc44-88e5-e0ba7d37aa15</stEvt:instanceID>
                     <stEvt:when>2023-05-03T13:17-06:00</stEvt:when>
                     <stEvt:softwareAgent>Adobe Bridge 2023</stEvt:softwareAgent>
                     <stEvt:changed>/metadata</stEvt:changed>
                  </rdf:Description>
               </rdf:li>
               <rdf:li>
                  <rdf:Description>
                     <stEvt:action>saved</stEvt:action>
                     <stEvt:instanceID>xmp.iid:eb066442-21dd-1248-92d7-3ddd562c67a1</stEvt:instanceID>
                     <stEvt:when>2023-05-03T13:17:41-06:00</stEvt:when>
                     <stEvt:softwareAgent>Adobe Bridge 2023</stEvt:softwareAgent>
                     <stEvt:changed>/metadata</stEvt:changed>
                  </rdf:Description>
               </rdf:li>
            </rdf:Seq>
         </xmpMM:History>
         <lr:hierarchicalSubject>
            <rdf:Bag>
               <rdf:li>Other Keywords|icon</rdf:li>
            </rdf:Bag>
         </lr:hierarchicalSubject>
         <xmpRights:Marked>True</xmpRights:Marked>
      </rdf:Description>
   </rdf:RDF>
</x:xmpmeta>
                                                                                                    
                                                                                                    
                                                                                                    
                                                                                                    
                                                                                                    
                                                                                                    
                                                                                                    
                                                                                                    
                                                                                                    
                                                                                                    

<?xpacket end="w"?></metadata>
<defs><style>.cls-1{fill:#fff;}.cls-2{fill:#2d5967;}</style></defs><g><g><path class="cls-1" d="M31.62,18.54l1.87-1.99,1.79,1.69c-.71-8.38-7.79-15.01-16.33-15.01-.69,0-1.38,.04-2.07,.13l-.23,.03-.17-.16c-.56-.52-1.19-.98-1.85-1.35l-1.14-.64,1.28-.28c1.37-.3,2.77-.46,4.18-.46,10.02,0,18.35,7.85,19.07,17.72l1.76-1.76,1.93,1.93-4.97,4.97-5.12-4.83Z"/><path class="cls-1" d="M18.95,1c10.19,0,18.49,8.22,18.62,18.38l2.21-2.21,1.23,1.23-4.28,4.28-4.4-4.15,1.19-1.26,2.33,2.19c-.09-9.24-7.63-16.72-16.89-16.72-.72,0-1.43,.05-2.13,.13-.59-.55-1.24-1.02-1.94-1.42,1.32-.29,2.68-.44,4.07-.44m0-1c-1.45,0-2.89,.16-4.29,.47l-2.55,.57,2.28,1.28c.63,.35,1.21,.78,1.75,1.28l.34,.32,.46-.06c.67-.08,1.34-.12,2.01-.12,7.81,0,14.37,5.72,15.66,13.19l-.41-.39-.73-.69-.69,.73-1.19,1.26-.69,.73,.73,.69,4.4,4.15,.71,.67,.69-.69,4.28-4.28,.71-.71-.71-.71-1.23-1.23-.71-.71-.71,.71-.66,.66C37.17,7.5,28.87,0,18.95,0h0Z"/></g><g><path class="cls-1" d="M19.21,31.49c-.1,0-.18,0-.23,0-2.56,0-10.9-.26-10.9-3.65v-8.34C3.73,18.66,.5,14.78,.5,10.31,.5,5.14,4.71,.93,9.88,.93c4.23,0,7.88,2.79,9.02,6.83h.96c6.64,.12,10.01,1.29,10.01,3.5V27.99c0,2.2-3.37,3.38-10.01,3.5h-.65Z"/><path class="cls-1" d="M9.88,1.43c4.19,0,7.71,2.92,8.63,6.84,.2,0,.37,0,.46,0,.15,0,.46,0,.88,.01h0c3.43,.05,9.52,.5,9.52,2.99V27.99c0,2.48-6.09,2.94-9.52,3h0c-.42,0-.73,0-.88,0-1.06,0-10.4-.09-10.4-3.15v-8.76c-4.28-.63-7.58-4.32-7.58-8.77C1,5.42,4.98,1.43,9.88,1.43m0-1C4.43,.43,0,4.87,0,10.31c0,4.56,3.2,8.55,7.58,9.6v7.94c0,3.61,7.43,4.12,11.03,4.15v.02l1.26-.02c7.07-.13,10.5-1.43,10.5-4V11.26c0-2.57-3.44-3.87-10.5-4h-.6C17.95,3.2,14.2,.43,9.88,.43h0Z"/></g></g><path class="cls-2" d="M41,18.4l-4.28,4.28-4.4-4.15,1.19-1.26,2.33,2.19c-.09-9.24-7.63-16.72-16.89-16.72-.72,0-1.43,.05-2.13,.13-.59-.55-1.24-1.02-1.94-1.42,1.32-.29,2.68-.44,4.07-.44,10.19,0,18.49,8.22,18.62,18.38l2.21-2.21,1.23,1.23Z"/><path class="cls-2" d="M27.64,22.31v.09c0-.06,.02-.11,.03-.12,0,.01-.02,.02-.03,.03Zm0-5.49v.09c0-.06,.02-.11,.03-.12,0,.01-.02,.02-.03,.03Zm0-5.44v.09c0-.06,.02-.11,.03-.12,0,.01-.02,.02-.03,.03ZM10.29,22.28s.03,.05,.03,.12v-.09s-.02-.02-.03-.03Z"/><path class="cls-2" d="M19.85,8.26c.12,.56,.19,1.15,.2,1.74,4.67,.1,7.18,.89,7.59,1.34v.03s.02-.02,.03-.03c0,.01-.03,.05-.03,.12v-.09c-.42,.53-3.3,1.4-7.9,1.49-.16,.6-.37,1.18-.63,1.74,1.11,0,5.9-.1,8.53-1.25v3.46s.02-.02,.03-.03c0,.01-.03,.06-.03,.12v-.09c-.44,.56-3.62,1.5-8.66,1.5-.97,0-1.87-.03-2.69-.1-.74,.6-1.56,1.1-2.45,1.47,2.32,.34,4.64,.36,5.14,.36,.77,0,5.91-.05,8.66-1.25v3.5s.02-.02,.03-.03c0,.01-.03,.05-.03,.12v-.09c-.44,.56-3.62,1.5-8.66,1.5s-8.22-.94-8.66-1.5v.09c0-.06-.02-.11-.03-.12,0,.01,.02,.02,.03,.03v-1.83c-.14,0-.29,.01-.43,.01-.44,0-.87-.03-1.3-.08v7.44c0,3.06,9.33,3.15,10.4,3.15s10.4-.09,10.4-3.15V11.26c0-2.48-6.09-2.94-9.52-3Zm7.79,19.5c-.46,.56-3.63,1.5-8.66,1.5s-8.2-.94-8.66-1.5v-3.47c2.75,1.2,7.89,1.25,8.66,1.25s5.91-.05,8.66-1.25v3.47Z"/><path class="cls-2" d="M10.31,22.31v.09c0-.06-.02-.11-.03-.12,0,.01,.02,.02,.03,.03Z"/><path class="cls-2" d="M27.66,22.28s-.03,.05-.03,.12v-.09s.02-.02,.03-.03Z"/><path class="cls-2" d="M27.66,16.78s-.03,.06-.03,.12v-.09s.02-.02,.03-.03Z"/><path class="cls-2" d="M27.66,11.34s-.03,.05-.03,.12v-.09s.02-.02,.03-.03Z"/><path class="cls-2" d="M9.88,1.43C4.98,1.43,1,5.42,1,10.31s3.98,8.88,8.88,8.88,8.88-3.98,8.88-8.88S14.77,1.43,9.88,1.43Zm0,16.03c-3.94,0-7.15-3.21-7.15-7.15S5.94,3.17,9.88,3.17s7.15,3.21,7.15,7.15-3.21,7.15-7.15,7.15Z"/><path class="cls-2" d="M13.95,13.17l-1.23,1.23-3.47-3.47c-.16-.16-.25-.38-.25-.61V6.2h1.73v3.76l3.21,3.21Z"/></svg>