<svg id="Layer_1" data-name="Layer 1" xmlns="http://www.w3.org/2000/svg" viewBox="0 0 28.57 42"><title>Database Administrator</title><metadata><?xpacket begin="﻿" id="W5M0MpCehiHzreSzNTczkc9d"?>
<x:xmpmeta xmlns:x="adobe:ns:meta/" x:xmptk="Adobe XMP Core 6.0-c006 79.164648, 2021/01/12-15:52:29        ">
   <rdf:RDF xmlns:rdf="http://www.w3.org/1999/02/22-rdf-syntax-ns#">
      <rdf:Description rdf:about=""
            xmlns:xmpRights="http://ns.adobe.com/xap/1.0/rights/"
            xmlns:xmp="http://ns.adobe.com/xap/1.0/"
            xmlns:xmpMM="http://ns.adobe.com/xap/1.0/mm/"
            xmlns:stEvt="http://ns.adobe.com/xap/1.0/sType/ResourceEvent#"
            xmlns:dc="http://purl.org/dc/elements/1.1/"
            xmlns:lr="http://ns.adobe.com/lightroom/1.0/">
         <xmpRights:Marked>True</xmpRights:Marked>
         <xmp:MetadataDate>2022-01-29T10:33:07-06:00</xmp:MetadataDate>
         <xmpMM:InstanceID>xmp.iid:d27a4c35-7a0e-4b76-bcf0-985ae6530cf8</xmpMM:InstanceID>
         <xmpMM:DocumentID>xmp.did:ce7a33e6-e15f-684c-8411-0d39ada8fa0e</xmpMM:DocumentID>
         <xmpMM:OriginalDocumentID>xmp.did:ce7a33e6-e15f-684c-8411-0d39ada8fa0e</xmpMM:OriginalDocumentID>
         <xmpMM:History>
            <rdf:Seq>
               <rdf:li>
                  <rdf:Description>
                     <stEvt:action>saved</stEvt:action>
                     <stEvt:instanceID>xmp.iid:ce7a33e6-e15f-684c-8411-0d39ada8fa0e</stEvt:instanceID>
                     <stEvt:when>2022-01-28T20:44:43-06:00</stEvt:when>
                     <stEvt:softwareAgent>Adobe Bridge 2020 (Windows)</stEvt:softwareAgent>
                     <stEvt:changed>/metadata</stEvt:changed>
                  </rdf:Description>
               </rdf:li>
               <rdf:li>
                  <rdf:Description>
                     <stEvt:action>saved</stEvt:action>
                     <stEvt:instanceID>xmp.iid:d27a4c35-7a0e-4b76-bcf0-985ae6530cf8</stEvt:instanceID>
                     <stEvt:when>2022-01-29T10:33:07-06:00</stEvt:when>
                     <stEvt:softwareAgent>Adobe Bridge 2021 (Macintosh)</stEvt:softwareAgent>
                     <stEvt:changed>/metadata</stEvt:changed>
                  </rdf:Description>
               </rdf:li>
            </rdf:Seq>
         </xmpMM:History>
         <dc:title>
            <rdf:Alt>
               <rdf:li xml:lang="x-default">Database Administrator</rdf:li>
            </rdf:Alt>
         </dc:title>
         <dc:rights>
            <rdf:Alt>
               <rdf:li xml:lang="x-default">Oracle, All rights reserved</rdf:li>
            </rdf:Alt>
         </dc:rights>
         <dc:subject>
            <rdf:Bag>
               <rdf:li>icon</rdf:li>
               <rdf:li>user</rdf:li>
               <rdf:li>person</rdf:li>
               <rdf:li>persona</rdf:li>
               <rdf:li>data</rdf:li>
               <rdf:li>men</rdf:li>
               <rdf:li>man</rdf:li>
            </rdf:Bag>
         </dc:subject>
         <lr:hierarchicalSubject>
            <rdf:Bag>
               <rdf:li>icon</rdf:li>
               <rdf:li>Other Keywords|user</rdf:li>
               <rdf:li>Other Keywords|person</rdf:li>
               <rdf:li>Other Keywords|persona</rdf:li>
               <rdf:li>men</rdf:li>
               <rdf:li>man</rdf:li>
            </rdf:Bag>
         </lr:hierarchicalSubject>
      </rdf:Description>
   </rdf:RDF>
</x:xmpmeta>
                                                                                                    
                                                                                                    
                                                                                                    
                                                                                                    
                                                                                                    
                                                                                                    
                                                                                                    
                                    
<?xpacket end="w"?></metadata>
<path d="M14.25,41.5c-2,0-8.42-.21-8.42-3V28.62H.5V23.77A7.46,7.46,0,0,1,8,16.32H9.6v-2A6.33,6.33,0,0,1,7.76,9.8l0-4.26c0-3.11,1.8-5,4.69-5h8.32l0,9.22A6.52,6.52,0,0,1,19,14.21v2.12h1.65a7.46,7.46,0,0,1,7.45,7.45v4.85h-5.4v9.91C22.67,41.29,16.23,41.5,14.25,41.5Z" fill="#fff"/><path d="M20.29,1v.73l0,8A6,6,0,0,1,18.47,14v2.82h2.15a7,7,0,0,1,7,7v4.35h-5.4V38.53c0,2.4-7.11,2.47-7.92,2.47s-7.92-.07-7.92-2.47V28.12H1V23.77a7,7,0,0,1,7-6.95H10.1V14.07A5.91,5.91,0,0,1,8.26,9.8l0-4.25h0C8.28,2.7,9.85,1,12.47,1h7.82m1-1H12.47C9.27,0,7.28,2.13,7.28,5.55l0,4.25A6.85,6.85,0,0,0,9.1,14.48v1.35H8a8,8,0,0,0-8,8v5.35H5.33v9.41c0,3,5.59,3.47,8.92,3.47s8.92-.45,8.92-3.47V29.12h5.4V23.77a8,8,0,0,0-7.95-7.95H19.47V14.41a7,7,0,0,0,1.84-4.69l0-8V0Z" fill="#fff"/><path d="M18.8,2.46H12.47A2.43,2.43,0,0,0,9.78,4.82h6.69C17,4.82,18.54,4.82,18.8,2.46Z" fill="none"/><path d="M14.29,14.29a4.63,4.63,0,0,0,4.57-4.56V5.52a3.75,3.75,0,0,1-2.38.76H9.73l0,3.52A4.55,4.55,0,0,0,14.29,14.29Z" fill="none"/><path d="M14.29,15.74a6,6,0,0,1-2.73-.65v2L14.29,20,17,17.09v-2A5.89,5.89,0,0,1,14.29,15.74Z" fill="none"/><path d="M20.62,16.82H18.47V14a6,6,0,0,0,1.84-4.29l0-8V1H12.47C9.85,1,8.28,2.7,8.28,5.55h0l0,4.25a5.91,5.91,0,0,0,1.84,4.27v2.76H8a7,7,0,0,0-6.95,7v4.35H2.46V23.77A5.49,5.49,0,0,1,8,18.28h2.74l3.6,3.79,3.6-3.79h2.73a5.5,5.5,0,0,1,5.5,5.49v4.35h1.45V23.77A7,7,0,0,0,20.62,16.82ZM12.47,2.46H18.8C18.54,4.82,17,4.82,16.47,4.82H9.78A2.43,2.43,0,0,1,12.47,2.46ZM9.71,9.8l0-3.52h6.74a3.75,3.75,0,0,0,2.38-.76V9.73a4.63,4.63,0,0,1-4.57,4.56A4.55,4.55,0,0,1,9.71,9.8ZM14.29,20l-2.73-2.87v-2a6,6,0,0,0,2.73.65A5.89,5.89,0,0,0,17,15.07v2Z" fill="#2c5967"/><path d="M20.71,35.81a21.05,21.05,0,0,1-6.46.92,21.05,21.05,0,0,1-6.46-.92v2.63c.37.39,2.6,1.1,6.46,1.1s6.09-.71,6.46-1.1Z" fill="#fff"/><path d="M7.79,31.6v2.57c.37.39,2.6,1.1,6.46,1.1s6.09-.71,6.46-1.1V31.6a20.74,20.74,0,0,1-6.46.92A20.74,20.74,0,0,1,7.79,31.6Z" fill="#fff"/><path d="M7.79,27.25V30c.37.4,2.6,1.11,6.46,1.11s6.09-.71,6.46-1.11V27.25a21,21,0,0,1-6.46.91A21,21,0,0,1,7.79,27.25Z" fill="#fff"/><path d="M7.9,25.7c.61.4,2.78,1,6.35,1s5.74-.61,6.35-1c-.61-.4-2.78-1-6.35-1S8.51,25.3,7.9,25.7Z" fill="#fff"/><path d="M14.25,23.25c-.81,0-7.92.07-7.92,2.45a.15.15,0,0,0,0,.07s0,0,0,0V38.53c0,2.4,7.11,2.47,7.92,2.47s7.92-.07,7.92-2.47V25.8a0,0,0,0,0,0,0,.15.15,0,0,0,0-.07C22.17,23.32,15.06,23.25,14.25,23.25ZM7.79,38.44V35.81a21.05,21.05,0,0,0,6.46.92,21.05,21.05,0,0,0,6.46-.92v2.63c-.37.39-2.6,1.1-6.46,1.1S8.16,38.83,7.79,38.44Zm12.92-4.27c-.37.39-2.6,1.1-6.46,1.1s-6.09-.71-6.46-1.1V31.6a20.74,20.74,0,0,0,6.46.92,20.74,20.74,0,0,0,6.46-.92Zm0-4.21c-.37.4-2.6,1.11-6.46,1.11S8.16,30.36,7.79,30V27.25a21,21,0,0,0,6.46.91,21,21,0,0,0,6.46-.91ZM20.6,25.7c-.61.4-2.78,1-6.35,1s-5.74-.61-6.35-1c.61-.4,2.78-1,6.35-1S20,25.3,20.6,25.7Z" fill="#2c5967"/></svg>