<svg id="Layer_1" data-name="Layer 1" xmlns="http://www.w3.org/2000/svg" viewBox="0 0 42.08 38.05"><title>Identity Cloud Service-Male</title><metadata><?xpacket begin="﻿" id="W5M0MpCehiHzreSzNTczkc9d"?>
<x:xmpmeta xmlns:x="adobe:ns:meta/" x:xmptk="Adobe XMP Core 6.0-c006 79.164648, 2021/01/12-15:52:29        ">
   <rdf:RDF xmlns:rdf="http://www.w3.org/1999/02/22-rdf-syntax-ns#">
      <rdf:Description rdf:about=""
            xmlns:xmpRights="http://ns.adobe.com/xap/1.0/rights/"
            xmlns:xmp="http://ns.adobe.com/xap/1.0/"
            xmlns:xmpMM="http://ns.adobe.com/xap/1.0/mm/"
            xmlns:stEvt="http://ns.adobe.com/xap/1.0/sType/ResourceEvent#"
            xmlns:dc="http://purl.org/dc/elements/1.1/"
            xmlns:lr="http://ns.adobe.com/lightroom/1.0/">
         <xmpRights:Marked>True</xmpRights:Marked>
         <xmp:MetadataDate>2022-01-29T10:33:07-06:00</xmp:MetadataDate>
         <xmpMM:InstanceID>xmp.iid:2344feee-93d4-4eb6-893a-a435395d09cb</xmpMM:InstanceID>
         <xmpMM:DocumentID>xmp.did:f78b01e6-7571-0a47-a871-b382af7a8ccb</xmpMM:DocumentID>
         <xmpMM:OriginalDocumentID>xmp.did:f78b01e6-7571-0a47-a871-b382af7a8ccb</xmpMM:OriginalDocumentID>
         <xmpMM:History>
            <rdf:Seq>
               <rdf:li>
                  <rdf:Description>
                     <stEvt:action>saved</stEvt:action>
                     <stEvt:instanceID>xmp.iid:f78b01e6-7571-0a47-a871-b382af7a8ccb</stEvt:instanceID>
                     <stEvt:when>2022-01-28T20:44:44-06:00</stEvt:when>
                     <stEvt:softwareAgent>Adobe Bridge 2020 (Windows)</stEvt:softwareAgent>
                     <stEvt:changed>/metadata</stEvt:changed>
                  </rdf:Description>
               </rdf:li>
               <rdf:li>
                  <rdf:Description>
                     <stEvt:action>saved</stEvt:action>
                     <stEvt:instanceID>xmp.iid:2344feee-93d4-4eb6-893a-a435395d09cb</stEvt:instanceID>
                     <stEvt:when>2022-01-29T10:33:07-06:00</stEvt:when>
                     <stEvt:softwareAgent>Adobe Bridge 2021 (Macintosh)</stEvt:softwareAgent>
                     <stEvt:changed>/metadata</stEvt:changed>
                  </rdf:Description>
               </rdf:li>
            </rdf:Seq>
         </xmpMM:History>
         <dc:title>
            <rdf:Alt>
               <rdf:li xml:lang="x-default">Identity Cloud Service-Male</rdf:li>
            </rdf:Alt>
         </dc:title>
         <dc:rights>
            <rdf:Alt>
               <rdf:li xml:lang="x-default">Oracle, All rights reserved</rdf:li>
            </rdf:Alt>
         </dc:rights>
         <dc:subject>
            <rdf:Bag>
               <rdf:li>icon</rdf:li>
               <rdf:li>user</rdf:li>
               <rdf:li>person</rdf:li>
               <rdf:li>persona</rdf:li>
               <rdf:li>profile</rdf:li>
               <rdf:li>account</rdf:li>
               <rdf:li>ID</rdf:li>
               <rdf:li>men</rdf:li>
               <rdf:li>man</rdf:li>
            </rdf:Bag>
         </dc:subject>
         <lr:hierarchicalSubject>
            <rdf:Bag>
               <rdf:li>icon</rdf:li>
               <rdf:li>Other Keywords|user</rdf:li>
               <rdf:li>Other Keywords|person</rdf:li>
               <rdf:li>Other Keywords|persona</rdf:li>
               <rdf:li>ID</rdf:li>
               <rdf:li>men</rdf:li>
               <rdf:li>man</rdf:li>
            </rdf:Bag>
         </lr:hierarchicalSubject>
      </rdf:Description>
   </rdf:RDF>
</x:xmpmeta>
                                                                                                    
                                                                                                    
                                                                                                    
                                                                                                    
                                                                                                    
                                                                                                    
                        
<?xpacket end="w"?></metadata>
<path d="M20.49,37.19c-6.18-3.1-9.9-7.94-10.2-13.28V21.48H.54L.65,20A9.87,9.87,0,0,1,6,12,2.37,2.37,0,0,0,7.2,10.28a7.59,7.59,0,0,1,7.46-6.13,5.48,5.48,0,0,1,.7,0h.24a2.26,2.26,0,0,0,1.68-.72A9.31,9.31,0,0,1,32.44,5.65,2.42,2.42,0,0,0,34.12,7a9.55,9.55,0,0,1,6.32,13.82l-.38.71H31.91v2.4c-.3,5.37-4,10.21-10.2,13.31l-.61.3Z" fill="#fff"/><path d="M24.11,1A8.76,8.76,0,0,1,32,5.88a2.94,2.94,0,0,0,2,1.56,9.16,9.16,0,0,1,2.86,1.18A9,9,0,0,1,40,20.53l-.24.45H31.41v2.9c-.29,5.16-3.91,9.85-9.93,12.86l-.38.19-.39-.19c-6-3-9.63-7.7-9.92-12.86V21H1.08l.07-.92a9.4,9.4,0,0,1,5-7.67,2.91,2.91,0,0,0,1.52-2,7.09,7.09,0,0,1,4.1-5.13,7.22,7.22,0,0,1,2.86-.6l.66,0,.29,0a2.8,2.8,0,0,0,2-.88A8.85,8.85,0,0,1,24.11,1m0-1a9.82,9.82,0,0,0-7.19,3.14,1.78,1.78,0,0,1-1.31.56h-.2a6.28,6.28,0,0,0-.75,0,8.12,8.12,0,0,0-7.95,6.54,1.91,1.91,0,0,1-1,1.32A10.41,10.41,0,0,0,.15,20l-.07.92L0,22H9.79v1.85h0v.07c.32,5.56,4.13,10.55,10.48,13.73l.38.19.45.22.45-.22.38-.19c6.35-3.18,10.17-8.18,10.48-13.7V22h8l.28-.52.24-.45A10.06,10.06,0,0,0,37.4,7.77a9.74,9.74,0,0,0-3.17-1.3,2,2,0,0,1-1.34-1A9.77,9.77,0,0,0,24.11,0Z" fill="#fff"/><path d="M24.53,25.35H24.1V24.2a4.46,4.46,0,0,0,1.29-3.1V14.94l-.28-.12H19.8c-2,0-3.22,1.31-3.22,3.44v3a4.15,4.15,0,0,0,1.29,3v1.1h-.23a4.52,4.52,0,0,0-3.17,1.31,10.76,10.76,0,0,0,.85,1.65,2.87,2.87,0,0,1,2.33-1.25h.73a3.9,3.9,0,0,0,2.62,1h0a3.88,3.88,0,0,0,2.6-1h.92a2.56,2.56,0,0,1,2.26,1.39,10.2,10.2,0,0,0,.9-1.69A4.26,4.26,0,0,0,24.53,25.35ZM19.8,16.54h3.77a1.12,1.12,0,0,1-1.19.86h-4A1.29,1.29,0,0,1,19.8,16.54Zm2.58,9.33a2.18,2.18,0,0,1-1.38.5h0a2.17,2.17,0,0,1-1.41-.52v-.56a4.4,4.4,0,0,0,1.42.23,4.15,4.15,0,0,0,1.37-.23Zm1.29-4.77A2.72,2.72,0,0,1,21,23.8a2.64,2.64,0,0,1-2.71-2.54V19.11h4.08a3.13,3.13,0,0,0,1.29-.25Z" fill="#2c5967"/><path d="M36.87,8.62A9.16,9.16,0,0,0,34,7.44a2.94,2.94,0,0,1-2-1.56A8.76,8.76,0,0,0,24.11,1a8.85,8.85,0,0,0-6.46,2.82,2.78,2.78,0,0,1-2.33.86,7.21,7.21,0,0,0-3.52.57,7.09,7.09,0,0,0-4.1,5.13,2.91,2.91,0,0,1-1.52,2,9.4,9.4,0,0,0-5,7.67L1.08,21H9.5V19.26H3a7.7,7.7,0,0,1,4-5.34,4.6,4.6,0,0,0,2.4-3.21,5.37,5.37,0,0,1,3.11-3.88,5.42,5.42,0,0,1,2.66-.44A4.49,4.49,0,0,0,18.91,5a7.12,7.12,0,0,1,5.2-2.27,7,7,0,0,1,6.34,3.92,4.7,4.7,0,0,0,3.19,2.48,7.3,7.3,0,0,1,5.07,10.14h-6V21h7.06l.24-.45A9,9,0,0,0,36.87,8.62Z" fill="#2c5967"/><path d="M10.79,14.25v9.63c.29,5.16,3.91,9.85,9.92,12.86l.39.19.38-.19c6-3,9.64-7.7,9.93-12.86V14.25L21.1,9.83ZM29.7,23.8c-.27,4.42-3.39,8.48-8.6,11.21-5.21-2.73-8.33-6.79-8.59-11.21V15.38L21.1,11.7l8.6,3.68Z" fill="#2c5967"/></svg>