<svg id="Layer_1" data-name="Layer 1" xmlns="http://www.w3.org/2000/svg" viewBox="0 0 40.27 40"><title>Other - Services - Demand-Management-Cloud-Service</title><metadata><?xpacket begin="﻿" id="W5M0MpCehiHzreSzNTczkc9d"?>
<x:xmpmeta xmlns:x="adobe:ns:meta/" x:xmptk="Adobe XMP Core 6.0-c006 79.164648, 2021/01/12-15:52:29        ">
   <rdf:RDF xmlns:rdf="http://www.w3.org/1999/02/22-rdf-syntax-ns#">
      <rdf:Description rdf:about=""
            xmlns:dc="http://purl.org/dc/elements/1.1/"
            xmlns:lr="http://ns.adobe.com/lightroom/1.0/"
            xmlns:xmp="http://ns.adobe.com/xap/1.0/"
            xmlns:xmpMM="http://ns.adobe.com/xap/1.0/mm/"
            xmlns:stEvt="http://ns.adobe.com/xap/1.0/sType/ResourceEvent#"
            xmlns:xmpRights="http://ns.adobe.com/xap/1.0/rights/">
         <dc:title>
            <rdf:Alt>
               <rdf:li xml:lang="x-default">Other - Services - Demand-Management-Cloud-Service</rdf:li>
            </rdf:Alt>
         </dc:title>
         <dc:subject>
            <rdf:Bag>
               <rdf:li>icon</rdf:li>
               <rdf:li>file</rdf:li>
               <rdf:li>document</rdf:li>
            </rdf:Bag>
         </dc:subject>
         <dc:rights>
            <rdf:Alt>
               <rdf:li xml:lang="x-default">Oracle All Rights Reserved</rdf:li>
            </rdf:Alt>
         </dc:rights>
         <lr:hierarchicalSubject>
            <rdf:Bag>
               <rdf:li>icon</rdf:li>
               <rdf:li>file</rdf:li>
               <rdf:li>document</rdf:li>
            </rdf:Bag>
         </lr:hierarchicalSubject>
         <xmp:MetadataDate>2021-11-23T13:28:06-06:00</xmp:MetadataDate>
         <xmpMM:InstanceID>xmp.iid:eec34984-57b3-4c8c-862c-1976dbb39487</xmpMM:InstanceID>
         <xmpMM:DocumentID>xmp.did:4a43766f-a73c-894f-a932-17d3c5999465</xmpMM:DocumentID>
         <xmpMM:OriginalDocumentID>xmp.did:4a43766f-a73c-894f-a932-17d3c5999465</xmpMM:OriginalDocumentID>
         <xmpMM:History>
            <rdf:Seq>
               <rdf:li>
                  <rdf:Description>
                     <stEvt:action>saved</stEvt:action>
                     <stEvt:instanceID>xmp.iid:4a43766f-a73c-894f-a932-17d3c5999465</stEvt:instanceID>
                     <stEvt:when>2021-11-22T15:45:01-06:00</stEvt:when>
                     <stEvt:softwareAgent>Adobe Bridge 2020 (Windows)</stEvt:softwareAgent>
                     <stEvt:changed>/metadata</stEvt:changed>
                  </rdf:Description>
               </rdf:li>
               <rdf:li>
                  <rdf:Description>
                     <stEvt:action>saved</stEvt:action>
                     <stEvt:instanceID>xmp.iid:eec34984-57b3-4c8c-862c-1976dbb39487</stEvt:instanceID>
                     <stEvt:when>2021-11-23T13:28:06-06:00</stEvt:when>
                     <stEvt:softwareAgent>Adobe Bridge 2021 (Macintosh)</stEvt:softwareAgent>
                     <stEvt:changed>/metadata</stEvt:changed>
                  </rdf:Description>
               </rdf:li>
            </rdf:Seq>
         </xmpMM:History>
         <xmpRights:Marked>True</xmpRights:Marked>
      </rdf:Description>
   </rdf:RDF>
</x:xmpmeta>
                                                                                                    
                                                                                                    
                                                                                                    
                                                                                                    
                                                                                                    
                                                                                                    
                                                                                                    
                                                                                                    
                                                                                                    
                                                                                                    
                                                                                       
<?xpacket end="w"?></metadata>
<path d="M35.79,7.44a9.42,9.42,0,0,0-3-1.26,1.86,1.86,0,0,1-1.27-1A9.34,9.34,0,0,0,23.07,0a9.46,9.46,0,0,0-6.89,3,1.67,1.67,0,0,1-1.24.53h-.18a5.85,5.85,0,0,0-.73,0A7.77,7.77,0,0,0,6.42,9.76,1.81,1.81,0,0,1,5.48,11,10,10,0,0,0,.14,19.13L.08,20l-.08,1H38.62l.28-.51.23-.44A9.61,9.61,0,0,0,35.79,7.44Z" fill="#fff"/><path d="M38,20.08H34.4V18.44H37a7,7,0,0,0-4.85-9.7,4.45,4.45,0,0,1-3-2.37,6.78,6.78,0,0,0-11-1.58,4.3,4.3,0,0,1-3.59,1.34A5.06,5.06,0,0,0,12,6.55a5.14,5.14,0,0,0-3,3.71,4.42,4.42,0,0,1-2.3,3.07,7.33,7.33,0,0,0-3.82,5.11H6.46v1.64H1.05l.07-.88a9,9,0,0,1,4.81-7.33A2.77,2.77,0,0,0,7.38,9.94,6.77,6.77,0,0,1,14.67,4.5a2.67,2.67,0,0,0,2.23-.83,8.43,8.43,0,0,1,13.71,2,2.86,2.86,0,0,0,1.93,1.5,8.47,8.47,0,0,1,2.73,1.12,8.64,8.64,0,0,1,3,11.39Z" fill="#2d5967"/><path d="M31.69,15.1H18.58l-1-1.36a2.45,2.45,0,0,0-2-1H9.16A2.45,2.45,0,0,0,6.71,15.2V35H34.14V17.55A2.45,2.45,0,0,0,31.69,15.1Z" fill="#fff"/><path d="M31.69,16.08H18.09l-1.3-1.76a1.49,1.49,0,0,0-1.18-.59H9.16A1.47,1.47,0,0,0,7.69,15.2V34.05H33.16V17.55A1.47,1.47,0,0,0,31.69,16.08Zm-16.17-.71,1.14,1.53-1.13,1.51H9.33v-3Zm16,17H9.33V20.05h6.28a1.49,1.49,0,0,0,1.18-.59l1.31-1.74H31.52Z" fill="#2d5967"/><rect x="15.5" y="30.97" width="4.11" height="6.99" fill="#fff"/><rect x="18.37" y="28.92" width="4.11" height="9.04" fill="#fff"/><rect x="21.25" y="29.94" width="4.11" height="8.01" fill="#fff"/><polygon points="28.03 20.55 13.03 20.55 11.81 20.55 11.81 21.52 11.81 38.78 11.81 40 13.03 40 28.03 40 29.25 40 29.25 39.02 29.25 21.52 29.25 20.55 28.03 20.55" fill="#fff"/><path d="M13,21.52V38.78H28V21.52ZM26.38,37.13H24.12V29.94H22.48v7.19H21.25V32H19.6v5.13H18.37V34.05H16.73v3.08H14.67v-14H26.38Z" fill="#2d5967"/><polygon points="17.55 32.32 22.48 27.24 22.48 28.71 24.12 28.71 24.12 24.4 19.81 24.4 19.81 26.04 21.36 26.04 16.37 31.18 17.55 32.32" fill="#2d5967"/></svg>