<svg id="Layer_1" data-name="Layer 1" xmlns="http://www.w3.org/2000/svg" viewBox="0 0 42 42"><defs><style>.cls-1{fill:#fff;}.cls-2{fill:#2c5967;}</style></defs><title>Oracle Key Vault (OKV) Install</title><metadata><?xpacket begin="﻿" id="W5M0MpCehiHzreSzNTczkc9d"?>
<x:xmpmeta xmlns:x="adobe:ns:meta/" x:xmptk="Adobe XMP Core 6.0-c006 79.164648, 2021/01/12-15:52:29        ">
   <rdf:RDF xmlns:rdf="http://www.w3.org/1999/02/22-rdf-syntax-ns#">
      <rdf:Description rdf:about=""
            xmlns:xmpRights="http://ns.adobe.com/xap/1.0/rights/"
            xmlns:xmp="http://ns.adobe.com/xap/1.0/"
            xmlns:xmpMM="http://ns.adobe.com/xap/1.0/mm/"
            xmlns:stEvt="http://ns.adobe.com/xap/1.0/sType/ResourceEvent#"
            xmlns:dc="http://purl.org/dc/elements/1.1/"
            xmlns:lr="http://ns.adobe.com/lightroom/1.0/">
         <xmpRights:Marked>True</xmpRights:Marked>
         <xmp:MetadataDate>2021-07-22T15:10:37-05:00</xmp:MetadataDate>
         <xmpMM:InstanceID>xmp.iid:b219f9ae-8844-496d-a1a6-1f8c47a02429</xmpMM:InstanceID>
         <xmpMM:DocumentID>xmp.did:2b80a8b4-1e1e-4ceb-89b3-f4288a63704b</xmpMM:DocumentID>
         <xmpMM:OriginalDocumentID>xmp.did:2b80a8b4-1e1e-4ceb-89b3-f4288a63704b</xmpMM:OriginalDocumentID>
         <xmpMM:History>
            <rdf:Seq>
               <rdf:li>
                  <rdf:Description>
                     <stEvt:action>saved</stEvt:action>
                     <stEvt:instanceID>xmp.iid:2b80a8b4-1e1e-4ceb-89b3-f4288a63704b</stEvt:instanceID>
                     <stEvt:when>2021-06-23T15:54:02-05:00</stEvt:when>
                     <stEvt:softwareAgent>Adobe Bridge 2021 (Macintosh)</stEvt:softwareAgent>
                     <stEvt:changed>/metadata</stEvt:changed>
                  </rdf:Description>
               </rdf:li>
               <rdf:li>
                  <rdf:Description>
                     <stEvt:action>saved</stEvt:action>
                     <stEvt:instanceID>xmp.iid:b219f9ae-8844-496d-a1a6-1f8c47a02429</stEvt:instanceID>
                     <stEvt:when>2021-07-22T15:10:37-05:00</stEvt:when>
                     <stEvt:softwareAgent>Adobe Bridge 2021 (Macintosh)</stEvt:softwareAgent>
                     <stEvt:changed>/metadata</stEvt:changed>
                  </rdf:Description>
               </rdf:li>
            </rdf:Seq>
         </xmpMM:History>
         <dc:title>
            <rdf:Alt>
               <rdf:li xml:lang="x-default">Oracle Key Vault (OKV) Install</rdf:li>
            </rdf:Alt>
         </dc:title>
         <dc:rights>
            <rdf:Alt>
               <rdf:li xml:lang="x-default">Oracle All Rights Reserved</rdf:li>
            </rdf:Alt>
         </dc:rights>
         <dc:subject>
            <rdf:Bag>
               <rdf:li>icon</rdf:li>
               <rdf:li>Protection</rdf:li>
               <rdf:li>Security</rdf:li>
               <rdf:li>installation</rdf:li>
               <rdf:li>technology</rdf:li>
               <rdf:li>OKV</rdf:li>
            </rdf:Bag>
         </dc:subject>
         <lr:hierarchicalSubject>
            <rdf:Bag>
               <rdf:li>icon</rdf:li>
               <rdf:li>Protection</rdf:li>
               <rdf:li>Security</rdf:li>
               <rdf:li>installation</rdf:li>
               <rdf:li>technology</rdf:li>
            </rdf:Bag>
         </lr:hierarchicalSubject>
      </rdf:Description>
   </rdf:RDF>
</x:xmpmeta>
                                                                                                    
                                                                                                    
                                                                                                    
                                                                                                    
                                                                                                    
                                                                                                    
                                                
<?xpacket end="w"?></metadata>
<polygon class="cls-1" points="0.5 41.5 0.5 39.9 2.47 38.92 2.68 38.92 2.68 33.18 1.09 33.18 1.09 22.28 2.68 22.28 2.68 18.53 1.09 18.53 1.09 7.63 2.68 7.63 2.68 2.08 17.93 2.08 17.93 0.5 24.07 0.5 24.07 2.08 39.32 2.08 39.32 38.92 39.53 38.92 41.5 39.9 41.5 41.5 0.5 41.5"/><path class="cls-1" d="M23.57,1V2.58H38.82V39.42h.6l1.58.79V41H1v-.79l1.58-.79h.6V32.68H1.59v-9.9H3.18V18H1.59V8.13H3.18V2.58H18.43V1h5.14m1-1H17.43V1.58H2.18V7.13H.59V19H2.18v2.75H.59v11.9H2.18V38.5l0,0-1.59.79L0,39.59V42H42V39.59l-.55-.28-1.59-.79,0,0V1.58H24.57V0Z"/><polygon class="cls-2" points="39.42 39.42 2.58 39.42 1 40.21 1 41 2.58 41 39.42 41 41 41 41 40.21 39.42 39.42"/><polygon class="cls-2" points="24.76 4.17 35.26 4.17 37.24 4.17 37.24 6.15 37.24 34.66 37.24 36.64 35.26 36.64 6.74 36.64 4.76 36.64 4.76 34.66 4.76 33.87 3.18 33.87 3.18 38.23 38.82 38.23 38.82 2.58 24.76 2.58 24.76 4.17"/><rect class="cls-2" x="3.18" y="19.22" width="1.58" height="2.38"/><polygon class="cls-2" points="4.76 6.94 4.76 6.15 4.76 4.17 6.74 4.17 17.24 4.17 17.24 2.58 3.18 2.58 3.18 6.94 4.76 6.94"/><polygon class="cls-2" points="34.47 33.87 7.54 33.87 7.54 31.1 3.18 31.1 3.18 29.91 4.76 29.91 4.76 28.33 3.18 28.33 3.18 27.14 4.76 27.14 4.76 25.55 3.18 25.55 3.18 24.37 7.54 24.37 7.54 16.45 3.18 16.45 3.18 15.26 4.76 15.26 4.76 13.67 3.18 13.67 3.18 12.48 4.76 12.48 4.76 10.9 3.18 10.9 3.18 9.71 7.54 9.71 7.54 6.94 17.24 6.94 17.24 5.36 5.95 5.36 5.95 8.13 1.59 8.13 1.59 18.03 5.95 18.03 5.95 22.78 1.59 22.78 1.59 32.68 5.95 32.68 5.95 35.45 36.05 35.45 36.05 5.36 24.76 5.36 24.76 6.94 34.47 6.94 34.47 33.87"/><polygon class="cls-2" points="18.43 20.55 13.28 15.4 12.72 15.96 12.16 16.52 12.16 16.52 20.01 24.37 20.01 1 18.43 1 18.43 20.55"/><polygon class="cls-2" points="10.61 18 9.49 19.12 21 30.64 32.51 19.12 31.39 18 21 28.39 10.61 18"/><polygon class="cls-2" points="21.99 24.37 29.84 16.52 29.84 16.52 29.28 15.96 28.72 15.4 23.57 20.55 23.57 1 21.99 1 21.99 24.37"/></svg>