<svg id="Layer_1" data-name="Layer 1" xmlns="http://www.w3.org/2000/svg" viewBox="0 0 37.82 42"><metadata><?xpacket begin="﻿" id="W5M0MpCehiHzreSzNTczkc9d"?>
<x:xmpmeta xmlns:x="adobe:ns:meta/" x:xmptk="Adobe XMP Core 6.0-c006 79.164648, 2021/01/12-15:52:29        ">
   <rdf:RDF xmlns:rdf="http://www.w3.org/1999/02/22-rdf-syntax-ns#">
      <rdf:Description rdf:about=""
            xmlns:dc="http://purl.org/dc/elements/1.1/"
            xmlns:xmp="http://ns.adobe.com/xap/1.0/"
            xmlns:xmpMM="http://ns.adobe.com/xap/1.0/mm/"
            xmlns:stEvt="http://ns.adobe.com/xap/1.0/sType/ResourceEvent#"
            xmlns:xmpRights="http://ns.adobe.com/xap/1.0/rights/"
            xmlns:lr="http://ns.adobe.com/lightroom/1.0/">
         <dc:subject>
            <rdf:Bag>
               <rdf:li>cache</rdf:li>
               <rdf:li>database</rdf:li>
               <rdf:li>power</rdf:li>
               <rdf:li>thunder</rdf:li>
               <rdf:li>icon</rdf:li>
            </rdf:Bag>
         </dc:subject>
         <dc:rights>
            <rdf:Alt>
               <rdf:li xml:lang="x-default">Oracle All Rights</rdf:li>
            </rdf:Alt>
         </dc:rights>
         <xmp:MetadataDate>2023-08-02T14:36:32-06:00</xmp:MetadataDate>
         <xmpMM:InstanceID>xmp.iid:bb509a95-cf45-4c70-86c1-058a0d04200b</xmpMM:InstanceID>
         <xmpMM:DocumentID>xmp.did:7324c9a3-b3fe-4a42-a4af-c035200dacef</xmpMM:DocumentID>
         <xmpMM:OriginalDocumentID>xmp.did:7324c9a3-b3fe-4a42-a4af-c035200dacef</xmpMM:OriginalDocumentID>
         <xmpMM:History>
            <rdf:Seq>
               <rdf:li>
                  <rdf:Description>
                     <stEvt:action>saved</stEvt:action>
                     <stEvt:instanceID>xmp.iid:7324c9a3-b3fe-4a42-a4af-c035200dacef</stEvt:instanceID>
                     <stEvt:when>2023-08-02T14:22:01-06:00</stEvt:when>
                     <stEvt:softwareAgent>Adobe Bridge 2021 (Macintosh)</stEvt:softwareAgent>
                     <stEvt:changed>/metadata</stEvt:changed>
                  </rdf:Description>
               </rdf:li>
               <rdf:li>
                  <rdf:Description>
                     <stEvt:action>saved</stEvt:action>
                     <stEvt:instanceID>xmp.iid:bb509a95-cf45-4c70-86c1-058a0d04200b</stEvt:instanceID>
                     <stEvt:when>2023-08-02T14:36:32-06:00</stEvt:when>
                     <stEvt:softwareAgent>Adobe Bridge 2021 (Macintosh)</stEvt:softwareAgent>
                     <stEvt:changed>/metadata</stEvt:changed>
                  </rdf:Description>
               </rdf:li>
            </rdf:Seq>
         </xmpMM:History>
         <xmpRights:Marked>True</xmpRights:Marked>
         <lr:hierarchicalSubject>
            <rdf:Bag>
               <rdf:li>Other Keywords|icon</rdf:li>
            </rdf:Bag>
         </lr:hierarchicalSubject>
      </rdf:Description>
   </rdf:RDF>
</x:xmpmeta>
                                                                                                    
                                                                                                    
                                                                                                    
                                                                                                    
                                                                                                    
                                                                                                    
                                                                                                    
                                                                                                    
                                                                                                    
                                                                                            
<?xpacket end="w"?></metadata>
<path d="M18.91,41.5C17,41.5.5,41.35.5,36.07v-30C.5,2,10.42.5,18.91.5S37.32,2,37.32,6.06v30C37.32,41.35,20.79,41.5,18.91,41.5Z" fill="#fff"/><path d="M18.91,1c8.62,0,17.91,1.58,17.91,5.06v30C36.82,40,25.1,41,18.91,41S1,40,1,36.07v-30C1,2.58,10.28,1,18.91,1m0-1C15.75,0,0,.29,0,6.06v30C0,41.71,15.75,42,18.91,42s18.91-.29,18.91-5.93v-30C37.82.29,22.07,0,18.91,0Z" fill="#fff"/><path d="M36.82,6.06C36.82,2.58,27.53,1,18.91,1S1,2.58,1,6.06v30C1,40,12.71,41,18.91,41s17.91-1,17.91-4.93Zm-6,32.08a53.31,53.31,0,0,1-11.87,1.17A53.25,53.25,0,0,1,7,38.14c-3.56-.85-4.35-1.8-4.35-2.07V28.46C5.46,30.1,11.16,30.82,15.75,31l.47-1.66A48.88,48.88,0,0,1,7,28.26c-3.56-.85-4.35-1.81-4.35-2.07V18.72c2.57,1.52,7.66,2.25,12.05,2.52l1.1-1.62A47.8,47.8,0,0,1,7,18.52c-3.56-.85-4.35-1.81-4.35-2.07V8.37c3.06,1.87,9.82,2.74,16.22,2.74s13.16-.87,16.22-2.74v8.08c0,.26-.8,1.22-4.35,2.07a48.25,48.25,0,0,1-8.66,1.1l-.48,1.7c4.66-.2,10.63-.91,13.49-2.6v7.47c0,.26-.8,1.22-4.35,2.07a46.09,46.09,0,0,1-7.49,1L22.11,31c4.59-.22,10.25-.93,13-2.57v7.61C35.13,36.34,34.33,37.29,30.78,38.14ZM18.91,2.69A51.86,51.86,0,0,1,30.77,3.9c3.58.88,4.36,1.85,4.36,2.16s-.78,1.28-4.36,2.16A51.86,51.86,0,0,1,18.91,9.43,52,52,0,0,1,7,8.22C3.47,7.34,2.69,6.36,2.69,6.06S3.47,4.78,7,3.9A52,52,0,0,1,18.91,2.69Z" fill="#2c5967"/><polygon points="15.31 37.22 16.38 37.22 25.54 23.74 19.64 23.74 22.5 13.63 21.44 13.63 12.28 27.11 18.18 27.11 15.31 37.22" fill="#2c5967"/></svg>