<svg id="Layer_1" data-name="Layer 1" xmlns="http://www.w3.org/2000/svg" viewBox="0 0 38.16 42"><title>Other - Shard-Database</title><metadata><?xpacket begin="﻿" id="W5M0MpCehiHzreSzNTczkc9d"?>
<x:xmpmeta xmlns:x="adobe:ns:meta/" x:xmptk="Adobe XMP Core 6.0-c006 79.164648, 2021/01/12-15:52:29        ">
   <rdf:RDF xmlns:rdf="http://www.w3.org/1999/02/22-rdf-syntax-ns#">
      <rdf:Description rdf:about=""
            xmlns:dc="http://purl.org/dc/elements/1.1/"
            xmlns:lr="http://ns.adobe.com/lightroom/1.0/"
            xmlns:xmp="http://ns.adobe.com/xap/1.0/"
            xmlns:xmpMM="http://ns.adobe.com/xap/1.0/mm/"
            xmlns:stEvt="http://ns.adobe.com/xap/1.0/sType/ResourceEvent#"
            xmlns:xmpRights="http://ns.adobe.com/xap/1.0/rights/">
         <dc:title>
            <rdf:Alt>
               <rdf:li xml:lang="x-default">Other - Shard-Database</rdf:li>
            </rdf:Alt>
         </dc:title>
         <dc:subject>
            <rdf:Bag>
               <rdf:li>icon</rdf:li>
               <rdf:li>database</rdf:li>
               <rdf:li>data</rdf:li>
            </rdf:Bag>
         </dc:subject>
         <dc:rights>
            <rdf:Alt>
               <rdf:li xml:lang="x-default">Oracle All Rights Reserved</rdf:li>
            </rdf:Alt>
         </dc:rights>
         <lr:hierarchicalSubject>
            <rdf:Bag>
               <rdf:li>icon</rdf:li>
               <rdf:li>database</rdf:li>
               <rdf:li>data</rdf:li>
            </rdf:Bag>
         </lr:hierarchicalSubject>
         <xmp:MetadataDate>2021-11-23T13:28:05-06:00</xmp:MetadataDate>
         <xmpMM:InstanceID>xmp.iid:77c773cf-cf4c-4139-93cf-dd1809f83ca1</xmpMM:InstanceID>
         <xmpMM:DocumentID>xmp.did:a57b31ea-3a31-6e43-bfe3-728100ae4277</xmpMM:DocumentID>
         <xmpMM:OriginalDocumentID>xmp.did:a57b31ea-3a31-6e43-bfe3-728100ae4277</xmpMM:OriginalDocumentID>
         <xmpMM:History>
            <rdf:Seq>
               <rdf:li>
                  <rdf:Description>
                     <stEvt:action>saved</stEvt:action>
                     <stEvt:instanceID>xmp.iid:a57b31ea-3a31-6e43-bfe3-728100ae4277</stEvt:instanceID>
                     <stEvt:when>2021-11-22T15:44:59-06:00</stEvt:when>
                     <stEvt:softwareAgent>Adobe Bridge 2020 (Windows)</stEvt:softwareAgent>
                     <stEvt:changed>/metadata</stEvt:changed>
                  </rdf:Description>
               </rdf:li>
               <rdf:li>
                  <rdf:Description>
                     <stEvt:action>saved</stEvt:action>
                     <stEvt:instanceID>xmp.iid:77c773cf-cf4c-4139-93cf-dd1809f83ca1</stEvt:instanceID>
                     <stEvt:when>2021-11-23T13:28:05-06:00</stEvt:when>
                     <stEvt:softwareAgent>Adobe Bridge 2021 (Macintosh)</stEvt:softwareAgent>
                     <stEvt:changed>/metadata</stEvt:changed>
                  </rdf:Description>
               </rdf:li>
            </rdf:Seq>
         </xmpMM:History>
         <xmpRights:Marked>True</xmpRights:Marked>
      </rdf:Description>
   </rdf:RDF>
</x:xmpmeta>
                                                                                                    
                                                                                                    
                                                                                                    
                                                                                                    
                                                                                                    
                                                                                                    
                                                                                                    
                                                                                                    
                                                                                                    
                                                                                                    
                                                                                       
<?xpacket end="w"?></metadata>
<path d="M17.67,41.5V39.84H17C13.09,39.76.5,39.15.5,34.63V6.25a1.09,1.09,0,0,1,0-.18,1.62,1.62,0,0,1,0-.22C.5,1.9,10,.5,18.17.5S35.84,1.9,35.84,5.85c0,.07,0,.15,0,.22a1.09,1.09,0,0,1,0,.18v10.4h1.82V41.5Z" fill="#fff"/><path d="M18.17,1c8.27,0,17.17,1.52,17.17,4.85a1.94,1.94,0,0,1,0,.24.88.88,0,0,1,0,.16v10.9h1.82V41h-19V39.34H17c-6.13-.13-16-1.22-16-4.71V6.25a.88.88,0,0,1,0-.16,1.94,1.94,0,0,1,0-.24C1,2.52,9.9,1,18.17,1m0-1C15.14,0,0,.28,0,5.85a1.62,1.62,0,0,0,0,.22,1.09,1.09,0,0,0,0,.18V34.63c0,4.84,11.84,5.6,16.94,5.71h.23V42h21V16.15H36.34V6.25a1.09,1.09,0,0,0,0-.18,1.62,1.62,0,0,0,0-.22C36.34.28,21.2,0,18.17,0Z" fill="#fff"/><path d="M17,37.72A48.52,48.52,0,0,1,6.79,36.61c-3.41-.81-4.17-1.73-4.17-2v-7.3c3,1.8,9.73,2.44,14.34,2.53V28.25A49.14,49.14,0,0,1,6.79,27.13c-3.41-.81-4.17-1.73-4.17-2V18c3,1.8,9.73,2.44,14.34,2.53V18.91A49.14,49.14,0,0,1,6.79,17.79c-3.41-.81-4.17-1.72-4.17-2V8.07C5.55,9.86,12,10.7,18.17,10.7s12.62-.84,15.55-2.63v7.74a.35.35,0,0,1,0,.12h1.65V6.25a.88.88,0,0,0,0-.16,1.94,1.94,0,0,0,0-.24C35.34,2.52,26.44,1,18.17,1S1,2.52,1,5.85a1.94,1.94,0,0,0,0,.24.88.88,0,0,0,0,.16V34.63c0,3.49,9.83,4.58,16,4.71Zm1.21-35.1A49.65,49.65,0,0,1,29.55,3.78c3.42.84,4.17,1.78,4.17,2.07S33,7.07,29.55,7.92A49.65,49.65,0,0,1,18.17,9.08,49.65,49.65,0,0,1,6.79,7.92C3.37,7.07,2.62,6.14,2.62,5.85s.75-1.23,4.17-2.07A49.65,49.65,0,0,1,18.17,2.62Z" fill="#2c5967"/><path d="M18.17,17.15V41h19V17.15Zm1.62,1.61h7.07V39.38H19.79ZM35.54,39.38H28.47V18.76h7.07Z" fill="#2c5967"/><rect x="29.68" y="33.71" width="4.65" height="1.62" fill="#2c5967"/><rect x="29.68" y="36.54" width="4.65" height="1.62" fill="#2c5967"/><rect x="21" y="33.71" width="4.65" height="1.62" fill="#2c5967"/><rect x="29.68" y="28.26" width="4.65" height="1.62" fill="#2c5967"/><rect x="21" y="28.26" width="4.65" height="1.62" fill="#2c5967"/><rect x="29.68" y="25.43" width="4.65" height="1.62" fill="#2c5967"/><rect x="21" y="25.43" width="4.65" height="1.62" fill="#2c5967"/><rect x="29.68" y="22.6" width="4.65" height="1.62" fill="#2c5967"/><rect x="21" y="22.6" width="4.65" height="1.62" fill="#2c5967"/><rect x="29.68" y="19.77" width="4.65" height="1.62" fill="#2c5967"/><rect x="21" y="19.77" width="4.65" height="1.62" fill="#2c5967"/><rect x="21" y="36.54" width="4.65" height="1.62" fill="#2c5967"/><rect x="21" y="30.88" width="4.65" height="1.62" fill="#2c5967"/><rect x="29.68" y="30.88" width="4.65" height="1.62" fill="#2c5967"/></svg>