<svg id="Layer_1" data-name="Layer 1" xmlns="http://www.w3.org/2000/svg" viewBox="0 0 42.08 28.16"><metadata><?xpacket begin="﻿" id="W5M0MpCehiHzreSzNTczkc9d"?>
<x:xmpmeta xmlns:x="adobe:ns:meta/" x:xmptk="Adobe XMP Core 6.0-c006 79.164648, 2021/01/12-15:52:29        ">
   <rdf:RDF xmlns:rdf="http://www.w3.org/1999/02/22-rdf-syntax-ns#">
      <rdf:Description rdf:about=""
            xmlns:dc="http://purl.org/dc/elements/1.1/"
            xmlns:xmp="http://ns.adobe.com/xap/1.0/"
            xmlns:xmpMM="http://ns.adobe.com/xap/1.0/mm/"
            xmlns:stEvt="http://ns.adobe.com/xap/1.0/sType/ResourceEvent#"
            xmlns:lr="http://ns.adobe.com/lightroom/1.0/"
            xmlns:xmpRights="http://ns.adobe.com/xap/1.0/rights/">
         <dc:subject>
            <rdf:Bag>
               <rdf:li>service advisor</rdf:li>
               <rdf:li>icon</rdf:li>
            </rdf:Bag>
         </dc:subject>
         <dc:rights>
            <rdf:Alt>
               <rdf:li xml:lang="x-default">Oracle All Rights</rdf:li>
            </rdf:Alt>
         </dc:rights>
         <xmp:MetadataDate>2023-04-12T12:13:31-06:00</xmp:MetadataDate>
         <xmpMM:InstanceID>xmp.iid:7330847f-98e1-473b-99ca-c063925edfe5</xmpMM:InstanceID>
         <xmpMM:DocumentID>xmp.did:fc39d819-1abb-441b-bf68-84ae31ef1c24</xmpMM:DocumentID>
         <xmpMM:OriginalDocumentID>xmp.did:fc39d819-1abb-441b-bf68-84ae31ef1c24</xmpMM:OriginalDocumentID>
         <xmpMM:History>
            <rdf:Seq>
               <rdf:li>
                  <rdf:Description>
                     <stEvt:action>saved</stEvt:action>
                     <stEvt:instanceID>xmp.iid:fc39d819-1abb-441b-bf68-84ae31ef1c24</stEvt:instanceID>
                     <stEvt:when>2023-04-12T11:25:55-06:00</stEvt:when>
                     <stEvt:softwareAgent>Adobe Bridge 2021 (Macintosh)</stEvt:softwareAgent>
                     <stEvt:changed>/metadata</stEvt:changed>
                  </rdf:Description>
               </rdf:li>
               <rdf:li>
                  <rdf:Description>
                     <stEvt:action>saved</stEvt:action>
                     <stEvt:instanceID>xmp.iid:7330847f-98e1-473b-99ca-c063925edfe5</stEvt:instanceID>
                     <stEvt:when>2023-04-12T12:13:31-06:00</stEvt:when>
                     <stEvt:softwareAgent>Adobe Bridge 2021 (Macintosh)</stEvt:softwareAgent>
                     <stEvt:changed>/metadata</stEvt:changed>
                  </rdf:Description>
               </rdf:li>
            </rdf:Seq>
         </xmpMM:History>
         <lr:hierarchicalSubject>
            <rdf:Bag>
               <rdf:li>Other Keywords|icon</rdf:li>
            </rdf:Bag>
         </lr:hierarchicalSubject>
         <xmpRights:Marked>True</xmpRights:Marked>
      </rdf:Description>
   </rdf:RDF>
</x:xmpmeta>
                                                                                                    
                                                                                                    
                                                                                                    
                                                                                                    
                                                                                                    
                                                                                                    
                                                                                                    
                                                                                                    
                                                                                                    
                                                                                                    
                                                                                                    
          
<?xpacket end="w"?></metadata>
<path d="M28.12,23.8l0,0a1.4,1.4,0,0,1-.28.21l-.32.17-.31.1a2.63,2.63,0,0,1-.38.07h-.32a2.37,2.37,0,0,1-.37-.05l-.36-.1a2.53,2.53,0,0,1-.33-.16,2.36,2.36,0,0,1-1.19-2v-.56H.54L.65,20A9.87,9.87,0,0,1,6,12,2.37,2.37,0,0,0,7.2,10.28a7.59,7.59,0,0,1,7.46-6.13,5.48,5.48,0,0,1,.7,0h.24a2.26,2.26,0,0,0,1.68-.72,9.37,9.37,0,0,1,6.83-3,9.26,9.26,0,0,1,8.33,5.15A2.42,2.42,0,0,0,34.12,7a9.55,9.55,0,0,1,6.32,13.82l-.38.71H33.54l1.6,3.64L29.75,27.5Z" fill="#fff"/><path d="M24.11,1A8.76,8.76,0,0,1,32,5.88a2.94,2.94,0,0,0,2,1.56,9.16,9.16,0,0,1,2.86,1.18A9,9,0,0,1,40,20.53l-.24.45h-7l.85,1.93.86,2-3.43,1.51-1,.46-1.73-3.93-.33.36a1.45,1.45,0,0,1-.18.17l-.05,0-.17.12,0,0a1.51,1.51,0,0,1-.22.11l-.05,0-.19.06H27l-.23,0h-.31a1,1,0,0,1-.24,0h0l-.25-.07h0l-.26-.12a1.84,1.84,0,0,1-.93-1.6V21H1.08l.07-.92a9.4,9.4,0,0,1,5-7.67,2.91,2.91,0,0,0,1.52-2,7.09,7.09,0,0,1,4.1-5.13,7.21,7.21,0,0,1,2.85-.6c.23,0,.45,0,.67,0l.28,0a2.8,2.8,0,0,0,2-.88A8.85,8.85,0,0,1,24.11,1m0-1a9.82,9.82,0,0,0-7.19,3.14,1.78,1.78,0,0,1-1.32.56h-.19a6.34,6.34,0,0,0-.76,0,8.12,8.12,0,0,0-7.94,6.54,1.91,1.91,0,0,1-1,1.32A10.41,10.41,0,0,0,.15,20l-.07.92L0,22H23.73v.07a2.87,2.87,0,0,0,1.44,2.46l.39.18a2.72,2.72,0,0,0,.38.11H26a2.08,2.08,0,0,0,.36.05h.47a2.38,2.38,0,0,0,.37-.06h.08l.29-.1.09,0,.23-.11,1.18,2.69.4.92.92-.41,1.05-.46,3.43-1.51.91-.4-.4-.91-.87-2L34.3,22h6.06l.28-.52.24-.45A10,10,0,0,0,34.23,6.47a2,2,0,0,1-1.34-1A9.77,9.77,0,0,0,24.11,0Z" fill="#fff"/><path d="M36.87,8.62A9.16,9.16,0,0,0,34,7.44a2.94,2.94,0,0,1-2-1.56A8.76,8.76,0,0,0,24.11,1a8.85,8.85,0,0,0-6.46,2.82,2.78,2.78,0,0,1-2.33.86,7.21,7.21,0,0,0-3.52.57,7.09,7.09,0,0,0-4.1,5.13,2.91,2.91,0,0,1-1.52,2,9.4,9.4,0,0,0-5,7.67L1.08,21H23.43V19.26H3a7.7,7.7,0,0,1,4-5.34,4.6,4.6,0,0,0,2.4-3.21,5.37,5.37,0,0,1,3.11-3.88,5.42,5.42,0,0,1,2.66-.44A4.48,4.48,0,0,0,18.91,5a7.12,7.12,0,0,1,5.2-2.27,7,7,0,0,1,6.34,3.92,4.7,4.7,0,0,0,3.19,2.48,7.19,7.19,0,0,1,2.31,1,7.32,7.32,0,0,1,2.76,9.19H36.35a3.21,3.21,0,0,1-.22,1,3.16,3.16,0,0,1-.4.72h4l.24-.45A9,9,0,0,0,36.87,8.62Z" fill="#2c5967"/><path d="M34.93,19.78A1.78,1.78,0,0,0,35,18.69a2,2,0,0,0-.08-.26,1.83,1.83,0,0,0-.37-.59l-.1-.1-3.34-3.1-3.35-3.1a.9.9,0,0,0-.19-.15s0,0,0,0l-.21-.12h0l-.2-.08h-.05a.9.9,0,0,0-.22-.06H26.8l-.2,0h-.07l-.21,0h-.05l-.19,0-.07,0-.23.08a1.87,1.87,0,0,0-.65.48.1.1,0,0,0,0,.05,2,2,0,0,0-.25.39,1.75,1.75,0,0,0-.16.79L24.73,22a1.84,1.84,0,0,0,.93,1.6l.26.12h0l.25.07h0a1,1,0,0,0,.24,0h.31l.23,0h.06l.19-.06.05,0a1.51,1.51,0,0,0,.22-.11l0,0,.17-.12.05,0a1.45,1.45,0,0,0,.18-.17l.33-.36L30,26.84h0l1-.46,3.43-1.51-.86-2-.86-2h.45a1.85,1.85,0,0,0,1.64-1A.89.89,0,0,0,34.93,19.78ZM32.22,24l-1.33.58-2.11-4.78-2.1,2.33a.13.13,0,0,1-.15,0,.11.11,0,0,1-.08-.12l-.06-9.13a.12.12,0,0,1,.08-.12.14.14,0,0,1,.15,0L33.3,19a.13.13,0,0,1,0,.15.13.13,0,0,1-.13.08l-3.1,0Z" fill="#2c5967"/></svg>