<svg id="Layer_1" data-name="Layer 1" xmlns="http://www.w3.org/2000/svg" viewBox="0 0 42 29.81"><title>Oracle-Databases</title><metadata><?xpacket begin="﻿" id="W5M0MpCehiHzreSzNTczkc9d"?>
<x:xmpmeta xmlns:x="adobe:ns:meta/" x:xmptk="Adobe XMP Core 6.0-c006 79.164648, 2021/01/12-15:52:29        ">
   <rdf:RDF xmlns:rdf="http://www.w3.org/1999/02/22-rdf-syntax-ns#">
      <rdf:Description rdf:about=""
            xmlns:xmp="http://ns.adobe.com/xap/1.0/"
            xmlns:xmpMM="http://ns.adobe.com/xap/1.0/mm/"
            xmlns:stEvt="http://ns.adobe.com/xap/1.0/sType/ResourceEvent#"
            xmlns:dc="http://purl.org/dc/elements/1.1/"
            xmlns:lr="http://ns.adobe.com/lightroom/1.0/"
            xmlns:xmpRights="http://ns.adobe.com/xap/1.0/rights/">
         <xmp:MetadataDate>2022-01-29T10:37:57-06:00</xmp:MetadataDate>
         <xmpMM:InstanceID>xmp.iid:778c33fb-0445-4cf8-aab3-a44f12cad866</xmpMM:InstanceID>
         <xmpMM:DocumentID>xmp.did:66ef18b7-77a2-8b49-98ba-6730c1e9ef48</xmpMM:DocumentID>
         <xmpMM:OriginalDocumentID>xmp.did:66ef18b7-77a2-8b49-98ba-6730c1e9ef48</xmpMM:OriginalDocumentID>
         <xmpMM:History>
            <rdf:Seq>
               <rdf:li>
                  <rdf:Description>
                     <stEvt:action>saved</stEvt:action>
                     <stEvt:instanceID>xmp.iid:66ef18b7-77a2-8b49-98ba-6730c1e9ef48</stEvt:instanceID>
                     <stEvt:when>2022-01-28T12:20:58-06:00</stEvt:when>
                     <stEvt:softwareAgent>Adobe Bridge 2020 (Windows)</stEvt:softwareAgent>
                     <stEvt:changed>/metadata</stEvt:changed>
                  </rdf:Description>
               </rdf:li>
               <rdf:li>
                  <rdf:Description>
                     <stEvt:action>saved</stEvt:action>
                     <stEvt:instanceID>xmp.iid:778c33fb-0445-4cf8-aab3-a44f12cad866</stEvt:instanceID>
                     <stEvt:when>2022-01-29T10:37:57-06:00</stEvt:when>
                     <stEvt:softwareAgent>Adobe Bridge 2021 (Macintosh)</stEvt:softwareAgent>
                     <stEvt:changed>/metadata</stEvt:changed>
                  </rdf:Description>
               </rdf:li>
            </rdf:Seq>
         </xmpMM:History>
         <dc:title>
            <rdf:Alt>
               <rdf:li xml:lang="x-default">Oracle-Databases</rdf:li>
            </rdf:Alt>
         </dc:title>
         <dc:subject>
            <rdf:Bag>
               <rdf:li>database</rdf:li>
               <rdf:li>boxes</rdf:li>
               <rdf:li>connection</rdf:li>
               <rdf:li>network</rdf:li>
               <rdf:li>icon</rdf:li>
            </rdf:Bag>
         </dc:subject>
         <dc:rights>
            <rdf:Alt>
               <rdf:li xml:lang="x-default">Oracle All Rights Reserved</rdf:li>
            </rdf:Alt>
         </dc:rights>
         <lr:hierarchicalSubject>
            <rdf:Bag>
               <rdf:li>icon</rdf:li>
            </rdf:Bag>
         </lr:hierarchicalSubject>
         <xmpRights:Marked>True</xmpRights:Marked>
      </rdf:Description>
   </rdf:RDF>
</x:xmpmeta>
                                                                                                    
                                                                                                    
                                                                                                    
                                                                                                    
                                                                                                    
                                                                                                    
                                                                                                    
                                                                                                    
                                                                                                    
                                                                                                  
<?xpacket end="w"?></metadata>
<path d="M13.42,29.31C11.26,29.31.5,29.11.5,25.19V5a.76.76,0,0,1,0-.15,1,1,0,0,1,0-.17C.5.7,11.26.5,13.42.5S26.34.7,26.34,4.68a1,1,0,0,1,0,.17.76.76,0,0,1,0,.15V6h8.27V3.87H41.5V25.92H34.61v-2.1H26.34v1.37C26.34,29.11,15.58,29.31,13.42,29.31Z" fill="#fff"/><path d="M13.42,1C18,1,25.84,1.78,25.84,4.68c0,.06,0,.12,0,.18a.61.61,0,0,1,0,.14V6.47h9.27V4.37H41V25.42H35.11v-2.1H25.84v1.87c0,2.85-7.81,3.62-12.42,3.62S1,28,1,25.19V5s0-.1,0-.14,0-.12,0-.18C1,1.78,8.81,1,13.42,1m0-1C10.27,0,0,.34,0,4.68a.81.81,0,0,0,0,.16A.92.92,0,0,0,0,5V25.19c0,4.28,10.27,4.62,13.42,4.62s13.42-.34,13.42-4.62v-.87h7.27v2.1H42v-23H34.11v2.1H26.84V5a.86.86,0,0,0,0-.16.81.81,0,0,0,0-.16C26.84.34,16.57,0,13.42,0Z" fill="#fff"/><path d="M41,10.26V4.37H35.11v2.1H28.37v7.58H25.84V5a.61.61,0,0,0,0-.14c0-.06,0-.12,0-.18C25.84,1.78,18,1,13.42,1S1,1.78,1,4.68c0,.06,0,.12,0,.18S1,5,1,5V25.19C1,28,8.81,28.81,13.42,28.81S25.84,28,25.84,25.19V15.74h2.53v7.58h6.74v2.1H41V19.53H35.11v2.1H30.05V15.74h5.06v2.1H41V12H35.11v2.1H30.05V8.16h5.06v2.1ZM21,26.42a37.59,37.59,0,0,1-7.61.7,37.41,37.41,0,0,1-7.6-.7c-2.58-.56-3.08-1.17-3.14-1.26V20.37C5.24,21.63,10.14,22,13.42,22s8.19-.38,10.74-1.64v4.79C24.1,25.25,23.6,25.86,21,26.42Zm3.13-8.06c-.06.1-.56.71-3.13,1.27a37.59,37.59,0,0,1-7.61.7,37.41,37.41,0,0,1-7.6-.7c-2.58-.56-3.08-1.17-3.14-1.27V13.74c2.56,1.25,7.46,1.64,10.74,1.64s8.19-.39,10.74-1.64Zm-10.74-10c3.29,0,8.19-.4,10.74-1.67v5c-.06.09-.56.7-3.13,1.26a37.59,37.59,0,0,1-7.61.7,37.41,37.41,0,0,1-7.6-.7c-2.58-.56-3.08-1.17-3.14-1.26v-5C5.24,8,10.14,8.37,13.42,8.37ZM24.15,4.68c-.37.72-4.27,2-10.73,2S3.06,5.4,2.69,4.68c.37-.71,4.27-2,10.73-2S23.78,4,24.15,4.68ZM36.79,21.21h2.53v2.53H36.79Zm0-7.58h2.53v2.53H36.79Zm0-7.58h2.53V8.58H36.79Z" fill="#2c5967"/></svg>