<svg id="Layer_1" data-name="Layer 1" xmlns="http://www.w3.org/2000/svg" viewBox="0 0 45.26 42"><defs><style>.cls-1{fill:#fff;}.cls-2{fill:#2c5967;}.cls-3{fill:none;}</style></defs><title>Autonomous Data Warehouse Cloud Service</title><metadata><?xpacket begin="﻿" id="W5M0MpCehiHzreSzNTczkc9d"?>
<x:xmpmeta xmlns:x="adobe:ns:meta/" x:xmptk="Adobe XMP Core 6.0-c006 79.164648, 2021/01/12-15:52:29        ">
   <rdf:RDF xmlns:rdf="http://www.w3.org/1999/02/22-rdf-syntax-ns#">
      <rdf:Description rdf:about=""
            xmlns:dc="http://purl.org/dc/elements/1.1/"
            xmlns:lr="http://ns.adobe.com/lightroom/1.0/"
            xmlns:xmp="http://ns.adobe.com/xap/1.0/"
            xmlns:xmpMM="http://ns.adobe.com/xap/1.0/mm/"
            xmlns:stEvt="http://ns.adobe.com/xap/1.0/sType/ResourceEvent#"
            xmlns:xmpRights="http://ns.adobe.com/xap/1.0/rights/">
         <dc:title>
            <rdf:Alt>
               <rdf:li xml:lang="x-default">Autonomous Data Warehouse Cloud Service</rdf:li>
            </rdf:Alt>
         </dc:title>
         <dc:subject>
            <rdf:Bag>
               <rdf:li>icon</rdf:li>
               <rdf:li>Business</rdf:li>
               <rdf:li>Data</rdf:li>
            </rdf:Bag>
         </dc:subject>
         <dc:rights>
            <rdf:Alt>
               <rdf:li xml:lang="x-default">Oracle All Rights Reserved</rdf:li>
            </rdf:Alt>
         </dc:rights>
         <lr:hierarchicalSubject>
            <rdf:Bag>
               <rdf:li>icon</rdf:li>
               <rdf:li>Business</rdf:li>
               <rdf:li>Data</rdf:li>
            </rdf:Bag>
         </lr:hierarchicalSubject>
         <xmp:MetadataDate>2021-07-21T19:22:57-05:00</xmp:MetadataDate>
         <xmpMM:InstanceID>xmp.iid:439a516d-329c-414d-ba6c-886bba0465d3</xmpMM:InstanceID>
         <xmpMM:DocumentID>xmp.did:93aa7631-92ec-405e-aeb7-093b5472b52b</xmpMM:DocumentID>
         <xmpMM:OriginalDocumentID>xmp.did:93aa7631-92ec-405e-aeb7-093b5472b52b</xmpMM:OriginalDocumentID>
         <xmpMM:History>
            <rdf:Seq>
               <rdf:li>
                  <rdf:Description>
                     <stEvt:action>saved</stEvt:action>
                     <stEvt:instanceID>xmp.iid:93aa7631-92ec-405e-aeb7-093b5472b52b</stEvt:instanceID>
                     <stEvt:when>2021-06-18T11:42-05:00</stEvt:when>
                     <stEvt:softwareAgent>Adobe Bridge 2021 (Macintosh)</stEvt:softwareAgent>
                     <stEvt:changed>/metadata</stEvt:changed>
                  </rdf:Description>
               </rdf:li>
               <rdf:li>
                  <rdf:Description>
                     <stEvt:action>saved</stEvt:action>
                     <stEvt:instanceID>xmp.iid:439a516d-329c-414d-ba6c-886bba0465d3</stEvt:instanceID>
                     <stEvt:when>2021-07-21T19:22:57-05:00</stEvt:when>
                     <stEvt:softwareAgent>Adobe Bridge 2021 (Macintosh)</stEvt:softwareAgent>
                     <stEvt:changed>/metadata</stEvt:changed>
                  </rdf:Description>
               </rdf:li>
            </rdf:Seq>
         </xmpMM:History>
         <xmpRights:Marked>True</xmpRights:Marked>
      </rdf:Description>
   </rdf:RDF>
</x:xmpmeta>
                                                                                                    
                                                                                                    
                                                                                                    
                                                                                                    
                                                                                                    
                                                                                                    
                                                                                                    
                                                                                                    
                                                                                                    
                                                                                                    
                                                                                    
<?xpacket end="w"?></metadata>
<path class="cls-1" d="M4,41.5V39.84l2.09-1h.68V21.29H.54l.11-1.45a9.79,9.79,0,0,1,5.25-8,2.37,2.37,0,0,0,1.24-1.65,7.55,7.55,0,0,1,4.35-5.44,7.72,7.72,0,0,1,3-.63c.24,0,.47,0,.71,0h.24a2.21,2.21,0,0,0,1.65-.71A9.28,9.28,0,0,1,23.88.5,9.13,9.13,0,0,1,31.79,5c.15.26.32.61.45.9a8.78,8.78,0,0,1,1-.06,8.43,8.43,0,0,1,7.11,3.95,7.68,7.68,0,0,1,.77,1.87l3.43,3.44L42.64,17l-1.18-1.18A8.32,8.32,0,0,1,35,22.37v.37h0V38.8h1.11l2.09,1V41.5Z"/><path class="cls-1" d="M23.88,1a8.67,8.67,0,0,1,7.48,4.24,10.76,10.76,0,0,1,.58,1.2,7,7,0,0,1,1.31-.12A7.9,7.9,0,0,1,39.93,10a7.31,7.31,0,0,1,.72,1.86l3.2,3.19-1.21,1.2L41.1,14.74A7.88,7.88,0,0,1,34.51,22c0,.62,0,1.3,0,1.3h0v16H36l1.71.85V41H4.52v-.85l1.7-.85H7.29V20.79H1.08l.06-.92a9.36,9.36,0,0,1,5-7.59,2.87,2.87,0,0,0,1.5-2,7,7,0,0,1,6.89-5.67q.33,0,.66,0h.28a2.75,2.75,0,0,0,2-.87A8.76,8.76,0,0,1,23.88,1m0-1a9.73,9.73,0,0,0-7.12,3.11,1.73,1.73,0,0,1-1.3.55h-.19q-.37,0-.75,0A8,8,0,0,0,6.65,10.1a1.89,1.89,0,0,1-1,1.3A10.28,10.28,0,0,0,.15,19.8l-.07.91L0,21.79H6.29V38.3H6l-.21.1-1.71.85-.55.28V42h35.2V39.53l-.56-.28-1.7-.85-.21-.1h-.73V22.76a8.81,8.81,0,0,0,6.21-6l.21.2.7.71.71-.71,1.2-1.2.71-.71-.71-.71-3-3a8.83,8.83,0,0,0-.77-1.84V9.5a9,9,0,0,0-7.53-4.18c-.23,0-.47,0-.7,0-.1-.21-.21-.43-.32-.61A9.65,9.65,0,0,0,23.88,0Z"/><path class="cls-2" d="M29.88,5.69h0l.29-.11.11,0h0l.27-.09.14,0h.05L31,5.32l.17,0h.08l.09,0A8.67,8.67,0,0,0,23.88,1a8.76,8.76,0,0,0-6.39,2.79,2.79,2.79,0,0,1-2.31.86,7,7,0,0,0-7.55,5.64,2.87,2.87,0,0,1-1.5,2,9.36,9.36,0,0,0-5,7.59l-.06.92H6v-1.7H3a7.63,7.63,0,0,1,4-5.3A4.56,4.56,0,0,0,9.3,10.62,5.33,5.33,0,0,1,15,6.34,4.45,4.45,0,0,0,18.74,5a7,7,0,0,1,10.94.82l.11,0Z"/><rect class="cls-3" x="12.39" y="32.06" width="5.96" height="2.77"/><rect class="cls-3" x="12.39" y="36.53" width="5.96" height="2.77"/><rect class="cls-3" x="12.39" y="27.37" width="5.96" height="2.99"/><rect class="cls-3" x="23.46" y="27.37" width="5.96" height="2.99"/><rect class="cls-3" x="23.46" y="32.06" width="5.96" height="2.77"/><rect class="cls-3" x="23.46" y="36.53" width="5.96" height="2.77"/><path class="cls-2" d="M36,39.3H34.52v-16h0l-.34.05h-.22l-.23,0h-.88v16h-1.7V25.67H21.76V39.3H20.05V25.67H10.69V39.3H9V16.89a25.29,25.29,0,0,1,12.41-3l-.56-.57.9-.9.23-.22A27.09,27.09,0,0,0,7.09,16h0l-1.47.86L6,17.6H7.29V39.3H6.22l-1.7.85V41h33.2v-.85Zm-17.66,0h-6V36.53h6Zm0-4.47h-6V32.06h6Zm0-4.47h-6v-3h6ZM29.42,39.3h-6V36.53h6Zm0-4.47h-6V32.06h6Zm0-4.47h-6v-3h6Z"/><path class="cls-2" d="M10.69,24h9.36V17.6H10.69Zm1.7-4.68h6v3h-6Z"/><path class="cls-2" d="M21.76,24h9.36v-.9a9.12,9.12,0,0,1-2.15-.8H23.46v-3h2.2l-.11-.16h0l-.06-.1L25,18.12h0c-.09-.17-.16-.35-.23-.52h-3Z"/><path class="cls-2" d="M30,17.87h1.76l.4-1.72h2l.39,1.72h1.82l-2.36-8.2H32.4Zm3.18-6.19.7,3.07H32.5Z"/><path class="cls-2" d="M28.6,12.1l-1.5,1.5a6.17,6.17,0,0,1,11.58-2.32L39.93,10a7.88,7.88,0,0,0-14.54,3.62L23.85,12.1l-1.21,1.2,3.58,3.58L29.8,13.3Z"/><path class="cls-2" d="M36.69,15.08l1.2,1.2,1.5-1.49a6.17,6.17,0,0,1-11.58,2.32l-1.25,1.24A7.88,7.88,0,0,0,41.1,14.74l1.54,1.54,1.21-1.2L40.27,11.5Z"/></svg>