<svg id="Layer_1" data-name="Layer 1" xmlns="http://www.w3.org/2000/svg" viewBox="0 0 59.22 42"><title>Technology_Oracle-University-Unisex</title><metadata><?xpacket begin="﻿" id="W5M0MpCehiHzreSzNTczkc9d"?>
<x:xmpmeta xmlns:x="adobe:ns:meta/" x:xmptk="Adobe XMP Core 6.0-c006 79.164648, 2021/01/12-15:52:29        ">
   <rdf:RDF xmlns:rdf="http://www.w3.org/1999/02/22-rdf-syntax-ns#">
      <rdf:Description rdf:about=""
            xmlns:dc="http://purl.org/dc/elements/1.1/"
            xmlns:xmp="http://ns.adobe.com/xap/1.0/"
            xmlns:xmpMM="http://ns.adobe.com/xap/1.0/mm/"
            xmlns:stEvt="http://ns.adobe.com/xap/1.0/sType/ResourceEvent#"
            xmlns:lr="http://ns.adobe.com/lightroom/1.0/"
            xmlns:xmpRights="http://ns.adobe.com/xap/1.0/rights/">
         <dc:title>
            <rdf:Alt>
               <rdf:li xml:lang="x-default">Technology_Oracle-University-Unisex</rdf:li>
            </rdf:Alt>
         </dc:title>
         <dc:subject>
            <rdf:Bag>
               <rdf:li>Tablet</rdf:li>
               <rdf:li>persona</rdf:li>
               <rdf:li>Unisex</rdf:li>
               <rdf:li>arrow</rdf:li>
               <rdf:li>circle</rdf:li>
               <rdf:li>cross</rdf:li>
               <rdf:li>learning</rdf:li>
               <rdf:li>learn</rdf:li>
               <rdf:li>student</rdf:li>
               <rdf:li>icon</rdf:li>
            </rdf:Bag>
         </dc:subject>
         <dc:rights>
            <rdf:Alt>
               <rdf:li xml:lang="x-default">Oracle All Rights Reserved</rdf:li>
            </rdf:Alt>
         </dc:rights>
         <xmp:MetadataDate>2022-01-29T10:38:15-06:00</xmp:MetadataDate>
         <xmpMM:InstanceID>xmp.iid:2a7b7b09-4c3d-412d-9e7d-2ebc98808f58</xmpMM:InstanceID>
         <xmpMM:DocumentID>xmp.did:7d05dbf3-81dd-1e47-9efe-815920631410</xmpMM:DocumentID>
         <xmpMM:OriginalDocumentID>xmp.did:7d05dbf3-81dd-1e47-9efe-815920631410</xmpMM:OriginalDocumentID>
         <xmpMM:History>
            <rdf:Seq>
               <rdf:li>
                  <rdf:Description>
                     <stEvt:action>saved</stEvt:action>
                     <stEvt:instanceID>xmp.iid:7d05dbf3-81dd-1e47-9efe-815920631410</stEvt:instanceID>
                     <stEvt:when>2022-01-28T12:38:06-06:00</stEvt:when>
                     <stEvt:softwareAgent>Adobe Bridge 2020 (Windows)</stEvt:softwareAgent>
                     <stEvt:changed>/metadata</stEvt:changed>
                  </rdf:Description>
               </rdf:li>
               <rdf:li>
                  <rdf:Description>
                     <stEvt:action>saved</stEvt:action>
                     <stEvt:instanceID>xmp.iid:2a7b7b09-4c3d-412d-9e7d-2ebc98808f58</stEvt:instanceID>
                     <stEvt:when>2022-01-29T10:38:15-06:00</stEvt:when>
                     <stEvt:softwareAgent>Adobe Bridge 2021 (Macintosh)</stEvt:softwareAgent>
                     <stEvt:changed>/metadata</stEvt:changed>
                  </rdf:Description>
               </rdf:li>
            </rdf:Seq>
         </xmpMM:History>
         <lr:hierarchicalSubject>
            <rdf:Bag>
               <rdf:li>icon</rdf:li>
            </rdf:Bag>
         </lr:hierarchicalSubject>
         <xmpRights:Marked>True</xmpRights:Marked>
      </rdf:Description>
   </rdf:RDF>
</x:xmpmeta>
                                                                                                    
                                                                                                    
                                                                                                    
                                                                                                    
                                                                                                    
                                                                                                    
                                                                                                    
                                                                                                    
                                                                                                    
                                                                                                  
<?xpacket end="w"?></metadata>
<rect x="0.5" y="0.5" width="58.22" height="41" rx="4.39" fill="#fff"/><path d="M54.33,1a3.89,3.89,0,0,1,3.89,3.89V37.11A3.89,3.89,0,0,1,54.33,41H4.89A3.89,3.89,0,0,1,1,37.11V4.89A3.89,3.89,0,0,1,4.89,1H54.33m0-1H4.89A4.89,4.89,0,0,0,0,4.89V37.11A4.89,4.89,0,0,0,4.89,42H54.33a4.89,4.89,0,0,0,4.89-4.89V4.89A4.89,4.89,0,0,0,54.33,0Z" fill="#fff"/><polygon points="28.24 16.23 30.51 13.96 32.78 16.23 34.35 14.66 32.09 12.39 34.35 10.12 32.78 8.55 30.51 10.82 28.24 8.55 26.67 10.12 28.94 12.39 26.67 14.66 28.24 16.23" fill="#2c5967"/><polygon points="45.28 21.33 43.01 23.59 40.74 21.33 39.17 22.9 41.44 25.17 39.17 27.44 40.74 29.01 43.01 26.74 45.28 29.01 46.85 27.44 44.59 25.17 46.85 22.9 45.28 21.33" fill="#2c5967"/><path d="M30.51,29.4a4.24,4.24,0,1,0-4.23-4.23A4.24,4.24,0,0,0,30.51,29.4Zm0-6.25a2,2,0,1,1-2,2A2,2,0,0,1,30.51,23.15Z" fill="#2c5967"/><path d="M35,20.63l2.12.66c0-.07,2-6.22,7.48-9.27v4h2.22V8.5h-7.5v2.22h3.13A20.16,20.16,0,0,0,35,20.63Z" fill="#2c5967"/><path d="M54.33,1H4.89A3.89,3.89,0,0,0,1,4.89V37.11A3.89,3.89,0,0,0,4.89,41H54.33a3.89,3.89,0,0,0,3.89-3.89V4.89A3.89,3.89,0,0,0,54.33,1ZM56,37.11a1.67,1.67,0,0,1-1.67,1.67H4.89a1.67,1.67,0,0,1-1.67-1.67V4.89A1.67,1.67,0,0,1,4.89,3.22H54.33A1.67,1.67,0,0,1,56,4.89Z" fill="#2c5967"/><path d="M4.89,37.11H50.44V4.89H4.89Zm18.34-2.22h-12V32.56A1.58,1.58,0,0,1,12.84,31h8.82a1.58,1.58,0,0,1,1.57,1.57ZM7.11,7.11H48.22V34.89H25.44V32.56a3.78,3.78,0,0,0-3.78-3.78H12.84a3.78,3.78,0,0,0-3.78,3.78v2.33H7.11Z" fill="#2c5967"/><rect x="52.11" y="17.67" width="2.22" height="6.67" fill="#2c5967"/><path d="M17.25,26.83A5.83,5.83,0,1,0,11.42,21,5.83,5.83,0,0,0,17.25,26.83Zm0-9.44A3.61,3.61,0,1,1,13.64,21,3.61,3.61,0,0,1,17.25,17.39Z" fill="#2c5967"/></svg>