<svg id="Layer_1" data-name="Layer 1" xmlns="http://www.w3.org/2000/svg" viewBox="0 0 43.42 42"><defs><style>.cls-1{fill:#fff;}.cls-2{fill:#2c5967;}</style></defs><title>Digital-Assistant-Cloud-Service</title><metadata><?xpacket begin="﻿" id="W5M0MpCehiHzreSzNTczkc9d"?>
<x:xmpmeta xmlns:x="adobe:ns:meta/" x:xmptk="Adobe XMP Core 6.0-c006 79.164648, 2021/01/12-15:52:29        ">
   <rdf:RDF xmlns:rdf="http://www.w3.org/1999/02/22-rdf-syntax-ns#">
      <rdf:Description rdf:about=""
            xmlns:dc="http://purl.org/dc/elements/1.1/"
            xmlns:lr="http://ns.adobe.com/lightroom/1.0/"
            xmlns:xmp="http://ns.adobe.com/xap/1.0/"
            xmlns:xmpMM="http://ns.adobe.com/xap/1.0/mm/"
            xmlns:stEvt="http://ns.adobe.com/xap/1.0/sType/ResourceEvent#">
         <dc:title>
            <rdf:Alt>
               <rdf:li xml:lang="x-default">Digital-Assistant-Cloud-Service</rdf:li>
            </rdf:Alt>
         </dc:title>
         <dc:subject>
            <rdf:Bag>
               <rdf:li>icon</rdf:li>
               <rdf:li>machine learning</rdf:li>
            </rdf:Bag>
         </dc:subject>
         <lr:hierarchicalSubject>
            <rdf:Bag>
               <rdf:li>icon</rdf:li>
               <rdf:li>machine learning</rdf:li>
            </rdf:Bag>
         </lr:hierarchicalSubject>
         <xmp:MetadataDate>2021-07-16T14:28:10-05:00</xmp:MetadataDate>
         <xmpMM:InstanceID>xmp.iid:11f36bc3-af8c-48c3-a352-7c148420ae65</xmpMM:InstanceID>
         <xmpMM:DocumentID>xmp.did:f875ffe3-aa8a-4150-908e-8f774c0bbc0f</xmpMM:DocumentID>
         <xmpMM:OriginalDocumentID>xmp.did:f875ffe3-aa8a-4150-908e-8f774c0bbc0f</xmpMM:OriginalDocumentID>
         <xmpMM:History>
            <rdf:Seq>
               <rdf:li>
                  <rdf:Description>
                     <stEvt:action>saved</stEvt:action>
                     <stEvt:instanceID>xmp.iid:f875ffe3-aa8a-4150-908e-8f774c0bbc0f</stEvt:instanceID>
                     <stEvt:when>2021-07-16T14:19:58-05:00</stEvt:when>
                     <stEvt:softwareAgent>Adobe Bridge 2021 (Macintosh)</stEvt:softwareAgent>
                     <stEvt:changed>/metadata</stEvt:changed>
                  </rdf:Description>
               </rdf:li>
               <rdf:li>
                  <rdf:Description>
                     <stEvt:action>saved</stEvt:action>
                     <stEvt:instanceID>xmp.iid:11f36bc3-af8c-48c3-a352-7c148420ae65</stEvt:instanceID>
                     <stEvt:when>2021-07-16T14:28:10-05:00</stEvt:when>
                     <stEvt:softwareAgent>Adobe Bridge 2021 (Macintosh)</stEvt:softwareAgent>
                     <stEvt:changed>/metadata</stEvt:changed>
                  </rdf:Description>
               </rdf:li>
            </rdf:Seq>
         </xmpMM:History>
      </rdf:Description>
   </rdf:RDF>
</x:xmpmeta>
                                                                                                    
                                                                                                    
                                                                                                    
                                                                                                    
                                                                                                    
                                                                                                    
                                                                                                    
                                                                                                    
                                                                                                    
                                                                                                    
                                                                                                    
                                                                                                    
                                                                                                    
                                                                                                    
                          
<?xpacket end="w"?></metadata>
<path class="cls-1" d="M24.6,41.5V32.17H21.12l-3.58-4.66H15.12a6.74,6.74,0,0,1-6.57-5.36h-8l.11-1.49a10.2,10.2,0,0,1,5.47-8.32A2.55,2.55,0,0,0,7.43,10.6a7.85,7.85,0,0,1,7.68-6.33c.25,0,.49,0,.73,0h.25a2.33,2.33,0,0,0,1.75-.75A9.61,9.61,0,0,1,33.48,5.82a2.54,2.54,0,0,0,1.75,1.35,10.17,10.17,0,0,1,3.11,1.28,9.85,9.85,0,0,1,3.41,13l-.39.72H33.24a6.76,6.76,0,0,1-6.08,5.34v.35H39.81V39.06H29.61l-2,2.44Z"/><path class="cls-1" d="M24.88,1A9.06,9.06,0,0,1,33,6a3,3,0,0,0,2.09,1.62,9.17,9.17,0,0,1,3,1.22,9.34,9.34,0,0,1,3.24,12.31l-.25.47H32.82A6.24,6.24,0,0,1,26.66,27v1.33H39.31V38.56H29.37L27.4,41H25.1V31.67H21.37L17.78,27H15.12A6.22,6.22,0,0,1,9,21.66H1.08l.07-1a9.7,9.7,0,0,1,5.2-7.92A3,3,0,0,0,7.92,10.7a7.33,7.33,0,0,1,7.19-5.92l.69,0h.29a2.86,2.86,0,0,0,2.12-.91A9.14,9.14,0,0,1,24.88,1m0-1a10.16,10.16,0,0,0-7.41,3.23,1.85,1.85,0,0,1-1.38.59h-.2q-.39,0-.78,0a8.42,8.42,0,0,0-3.35.7,8.32,8.32,0,0,0-4.82,6,2,2,0,0,1-1.06,1.39A10.74,10.74,0,0,0,.15,20.63l-.07.95L0,22.66H8.15a7.25,7.25,0,0,0,7,5.35h2.17l3.28,4.27.3.39H24.1V42h3.77l.3-.37,1.67-2.07H40.31V27.34H29.68a7.26,7.26,0,0,0,4-4.68h8l.28-.53.25-.47a10.34,10.34,0,0,0-6.86-15,2.05,2.05,0,0,1-1.41-1.09,10,10,0,0,0-9-5.59Z"/><path class="cls-2" d="M38.07,8.88a9.17,9.17,0,0,0-3-1.22A3,3,0,0,1,33,6,9.11,9.11,0,0,0,18.21,3.91a2.87,2.87,0,0,1-2.41.9,7.23,7.23,0,0,0-3.64.59,7.32,7.32,0,0,0-4.24,5.3,3,3,0,0,1-1.57,2.08,9.7,9.7,0,0,0-5.2,7.92l-.07,1H7.62a6.35,6.35,0,0,1,0-.87,9.08,9.08,0,0,1,0-.91H3.05a7.93,7.93,0,0,1,4.13-5.53A4.76,4.76,0,0,0,9.66,11a5.55,5.55,0,0,1,6-4.46,4.63,4.63,0,0,0,3.88-1.46A7.34,7.34,0,0,1,31.44,6.83a4.83,4.83,0,0,0,3.29,2.56,7.47,7.47,0,0,1,2.39,1A7.57,7.57,0,0,1,40,19.88H34.16a9.07,9.07,0,0,1,.06.91,6.36,6.36,0,0,1-.06.87h6.9l.25-.47A9.34,9.34,0,0,0,38.07,8.88Z"/><path class="cls-2" d="M32.88,20.79a6.23,6.23,0,0,0-6.22-6.22H15.12a6.22,6.22,0,1,0,0,12.44h2.66l3.59,4.66h2.4V27h2.89A6.23,6.23,0,0,0,32.88,20.79ZM22,29.57l-3.34-4.34H15.12a4.44,4.44,0,1,1,0-8.88H26.66a4.44,4.44,0,1,1,0,8.88H22Z"/><path class="cls-2" d="M29.66,20.79a3.11,3.11,0,1,0-3.11,3.11A3.11,3.11,0,0,0,29.66,20.79Zm-3.11,1.33a1.33,1.33,0,1,1,1.33-1.33A1.33,1.33,0,0,1,26.55,22.12Z"/><path class="cls-2" d="M15.33,17.68a3.11,3.11,0,1,0,3.11,3.11A3.11,3.11,0,0,0,15.33,17.68Zm0,4.44a1.33,1.33,0,1,1,1.34-1.33A1.34,1.34,0,0,1,15.33,22.12Z"/><rect class="cls-2" x="34.43" y="32.56" width="1.78" height="1.78"/><rect class="cls-2" x="31.32" y="32.56" width="1.78" height="1.78"/><rect class="cls-2" x="28.21" y="32.56" width="1.78" height="1.78"/><path class="cls-2" d="M25.1,41h2.3l2-2.44h9.94V28.34H25.1Zm1.77-10.88H37.54v6.66h-9l-1.65,2Z"/></svg>