<svg id="Layer_1" data-name="Layer 1" xmlns="http://www.w3.org/2000/svg" viewBox="0 0 28.67 42"><title>Technology - RMIL_Server-Database-Server-Enterprise</title><metadata><?xpacket begin="﻿" id="W5M0MpCehiHzreSzNTczkc9d"?>
<x:xmpmeta xmlns:x="adobe:ns:meta/" x:xmptk="Adobe XMP Core 6.0-c002 79.164352, 2020/01/30-15:50:38        ">
   <rdf:RDF xmlns:rdf="http://www.w3.org/1999/02/22-rdf-syntax-ns#">
      <rdf:Description rdf:about=""
            xmlns:dc="http://purl.org/dc/elements/1.1/"
            xmlns:lr="http://ns.adobe.com/lightroom/1.0/"
            xmlns:xmp="http://ns.adobe.com/xap/1.0/"
            xmlns:xmpMM="http://ns.adobe.com/xap/1.0/mm/"
            xmlns:stEvt="http://ns.adobe.com/xap/1.0/sType/ResourceEvent#">
         <dc:title>
            <rdf:Alt>
               <rdf:li xml:lang="x-default">Technology - RMIL_Server-Database-Server-Enterprise</rdf:li>
            </rdf:Alt>
         </dc:title>
         <dc:subject>
            <rdf:Bag>
               <rdf:li>icon</rdf:li>
               <rdf:li>technology</rdf:li>
               <rdf:li>IT</rdf:li>
               <rdf:li>lock</rdf:li>
               <rdf:li>software</rdf:li>
               <rdf:li>laptop</rdf:li>
               <rdf:li>system</rdf:li>
            </rdf:Bag>
         </dc:subject>
         <lr:hierarchicalSubject>
            <rdf:Bag>
               <rdf:li>icon</rdf:li>
               <rdf:li>technology</rdf:li>
            </rdf:Bag>
         </lr:hierarchicalSubject>
         <xmp:MetadataDate>2021-12-16T16:20-06:00</xmp:MetadataDate>
         <xmpMM:InstanceID>xmp.iid:2a2a0ffc-d512-cc48-8cd5-d84060d0d3ee</xmpMM:InstanceID>
         <xmpMM:DocumentID>xmp.did:d21410a8-8487-3f46-add4-e0f70c0e80be</xmpMM:DocumentID>
         <xmpMM:OriginalDocumentID>xmp.did:d21410a8-8487-3f46-add4-e0f70c0e80be</xmpMM:OriginalDocumentID>
         <xmpMM:History>
            <rdf:Seq>
               <rdf:li>
                  <rdf:Description>
                     <stEvt:action>saved</stEvt:action>
                     <stEvt:instanceID>xmp.iid:d21410a8-8487-3f46-add4-e0f70c0e80be</stEvt:instanceID>
                     <stEvt:when>2021-12-16T16:09:38-06:00</stEvt:when>
                     <stEvt:softwareAgent>Adobe Bridge 2020 (Windows)</stEvt:softwareAgent>
                     <stEvt:changed>/metadata</stEvt:changed>
                  </rdf:Description>
               </rdf:li>
               <rdf:li>
                  <rdf:Description>
                     <stEvt:action>saved</stEvt:action>
                     <stEvt:instanceID>xmp.iid:2a2a0ffc-d512-cc48-8cd5-d84060d0d3ee</stEvt:instanceID>
                     <stEvt:when>2021-12-16T16:20-06:00</stEvt:when>
                     <stEvt:softwareAgent>Adobe Bridge 2020 (Windows)</stEvt:softwareAgent>
                     <stEvt:changed>/metadata</stEvt:changed>
                  </rdf:Description>
               </rdf:li>
            </rdf:Seq>
         </xmpMM:History>
      </rdf:Description>
   </rdf:RDF>
</x:xmpmeta>
                                                                                                    
                                                                                                    
                                                                                                    
                                                                                                    
                                                                                                    
                                                                                                    
                                                                                                    
                                                                                                    
                                                                                                    
                                                                                                    
                                                                                                    
                                                                                                    
                                                         
<?xpacket end="w"?></metadata>
<polygon points="0.5 41.5 0.5 39.86 2.55 38.83 3 38.83 3 0.5 25.67 0.5 25.67 38.83 26.12 38.83 28.17 39.86 28.17 41.5 0.5 41.5" fill="#fff"/><path d="M25.17,1V39.33H26l1.67.84V41H1v-.83l1.67-.84H3.5V1H25.17m1-1H2.5V38.33H2.43l-.21.11-1.67.83L0,39.55V42H28.67V39.55l-.56-.28-1.66-.83-.21-.11h-.07V0Z" fill="#fff"/><path d="M7.67,33.92H21V28.08H7.67Zm1.66-4.17h10v2.5h-10ZM8.5,12.88a1,1,0,1,1,1-1.05A1,1,0,0,1,8.5,12.88Zm3.33,0a1,1,0,1,1,1.05-1.05A1,1,0,0,1,11.83,12.88Zm3.34,0a1,1,0,1,1,1-1.05A1,1,0,0,1,15.17,12.88ZM21,5.17V6.83H7.67V5.17ZM7.67,8.08H21V9.75H7.67Zm0,11.67H21V13.92H7.67Zm1.66-4.17h10v2.5h-10ZM7.67,26.83H21V21H7.67Zm1.66-4.16h10v2.5h-10ZM7.67,35.17H21v1.66H7.67ZM26,39.33h-.83V1H3.5V39.33H2.67L1,40.17V41H27.67v-.83ZM5.17,2.67H23.5V39.33H5.17Z" fill="#2c5967"/></svg>