<svg id="Layer_1" data-name="Layer 1" xmlns="http://www.w3.org/2000/svg" viewBox="0 0 38.71 42"><metadata><?xpacket begin="﻿" id="W5M0MpCehiHzreSzNTczkc9d"?>
<x:xmpmeta xmlns:x="adobe:ns:meta/" x:xmptk="Adobe XMP Core 6.0-c006 79.164648, 2021/01/12-15:52:29        ">
   <rdf:RDF xmlns:rdf="http://www.w3.org/1999/02/22-rdf-syntax-ns#">
      <rdf:Description rdf:about=""
            xmlns:dc="http://purl.org/dc/elements/1.1/"
            xmlns:xmp="http://ns.adobe.com/xap/1.0/"
            xmlns:xmpMM="http://ns.adobe.com/xap/1.0/mm/"
            xmlns:stEvt="http://ns.adobe.com/xap/1.0/sType/ResourceEvent#"
            xmlns:xmpRights="http://ns.adobe.com/xap/1.0/rights/"
            xmlns:lr="http://ns.adobe.com/lightroom/1.0/">
         <dc:subject>
            <rdf:Bag>
               <rdf:li>instance</rdf:li>
               <rdf:li>commited</rdf:li>
               <rdf:li>transaction</rdf:li>
               <rdf:li>database</rdf:li>
               <rdf:li>icon</rdf:li>
            </rdf:Bag>
         </dc:subject>
         <dc:rights>
            <rdf:Alt>
               <rdf:li xml:lang="x-default">Oracle All Rights</rdf:li>
            </rdf:Alt>
         </dc:rights>
         <xmp:MetadataDate>2023-08-02T14:36:31-06:00</xmp:MetadataDate>
         <xmpMM:InstanceID>xmp.iid:0bd97f6f-e725-485f-a933-7eb79a4fe568</xmpMM:InstanceID>
         <xmpMM:DocumentID>xmp.did:7db2e3e8-c45d-4367-8e51-b2e1849cee69</xmpMM:DocumentID>
         <xmpMM:OriginalDocumentID>xmp.did:7db2e3e8-c45d-4367-8e51-b2e1849cee69</xmpMM:OriginalDocumentID>
         <xmpMM:History>
            <rdf:Seq>
               <rdf:li>
                  <rdf:Description>
                     <stEvt:action>saved</stEvt:action>
                     <stEvt:instanceID>xmp.iid:7db2e3e8-c45d-4367-8e51-b2e1849cee69</stEvt:instanceID>
                     <stEvt:when>2023-08-02T13:48:33-06:00</stEvt:when>
                     <stEvt:softwareAgent>Adobe Bridge 2021 (Macintosh)</stEvt:softwareAgent>
                     <stEvt:changed>/metadata</stEvt:changed>
                  </rdf:Description>
               </rdf:li>
               <rdf:li>
                  <rdf:Description>
                     <stEvt:action>saved</stEvt:action>
                     <stEvt:instanceID>xmp.iid:0bd97f6f-e725-485f-a933-7eb79a4fe568</stEvt:instanceID>
                     <stEvt:when>2023-08-02T14:36:31-06:00</stEvt:when>
                     <stEvt:softwareAgent>Adobe Bridge 2021 (Macintosh)</stEvt:softwareAgent>
                     <stEvt:changed>/metadata</stEvt:changed>
                  </rdf:Description>
               </rdf:li>
            </rdf:Seq>
         </xmpMM:History>
         <xmpRights:Marked>True</xmpRights:Marked>
         <lr:hierarchicalSubject>
            <rdf:Bag>
               <rdf:li>Other Keywords|icon</rdf:li>
            </rdf:Bag>
         </lr:hierarchicalSubject>
      </rdf:Description>
   </rdf:RDF>
</x:xmpmeta>
                                                                                                    
                                                                                                    
                                                                                                    
                                                                                                    
                                                                                                    
                                                                                                    
                                                                                                    
                                                                                                    
                                                                                                    
                                                                                            
<?xpacket end="w"?></metadata>
<path d="M24.43,41.5a5.46,5.46,0,0,1-5.34-4.24h-2C15.37,37.28.5,37.14.5,32.36V5.71a1,1,0,0,1,0-.17c0-3.72,8.92-5,16.56-5s16.56,1.32,16.56,5v17.3a5.45,5.45,0,0,1,4.59,5.4,5.51,5.51,0,0,1-5.51,5.51,5.4,5.4,0,0,1-2.93-.87c-.16.18-.33.35-.5.51a5.41,5.41,0,0,1,.67,2.6A5.51,5.51,0,0,1,24.43,41.5Z" fill="#fff"/><path d="M17.06,1C24.8,1,33.12,2.42,33.12,5.54a.91.91,0,0,1,0,.17.41.41,0,0,1,0,.11V23.28a5,5,0,1,1-3.44,8.93,6.26,6.26,0,0,1-1.05,1.07A5,5,0,0,1,29.44,36a5,5,0,0,1-9.94.76l-1.24,0h-1.2C11.51,36.78,1,35.86,1,32.36V5.82s0-.07,0-.11a.91.91,0,0,1,0-.17C1,2.42,9.33,1,17.06,1m0-1C14.21,0,0,.27,0,5.54A.92.92,0,0,0,0,5.7a.49.49,0,0,0,0,.12V32.36c0,2.12,2.21,3.59,6.75,4.5a56.94,56.94,0,0,0,10.31.92h1.65A6,6,0,0,0,24.43,42a6,6,0,0,0,6-6,5.89,5.89,0,0,0-.53-2.44,5.89,5.89,0,0,0,2.79.7,6,6,0,0,0,1.42-11.82V5.54C34.12.27,19.91,0,17.06,0Z" fill="#fff"/><path d="M18.29,36a5.84,5.84,0,0,1,.05-.73H17.06A48,48,0,0,1,6.41,34.22c-3.18-.76-3.9-1.62-3.9-1.86V25.54c1.69,1,4.59,1.61,7.56,2A6.37,6.37,0,0,1,10.43,26a33.44,33.44,0,0,1-4-.69c-3.18-.76-3.9-1.62-3.9-1.85V16.8c3.11,1.84,10.29,2.38,14.55,2.38l1.34,0a6.16,6.16,0,0,1,.5-1.52c-.6,0-1.22,0-1.84,0A48.57,48.57,0,0,1,6.41,16.62c-3.18-.77-3.9-1.62-3.9-1.86V7.61c2.75,1.68,8.81,2.46,14.55,2.46s11.8-.78,14.55-2.46v7.15c0,.2-.51.84-2.57,1.49a6.53,6.53,0,0,1,.88,1.31,9.92,9.92,0,0,0,1.69-.76v5.4a6.59,6.59,0,0,1,1.09-.1l.42,0V5.82a.41.41,0,0,0,0-.11.91.91,0,0,0,0-.17C33.12,2.42,24.8,1,17.06,1S1,2.42,1,5.54a.91.91,0,0,0,0,.17s0,.07,0,.11V32.36c0,3.5,10.51,4.42,16.06,4.42h1.28A6.81,6.81,0,0,1,18.29,36ZM17.06,2.51A46.45,46.45,0,0,1,27.7,3.6c3.21.79,3.91,1.66,3.91,1.94s-.7,1.14-3.91,1.93A46.45,46.45,0,0,1,17.06,8.56,46.45,46.45,0,0,1,6.42,7.47C3.21,6.68,2.51,5.81,2.51,5.54s.7-1.15,3.91-1.94A46.45,46.45,0,0,1,17.06,2.51Z" fill="#2c5967"/><path d="M24.43,25.32a5,5,0,1,0-5-5A5,5,0,0,0,24.43,25.32Zm-3.49-5a3.5,3.5,0,1,1,3.49,3.49A3.5,3.5,0,0,1,20.94,20.31Z" fill="#2c5967"/><polygon points="23.3 19.64 22.23 20.71 23.86 22.33 26.61 19.58 25.54 18.51 23.86 20.19 23.3 19.64" fill="#2c5967"/><path d="M32.7,23.24a5,5,0,1,0,5,5A5,5,0,0,0,32.7,23.24Zm0,8.5a3.5,3.5,0,1,1,3.49-3.5A3.5,3.5,0,0,1,32.7,31.74Z" fill="#2c5967"/><polygon points="33.8 26.45 32.12 28.13 31.57 27.57 30.5 28.64 32.12 30.27 34.87 27.52 33.8 26.45" fill="#2c5967"/><path d="M16.16,33.25a5,5,0,1,0-5-5A5,5,0,0,0,16.16,33.25Zm0-8.5a3.5,3.5,0,1,1-3.49,3.49A3.5,3.5,0,0,1,16.16,24.75Z" fill="#2c5967"/><polygon points="15.59 30.27 18.34 27.52 17.27 26.45 15.59 28.13 15.04 27.57 13.97 28.64 15.59 30.27" fill="#2c5967"/><path d="M24.43,31a5,5,0,1,0,5,5A5,5,0,0,0,24.43,31Zm3.5,5a3.5,3.5,0,1,1-3.5-3.49A3.5,3.5,0,0,1,27.93,36Z" fill="#2c5967"/><polygon points="25.54 34.2 23.86 35.88 23.3 35.32 22.23 36.39 23.86 38.01 26.61 35.27 25.54 34.2" fill="#2c5967"/></svg>