<svg id="Layer_1" data-name="Layer 1" xmlns="http://www.w3.org/2000/svg" viewBox="0 0 45.52 42"><defs><style>.cls-1{fill:#fff;}.cls-2{fill:#2c5967;}</style></defs><title>Technology_Oracle-Big-Data-Technology</title><metadata><?xpacket begin="﻿" id="W5M0MpCehiHzreSzNTczkc9d"?>
<x:xmpmeta xmlns:x="adobe:ns:meta/" x:xmptk="Adobe XMP Core 6.0-c006 79.164648, 2021/01/12-15:52:29        ">
   <rdf:RDF xmlns:rdf="http://www.w3.org/1999/02/22-rdf-syntax-ns#">
      <rdf:Description rdf:about=""
            xmlns:dc="http://purl.org/dc/elements/1.1/"
            xmlns:lr="http://ns.adobe.com/lightroom/1.0/"
            xmlns:xmp="http://ns.adobe.com/xap/1.0/"
            xmlns:xmpMM="http://ns.adobe.com/xap/1.0/mm/"
            xmlns:stEvt="http://ns.adobe.com/xap/1.0/sType/ResourceEvent#"
            xmlns:xmpRights="http://ns.adobe.com/xap/1.0/rights/">
         <dc:title>
            <rdf:Alt>
               <rdf:li xml:lang="x-default">Technology_Oracle-Big-Data-Technology</rdf:li>
            </rdf:Alt>
         </dc:title>
         <dc:subject>
            <rdf:Bag>
               <rdf:li>icon</rdf:li>
               <rdf:li>technology</rdf:li>
            </rdf:Bag>
         </dc:subject>
         <dc:rights>
            <rdf:Alt>
               <rdf:li xml:lang="x-default">Oracle All Rights Reserved</rdf:li>
            </rdf:Alt>
         </dc:rights>
         <lr:hierarchicalSubject>
            <rdf:Bag>
               <rdf:li>icon</rdf:li>
               <rdf:li>technology</rdf:li>
            </rdf:Bag>
         </lr:hierarchicalSubject>
         <xmp:MetadataDate>2021-06-24T19:23:56-05:00</xmp:MetadataDate>
         <xmpMM:InstanceID>xmp.iid:f685f529-444f-4642-a9bc-63a4f019b8f3</xmpMM:InstanceID>
         <xmpMM:DocumentID>xmp.did:be62dc15-cac0-4d99-b1e6-3a90c0303bf1</xmpMM:DocumentID>
         <xmpMM:OriginalDocumentID>xmp.did:be62dc15-cac0-4d99-b1e6-3a90c0303bf1</xmpMM:OriginalDocumentID>
         <xmpMM:History>
            <rdf:Seq>
               <rdf:li>
                  <rdf:Description>
                     <stEvt:action>saved</stEvt:action>
                     <stEvt:instanceID>xmp.iid:be62dc15-cac0-4d99-b1e6-3a90c0303bf1</stEvt:instanceID>
                     <stEvt:when>2021-06-18T11:42:17-05:00</stEvt:when>
                     <stEvt:softwareAgent>Adobe Bridge 2021 (Macintosh)</stEvt:softwareAgent>
                     <stEvt:changed>/metadata</stEvt:changed>
                  </rdf:Description>
               </rdf:li>
               <rdf:li>
                  <rdf:Description>
                     <stEvt:action>saved</stEvt:action>
                     <stEvt:instanceID>xmp.iid:f685f529-444f-4642-a9bc-63a4f019b8f3</stEvt:instanceID>
                     <stEvt:when>2021-06-24T19:23:56-05:00</stEvt:when>
                     <stEvt:softwareAgent>Adobe Bridge 2021 (Macintosh)</stEvt:softwareAgent>
                     <stEvt:changed>/metadata</stEvt:changed>
                  </rdf:Description>
               </rdf:li>
            </rdf:Seq>
         </xmpMM:History>
         <xmpRights:Marked>True</xmpRights:Marked>
      </rdf:Description>
   </rdf:RDF>
</x:xmpmeta>
                                                                                                    
                                                                                                    
                                                                                                    
                                                                                                    
                                                                                                    
                                                                                                    
                                                                                                    
                                                                                                    
                                                                                                    
                                                                                                    
                                                                                                    
                                                        
<?xpacket end="w"?></metadata>
<path class="cls-1" d="M34.78,41.5a7.35,7.35,0,0,1-7.24-6.23,16.22,16.22,0,0,1-4.09.53,16,16,0,0,1-8.69-2.55v2H.5V21H7.33c0-.5-.07-1-.07-1.41A16.19,16.19,0,0,1,29.1,4.44V.5H43.37V14.76H38.88a15.85,15.85,0,0,1,.54,2.34c0,.18.06.35.08.52s0,.43.07.64c0,.42.06.83.06,1.26v.3c0,.63-.05,1.12-.1,1.58l-.06.43,0,.21c0,.37-.11.74-.19,1.1l0,.22-.11.46h0L39,24a7.31,7.31,0,0,1,6,7.22v1.33h-3v.74l.06.79A7.35,7.35,0,0,1,34.78,41.5Z"/><path class="cls-1" d="M42.87,1V14.26H38.18a15.83,15.83,0,0,1,.75,2.92c0,.17,0,.33.07.5s0,.42.07.63c0,.4.06.8.06,1.21v.13c0,.08,0,.15,0,.23A14.32,14.32,0,0,1,39,21.35c0,.2-.06.41-.09.61,0,.36-.11.72-.19,1.08,0,.06,0,.14,0,.2h0c-.1.41-.21.82-.34,1.21a6.86,6.86,0,0,1,6.16,6.81v.83h-3v1.24l.06.83A6.83,6.83,0,0,1,28,34.63a15.61,15.61,0,0,1-13.71-2.32v2.47H1V21.52H7.89a15.06,15.06,0,0,1-.13-1.91A15.7,15.7,0,0,1,29.6,5.18V1H42.87m1-1H28.6V3.74A16.7,16.7,0,0,0,6.76,19.61c0,.29,0,.59,0,.91H0V35.78H15.26V34.14a16.55,16.55,0,0,0,11.88,1.74,7.84,7.84,0,0,0,15.48-1.72v-.07l-.06-.8v-.2h3V31.26a7.8,7.8,0,0,0-5.88-7.59l0-.19a1.62,1.62,0,0,0,0-.19c.09-.43.15-.81.21-1.18l0-.19c0-.15,0-.31.07-.46,0-.48.08-1,.09-1.56a2.45,2.45,0,0,0,0-.25v0h0v-.12c0-.39,0-.81-.06-1.27,0-.22,0-.44-.07-.66s0-.32-.08-.48V17a15.29,15.29,0,0,0-.37-1.76h4.33V0Z"/><path class="cls-2" d="M8.06,20.27c0-.2,0-.41,0-.62A15.54,15.54,0,0,1,28.36,4.86V6.61a13.75,13.75,0,0,0-4.77-.84A13.9,13.9,0,0,0,9.7,19.65c0,.21,0,.42,0,.62Zm29.62,2.91a8.77,8.77,0,0,1,1,.06,15.14,15.14,0,0,0,.42-3.59,15.32,15.32,0,0,0-.56-4.14H36.84A13.74,13.74,0,0,1,37,23.18ZM23.59,33.54a13.79,13.79,0,0,1-8.08-2.61v2a15.49,15.49,0,0,0,11.22,2q0-.36,0-.72a8,8,0,0,1,.06-1A13.82,13.82,0,0,1,23.59,33.54Zm12-.21h6v.83a6.84,6.84,0,1,1-6.84-6.84h.83Zm-6,.83a5.19,5.19,0,0,0,1,3L34,33.82V29.05A5.18,5.18,0,0,0,29.6,34.16Zm5.53.83-3.38,3.37A5.18,5.18,0,0,0,39.9,35Zm9.39-3.73v.83H36.85V24.42h.83A6.84,6.84,0,0,1,44.52,31.26Zm-1.72-.83a5.21,5.21,0,0,0-4.29-4.29v4.29Zm.07-16.17H29.6V1H42.87ZM41.21,2.66H31.26v10H32.5V8.88h1.66v3.73H35.4V6.8h1.66v5.81h1.25V4.73H40v7.88h1.25ZM1,21.52H14.26V34.78H1Zm11.61,11.6V28.18L9.08,31.71,5.77,28.39,2.66,31.5v1.62ZM2.66,23.18v6l3.11-3.1,3.31,3.31,3.53-3.52V23.18Zm23.08-.53A2.67,2.67,0,0,1,28.13,20c0-.12,0-.24,0-.36a4.51,4.51,0,0,0-1.34-3.22,3.87,3.87,0,0,0,.61-1.67,6.22,6.22,0,0,1,2.39,4.89,5.84,5.84,0,0,1,0,.73,2.65,2.65,0,1,1-4,2.27Zm1.66,0a1,1,0,1,0,2,0,1,1,0,0,0-2,0Zm-1.19-8.36a2.66,2.66,0,0,1-4.9,1.42,4.53,4.53,0,0,0-2.19,3.06h-.33a3.93,3.93,0,0,0-1.38.25,6.19,6.19,0,0,1,3.5-5,2.66,2.66,0,0,1,5.3.24Zm-1.66,0a1,1,0,1,0-2,0,1,1,0,0,0,2,0Zm-3.11,8.36a2.51,2.51,0,0,1-.17.92,4.56,4.56,0,0,0,3.49.49,4,4,0,0,0,1,1.43,6.1,6.1,0,0,1-2.14.38,6.22,6.22,0,0,1-3.36-1,2.62,2.62,0,0,1-1.44.43,2.66,2.66,0,1,1,2.65-2.66Zm-1.66,0a1,1,0,0,0-2,0,1,1,0,1,0,2,0Z"/><path class="cls-2" d="M8.06,20.27c0-.2,0-.41,0-.62A15.54,15.54,0,0,1,28.36,4.86V6.61a13.75,13.75,0,0,0-4.77-.84A13.9,13.9,0,0,0,9.7,19.65c0,.21,0,.42,0,.62Zm29.62,2.91a8.77,8.77,0,0,1,1,.06,15.14,15.14,0,0,0,.42-3.59,15.32,15.32,0,0,0-.56-4.14H36.84A13.74,13.74,0,0,1,37,23.18ZM23.59,33.54a13.79,13.79,0,0,1-8.08-2.61v2a15.49,15.49,0,0,0,11.22,2q0-.36,0-.72a8,8,0,0,1,.06-1A13.82,13.82,0,0,1,23.59,33.54Zm12-.21h6v.83a6.84,6.84,0,1,1-6.84-6.84h.83Zm-6,.83a5.19,5.19,0,0,0,1,3L34,33.82V29.05A5.18,5.18,0,0,0,29.6,34.16Zm5.53.83-3.38,3.37A5.18,5.18,0,0,0,39.9,35Zm9.39-3.73v.83H36.85V24.42h.83A6.84,6.84,0,0,1,44.52,31.26Zm-1.72-.83a5.21,5.21,0,0,0-4.29-4.29v4.29Zm.07-16.17H29.6V1H42.87ZM41.21,2.66H31.26v10H32.5V8.88h1.66v3.73H35.4V6.8h1.66v5.81h1.25V4.73H40v7.88h1.25ZM1,21.52H14.26V34.78H1Zm11.61,11.6V28.18L9.08,31.71,5.77,28.39,2.66,31.5v1.62ZM2.66,23.18v6l3.11-3.1,3.31,3.31,3.53-3.52V23.18Zm23.08-.53A2.67,2.67,0,0,1,28.13,20c0-.12,0-.24,0-.36a4.51,4.51,0,0,0-1.34-3.22,3.87,3.87,0,0,0,.61-1.67,6.22,6.22,0,0,1,2.39,4.89,5.84,5.84,0,0,1,0,.73,2.65,2.65,0,1,1-4,2.27Zm1.66,0a1,1,0,1,0,2,0,1,1,0,0,0-2,0Zm-1.19-8.36a2.66,2.66,0,0,1-4.9,1.42,4.53,4.53,0,0,0-2.19,3.06h-.33a3.93,3.93,0,0,0-1.38.25,6.19,6.19,0,0,1,3.5-5,2.66,2.66,0,0,1,5.3.24Zm-1.66,0a1,1,0,1,0-2,0,1,1,0,0,0,2,0Zm-3.11,8.36a2.51,2.51,0,0,1-.17.92,4.56,4.56,0,0,0,3.49.49,4,4,0,0,0,1,1.43,6.1,6.1,0,0,1-2.14.38,6.22,6.22,0,0,1-3.36-1,2.62,2.62,0,0,1-1.44.43,2.66,2.66,0,1,1,2.65-2.66Zm-1.66,0a1,1,0,0,0-2,0,1,1,0,1,0,2,0Z"/></svg>