<svg id="Layer_1" data-name="Layer 1" xmlns="http://www.w3.org/2000/svg" viewBox="0 0 46.91 42"><title>RMIL_CX_Cloud Platform</title><metadata><?xpacket begin="﻿" id="W5M0MpCehiHzreSzNTczkc9d"?>
<x:xmpmeta xmlns:x="adobe:ns:meta/" x:xmptk="Adobe XMP Core 6.0-c006 79.164648, 2021/01/12-15:52:29        ">
   <rdf:RDF xmlns:rdf="http://www.w3.org/1999/02/22-rdf-syntax-ns#">
      <rdf:Description rdf:about=""
            xmlns:dc="http://purl.org/dc/elements/1.1/"
            xmlns:xmp="http://ns.adobe.com/xap/1.0/"
            xmlns:xmpMM="http://ns.adobe.com/xap/1.0/mm/"
            xmlns:stEvt="http://ns.adobe.com/xap/1.0/sType/ResourceEvent#"
            xmlns:lr="http://ns.adobe.com/lightroom/1.0/"
            xmlns:xmpRights="http://ns.adobe.com/xap/1.0/rights/">
         <dc:title>
            <rdf:Alt>
               <rdf:li xml:lang="x-default">RMIL_CX_Cloud Platform</rdf:li>
            </rdf:Alt>
         </dc:title>
         <dc:subject>
            <rdf:Bag>
               <rdf:li>cloud</rdf:li>
               <rdf:li>cluster</rdf:li>
               <rdf:li>nodes</rdf:li>
               <rdf:li>icon</rdf:li>
            </rdf:Bag>
         </dc:subject>
         <dc:rights>
            <rdf:Alt>
               <rdf:li xml:lang="x-default">Oracle All Rights Reserved</rdf:li>
            </rdf:Alt>
         </dc:rights>
         <xmp:MetadataDate>2022-01-29T10:38:55-06:00</xmp:MetadataDate>
         <xmpMM:InstanceID>xmp.iid:c1be8345-792b-496c-8956-8a4be8678b25</xmpMM:InstanceID>
         <xmpMM:DocumentID>xmp.did:0fc6a01f-a0e0-2841-ad0f-158e493d7aa2</xmpMM:DocumentID>
         <xmpMM:OriginalDocumentID>xmp.did:0fc6a01f-a0e0-2841-ad0f-158e493d7aa2</xmpMM:OriginalDocumentID>
         <xmpMM:History>
            <rdf:Seq>
               <rdf:li>
                  <rdf:Description>
                     <stEvt:action>saved</stEvt:action>
                     <stEvt:instanceID>xmp.iid:0fc6a01f-a0e0-2841-ad0f-158e493d7aa2</stEvt:instanceID>
                     <stEvt:when>2022-01-28T12:30:36-06:00</stEvt:when>
                     <stEvt:softwareAgent>Adobe Bridge 2020 (Windows)</stEvt:softwareAgent>
                     <stEvt:changed>/metadata</stEvt:changed>
                  </rdf:Description>
               </rdf:li>
               <rdf:li>
                  <rdf:Description>
                     <stEvt:action>saved</stEvt:action>
                     <stEvt:instanceID>xmp.iid:c1be8345-792b-496c-8956-8a4be8678b25</stEvt:instanceID>
                     <stEvt:when>2022-01-29T10:38:55-06:00</stEvt:when>
                     <stEvt:softwareAgent>Adobe Bridge 2021 (Macintosh)</stEvt:softwareAgent>
                     <stEvt:changed>/metadata</stEvt:changed>
                  </rdf:Description>
               </rdf:li>
            </rdf:Seq>
         </xmpMM:History>
         <lr:hierarchicalSubject>
            <rdf:Bag>
               <rdf:li>icon</rdf:li>
            </rdf:Bag>
         </lr:hierarchicalSubject>
         <xmpRights:Marked>True</xmpRights:Marked>
      </rdf:Description>
   </rdf:RDF>
</x:xmpmeta>
                                                                                                    
                                                                                                    
                                                                                                    
                                                                                                    
                                                                                                    
                                                                                                    
                                                                                                    
                                                                                                    
                                                                                                    
                                                                                                  
<?xpacket end="w"?></metadata>
<path d="M33.28,41.5a3.37,3.37,0,0,1-.9-.12,3.41,3.41,0,0,1-2.09-1.6c-.05-.08-.09-.16-.13-.24H16.75c0,.08-.08.16-.13.24a3.44,3.44,0,0,1-2.09,1.6,3.37,3.37,0,0,1-.9.12,3.44,3.44,0,0,1-3-5.17l.09-.15L4,24.32a3.37,3.37,0,0,1-.9-.12A3.37,3.37,0,0,1,1,22.6a3.46,3.46,0,0,1,1.27-4.71,3.42,3.42,0,0,1,1.71-.46h.15l6.66-11.6-.09-.16a3.44,3.44,0,0,1,6-3.45c.05.08.09.16.13.24H30.16c0-.08.08-.16.13-.24a3.44,3.44,0,1,1,6,3.45l-.09.16,6.66,11.6H43a3.45,3.45,0,0,1,3,5.17,3.33,3.33,0,0,1-.89,1,3.43,3.43,0,0,1-1.21.6,3.68,3.68,0,0,1-.89.11l-6.8,11.86.09.15a3.44,3.44,0,0,1-3,5.17Z" fill="#fff"/><path d="M33.28,1a2.82,2.82,0,0,1,1.46.4,2.89,2.89,0,0,1,1.37,1.78,2.88,2.88,0,0,1-.29,2.24,2.45,2.45,0,0,1-.26.37l7,12.17a3,3,0,0,1,3.26,2.15,2.92,2.92,0,0,1-.3,2.24,3,3,0,0,1-.75.87,2.91,2.91,0,0,1-1,.5,3,3,0,0,1-.77.1h-.28l-7.12,12.4a3.09,3.09,0,0,1,.26.37,2.95,2.95,0,0,1-1.08,4,2.82,2.82,0,0,1-1.46.4,2.86,2.86,0,0,1-.77-.1,2.91,2.91,0,0,1-1.79-1.37A2.38,2.38,0,0,1,30.5,39H16.41a2.38,2.38,0,0,1-.22.49A2.91,2.91,0,0,1,14.4,40.9a2.86,2.86,0,0,1-.77.1,2.82,2.82,0,0,1-1.46-.4,2.85,2.85,0,0,1-1.37-1.78,2.89,2.89,0,0,1,.29-2.24,3.09,3.09,0,0,1,.26-.37L4.23,23.81H4a3,3,0,0,1-.77-.1A2.89,2.89,0,0,1,1.4,22.35a2.92,2.92,0,0,1-.3-2.24A2.94,2.94,0,0,1,4.36,18l7-12.17a2.45,2.45,0,0,1-.26-.37,2.88,2.88,0,0,1-.29-2.24A2.85,2.85,0,0,1,12.17,1.4,2.82,2.82,0,0,1,13.63,1a2.86,2.86,0,0,1,.77.1,2.94,2.94,0,0,1,1.79,1.37,2.64,2.64,0,0,1,.22.49H30.5a2.64,2.64,0,0,1,.22-.49A2.94,2.94,0,0,1,32.51,1.1a2.86,2.86,0,0,1,.77-.1m0-1a4,4,0,0,0-1,.14A3.92,3.92,0,0,0,29.86,2H17.05A3.92,3.92,0,0,0,14.66.14a4,4,0,0,0-1-.14,3.94,3.94,0,0,0-3.8,2.92,3.92,3.92,0,0,0,.34,2.91L3.8,16.93A4.08,4.08,0,0,0,2,17.46a3.92,3.92,0,0,0-1.83,2.4,3.86,3.86,0,0,0,.39,3,3.92,3.92,0,0,0,2.39,1.84,4.45,4.45,0,0,0,.73.12l6.52,11.36A4,4,0,0,0,13.63,42a4.4,4.4,0,0,0,1-.13A4,4,0,0,0,17.05,40H29.86a3.94,3.94,0,0,0,2.39,1.83,4.4,4.4,0,0,0,1,.13,4,4,0,0,0,3.8-2.92,4,4,0,0,0-.34-2.91l6.52-11.36a4.45,4.45,0,0,0,.73-.12A3.75,3.75,0,0,0,45.36,24a3.95,3.95,0,0,0-.43-6.55,4,4,0,0,0-1.82-.53L36.74,5.83a4,4,0,0,0,.34-2.91A4,4,0,0,0,33.28,0Z" fill="#fff"/><path d="M14.13,37.21a1,1,0,0,0-.49-.14.82.82,0,0,0-.26,0,1,1,0,0,0-.59.45,1,1,0,0,0-.13.49,1.15,1.15,0,0,0,0,.26,1,1,0,0,0,.46.59.92.92,0,0,0,.74.1,1,1,0,0,0,.6-.45,1,1,0,0,0,.1-.75A1,1,0,0,0,14.13,37.21Z" fill="none"/><path d="M13.38,4.89a1,1,0,0,0,.75-.09,1,1,0,0,0,.46-.6,1,1,0,0,0-.7-1.2.73.73,0,0,0-.25,0,1,1,0,0,0-.49.14,1,1,0,0,0-.46.59,1,1,0,0,0,.1.75A.92.92,0,0,0,13.38,4.89Z" fill="none"/><path d="M33.53,37.11a.82.82,0,0,0-.26,0,1,1,0,0,0-.49.14,1,1,0,0,0-.46.59,1,1,0,0,0,.1.75A1,1,0,0,0,33,39a.92.92,0,0,0,.74-.1,1,1,0,0,0,.46-.59,1,1,0,0,0-.1-.75A1,1,0,0,0,33.53,37.11Z" fill="none"/><path d="M32.78,4.8a1,1,0,0,0,.75.09.92.92,0,0,0,.59-.45A1,1,0,0,0,34.25,4a1.15,1.15,0,0,0,0-.26,1,1,0,0,0-.46-.59A1,1,0,0,0,33.27,3,.73.73,0,0,0,33,3a1,1,0,0,0-.7,1.2A1,1,0,0,0,32.78,4.8Z" fill="none"/><path d="M4.2,19.93a1.09,1.09,0,0,0-.26,0,.91.91,0,0,0-.48.13,1,1,0,0,0-.46.59.94.94,0,0,0,.1.75,1,1,0,0,0,.59.46,1,1,0,0,0,.75-.1.92.92,0,0,0,.45-.6,1,1,0,0,0-.09-.74A1,1,0,0,0,4.2,19.93Z" fill="none"/><path d="M43.45,20A.91.91,0,0,0,43,19.9a1.09,1.09,0,0,0-.26,0,1,1,0,0,0-.6.46,1,1,0,0,0-.09.74.92.92,0,0,0,.45.6,1,1,0,0,0,.75.1,1,1,0,0,0,.59-.46,1,1,0,0,0,.13-.49,1.15,1.15,0,0,0,0-.26A1,1,0,0,0,43.45,20Z" fill="none"/><path d="M30.33,20.18a3,3,0,0,0-.94-.38,2.84,2.84,0,0,1-1.92-1.5,2.87,2.87,0,0,0-4.67-.67,2.73,2.73,0,0,1-2.28.86,2,2,0,0,0-1,.16,2.06,2.06,0,0,0-1.17,1.47,2.83,2.83,0,0,1-1.46,1.94,3.17,3.17,0,0,0-1.42,1.52H31.58A3,3,0,0,0,30.33,20.18Z" fill="none"/><path d="M35.14,21.86a5.09,5.09,0,0,0-.53-2h5.58a2.71,2.71,0,0,1,.22-.49,3.15,3.15,0,0,1,.4-.54l-6.92-12h0a2.68,2.68,0,0,1-.62.07,3.06,3.06,0,0,1-.85-.12L28.28,14.3a6,6,0,0,0-1.78-.84l4.33-7.87a2.55,2.55,0,0,1-.33-.66H16.41a3.35,3.35,0,0,1-.32.66l5.12,9.18a5.79,5.79,0,0,0-.51.48.64.64,0,0,1-.5.21h-.08l-.48,0h-.3L14.49,6.76A2.82,2.82,0,0,1,13,6.82L6.1,18.87a3.15,3.15,0,0,1,.4.54,2.71,2.71,0,0,1,.22.49h7.76a1.49,1.49,0,0,1-.3.22,4.1,4.1,0,0,0-1.76,1.74H6.72A2.9,2.9,0,0,1,6,23l7,12.21h0a3,3,0,0,1,1.36,0L19,27h2.24L16,36.3a2.82,2.82,0,0,1,.4.77H30.5a2.91,2.91,0,0,1,.33-.66h0L25.6,27h2.25l4.57,8.23a2.82,2.82,0,0,1,1.47-.06l7-12.21a3,3,0,0,1-.7-1.11Zm-2,3.17-.31.51H13.15l.08-1.05A5.15,5.15,0,0,1,16,20.32a.84.84,0,0,0,.44-.58,4,4,0,0,1,2.31-2.89,4.12,4.12,0,0,1,2-.32.77.77,0,0,0,.66-.24,4.82,4.82,0,0,1,7.85,1.13.89.89,0,0,0,.59.46A4.92,4.92,0,0,1,33.09,25Z" fill="none"/><path d="M45.81,20.11a3,3,0,0,0-1.37-1.78A2.92,2.92,0,0,0,42.55,18l-7-12.17a2.45,2.45,0,0,0,.26-.37,2.88,2.88,0,0,0,.29-2.24,3,3,0,0,0-3.6-2.08,2.94,2.94,0,0,0-1.79,1.37A2.64,2.64,0,0,0,30.5,3H16.41a2.64,2.64,0,0,0-.22-.49A2.94,2.94,0,0,0,14.4,1.1a2.9,2.9,0,0,0-2.23.3A2.85,2.85,0,0,0,10.8,3.18a2.88,2.88,0,0,0,.29,2.24,2.45,2.45,0,0,0,.26.37L4.36,18a2.92,2.92,0,0,0-1.89.37A3,3,0,0,0,1.1,20.11a2.92,2.92,0,0,0,.3,2.24,2.89,2.89,0,0,0,1.78,1.37,3,3,0,0,0,.77.1h.28l7.12,12.4a3.09,3.09,0,0,0-.26.37,2.89,2.89,0,0,0-.29,2.24,2.85,2.85,0,0,0,1.37,1.78,2.82,2.82,0,0,0,1.46.4,2.86,2.86,0,0,0,.77-.1,2.91,2.91,0,0,0,1.79-1.37,2.38,2.38,0,0,0,.22-.49H30.5a2.38,2.38,0,0,0,.22.49,2.91,2.91,0,0,0,1.79,1.37,2.86,2.86,0,0,0,.77.1,2.82,2.82,0,0,0,1.46-.4,2.95,2.95,0,0,0,1.08-4,3.09,3.09,0,0,0-.26-.37l7.12-12.4H43a3,3,0,0,0,.77-.1,2.91,2.91,0,0,0,1-.5,3,3,0,0,0,.75-.87A2.92,2.92,0,0,0,45.81,20.11ZM32.42,3.46A1,1,0,0,1,33,3a.73.73,0,0,1,.25,0,1,1,0,0,1,.49.14,1,1,0,0,1,.46.59,1.15,1.15,0,0,1,0,.26,1,1,0,0,1-.13.49.92.92,0,0,1-.59.45,1,1,0,0,1-.75-.09,1,1,0,0,1-.46-.6A1,1,0,0,1,32.42,3.46Zm-19.73.23a1,1,0,0,1,.46-.59A1,1,0,0,1,13.64,3a.73.73,0,0,1,.25,0,1,1,0,0,1,.7,1.2,1,1,0,0,1-.46.6,1,1,0,0,1-.75.09.92.92,0,0,1-.59-.45A1,1,0,0,1,12.69,3.69ZM4.89,21.13a.92.92,0,0,1-.45.6,1,1,0,0,1-.75.1,1,1,0,0,1-.59-.46.94.94,0,0,1-.1-.75A1,1,0,0,1,3.46,20a.91.91,0,0,1,.48-.13,1.09,1.09,0,0,1,.26,0,1,1,0,0,1,.6.46A1,1,0,0,1,4.89,21.13Zm9.6,17.42a1,1,0,0,1-.6.45.92.92,0,0,1-.74-.1,1,1,0,0,1-.46-.59,1.15,1.15,0,0,1,0-.26,1,1,0,0,1,.13-.49,1,1,0,0,1,.59-.45.82.82,0,0,1,.26,0,1,1,0,0,1,.49.14,1,1,0,0,1,.46.59A1,1,0,0,1,14.49,38.55Zm19.73-.24a1,1,0,0,1-.46.59A.92.92,0,0,1,33,39a1,1,0,0,1-.6-.45,1,1,0,0,1-.1-.75,1,1,0,0,1,.46-.59,1,1,0,0,1,.49-.14.82.82,0,0,1,.26,0,1,1,0,0,1,.59.45A1,1,0,0,1,34.22,38.31Zm-.33-3.13a2.82,2.82,0,0,0-1.47.06L27.85,27H25.6l5.23,9.4h0a2.91,2.91,0,0,0-.33.66H16.41a2.82,2.82,0,0,0-.4-.77L21.19,27H19L14.38,35.2a3,3,0,0,0-1.36,0h0L6,23a2.9,2.9,0,0,0,.71-1.11h5.7a4.1,4.1,0,0,1,1.76-1.74,1.49,1.49,0,0,0,.3-.22H6.72a2.71,2.71,0,0,0-.22-.49,3.15,3.15,0,0,0-.4-.54L13,6.82a2.82,2.82,0,0,0,1.47-.06l4.85,8.69h.3l.48,0h.08a.64.64,0,0,0,.5-.21,5.79,5.79,0,0,1,.51-.48L16.09,5.59a3.35,3.35,0,0,0,.32-.66H30.5a2.55,2.55,0,0,0,.33.66L26.5,13.46a6,6,0,0,1,1.78.84l4.14-7.53a3.06,3.06,0,0,0,.85.12,2.68,2.68,0,0,0,.62-.07h0l6.92,12.05a3.15,3.15,0,0,0-.4.54,2.71,2.71,0,0,0-.22.49H34.61a5.09,5.09,0,0,1,.53,2h5a3,3,0,0,0,.7,1.11Zm9.92-13.81a1,1,0,0,1-.59.46,1,1,0,0,1-.75-.1.92.92,0,0,1-.45-.6,1,1,0,0,1,.09-.74,1,1,0,0,1,.6-.46,1.09,1.09,0,0,1,.26,0,.91.91,0,0,1,.48.13,1,1,0,0,1,.46.59,1.15,1.15,0,0,1,0,.26A1,1,0,0,1,43.81,21.37Z" fill="#2c5967"/><path d="M31.38,18.52a5,5,0,0,0-1.57-.64.89.89,0,0,1-.59-.46,4.82,4.82,0,0,0-7.85-1.13.77.77,0,0,1-.66.24,4.12,4.12,0,0,0-2,.32,4,4,0,0,0-2.31,2.89.84.84,0,0,1-.44.58,5.15,5.15,0,0,0-2.74,4.17l-.08,1.05H32.78l.31-.51A5,5,0,0,0,31.38,18.52Zm.2,5.06H15.46a3.17,3.17,0,0,1,1.42-1.52,2.83,2.83,0,0,0,1.46-1.94,2.06,2.06,0,0,1,1.17-1.47,2,2,0,0,1,1-.16,2.73,2.73,0,0,0,2.28-.86,2.87,2.87,0,0,1,4.67.67,2.84,2.84,0,0,0,1.92,1.5,3,3,0,0,1,.94.38A3,3,0,0,1,31.58,23.58Z" fill="#2c5967"/></svg>