<svg id="Layer_1" data-name="Layer 1" xmlns="http://www.w3.org/2000/svg" viewBox="0 0 42.08 37.24"><title>Other - Oracle-Warehouse-Management</title><metadata><?xpacket begin="﻿" id="W5M0MpCehiHzreSzNTczkc9d"?>
<x:xmpmeta xmlns:x="adobe:ns:meta/" x:xmptk="Adobe XMP Core 6.0-c006 79.164648, 2021/01/12-15:52:29        ">
   <rdf:RDF xmlns:rdf="http://www.w3.org/1999/02/22-rdf-syntax-ns#">
      <rdf:Description rdf:about=""
            xmlns:dc="http://purl.org/dc/elements/1.1/"
            xmlns:lr="http://ns.adobe.com/lightroom/1.0/"
            xmlns:xmp="http://ns.adobe.com/xap/1.0/"
            xmlns:xmpMM="http://ns.adobe.com/xap/1.0/mm/"
            xmlns:stEvt="http://ns.adobe.com/xap/1.0/sType/ResourceEvent#"
            xmlns:xmpRights="http://ns.adobe.com/xap/1.0/rights/">
         <dc:title>
            <rdf:Alt>
               <rdf:li xml:lang="x-default">Other - Oracle-Warehouse-Management</rdf:li>
            </rdf:Alt>
         </dc:title>
         <dc:subject>
            <rdf:Bag>
               <rdf:li>icon</rdf:li>
               <rdf:li>cloud</rdf:li>
               <rdf:li>logystics</rdf:li>
            </rdf:Bag>
         </dc:subject>
         <dc:rights>
            <rdf:Alt>
               <rdf:li xml:lang="x-default">Oracle All Rights Reserved</rdf:li>
            </rdf:Alt>
         </dc:rights>
         <lr:hierarchicalSubject>
            <rdf:Bag>
               <rdf:li>icon</rdf:li>
               <rdf:li>cloud</rdf:li>
               <rdf:li>logystics</rdf:li>
            </rdf:Bag>
         </lr:hierarchicalSubject>
         <xmp:MetadataDate>2021-11-23T13:28:05-06:00</xmp:MetadataDate>
         <xmpMM:InstanceID>xmp.iid:08681a3c-952f-4b14-94a8-51d0163d68c4</xmpMM:InstanceID>
         <xmpMM:DocumentID>xmp.did:624a4923-f53a-2c44-b92e-f0dd2d7a2864</xmpMM:DocumentID>
         <xmpMM:OriginalDocumentID>xmp.did:624a4923-f53a-2c44-b92e-f0dd2d7a2864</xmpMM:OriginalDocumentID>
         <xmpMM:History>
            <rdf:Seq>
               <rdf:li>
                  <rdf:Description>
                     <stEvt:action>saved</stEvt:action>
                     <stEvt:instanceID>xmp.iid:624a4923-f53a-2c44-b92e-f0dd2d7a2864</stEvt:instanceID>
                     <stEvt:when>2021-11-22T15:44:58-06:00</stEvt:when>
                     <stEvt:softwareAgent>Adobe Bridge 2020 (Windows)</stEvt:softwareAgent>
                     <stEvt:changed>/metadata</stEvt:changed>
                  </rdf:Description>
               </rdf:li>
               <rdf:li>
                  <rdf:Description>
                     <stEvt:action>saved</stEvt:action>
                     <stEvt:instanceID>xmp.iid:08681a3c-952f-4b14-94a8-51d0163d68c4</stEvt:instanceID>
                     <stEvt:when>2021-11-23T13:28:05-06:00</stEvt:when>
                     <stEvt:softwareAgent>Adobe Bridge 2021 (Macintosh)</stEvt:softwareAgent>
                     <stEvt:changed>/metadata</stEvt:changed>
                  </rdf:Description>
               </rdf:li>
            </rdf:Seq>
         </xmpMM:History>
         <xmpRights:Marked>True</xmpRights:Marked>
      </rdf:Description>
   </rdf:RDF>
</x:xmpmeta>
                                                                                                    
                                                                                                    
                                                                                                    
                                                                                                    
                                                                                                    
                                                                                                    
                                                                                                    
                                                                                                    
                                                                                                    
                                                                                                    
                                                                                   
<?xpacket end="w"?></metadata>
<path d="M21.1,36.74a3.29,3.29,0,0,1-3-1.94H15.5a3.28,3.28,0,0,1-6,0H7.06V23.92H8.78V21.48H.54L.65,20A9.87,9.87,0,0,1,6,12,2.39,2.39,0,0,0,7.2,10.28a7.59,7.59,0,0,1,7.46-6.13,5.48,5.48,0,0,1,.7,0h.24a2.26,2.26,0,0,0,1.68-.72,9.37,9.37,0,0,1,6.83-3,9.26,9.26,0,0,1,8.33,5.15A2.42,2.42,0,0,0,34.12,7a9.55,9.55,0,0,1,6.32,13.82l-.38.71H34.49V32.09h1.29v1.66l-2.1,1H24.1A3.29,3.29,0,0,1,21.1,36.74Z" fill="#fff"/><path d="M24.11,1A8.76,8.76,0,0,1,32,5.88a2.94,2.94,0,0,0,2,1.56,9.16,9.16,0,0,1,2.86,1.18A9,9,0,0,1,40,20.53l-.24.45H34v11.6h1.29v.86l-1.72.86h-9.8a2.79,2.79,0,0,1-5.32,0H15.16a2.79,2.79,0,0,1-5.31,0H7.56V24.42H9.28V21H1.08l.07-.92a9.4,9.4,0,0,1,5-7.67,2.91,2.91,0,0,0,1.52-2,7.09,7.09,0,0,1,4.1-5.13,7.22,7.22,0,0,1,2.86-.6l.66,0,.28,0a2.8,2.8,0,0,0,2-.88A8.85,8.85,0,0,1,24.11,1m0-1a9.82,9.82,0,0,0-7.19,3.14,1.8,1.8,0,0,1-1.32.56h-.19a6.28,6.28,0,0,0-.75,0,8.12,8.12,0,0,0-7.95,6.54,1.91,1.91,0,0,1-1,1.32A10.41,10.41,0,0,0,.15,20l-.07.92L0,22H8.28v1.44H6.56V35.3H9.2a3.79,3.79,0,0,0,6.61,0h2a3.79,3.79,0,0,0,6.62,0H33.8l.21-.1,1.72-.86.55-.28V31.58H35V22h5.37l.28-.52.24-.45A10,10,0,0,0,37.4,7.77a9.74,9.74,0,0,0-3.17-1.3,2,2,0,0,1-1.34-1A9.77,9.77,0,0,0,24.11,0Z" fill="#fff"/><path d="M27.76,31.3H34V25.06H27.76Zm1.72-4.52h2.79v2.8H29.48Z" fill="#2c5967"/><path d="M34,17.54H27.76v6.24H34Zm-1.72,4.52H29.48v-2.8h2.79Z" fill="#2c5967"/><path d="M26.47,32.59V13.68H24.75v8.38H23.28l-2.94-5a2.56,2.56,0,0,0-2.19-1.24H9.28v8.59H7.56V34.3H9.85a2.79,2.79,0,0,0,5.31,0h3.28a2.79,2.79,0,0,0,5.32,0h9.8l1.72-.86v-.85H26.47ZM11,17.54h7.15a.84.84,0,0,1,.71.41l3,5.05-.79,1.47-.86-.86.38-.38L19.36,22l-2,2,1.21,1.22.38-.38,1.23,1.22-.75,1.38H17.17l-1.83-1.74.82-.41v-.86H14v-3h0l-.86-1.72h-.86v1.72h0v3H11Zm-1.72,8.6h4l3.16,3h4l2.89-5.37h1.38v8.81h-1a2.79,2.79,0,0,0-5.32,0H15.16a2.79,2.79,0,0,0-5.31,0H9.28Zm3.23,8.38a1.08,1.08,0,1,1,1.07-1.08A1.08,1.08,0,0,1,12.51,34.52Zm8.59,0a1.08,1.08,0,1,1,1.07-1.08A1.07,1.07,0,0,1,21.1,34.52Z" fill="#2c5967"/><path d="M36.87,8.62A9.16,9.16,0,0,0,34,7.44a2.94,2.94,0,0,1-2-1.56A8.76,8.76,0,0,0,24.11,1a8.85,8.85,0,0,0-6.46,2.82,2.78,2.78,0,0,1-2.33.86,7.21,7.21,0,0,0-3.52.57,7.09,7.09,0,0,0-4.1,5.13,2.91,2.91,0,0,1-1.52,2,9.4,9.4,0,0,0-5,7.67L1.08,21H8V19.26H3a7.7,7.7,0,0,1,4-5.34,4.6,4.6,0,0,0,2.4-3.21,5.37,5.37,0,0,1,3.11-3.88,5.42,5.42,0,0,1,2.66-.44A4.49,4.49,0,0,0,18.91,5a7.12,7.12,0,0,1,5.2-2.27,7,7,0,0,1,6.34,3.92,4.7,4.7,0,0,0,3.19,2.48,7.3,7.3,0,0,1,5.07,10.14H35.28V21h4.48l.24-.45A9,9,0,0,0,36.87,8.62Z" fill="#2c5967"/></svg>