<svg id="Layer_1" data-name="Layer 1" xmlns="http://www.w3.org/2000/svg" viewBox="0 0 58.07 42"><defs><style>.cls-1{fill:#fff;}.cls-2{fill:#2c5967;}</style></defs><title>Technology - Oracle-Product-Stack</title><metadata><?xpacket begin="﻿" id="W5M0MpCehiHzreSzNTczkc9d"?>
<x:xmpmeta xmlns:x="adobe:ns:meta/" x:xmptk="Adobe XMP Core 6.0-c006 79.164648, 2021/01/12-15:52:29        ">
   <rdf:RDF xmlns:rdf="http://www.w3.org/1999/02/22-rdf-syntax-ns#">
      <rdf:Description rdf:about=""
            xmlns:dc="http://purl.org/dc/elements/1.1/"
            xmlns:lr="http://ns.adobe.com/lightroom/1.0/"
            xmlns:xmp="http://ns.adobe.com/xap/1.0/"
            xmlns:xmpMM="http://ns.adobe.com/xap/1.0/mm/"
            xmlns:stEvt="http://ns.adobe.com/xap/1.0/sType/ResourceEvent#"
            xmlns:xmpRights="http://ns.adobe.com/xap/1.0/rights/">
         <dc:title>
            <rdf:Alt>
               <rdf:li xml:lang="x-default">Technology - Oracle-Product-Stack</rdf:li>
            </rdf:Alt>
         </dc:title>
         <dc:subject>
            <rdf:Bag>
               <rdf:li>icon</rdf:li>
               <rdf:li>technology</rdf:li>
            </rdf:Bag>
         </dc:subject>
         <dc:rights>
            <rdf:Alt>
               <rdf:li xml:lang="x-default">Oracle All Rights Reserved</rdf:li>
            </rdf:Alt>
         </dc:rights>
         <lr:hierarchicalSubject>
            <rdf:Bag>
               <rdf:li>icon</rdf:li>
               <rdf:li>technology</rdf:li>
            </rdf:Bag>
         </lr:hierarchicalSubject>
         <xmp:MetadataDate>2021-06-24T19:23:55-05:00</xmp:MetadataDate>
         <xmpMM:InstanceID>xmp.iid:b28c065f-895e-49f4-8ce2-864d12335531</xmpMM:InstanceID>
         <xmpMM:DocumentID>xmp.did:23992e4a-8355-4998-9529-975c2b95336e</xmpMM:DocumentID>
         <xmpMM:OriginalDocumentID>xmp.did:23992e4a-8355-4998-9529-975c2b95336e</xmpMM:OriginalDocumentID>
         <xmpMM:History>
            <rdf:Seq>
               <rdf:li>
                  <rdf:Description>
                     <stEvt:action>saved</stEvt:action>
                     <stEvt:instanceID>xmp.iid:23992e4a-8355-4998-9529-975c2b95336e</stEvt:instanceID>
                     <stEvt:when>2021-06-18T11:42:16-05:00</stEvt:when>
                     <stEvt:softwareAgent>Adobe Bridge 2021 (Macintosh)</stEvt:softwareAgent>
                     <stEvt:changed>/metadata</stEvt:changed>
                  </rdf:Description>
               </rdf:li>
               <rdf:li>
                  <rdf:Description>
                     <stEvt:action>saved</stEvt:action>
                     <stEvt:instanceID>xmp.iid:b28c065f-895e-49f4-8ce2-864d12335531</stEvt:instanceID>
                     <stEvt:when>2021-06-24T19:23:55-05:00</stEvt:when>
                     <stEvt:softwareAgent>Adobe Bridge 2021 (Macintosh)</stEvt:softwareAgent>
                     <stEvt:changed>/metadata</stEvt:changed>
                  </rdf:Description>
               </rdf:li>
            </rdf:Seq>
         </xmpMM:History>
         <xmpRights:Marked>True</xmpRights:Marked>
      </rdf:Description>
   </rdf:RDF>
</x:xmpmeta>
                                                                                                    
                                                                                                    
                                                                                                    
                                                                                                    
                                                                                                    
                                                                                                    
                                                                                                    
                                                                                                    
                                                                                                    
                                                                                                    
                                                                                                    
                                                        
<?xpacket end="w"?></metadata>
<path class="cls-1" d="M14.49,41.5V25.55H.54l.12-1.66a9,9,0,0,1,4.82-7.34,1.73,1.73,0,0,0,.91-1.2,7,7,0,0,1,4.05-5.06,7.15,7.15,0,0,1,2.81-.59c.22,0,.44,0,.65,0h.18a1.6,1.6,0,0,0,1.2-.51,8.49,8.49,0,0,1,13.82,2,1.81,1.81,0,0,0,1.22.95l1.16.18V.5h24V34.68l2.09,1v1.86H42.67V41.5Z"/><path class="cls-1" d="M55,1V35l2.09,1v1H42.17V41H15V25.05H1.08l.08-1.12A8.49,8.49,0,0,1,5.71,17a2.24,2.24,0,0,0,1.17-1.56,6.5,6.5,0,0,1,6.37-5.24c.2,0,.41,0,.61,0h.22a2.14,2.14,0,0,0,1.57-.67,8,8,0,0,1,13,1.86,2.29,2.29,0,0,0,1.57,1.22c.05,0,.13,0,1.76.27V1H55m1-1H31V11.76l-.54-.09a1.27,1.27,0,0,1-.89-.68,9,9,0,0,0-14.63-2.1,1.12,1.12,0,0,1-.84.35H14a5.48,5.48,0,0,0-.7,0A7.52,7.52,0,0,0,5.9,15.25a1.24,1.24,0,0,1-.65.86A9.52,9.52,0,0,0,.16,23.86L.08,25,0,26.05H14V42H43.17V38.08h14.9V35.41l-.55-.27L56,34.37V0Z"/><path class="cls-2" d="M39.82,19.3H17.34A2.35,2.35,0,0,0,15,21.65V41H42.17V21.65a2.35,2.35,0,0,0-2.35-2.35M17.08,21.65a.26.26,0,0,1,.26-.26H39.82a.26.26,0,0,1,.26.26V23h-23Zm0,3.4h3.14V38.91H17.07Zm5.23,0H40.08V38.91H22.3Zm6.57,5.2L26.11,32l2.76,1.73-1.11,1.77-4.18-2.61V31.09l4.18-2.61Zm5.49-1.77,4.19,2.61v1.78l-4.19,2.61-1.1-1.77L36,32l-2.76-1.73Zm-3.62,0h2.14l-1.5,7.06H29.25Zm26.33,8.63H43.75V35h9.14V3.09H34.07V17.73H32V1H55V35l2.09,1ZM51.32,6.75H35.64V4.66H51.32ZM35.64,12.24h1.57v1.83H49.76V12.24h1.56V10.15H49.76V8.32H37.21v1.83H35.64Zm3.66-1.83h8.37V12H39.3Zm12,17.52H49.75v1.83h-6V27.67h3.92V26.1H43.75V24h6v1.83h1.57ZM35.64,15.64H51.32v6.8H43.75V20.35h5.48V17.73H35.64Zm8.11,15.69h7.57v2.09H43.75ZM17.18,11a4.2,4.2,0,0,1-3.52,1.32,4.41,4.41,0,0,0-4.72,3.54,4.36,4.36,0,0,1-2.25,3A6.39,6.39,0,0,0,3.43,23h10v2.09H1.08l.08-1.12A8.49,8.49,0,0,1,5.71,17a2.24,2.24,0,0,0,1.17-1.56,6.5,6.5,0,0,1,3.76-4.69,6.58,6.58,0,0,1,3.22-.52,2.14,2.14,0,0,0,1.79-.66,8,8,0,0,1,13,1.86,2.29,2.29,0,0,0,1.57,1.22l.19,0v2.17c-.21-.07-.43-.13-.65-.18a4.36,4.36,0,0,1-3-2.32A5.87,5.87,0,0,0,21.51,9.1,5.93,5.93,0,0,0,17.18,11"/></svg>