<?xml version="1.0" encoding="UTF-8"?><svg id="Layer_1" xmlns="http://www.w3.org/2000/svg" viewBox="0 0 42.83 35.81"><metadata><?xpacket begin="﻿" id="W5M0MpCehiHzreSzNTczkc9d"?>
<x:xmpmeta xmlns:x="adobe:ns:meta/" x:xmptk="Adobe XMP Core 7.1-c000 79.4d2f597, 2021/09/01-20:51:22        ">
   <rdf:RDF xmlns:rdf="http://www.w3.org/1999/02/22-rdf-syntax-ns#">
      <rdf:Description rdf:about=""
            xmlns:dc="http://purl.org/dc/elements/1.1/"
            xmlns:xmp="http://ns.adobe.com/xap/1.0/"
            xmlns:xmpMM="http://ns.adobe.com/xap/1.0/mm/"
            xmlns:stEvt="http://ns.adobe.com/xap/1.0/sType/ResourceEvent#"
            xmlns:lr="http://ns.adobe.com/lightroom/1.0/"
            xmlns:xmpRights="http://ns.adobe.com/xap/1.0/rights/">
         <dc:subject>
            <rdf:Bag>
               <rdf:li>technology</rdf:li>
               <rdf:li>data</rdf:li>
               <rdf:li>backup</rdf:li>
               <rdf:li>duplicate</rdf:li>
               <rdf:li>recovery</rdf:li>
               <rdf:li>icon</rdf:li>
            </rdf:Bag>
         </dc:subject>
         <dc:rights>
            <rdf:Alt>
               <rdf:li xml:lang="x-default">Oracle All Rights</rdf:li>
            </rdf:Alt>
         </dc:rights>
         <xmp:MetadataDate>2023-05-03T13:17:41-06:00</xmp:MetadataDate>
         <xmpMM:InstanceID>xmp.iid:f88d9d55-3c6a-2f41-a2b0-36edd169b005</xmpMM:InstanceID>
         <xmpMM:DocumentID>xmp.did:379ddbd6-674e-6c48-853c-f54a30eca575</xmpMM:DocumentID>
         <xmpMM:OriginalDocumentID>xmp.did:379ddbd6-674e-6c48-853c-f54a30eca575</xmpMM:OriginalDocumentID>
         <xmpMM:History>
            <rdf:Seq>
               <rdf:li>
                  <rdf:Description>
                     <stEvt:action>saved</stEvt:action>
                     <stEvt:instanceID>xmp.iid:379ddbd6-674e-6c48-853c-f54a30eca575</stEvt:instanceID>
                     <stEvt:when>2023-05-03T13:15:25-06:00</stEvt:when>
                     <stEvt:softwareAgent>Adobe Bridge 2023</stEvt:softwareAgent>
                     <stEvt:changed>/metadata</stEvt:changed>
                  </rdf:Description>
               </rdf:li>
               <rdf:li>
                  <rdf:Description>
                     <stEvt:action>saved</stEvt:action>
                     <stEvt:instanceID>xmp.iid:f88d9d55-3c6a-2f41-a2b0-36edd169b005</stEvt:instanceID>
                     <stEvt:when>2023-05-03T13:17:41-06:00</stEvt:when>
                     <stEvt:softwareAgent>Adobe Bridge 2023</stEvt:softwareAgent>
                     <stEvt:changed>/metadata</stEvt:changed>
                  </rdf:Description>
               </rdf:li>
            </rdf:Seq>
         </xmpMM:History>
         <lr:hierarchicalSubject>
            <rdf:Bag>
               <rdf:li>Other Keywords|icon</rdf:li>
            </rdf:Bag>
         </lr:hierarchicalSubject>
         <xmpRights:Marked>True</xmpRights:Marked>
      </rdf:Description>
   </rdf:RDF>
</x:xmpmeta>
                                                                                                    
                                                                                                    
                                                                                                    
                                                                                                    
                                                                                                    
                                                                                                    
                                                                                                    
                                                                                                    
                                                                                                    
                                                               
<?xpacket end="w"?></metadata>
<defs><style>.cls-1{fill:#fff;}.cls-2{fill:#2d5967;}</style></defs><g><g><path class="cls-1" d="M21.43,35.31c-9.09,0-16.64-7.09-17.35-16.02l-1.56,1.56-1.82-1.82,4.58-4.58,4.71,4.44-1.76,1.87-1.57-1.48c.7,7.52,7.08,13.46,14.77,13.46,6.05,0,11.44-3.62,13.73-9.22l.19-.46,2.38,.97-.19,.46c-2.69,6.58-9.01,10.82-16.12,10.82Z"/><path class="cls-1" d="M5.3,15.14l3.99,3.77-1.08,1.14-2.11-1.99c.08,8.38,6.93,15.17,15.33,15.17,6.26,0,11.83-3.74,14.2-9.53l1.46,.59c-2.61,6.39-8.75,10.51-15.65,10.51-9.25,0-16.78-7.46-16.9-16.68l-2,2-1.11-1.11,3.88-3.88m-.02-1.39l-.69,.69-3.88,3.88-.71,.71,.71,.71,1.11,1.11,.71,.71,.71-.71,.46-.46c1.21,8.69,8.74,15.43,17.73,15.43,7.31,0,13.81-4.37,16.58-11.13l.38-.93-.93-.38-1.46-.59-.93-.38-.38,.92c-2.21,5.41-7.42,8.91-13.27,8.91-6.95,0-12.79-5.02-14.07-11.62l.17,.16,.73,.69,.69-.73,1.08-1.14,.69-.73-.73-.69-3.99-3.77-.71-.67h0Z"/></g><g><path class="cls-1" d="M32.83,16.92l1.77-1.87,1.57,1.48c-.7-7.52-7.08-13.46-14.77-13.46-.62,0-1.25,.04-1.87,.12l-.23,.03-.17-.16c-.51-.47-1.07-.88-1.67-1.22l-1.14-.64,1.28-.28c1.24-.27,2.52-.41,3.8-.41,9.09,0,16.64,7.09,17.35,16.02l1.56-1.56,1.82,1.82-4.58,4.58-4.71-4.44Z"/><path class="cls-1" d="M21.4,1c9.25,0,16.78,7.46,16.9,16.68l2-2,1.11,1.11-3.88,3.88-3.99-3.77,1.08-1.14,2.11,1.99c-.08-8.38-6.93-15.17-15.33-15.17-.65,0-1.3,.04-1.94,.12-.53-.5-1.12-.93-1.76-1.29,1.2-.27,2.43-.4,3.7-.4m0-1c-1.32,0-2.64,.14-3.91,.43l-2.55,.57,2.28,1.28c.56,.32,1.09,.7,1.57,1.15l.34,.32,.46-.06c.6-.07,1.21-.11,1.81-.11,6.95,0,12.79,5.02,14.07,11.62l-.17-.16-.73-.69-.69,.73-1.08,1.14-.69,.73,.73,.69,3.99,3.77,.71,.67,.69-.69,3.88-3.88,.71-.71-.71-.71-1.11-1.11-.71-.71-.71,.71-.46,.46C37.92,6.74,30.39,0,21.4,0h0Z"/></g><g><path class="cls-1" d="M21.66,28.72c-.1,0-.17,0-.23,0-2.33,0-9.93-.24-9.93-3.36v-7.53c-3.95-.79-6.88-4.32-6.88-8.38C4.62,4.73,8.45,.89,13.17,.89c3.85,0,7.17,2.53,8.22,6.2h.04c.12,0,.38,0,.71,0h.09c6.06,.1,9.13,1.18,9.13,3.21v15.18c0,2.03-3.07,3.12-9.13,3.22h-.58Z"/><path class="cls-1" d="M13.17,1.39c3.8,0,6.99,2.65,7.83,6.2,.18,0,.34,0,.42,0,.13,0,.42,0,.8,.01h0c3.11,.04,8.64,.46,8.64,2.71v15.18c0,2.25-5.53,2.67-8.64,2.72h0c-.38,0-.66,0-.8,0-.96,0-9.43-.08-9.43-2.86v-7.95c-3.89-.57-6.88-3.92-6.88-7.96C5.12,5.01,8.73,1.39,13.17,1.39m0-1C8.18,.39,4.12,4.46,4.12,9.45c0,4.16,2.9,7.79,6.88,8.78v7.13c0,3.26,6.15,3.82,10.08,3.85v.02l1.17-.02c6.47-.11,9.62-1.33,9.62-3.72V10.31c0-2.39-3.15-3.61-9.62-3.72h-.48C20.54,2.9,17.11,.39,13.17,.39h0Z"/></g></g><path class="cls-2" d="M37.08,24.29c-2.61,6.39-8.75,10.51-15.65,10.51-9.25,0-16.78-7.46-16.9-16.68l-2,2-1.11-1.11,3.88-3.88,3.99,3.77-1.08,1.14-2.11-1.99c.08,8.38,6.93,15.17,15.33,15.17,6.26,0,11.83-3.74,14.2-9.53l1.46,.59Z"/><path class="cls-2" d="M41.41,16.79l-3.88,3.88-3.99-3.77,1.08-1.14,2.11,1.99c-.08-8.38-6.93-15.17-15.33-15.17-.65,0-1.3,.04-1.94,.12-.53-.5-1.12-.93-1.76-1.29,1.2-.27,2.43-.4,3.7-.4,9.25,0,16.78,7.46,16.9,16.68l2-2,1.11,1.11Z"/><path class="cls-2" d="M29.29,20.34v.08c0-.06,.02-.1,.02-.11,0,0-.01,.02-.02,.03Zm0-4.98v.08c0-.06,.02-.1,.02-.11,0,0-.01,.02-.02,.03Zm0-4.94v.08c0-.06,.02-.1,.02-.11,0,0-.01,.02-.02,.03Zm-15.75,9.9s.02,.05,.02,.11v-.08s-.02-.02-.02-.03Z"/><path class="cls-2" d="M22.22,7.59c.11,.51,.17,1.04,.18,1.58,4.24,.09,6.52,.8,6.88,1.22v.02s.02-.02,.02-.03c0,0-.02,.05-.02,.11v-.08c-.38,.48-3,1.27-7.17,1.35-.14,.55-.33,1.08-.57,1.58,1,0,5.36-.09,7.74-1.13v3.14s.02-.02,.02-.03c0,0-.02,.05-.02,.11v-.08c-.4,.51-3.28,1.36-7.86,1.36-.88,0-1.7-.03-2.44-.09-.67,.54-1.42,.99-2.22,1.33,2.11,.31,4.21,.32,4.67,.32,.7,0,5.36-.04,7.86-1.13v3.18s.02-.02,.02-.03c0,0-.02,.05-.02,.11v-.08c-.4,.51-3.28,1.36-7.86,1.36s-7.46-.85-7.86-1.36v.08c0-.06-.02-.1-.02-.11,0,0,.01,.02,.02,.03v-1.66c-.13,0-.26,0-.39,0-.4,0-.79-.03-1.18-.07v6.75c0,2.78,8.47,2.86,9.43,2.86s9.43-.08,9.43-2.86V10.31c0-2.25-5.53-2.67-8.64-2.72Zm7.07,17.7c-.42,.51-3.29,1.36-7.86,1.36s-7.44-.85-7.86-1.36v-3.15c2.5,1.09,7.16,1.13,7.86,1.13s5.36-.04,7.86-1.13v3.15Z"/><path class="cls-2" d="M13.57,20.34v.08c0-.06-.02-.1-.02-.11,0,0,.01,.02,.02,.03Z"/><path class="cls-2" d="M29.31,20.31s-.02,.05-.02,.11v-.08s.02-.02,.02-.03Z"/><path class="cls-2" d="M29.31,15.32s-.02,.05-.02,.11v-.08s.02-.02,.02-.03Z"/><path class="cls-2" d="M29.31,10.38s-.02,.05-.02,.11v-.08s.02-.02,.02-.03Z"/><path class="cls-2" d="M13.17,1.39c-4.44,0-8.06,3.61-8.06,8.06s3.61,8.06,8.06,8.06,8.06-3.61,8.06-8.06S17.62,1.39,13.17,1.39Zm0,14.54c-3.58,0-6.49-2.91-6.49-6.49s2.91-6.49,6.49-6.49,6.49,2.91,6.49,6.49-2.91,6.49-6.49,6.49Z"/><path class="cls-2" d="M16.87,12.04l-1.11,1.11-3.14-3.14c-.15-.15-.23-.35-.23-.56v-3.73h1.57v3.41l2.91,2.91Z"/></svg>