<svg id="Layer_1" data-name="Layer 1" xmlns="http://www.w3.org/2000/svg" viewBox="0 0 43.65 42"><defs><style>.cls-1{fill:#fff;}.cls-2{fill:#2c5967;}</style></defs><title>Oracle Key Vault (OKV) Learn </title><metadata><?xpacket begin="﻿" id="W5M0MpCehiHzreSzNTczkc9d"?>
<x:xmpmeta xmlns:x="adobe:ns:meta/" x:xmptk="Adobe XMP Core 6.0-c006 79.164648, 2021/01/12-15:52:29        ">
   <rdf:RDF xmlns:rdf="http://www.w3.org/1999/02/22-rdf-syntax-ns#">
      <rdf:Description rdf:about=""
            xmlns:xmpRights="http://ns.adobe.com/xap/1.0/rights/"
            xmlns:xmp="http://ns.adobe.com/xap/1.0/"
            xmlns:xmpMM="http://ns.adobe.com/xap/1.0/mm/"
            xmlns:stEvt="http://ns.adobe.com/xap/1.0/sType/ResourceEvent#"
            xmlns:dc="http://purl.org/dc/elements/1.1/"
            xmlns:lr="http://ns.adobe.com/lightroom/1.0/">
         <xmpRights:Marked>True</xmpRights:Marked>
         <xmp:MetadataDate>2021-07-22T15:10:37-05:00</xmp:MetadataDate>
         <xmpMM:InstanceID>xmp.iid:20a0589a-087b-4bda-9dfa-ab33cb2a7338</xmpMM:InstanceID>
         <xmpMM:DocumentID>xmp.did:08dfd2de-0ecd-4538-b65c-da172e8fac95</xmpMM:DocumentID>
         <xmpMM:OriginalDocumentID>xmp.did:08dfd2de-0ecd-4538-b65c-da172e8fac95</xmpMM:OriginalDocumentID>
         <xmpMM:History>
            <rdf:Seq>
               <rdf:li>
                  <rdf:Description>
                     <stEvt:action>saved</stEvt:action>
                     <stEvt:instanceID>xmp.iid:08dfd2de-0ecd-4538-b65c-da172e8fac95</stEvt:instanceID>
                     <stEvt:when>2021-06-23T15:54:02-05:00</stEvt:when>
                     <stEvt:softwareAgent>Adobe Bridge 2021 (Macintosh)</stEvt:softwareAgent>
                     <stEvt:changed>/metadata</stEvt:changed>
                  </rdf:Description>
               </rdf:li>
               <rdf:li>
                  <rdf:Description>
                     <stEvt:action>saved</stEvt:action>
                     <stEvt:instanceID>xmp.iid:20a0589a-087b-4bda-9dfa-ab33cb2a7338</stEvt:instanceID>
                     <stEvt:when>2021-07-22T15:10:37-05:00</stEvt:when>
                     <stEvt:softwareAgent>Adobe Bridge 2021 (Macintosh)</stEvt:softwareAgent>
                     <stEvt:changed>/metadata</stEvt:changed>
                  </rdf:Description>
               </rdf:li>
            </rdf:Seq>
         </xmpMM:History>
         <dc:title>
            <rdf:Alt>
               <rdf:li xml:lang="x-default">Oracle Key Vault (OKV) Learn </rdf:li>
            </rdf:Alt>
         </dc:title>
         <dc:rights>
            <rdf:Alt>
               <rdf:li xml:lang="x-default">Oracle All Rights Reserved</rdf:li>
            </rdf:Alt>
         </dc:rights>
         <dc:subject>
            <rdf:Bag>
               <rdf:li>icon</rdf:li>
               <rdf:li>Protection</rdf:li>
               <rdf:li>Security</rdf:li>
               <rdf:li>technology</rdf:li>
               <rdf:li>OKV</rdf:li>
            </rdf:Bag>
         </dc:subject>
         <lr:hierarchicalSubject>
            <rdf:Bag>
               <rdf:li>icon</rdf:li>
               <rdf:li>Protection</rdf:li>
               <rdf:li>Security</rdf:li>
               <rdf:li>technology</rdf:li>
            </rdf:Bag>
         </lr:hierarchicalSubject>
      </rdf:Description>
   </rdf:RDF>
</x:xmpmeta>
                                                                                                    
                                                                                                    
                                                                                                    
                                                                                                    
                                                                                                    
                                                                                                    
                                                                                                    
                                     
<?xpacket end="w"?></metadata>
<polygon class="cls-1" points="0.5 41.5 0.5 39.87 2.53 38.85 2.77 38.85 2.77 32.84 1.12 32.84 1.12 21.53 2.77 21.53 2.77 17.58 1.12 17.58 1.12 6.27 2.77 6.27 2.77 0.5 40.88 0.5 40.88 38.85 41.12 38.85 43.15 39.87 43.15 41.5 0.5 41.5"/><path class="cls-1" d="M40.38,1V39.35H41l1.65.83V41H1v-.82l1.65-.83h.62v-7H1.62V22H3.27v-5H1.62V6.77H3.27V1H40.38m1-1H2.27V5.77H.62V18.08H2.27v3H.62V33.34H2.27v5.08l-.07,0-1.65.82L0,39.56V42H43.65V39.56l-.55-.28-1.65-.82-.07,0V0Z"/><polygon class="cls-2" points="41 39.35 2.65 39.35 1 40.17 1 41 2.65 41 41 41 42.65 41 42.65 40.17 41 39.35"/><polygon class="cls-2" points="4.92 5.54 4.92 4.71 4.92 2.65 6.98 2.65 36.67 2.65 38.73 2.65 38.73 4.71 38.73 34.4 38.73 36.46 36.67 36.46 6.98 36.46 4.92 36.46 4.92 34.4 4.92 33.58 3.27 33.58 3.27 38.11 40.38 38.11 40.38 1 3.27 1 3.27 5.54 4.92 5.54"/><rect class="cls-2" x="3.27" y="18.32" width="1.65" height="2.47"/><path class="cls-2" d="M6.15,32.34v2.89H37.49V3.89H6.15V6.77H1.62V17.08H6.15v5H1.62V32.34ZM3.27,29.45H4.92V27.8H3.27V26.57H4.92V24.92H3.27V23.68H7.8V15.43H3.27V14.2H4.92V12.55H3.27V11.31H4.92V9.66H3.27V8.42H7.8V5.54H35.85v28H7.8V30.69H3.27Z"/><path class="cls-2" d="M20.18,22.78V20.94a6.89,6.89,0,0,0-4.95,0v1.84a5,5,0,0,1,4.95,0Z"/><path class="cls-2" d="M28.42,17V15.17a6.89,6.89,0,0,0-5,0V17a5.11,5.11,0,0,1,5,0Z"/><path class="cls-2" d="M20.18,17V15.17a6.89,6.89,0,0,0-4.95,0V17a5.11,5.11,0,0,1,4.95,0Z"/><path class="cls-2" d="M28.42,19.89V18.06a6.89,6.89,0,0,0-5,0v1.83a5.11,5.11,0,0,1,5,0Z"/><path class="cls-2" d="M20.18,19.89V18.06a6.89,6.89,0,0,0-4.95,0v1.83a5.11,5.11,0,0,1,4.95,0Z"/><path class="cls-2" d="M17.7,25c2,0,3.3.87,3.3,1.44h1.65C22.65,25.89,24,25,26,25s3.3.87,3.3,1.44H30.9v-12h0c-.21-1.41-2.51-2.69-4.93-2.69a6.52,6.52,0,0,0-4.13,1.39,6.47,6.47,0,0,0-4.12-1.39c-2.54,0-4.95,1.41-4.95,2.89V26.46H14.4C14.4,25.89,15.72,25,17.7,25ZM26,13.47a4.18,4.18,0,0,1,3.3,1.28v9.39a7.46,7.46,0,0,0-6.6,0V14.75A4.18,4.18,0,0,1,26,13.47Zm-8.25,0A4.18,4.18,0,0,1,21,14.75v9.39a6.91,6.91,0,0,0-3.3-.77,6.91,6.91,0,0,0-3.3.77V14.75A4.18,4.18,0,0,1,17.7,13.47Z"/></svg>