<svg id="Layer_1" data-name="Layer 1" xmlns="http://www.w3.org/2000/svg" viewBox="0 0 46.91 42"><title>Other - Upload-Text-File-to-Cloud</title><metadata><?xpacket begin="﻿" id="W5M0MpCehiHzreSzNTczkc9d"?>
<x:xmpmeta xmlns:x="adobe:ns:meta/" x:xmptk="Adobe XMP Core 6.0-c006 79.164648, 2021/01/12-15:52:29        ">
   <rdf:RDF xmlns:rdf="http://www.w3.org/1999/02/22-rdf-syntax-ns#">
      <rdf:Description rdf:about=""
            xmlns:dc="http://purl.org/dc/elements/1.1/"
            xmlns:lr="http://ns.adobe.com/lightroom/1.0/"
            xmlns:xmp="http://ns.adobe.com/xap/1.0/"
            xmlns:xmpMM="http://ns.adobe.com/xap/1.0/mm/"
            xmlns:stEvt="http://ns.adobe.com/xap/1.0/sType/ResourceEvent#"
            xmlns:xmpRights="http://ns.adobe.com/xap/1.0/rights/">
         <dc:title>
            <rdf:Alt>
               <rdf:li xml:lang="x-default">Other - Upload-Text-File-to-Cloud</rdf:li>
            </rdf:Alt>
         </dc:title>
         <dc:subject>
            <rdf:Bag>
               <rdf:li>icon</rdf:li>
               <rdf:li>upload</rdf:li>
               <rdf:li>cloud</rdf:li>
               <rdf:li>document</rdf:li>
            </rdf:Bag>
         </dc:subject>
         <dc:rights>
            <rdf:Alt>
               <rdf:li xml:lang="x-default">Oracle All Rights Reserved</rdf:li>
            </rdf:Alt>
         </dc:rights>
         <lr:hierarchicalSubject>
            <rdf:Bag>
               <rdf:li>icon</rdf:li>
               <rdf:li>upload</rdf:li>
               <rdf:li>cloud</rdf:li>
               <rdf:li>document</rdf:li>
            </rdf:Bag>
         </lr:hierarchicalSubject>
         <xmp:MetadataDate>2021-11-23T13:28:06-06:00</xmp:MetadataDate>
         <xmpMM:InstanceID>xmp.iid:6cb2313a-0004-4a94-974a-cb0147f07dcc</xmpMM:InstanceID>
         <xmpMM:DocumentID>xmp.did:8e06879b-b9d0-fb40-adf7-1800dde5a250</xmpMM:DocumentID>
         <xmpMM:OriginalDocumentID>xmp.did:8e06879b-b9d0-fb40-adf7-1800dde5a250</xmpMM:OriginalDocumentID>
         <xmpMM:History>
            <rdf:Seq>
               <rdf:li>
                  <rdf:Description>
                     <stEvt:action>saved</stEvt:action>
                     <stEvt:instanceID>xmp.iid:8e06879b-b9d0-fb40-adf7-1800dde5a250</stEvt:instanceID>
                     <stEvt:when>2021-11-22T15:45-06:00</stEvt:when>
                     <stEvt:softwareAgent>Adobe Bridge 2020 (Windows)</stEvt:softwareAgent>
                     <stEvt:changed>/metadata</stEvt:changed>
                  </rdf:Description>
               </rdf:li>
               <rdf:li>
                  <rdf:Description>
                     <stEvt:action>saved</stEvt:action>
                     <stEvt:instanceID>xmp.iid:6cb2313a-0004-4a94-974a-cb0147f07dcc</stEvt:instanceID>
                     <stEvt:when>2021-11-23T13:28:06-06:00</stEvt:when>
                     <stEvt:softwareAgent>Adobe Bridge 2021 (Macintosh)</stEvt:softwareAgent>
                     <stEvt:changed>/metadata</stEvt:changed>
                  </rdf:Description>
               </rdf:li>
            </rdf:Seq>
         </xmpMM:History>
         <xmpRights:Marked>True</xmpRights:Marked>
      </rdf:Description>
   </rdf:RDF>
</x:xmpmeta>
                                                                                                    
                                                                                                    
                                                                                                    
                                                                                                    
                                                                                                    
                                                                                                    
                                                                                                    
                                                                                                    
                                                                                                    
                                                                                                    
    
<?xpacket end="w"?></metadata>
<path d="M12.91,41.5V30.34l-1.57,1.59L6.72,27.31l3.42-3.41H.54l.12-1.58a11,11,0,0,1,5.9-9A2.74,2.74,0,0,0,8,11.42a8.47,8.47,0,0,1,8.29-6.83c.27,0,.53,0,.79,0h.28a2.61,2.61,0,0,0,1.93-.82A10.37,10.37,0,0,1,36.17,6.24,2.8,2.8,0,0,0,38.1,7.73a10.63,10.63,0,0,1,7,15.4l-.41.77h-8V41.5Z" fill="#fff"/><path d="M26.89,1a9.81,9.81,0,0,1,8.83,5.46A3.33,3.33,0,0,0,38,8.22,10.12,10.12,0,0,1,44.7,22.89l-.27.51H36.22V41H13.41V29.12l-2.08,2.1-3.9-3.91,3.91-3.91H1.08l.07-1A10.55,10.55,0,0,1,6.8,13.77a3.25,3.25,0,0,0,1.69-2.26A8,8,0,0,1,13.1,5.77a7.86,7.86,0,0,1,3.2-.68,6.23,6.23,0,0,1,.74,0h.32a3.11,3.11,0,0,0,2.29-1A9.91,9.91,0,0,1,26.89,1m0-1a10.91,10.91,0,0,0-8,3.48,2.09,2.09,0,0,1-1.56.66h-.23c-.28,0-.56,0-.83,0a9,9,0,0,0-8.79,7.23,2.27,2.27,0,0,1-1.18,1.57,11.5,11.5,0,0,0-6.17,9.4l-.08,1L0,24.4H8.93L6.72,26.61l-.71.7.71.71,3.9,3.91.72.71.7-.72.37-.37V42H37.22V24.4H45l.28-.53.27-.51A11.09,11.09,0,0,0,38.2,7.25,2.35,2.35,0,0,1,36.62,6a10.83,10.83,0,0,0-9.73-6Z" fill="#fff"/><path d="M41.19,9.54A10.17,10.17,0,0,0,38,8.22a3.33,3.33,0,0,1-2.27-1.76,9.87,9.87,0,0,0-16.07-2.3,3.11,3.11,0,0,1-2.61,1,7.84,7.84,0,0,0-3.94.64,8,8,0,0,0-4.61,5.74A3.25,3.25,0,0,1,6.8,13.77a10.55,10.55,0,0,0-5.65,8.59l-.07,1H9.3l1.93-1.93h-8a8.63,8.63,0,0,1,4.48-6,5.2,5.2,0,0,0,2.7-3.6,6,6,0,0,1,6.46-4.83,5.05,5.05,0,0,0,4.21-1.58A8,8,0,0,1,34,7.33a5.21,5.21,0,0,0,3.57,2.77,8.2,8.2,0,0,1,5.69,11.37H37.67V23.4h6.76l.27-.51A10.13,10.13,0,0,0,41.19,9.54Z" fill="#2c5967"/><path d="M15.34,17.36V14H29.16v5.35H34.3V39.07H20.63V41H36.22V17.31L31,12.1H13.41v7.19l1.86-1.87ZM31.09,14.9l2.55,2.56H31.09Z" fill="#2c5967"/><polygon points="31.71 25.59 25.48 25.59 26.43 26.53 27.41 27.51 31.71 27.51 31.71 25.59" fill="#2c5967"/><rect x="20.63" y="34.74" width="11.08" height="1.93" fill="#2c5967"/><polygon points="31.71 30.4 24.48 30.4 22.43 32.33 31.71 32.33 31.71 30.4" fill="#2c5967"/><polygon points="31.71 21.25 21.14 21.25 23.07 23.18 31.71 23.18 31.71 21.25" fill="#2c5967"/><polygon points="22.76 29.96 17.26 24.47 17.26 41 19.18 41 19.18 29.12 21.39 31.33 22.76 29.96" fill="#2c5967"/><polygon points="11.44 31.09 13.4 29.12 13.4 41 13.41 41 15.33 41 15.33 24.47 10.07 29.72 11.44 31.09" fill="#2c5967"/><polygon points="25.4 27.56 16.3 18.45 7.43 27.32 8.79 28.68 16.3 21.17 24.04 28.92 25.4 27.56" fill="#2c5967"/></svg>