<svg id="Layer_1" data-name="Layer 1" xmlns="http://www.w3.org/2000/svg" viewBox="0 0 42.08 33.8"><title>Other - Oracle-Transportation-Management (OTM)</title><metadata><?xpacket begin="﻿" id="W5M0MpCehiHzreSzNTczkc9d"?>
<x:xmpmeta xmlns:x="adobe:ns:meta/" x:xmptk="Adobe XMP Core 6.0-c006 79.164648, 2021/01/12-15:52:29        ">
   <rdf:RDF xmlns:rdf="http://www.w3.org/1999/02/22-rdf-syntax-ns#">
      <rdf:Description rdf:about=""
            xmlns:dc="http://purl.org/dc/elements/1.1/"
            xmlns:lr="http://ns.adobe.com/lightroom/1.0/"
            xmlns:xmp="http://ns.adobe.com/xap/1.0/"
            xmlns:xmpMM="http://ns.adobe.com/xap/1.0/mm/"
            xmlns:stEvt="http://ns.adobe.com/xap/1.0/sType/ResourceEvent#"
            xmlns:xmpRights="http://ns.adobe.com/xap/1.0/rights/">
         <dc:title>
            <rdf:Alt>
               <rdf:li xml:lang="x-default">Other - Oracle-Transportation-Management (OTM)</rdf:li>
            </rdf:Alt>
         </dc:title>
         <dc:subject>
            <rdf:Bag>
               <rdf:li>icon</rdf:li>
               <rdf:li>fleet</rdf:li>
               <rdf:li>cloud</rdf:li>
               <rdf:li>logystics</rdf:li>
            </rdf:Bag>
         </dc:subject>
         <dc:rights>
            <rdf:Alt>
               <rdf:li xml:lang="x-default">Oracle All Rights Reserved</rdf:li>
            </rdf:Alt>
         </dc:rights>
         <lr:hierarchicalSubject>
            <rdf:Bag>
               <rdf:li>icon</rdf:li>
               <rdf:li>fleet</rdf:li>
               <rdf:li>cloud</rdf:li>
               <rdf:li>logystics</rdf:li>
            </rdf:Bag>
         </lr:hierarchicalSubject>
         <xmp:MetadataDate>2021-11-23T13:28:05-06:00</xmp:MetadataDate>
         <xmpMM:InstanceID>xmp.iid:a2108c8f-8dcd-4e00-857a-0e9734be97b3</xmpMM:InstanceID>
         <xmpMM:DocumentID>xmp.did:790bcb40-f993-b244-9040-3f5c86906f07</xmpMM:DocumentID>
         <xmpMM:OriginalDocumentID>xmp.did:790bcb40-f993-b244-9040-3f5c86906f07</xmpMM:OriginalDocumentID>
         <xmpMM:History>
            <rdf:Seq>
               <rdf:li>
                  <rdf:Description>
                     <stEvt:action>saved</stEvt:action>
                     <stEvt:instanceID>xmp.iid:790bcb40-f993-b244-9040-3f5c86906f07</stEvt:instanceID>
                     <stEvt:when>2021-11-22T15:44:58-06:00</stEvt:when>
                     <stEvt:softwareAgent>Adobe Bridge 2020 (Windows)</stEvt:softwareAgent>
                     <stEvt:changed>/metadata</stEvt:changed>
                  </rdf:Description>
               </rdf:li>
               <rdf:li>
                  <rdf:Description>
                     <stEvt:action>saved</stEvt:action>
                     <stEvt:instanceID>xmp.iid:a2108c8f-8dcd-4e00-857a-0e9734be97b3</stEvt:instanceID>
                     <stEvt:when>2021-11-23T13:28:05-06:00</stEvt:when>
                     <stEvt:softwareAgent>Adobe Bridge 2021 (Macintosh)</stEvt:softwareAgent>
                     <stEvt:changed>/metadata</stEvt:changed>
                  </rdf:Description>
               </rdf:li>
            </rdf:Seq>
         </xmpMM:History>
         <xmpRights:Marked>True</xmpRights:Marked>
      </rdf:Description>
   </rdf:RDF>
</x:xmpmeta>
                                                                                                    
                                                                                                    
                                                                                                    
                                                                                                    
                                                                                                    
                                                                                                    
                                                                                                    
                                                                                                    
                                                                                                    
                                                                                                    
       
<?xpacket end="w"?></metadata>
<path d="M33.56,33.3A2.82,2.82,0,0,1,32.38,33,2.88,2.88,0,0,1,31,31.8H26.09a2.85,2.85,0,0,1-2.52,1.5,2.81,2.81,0,0,1-1.66-.54A2.86,2.86,0,0,1,17.43,31a3.05,3.05,0,0,1-.05-.52c0-.12,0-.24,0-.36h-.33c0,.12,0,.24,0,.36A3.05,3.05,0,0,1,17,31a2.85,2.85,0,0,1-4.53,1.76,2.9,2.9,0,0,1-1.72.58,2.84,2.84,0,0,1-2.52-1.5H5.77V29.08h.65v-7.6H.54L.65,20A9.87,9.87,0,0,1,6,12,2.37,2.37,0,0,0,7.2,10.28a7.59,7.59,0,0,1,7.46-6.13c.24,0,.47,0,.7,0l.24,0a2.26,2.26,0,0,0,1.68-.72A9.31,9.31,0,0,1,32.44,5.65,2.42,2.42,0,0,0,34.12,7a9.55,9.55,0,0,1,6.32,13.82l-.38.71h-6a1.74,1.74,0,0,1,.11.18c.76,1.22,1.38,2.42,1.68,3l3.57,1.62v2.79h.43V31.8H36.08A2.86,2.86,0,0,1,34.75,33,2.9,2.9,0,0,1,33.56,33.3Z" fill="#fff"/><path d="M24.11,1A8.76,8.76,0,0,1,32,5.88a2.94,2.94,0,0,0,2,1.56,9.16,9.16,0,0,1,2.86,1.18A9,9,0,0,1,40,20.53l-.24.45H33.14c.2.29.41.6.62.94.81,1.3,1.46,2.58,1.73,3.13l3.44,1.56v3h.43V31.3h-3.6a2.35,2.35,0,0,1-3.18,1.28,2.39,2.39,0,0,1-1.22-1.28H25.77a2.37,2.37,0,0,1-2.2,1.5,2.31,2.31,0,0,1-1.66-.69,2.36,2.36,0,0,1-4-1.24,2.09,2.09,0,0,1,0-.43,2.39,2.39,0,0,1,.16-.86H16.42a2.2,2.2,0,0,1,.17.86,3.13,3.13,0,0,1,0,.43,2.38,2.38,0,0,1-2.33,1.93,2.34,2.34,0,0,1-1.71-.75,2.36,2.36,0,0,1-3.92-.75H6.27V29.58h.65V21H1.08l.07-.92a9.4,9.4,0,0,1,5-7.67,2.91,2.91,0,0,0,1.52-2,7.09,7.09,0,0,1,4.1-5.13,7.22,7.22,0,0,1,2.86-.6l.66,0,.28,0a2.8,2.8,0,0,0,2-.88A8.85,8.85,0,0,1,24.11,1m0-1a9.82,9.82,0,0,0-7.19,3.14,1.78,1.78,0,0,1-1.32.56h-.19a6.28,6.28,0,0,0-.75,0,8.12,8.12,0,0,0-7.95,6.54,1.91,1.91,0,0,1-1,1.32A10.4,10.4,0,0,0,.15,20l-.07.93L0,22H5.92v6.6H5.27V32.3H8a3.33,3.33,0,0,0,2.8,1.5,3.38,3.38,0,0,0,1.72-.48,3.34,3.34,0,0,0,4.72-1.38,3.37,3.37,0,0,0,4.68,1.42,3.3,3.3,0,0,0,1.66.44,3.33,3.33,0,0,0,2.8-1.5h4.39a3.41,3.41,0,0,0,1.41,1.19,3.2,3.2,0,0,0,1.39.31,3.25,3.25,0,0,0,1.4-.31,3.32,3.32,0,0,0,1.4-1.19h4V28.58h-.43V26l-.58-.27-3.12-1.41C36,23.76,35.51,22.9,35,22h5.4l.28-.52.24-.45A10.06,10.06,0,0,0,37.4,7.77a9.74,9.74,0,0,0-3.17-1.3,2,2,0,0,1-1.35-1A9.74,9.74,0,0,0,24.11,0Z" fill="#fff"/><path d="M39.76,21l.24-.45A9,9,0,0,0,36.87,8.62,9.16,9.16,0,0,0,34,7.44a2.94,2.94,0,0,1-2-1.56A8.76,8.76,0,0,0,24.11,1a8.85,8.85,0,0,0-6.46,2.82,2.78,2.78,0,0,1-2.33.86,7.21,7.21,0,0,0-3.52.57,7.09,7.09,0,0,0-4.1,5.13,2.91,2.91,0,0,1-1.52,2,9.4,9.4,0,0,0-5,7.67L1.08,21H5.42V19.26H3a7.7,7.7,0,0,1,4-5.34,4.6,4.6,0,0,0,2.4-3.21,5.37,5.37,0,0,1,3.11-3.88,5.42,5.42,0,0,1,2.66-.44A4.49,4.49,0,0,0,18.91,5a7.12,7.12,0,0,1,5.2-2.27,7,7,0,0,1,6.34,3.92,4.7,4.7,0,0,0,3.19,2.48,7.3,7.3,0,0,1,5.07,10.14H33.47c.39.49.8,1.07,1.22,1.72Z" fill="#2c5967"/><path d="M35.76,31.3h3.6V29.58h-.43v-3l-3.44-1.56c-.27-.55-.92-1.83-1.73-3.13-1.21-1.94-2.25-3.09-3.21-3.53V16.9a3,3,0,0,0-3-3v1.72a1.27,1.27,0,0,1,.95.43.79.79,0,0,1,.12.15,1.24,1.24,0,0,1,.22.71V29.58H27.33V17.33H6.92V29.58H6.27V31.3H8.59a2.36,2.36,0,0,0,3.92.75,2.34,2.34,0,0,0,1.71.75,2.38,2.38,0,0,0,2.33-1.93,3.13,3.13,0,0,0,0-.43,2.2,2.2,0,0,0-.17-.86H18a2.39,2.39,0,0,0-.16.86,2.09,2.09,0,0,0,0,.43,2.36,2.36,0,0,0,4,1.24,2.31,2.31,0,0,0,1.66.69,2.37,2.37,0,0,0,2.2-1.5h5.59a2.39,2.39,0,0,0,1.22,1.28,2.37,2.37,0,0,0,3.18-1.28Zm-12.19-.22a.65.65,0,1,1,.65-.64A.64.64,0,0,1,23.57,31.08Zm-3.33,0a.65.65,0,0,1,0-1.29.65.65,0,1,1,0,1.29Zm-6,0a.65.65,0,1,1,.65-.64A.64.64,0,0,1,14.22,31.08Zm-3.43,0a.65.65,0,1,1,.64-.64A.65.65,0,0,1,10.79,31.08Zm-2.15-12h17v8.81h-17Zm21.91,1.43a17.92,17.92,0,0,1,2.2,3.08h-.91v3h2.83l2.55,1.15v1.86H35.76a2.34,2.34,0,0,0-3.18-1.29,2.37,2.37,0,0,0-1.22,1.29h-.81Zm3,9.31a.65.65,0,1,1-.64.65A.65.65,0,0,1,33.56,29.79Z" fill="#2c5967"/><rect x="10.36" y="20.34" width="1.72" height="6.23" fill="#2c5967"/><rect x="13.37" y="20.34" width="1.72" height="6.23" fill="#2c5967"/><rect x="16.37" y="20.34" width="1.72" height="6.23" fill="#2c5967"/><rect x="19.38" y="20.34" width="1.72" height="6.23" fill="#2c5967"/><rect x="22.39" y="20.34" width="1.72" height="6.23" fill="#2c5967"/></svg>