<svg id="Layer_1" data-name="Layer 1" xmlns="http://www.w3.org/2000/svg" viewBox="0 0 50.09 42"><defs><style>.cls-1{fill:#fff;}.cls-2{fill:#2c5967;}</style></defs><title>Technology - Oracle DataCenter Technology</title><metadata><?xpacket begin="﻿" id="W5M0MpCehiHzreSzNTczkc9d"?>
<x:xmpmeta xmlns:x="adobe:ns:meta/" x:xmptk="Adobe XMP Core 6.0-c006 79.164648, 2021/01/12-15:52:29        ">
   <rdf:RDF xmlns:rdf="http://www.w3.org/1999/02/22-rdf-syntax-ns#">
      <rdf:Description rdf:about=""
            xmlns:xmp="http://ns.adobe.com/xap/1.0/"
            xmlns:xmpMM="http://ns.adobe.com/xap/1.0/mm/"
            xmlns:stEvt="http://ns.adobe.com/xap/1.0/sType/ResourceEvent#"
            xmlns:xmpRights="http://ns.adobe.com/xap/1.0/rights/"
            xmlns:dc="http://purl.org/dc/elements/1.1/"
            xmlns:lr="http://ns.adobe.com/lightroom/1.0/">
         <xmp:MetadataDate>2021-06-24T19:48:25-05:00</xmp:MetadataDate>
         <xmpMM:InstanceID>xmp.iid:de7db28b-28bd-4d4a-b8c7-d25585d73450</xmpMM:InstanceID>
         <xmpMM:DocumentID>xmp.did:16307ad8-3491-4e8c-a974-aad5478cf03c</xmpMM:DocumentID>
         <xmpMM:OriginalDocumentID>xmp.did:16307ad8-3491-4e8c-a974-aad5478cf03c</xmpMM:OriginalDocumentID>
         <xmpMM:History>
            <rdf:Seq>
               <rdf:li>
                  <rdf:Description>
                     <stEvt:action>saved</stEvt:action>
                     <stEvt:instanceID>xmp.iid:16307ad8-3491-4e8c-a974-aad5478cf03c</stEvt:instanceID>
                     <stEvt:when>2021-06-18T11:42:16-05:00</stEvt:when>
                     <stEvt:softwareAgent>Adobe Bridge 2021 (Macintosh)</stEvt:softwareAgent>
                     <stEvt:changed>/metadata</stEvt:changed>
                  </rdf:Description>
               </rdf:li>
               <rdf:li>
                  <rdf:Description>
                     <stEvt:action>saved</stEvt:action>
                     <stEvt:instanceID>xmp.iid:de7db28b-28bd-4d4a-b8c7-d25585d73450</stEvt:instanceID>
                     <stEvt:when>2021-06-24T19:48:25-05:00</stEvt:when>
                     <stEvt:softwareAgent>Adobe Bridge 2021 (Macintosh)</stEvt:softwareAgent>
                     <stEvt:changed>/metadata</stEvt:changed>
                  </rdf:Description>
               </rdf:li>
            </rdf:Seq>
         </xmpMM:History>
         <xmpRights:Marked>True</xmpRights:Marked>
         <dc:title>
            <rdf:Alt>
               <rdf:li xml:lang="x-default">Technology - Oracle DataCenter Technology</rdf:li>
            </rdf:Alt>
         </dc:title>
         <dc:subject>
            <rdf:Bag>
               <rdf:li>icon</rdf:li>
               <rdf:li>technology</rdf:li>
               <rdf:li>Data</rdf:li>
               <rdf:li>center</rdf:li>
            </rdf:Bag>
         </dc:subject>
         <dc:rights>
            <rdf:Alt>
               <rdf:li xml:lang="x-default">Oracle All Rights Reserved</rdf:li>
            </rdf:Alt>
         </dc:rights>
         <lr:hierarchicalSubject>
            <rdf:Bag>
               <rdf:li>icon</rdf:li>
               <rdf:li>technology</rdf:li>
               <rdf:li>Data</rdf:li>
            </rdf:Bag>
         </lr:hierarchicalSubject>
      </rdf:Description>
   </rdf:RDF>
</x:xmpmeta>
                                                                                                    
                                                                                                    
                                                                                                    
                                                                                                    
                                                                                                    
                                                                                                    
                                                                                                    
                                                                                                    
                                                                                                    
                                                                                                    
                                            
<?xpacket end="w"?></metadata>
<polygon class="cls-1" points="0.5 41.5 0.5 39.84 2.58 38.8 3.05 38.8 3.05 0.5 23.63 0.5 23.63 38.8 24.1 38.8 26.18 39.84 26.18 41.5 0.5 41.5"/><path class="cls-1" d="M23.13,1V39.3H24l1.7.85V41H1v-.85l1.7-.85h.85V1H23.13m1-1H2.55V38.3H2.47l-.22.1-1.7.85L0,39.53V42H26.68V39.53l-.55-.28-1.7-.85-.22-.1h-.08V0Z"/><rect class="cls-1" x="23.9" y="9.01" width="25.68" height="23.34"/><path class="cls-1" d="M49.09,9.51V31.85H24.4V9.51H49.09m1-1H23.4V32.85H50.09V8.51Z"/><path class="cls-2" d="M6.53,36.74H20.15V35H6.53Zm0-3H20.15V32.06H6.53Zm20.85-4.68H32.7V27.38H27.38Zm6.6,0h5.53V27.38H34Zm6.81,0h5.32V27.38H40.79ZM8.23,26.53H18.45v2.56H8.23Zm-1.7,4.26H20.15v-6H6.53Zm20.85-4.68H32.7V24.4H27.38Zm6.6,0h5.53V24.4H34Zm6.81,0h5.32V24.4H40.79Zm-6.81-3h5.53v-1.7H34Zm6.81,0h5.32v-1.7H40.79ZM8.23,19.3H18.45v2.55H8.23Zm-1.7,4.25H20.15V17.6H6.53Zm23.83-6.38h3.41v-1.7H30.36Zm4.68,0h3.41v-1.7H35Zm4.68,0h3.41v-1.7H39.72ZM6.53,16.32H20.15v-1.7H6.53Zm22.56-2.13H44.4v4.26H29.09Zm-1.71,6H46.11V12.49H27.38Zm-1.27-8.94H47.38V30.15H26.11ZM24.4,31.85H49.09V9.51H24.4ZM9.94,9.94h6.8v1.7H9.94ZM8.23,8.23V9.94H6.53v1.7h1.7v1.7H18.45v-1.7h1.7V9.94h-1.7V8.23ZM6.53,7H20.15V5.26H6.53ZM5.26,2.7H21.43V39.3H5.26ZM3.55,1V39.3H2.7L1,40.15V41H25.68v-.85L24,39.3h-.85V1Z"/></svg>