<svg id="Layer_1" data-name="Layer 1" xmlns="http://www.w3.org/2000/svg" viewBox="0 0 42.08 32.75"><metadata><?xpacket begin="﻿" id="W5M0MpCehiHzreSzNTczkc9d"?>
<x:xmpmeta xmlns:x="adobe:ns:meta/" x:xmptk="Adobe XMP Core 6.0-c006 79.164648, 2021/01/12-15:52:29        ">
   <rdf:RDF xmlns:rdf="http://www.w3.org/1999/02/22-rdf-syntax-ns#">
      <rdf:Description rdf:about=""
            xmlns:dc="http://purl.org/dc/elements/1.1/"
            xmlns:xmp="http://ns.adobe.com/xap/1.0/"
            xmlns:xmpMM="http://ns.adobe.com/xap/1.0/mm/"
            xmlns:stEvt="http://ns.adobe.com/xap/1.0/sType/ResourceEvent#"
            xmlns:xmpRights="http://ns.adobe.com/xap/1.0/rights/"
            xmlns:lr="http://ns.adobe.com/lightroom/1.0/">
         <dc:subject>
            <rdf:Bag>
               <rdf:li>web</rdf:li>
               <rdf:li>internet</rdf:li>
               <rdf:li>network</rdf:li>
               <rdf:li>www</rdf:li>
               <rdf:li>icon</rdf:li>
            </rdf:Bag>
         </dc:subject>
         <dc:rights>
            <rdf:Alt>
               <rdf:li xml:lang="x-default">Oracle All Rights</rdf:li>
            </rdf:Alt>
         </dc:rights>
         <xmp:MetadataDate>2023-08-02T14:36:32-06:00</xmp:MetadataDate>
         <xmpMM:InstanceID>xmp.iid:edd42e7d-1c1a-4a42-b647-ed739546fb2e</xmpMM:InstanceID>
         <xmpMM:DocumentID>xmp.did:8cdf2df6-4b59-47d1-a8b4-9632feef25a0</xmpMM:DocumentID>
         <xmpMM:OriginalDocumentID>xmp.did:8cdf2df6-4b59-47d1-a8b4-9632feef25a0</xmpMM:OriginalDocumentID>
         <xmpMM:History>
            <rdf:Seq>
               <rdf:li>
                  <rdf:Description>
                     <stEvt:action>saved</stEvt:action>
                     <stEvt:instanceID>xmp.iid:8cdf2df6-4b59-47d1-a8b4-9632feef25a0</stEvt:instanceID>
                     <stEvt:when>2023-08-02T14:32:40-06:00</stEvt:when>
                     <stEvt:softwareAgent>Adobe Bridge 2021 (Macintosh)</stEvt:softwareAgent>
                     <stEvt:changed>/metadata</stEvt:changed>
                  </rdf:Description>
               </rdf:li>
               <rdf:li>
                  <rdf:Description>
                     <stEvt:action>saved</stEvt:action>
                     <stEvt:instanceID>xmp.iid:edd42e7d-1c1a-4a42-b647-ed739546fb2e</stEvt:instanceID>
                     <stEvt:when>2023-08-02T14:36:32-06:00</stEvt:when>
                     <stEvt:softwareAgent>Adobe Bridge 2021 (Macintosh)</stEvt:softwareAgent>
                     <stEvt:changed>/metadata</stEvt:changed>
                  </rdf:Description>
               </rdf:li>
            </rdf:Seq>
         </xmpMM:History>
         <xmpRights:Marked>True</xmpRights:Marked>
         <lr:hierarchicalSubject>
            <rdf:Bag>
               <rdf:li>Other Keywords|icon</rdf:li>
            </rdf:Bag>
         </lr:hierarchicalSubject>
      </rdf:Description>
   </rdf:RDF>
</x:xmpmeta>
                                                                                                    
                                                                                                    
                                                                                                    
                                                                                                    
                                                                                                    
                                                                                                    
                                                                                                    
                                                                                                    
                                                                                                    
                                                                                            
<?xpacket end="w"?></metadata>
<path d="M21.53,32.25a12.15,12.15,0,0,1-12-10.77h-9L.65,20A9.87,9.87,0,0,1,6,12,2.37,2.37,0,0,0,7.2,10.28a7.59,7.59,0,0,1,7.46-6.13,5.48,5.48,0,0,1,.7,0h.25a2.26,2.26,0,0,0,1.67-.72A9.31,9.31,0,0,1,32.44,5.65,2.46,2.46,0,0,0,34.12,7a9.22,9.22,0,0,1,3,1.24,9.53,9.53,0,0,1,3.31,12.57l-.38.71H33.55A12.15,12.15,0,0,1,21.53,32.25Z" fill="#fff"/><path d="M24.11,1A8.76,8.76,0,0,1,32,5.88a2.94,2.94,0,0,0,2,1.56,9.16,9.16,0,0,1,2.86,1.18A9,9,0,0,1,40,20.53l-.24.45H33.09A11.59,11.59,0,0,1,10,21H1.08l.07-.92a9.4,9.4,0,0,1,5-7.67,2.91,2.91,0,0,0,1.52-2,7.09,7.09,0,0,1,4.1-5.13,7.22,7.22,0,0,1,2.86-.6l.66,0,.29,0a2.8,2.8,0,0,0,2-.88A8.85,8.85,0,0,1,24.11,1m0-1a9.82,9.82,0,0,0-7.19,3.14,1.78,1.78,0,0,1-1.31.56h-.2a6.28,6.28,0,0,0-.75,0,8.12,8.12,0,0,0-7.95,6.54,1.91,1.91,0,0,1-1,1.32A10.41,10.41,0,0,0,.15,20l-.07.92L0,22H9.07A12.59,12.59,0,0,0,34,22h6.37l.28-.52.24-.45A10.06,10.06,0,0,0,37.4,7.77a9.71,9.71,0,0,0-3.18-1.3,2,2,0,0,1-1.34-1A9.74,9.74,0,0,0,24.11,0Z" fill="#fff"/><path d="M36.87,8.62A9.16,9.16,0,0,0,34,7.44a2.94,2.94,0,0,1-2-1.56A8.76,8.76,0,0,0,24.11,1a8.85,8.85,0,0,0-6.46,2.82,2.78,2.78,0,0,1-2.33.86,7.21,7.21,0,0,0-3.52.57,7.09,7.09,0,0,0-4.1,5.13,2.91,2.91,0,0,1-1.52,2,9.4,9.4,0,0,0-5,7.67L1.08,21H8.67q0-.4,0-.84c0-.29,0-.59,0-.88H3a7.7,7.7,0,0,1,4-5.34,4.6,4.6,0,0,0,2.4-3.21,5.37,5.37,0,0,1,3.11-3.88,5.42,5.42,0,0,1,2.66-.44A4.49,4.49,0,0,0,18.91,5a7.12,7.12,0,0,1,5.2-2.27,7,7,0,0,1,6.34,3.92,4.7,4.7,0,0,0,3.19,2.48,7.3,7.3,0,0,1,5.07,10.14H34.39c0,.29,0,.59,0,.88s0,.57,0,.84h5.37l.24-.45A9,9,0,0,0,36.87,8.62Z" fill="#2c5967"/><path d="M33.13,20.14a11.6,11.6,0,1,0-11.6,11.61A11.61,11.61,0,0,0,33.13,20.14Zm-1.76-.85h-5a17.42,17.42,0,0,0-2-7.26q-.44-.81-1-1.59A9.9,9.9,0,0,1,31.37,19.29ZM21,28.72A15.69,15.69,0,0,1,18.43,21h6.2a15.69,15.69,0,0,1-2.53,7.72c-.18.27-.37.55-.57.81C21.33,29.27,21.14,29,21,28.72Zm-2.53-9.43A15.69,15.69,0,0,1,21,11.57q.27-.42.57-.81.3.39.57.81a15.69,15.69,0,0,1,2.53,7.72Zm1.22-8.85q-.52.78-1,1.59a17.42,17.42,0,0,0-2,7.26h-5A9.9,9.9,0,0,1,19.65,10.44ZM11.69,21h5a17.46,17.46,0,0,0,2,7.26q.43.81,1,1.59A9.9,9.9,0,0,1,11.69,21Zm11.72,8.85q.53-.78,1-1.59a17.46,17.46,0,0,0,2-7.26h5A9.9,9.9,0,0,1,23.41,29.85Z" fill="#2c5967"/></svg>