<?xml version="1.0" encoding="UTF-8"?>
<svg id="Extras" xmlns="http://www.w3.org/2000/svg" version="1.1" viewBox="0 0 42 41.61">
  <metadata><?xpacket begin="﻿" id="W5M0MpCehiHzreSzNTczkc9d"?>
<x:xmpmeta xmlns:x="adobe:ns:meta/" x:xmptk="Adobe XMP Core 7.1-c000 79.4d2f597, 2021/09/01-20:51:22        ">
   <rdf:RDF xmlns:rdf="http://www.w3.org/1999/02/22-rdf-syntax-ns#">
      <rdf:Description rdf:about=""
            xmlns:dc="http://purl.org/dc/elements/1.1/"
            xmlns:xmpRights="http://ns.adobe.com/xap/1.0/rights/"
            xmlns:xmp="http://ns.adobe.com/xap/1.0/"
            xmlns:xmpMM="http://ns.adobe.com/xap/1.0/mm/"
            xmlns:stEvt="http://ns.adobe.com/xap/1.0/sType/ResourceEvent#">
         <dc:subject>
            <rdf:Bag>
               <rdf:li>Call</rdf:li>
               <rdf:li>communications</rdf:li>
               <rdf:li>telephone</rdf:li>
               <rdf:li>user interface</rdf:li>
               <rdf:li>UI</rdf:li>
            </rdf:Bag>
         </dc:subject>
         <dc:rights>
            <rdf:Alt>
               <rdf:li xml:lang="x-default">Oracle All Rights</rdf:li>
            </rdf:Alt>
         </dc:rights>
         <xmpRights:Marked/>
         <xmp:MetadataDate>2024-07-03T13:38:30-06:00</xmp:MetadataDate>
         <xmpMM:InstanceID>xmp.iid:a5fcf2c6-556f-4323-90c7-90ecfb8d0f5b</xmpMM:InstanceID>
         <xmpMM:DocumentID>xmp.did:a5fcf2c6-556f-4323-90c7-90ecfb8d0f5b</xmpMM:DocumentID>
         <xmpMM:OriginalDocumentID>xmp.did:a5fcf2c6-556f-4323-90c7-90ecfb8d0f5b</xmpMM:OriginalDocumentID>
         <xmpMM:History>
            <rdf:Seq>
               <rdf:li>
                  <rdf:Description>
                     <stEvt:action>saved</stEvt:action>
                     <stEvt:instanceID>xmp.iid:a5fcf2c6-556f-4323-90c7-90ecfb8d0f5b</stEvt:instanceID>
                     <stEvt:when>2024-07-03T13:38:30-06:00</stEvt:when>
                     <stEvt:softwareAgent>Adobe Bridge 2023</stEvt:softwareAgent>
                     <stEvt:changed>/metadata</stEvt:changed>
                  </rdf:Description>
               </rdf:li>
            </rdf:Seq>
         </xmpMM:History>
      </rdf:Description>
   </rdf:RDF>
</x:xmpmeta>
                                                                                                    
                                                                                                    
                                                                                                    
                                                                                                    
                                                                                                    
                                                                                                    
                                                                                                    
                                                                                                    
                                                                                                    
                                                                                                    
                                                                                                    
                                                                                                    
                                                                                                    
                                                                                                    
                                                                                                    
                                                                                                    
                                                                                                    
                                                                                                    
                                                                                                    
                                                                                                    
                           
<?xpacket end="w"?></metadata>
<defs>
    <style>
      .cls-1 {
        fill: #2d5967;
      }

      .cls-1, .cls-2 {
        stroke-width: 0px;
      }

      .cls-2 {
        fill: #fff;
      }
    </style>
  </defs>
  <path class="cls-2" d="M41.82,8.97c-.52-2.87-2.12-5.36-4.51-7.02-1.84-1.28-3.98-1.95-6.2-1.95-.65,0-1.31.06-1.95.18-1.57.28-3.02.9-4.29,1.79H2.76C1.24,1.96,0,3.2,0,4.73v34.12c0,1.52,1.24,2.76,2.76,2.76h34.12c1.52,0,2.76-1.24,2.76-2.76v-21.2c.14-.17.28-.34.4-.53,1.66-2.39,2.29-5.29,1.77-8.15Z"/>
  <path class="cls-1" d="M37.08,38.84c0,.11-.09.2-.2.2H2.76c-.11,0-.2-.09-.2-.2V10.8h17.45c0-.53.05-1.05.12-1.57H2.57v-4.51c0-.11.09-.2.2-.2h19.27c.4-.57.85-1.09,1.33-1.57H2.76c-.97,0-1.76.79-1.76,1.76v34.12c0,.97.79,1.76,1.76,1.76h34.12c.97,0,1.76-.79,1.76-1.76v-19.83c-.49.46-1.01.87-1.57,1.22v18.61Z"/>
  <circle class="cls-1" cx="5.22" cy="7.01" r=".98" transform="translate(-.75 .62) rotate(-6.38)"/>
  <circle class="cls-1" cx="8.68" cy="7.01" r=".98" transform="translate(.11 14.16) rotate(-78.77)"/>
  <circle class="cls-1" cx="12.08" cy="7.01" r=".98" transform="translate(2.85 17.49) rotate(-78.77)"/>
  <polygon class="cls-1" points="19.76 23.29 11.63 20.1 11.63 22.56 16.65 24.24 11.63 25.97 11.63 28.44 19.76 25.23 19.76 23.29"/>
  <rect class="cls-1" x="20.75" y="31.24" width="8.26" height="2.04"/>
  <path class="cls-1" d="M36.74,2.77c-2.17-1.51-4.8-2.08-7.4-1.61-2.6.47-4.87,1.92-6.38,4.1s-2.08,4.8-1.61,7.4c.47,2.6,1.92,4.87,4.1,6.38,1.68,1.16,3.63,1.77,5.63,1.77.59,0,1.18-.05,1.78-.16,2.6-.47,4.87-1.92,6.38-4.1s2.08-4.8,1.61-7.4c-.47-2.6-1.92-4.87-4.1-6.38ZM37.94,15.66c-1.27,1.83-3.17,3.05-5.36,3.45-2.19.39-4.4-.09-6.23-1.36-1.83-1.27-3.05-3.17-3.45-5.36s.09-4.4,1.36-6.23c1.27-1.83,3.17-3.05,5.36-3.45.5-.09,1-.13,1.5-.13,1.68,0,3.32.51,4.73,1.49,1.83,1.27,3.05,3.17,3.45,5.36s-.09,4.4-1.36,6.23Z"/>
  <path class="cls-1" d="M33.22,12.99c-.1.15-.31.19-.46.08l-4.21-2.92c-.15-.1-.19-.31-.08-.46l.91-1.31-2.93-2.03-.94,1.36c-.44.63-.39,1.49.14,2.06,1.02,1.11,2.37,2.28,3.95,3.37s3.14,1.95,4.54,2.52c.71.29,1.54.05,1.98-.59l.94-1.36-2.93-2.03-.91,1.31Z"/>
</svg>