<svg id="Layer_1" data-name="Layer 1" xmlns="http://www.w3.org/2000/svg" viewBox="0 0 45.14 42"><defs><style>.cls-1{fill:#fff;}.cls-2{fill:#2c5967;}</style></defs><title>WebLogic Secure Site</title><metadata><?xpacket begin="﻿" id="W5M0MpCehiHzreSzNTczkc9d"?>
<x:xmpmeta xmlns:x="adobe:ns:meta/" x:xmptk="Adobe XMP Core 6.0-c006 79.164648, 2021/01/12-15:52:29        ">
   <rdf:RDF xmlns:rdf="http://www.w3.org/1999/02/22-rdf-syntax-ns#">
      <rdf:Description rdf:about=""
            xmlns:xmp="http://ns.adobe.com/xap/1.0/"
            xmlns:xmpMM="http://ns.adobe.com/xap/1.0/mm/"
            xmlns:stEvt="http://ns.adobe.com/xap/1.0/sType/ResourceEvent#"
            xmlns:xmpRights="http://ns.adobe.com/xap/1.0/rights/"
            xmlns:dc="http://purl.org/dc/elements/1.1/"
            xmlns:lr="http://ns.adobe.com/lightroom/1.0/">
         <xmp:MetadataDate>2021-06-24T19:34:39-05:00</xmp:MetadataDate>
         <xmpMM:InstanceID>xmp.iid:b6fccd13-89e1-47db-8f00-0e2c530c61a8</xmpMM:InstanceID>
         <xmpMM:DocumentID>xmp.did:279ad15f-071a-4b99-b015-bcc1613c619e</xmpMM:DocumentID>
         <xmpMM:OriginalDocumentID>xmp.did:279ad15f-071a-4b99-b015-bcc1613c619e</xmpMM:OriginalDocumentID>
         <xmpMM:History>
            <rdf:Seq>
               <rdf:li>
                  <rdf:Description>
                     <stEvt:action>saved</stEvt:action>
                     <stEvt:instanceID>xmp.iid:279ad15f-071a-4b99-b015-bcc1613c619e</stEvt:instanceID>
                     <stEvt:when>2021-06-18T11:41:56-05:00</stEvt:when>
                     <stEvt:softwareAgent>Adobe Bridge 2021 (Macintosh)</stEvt:softwareAgent>
                     <stEvt:changed>/metadata</stEvt:changed>
                  </rdf:Description>
               </rdf:li>
               <rdf:li>
                  <rdf:Description>
                     <stEvt:action>saved</stEvt:action>
                     <stEvt:instanceID>xmp.iid:b6fccd13-89e1-47db-8f00-0e2c530c61a8</stEvt:instanceID>
                     <stEvt:when>2021-06-24T19:34:39-05:00</stEvt:when>
                     <stEvt:softwareAgent>Adobe Bridge 2021 (Macintosh)</stEvt:softwareAgent>
                     <stEvt:changed>/metadata</stEvt:changed>
                  </rdf:Description>
               </rdf:li>
            </rdf:Seq>
         </xmpMM:History>
         <xmpRights:Marked>True</xmpRights:Marked>
         <dc:title>
            <rdf:Alt>
               <rdf:li xml:lang="x-default">WebLogic Secure Site</rdf:li>
            </rdf:Alt>
         </dc:title>
         <dc:subject>
            <rdf:Bag>
               <rdf:li>icon</rdf:li>
               <rdf:li>technology</rdf:li>
            </rdf:Bag>
         </dc:subject>
         <dc:rights>
            <rdf:Alt>
               <rdf:li xml:lang="x-default">Oracle All Rights Reserved</rdf:li>
            </rdf:Alt>
         </dc:rights>
         <lr:hierarchicalSubject>
            <rdf:Bag>
               <rdf:li>icon</rdf:li>
               <rdf:li>technology</rdf:li>
            </rdf:Bag>
         </lr:hierarchicalSubject>
      </rdf:Description>
   </rdf:RDF>
</x:xmpmeta>
                                                                                                    
                                                                                                    
                                                                                                    
                                                                                                    
                                                                                                    
                                                                                                    
                                                                                                    
                                                                                                    
                                                                                                    
                                                                                                    
                                                                                                    
                                                        
<?xpacket end="w"?></metadata>
<path class="cls-1" d="M3,41.5A2.5,2.5,0,0,1,.5,39V8.76A2.5,2.5,0,0,1,3,6.26H33V5.53A5,5,0,0,1,36.54.7,4.94,4.94,0,0,1,37.91.5a4.83,4.83,0,0,1,3,1,5,5,0,0,1,2,4v.81h1.78V17.93H39.3V39a2.5,2.5,0,0,1-2.5,2.5Z"/><path class="cls-1" d="M37.91,1a4.46,4.46,0,0,1,2.66.89,4.5,4.5,0,0,1,1.79,3.56V6.76h1.78V17.43H38.8V39a2,2,0,0,1-2,2H3a2,2,0,0,1-2-2V8.76a2,2,0,0,1,2-2H33.47V5.53a4.5,4.5,0,0,1,3.2-4.35A4.43,4.43,0,0,1,37.91,1m0-1h0a5.43,5.43,0,0,0-5.44,5.53v.23H3a3,3,0,0,0-3,3V39a3,3,0,0,0,3,3H36.8a3,3,0,0,0,3-3V18.43h5.34V5.76H43.36V5.45A5.47,5.47,0,0,0,41.17,1.1,5.36,5.36,0,0,0,37.91,0Z"/><path class="cls-2" d="M37,39a.22.22,0,0,1-.22.22H3A.22.22,0,0,1,2.78,39V17.45H30.35V15.67H2.78V8.76A.22.22,0,0,1,3,8.53H30.35V6.76H3a2,2,0,0,0-2,2V39a2,2,0,0,0,2,2H36.8a2,2,0,0,0,2-2V18.76H37Z"/><path class="cls-2" d="M44.14,6.76H42.36V5.45a4.5,4.5,0,0,0-1.79-3.56,4.41,4.41,0,0,0-3.9-.71,4.5,4.5,0,0,0-3.2,4.35V6.76H31.69l0,10.67H44.14Zm-8.9-.67V5.53a2.72,2.72,0,0,1,1.92-2.64,2.61,2.61,0,0,1,2.34.43,2.67,2.67,0,0,1,1.08,2.13V6.76H35.24Zm7.12,9.56H33.45V8.53h8.9Z"/><path class="cls-2" d="M37.8,9.87h-.16A1.35,1.35,0,0,0,36.48,11a1.33,1.33,0,0,0,.7,1.37l-.27,1.71h1.78l-.25-1.72a1.31,1.31,0,0,0,.7-1.17A1.34,1.34,0,0,0,37.8,9.87Z"/><rect class="cls-2" x="21.24" y="32.99" width="13.12" height="2.22"/><polygon class="cls-2" points="19.46 27.44 5.45 21.65 5.45 23.88 16.12 28.32 16.12 28.55 5.45 33.15 5.45 35.44 19.46 29.44 19.46 27.44"/><path class="cls-2" d="M6.63,13.37A1.27,1.27,0,1,0,5.36,12.1,1.27,1.27,0,0,0,6.63,13.37Z"/><path class="cls-2" d="M11.09,13.37A1.27,1.27,0,1,0,9.81,12.1,1.27,1.27,0,0,0,11.09,13.37Z"/><path class="cls-2" d="M15.54,13.37a1.27,1.27,0,1,0-1.27-1.27A1.27,1.27,0,0,0,15.54,13.37Z"/></svg>