<svg id="Layer_1" data-name="Layer 1" xmlns="http://www.w3.org/2000/svg" viewBox="0 0 43.67 42"><title>Other - Virtual-Machine-Cloud</title><metadata><?xpacket begin="﻿" id="W5M0MpCehiHzreSzNTczkc9d"?>
<x:xmpmeta xmlns:x="adobe:ns:meta/" x:xmptk="Adobe XMP Core 6.0-c006 79.164648, 2021/01/12-15:52:29        ">
   <rdf:RDF xmlns:rdf="http://www.w3.org/1999/02/22-rdf-syntax-ns#">
      <rdf:Description rdf:about=""
            xmlns:dc="http://purl.org/dc/elements/1.1/"
            xmlns:lr="http://ns.adobe.com/lightroom/1.0/"
            xmlns:xmp="http://ns.adobe.com/xap/1.0/"
            xmlns:xmpMM="http://ns.adobe.com/xap/1.0/mm/"
            xmlns:stEvt="http://ns.adobe.com/xap/1.0/sType/ResourceEvent#"
            xmlns:xmpRights="http://ns.adobe.com/xap/1.0/rights/">
         <dc:title>
            <rdf:Alt>
               <rdf:li xml:lang="x-default">Other - Virtual-Machine-Cloud</rdf:li>
            </rdf:Alt>
         </dc:title>
         <dc:subject>
            <rdf:Bag>
               <rdf:li>icon</rdf:li>
               <rdf:li>computer</rdf:li>
            </rdf:Bag>
         </dc:subject>
         <dc:rights>
            <rdf:Alt>
               <rdf:li xml:lang="x-default">Oracle All Rights Reserved</rdf:li>
            </rdf:Alt>
         </dc:rights>
         <lr:hierarchicalSubject>
            <rdf:Bag>
               <rdf:li>icon</rdf:li>
               <rdf:li>computer</rdf:li>
            </rdf:Bag>
         </lr:hierarchicalSubject>
         <xmp:MetadataDate>2021-11-23T13:28:06-06:00</xmp:MetadataDate>
         <xmpMM:InstanceID>xmp.iid:23a0d726-698a-41c6-aeff-f847eb7d4b69</xmpMM:InstanceID>
         <xmpMM:DocumentID>xmp.did:bf72b3a1-405f-fc44-a09e-0ab90dc42127</xmpMM:DocumentID>
         <xmpMM:OriginalDocumentID>xmp.did:bf72b3a1-405f-fc44-a09e-0ab90dc42127</xmpMM:OriginalDocumentID>
         <xmpMM:History>
            <rdf:Seq>
               <rdf:li>
                  <rdf:Description>
                     <stEvt:action>saved</stEvt:action>
                     <stEvt:instanceID>xmp.iid:bf72b3a1-405f-fc44-a09e-0ab90dc42127</stEvt:instanceID>
                     <stEvt:when>2021-11-22T15:45-06:00</stEvt:when>
                     <stEvt:softwareAgent>Adobe Bridge 2020 (Windows)</stEvt:softwareAgent>
                     <stEvt:changed>/metadata</stEvt:changed>
                  </rdf:Description>
               </rdf:li>
               <rdf:li>
                  <rdf:Description>
                     <stEvt:action>saved</stEvt:action>
                     <stEvt:instanceID>xmp.iid:23a0d726-698a-41c6-aeff-f847eb7d4b69</stEvt:instanceID>
                     <stEvt:when>2021-11-23T13:28:06-06:00</stEvt:when>
                     <stEvt:softwareAgent>Adobe Bridge 2021 (Macintosh)</stEvt:softwareAgent>
                     <stEvt:changed>/metadata</stEvt:changed>
                  </rdf:Description>
               </rdf:li>
            </rdf:Seq>
         </xmpMM:History>
         <xmpRights:Marked>True</xmpRights:Marked>
      </rdf:Description>
   </rdf:RDF>
</x:xmpmeta>
                                                                                                    
                                                                                                    
                                                                                                    
                                                                                                    
                                                                                                    
                                                                                                    
                                                                                                    
                                                                                                    
                                                                                                    
                                                                                                    
                                                                                                    
                                                         
<?xpacket end="w"?></metadata>
<path d="M12.37,41.5V39.86l2.05-1h1.73l.46-3.37H2.88A2.39,2.39,0,0,1,.5,33.08V2.87A2.38,2.38,0,0,1,2.88.5H40.79a2.38,2.38,0,0,1,2.38,2.37V33.08a2.39,2.39,0,0,1-2.38,2.38H27.06l.46,3.37h1.72l2.06,1V41.5Z" fill="#fff"/><path d="M40.79,1a1.88,1.88,0,0,1,1.88,1.88v30.2A1.88,1.88,0,0,1,40.79,35H26.48l.6,4.37h2.05l1.66.84V41H12.87v-.83l1.67-.84h2.05L17.18,35H2.88A1.88,1.88,0,0,1,1,33.08V2.88A1.88,1.88,0,0,1,2.88,1H40.79m0-1H2.88A2.88,2.88,0,0,0,0,2.88v30.2A2.88,2.88,0,0,0,2.88,36H16l-.33,2.37h-1.4l-.21.11-1.67.83-.56.28V42H31.79V39.55l-.55-.28-1.67-.83-.21-.11H28L27.63,36H40.79a2.88,2.88,0,0,0,2.88-2.88V2.88A2.88,2.88,0,0,0,40.79,0Z" fill="#fff"/><path d="M40.79,1H2.87A1.87,1.87,0,0,0,1,2.87V33.08A1.88,1.88,0,0,0,2.87,35H17.18l-.59,4.37H14.54l-1.67.84V41H30.79v-.83l-1.67-.84h-2L26.48,35H40.79a1.88,1.88,0,0,0,1.88-1.88V2.87A1.88,1.88,0,0,0,40.79,1ZM2.87,2.67H40.79a.2.2,0,0,1,.21.2V30H2.67V2.87A.2.2,0,0,1,2.87,2.67ZM25.4,39.33H18.27l.6-4.37H24.8Zm15.39-6H2.87a.2.2,0,0,1-.2-.21V31.62H41v1.46A.21.21,0,0,1,40.79,33.29Z" fill="#2c5967"/><path d="M17.48,27H16.3l-1.67.84v.83H29.2v-.83L27.53,27H26.35l-.25-1.87H39.33V4.33h-35V25.17H17.74Zm7.19,0H19.16l.26-1.87h5ZM6,6H37.67V23.5H6Z" fill="#2c5967"/><path d="M33.24,12.92a6.77,6.77,0,0,0-2.1-.87,1.85,1.85,0,0,1-1.28-1A6.47,6.47,0,0,0,19.31,9.54l-.14.13-.05,0L19,9.79l-.06,0-.1.06-.07,0-.1.05-.08,0-.11,0-.07,0-.12,0h-.47l-.43,0h-.58l-.3,0h-.07l-.24,0-.1,0-.2,0-.1,0-.21.07-.09,0-.29.12a5.27,5.27,0,0,0-3,3.81,1.85,1.85,0,0,1-1,1.28,6.93,6.93,0,0,0-3.7,5.64l-.06.9H19.07a5.4,5.4,0,0,1-1.33-1.67H9.33A5.24,5.24,0,0,1,12,17.08a3.53,3.53,0,0,0,1.83-2.44A3.59,3.59,0,0,1,15.9,12l.31-.12.06,0,.31-.08h.06l.3-.05h0a1.72,1.72,0,0,1,.32,0h.38l.37,0h.14l.24,0,.15,0,.22,0,.15,0,.21-.07.14-.05.21-.09.13-.07.2-.11.12-.08.2-.15.1-.08.27-.26a4.79,4.79,0,0,1,7.83,1.13,3.53,3.53,0,0,0,2.42,1.88,4.89,4.89,0,0,1,1.57.65,5,5,0,0,1,1.93,6.14H22.38a2.67,2.67,0,0,1-2.64-2.69H18.07a4.34,4.34,0,0,0,4.31,4.36H35.31l.23-.44A6.67,6.67,0,0,0,33.24,12.92Z" fill="#2c5967"/></svg>