<svg id="Layer_1" data-name="Layer 1" xmlns="http://www.w3.org/2000/svg" viewBox="0 0 32.74 42"><title>Personas_Database Administrator - Male</title><metadata><?xpacket begin="﻿" id="W5M0MpCehiHzreSzNTczkc9d"?>
<x:xmpmeta xmlns:x="adobe:ns:meta/" x:xmptk="Adobe XMP Core 6.0-c006 79.164648, 2021/01/12-15:52:29        ">
   <rdf:RDF xmlns:rdf="http://www.w3.org/1999/02/22-rdf-syntax-ns#">
      <rdf:Description rdf:about=""
            xmlns:xmpRights="http://ns.adobe.com/xap/1.0/rights/"
            xmlns:xmp="http://ns.adobe.com/xap/1.0/"
            xmlns:xmpMM="http://ns.adobe.com/xap/1.0/mm/"
            xmlns:stEvt="http://ns.adobe.com/xap/1.0/sType/ResourceEvent#"
            xmlns:dc="http://purl.org/dc/elements/1.1/"
            xmlns:lr="http://ns.adobe.com/lightroom/1.0/">
         <xmpRights:Marked>True</xmpRights:Marked>
         <xmp:MetadataDate>2022-01-29T10:33:08-06:00</xmp:MetadataDate>
         <xmpMM:InstanceID>xmp.iid:a4ad86f2-c30a-45cc-8f5a-9ae4b03d6356</xmpMM:InstanceID>
         <xmpMM:DocumentID>xmp.did:f2f4f448-ed67-6c4f-9784-1f23ef68383b</xmpMM:DocumentID>
         <xmpMM:OriginalDocumentID>xmp.did:f2f4f448-ed67-6c4f-9784-1f23ef68383b</xmpMM:OriginalDocumentID>
         <xmpMM:History>
            <rdf:Seq>
               <rdf:li>
                  <rdf:Description>
                     <stEvt:action>saved</stEvt:action>
                     <stEvt:instanceID>xmp.iid:f2f4f448-ed67-6c4f-9784-1f23ef68383b</stEvt:instanceID>
                     <stEvt:when>2022-01-28T20:44:44-06:00</stEvt:when>
                     <stEvt:softwareAgent>Adobe Bridge 2020 (Windows)</stEvt:softwareAgent>
                     <stEvt:changed>/metadata</stEvt:changed>
                  </rdf:Description>
               </rdf:li>
               <rdf:li>
                  <rdf:Description>
                     <stEvt:action>saved</stEvt:action>
                     <stEvt:instanceID>xmp.iid:a4ad86f2-c30a-45cc-8f5a-9ae4b03d6356</stEvt:instanceID>
                     <stEvt:when>2022-01-29T10:33:08-06:00</stEvt:when>
                     <stEvt:softwareAgent>Adobe Bridge 2021 (Macintosh)</stEvt:softwareAgent>
                     <stEvt:changed>/metadata</stEvt:changed>
                  </rdf:Description>
               </rdf:li>
            </rdf:Seq>
         </xmpMM:History>
         <dc:title>
            <rdf:Alt>
               <rdf:li xml:lang="x-default">Personas_Database Administrator - Male</rdf:li>
            </rdf:Alt>
         </dc:title>
         <dc:rights>
            <rdf:Alt>
               <rdf:li xml:lang="x-default">Oracle, All rights reserved</rdf:li>
            </rdf:Alt>
         </dc:rights>
         <dc:subject>
            <rdf:Bag>
               <rdf:li>icon</rdf:li>
               <rdf:li>user</rdf:li>
               <rdf:li>person</rdf:li>
               <rdf:li>persona</rdf:li>
               <rdf:li>data</rdf:li>
               <rdf:li>men</rdf:li>
               <rdf:li>man</rdf:li>
            </rdf:Bag>
         </dc:subject>
         <lr:hierarchicalSubject>
            <rdf:Bag>
               <rdf:li>icon</rdf:li>
               <rdf:li>Other Keywords|user</rdf:li>
               <rdf:li>Other Keywords|person</rdf:li>
               <rdf:li>Other Keywords|persona</rdf:li>
               <rdf:li>men</rdf:li>
               <rdf:li>man</rdf:li>
            </rdf:Bag>
         </lr:hierarchicalSubject>
      </rdf:Description>
   </rdf:RDF>
</x:xmpmeta>
                                                                                                    
                                                                                                    
                                                                                                    
                                                                                                    
                                                                                                    
                                                                                                    
                                                                                                    
                                    
<?xpacket end="w"?></metadata>
<path d="M5.72,41.5l-2.07-1v-7.6H.5V27.34A8.55,8.55,0,0,1,9,18.8h2V16.32A7.24,7.24,0,0,1,8.9,11.18l0-4.92C8.92,2.71,11,.5,14.26.5h9.56V1.84l0,9.25a7.46,7.46,0,0,1-2.13,5.16v2.56h2a8.56,8.56,0,0,1,8.55,8.54v5.53h-3v7.6l-2.07,1H5.72Z" fill="#fff"/><path d="M23.32,1v.84l0,9.25a6.94,6.94,0,0,1-2.13,5v3.26h2.48a8,8,0,0,1,8,8v5H28.79v7.79L27.11,41H5.84l-1.69-.84V32.37H1v-5a8,8,0,0,1,8-8h2.49v-3.2A6.8,6.8,0,0,1,9.4,11.18l0-4.92C9.42,3,11.23,1,14.26,1h9.06m1-1H14.26c-3.6,0-5.84,2.4-5.84,6.26l0,4.91a7.78,7.78,0,0,0,2.12,5.36v1.78H9a9,9,0,0,0-9,9v6H3.15v7.41l.56.27,1.69.84.21.11H27.34l.21-.11,1.69-.84.55-.27V33.37h3v-6a9.05,9.05,0,0,0-9-9H22.21V16.45a8,8,0,0,0,2.13-5.36l0-9.25V0Z" fill="#fff"/><path d="M16.58,29.21c-.67,0-4,.1-4,2.11v5.26c0,1.31,2.34,1.89,4,1.89s4-.58,4-1.89V31.32C20.58,30.53,20.06,29.21,16.58,29.21Zm0,1.68a4.83,4.83,0,0,1,2.21.37,4.5,4.5,0,0,1-2.21.48,4.62,4.62,0,0,1-2.17-.46A5.53,5.53,0,0,1,16.58,30.89Zm2.31,3a5.77,5.77,0,0,1-2.31.41,5.83,5.83,0,0,1-2.32-.41v-.8a7.28,7.28,0,0,0,2.32.37,7.17,7.17,0,0,0,2.31-.37Zm-2.31,2.94a5.11,5.11,0,0,1-2.32-.49v-.65a9.18,9.18,0,0,0,2.32.3,9,9,0,0,0,2.31-.3v.65A5.06,5.06,0,0,1,16.58,36.79Z" fill="#2c5967"/><path d="M23.69,19.3H21.21V16.05a6.94,6.94,0,0,0,2.13-5l0-9.25V1H14.26c-3,0-4.84,2-4.84,5.26h0l0,4.92a6.8,6.8,0,0,0,2.12,4.93v3.2H9a8,8,0,0,0-8,8v5H2.68v-5A6.36,6.36,0,0,1,9,21l3.18,0,4.16,4.38L20.53,21l3.17,0a6.36,6.36,0,0,1,6.35,6.36v5h1.69v-5A8,8,0,0,0,23.69,19.3ZM14.26,2.68h7.33c-.3,2.74-2.08,2.74-2.7,2.74H11.16A2.81,2.81,0,0,1,14.26,2.68Zm-3.18,8.5,0-4.07h7.79a4.27,4.27,0,0,0,2.75-.88l0,4.86a5.35,5.35,0,0,1-5.28,5.28A5.25,5.25,0,0,1,11.08,11.18Zm5.29,11.76-3.16-3.33V17.3a7,7,0,0,0,3.17.75,6.77,6.77,0,0,0,3.15-.78v2.34Z" fill="#2c5967"/><path d="M24,28.37H9a.21.21,0,0,0-.21.21V39.32H24.16V28.58A.21.21,0,0,0,24,28.37Z" fill="none"/><path d="M25.84,39.32V28.58A1.9,1.9,0,0,0,24,26.68H9a1.9,1.9,0,0,0-1.89,1.9V39.32h-3v.84L5.84,41H27.11l1.68-.84v-.84Zm-1.68,0H8.79V28.58A.21.21,0,0,1,9,28.37H24a.21.21,0,0,1,.21.21Z" fill="#2c5967"/></svg>