<svg id="Layer_1" data-name="Layer 1" xmlns="http://www.w3.org/2000/svg" viewBox="0 0 46.11 42"><defs><style>.cls-1{fill:#fff;}.cls-2{fill:#2c5967;}</style></defs><title>Database Server</title><metadata><?xpacket begin="﻿" id="W5M0MpCehiHzreSzNTczkc9d"?>
<x:xmpmeta xmlns:x="adobe:ns:meta/" x:xmptk="Adobe XMP Core 6.0-c006 79.164648, 2021/01/12-15:52:29        ">
   <rdf:RDF xmlns:rdf="http://www.w3.org/1999/02/22-rdf-syntax-ns#">
      <rdf:Description rdf:about=""
            xmlns:xmpRights="http://ns.adobe.com/xap/1.0/rights/"
            xmlns:xmp="http://ns.adobe.com/xap/1.0/"
            xmlns:xmpMM="http://ns.adobe.com/xap/1.0/mm/"
            xmlns:stEvt="http://ns.adobe.com/xap/1.0/sType/ResourceEvent#"
            xmlns:dc="http://purl.org/dc/elements/1.1/"
            xmlns:lr="http://ns.adobe.com/lightroom/1.0/">
         <xmpRights:Marked>True</xmpRights:Marked>
         <xmp:MetadataDate>2021-06-24T19:53:45-05:00</xmp:MetadataDate>
         <xmpMM:InstanceID>xmp.iid:a4e81e8c-9cc7-49b5-a7a3-3c2c9351d28f</xmpMM:InstanceID>
         <xmpMM:DocumentID>xmp.did:3eb00008-ec9d-4d6b-b5c7-44c496b5eeab</xmpMM:DocumentID>
         <xmpMM:OriginalDocumentID>xmp.did:3eb00008-ec9d-4d6b-b5c7-44c496b5eeab</xmpMM:OriginalDocumentID>
         <xmpMM:History>
            <rdf:Seq>
               <rdf:li>
                  <rdf:Description>
                     <stEvt:action>saved</stEvt:action>
                     <stEvt:instanceID>xmp.iid:3eb00008-ec9d-4d6b-b5c7-44c496b5eeab</stEvt:instanceID>
                     <stEvt:when>2021-06-23T15:53:57-05:00</stEvt:when>
                     <stEvt:softwareAgent>Adobe Bridge 2021 (Macintosh)</stEvt:softwareAgent>
                     <stEvt:changed>/metadata</stEvt:changed>
                  </rdf:Description>
               </rdf:li>
               <rdf:li>
                  <rdf:Description>
                     <stEvt:action>saved</stEvt:action>
                     <stEvt:instanceID>xmp.iid:a4e81e8c-9cc7-49b5-a7a3-3c2c9351d28f</stEvt:instanceID>
                     <stEvt:when>2021-06-24T19:53:45-05:00</stEvt:when>
                     <stEvt:softwareAgent>Adobe Bridge 2021 (Macintosh)</stEvt:softwareAgent>
                     <stEvt:changed>/metadata</stEvt:changed>
                  </rdf:Description>
               </rdf:li>
            </rdf:Seq>
         </xmpMM:History>
         <dc:title>
            <rdf:Alt>
               <rdf:li xml:lang="x-default">Database Server</rdf:li>
            </rdf:Alt>
         </dc:title>
         <dc:rights>
            <rdf:Alt>
               <rdf:li xml:lang="x-default">Oracle All Rights Reserved</rdf:li>
            </rdf:Alt>
         </dc:rights>
         <dc:subject>
            <rdf:Bag>
               <rdf:li>icon</rdf:li>
               <rdf:li>Data</rdf:li>
               <rdf:li>technology</rdf:li>
               <rdf:li>Hardware</rdf:li>
            </rdf:Bag>
         </dc:subject>
         <lr:hierarchicalSubject>
            <rdf:Bag>
               <rdf:li>icon</rdf:li>
               <rdf:li>Data</rdf:li>
               <rdf:li>technology</rdf:li>
               <rdf:li>Hardware</rdf:li>
            </rdf:Bag>
         </lr:hierarchicalSubject>
      </rdf:Description>
   </rdf:RDF>
</x:xmpmeta>
                                                                                                    
                                                                                                    
                                                                                                    
                                                                                                    
                                                                                                    
                                                                                                    
                                                                                                    
                                                                                     
<?xpacket end="w"?></metadata>
<path class="cls-1" d="M.5,41.5V39.84l2.09-1h.47V.5H23.63V15.36a17.8,17.8,0,0,1,3.43-.86l.49-.07A42.12,42.12,0,0,1,33.29,14c2.06,0,12.32.2,12.32,4.06V37.48c0,3.78-10.12,4-12.15,4H.5Z"/><path class="cls-1" d="M23.13,1V16.13a14.62,14.62,0,0,1,4-1.13l.49-.08a41.35,41.35,0,0,1,5.66-.38c4.39,0,11.82.75,11.82,3.56V37.48c0,2.71-7.25,3.5-11.66,3.52H1v-.85l1.71-.85h.85V1H23.13m1-1H2.56V38.3H2.47l-.21.1-1.71.85L0,39.53V42H40.34l-1.29-.38c3.48-.5,7.06-1.62,7.06-4.14V18.1c0-4.23-9.81-4.56-12.82-4.56a41.93,41.93,0,0,0-5.81.4L27,14a20.92,20.92,0,0,0-2.85.65V0Z"/><path class="cls-2" d="M18.45,8.23H8.24V9.94H6.54v1.7h1.7v1.7H18.45v-1.7h1.7V9.94h-1.7Zm-1.7,3.41H9.94V9.94h6.81Z"/><rect class="cls-2" x="6.54" y="5.26" width="13.62" height="1.7"/><rect class="cls-2" x="6.54" y="14.62" width="13.62" height="1.7"/><path class="cls-2" d="M6.54,23.55H20.15V17.6H6.54Zm1.7-4.25H18.45v2.55H8.24Z"/><rect class="cls-2" x="6.54" y="35.04" width="13.62" height="1.7"/><rect class="cls-2" x="6.54" y="32.06" width="13.62" height="1.7"/><path class="cls-2" d="M6.54,30.79H20.15v-6H6.54Zm1.7-4.26H18.45v2.56H8.24Z"/><path class="cls-2" d="M20.87,39.3H5.26V2.7H21.43v13a6.79,6.79,0,0,1,1.7-1V1H3.56V39.3H2.71L1,40.15V41H23.67A6.36,6.36,0,0,1,20.87,39.3Z"/><path class="cls-2" d="M45.11,37.48V18.1c0-2.81-7.43-3.56-11.82-3.56a41.35,41.35,0,0,0-5.66.38l-.49.08c-3.05.49-5.66,1.43-5.66,3.1V37.48c0,1.63,2.61,2.55,5.66,3l.49.07a43,43,0,0,0,5.66.38C37.68,41,45.11,40.23,45.11,37.48ZM33.29,39.26c-6.07,0-9.72-1.16-10.11-1.82V32.92c2.45,1.17,7,1.53,10.11,1.53s7.67-.36,10.12-1.53v4.52C43,38.1,39.37,39.26,33.29,39.26Zm10.12-8.33c-.39.66-4,1.82-10.12,1.82s-9.72-1.16-10.11-1.82V26.46c2.45,1.16,7,1.52,10.11,1.52s7.67-.36,10.12-1.52Zm0-6.47c-.39.67-4,1.82-10.12,1.82s-9.72-1.15-10.11-1.82V20.1c2.45,1.19,7,1.56,10.11,1.56S41,21.29,43.41,20.1Zm0-6.36c-.43.69-4,1.86-10.1,1.86s-9.66-1.17-10.1-1.86c.44-.69,4-1.86,10.1-1.86S43,17.41,43.39,18.1Z"/></svg>