<svg id="Layer_1" data-name="Layer 1" xmlns="http://www.w3.org/2000/svg" viewBox="0 0 37.82 42.42"><defs><style>.cls-1{fill:#fff;}.cls-2{fill:#2c5967;}</style></defs><title>Search-Database</title><metadata><?xpacket begin="﻿" id="W5M0MpCehiHzreSzNTczkc9d"?>
<x:xmpmeta xmlns:x="adobe:ns:meta/" x:xmptk="Adobe XMP Core 6.0-c006 79.164648, 2021/01/12-15:52:29        ">
   <rdf:RDF xmlns:rdf="http://www.w3.org/1999/02/22-rdf-syntax-ns#">
      <rdf:Description rdf:about=""
            xmlns:xmp="http://ns.adobe.com/xap/1.0/"
            xmlns:xmpMM="http://ns.adobe.com/xap/1.0/mm/"
            xmlns:stEvt="http://ns.adobe.com/xap/1.0/sType/ResourceEvent#"
            xmlns:xmpRights="http://ns.adobe.com/xap/1.0/rights/"
            xmlns:dc="http://purl.org/dc/elements/1.1/"
            xmlns:lr="http://ns.adobe.com/lightroom/1.0/">
         <xmp:MetadataDate>2021-06-24T19:33:41-05:00</xmp:MetadataDate>
         <xmpMM:InstanceID>xmp.iid:e2b226f2-4908-45c9-a747-babf4fd98ec9</xmpMM:InstanceID>
         <xmpMM:DocumentID>xmp.did:82fb8a74-0bc0-48a8-8a3b-ad1eabbe6eb6</xmpMM:DocumentID>
         <xmpMM:OriginalDocumentID>xmp.did:82fb8a74-0bc0-48a8-8a3b-ad1eabbe6eb6</xmpMM:OriginalDocumentID>
         <xmpMM:History>
            <rdf:Seq>
               <rdf:li>
                  <rdf:Description>
                     <stEvt:action>saved</stEvt:action>
                     <stEvt:instanceID>xmp.iid:82fb8a74-0bc0-48a8-8a3b-ad1eabbe6eb6</stEvt:instanceID>
                     <stEvt:when>2021-06-18T11:41:55-05:00</stEvt:when>
                     <stEvt:softwareAgent>Adobe Bridge 2021 (Macintosh)</stEvt:softwareAgent>
                     <stEvt:changed>/metadata</stEvt:changed>
                  </rdf:Description>
               </rdf:li>
               <rdf:li>
                  <rdf:Description>
                     <stEvt:action>saved</stEvt:action>
                     <stEvt:instanceID>xmp.iid:e2b226f2-4908-45c9-a747-babf4fd98ec9</stEvt:instanceID>
                     <stEvt:when>2021-06-24T19:33:41-05:00</stEvt:when>
                     <stEvt:softwareAgent>Adobe Bridge 2021 (Macintosh)</stEvt:softwareAgent>
                     <stEvt:changed>/metadata</stEvt:changed>
                  </rdf:Description>
               </rdf:li>
            </rdf:Seq>
         </xmpMM:History>
         <xmpRights:Marked>True</xmpRights:Marked>
         <dc:title>
            <rdf:Alt>
               <rdf:li xml:lang="x-default">Search-Database</rdf:li>
            </rdf:Alt>
         </dc:title>
         <dc:subject>
            <rdf:Bag>
               <rdf:li>icon</rdf:li>
               <rdf:li>find</rdf:li>
               <rdf:li>Magnifying Glass</rdf:li>
               <rdf:li>technology</rdf:li>
            </rdf:Bag>
         </dc:subject>
         <dc:rights>
            <rdf:Alt>
               <rdf:li xml:lang="x-default">Oracle All Rights Reserved</rdf:li>
            </rdf:Alt>
         </dc:rights>
         <lr:hierarchicalSubject>
            <rdf:Bag>
               <rdf:li>icon</rdf:li>
               <rdf:li>find</rdf:li>
               <rdf:li>Magnifying Glass</rdf:li>
               <rdf:li>technology</rdf:li>
            </rdf:Bag>
         </lr:hierarchicalSubject>
      </rdf:Description>
   </rdf:RDF>
</x:xmpmeta>
                                                                                                    
                                                                                                    
                                                                                                    
                                                                                                    
                                                                                                    
                                                                                                    
                                                                                                    
                                                                                                    
                                                                                                    
                                                                                      
<?xpacket end="w"?></metadata>
<path class="cls-1" d="M30.06,40.48l-1.29.28a66.23,66.23,0,0,1-9.86.74C17,41.5.5,41.35.5,36.07v-30C.5,2,10.42.5,18.91.5S37.32,2,37.32,6.06V35.59l-6,6.12Z"/><path class="cls-1" d="M18.91,1c8.62,0,17.91,1.58,17.91,5.06V35.39L31.29,41l-1.07-1.07-1.55.34a65.35,65.35,0,0,1-9.76.73C12.71,41,1,40,1,36.07v-30C1,2.58,10.28,1,18.91,1m0-1C15.75,0,0,.29,0,6.06v30C0,41.71,15.75,42,18.91,42a67,67,0,0,0,9.92-.74h.05l1-.22.68.68.71.71L32,41.7l5.53-5.61.29-.29V6.06C37.82.29,22.07,0,18.91,0Z"/><path class="cls-2" d="M27.27,38.78a61.68,61.68,0,0,1-8.36.53A53.25,53.25,0,0,1,7,38.14c-3.56-.85-4.35-1.8-4.35-2.07V28.46c1.83,1.09,4.94,1.76,8.16,2.16a10.81,10.81,0,0,1-1.41-1.89c-.85-.14-1.66-.3-2.4-.48-3.56-.85-4.35-1.8-4.35-2.06V18.72A17.93,17.93,0,0,0,8.28,20.5a10.87,10.87,0,0,1,.54-1.61c-.62-.12-1.22-.24-1.78-.37-3.56-.85-4.35-1.81-4.35-2.07V8.37c3.06,1.87,9.82,2.74,16.22,2.74s13.16-.87,16.22-2.74v8.08c0,.26-.8,1.22-4.35,2.07-.57.13-1.17.26-1.8.37a11.31,11.31,0,0,1,.55,1.61,18.09,18.09,0,0,0,5.6-1.78v7.47c0,.26-.8,1.21-4.35,2.06l-.43.1,1.73,1.26h0l0,0a12.75,12.75,0,0,0,3-1.19v3.69l.8.77.89.88V6.48a.88.88,0,0,0,0-.17,2.29,2.29,0,0,0,0-.25C36.82,2.58,27.53,1,18.91,1S1,2.58,1,6.06a2.29,2.29,0,0,0,0,.25.88.88,0,0,0,0,.17V36.07C1,40,12.71,41,18.91,41a65.35,65.35,0,0,0,9.76-.73l-.05,0C28.17,39.77,27.71,39.29,27.27,38.78ZM18.91,2.69a52.48,52.48,0,0,1,11.86,1.2c3.58.89,4.36,1.86,4.36,2.17s-.78,1.27-4.36,2.16A51.86,51.86,0,0,1,18.91,9.43,52,52,0,0,1,7,8.22C3.47,7.33,2.69,6.36,2.69,6.06S3.47,4.78,7,3.89A52.57,52.57,0,0,1,18.91,2.69Z"/><path class="cls-2" d="M35,33.86a34.46,34.46,0,0,0-3.69-3.17l-4-2.86a9.62,9.62,0,1,0-18-4.63,9.64,9.64,0,0,0,14.26,8.43l2.87,4a32.9,32.9,0,0,0,3.16,3.67L31.29,41l5.42-5.42Zm-21.7-5.05a7.94,7.94,0,1,1,11.22,0A7.87,7.87,0,0,1,13.29,28.81Zm11.65,1.88A9.86,9.86,0,0,0,25.7,30a8.27,8.27,0,0,0,.69-.77l3.91,2.82a31.74,31.74,0,0,1,3.49,3l.53.53-3,3-.53-.53a34.65,34.65,0,0,1-3-3.48Z"/></svg>