<svg id="Layer_1" data-name="Layer 1" xmlns="http://www.w3.org/2000/svg" viewBox="0 0 42.72 39.47"><metadata><?xpacket begin="﻿" id="W5M0MpCehiHzreSzNTczkc9d"?>
<x:xmpmeta xmlns:x="adobe:ns:meta/" x:xmptk="Adobe XMP Core 6.0-c006 79.164648, 2021/01/12-15:52:29        ">
   <rdf:RDF xmlns:rdf="http://www.w3.org/1999/02/22-rdf-syntax-ns#">
      <rdf:Description rdf:about=""
            xmlns:dc="http://purl.org/dc/elements/1.1/"
            xmlns:xmp="http://ns.adobe.com/xap/1.0/"
            xmlns:xmpMM="http://ns.adobe.com/xap/1.0/mm/"
            xmlns:stEvt="http://ns.adobe.com/xap/1.0/sType/ResourceEvent#"
            xmlns:xmpRights="http://ns.adobe.com/xap/1.0/rights/"
            xmlns:lr="http://ns.adobe.com/lightroom/1.0/">
         <dc:subject>
            <rdf:Bag>
               <rdf:li>icon</rdf:li>
               <rdf:li>database</rdf:li>
               <rdf:li>backup</rdf:li>
               <rdf:li>time</rdf:li>
            </rdf:Bag>
         </dc:subject>
         <dc:rights>
            <rdf:Alt>
               <rdf:li xml:lang="x-default">Oracle All Rights</rdf:li>
            </rdf:Alt>
         </dc:rights>
         <xmp:MetadataDate>2023-08-02T14:41:16-06:00</xmp:MetadataDate>
         <xmpMM:InstanceID>xmp.iid:24e177ab-9d70-4b28-9566-b620c8bd457d</xmpMM:InstanceID>
         <xmpMM:DocumentID>xmp.did:b489aa4d-9550-40b6-8089-d781fea80128</xmpMM:DocumentID>
         <xmpMM:OriginalDocumentID>xmp.did:b489aa4d-9550-40b6-8089-d781fea80128</xmpMM:OriginalDocumentID>
         <xmpMM:History>
            <rdf:Seq>
               <rdf:li>
                  <rdf:Description>
                     <stEvt:action>saved</stEvt:action>
                     <stEvt:instanceID>xmp.iid:b489aa4d-9550-40b6-8089-d781fea80128</stEvt:instanceID>
                     <stEvt:when>2023-08-02T12:33:10-06:00</stEvt:when>
                     <stEvt:softwareAgent>Adobe Bridge 2021 (Macintosh)</stEvt:softwareAgent>
                     <stEvt:changed>/metadata</stEvt:changed>
                  </rdf:Description>
               </rdf:li>
               <rdf:li>
                  <rdf:Description>
                     <stEvt:action>saved</stEvt:action>
                     <stEvt:instanceID>xmp.iid:24e177ab-9d70-4b28-9566-b620c8bd457d</stEvt:instanceID>
                     <stEvt:when>2023-08-02T14:41:16-06:00</stEvt:when>
                     <stEvt:softwareAgent>Adobe Bridge 2021 (Macintosh)</stEvt:softwareAgent>
                     <stEvt:changed>/metadata</stEvt:changed>
                  </rdf:Description>
               </rdf:li>
            </rdf:Seq>
         </xmpMM:History>
         <xmpRights:Marked>True</xmpRights:Marked>
         <lr:hierarchicalSubject>
            <rdf:Bag>
               <rdf:li>Other Keywords|icon</rdf:li>
            </rdf:Bag>
         </lr:hierarchicalSubject>
      </rdf:Description>
   </rdf:RDF>
</x:xmpmeta>
                                                                                                    
                                                                                                    
                                                                                                    
                                                                                                    
                                                                                                    
                                                                                                    
                                                                                                    
                                                                                                    
                                                                                                    
                                                     
<?xpacket end="w"?></metadata>
<path d="M23.86,39a19.52,19.52,0,0,1-19.4-18l-1.8,1.8L.71,20.77l5.05-5L11,20.62l-1.89,2L7.23,20.9a16.69,16.69,0,0,0,32.09,4.93l.19-.47,2.56,1.05-.19.46A19.4,19.4,0,0,1,23.86,39Z" fill="#fff"/><path d="M5.77,16.41l4.48,4.23L9,21.92,6.67,19.69A17.19,17.19,0,0,0,39.78,26l1.63.66a19,19,0,0,1-36.5-6.91L2.66,22,1.41,20.77l4.36-4.36m0-1.39-.69.68L.71,20.06,0,20.77l.71.7L2,22.72l.71.71.71-.71.69-.7a20,20,0,0,0,38.28,5l.38-.93-.93-.37-1.63-.67-.93-.38-.37.93a16.2,16.2,0,0,1-31-3.42l.46.43.73.68.68-.72L11,21.32l.69-.72-.73-.69L6.45,15.68,5.75,15Z" fill="#fff"/><path d="M24.11,31.58h-.55l-1.1,0c-.83,0-1.68-.09-2.47-.17a16.45,16.45,0,0,1-5.43-1.25c-1.18-.58-1.78-1.34-1.78-2.26V19.39A9.53,9.53,0,0,1,14.6.5a9.49,9.49,0,0,1,9.17,7h1c6.76.12,10.18,1.32,10.18,3.55V28c0,2.24-3.42,3.44-10.18,3.55l-.65,0Z" fill="#fff"/><path d="M14.6,1a9,9,0,0,1,8.79,7h.47c.15,0,.47,0,.89,0V8c3.49.06,9.69.53,9.69,3.05V28c0,2.53-6.2,3-9.69,3.06v0l-.89,0h-.3l-1.08,0C21.81,31,21,31,20,30.89a16.74,16.74,0,0,1-5.26-1.19c-.91-.45-1.5-1-1.5-1.82V19A9,9,0,0,1,14.6,1m0-1a10,10,0,0,0-2.32,19.79v8.09c0,.78.36,1.88,2.06,2.71a16.89,16.89,0,0,0,5.6,1.3c.8.08,1.64.13,2.5.17l1.07,0v0l1.26,0C32,32,35.44,30.63,35.44,28V11c0-2.6-3.49-3.92-10.67-4h-.63A10,10,0,0,0,14.6,0Z" fill="#fff"/><path d="M41.41,26.68a19,19,0,0,1-36.5-6.91L2.66,22,1.41,20.77l4.36-4.36,4.48,4.23L9,21.92,6.67,19.69A17.19,17.19,0,0,0,39.78,26Z" fill="#2c5967"/><path d="M32.68,22.25v.08a.55.55,0,0,1,0-.12Zm0-5.59v.08a.55.55,0,0,1,0-.12Zm0-5.54v.08a.55.55,0,0,1,0-.12ZM15,22.21a.55.55,0,0,1,0,.12v-.08Z" fill="#2c5967"/><path d="M24.75,8A10.44,10.44,0,0,1,25,9.72c4.75.11,7.31.9,7.72,1.37v0l0,0a.55.55,0,0,0,0,.12v-.08c-.43.53-3.36,1.42-8,1.51A10.31,10.31,0,0,1,24,14.4c1.12,0,6-.1,8.68-1.26v3.52l0,0a.55.55,0,0,0,0,.12v-.08c-.46.56-3.68,1.52-8.82,1.52-1,0-1.9,0-2.74-.09a10.15,10.15,0,0,1-2.5,1.49,39.18,39.18,0,0,0,5.24.37c.79,0,6-.05,8.82-1.27v3.57l0,0a.55.55,0,0,0,0,.12v-.08c-.46.56-3.68,1.52-8.82,1.52s-8.37-1-8.82-1.52v.08a.55.55,0,0,0,0-.12l0,0V20.39H14.6a9.54,9.54,0,0,1-1.32-.09v7.57c0,3.12,9.5,3.21,10.58,3.21S34.44,31,34.44,27.88V11C34.44,8.48,28.24,8,24.75,8ZM32.68,27.8c-.47.57-3.7,1.52-8.82,1.52S15.51,28.37,15,27.8V24.27c2.8,1.22,8,1.27,8.82,1.27s6-.05,8.82-1.27Z" fill="#2c5967"/><path d="M15,22.25v.08a.55.55,0,0,0,0-.12Z" fill="#2c5967"/><path d="M32.7,22.21a.55.55,0,0,0,0,.12v-.08Z" fill="#2c5967"/><path d="M32.7,16.62a.55.55,0,0,0,0,.12v-.08Z" fill="#2c5967"/><path d="M32.7,11.08a.55.55,0,0,0,0,.12v-.08Z" fill="#2c5967"/><path d="M14.6,1a9,9,0,1,0,9,9A9,9,0,0,0,14.6,1Zm0,16.31A7.28,7.28,0,1,1,21.88,10,7.28,7.28,0,0,1,14.6,17.31Z" fill="#2c5967"/><path d="M18.74,12.94,17.5,14.19,14,10.66a.85.85,0,0,1-.26-.62V5.85h1.76V9.67Z" fill="#2c5967"/></svg>