<svg id="Layer_1" data-name="Layer 1" xmlns="http://www.w3.org/2000/svg" viewBox="0 0 41.69 42"><defs><style>.cls-1{fill:#fff;}.cls-2{fill:none;}.cls-3{fill:#2c5967;}</style></defs><title>Data Warehouse Cloud Service</title><metadata><?xpacket begin="﻿" id="W5M0MpCehiHzreSzNTczkc9d"?>
<x:xmpmeta xmlns:x="adobe:ns:meta/" x:xmptk="Adobe XMP Core 6.0-c006 79.164648, 2021/01/12-15:52:29        ">
   <rdf:RDF xmlns:rdf="http://www.w3.org/1999/02/22-rdf-syntax-ns#">
      <rdf:Description rdf:about=""
            xmlns:dc="http://purl.org/dc/elements/1.1/"
            xmlns:lr="http://ns.adobe.com/lightroom/1.0/"
            xmlns:xmp="http://ns.adobe.com/xap/1.0/"
            xmlns:xmpMM="http://ns.adobe.com/xap/1.0/mm/"
            xmlns:stEvt="http://ns.adobe.com/xap/1.0/sType/ResourceEvent#"
            xmlns:xmpRights="http://ns.adobe.com/xap/1.0/rights/">
         <dc:title>
            <rdf:Alt>
               <rdf:li xml:lang="x-default">Data Warehouse Cloud Service</rdf:li>
            </rdf:Alt>
         </dc:title>
         <dc:subject>
            <rdf:Bag>
               <rdf:li>icon</rdf:li>
               <rdf:li>Business</rdf:li>
            </rdf:Bag>
         </dc:subject>
         <dc:rights>
            <rdf:Alt>
               <rdf:li xml:lang="x-default">Oracle All Rights Reserved</rdf:li>
            </rdf:Alt>
         </dc:rights>
         <lr:hierarchicalSubject>
            <rdf:Bag>
               <rdf:li>icon</rdf:li>
               <rdf:li>Business</rdf:li>
            </rdf:Bag>
         </lr:hierarchicalSubject>
         <xmp:MetadataDate>2021-06-28T13:58:12-05:00</xmp:MetadataDate>
         <xmpMM:InstanceID>xmp.iid:491fd85e-74c9-497c-9c47-c2d27608ce06</xmpMM:InstanceID>
         <xmpMM:DocumentID>xmp.did:8e8c8620-8d6e-42c5-ad7e-c34d913d7df3</xmpMM:DocumentID>
         <xmpMM:OriginalDocumentID>xmp.did:8e8c8620-8d6e-42c5-ad7e-c34d913d7df3</xmpMM:OriginalDocumentID>
         <xmpMM:History>
            <rdf:Seq>
               <rdf:li>
                  <rdf:Description>
                     <stEvt:action>saved</stEvt:action>
                     <stEvt:instanceID>xmp.iid:8e8c8620-8d6e-42c5-ad7e-c34d913d7df3</stEvt:instanceID>
                     <stEvt:when>2021-06-18T11:42-05:00</stEvt:when>
                     <stEvt:softwareAgent>Adobe Bridge 2021 (Macintosh)</stEvt:softwareAgent>
                     <stEvt:changed>/metadata</stEvt:changed>
                  </rdf:Description>
               </rdf:li>
               <rdf:li>
                  <rdf:Description>
                     <stEvt:action>saved</stEvt:action>
                     <stEvt:instanceID>xmp.iid:491fd85e-74c9-497c-9c47-c2d27608ce06</stEvt:instanceID>
                     <stEvt:when>2021-06-28T13:58:12-05:00</stEvt:when>
                     <stEvt:softwareAgent>Adobe Bridge 2021 (Macintosh)</stEvt:softwareAgent>
                     <stEvt:changed>/metadata</stEvt:changed>
                  </rdf:Description>
               </rdf:li>
            </rdf:Seq>
         </xmpMM:History>
         <xmpRights:Marked>True</xmpRights:Marked>
      </rdf:Description>
   </rdf:RDF>
</x:xmpmeta>
                                                                                                    
                                                                                                    
                                                                                                    
                                                                                                    
                                                                                                    
                                                                                                    
                                                                                                    
                                                                                                    
                                                                                                    
                                                                                                    
                                                                                                    
                                                         
<?xpacket end="w"?></metadata>
<path class="cls-1" d="M4,41.5V39.84l2.09-1h.68V21.29H.54l.11-1.45a9.79,9.79,0,0,1,5.25-8,2.37,2.37,0,0,0,1.24-1.65,7.55,7.55,0,0,1,4.35-5.44,7.72,7.72,0,0,1,3-.63c.24,0,.47,0,.71,0h.23a2.21,2.21,0,0,0,1.66-.71,9.23,9.23,0,0,1,15,2.15A2.4,2.4,0,0,0,33.8,6.89a9.59,9.59,0,0,1,3,1.23,9.45,9.45,0,0,1,3.28,12.46l-.38.71H35V38.8h1.11l2.09,1V41.5Z"/><path class="cls-1" d="M23.88,1a8.68,8.68,0,0,1,7.81,4.83,2.9,2.9,0,0,0,2,1.55,8.92,8.92,0,0,1,5.93,13l-.24.45H34.52V39.3H36l1.71.85V41H4.52v-.85l1.7-.85H7.29V20.79H1.08l.06-.92a9.36,9.36,0,0,1,5-7.59,2.87,2.87,0,0,0,1.5-2,7,7,0,0,1,6.89-5.67q.33,0,.66,0h.28a2.75,2.75,0,0,0,2-.87A8.76,8.76,0,0,1,23.88,1m0-1a9.73,9.73,0,0,0-7.12,3.11,1.73,1.73,0,0,1-1.3.55h-.19c-.24,0-.5,0-.75,0A8,8,0,0,0,6.65,10.1a1.89,1.89,0,0,1-1,1.3A10.28,10.28,0,0,0,.15,19.8l-.07.91L0,21.79H6.29V38.3H6l-.21.1-1.71.85-.55.28V42h35.2V39.53l-.56-.28-1.7-.85-.21-.1h-.73V21.79H40l.28-.53.24-.45A9.95,9.95,0,0,0,33.9,6.4a1.93,1.93,0,0,1-1.32-1A9.67,9.67,0,0,0,23.88,0Z"/><path class="cls-2" d="M10.69,25.67h9.36V39.3h1.71V25.67h9.36V39.3h1.7V16.89A25,25,0,0,0,9,16.89V39.3h1.7ZM21.76,17.6h9.36V24H21.76Zm-11.07,0h9.36V24H10.69Z"/><rect class="cls-2" x="23.46" y="32.06" width="5.96" height="2.77"/><rect class="cls-2" x="23.46" y="27.37" width="5.96" height="2.99"/><rect class="cls-2" x="12.39" y="19.3" width="5.96" height="2.98"/><rect class="cls-2" x="23.46" y="19.3" width="5.96" height="2.98"/><rect class="cls-2" x="12.39" y="36.53" width="5.96" height="2.77"/><rect class="cls-2" x="23.46" y="36.53" width="5.96" height="2.77"/><rect class="cls-2" x="12.39" y="32.06" width="5.96" height="2.77"/><rect class="cls-2" x="12.39" y="27.37" width="5.96" height="2.99"/><path class="cls-3" d="M36.52,8.54a9,9,0,0,0-2.83-1.16,2.9,2.9,0,0,1-2-1.55,8.72,8.72,0,0,0-14.2-2,2.79,2.79,0,0,1-2.31.86,7,7,0,0,0-7.55,5.64,2.87,2.87,0,0,1-1.5,2,9.36,9.36,0,0,0-5,7.59l-.06.92H6v-1.7H3a7.63,7.63,0,0,1,4-5.3A4.56,4.56,0,0,0,9.3,10.62,5.33,5.33,0,0,1,15,6.34,4.45,4.45,0,0,0,18.74,5,7,7,0,0,1,30.17,6.59,4.59,4.59,0,0,0,33.32,9a7.39,7.39,0,0,1,2.29.94,7.27,7.27,0,0,1,2.74,9.11H35.8v1.7h3.58l.24-.45A9,9,0,0,0,36.52,8.54Z"/><path class="cls-3" d="M36,39.3H34.52V17.6h1.26l.43-.73L34.74,16h0A26.75,26.75,0,0,0,7.07,16h0l-1.47.86L6,17.6H7.29V39.3H6.22l-1.7.85V41h33.2v-.85L36,39.3ZM9,16.89a25,25,0,0,1,23.83,0V39.3h-1.7V25.67H21.76V39.3H20.05V25.67H10.69V39.3H9ZM29.42,30.36h-6v-3h6Zm-6,1.7h6v2.77h-6Zm0,4.47h6V39.3h-6Zm-5.11-6.17h-6v-3h6Zm-6,1.7h6v2.77h-6Zm0,4.47h6V39.3h-6Z"/><path class="cls-3" d="M20.05,17.6H10.69V24h9.36Zm-1.7,4.68h-6v-3h6Z"/><path class="cls-3" d="M31.12,17.6H21.76V24h9.36Zm-1.7,4.68h-6v-3h6Z"/></svg>