<svg id="Layer_1" data-name="Layer 1" xmlns="http://www.w3.org/2000/svg" viewBox="0 0 42 42"><defs><style>.cls-1{fill:#fff;}.cls-2{fill:#2c5967;}</style></defs><title>MySQL Server (Left)</title><metadata><?xpacket begin="﻿" id="W5M0MpCehiHzreSzNTczkc9d"?>
<x:xmpmeta xmlns:x="adobe:ns:meta/" x:xmptk="Adobe XMP Core 6.0-c006 79.164648, 2021/01/12-15:52:29        ">
   <rdf:RDF xmlns:rdf="http://www.w3.org/1999/02/22-rdf-syntax-ns#">
      <rdf:Description rdf:about=""
            xmlns:xmpRights="http://ns.adobe.com/xap/1.0/rights/"
            xmlns:xmp="http://ns.adobe.com/xap/1.0/"
            xmlns:xmpMM="http://ns.adobe.com/xap/1.0/mm/"
            xmlns:stEvt="http://ns.adobe.com/xap/1.0/sType/ResourceEvent#"
            xmlns:dc="http://purl.org/dc/elements/1.1/"
            xmlns:lr="http://ns.adobe.com/lightroom/1.0/">
         <xmpRights:Marked>True</xmpRights:Marked>
         <xmp:MetadataDate>2021-07-22T15:17:46-05:00</xmp:MetadataDate>
         <xmpMM:InstanceID>xmp.iid:6ac1873f-b33b-4bf6-9b8d-0dff65a2d65b</xmpMM:InstanceID>
         <xmpMM:DocumentID>xmp.did:2a07e1c9-2ff9-4d7d-ba6e-b1d7a8b1718a</xmpMM:DocumentID>
         <xmpMM:OriginalDocumentID>xmp.did:2a07e1c9-2ff9-4d7d-ba6e-b1d7a8b1718a</xmpMM:OriginalDocumentID>
         <xmpMM:History>
            <rdf:Seq>
               <rdf:li>
                  <rdf:Description>
                     <stEvt:action>saved</stEvt:action>
                     <stEvt:instanceID>xmp.iid:2a07e1c9-2ff9-4d7d-ba6e-b1d7a8b1718a</stEvt:instanceID>
                     <stEvt:when>2021-06-23T15:54:01-05:00</stEvt:when>
                     <stEvt:softwareAgent>Adobe Bridge 2021 (Macintosh)</stEvt:softwareAgent>
                     <stEvt:changed>/metadata</stEvt:changed>
                  </rdf:Description>
               </rdf:li>
               <rdf:li>
                  <rdf:Description>
                     <stEvt:action>saved</stEvt:action>
                     <stEvt:instanceID>xmp.iid:6ac1873f-b33b-4bf6-9b8d-0dff65a2d65b</stEvt:instanceID>
                     <stEvt:when>2021-07-22T15:17:46-05:00</stEvt:when>
                     <stEvt:softwareAgent>Adobe Bridge 2021 (Macintosh)</stEvt:softwareAgent>
                     <stEvt:changed>/metadata</stEvt:changed>
                  </rdf:Description>
               </rdf:li>
            </rdf:Seq>
         </xmpMM:History>
         <dc:title>
            <rdf:Alt>
               <rdf:li xml:lang="x-default">MySQL Server (Left)</rdf:li>
            </rdf:Alt>
         </dc:title>
         <dc:rights>
            <rdf:Alt>
               <rdf:li xml:lang="x-default">Oracle All Rights Reserved</rdf:li>
            </rdf:Alt>
         </dc:rights>
         <dc:subject>
            <rdf:Bag>
               <rdf:li>icon</rdf:li>
               <rdf:li>technology</rdf:li>
               <rdf:li>Hardware</rdf:li>
               <rdf:li>MySQL</rdf:li>
            </rdf:Bag>
         </dc:subject>
         <lr:hierarchicalSubject>
            <rdf:Bag>
               <rdf:li>icon</rdf:li>
               <rdf:li>technology</rdf:li>
               <rdf:li>Hardware</rdf:li>
               <rdf:li>MySQL</rdf:li>
            </rdf:Bag>
         </lr:hierarchicalSubject>
      </rdf:Description>
   </rdf:RDF>
</x:xmpmeta>
                                                                                                    
                                                                                                    
                                                                                                    
                                                                                                    
                                                                                                    
                                                                                                    
                                                                                                    
                                                                                   
<?xpacket end="w"?></metadata>
<polygon class="cls-1" points="0.5 41.5 0.5 39.84 2.59 38.8 3.06 38.8 3.06 0.5 23.63 0.5 23.63 25.39 41.5 25.39 41.5 41.5 0.5 41.5"/><path class="cls-1" d="M23.13,1V25.89H41V41H1v-.85l1.71-.85h.85V1H23.13m1-1H2.56V38.3H2.47l-.21.1-1.71.85L0,39.53V42H42V24.89H24.13V0Z"/><polygon class="cls-2" points="5.26 24.62 5.26 2.7 21.43 2.7 21.43 24.62 23.13 24.62 23.13 1 3.56 1 3.56 39.3 2.71 39.3 1 40.15 1 41 2.71 41 2.71 41 3.56 41 5.26 41 5.26 39.3 5.26 24.62"/><path class="cls-2" d="M18.45,8.23H8.24V9.94H6.54v1.7h1.7v1.7H18.45v-1.7h1.7V9.94h-1.7Zm-1.7,3.41H9.94V9.94h6.81Z"/><rect class="cls-2" x="6.54" y="5.26" width="13.62" height="1.7"/><rect class="cls-2" x="6.54" y="14.62" width="13.62" height="1.7"/><path class="cls-2" d="M6.54,23.55H20.15V17.6H6.54Zm1.7-4.25H18.45v2.55H8.24Z"/><path class="cls-2" d="M6.54,25.89V41H41V25.89ZM39.3,39.3H8.24V27.6H39.3Z"/><polygon class="cls-2" points="16.78 30.8 15.5 30.8 13.7 34.57 11.88 30.8 10.6 30.8 10.6 36.52 11.79 36.52 11.79 32.86 13.3 35.97 14.06 35.97 15.57 32.81 15.57 36.52 16.78 36.52 16.78 30.8"/><path class="cls-2" d="M19.5,37.93a2,2,0,0,0,.71-.66,3.62,3.62,0,0,0,.46-1.08l1-3.83H20.53l-.81,3.32-1.07-3.32H17.43l1.39,4.07h.62a1,1,0,0,1-.37.54,2.67,2.67,0,0,1-.87.33l.24,1A3.38,3.38,0,0,0,19.5,37.93Z"/><path class="cls-2" d="M23.35,36.59a5.69,5.69,0,0,0,.7,0,2.47,2.47,0,0,0,1.61-.46,1.57,1.57,0,0,0,.58-1.27,1.54,1.54,0,0,0-.33-1,2.51,2.51,0,0,0-1.09-.65l-.6-.2a3.27,3.27,0,0,1-.7-.31.43.43,0,0,1-.18-.36c0-.38.32-.57,1-.57a3.69,3.69,0,0,1,.78.08,4,4,0,0,1,.81.24V31a4,4,0,0,0-.73-.22,4.91,4.91,0,0,0-.86-.08,3,3,0,0,0-1.18.21,1.69,1.69,0,0,0-.76.59,1.5,1.5,0,0,0-.28.92,1.53,1.53,0,0,0,.34,1,2.33,2.33,0,0,0,1.07.65l.59.21a2.24,2.24,0,0,1,.7.31.39.39,0,0,1,.19.34.52.52,0,0,1-.29.46,1.56,1.56,0,0,1-.78.16,4.92,4.92,0,0,1-1.74-.34v1.1a3,3,0,0,0,.5.16A4.6,4.6,0,0,0,23.35,36.59Z"/><path class="cls-2" d="M31.78,35.45a3.39,3.39,0,0,0,.41-1.79,3.15,3.15,0,0,0-.7-2.19,2.5,2.5,0,0,0-2-.78,2.53,2.53,0,0,0-2,.78,3.15,3.15,0,0,0-.7,2.19,3.4,3.4,0,0,0,.54,2,2.24,2.24,0,0,0,1.54.92l-.1.52,3.43.49.14-.71-1.84-.46A2.28,2.28,0,0,0,31.78,35.45Zm-1.2-.23a1.37,1.37,0,0,1-2.13,0,2.79,2.79,0,0,1-.35-1.56,2.45,2.45,0,0,1,.35-1.43,1.38,1.38,0,0,1,2.13,0,2.37,2.37,0,0,1,.36,1.43A2.7,2.7,0,0,1,30.58,35.22Z"/><polygon class="cls-2" points="34.34 30.8 33.12 30.8 33.12 36.52 36.86 36.52 36.86 35.43 34.34 35.43 34.34 30.8"/></svg>