<svg id="Layer_1" data-name="Layer 1" xmlns="http://www.w3.org/2000/svg" viewBox="0 0 46.11 41.94"><title>Other - Exadata Database Server</title><metadata><?xpacket begin="﻿" id="W5M0MpCehiHzreSzNTczkc9d"?>
<x:xmpmeta xmlns:x="adobe:ns:meta/" x:xmptk="Adobe XMP Core 6.0-c006 79.164648, 2021/01/12-15:52:29        ">
   <rdf:RDF xmlns:rdf="http://www.w3.org/1999/02/22-rdf-syntax-ns#">
      <rdf:Description rdf:about=""
            xmlns:dc="http://purl.org/dc/elements/1.1/"
            xmlns:lr="http://ns.adobe.com/lightroom/1.0/"
            xmlns:xmp="http://ns.adobe.com/xap/1.0/"
            xmlns:xmpMM="http://ns.adobe.com/xap/1.0/mm/"
            xmlns:stEvt="http://ns.adobe.com/xap/1.0/sType/ResourceEvent#"
            xmlns:xmpRights="http://ns.adobe.com/xap/1.0/rights/">
         <dc:title>
            <rdf:Alt>
               <rdf:li xml:lang="x-default">Other - Exadata Database Server</rdf:li>
            </rdf:Alt>
         </dc:title>
         <dc:subject>
            <rdf:Bag>
               <rdf:li>icon</rdf:li>
               <rdf:li>technology</rdf:li>
               <rdf:li>cloud</rdf:li>
               <rdf:li>data</rdf:li>
            </rdf:Bag>
         </dc:subject>
         <dc:rights>
            <rdf:Alt>
               <rdf:li xml:lang="x-default">Oracle All Rights Reserved</rdf:li>
            </rdf:Alt>
         </dc:rights>
         <lr:hierarchicalSubject>
            <rdf:Bag>
               <rdf:li>icon</rdf:li>
               <rdf:li>technology</rdf:li>
               <rdf:li>cloud</rdf:li>
               <rdf:li>data</rdf:li>
            </rdf:Bag>
         </lr:hierarchicalSubject>
         <xmp:MetadataDate>2021-11-23T13:28:03-06:00</xmp:MetadataDate>
         <xmpMM:InstanceID>xmp.iid:47d98094-0f0c-4352-a4cc-404836eaaa87</xmpMM:InstanceID>
         <xmpMM:DocumentID>xmp.did:66e65aff-44e8-094c-87ba-19791897caf5</xmpMM:DocumentID>
         <xmpMM:OriginalDocumentID>xmp.did:66e65aff-44e8-094c-87ba-19791897caf5</xmpMM:OriginalDocumentID>
         <xmpMM:History>
            <rdf:Seq>
               <rdf:li>
                  <rdf:Description>
                     <stEvt:action>saved</stEvt:action>
                     <stEvt:instanceID>xmp.iid:66e65aff-44e8-094c-87ba-19791897caf5</stEvt:instanceID>
                     <stEvt:when>2021-11-22T15:44:48-06:00</stEvt:when>
                     <stEvt:softwareAgent>Adobe Bridge 2020 (Windows)</stEvt:softwareAgent>
                     <stEvt:changed>/metadata</stEvt:changed>
                  </rdf:Description>
               </rdf:li>
               <rdf:li>
                  <rdf:Description>
                     <stEvt:action>saved</stEvt:action>
                     <stEvt:instanceID>xmp.iid:47d98094-0f0c-4352-a4cc-404836eaaa87</stEvt:instanceID>
                     <stEvt:when>2021-11-23T13:28:03-06:00</stEvt:when>
                     <stEvt:softwareAgent>Adobe Bridge 2021 (Macintosh)</stEvt:softwareAgent>
                     <stEvt:changed>/metadata</stEvt:changed>
                  </rdf:Description>
               </rdf:li>
            </rdf:Seq>
         </xmpMM:History>
         <xmpRights:Marked>True</xmpRights:Marked>
      </rdf:Description>
   </rdf:RDF>
</x:xmpmeta>
                                                                                                    
                                                                                                    
                                                                                                    
                                                                                                    
                                                                                                    
                                                                                                    
                                                                                                    
                                                                                                    
                                                                                                    
                                                                                                    
       
<?xpacket end="w"?></metadata>
<path d="M.5,41.44v-1.6l2.09-1h.47V.5H23.63V15.36a17.8,17.8,0,0,1,3.43-.86l.49-.07A42.22,42.22,0,0,1,33.29,14c2.06,0,12.32.2,12.32,4.06V37.46c0,3.78-10.26,4-12.32,4Z" fill="#fff"/><path d="M23.13,1V16.13a14.62,14.62,0,0,1,4-1.13l.49-.08a41.35,41.35,0,0,1,5.66-.38c4.39,0,11.82.75,11.82,3.56V37.46c0,2.74-7.43,3.48-11.82,3.48H1v-.79l1.71-.85h.85V1H23.13m1-1H2.56V38.3H2.47l-.21.1-1.71.85L0,39.53v2.41H33.29c3,0,12.82-.33,12.82-4.48V18.1c0-4.23-9.81-4.56-12.82-4.56a41.93,41.93,0,0,0-5.81.4L27,14a20.92,20.92,0,0,0-2.85.65V0Z" fill="#fff"/><path d="M18.45,8.23H8.24V9.94H6.54v1.7h1.7v1.7H18.45v-1.7h1.7V9.94h-1.7Zm-1.7,3.41H9.94V9.94h6.81Z" fill="#2c5967"/><rect x="6.54" y="5.26" width="13.62" height="1.7" fill="#2c5967"/><rect x="6.54" y="14.62" width="13.62" height="1.7" fill="#2c5967"/><path d="M6.54,23.55H20.15V17.6H6.54Zm1.7-4.25H18.45v2.55H8.24Z" fill="#2c5967"/><rect x="6.54" y="35.04" width="13.62" height="1.7" fill="#2c5967"/><rect x="6.54" y="32.06" width="13.62" height="1.7" fill="#2c5967"/><path d="M6.54,30.79H20.15v-6H6.54Zm1.7-4.26H18.45v2.56H8.24Z" fill="#2c5967"/><path d="M20.87,39.3H5.26V2.7H21.43v13a6.79,6.79,0,0,1,1.7-1V1H3.56V39.3H2.71L1,40.15V41H23.67A6.36,6.36,0,0,1,20.87,39.3Z" fill="#2c5967"/><path d="M21.48,18.1V37.46c0,2.74,7.42,3.48,11.81,3.48s11.82-.74,11.82-3.48V18.1c0-2.81-7.43-3.56-11.82-3.56a41.35,41.35,0,0,0-5.66.38l-.49.08C24.09,15.49,21.48,16.43,21.48,18.1ZM33.29,39.23c-6.07,0-9.72-1.15-10.11-1.81v-11c2.45,1.16,7,1.52,10.11,1.52s7.67-.36,10.12-1.52v11C43,38.08,39.37,39.23,33.29,39.23ZM43.39,18.1c-.43.69-4,1.86-10.1,1.86s-9.66-1.17-10.1-1.86c.44-.69,4-1.86,10.1-1.86S43,17.41,43.39,18.1Zm0,6.36c-.39.67-4,1.82-10.12,1.82s-9.72-1.15-10.11-1.82V20.1c2.45,1.19,7,1.56,10.11,1.56S41,21.29,43.41,20.1Z" fill="#2c5967"/><polygon points="36.48 30.51 34.45 30.51 33.33 32.53 32.16 30.51 30.12 30.51 32.02 33.68 30.01 37.16 32.13 37.16 33.3 34.95 34.54 37.16 36.57 37.16 34.56 33.72 36.48 30.51" fill="#2c5967"/></svg>