<svg id="Layer_1" data-name="Layer 1" xmlns="http://www.w3.org/2000/svg" viewBox="0 0 42 21.5"><defs><style>.cls-1{fill:#fff;}.cls-2{fill:#2c5967;}</style></defs><title>Database-Server</title><metadata><?xpacket begin="﻿" id="W5M0MpCehiHzreSzNTczkc9d"?>
<x:xmpmeta xmlns:x="adobe:ns:meta/" x:xmptk="Adobe XMP Core 6.0-c006 79.164648, 2021/01/12-15:52:29        ">
   <rdf:RDF xmlns:rdf="http://www.w3.org/1999/02/22-rdf-syntax-ns#">
      <rdf:Description rdf:about=""
            xmlns:dc="http://purl.org/dc/elements/1.1/"
            xmlns:lr="http://ns.adobe.com/lightroom/1.0/"
            xmlns:xmp="http://ns.adobe.com/xap/1.0/"
            xmlns:xmpMM="http://ns.adobe.com/xap/1.0/mm/"
            xmlns:stEvt="http://ns.adobe.com/xap/1.0/sType/ResourceEvent#">
         <dc:title>
            <rdf:Alt>
               <rdf:li xml:lang="x-default">Database-Server</rdf:li>
            </rdf:Alt>
         </dc:title>
         <dc:subject>
            <rdf:Bag>
               <rdf:li>icon</rdf:li>
               <rdf:li>Hardware</rdf:li>
               <rdf:li>Data</rdf:li>
            </rdf:Bag>
         </dc:subject>
         <lr:hierarchicalSubject>
            <rdf:Bag>
               <rdf:li>icon</rdf:li>
               <rdf:li>Hardware</rdf:li>
               <rdf:li>Data</rdf:li>
            </rdf:Bag>
         </lr:hierarchicalSubject>
         <xmp:MetadataDate>2021-07-16T14:26:09-05:00</xmp:MetadataDate>
         <xmpMM:InstanceID>xmp.iid:32f052af-2016-4b09-af1f-f28f18a1b869</xmpMM:InstanceID>
         <xmpMM:DocumentID>xmp.did:8e3b4ee9-5bcc-4bea-8ccd-61edf038840f</xmpMM:DocumentID>
         <xmpMM:OriginalDocumentID>xmp.did:8e3b4ee9-5bcc-4bea-8ccd-61edf038840f</xmpMM:OriginalDocumentID>
         <xmpMM:History>
            <rdf:Seq>
               <rdf:li>
                  <rdf:Description>
                     <stEvt:action>saved</stEvt:action>
                     <stEvt:instanceID>xmp.iid:8e3b4ee9-5bcc-4bea-8ccd-61edf038840f</stEvt:instanceID>
                     <stEvt:when>2021-07-16T14:19:58-05:00</stEvt:when>
                     <stEvt:softwareAgent>Adobe Bridge 2021 (Macintosh)</stEvt:softwareAgent>
                     <stEvt:changed>/metadata</stEvt:changed>
                  </rdf:Description>
               </rdf:li>
               <rdf:li>
                  <rdf:Description>
                     <stEvt:action>saved</stEvt:action>
                     <stEvt:instanceID>xmp.iid:32f052af-2016-4b09-af1f-f28f18a1b869</stEvt:instanceID>
                     <stEvt:when>2021-07-16T14:26:09-05:00</stEvt:when>
                     <stEvt:softwareAgent>Adobe Bridge 2021 (Macintosh)</stEvt:softwareAgent>
                     <stEvt:changed>/metadata</stEvt:changed>
                  </rdf:Description>
               </rdf:li>
            </rdf:Seq>
         </xmpMM:History>
      </rdf:Description>
   </rdf:RDF>
</x:xmpmeta>
                                                                                                    
                                                                                                    
                                                                                                    
                                                                                                    
                                                                                                    
                                                                                                    
                                                                                                    
                                                                                                    
                                                                                                    
                                                                                                    
                                                                                                    
                                                                                                    
                                                                                                    
                                                                     
<?xpacket end="w"?></metadata>
<path class="cls-1" d="M.5,21V4.8H28.63a2,2,0,0,1,1.62-1.63V.5h7V3.17A2,2,0,0,1,38.83,4.8H41.5v7h-.33V21Z"/><path class="cls-1" d="M36.7,1V3.64h.17a1.49,1.49,0,0,1,1.49,1.49V5.3H41V6.62h-.33v1H41V8.93h-.33v1H41v1.32h-.33V20.5H1V5.3H29.1V5.13a1.49,1.49,0,0,1,1.49-1.49h.16V1h1.32V3.64h1V1h1.32V3.64h1V1H36.7m1-1h-8V2.79A2.51,2.51,0,0,0,28.24,4.3H0V21.5H41.67V12.25H42V4.3H39.21A2.51,2.51,0,0,0,37.7,2.79V0Z"/><polygon class="cls-2" points="39.35 19.18 2.32 19.18 2.32 6.62 25.46 6.62 25.46 5.3 1 5.3 1 20.5 40.67 20.5 40.67 12.24 39.35 12.24 39.35 19.18"/><path class="cls-2" d="M3.31,18.19H9.26V7.61H3.31ZM4.64,8.93h3.3v7.94H4.64Z"/><path class="cls-2" d="M10.26,12.4h7.1V7.61h-7.1Zm1.32-3.47H16v2.15H11.58Z"/><path class="cls-2" d="M10.26,18.19h7.1V13.4h-7.1Zm1.32-3.47H16v2.15H11.58Z"/><path class="cls-2" d="M18.36,12.4h7.1V7.61h-7.1Zm1.32-3.47h4.46v2.15H19.68Z"/><path class="cls-2" d="M18.36,18.19h7.1V13.4h-7.1Zm1.32-3.47h4.46v2.15H19.68Z"/><circle class="cls-2" cx="6.29" cy="10.59" r="0.66"/><circle class="cls-2" cx="6.29" cy="15.21" r="0.66"/><circle class="cls-2" cx="6.29" cy="12.9" r="0.66"/><path class="cls-2" d="M30.59,12.9h6.28a1.49,1.49,0,0,0,1.49-1.49V5.13a1.49,1.49,0,0,0-1.49-1.49H30.59A1.49,1.49,0,0,0,29.1,5.13v6.28A1.49,1.49,0,0,0,30.59,12.9Zm0-7.93h6.28a.16.16,0,0,1,.16.16v6.28a.17.17,0,0,1-.16.17H30.59a.18.18,0,0,1-.17-.17V5.13A.17.17,0,0,1,30.59,5Z"/><rect class="cls-2" x="30.75" y="1" width="1.32" height="1.65"/><rect class="cls-2" x="33.07" y="1" width="1.32" height="1.65"/><rect class="cls-2" x="35.38" y="1" width="1.32" height="1.65"/><rect class="cls-2" x="30.75" y="13.89" width="1.32" height="1.65"/><rect class="cls-2" x="33.07" y="13.89" width="1.32" height="1.65"/><rect class="cls-2" x="35.38" y="13.89" width="1.32" height="1.65"/><rect class="cls-2" x="26.45" y="9.93" width="1.65" height="1.32"/><rect class="cls-2" x="26.45" y="7.61" width="1.65" height="1.32"/><rect class="cls-2" x="26.45" y="5.3" width="1.65" height="1.32"/><rect class="cls-2" x="39.35" y="9.93" width="1.65" height="1.32"/><rect class="cls-2" x="39.35" y="7.61" width="1.65" height="1.32"/><polygon class="cls-2" points="39.35 5.3 39.35 6.62 41 6.62 41 5.3 40.67 5.3 39.35 5.3"/></svg>