<svg id="Layer_1" data-name="Layer 1" xmlns="http://www.w3.org/2000/svg" viewBox="0 0 46.93 42"><title>Data-Foundation-Cloud Service</title><metadata><?xpacket begin="﻿" id="W5M0MpCehiHzreSzNTczkc9d"?>
<x:xmpmeta xmlns:x="adobe:ns:meta/" x:xmptk="Adobe XMP Core 6.0-c006 79.164648, 2021/01/12-15:52:29        ">
   <rdf:RDF xmlns:rdf="http://www.w3.org/1999/02/22-rdf-syntax-ns#">
      <rdf:Description rdf:about=""
            xmlns:xmp="http://ns.adobe.com/xap/1.0/"
            xmlns:xmpMM="http://ns.adobe.com/xap/1.0/mm/"
            xmlns:stEvt="http://ns.adobe.com/xap/1.0/sType/ResourceEvent#"
            xmlns:dc="http://purl.org/dc/elements/1.1/"
            xmlns:lr="http://ns.adobe.com/lightroom/1.0/"
            xmlns:xmpRights="http://ns.adobe.com/xap/1.0/rights/">
         <xmp:MetadataDate>2022-01-29T10:37:57-06:00</xmp:MetadataDate>
         <xmpMM:InstanceID>xmp.iid:9b9d3f2e-9efb-4255-9680-05d1be61537b</xmpMM:InstanceID>
         <xmpMM:DocumentID>xmp.did:d7ffea42-8971-be4c-ad0c-bc1158934a78</xmpMM:DocumentID>
         <xmpMM:OriginalDocumentID>xmp.did:d7ffea42-8971-be4c-ad0c-bc1158934a78</xmpMM:OriginalDocumentID>
         <xmpMM:History>
            <rdf:Seq>
               <rdf:li>
                  <rdf:Description>
                     <stEvt:action>saved</stEvt:action>
                     <stEvt:instanceID>xmp.iid:d7ffea42-8971-be4c-ad0c-bc1158934a78</stEvt:instanceID>
                     <stEvt:when>2022-01-28T12:19:42-06:00</stEvt:when>
                     <stEvt:softwareAgent>Adobe Bridge 2020 (Windows)</stEvt:softwareAgent>
                     <stEvt:changed>/metadata</stEvt:changed>
                  </rdf:Description>
               </rdf:li>
               <rdf:li>
                  <rdf:Description>
                     <stEvt:action>saved</stEvt:action>
                     <stEvt:instanceID>xmp.iid:9b9d3f2e-9efb-4255-9680-05d1be61537b</stEvt:instanceID>
                     <stEvt:when>2022-01-29T10:37:57-06:00</stEvt:when>
                     <stEvt:softwareAgent>Adobe Bridge 2021 (Macintosh)</stEvt:softwareAgent>
                     <stEvt:changed>/metadata</stEvt:changed>
                  </rdf:Description>
               </rdf:li>
            </rdf:Seq>
         </xmpMM:History>
         <dc:title>
            <rdf:Alt>
               <rdf:li xml:lang="x-default">Data-Foundation-Cloud Service</rdf:li>
            </rdf:Alt>
         </dc:title>
         <dc:subject>
            <rdf:Bag>
               <rdf:li>Cloud</rdf:li>
               <rdf:li>service</rdf:li>
               <rdf:li>gear</rdf:li>
               <rdf:li>database</rdf:li>
               <rdf:li>icon</rdf:li>
            </rdf:Bag>
         </dc:subject>
         <dc:rights>
            <rdf:Alt>
               <rdf:li xml:lang="x-default">Oracle All Rights Reserved</rdf:li>
            </rdf:Alt>
         </dc:rights>
         <lr:hierarchicalSubject>
            <rdf:Bag>
               <rdf:li>icon</rdf:li>
            </rdf:Bag>
         </lr:hierarchicalSubject>
         <xmpRights:Marked>True</xmpRights:Marked>
      </rdf:Description>
   </rdf:RDF>
</x:xmpmeta>
                                                                                                    
                                                                                                    
                                                                                                    
                                                                                                    
                                                                                                    
                                                                                                    
                                                                                                    
                                                                                                    
                                                                                                    
                                                                                                  
<?xpacket end="w"?></metadata>
<path d="M23.18,41.5a43.46,43.46,0,0,1-5.44-.36l-1-.13,0,0c-3.49-.63-5.26-1.78-5.26-3.42l-.07-5.91a.38.38,0,0,1,0-.12V23.91H.54l.11-1.58a11.05,11.05,0,0,1,5.92-9A2.75,2.75,0,0,0,8,11.42a8.43,8.43,0,0,1,8.3-6.82l.78,0,.28,0a2.58,2.58,0,0,0,1.92-.83,10.39,10.39,0,0,1,16.9,2.42,2.81,2.81,0,0,0,1.92,1.5,10.61,10.61,0,0,1,7.06,15.4l-.42.77H34.89v1.17h1.35l.23,2a3.93,3.93,0,0,1,.43.18L38.46,26l3,3-1.25,1.56a3.93,3.93,0,0,1,.18.43l2,.23v4.2l-2,.22a3.93,3.93,0,0,1-.18.43l1.25,1.56-3,3L36.9,39.32a3.93,3.93,0,0,1-.43.18l-.23,2H32l-.12-1.13a15.67,15.67,0,0,1-2.37.6l0,0-.95.15a43.2,43.2,0,0,1-5.36.36Z" fill="#fff"/><path d="M26.9,1a9.83,9.83,0,0,1,8.84,5.47A3.33,3.33,0,0,0,38,8.23,10.11,10.11,0,0,1,44.73,22.9l-.28.51H34.39v2.17H35.8l.2,1.86a5.46,5.46,0,0,1,1,.39l1.46-1.17L40.77,29,39.6,30.46a5.46,5.46,0,0,1,.39,1l1.86.2v3.31L40,35.15a5.68,5.68,0,0,1-.39,1l1.17,1.46-2.34,2.34L37,38.74a6.37,6.37,0,0,1-1,.4L35.8,41H32.49l-.15-1.32a16.25,16.25,0,0,1-3.8,1h0a41.46,41.46,0,0,1-5.3.36h-.15a41.46,41.46,0,0,1-5.3-.36h0c-2.86-.42-5.77-1.28-5.77-3.08L12,31.64a.49.49,0,0,1,0-.12V23.41H1.08l.07-1A10.56,10.56,0,0,1,6.8,13.78a3.26,3.26,0,0,0,1.7-2.26A7.94,7.94,0,0,1,16.31,5.1c.24,0,.49,0,.73,0l.33,0a3.12,3.12,0,0,0,2.29-1A9.89,9.89,0,0,1,26.9,1m0-1a10.91,10.91,0,0,0-8,3.48,2.12,2.12,0,0,1-1.56.67l-.23,0-.83,0a9.12,9.12,0,0,0-3.61.75,9,9,0,0,0-5.18,6.48,2.27,2.27,0,0,1-1.19,1.56A11.51,11.51,0,0,0,.16,22.3l-.08,1L0,24.41H11v7.11a.92.92,0,0,0,0,.16l.07,5.88c0,2.26,2.64,3.25,4.71,3.72l-.06.06,2,.29a43.3,43.3,0,0,0,5.44.37h.15a43.07,43.07,0,0,0,5.43-.37l2-.27-.1-.09c.32-.08.62-.15.91-.24v.08l.1.89h5.09l.1-.89L36.92,40l.88.71.7.56.63-.64,2.34-2.34.64-.63-.56-.7-.71-.88L42,35.93l.89-.1V30.74l-.89-.1-1.12-.13.71-.88.56-.7-.64-.63L39.13,26l-.63-.64-.7.56-.88.71-.13-1.13-.1-.88h-1.3v-.17h9.66l.28-.53.28-.5A11.15,11.15,0,0,0,41.74,8.7a10.84,10.84,0,0,0-3.52-1.45A2.32,2.32,0,0,1,36.64,6,10.84,10.84,0,0,0,26.9,0Z" fill="#fff"/><path d="M41.21,9.54A10.41,10.41,0,0,0,38,8.22a3.27,3.27,0,0,1-2.27-1.75A9.88,9.88,0,0,0,19.66,4.16a3.12,3.12,0,0,1-2.62,1A8,8,0,0,0,8.5,11.52a3.26,3.26,0,0,1-1.7,2.26,10.56,10.56,0,0,0-5.65,8.59l-.07,1h9.45V21.48H3.21a8.65,8.65,0,0,1,4.48-6,5.17,5.17,0,0,0,2.7-3.59,6,6,0,0,1,6.47-4.84,5,5,0,0,0,4.21-1.58A8,8,0,0,1,34,7.33a5.25,5.25,0,0,0,3.57,2.78,8.14,8.14,0,0,1,2.59,1.06,8.22,8.22,0,0,1,3.1,10.31H35.83v1.93h8.62l.28-.51A10.15,10.15,0,0,0,41.21,9.54Z" fill="#2c5967"/><path d="M26.82,38.91c-1.06.1-2.25.16-3.56.16-5.38,0-8.78-1-9.28-1.61l0-3.82c3,1.28,8.42,1.33,9.24,1.33.25,0,.92,0,1.81,0V33c-.58,0-1.18,0-1.81,0-5.37,0-8.77-1-9.27-1.61v-4c3,1.29,8.45,1.34,9.27,1.34.32,0,1.34,0,2.63-.09L26.5,28l1.44-1.44a35.75,35.75,0,0,1-4.76.3c-5.37,0-8.77-1-9.27-1.62v-4c3,1.28,8.45,1.33,9.27,1.33s6.3-.05,9.28-1.33v2.91h1.93V19.25s0,0,0,0,0-.06,0-.09c0-3.33-10.06-3.42-11.21-3.42S12,15.79,12,19.12v12.4a.49.49,0,0,0,0,.12l.07,5.91c0,3.35,10,3.45,11.2,3.45a41.46,41.46,0,0,0,5.3-.36Zm5.53-19.79c-.74.58-3.87,1.5-9.17,1.5s-8.42-.92-9.16-1.5c.74-.58,3.87-1.5,9.16-1.5S31.61,18.54,32.35,19.12Z" fill="#2c5967"/><path d="M39.6,30.46,40.77,29l-2.34-2.34L37,27.83a6.37,6.37,0,0,0-1-.4l-.2-1.85H32.49l-.21,1.85a6.71,6.71,0,0,0-1,.4l-1.46-1.17L27.52,29l1.17,1.46a6.37,6.37,0,0,0-.4,1l-1.86.2v3.31l1.86.21a6.71,6.71,0,0,0,.4,1l-1.17,1.46,2.34,2.34,1.46-1.17a6.71,6.71,0,0,0,1,.4L32.49,41H35.8l.2-1.86a6.37,6.37,0,0,0,1-.4l1.46,1.17,2.34-2.34L39.6,36.11a5.68,5.68,0,0,0,.39-1l1.86-.21V31.63L40,31.43A5.46,5.46,0,0,0,39.6,30.46ZM30,33.29a4.14,4.14,0,1,1,4.14,4.13A4.14,4.14,0,0,1,30,33.29Z" fill="#2c5967"/></svg>