<svg id="art" xmlns="http://www.w3.org/2000/svg" viewBox="0 0 44.37 40.64"><title>Other - Services - IoT Cloud Service</title><metadata><?xpacket begin="﻿" id="W5M0MpCehiHzreSzNTczkc9d"?>
<x:xmpmeta xmlns:x="adobe:ns:meta/" x:xmptk="Adobe XMP Core 6.0-c006 79.164648, 2021/01/12-15:52:29        ">
   <rdf:RDF xmlns:rdf="http://www.w3.org/1999/02/22-rdf-syntax-ns#">
      <rdf:Description rdf:about=""
            xmlns:dc="http://purl.org/dc/elements/1.1/"
            xmlns:lr="http://ns.adobe.com/lightroom/1.0/"
            xmlns:xmp="http://ns.adobe.com/xap/1.0/"
            xmlns:xmpMM="http://ns.adobe.com/xap/1.0/mm/"
            xmlns:stEvt="http://ns.adobe.com/xap/1.0/sType/ResourceEvent#"
            xmlns:xmpRights="http://ns.adobe.com/xap/1.0/rights/">
         <dc:title>
            <rdf:Alt>
               <rdf:li xml:lang="x-default">Other - Services - IoT Cloud Service</rdf:li>
            </rdf:Alt>
         </dc:title>
         <dc:subject>
            <rdf:Bag>
               <rdf:li>icon</rdf:li>
               <rdf:li>internet of things</rdf:li>
            </rdf:Bag>
         </dc:subject>
         <dc:rights>
            <rdf:Alt>
               <rdf:li xml:lang="x-default">Oracle All Rights Reserved</rdf:li>
            </rdf:Alt>
         </dc:rights>
         <lr:hierarchicalSubject>
            <rdf:Bag>
               <rdf:li>icon</rdf:li>
               <rdf:li>internet of things</rdf:li>
            </rdf:Bag>
         </lr:hierarchicalSubject>
         <xmp:MetadataDate>2021-11-23T13:28:06-06:00</xmp:MetadataDate>
         <xmpMM:InstanceID>xmp.iid:d5742d32-7ac9-4c6d-b097-80726eff4cdc</xmpMM:InstanceID>
         <xmpMM:DocumentID>xmp.did:a8efe72b-b544-7b49-aeb8-3e017e900a14</xmpMM:DocumentID>
         <xmpMM:OriginalDocumentID>xmp.did:a8efe72b-b544-7b49-aeb8-3e017e900a14</xmpMM:OriginalDocumentID>
         <xmpMM:History>
            <rdf:Seq>
               <rdf:li>
                  <rdf:Description>
                     <stEvt:action>saved</stEvt:action>
                     <stEvt:instanceID>xmp.iid:a8efe72b-b544-7b49-aeb8-3e017e900a14</stEvt:instanceID>
                     <stEvt:when>2021-11-22T15:45:01-06:00</stEvt:when>
                     <stEvt:softwareAgent>Adobe Bridge 2020 (Windows)</stEvt:softwareAgent>
                     <stEvt:changed>/metadata</stEvt:changed>
                  </rdf:Description>
               </rdf:li>
               <rdf:li>
                  <rdf:Description>
                     <stEvt:action>saved</stEvt:action>
                     <stEvt:instanceID>xmp.iid:d5742d32-7ac9-4c6d-b097-80726eff4cdc</stEvt:instanceID>
                     <stEvt:when>2021-11-23T13:28:06-06:00</stEvt:when>
                     <stEvt:softwareAgent>Adobe Bridge 2021 (Macintosh)</stEvt:softwareAgent>
                     <stEvt:changed>/metadata</stEvt:changed>
                  </rdf:Description>
               </rdf:li>
            </rdf:Seq>
         </xmpMM:History>
         <xmpRights:Marked>True</xmpRights:Marked>
      </rdf:Description>
   </rdf:RDF>
</x:xmpmeta>
                                                                                                    
                                                                                                    
                                                                                                    
                                                                                                    
                                                                                                    
                                                                                                    
                                                                                                    
                                                                                                    
                                                                                                    
                                                                                                    
                                                                                                    
                                        
<?xpacket end="w"?></metadata>
<path d="M28,40.14a3,3,0,0,1-2.89-3.93L11.94,23a3,3,0,0,1-.89.14,3.07,3.07,0,0,1-1.69-.53H.54l.11-1.51a10.44,10.44,0,0,1,5.59-8.51,2.58,2.58,0,0,0,1.34-1.79A8,8,0,0,1,12.22,5a8.09,8.09,0,0,1,3.22-.68,6.12,6.12,0,0,1,.74,0h.26a2.43,2.43,0,0,0,1.8-.77,9.81,9.81,0,0,1,16,2.29A2.67,2.67,0,0,0,36,7.33a9.44,9.44,0,0,1,1.64.51c.27.11.53.23.79.36l.75.43a10.07,10.07,0,0,1,3.49,13.26l-.4.74h-9L30,34.81l.16.15A3,3,0,0,1,28,40.14Z" fill="#fff"/><path d="M25.43,1a9.28,9.28,0,0,1,8.34,5.16A3.11,3.11,0,0,0,35.9,7.81a10.11,10.11,0,0,1,1.56.49c.26.11.5.22.75.35a7.24,7.24,0,0,1,.71.41,9.56,9.56,0,0,1,3.32,12.59l-.26.48H32.9L29.44,35a3.57,3.57,0,0,1,.38.3,2.54,2.54,0,1,1-4.1.78L12.07,22.44a2.56,2.56,0,0,1-1,.22,2.49,2.49,0,0,1-1.53-.53H1.08l.07-1a10,10,0,0,1,5.32-8.1,3.09,3.09,0,0,0,1.61-2.13,7.52,7.52,0,0,1,7.36-6.06,5.58,5.58,0,0,1,.7,0h.3A2.91,2.91,0,0,0,18.6,4a9.37,9.37,0,0,1,6.83-3m0-1a10.34,10.34,0,0,0-7.56,3.3,1.94,1.94,0,0,1-1.43.61h-.21c-.26,0-.53,0-.79,0a8.5,8.5,0,0,0-8.35,6.87A2.06,2.06,0,0,1,6,12.16,10.93,10.93,0,0,0,.15,21.08l-.07,1L0,23.13H9.21a3.57,3.57,0,0,0,1.84.53,3.65,3.65,0,0,0,.74-.08L24.58,36.37a3.53,3.53,0,1,0,6-1.72l3.1-11.52h8.91l.28-.52.26-.48A10.57,10.57,0,0,0,39.46,8.21c-.26-.16-.53-.31-.79-.45a8.84,8.84,0,0,0-.83-.38,10.4,10.4,0,0,0-1.72-.54,2.15,2.15,0,0,1-1.46-1.13A10.27,10.27,0,0,0,25.43,0Z" fill="#fff"/><path d="M28,36.39a.72.72,0,0,0-.51,1.22.71.71,0,1,0,1-1A.69.69,0,0,0,28,36.39Z" fill="none"/><path d="M24.83,22.51a.72.72,0,1,0,.5.21A.71.71,0,0,0,24.83,22.51Z" fill="none"/><path d="M11.05,19.41a.7.7,0,0,0-.5.21.71.71,0,1,0,.5-.21Z" fill="none"/><path d="M34.22,13.11a.7.7,0,0,0-.5.21.71.71,0,1,0,.5-.21Z" fill="none"/><path d="M38.92,9.06a7.24,7.24,0,0,0-.71-.41c-.25-.13-.49-.24-.75-.35a10.11,10.11,0,0,0-1.56-.49,3.11,3.11,0,0,1-2.13-1.65A9.32,9.32,0,0,0,18.6,4a2.94,2.94,0,0,1-2.46.92,7.5,7.5,0,0,0-8.06,6,3.09,3.09,0,0,1-1.61,2.13,10,10,0,0,0-5.32,8.1l-.07,1H7.72a4,4,0,0,1-.55-1.82H3.09a8.12,8.12,0,0,1,4.23-5.65,4.89,4.89,0,0,0,2.54-3.39,5.69,5.69,0,0,1,3.29-4.11A5.55,5.55,0,0,1,16,6.71a4.76,4.76,0,0,0,4-1.49A7.5,7.5,0,0,1,32.14,7a5,5,0,0,0,3.37,2.62,7.56,7.56,0,0,1,2.44,1,7.74,7.74,0,0,1,2.93,9.71H34.8l-.48,1.82H42l.26-.48A9.56,9.56,0,0,0,38.92,9.06Z" fill="#2c5967"/><path d="M28.12,33.22a3.75,3.75,0,0,1,1.75.46l4.22-16a4,4,0,0,1-1.75-.49Z" fill="#2c5967"/><path d="M36,12a2.53,2.53,0,1,0,0,3.58A2.53,2.53,0,0,0,36,12Zm-1.28,2.29a.71.71,0,1,1-1-1,.71.71,0,0,1,1,0A.71.71,0,0,1,34.73,14.33Z" fill="#2c5967"/><path d="M12.84,18.34a2.53,2.53,0,1,0,0,3.58A2.53,2.53,0,0,0,12.84,18.34Zm-1.28,2.29a.71.71,0,1,1-1-1,.71.71,0,0,1,1,0A.71.71,0,0,1,11.56,20.63Z" fill="#2c5967"/><path d="M26.24,35.31a2.53,2.53,0,1,0,3.58,0A2.54,2.54,0,0,0,26.24,35.31Zm2.29,2.3a.71.71,0,0,1-1,0A.72.72,0,0,1,28,36.39a.69.69,0,0,1,.5.21A.71.71,0,0,1,28.53,37.61Z" fill="#2c5967"/><path d="M31.47,16.58a3.82,3.82,0,0,1-.59-.75L25.81,20.9a2.52,2.52,0,0,0-2.77.53,2.47,2.47,0,0,0-.33.41l-4.59-1-3.18-.68a3.89,3.89,0,0,1-.44,1.76h0l4.54,1,1,.21,1.26.27,1,.22A2.45,2.45,0,0,0,23,25a2.41,2.41,0,0,0,1.43.71l1.74,7.94A3.93,3.93,0,0,1,28,33.21l-1.73-7.89a2.72,2.72,0,0,0,.38-.31,2.53,2.53,0,0,0,.5-2.85l5-5A4.43,4.43,0,0,1,31.47,16.58Zm-6.14,7.15a.71.71,0,1,1-.5-1.22.7.7,0,0,1,.5.21A.71.71,0,0,1,25.33,23.73Z" fill="#2c5967"/><path d="M14.46,18.25A3.93,3.93,0,0,1,14.94,20l15.85-4.35a3.75,3.75,0,0,1-.46-1.76Z" fill="#2c5967"/><path d="M14.37,22.16a3.87,3.87,0,0,1-.56.72,4.36,4.36,0,0,1-.73.57L24.71,35.07a4.23,4.23,0,0,1,.56-.72,3.84,3.84,0,0,1,.73-.56Z" fill="#2c5967"/></svg>