<?xml version="1.0" encoding="utf-8"?>
<!-- Generator: Adobe Illustrator 27.7.0, SVG Export Plug-In . SVG Version: 6.00 Build 0)  -->
<svg version="1.1" xmlns="http://www.w3.org/2000/svg" xmlns:xlink="http://www.w3.org/1999/xlink" x="0px" y="0px"
	 viewBox="0 0 37.883 41.982" style="enable-background:new 0 0 37.883 41.982;" xml:space="preserve">
<metadata><?xpacket begin="﻿" id="W5M0MpCehiHzreSzNTczkc9d"?>
<x:xmpmeta xmlns:x="adobe:ns:meta/" x:xmptk="Adobe XMP Core 9.1-c002 79.2c0288b, 2024/01/23-06:33:24        ">
   <rdf:RDF xmlns:rdf="http://www.w3.org/1999/02/22-rdf-syntax-ns#">
      <rdf:Description rdf:about=""
            xmlns:xmpRights="http://ns.adobe.com/xap/1.0/rights/"
            xmlns:dc="http://purl.org/dc/elements/1.1/"
            xmlns:xmp="http://ns.adobe.com/xap/1.0/"
            xmlns:xmpMM="http://ns.adobe.com/xap/1.0/mm/"
            xmlns:stEvt="http://ns.adobe.com/xap/1.0/sType/ResourceEvent#">
         <xmpRights:Marked>True</xmpRights:Marked>
         <dc:rights>
            <rdf:Alt>
               <rdf:li xml:lang="x-default">Oracle All Rights</rdf:li>
            </rdf:Alt>
         </dc:rights>
         <dc:subject>
            <rdf:Bag>
               <rdf:li>database</rdf:li>
               <rdf:li>icon</rdf:li>
            </rdf:Bag>
         </dc:subject>
         <xmp:MetadataDate>2025-05-02T15:26:03-06:00</xmp:MetadataDate>
         <xmpMM:InstanceID>xmp.iid:484ffd8f-c302-4270-88e4-22b2e376edb0</xmpMM:InstanceID>
         <xmpMM:DocumentID>xmp.did:7d03379a-8e14-47a5-859a-89b68c79bedf</xmpMM:DocumentID>
         <xmpMM:OriginalDocumentID>xmp.did:7d03379a-8e14-47a5-859a-89b68c79bedf</xmpMM:OriginalDocumentID>
         <xmpMM:History>
            <rdf:Seq>
               <rdf:li>
                  <rdf:Description>
                     <stEvt:action>saved</stEvt:action>
                     <stEvt:instanceID>xmp.iid:7d03379a-8e14-47a5-859a-89b68c79bedf</stEvt:instanceID>
                     <stEvt:when>2025-05-02T15:24:22-06:00</stEvt:when>
                     <stEvt:softwareAgent>Adobe Bridge 2024</stEvt:softwareAgent>
                     <stEvt:changed>/metadata</stEvt:changed>
                  </rdf:Description>
               </rdf:li>
               <rdf:li>
                  <rdf:Description>
                     <stEvt:action>saved</stEvt:action>
                     <stEvt:instanceID>xmp.iid:484ffd8f-c302-4270-88e4-22b2e376edb0</stEvt:instanceID>
                     <stEvt:when>2025-05-02T15:26:03-06:00</stEvt:when>
                     <stEvt:softwareAgent>Adobe Bridge 2024</stEvt:softwareAgent>
                     <stEvt:changed>/metadata</stEvt:changed>
                  </rdf:Description>
               </rdf:li>
            </rdf:Seq>
         </xmpMM:History>
      </rdf:Description>
   </rdf:RDF>
</x:xmpmeta>
                                                                                                    
                                                                                                    
                                                                                                    
                                                                                                    
                                                                                                    
                                                                                                    
                                                                                                    
                                                                                                    
                                                                                                    
                                                                                                    
                                                                                                    
                                                                                                    
                                                                                                    
                                                                     
<?xpacket end="w"?></metadata>
<style type="text/css">
	.st0{fill:#FFFFFF;}
	.st1{fill:#2C5967;}
</style>
<g id="guides">
</g>
<g id="Extras">
	<g>
		<g>
			<path class="st0" d="M37.859,5.717c-0.119-1.046-0.768-1.958-1.928-2.71l-0.524-0.34l-0.912-0.41
				c-1.097-0.47-2.477-0.881-4.103-1.221L29.743,0.9l-0.7-0.121c-1.254-0.216-2.612-0.391-4.037-0.519L24.349,0.2l-0.688-0.047
				C22.354,0.064,20.998,0.012,19.633,0l-1.341,0c-1.366,0.013-4.375,0.179-4.375,0.179L12.92,0.263
				c-1.425,0.13-2.783,0.305-4.036,0.522L7.9,0.966L7.534,1.043C5.905,1.386,4.525,1.799,3.43,2.272L2.519,2.683L1.976,3.042
				C1.55,3.324,1.128,3.747,0.724,4.297C0.239,4.959-0.011,5.743,0,6.565l0.078,5.494l0,0.721v2.528v6.201v1.518v1.337v1.304v7.56
				v2.83c0,0.887,0.412,2.171,2.372,3.246l1.386,0.632c1.092,0.419,4.63,1.216,4.63,1.216l0.68,0.11
				c1.226,0.198,2.55,0.359,3.935,0.478l0.647,0.055l0.663,0.043c1.274,0.083,2.595,0.13,3.926,0.143h1.308
				c1.331-0.012,2.652-0.059,3.927-0.142l0.663-0.043l0.647-0.055c1.385-0.118,2.709-0.278,3.935-0.476l1.316-0.234
				c1.556-0.304,2.9-0.67,3.994-1.088l1.386-0.629c1.976-1.078,2.39-2.366,2.389-3.257v-2.815v-6.811v-2.068v-1.322v-1.518v-4.721
				v-0.585v-0.91v-1.191V12.78v-0.735L37.859,5.717z"/>
		</g>
		<g>
			<path class="st1" d="M24.635,39.067l0.143,1.679c1.36-0.116,2.659-0.273,3.861-0.467l-0.268-1.663
				C27.209,38.803,25.952,38.955,24.635,39.067z"/>
			<path class="st1" d="M2.763,36.059v-1.555H1.078v1.555c0,0.898,0.623,1.695,1.853,2.37l0.81-1.477
				C2.969,36.528,2.763,36.191,2.763,36.059z"/>
			<rect x="1.078" y="9.001" class="st1" width="1.685" height="3.78"/>
			<path class="st1" d="M4.194,39.004c1.038,0.398,2.326,0.75,3.828,1.044l0.324-1.653c-1.407-0.276-2.601-0.6-3.549-0.963
				L4.194,39.004z"/>
			<path class="st1" d="M19.603,39.297l0.014,1.685c1.312-0.011,2.614-0.058,3.871-0.14l-0.109-1.681
				C22.154,39.24,20.883,39.286,19.603,39.297z"/>
			<polygon class="st1" points="2.763,29.403 1.078,28.35 1.078,33.228 2.763,33.228 			"/>
			<path class="st1" d="M35.198,36.059c0,0.133-0.209,0.472-0.991,0.899l0.807,1.479c1.24-0.677,1.869-1.477,1.869-2.379v-1.54
				h-1.685V36.059z"/>
			<path class="st1" d="M29.599,38.397l0.323,1.654c1.501-0.293,2.789-0.643,3.829-1.041l-0.601-1.574
				C32.2,37.799,31.005,38.122,29.599,38.397z"/>
			<polygon class="st1" points="35.198,33.244 36.883,33.244 36.883,28.365 35.198,29.418 			"/>
			<rect x="35.198" y="19.217" class="st1" width="1.685" height="3.826"/>
			<path class="st1" d="M14.457,40.842c1.257,0.081,2.559,0.129,3.871,0.14l0.015-1.685c-1.28-0.011-2.551-0.058-3.777-0.137
				L14.457,40.842z"/>
			<rect x="35.198" y="9.016" class="st1" width="1.685" height="3.764"/>
			<rect x="1.078" y="19.202" class="st1" width="1.685" height="3.825"/>
			<path class="st1" d="M9.306,40.276c1.203,0.194,2.502,0.352,3.861,0.468l0.144-1.679c-1.318-0.113-2.574-0.265-3.736-0.453
				L9.306,40.276z"/>
			<path class="st1" d="M34.46,6.85l0.912,1.417c0.269-0.173,0.499-0.354,0.697-0.541l0.54-0.805
				c0.042-0.062,0.071-0.132,0.087-0.206l0.187-0.885h-0.017c-0.083-0.732-0.577-1.399-1.479-1.984l-0.917,1.414
				c0.537,0.348,0.728,0.637,0.728,0.792C35.198,6.208,35.004,6.5,34.46,6.85z"/>
			<path class="st1" d="M10.423,28.859c-1.431-0.203-2.724-0.454-3.841-0.748l-0.428,1.63c1.18,0.31,2.537,0.575,4.033,0.786
				L10.423,28.859z"/>
			<path class="st1" d="M20.957,29.389c-1.31,0.037-2.66,0.037-3.965,0l-0.047,1.684c0.671,0.019,1.356,0.028,2.036,0.028
				c0.675,0,1.355-0.009,2.023-0.028L20.957,29.389z"/>
			<path class="st1" d="M15.671,29.339c-1.364-0.065-2.691-0.171-3.944-0.314l-0.192,1.674c1.29,0.147,2.654,0.256,4.056,0.323
				L15.671,29.339z"/>
			<path class="st1" d="M26.221,29.027c-1.254,0.143-2.581,0.249-3.944,0.313l0.08,1.683c1.4-0.066,2.765-0.175,4.055-0.322
				L26.221,29.027z"/>
			<path class="st1" d="M1.078,24.996v0.672c0,0.878,0.37,1.714,1.02,2.305l0.171,0.155c0.61,0.446,1.455,0.85,2.549,1.217
				l0.536-1.598c-1.959-0.657-2.549-1.298-2.588-1.546l-0.002,0v-1.205v-0.632H1.078V24.996z"/>
			<path class="st1" d="M31.367,28.114c-1.118,0.293-2.411,0.544-3.842,0.746l0.236,1.668c1.495-0.211,2.852-0.475,4.033-0.785
				L31.367,28.114z"/>
			<path class="st1" d="M35.198,24.996v1.208l-0.002,0c-0.005,0.029-0.151,0.728-2.599,1.547l0.534,1.598
				c1.087-0.364,1.93-0.764,2.541-1.206l0.546-0.4c0.418-0.306,0.665-0.793,0.665-1.311v-1.436v-0.632h-1.685V24.996z"/>
			<path class="st1" d="M31.339,18.385c-1.117,0.291-2.407,0.541-3.834,0.742l0.235,1.669c1.49-0.21,2.844-0.472,4.023-0.78
				L31.339,18.385z"/>
			<path class="st1" d="M1.078,14.101v1.207v1.045c0,0.513,0.181,1.009,0.511,1.402l0.145,0.172c0.608,0.64,1.639,1.2,3.12,1.693
				l0.532-1.599c-1.952-0.65-2.565-1.279-2.619-1.548l-0.003,0.001v-1.166v-1.207v-0.057H1.078V14.101z"/>
			<path class="st1" d="M20.953,19.653c-0.652,0.018-1.319,0.032-1.983,0.027c-0.659,0-1.323-0.009-1.972-0.028l-0.047,1.684
				c0.666,0.019,1.345,0.028,2.02,0.028c0.683-0.009,1.362-0.009,2.029-0.028L20.953,19.653z"/>
			<path class="st1" d="M11.746,19.291l-0.191,1.674c1.288,0.147,2.649,0.255,4.045,0.321l0.08-1.683
				C14.321,19.538,12.998,19.433,11.746,19.291z"/>
			<path class="st1" d="M6.612,18.382l-0.426,1.63c1.179,0.308,2.532,0.571,4.023,0.781l0.236-1.669
				C9.018,18.923,7.728,18.673,6.612,18.382z"/>
			<path class="st1" d="M26.205,19.292c-1.251,0.142-2.575,0.247-3.935,0.312l0.08,1.683c1.397-0.066,2.758-0.174,4.045-0.321
				L26.205,19.292z"/>
			<path class="st1" d="M35.198,14.117v1.191v1.168l-0.004-0.001c-0.058,0.27-0.676,0.901-2.629,1.549l0.531,1.599
				c1.474-0.49,2.505-1.046,3.116-1.681l0.253-0.22c0.265-0.231,0.418-0.566,0.418-0.919v-1.495v-1.191v-0.072h-1.685V14.117z"/>
			<path class="st1" d="M2.528,8.227l0.929-1.405c-0.512-0.339-0.694-0.62-0.694-0.77s0.182-0.432,0.694-0.77L2.528,3.876
				C1.655,4.453,1.177,5.11,1.095,5.83H1.078l0.139,0.799c0.047,0.267,0.165,0.516,0.343,0.72l0.328,0.376
				C2.071,7.899,2.284,8.066,2.528,8.227z"/>
			<path class="st1" d="M28.858,10.342l-0.285-1.661c-1.184,0.204-2.47,0.368-3.823,0.49l0.151,1.678
				C26.298,10.723,27.629,10.553,28.858,10.342z"/>
			<path class="st1" d="M13.163,2.936l-0.153-1.678c-1.399,0.127-2.73,0.299-3.956,0.512l0.288,1.66
				C10.524,3.225,11.81,3.059,13.163,2.936z"/>
			<path class="st1" d="M8.073,8.43C6.619,8.123,5.411,7.763,4.482,7.361l-0.67,1.546c1.032,0.447,2.349,0.842,3.913,1.172
				L8.073,8.43z"/>
			<path class="st1" d="M13.148,9.165c-1.353-0.123-2.639-0.29-3.821-0.495l-0.288,1.66c1.227,0.213,2.558,0.385,3.956,0.513
				L13.148,9.165z"/>
			<path class="st1" d="M34.087,8.933l-0.661-1.55c-0.935,0.399-2.146,0.756-3.598,1.059l0.345,1.649
				C31.733,9.766,33.05,9.376,34.087,8.933z"/>
			<path class="st1" d="M34.102,3.176c-1.036-0.444-2.353-0.835-3.915-1.162l-0.346,1.649c1.453,0.304,2.663,0.662,3.597,1.062
				L34.102,3.176z"/>
			<path class="st1" d="M28.872,1.764c-1.228-0.212-2.56-0.383-3.957-0.509l-0.151,1.678c1.353,0.122,2.639,0.287,3.823,0.491
				L28.872,1.764z"/>
			<path class="st1" d="M8.088,3.67L7.74,2.021C6.177,2.35,4.86,2.743,3.827,3.19l0.668,1.547C5.425,4.335,6.634,3.976,8.088,3.67z"
				/>
			<path class="st1" d="M23.578,10.954l-0.114-1.681c-1.256,0.085-2.558,0.135-3.87,0.146l0.015,1.685
				C20.953,11.092,22.289,11.041,23.578,10.954z"/>
			<path class="st1" d="M18.317,2.685L18.301,1c-1.344,0.013-2.68,0.064-3.968,0.153l0.116,1.681
				C15.704,2.747,17.006,2.697,18.317,2.685z"/>
			<path class="st1" d="M23.593,1.15C22.304,1.063,20.969,1.012,19.624,1l-0.015,1.685c1.312,0.012,2.614,0.061,3.87,0.147
				L23.593,1.15z"/>
			<path class="st1" d="M18.302,9.418c-1.311-0.013-2.613-0.063-3.869-0.15l-0.116,1.681c1.289,0.089,2.624,0.141,3.968,0.154
				L18.302,9.418z"/>
		</g>
	</g>
</g>
</svg>
