<svg id="Layer_1" data-name="Layer 1" xmlns="http://www.w3.org/2000/svg" viewBox="0 0 43.78 42"><defs><style>.cls-1{fill:#fff;}.cls-2{fill:#2c5967;}</style></defs><title>Oracle Machine Learning (OML) AutoML UI</title><metadata><?xpacket begin="﻿" id="W5M0MpCehiHzreSzNTczkc9d"?>
<x:xmpmeta xmlns:x="adobe:ns:meta/" x:xmptk="Adobe XMP Core 6.0-c006 79.164648, 2021/01/12-15:52:29        ">
   <rdf:RDF xmlns:rdf="http://www.w3.org/1999/02/22-rdf-syntax-ns#">
      <rdf:Description rdf:about=""
            xmlns:xmpRights="http://ns.adobe.com/xap/1.0/rights/"
            xmlns:xmp="http://ns.adobe.com/xap/1.0/"
            xmlns:xmpMM="http://ns.adobe.com/xap/1.0/mm/"
            xmlns:stEvt="http://ns.adobe.com/xap/1.0/sType/ResourceEvent#"
            xmlns:dc="http://purl.org/dc/elements/1.1/"
            xmlns:lr="http://ns.adobe.com/lightroom/1.0/">
         <xmpRights:Marked>True</xmpRights:Marked>
         <xmp:MetadataDate>2021-07-22T15:12:07-05:00</xmp:MetadataDate>
         <xmpMM:InstanceID>xmp.iid:54879ef1-6f1a-43b7-8d91-dfdcb91d7bb7</xmpMM:InstanceID>
         <xmpMM:DocumentID>xmp.did:32c4cac6-b8d9-45fe-8309-f5d71a6bebe0</xmpMM:DocumentID>
         <xmpMM:OriginalDocumentID>xmp.did:32c4cac6-b8d9-45fe-8309-f5d71a6bebe0</xmpMM:OriginalDocumentID>
         <xmpMM:History>
            <rdf:Seq>
               <rdf:li>
                  <rdf:Description>
                     <stEvt:action>saved</stEvt:action>
                     <stEvt:instanceID>xmp.iid:32c4cac6-b8d9-45fe-8309-f5d71a6bebe0</stEvt:instanceID>
                     <stEvt:when>2021-06-23T15:54:02-05:00</stEvt:when>
                     <stEvt:softwareAgent>Adobe Bridge 2021 (Macintosh)</stEvt:softwareAgent>
                     <stEvt:changed>/metadata</stEvt:changed>
                  </rdf:Description>
               </rdf:li>
               <rdf:li>
                  <rdf:Description>
                     <stEvt:action>saved</stEvt:action>
                     <stEvt:instanceID>xmp.iid:54879ef1-6f1a-43b7-8d91-dfdcb91d7bb7</stEvt:instanceID>
                     <stEvt:when>2021-07-22T15:12:07-05:00</stEvt:when>
                     <stEvt:softwareAgent>Adobe Bridge 2021 (Macintosh)</stEvt:softwareAgent>
                     <stEvt:changed>/metadata</stEvt:changed>
                  </rdf:Description>
               </rdf:li>
            </rdf:Seq>
         </xmpMM:History>
         <dc:title>
            <rdf:Alt>
               <rdf:li xml:lang="x-default">Oracle Machine Learning (OML) AutoML UI</rdf:li>
            </rdf:Alt>
         </dc:title>
         <dc:rights>
            <rdf:Alt>
               <rdf:li xml:lang="x-default">Oracle All Rights Reserved</rdf:li>
            </rdf:Alt>
         </dc:rights>
         <dc:subject>
            <rdf:Bag>
               <rdf:li>icon</rdf:li>
               <rdf:li>AI</rdf:li>
               <rdf:li>Artificial Intelligence</rdf:li>
               <rdf:li>technology</rdf:li>
               <rdf:li>OML</rdf:li>
            </rdf:Bag>
         </dc:subject>
         <lr:hierarchicalSubject>
            <rdf:Bag>
               <rdf:li>icon</rdf:li>
               <rdf:li>AI</rdf:li>
               <rdf:li>Artificial Intelligence</rdf:li>
               <rdf:li>technology</rdf:li>
               <rdf:li>Other Keywords|OML</rdf:li>
            </rdf:Bag>
         </lr:hierarchicalSubject>
      </rdf:Description>
   </rdf:RDF>
</x:xmpmeta>
                                                                                                    
                                                                                                    
                                                                                                    
                                                                                                    
                                                                                                    
                                                                                                    
                                                                         
<?xpacket end="w"?></metadata>
<path class="cls-1" d="M2.88,41.5A2.38,2.38,0,0,1,.5,39.13V2.88A2.39,2.39,0,0,1,2.88.5H39.13A2.38,2.38,0,0,1,41.5,2.88v7.27l1.58,1.57L41.5,13.3V39.13a2.38,2.38,0,0,1-2.37,2.37Z"/><path class="cls-1" d="M39.13,1A1.88,1.88,0,0,1,41,2.88v7.47l1.37,1.37L41.19,12.9,41,12.71V39.13A1.87,1.87,0,0,1,39.13,41H2.88A1.88,1.88,0,0,1,1,39.13V2.88A1.88,1.88,0,0,1,2.88,1H39.13m0-1H2.88A2.88,2.88,0,0,0,0,2.88V39.13A2.88,2.88,0,0,0,2.88,42H39.13A2.88,2.88,0,0,0,42,39.13V13.51l1.08-1.08.7-.71-.7-.7L42,9.94V2.88A2.88,2.88,0,0,0,39.13,0Z"/><path class="cls-2" d="M40.42,13.9c-.05.15-.12.31-.18.46a1,1,0,0,0,0,.1c-.07.14-.13.29-.2.43A.2.2,0,0,0,40,15l-.19.34a.75.75,0,0,0-.07.12c-.07.13-.15.25-.23.37l-.1.15,0,.05V39.13a.2.2,0,0,1-.2.2H2.88a.2.2,0,0,1-.21-.2V9.33h9.26a8,8,0,0,1,2-1.66H2.67V2.88a.21.21,0,0,1,.21-.21H28.36l.25-.11.08,0h0L29,2.41h0l.1,0,0,0,.27-.08.13,0h0l.2-.06h.07l.12,0h.08l.18,0,.2,0h.08l.15,0,.26,0h0l.12,0,.35,0h1.22l.45.05h.08c.22,0,.43.06.64.11a8.41,8.41,0,0,1,1.8.58h3.5a.2.2,0,0,1,.2.21V5.72A8.85,8.85,0,0,1,40.52,8.1l.48.49V2.88A1.88,1.88,0,0,0,39.13,1H2.88A1.88,1.88,0,0,0,1,2.88V39.13A1.88,1.88,0,0,0,2.88,41H39.13A1.87,1.87,0,0,0,41,39.13V14.48l-.32-.32Z"/><path class="cls-2" d="M5.48,6.35a1,1,0,1,0-1-1A1,1,0,0,0,5.48,6.35Z"/><path class="cls-2" d="M9.16,6.35a1,1,0,1,0-1-1A1,1,0,0,0,9.16,6.35Z"/><path class="cls-2" d="M12.77,6.35a1,1,0,1,0-1-1A1,1,0,0,0,12.77,6.35Z"/><path class="cls-2" d="M35.65,22.88a5,5,0,0,1-1.53,3.63l-.3.3.06.42A4.35,4.35,0,0,1,34,28a5.13,5.13,0,0,1-4.7,5.09l-.46,0-.22.42A5.08,5.08,0,0,1,24,36.29H23.9a.64.64,0,0,1-.61-.63v-8.2h4.13l.32.31a2.47,2.47,0,0,0-.28,1.15,2.5,2.5,0,1,0,2.5-2.5,2.44,2.44,0,0,0-1,.21l-.84-.84H23.29V23.71h6.19a2.5,2.5,0,1,0,0-1.67H23.29V19.75h4.82l.58-.57a8.93,8.93,0,0,1-2-1.1H23.29V13.44l-1.66-1.67V35.66A2.3,2.3,0,0,0,23.85,38H24a6.74,6.74,0,0,0,5.79-3.28A6.81,6.81,0,0,0,35.61,28a5.78,5.78,0,0,0,0-.58A6.75,6.75,0,0,0,36,18.87a9.74,9.74,0,0,1-1.64.62A5,5,0,0,1,35.65,22.88ZM30,28.08a.84.84,0,0,1,.83.84.83.83,0,0,1-1.66,0A.84.84,0,0,1,30,28.08Zm1.87-6a.84.84,0,1,1,0,1.67.84.84,0,0,1,0-1.67Z"/><path class="cls-2" d="M32.81,6.43H31.16l-2.32,8h1.73L31,12.77h2l.39,1.69h1.77Zm-.17,5H31.26l.7-3Z"/><path class="cls-2" d="M25.11,13.49,28.62,10,27.44,8.81,26,10.27A6,6,0,0,1,37.31,8l1.22-1.22A7.71,7.71,0,0,0,24.3,10.32L22.79,8.81,21.61,10Z"/><path class="cls-2" d="M41.19,12.9l1.18-1.18-3.51-3.5-3.5,3.5,1.18,1.18L38,11.44a6,6,0,0,1-11.34,2.27l-1.21,1.22a7.71,7.71,0,0,0,14.23-3.54Z"/><path class="cls-2" d="M20.38,10.08a2.27,2.27,0,0,0-2.2-2.28,6.58,6.58,0,0,0-2.51.41,6.92,6.92,0,0,0-3.47,2.84,6.8,6.8,0,0,0-5.81,6.7q0,.29,0,.6a6.75,6.75,0,0,0,0,9,5.78,5.78,0,0,0,0,.58,6.81,6.81,0,0,0,5.78,6.7A6.74,6.74,0,0,0,18,38h.18a2.31,2.31,0,0,0,2.24-2.29ZM18.09,36.29H18a5.08,5.08,0,0,1-4.53-2.77l-.22-.42-.46,0A5.13,5.13,0,0,1,8.05,28a4.35,4.35,0,0,1,.07-.75l.06-.42-.3-.3a5.09,5.09,0,0,1,0-7.28l.3-.29-.06-.43a4.38,4.38,0,0,1-.07-.76,5.13,5.13,0,0,1,4.72-5.09l.46,0,.22-.41a5.26,5.26,0,0,1,2.8-2.45A5.11,5.11,0,0,1,18,9.46h.16a.62.62,0,0,1,.59.62v8H14.6l-.26-.26A2.5,2.5,0,1,0,12,19.33,2.38,2.38,0,0,0,13.2,19l.71.71h4.8V22H12.52a2.51,2.51,0,1,0,0,1.67h6.19v2.08h-4.8l-.85.85a2.45,2.45,0,0,0-1-.22,2.5,2.5,0,1,0,2.23,1.37l.33-.33h4.11v8.2A.65.65,0,0,1,18.09,36.29ZM12,17.67a.84.84,0,0,1-.83-.84A.83.83,0,0,1,12,16a.84.84,0,0,1,.84.83A.85.85,0,0,1,12,17.67Zm-1,5.21a.83.83,0,0,1-.83.83.84.84,0,1,1,.83-.83Zm1.88,6a.84.84,0,0,1-.84.83.83.83,0,0,1-.83-.83.84.84,0,0,1,.83-.84A.85.85,0,0,1,12.88,28.92Z"/></svg>