<svg id="Layer_1" data-name="Layer 1" xmlns="http://www.w3.org/2000/svg" viewBox="0 0 37.82 42.31"><metadata><?xpacket begin="﻿" id="W5M0MpCehiHzreSzNTczkc9d"?>
<x:xmpmeta xmlns:x="adobe:ns:meta/" x:xmptk="Adobe XMP Core 6.0-c006 79.164648, 2021/01/12-15:52:29        ">
   <rdf:RDF xmlns:rdf="http://www.w3.org/1999/02/22-rdf-syntax-ns#">
      <rdf:Description rdf:about=""
            xmlns:dc="http://purl.org/dc/elements/1.1/"
            xmlns:xmp="http://ns.adobe.com/xap/1.0/"
            xmlns:xmpMM="http://ns.adobe.com/xap/1.0/mm/"
            xmlns:stEvt="http://ns.adobe.com/xap/1.0/sType/ResourceEvent#"
            xmlns:xmpRights="http://ns.adobe.com/xap/1.0/rights/"
            xmlns:lr="http://ns.adobe.com/lightroom/1.0/">
         <dc:subject>
            <rdf:Bag>
               <rdf:li>database</rdf:li>
               <rdf:li>monitor</rdf:li>
               <rdf:li>eye</rdf:li>
               <rdf:li>magnifying glass</rdf:li>
               <rdf:li>icon</rdf:li>
            </rdf:Bag>
         </dc:subject>
         <dc:rights>
            <rdf:Alt>
               <rdf:li xml:lang="x-default">Oracle All Rights</rdf:li>
            </rdf:Alt>
         </dc:rights>
         <xmp:MetadataDate>2023-08-02T14:36:31-06:00</xmp:MetadataDate>
         <xmpMM:InstanceID>xmp.iid:8358fef5-ec22-47bd-ba67-40322a208d0c</xmpMM:InstanceID>
         <xmpMM:DocumentID>xmp.did:463223ec-1349-4ae7-9cb6-e0d16ef7b891</xmpMM:DocumentID>
         <xmpMM:OriginalDocumentID>xmp.did:463223ec-1349-4ae7-9cb6-e0d16ef7b891</xmpMM:OriginalDocumentID>
         <xmpMM:History>
            <rdf:Seq>
               <rdf:li>
                  <rdf:Description>
                     <stEvt:action>saved</stEvt:action>
                     <stEvt:instanceID>xmp.iid:463223ec-1349-4ae7-9cb6-e0d16ef7b891</stEvt:instanceID>
                     <stEvt:when>2023-08-02T13:44:26-06:00</stEvt:when>
                     <stEvt:softwareAgent>Adobe Bridge 2021 (Macintosh)</stEvt:softwareAgent>
                     <stEvt:changed>/metadata</stEvt:changed>
                  </rdf:Description>
               </rdf:li>
               <rdf:li>
                  <rdf:Description>
                     <stEvt:action>saved</stEvt:action>
                     <stEvt:instanceID>xmp.iid:8358fef5-ec22-47bd-ba67-40322a208d0c</stEvt:instanceID>
                     <stEvt:when>2023-08-02T14:36:31-06:00</stEvt:when>
                     <stEvt:softwareAgent>Adobe Bridge 2021 (Macintosh)</stEvt:softwareAgent>
                     <stEvt:changed>/metadata</stEvt:changed>
                  </rdf:Description>
               </rdf:li>
            </rdf:Seq>
         </xmpMM:History>
         <xmpRights:Marked>True</xmpRights:Marked>
         <lr:hierarchicalSubject>
            <rdf:Bag>
               <rdf:li>Other Keywords|icon</rdf:li>
            </rdf:Bag>
         </lr:hierarchicalSubject>
      </rdf:Description>
   </rdf:RDF>
</x:xmpmeta>
                                                                                                    
                                                                                                    
                                                                                                    
                                                                                                    
                                                                                                    
                                                                                                    
                                                                                                    
                                                                                                    
                                                                                                    
                                                                                            
<?xpacket end="w"?></metadata>
<path d="M30.33,40.48,29,40.72l-1.24.19-.15,0-1.21.15h-.13L25,41.22l-1.29.1-1.24.08-1.25.06-1.22,0H17.77l-1.22,0-1.08,0H15.3l-1.18-.07-1.31-.11-1.28-.13H11.4l-1.21-.15-.11,0c-.45-.06-.85-.12-1.24-.19C3.29,39.8.5,38.24.5,36.07V6.48a1.21,1.21,0,0,1,0-.19c0-.08,0-.15,0-.23C.5,2,10.42.5,18.91.5S37.32,2,37.32,6.06a1.64,1.64,0,0,1,0,.23,1.23,1.23,0,0,1,0,.19V36.07c0,1.48-1.32,2.69-3.91,3.59l-1.94,2Z" fill="#fff"/><path d="M18.91,1c8.62,0,17.91,1.58,17.91,5.06a2.29,2.29,0,0,1,0,.25.88.88,0,0,1,0,.17V36.07c0,1.39-1.49,2.41-3.68,3.16L31.47,40.9l-1-1c-.51.11-1,.21-1.56.29h0c-.39.07-.79.13-1.18.18l-.16,0c-.39.06-.79.11-1.19.15l-.14,0L25,40.72h0l-1.24.1h-.06l-1.17.07h-.17L21.24,41h-.18l-1,0H17.78l-1,0h-.19l-1.08-.05h-.16l-1.17-.07H14.1l-1.25-.1h0l-1.24-.12-.13,0q-.6-.06-1.2-.15l-.15,0c-.4,0-.79-.11-1.18-.18h0C4.61,39.51,1,38.24,1,36.07V6.48a.88.88,0,0,1,0-.17,2.29,2.29,0,0,1,0-.25C1,2.58,10.28,1,18.91,1m0-1C15.75,0,0,.29,0,6.06a1.85,1.85,0,0,0,0,.23,1.15,1.15,0,0,0,0,.19V36.07c0,2.2,2.24,3.77,6.83,4.78l0,0,1.93.31L10,41.4l.16,0c.4.06.81.11,1.22.15h.09c.46.06.88.1,1.3.14l1.3.1h.06l1.19.07h.16l1.1,0h.18l1,0h2.29l1,0h.19l1.09,0h.17l1.19-.07h.06l1.26-.1,1.29-.13.14,0c.41,0,.81-.09,1.22-.15h.12l1.24-.19L30.18,41l.58.58.71.7.7-.7,1.51-1.52c2.75-1,4.14-2.32,4.14-4V6.48c0-.07,0-.13,0-.19s0-.16,0-.23C37.82.29,22.07,0,18.91,0Z" fill="#fff"/><path d="M27.55,38.75a62.09,62.09,0,0,1-8.64.56A53.25,53.25,0,0,1,7,38.14c-3.56-.85-4.35-1.8-4.35-2.07V28.46c1.95,1.16,5.36,1.85,8.81,2.24a11.39,11.39,0,0,1-1.33-1.85C9.05,28.68,8,28.48,7,28.26c-3.56-.85-4.35-1.81-4.35-2.07V18.72a19.73,19.73,0,0,0,6.52,1.93,11.41,11.41,0,0,1,.6-1.6c-1-.15-1.92-.33-2.77-.53-3.56-.85-4.35-1.81-4.35-2.07V8.37c3.06,1.87,9.82,2.74,16.22,2.74s13.16-.87,16.22-2.74v8.08c0,.26-.8,1.22-4.35,2.07-.56.13-1.15.25-1.76.36a10.73,10.73,0,0,1,.63,1.59,17.4,17.4,0,0,0,5.48-1.75v7.47c0,.26-.8,1.22-4.35,2.07l-.49.11,1.8,1.29a12.58,12.58,0,0,0,3-1.2v3.71L36,33l.83.82V6.48a.88.88,0,0,0,0-.17,2.29,2.29,0,0,0,0-.25C36.82,2.58,27.53,1,18.91,1S1,2.58,1,6.06a2.29,2.29,0,0,0,0,.25.88.88,0,0,0,0,.17V36.07C1,40,12.71,41,18.91,41a65.06,65.06,0,0,0,10-.77l-.09-.09C28.41,39.7,28,39.23,27.55,38.75ZM18.91,2.69A51.86,51.86,0,0,1,30.77,3.9c3.58.88,4.36,1.85,4.36,2.16s-.78,1.28-4.36,2.16A51.86,51.86,0,0,1,18.91,9.43,52,52,0,0,1,7,8.22C3.47,7.34,2.69,6.36,2.69,6.06S3.47,4.78,7,3.9A52,52,0,0,1,18.91,2.69Z" fill="#2c5967"/><path d="M24,31.92l2.69,3.73a32,32,0,0,0,3.07,3.56l1.68,1.69,5.29-5.29-1.68-1.68a33.42,33.42,0,0,0-3.58-3.08l-3.71-2.68a9.39,9.39,0,1,0-8.24,4.89A9.24,9.24,0,0,0,24,31.92Zm6.48.28a34,34,0,0,1,3.38,2.92l.49.49-2.91,2.91L31,38a31.3,31.3,0,0,1-2.9-3.37L25.42,31a9.32,9.32,0,0,0,.75-.66,9.45,9.45,0,0,0,.67-.75ZM14.1,29.12a7.68,7.68,0,1,1,5.44,2.26A7.63,7.63,0,0,1,14.1,29.12Z" fill="#2c5967"/><path d="M24.45,25.79a7.1,7.1,0,0,0,1.23-1.65l.21-.4-.21-.4a7.05,7.05,0,0,0-12.44,0l-.22.4.22.4a7.06,7.06,0,0,0,11.21,1.65Zm-8.8-1.19a5.2,5.2,0,0,1-.69-.86,5.2,5.2,0,0,1,.69-.86,5.4,5.4,0,0,1,7.61,0,5.2,5.2,0,0,1,.69.86,5.2,5.2,0,0,1-.69.86,5.4,5.4,0,0,1-7.61,0Z" fill="#2c5967"/><circle cx="19.43" cy="23.74" r="1.47" fill="#2c5967"/></svg>