<svg width="80" height="90" viewBox="0 0 80 90" fill="none" xmlns="http://www.w3.org/2000/svg">
<metadata><?xpacket begin="﻿" id="W5M0MpCehiHzreSzNTczkc9d"?>
<x:xmpmeta xmlns:x="adobe:ns:meta/" x:xmptk="Adobe XMP Core 6.0-c006 79.164648, 2021/01/12-15:52:29        ">
   <rdf:RDF xmlns:rdf="http://www.w3.org/1999/02/22-rdf-syntax-ns#">
      <rdf:Description rdf:about=""
            xmlns:xmp="http://ns.adobe.com/xap/1.0/"
            xmlns:xmpMM="http://ns.adobe.com/xap/1.0/mm/"
            xmlns:stEvt="http://ns.adobe.com/xap/1.0/sType/ResourceEvent#"
            xmlns:dc="http://purl.org/dc/elements/1.1/"
            xmlns:xmpRights="http://ns.adobe.com/xap/1.0/rights/">
         <xmp:MetadataDate>2021-11-23T13:28:02-06:00</xmp:MetadataDate>
         <xmpMM:InstanceID>xmp.iid:8df25fe3-e6cb-431d-82fa-c4b62295adc2</xmpMM:InstanceID>
         <xmpMM:DocumentID>xmp.did:66a3d0dc-84e0-4f8e-a9e0-fc0bf87ea3a2</xmpMM:DocumentID>
         <xmpMM:OriginalDocumentID>xmp.did:66a3d0dc-84e0-4f8e-a9e0-fc0bf87ea3a2</xmpMM:OriginalDocumentID>
         <xmpMM:History>
            <rdf:Seq>
               <rdf:li>
                  <rdf:Description>
                     <stEvt:action>saved</stEvt:action>
                     <stEvt:instanceID>xmp.iid:66a3d0dc-84e0-4f8e-a9e0-fc0bf87ea3a2</stEvt:instanceID>
                     <stEvt:when>2021-11-22T11:59:51-06:00</stEvt:when>
                     <stEvt:softwareAgent>Adobe Bridge 2021 (Macintosh)</stEvt:softwareAgent>
                     <stEvt:changed>/metadata</stEvt:changed>
                  </rdf:Description>
               </rdf:li>
               <rdf:li>
                  <rdf:Description>
                     <stEvt:action>saved</stEvt:action>
                     <stEvt:instanceID>xmp.iid:8df25fe3-e6cb-431d-82fa-c4b62295adc2</stEvt:instanceID>
                     <stEvt:when>2021-11-23T13:28:02-06:00</stEvt:when>
                     <stEvt:softwareAgent>Adobe Bridge 2021 (Macintosh)</stEvt:softwareAgent>
                     <stEvt:changed>/metadata</stEvt:changed>
                  </rdf:Description>
               </rdf:li>
            </rdf:Seq>
         </xmpMM:History>
         <dc:subject>
            <rdf:Bag>
               <rdf:li>icon</rdf:li>
               <rdf:li>technology</rdf:li>
               <rdf:li>data</rdf:li>
            </rdf:Bag>
         </dc:subject>
         <dc:rights>
            <rdf:Alt>
               <rdf:li xml:lang="x-default">Oracle All Rights Reserved</rdf:li>
            </rdf:Alt>
         </dc:rights>
         <xmpRights:Marked>True</xmpRights:Marked>
      </rdf:Description>
   </rdf:RDF>
</x:xmpmeta>
                                                                                                    
                                                                                                    
                                                                                                    
                                                                                                    
                                                                                                    
                                                                                                    
                                                                                                    
                                                                                                    
                                                                                                    
                                                                                                    
                                                                                                    
                                                              
<?xpacket end="w"?></metadata>
<g id="Database" clip-path="url(#clip0_1812:191129)">
<g id="Group 15">
<path id="Vector" d="M40.2521 88.3858C36.6902 88.3858 5.39499 88.1001 5.39499 77.9096V21.0715C5.39499 10.5953 36.6902 10.2906 40.2521 10.2906C43.814 10.2906 75.1283 10.5953 75.1283 21.0715V77.9096C75.1283 88.1001 43.8331 88.3858 40.2521 88.3858Z" fill="white"/>
<path id="Vector_2" d="M40.254 11.2427C52.0635 11.2427 74.1778 13.2998 74.1778 21.0712V77.9093C74.1778 85.5284 51.9873 87.4331 40.254 87.4331C28.5206 87.4331 6.34922 85.5284 6.34922 77.9093V21.0712C6.34922 13.2998 28.5397 11.2427 40.254 11.2427ZM40.254 9.33791C34.273 9.33791 4.44446 9.90933 4.44446 21.0712V77.9093C4.44446 88.8236 34.273 89.3379 40.254 89.3379C46.2349 89.3379 76.0826 88.7855 76.0826 77.9093V21.0712C76.0826 9.90933 46.3492 9.33791 40.254 9.33791Z" fill="white"/>
<path id="Vector_3" d="M74.1784 21.0719C74.1784 13.3004 52.0641 11.2433 40.2546 11.2433C28.4451 11.2433 6.34985 13.3004 6.34985 21.0719V77.9099C6.34985 85.529 28.5403 87.4338 40.2546 87.4338C51.9689 87.4338 74.1784 85.529 74.1784 77.9099V21.0719ZM70.3689 59.1671C70.3689 59.5099 68.9403 61.2242 62.407 62.8052C55.1274 64.3557 47.6967 65.0841 40.2546 64.9766C32.7856 65.0777 25.329 64.3366 18.026 62.7671C11.4927 61.1861 10.1594 59.4719 10.1594 59.129V45.148C16.9784 48.8623 31.588 49.9861 40.3499 49.9861C49.1118 49.9861 63.7403 48.8623 70.5594 45.148L70.3689 59.1671ZM70.3689 40.4623C70.3689 40.8052 68.9403 42.5385 62.407 44.1004C55.1274 45.6509 47.6967 46.3793 40.2546 46.2719C32.7856 46.373 25.329 45.6318 18.026 44.0623C11.4927 42.5004 10.1594 40.7671 10.1594 40.4242V25.91C16.9784 29.7195 31.588 30.8814 40.3499 30.8814C49.1118 30.8814 63.7403 29.7385 70.5594 25.91L70.3689 40.4623ZM18.0451 17.2433C25.3388 15.658 32.7917 14.9229 40.2546 15.0528C47.7276 14.9532 55.1869 15.7202 62.4832 17.3385C69.207 18.8623 70.4641 20.7671 70.4641 21.0719C70.4641 21.3766 69.1118 23.2433 62.4832 24.8814C55.1867 26.4988 47.7275 27.2658 40.2546 27.1671C32.7888 27.2711 25.336 26.5105 18.0451 24.9004C11.4165 23.2433 10.1594 21.4528 10.1594 21.0719C10.1594 20.6909 11.5118 18.8814 18.1403 17.2623L18.0451 17.2433ZM62.5022 81.5099C55.193 83.0803 47.73 83.8215 40.2546 83.7195C32.7856 83.8206 25.329 83.0794 18.026 81.5099C11.4927 79.948 10.1594 78.2147 10.1594 77.9099V63.8528C16.9784 67.5671 31.588 68.6909 40.3499 68.6909C49.1118 68.6909 63.7403 67.5671 70.5594 63.8528V77.9099C70.5594 78.2528 69.1308 79.9861 62.5975 81.548" fill="#7A7464"/>
</g>
</g>
<defs>
<clipPath id="clip0_1812:191129">
<rect width="80" height="89.3379" fill="white"/>
</clipPath>
</defs>
</svg>
