<svg id="Layer_1" data-name="Layer 1" xmlns="http://www.w3.org/2000/svg" viewBox="0 0 39.7 42.12"><defs><style>.cls-1{fill:#fff;}.cls-2{fill:#2c5967;}</style></defs><title>Database Action - gear</title><metadata><?xpacket begin="﻿" id="W5M0MpCehiHzreSzNTczkc9d"?>
<x:xmpmeta xmlns:x="adobe:ns:meta/" x:xmptk="Adobe XMP Core 6.0-c006 79.164648, 2021/01/12-15:52:29        ">
   <rdf:RDF xmlns:rdf="http://www.w3.org/1999/02/22-rdf-syntax-ns#">
      <rdf:Description rdf:about=""
            xmlns:xmpRights="http://ns.adobe.com/xap/1.0/rights/"
            xmlns:xmp="http://ns.adobe.com/xap/1.0/"
            xmlns:xmpMM="http://ns.adobe.com/xap/1.0/mm/"
            xmlns:stEvt="http://ns.adobe.com/xap/1.0/sType/ResourceEvent#"
            xmlns:dc="http://purl.org/dc/elements/1.1/"
            xmlns:lr="http://ns.adobe.com/lightroom/1.0/">
         <xmpRights:Marked>True</xmpRights:Marked>
         <xmp:MetadataDate>2021-06-24T19:28:05-05:00</xmp:MetadataDate>
         <xmpMM:InstanceID>xmp.iid:2eb42716-4ac3-4b35-976b-d97cab84df33</xmpMM:InstanceID>
         <xmpMM:DocumentID>xmp.did:b4d5c884-9198-44eb-a6ae-dca1853e97bd</xmpMM:DocumentID>
         <xmpMM:OriginalDocumentID>xmp.did:b4d5c884-9198-44eb-a6ae-dca1853e97bd</xmpMM:OriginalDocumentID>
         <xmpMM:History>
            <rdf:Seq>
               <rdf:li>
                  <rdf:Description>
                     <stEvt:action>saved</stEvt:action>
                     <stEvt:instanceID>xmp.iid:b4d5c884-9198-44eb-a6ae-dca1853e97bd</stEvt:instanceID>
                     <stEvt:when>2021-06-23T15:53:57-05:00</stEvt:when>
                     <stEvt:softwareAgent>Adobe Bridge 2021 (Macintosh)</stEvt:softwareAgent>
                     <stEvt:changed>/metadata</stEvt:changed>
                  </rdf:Description>
               </rdf:li>
               <rdf:li>
                  <rdf:Description>
                     <stEvt:action>saved</stEvt:action>
                     <stEvt:instanceID>xmp.iid:2eb42716-4ac3-4b35-976b-d97cab84df33</stEvt:instanceID>
                     <stEvt:when>2021-06-24T19:28:05-05:00</stEvt:when>
                     <stEvt:softwareAgent>Adobe Bridge 2021 (Macintosh)</stEvt:softwareAgent>
                     <stEvt:changed>/metadata</stEvt:changed>
                  </rdf:Description>
               </rdf:li>
            </rdf:Seq>
         </xmpMM:History>
         <dc:title>
            <rdf:Alt>
               <rdf:li xml:lang="x-default">Database Action - gear</rdf:li>
            </rdf:Alt>
         </dc:title>
         <dc:rights>
            <rdf:Alt>
               <rdf:li xml:lang="x-default">Oracle All Rights Reserved</rdf:li>
            </rdf:Alt>
         </dc:rights>
         <dc:subject>
            <rdf:Bag>
               <rdf:li>icon</rdf:li>
               <rdf:li>Data</rdf:li>
               <rdf:li>technology</rdf:li>
            </rdf:Bag>
         </dc:subject>
         <lr:hierarchicalSubject>
            <rdf:Bag>
               <rdf:li>icon</rdf:li>
               <rdf:li>Data</rdf:li>
               <rdf:li>technology</rdf:li>
            </rdf:Bag>
         </lr:hierarchicalSubject>
      </rdf:Description>
   </rdf:RDF>
</x:xmpmeta>
                                                                                                    
                                                                                                    
                                                                                                    
                                                                                                    
                                                                                                    
                                                                                                    
                                                                                                    
                                                                                                    
                                                                  
<?xpacket end="w"?></metadata>
<path class="cls-1" d="M26.24,41.62l-.06-.54a67.33,67.33,0,0,1-7.38.42C16.93,41.5.5,41.35.5,36V6.16C.5.66,16.93.5,18.8.5S37.11.66,37.11,6.16V25.49l1.33,1.34-1.28,1.6,2,.23v6.07l-2,.23,1.28,1.6-4.3,4.3-1.35-1.08-.28.09-.2,1.75Z"/><path class="cls-1" d="M18.8,1C25,1,36.61,2.08,36.61,6.16V25.7l1.16,1.16-1.16,1.46v.55l2.09.23v5.19l-2.09.23v.55l1.16,1.46-3.66,3.66-1.22-1-.84.26-.18,1.64H26.68l-.06-.59A67.38,67.38,0,0,1,18.8,41C12.65,41,1,40,1,36V6.16C1,2.08,12.65,1,18.8,1m0-1C15.66,0,0,.3,0,6.16V36c0,5.73,15.66,6,18.8,6a67.67,67.67,0,0,0,6.94-.37l.05.49h7l.1-.89.08-.69.54.43.7.56.63-.63,3.67-3.67.63-.63-.56-.7-.43-.54.69-.08.89-.1v-7l-.89-.1L38.12,28l.43-.54.56-.7-.63-.63-.87-.87V6.16C37.61.3,22,0,18.8,0Z"/><path class="cls-2" d="M36.33,34.72l.05-.13-.05.13Z"/><path class="cls-2" d="M21.62,39.15c-.92,0-1.86.05-2.82.05A53.26,53.26,0,0,1,7,38C3.47,37.19,2.68,36.25,2.68,36V28.42c3.39,2,11.17,2.62,15.92,2.63V29.38A53.24,53.24,0,0,1,7,28.21c-3.54-.84-4.33-1.79-4.33-2.05V18.74c3.45,2,11.4,2.63,16.12,2.63,1.9,0,4.32-.1,6.76-.34v0h.12c3.59-.37,7.21-1.07,9.25-2.27v3.51l.07.06,1.61,1.61V6.56a1.11,1.11,0,0,0,0-.17,1.94,1.94,0,0,0,0-.24c0-3.46-9.23-5-17.81-5S1,2.69,1,6.15a1.94,1.94,0,0,0,0,.24,1.11,1.11,0,0,0,0,.17V36c0,3.88,11.65,4.9,17.8,4.9,1.29,0,2.81,0,4.41-.15ZM18.8,2.79A51.3,51.3,0,0,1,30.6,4c3.55.87,4.33,1.85,4.33,2.15s-.78,1.27-4.33,2.14A51.3,51.3,0,0,1,18.8,9.5,51.27,51.27,0,0,1,7,8.29C3.46,7.42,2.68,6.45,2.68,6.15S3.46,4.87,7,4A51.27,51.27,0,0,1,18.8,2.79ZM30.6,18.53A53.24,53.24,0,0,1,18.8,19.7,53.21,53.21,0,0,1,7,18.53c-3.54-.84-4.33-1.79-4.33-2.06v-8c3,1.86,9.76,2.72,16.12,2.72s13.09-.86,16.13-2.72v8C34.93,16.74,34.14,17.69,30.6,18.53Z"/><path class="cls-2" d="M29.34,27.09A4.61,4.61,0,1,0,34,31.7,4.61,4.61,0,0,0,29.34,27.09Zm0,7.54a2.94,2.94,0,1,1,2.93-2.93A2.93,2.93,0,0,1,29.34,34.63Z"/><path class="cls-2" d="M36.4,28.85l-.07-.18,1.44-1.81L34.11,23.2,32.3,24.64l-.18-.07-.25-2.3H26.68l-.25,2.3-.18.07L24.44,23.2l-3.66,3.66,1.44,1.81-.07.18-2.3.25v5.19l2.3.25.07.18-1.44,1.81,3.66,3.66,1.81-1.44.18.07.25,2.3h5.19l.25-2.3.18-.07,1.81,1.44,3.66-3.66-1.44-1.81.07-.18,2.3-.25V29.1ZM37,32.79l-1.86.2-.17.52a5.17,5.17,0,0,1-.39.94l-.25.49,1.18,1.46L34,38l-1.46-1.18L32,37a5.17,5.17,0,0,1-.94.39l-.51.17-.21,1.86H28.18L28,37.58l-.52-.17a5.48,5.48,0,0,1-.94-.39L26,36.77,24.57,38,23,36.4l1.17-1.46L24,34.45a5.17,5.17,0,0,1-.39-.94L23.39,33l-1.86-.2V30.6l1.86-.2.17-.52a5.48,5.48,0,0,1,.39-.94l.25-.48L23,27l1.54-1.55L26,26.62l.48-.25a5.48,5.48,0,0,1,.94-.39l.52-.17.2-1.86h2.19l.21,1.86.51.17a5.17,5.17,0,0,1,.94.39l.49.25L34,25.44,35.53,27l-1.18,1.47.25.48a5.48,5.48,0,0,1,.39.94l.17.52,1.86.2Z"/></svg>