<?xml version="1.0" encoding="UTF-8"?>
<svg id="Layer_1" data-name="Layer 1" xmlns="http://www.w3.org/2000/svg" viewBox="0 0 42 39.64">
  <metadata><?xpacket begin="﻿" id="W5M0MpCehiHzreSzNTczkc9d"?>
<x:xmpmeta xmlns:x="adobe:ns:meta/" x:xmptk="Adobe XMP Core 9.1-c002 116.09864a8, 2024/08/02-05:47:26        ">
   <rdf:RDF xmlns:rdf="http://www.w3.org/1999/02/22-rdf-syntax-ns#">
      <rdf:Description rdf:about=""
            xmlns:dc="http://purl.org/dc/elements/1.1/"
            xmlns:xmp="http://ns.adobe.com/xap/1.0/"
            xmlns:xmpMM="http://ns.adobe.com/xap/1.0/mm/"
            xmlns:stEvt="http://ns.adobe.com/xap/1.0/sType/ResourceEvent#"
            xmlns:xmpRights="http://ns.adobe.com/xap/1.0/rights/">
         <dc:subject>
            <rdf:Bag>
               <rdf:li>database</rdf:li>
               <rdf:li>data</rdf:li>
               <rdf:li>data flow</rdf:li>
               <rdf:li>frame</rdf:li>
               <rdf:li>square</rdf:li>
            </rdf:Bag>
         </dc:subject>
         <xmp:MetadataDate>2025-03-20T13:22:52-06:00</xmp:MetadataDate>
         <xmpMM:InstanceID>xmp.iid:b68594e8-7a27-4e62-8e2a-8df4987f484e</xmpMM:InstanceID>
         <xmpMM:DocumentID>xmp.did:2af92a4b-0ab2-4f58-841a-9c7eb5c595c7</xmpMM:DocumentID>
         <xmpMM:OriginalDocumentID>xmp.did:2af92a4b-0ab2-4f58-841a-9c7eb5c595c7</xmpMM:OriginalDocumentID>
         <xmpMM:History>
            <rdf:Seq>
               <rdf:li>
                  <rdf:Description>
                     <stEvt:action>saved</stEvt:action>
                     <stEvt:instanceID>xmp.iid:2af92a4b-0ab2-4f58-841a-9c7eb5c595c7</stEvt:instanceID>
                     <stEvt:when>2025-03-20T13:22:43-06:00</stEvt:when>
                     <stEvt:softwareAgent>Adobe Bridge 2024</stEvt:softwareAgent>
                     <stEvt:changed>/metadata</stEvt:changed>
                  </rdf:Description>
               </rdf:li>
               <rdf:li>
                  <rdf:Description>
                     <stEvt:action>saved</stEvt:action>
                     <stEvt:instanceID>xmp.iid:b68594e8-7a27-4e62-8e2a-8df4987f484e</stEvt:instanceID>
                     <stEvt:when>2025-03-20T13:22:52-06:00</stEvt:when>
                     <stEvt:softwareAgent>Adobe Bridge 2024</stEvt:softwareAgent>
                     <stEvt:changed>/metadata</stEvt:changed>
                  </rdf:Description>
               </rdf:li>
            </rdf:Seq>
         </xmpMM:History>
         <xmpRights:Marked>True</xmpRights:Marked>
         <xmpRights:UsageTerms>
            <rdf:Alt>
               <rdf:li xml:lang="x-default">Oracle All Rights  </rdf:li>
            </rdf:Alt>
         </xmpRights:UsageTerms>
      </rdf:Description>
   </rdf:RDF>
</x:xmpmeta>
                                                                                                    
                                                                                                    
                                                                                                    
                                                                                                    
                                                                                                    
                                                                                                    
                                                                                                    
                                                                                                    
                                                                                                    
                                                                                                    
                                                                                                    
                                                                                                    
                                      
<?xpacket end="w"?></metadata>
<defs>
    <style>
      .cls-1 {
        fill: #2f5967;
      }

      .cls-1, .cls-2 {
        stroke-width: 0px;
      }

      .cls-2 {
        fill: #fff;
      }
    </style>
  </defs>
  <path class="cls-2" d="M42,26.6v9c0,.7-.28,1.7-1.61,2.53-.79.5-1.82.87-3.13,1.12-1.14.22-2.39.34-3.71.34-.77,0-1.51-.05-2.22-.13l.38.18H2.76c-1.52,0-2.76-1.24-2.76-2.76V2.76C0,1.24,1.24,0,2.76,0h34.12c1.52,0,2.76,1.24,2.76,2.76v20.98c.23.11.45.22.66.34,1.29.77,1.63,1.7,1.68,2.36l.01.09.01.07Z"/>
  <g>
    <path class="cls-1" d="M41,35.604c0,.643-.381,1.203-1.143,1.679-.679.429-1.608.757-2.787.983-1.084.214-2.257.321-3.52.321s-2.436-.107-3.52-.321c-1.179-.226-2.108-.554-2.787-.983-.762-.476-1.143-1.036-1.143-1.679v-8.933c0-.643.381-1.203,1.143-1.679.679-.429,1.608-.756,2.787-.983,1.084-.214,2.257-.321,3.52-.321,1.227,0,2.382.101,3.466.304,1.155.227,2.078.542,2.769.947.762.453,1.161.989,1.197,1.608l.018.125v8.933ZM33.618,25.188c-.893,0-1.733.054-2.519.161-.679.096-1.298.232-1.858.411-.464.143-.846.304-1.143.482-.262.155-.405.286-.429.393v.036c0,.107.125.238.375.393.286.179.661.345,1.126.5.56.179,1.185.316,1.876.411.798.119,1.655.179,2.573.179s1.775-.06,2.573-.179c.691-.095,1.316-.232,1.876-.411.465-.155.84-.322,1.126-.5.25-.155.375-.286.375-.393s-.125-.238-.375-.393c-.286-.179-.661-.345-1.126-.5-.56-.179-1.185-.316-1.876-.411-.798-.119-1.656-.179-2.573-.179ZM39.27,28.626l-.072.036-.467.198-.503.162c-.156.048-.311.09-.467.126l-.269.072-.952.179c-.263.048-.533.09-.808.126l-.97.072-.611.036-.7.018c-1.161,0-2.251-.09-3.268-.269-1.113-.203-2.017-.485-2.712-.844v2.604c0,.108.126.24.377.395.287.179.664.347,1.131.503.562.179,1.191.317,1.885.413.802.12,1.664.18,2.586.18s1.784-.06,2.586-.18c.694-.096,1.323-.234,1.885-.413.467-.155.844-.323,1.131-.503.251-.155.377-.287.377-.395v-2.604l-.108.072.108-.072-.162.09ZM27.472,32.948v2.591c0,.107.126.238.377.393.287.179.664.345,1.131.5.562.179,1.191.316,1.885.411.802.119,1.664.179,2.586.179s1.784-.06,2.586-.179c.694-.095,1.323-.232,1.885-.411.467-.155.844-.322,1.131-.5.251-.155.377-.286.377-.393v-2.448c-.611.322-1.377.566-2.299.733-.886.155-1.862.232-2.927.232h-.754c-1.161,0-2.251-.089-3.268-.268-1.113-.19-2.017-.471-2.712-.84Z"/>
    <path class="cls-1" d="M17.205,7.642h-4.822c-.128-.472-.375-.919-.745-1.289-.548-.548-1.277-.85-2.052-.85s-1.504.302-2.052.85c-1.131,1.131-1.131,2.972,0,4.103.548.548,1.277.85,2.052.85s1.504-.302,2.052-.85c0,0,0,0,0,0,.359-.359.603-.789.734-1.246h4.183l4.224,4.224h11.393v-1.568h-10.744l-4.224-4.224ZM10.53,9.347h0c-.252.252-.587.391-.943.391s-.691-.139-.943-.39c-.52-.52-.52-1.366,0-1.885.252-.252.587-.391.943-.391s.691.139.943.391c.52.52.52,1.366,0,1.885Z"/>
    <path class="cls-1" d="M24.963,26.206h-4.184l-4.224,4.224h-4.182c-.131-.456-.375-.887-.734-1.246h0c-.548-.548-1.277-.85-2.052-.85s-1.504.302-2.052.85c-1.131,1.131-1.131,2.972,0,4.103.548.548,1.277.85,2.052.85s1.504-.302,2.052-.85c.37-.37.617-.817.745-1.289h4.822l4.224-4.224h3.494v-1.104c0-.144.012-.3.04-.465ZM10.53,32.179c-.252.252-.587.39-.943.39s-.691-.139-.943-.39c-.52-.52-.52-1.366,0-1.885.252-.252.587-.391.943-.391s.691.139.943.39h0c.52.52.52,1.366,0,1.886Z"/>
    <path class="cls-1" d="M11.639,17.645c-.548-.548-1.277-.85-2.052-.85s-1.504.302-2.052.85c-1.131,1.131-1.131,2.972,0,4.104.548.548,1.277.85,2.052.85s1.504-.302,2.052-.85c0,0,0,0,0,0,.358-.358.608-.793.741-1.267h19.793v-1.568H12.38c-.132-.474-.383-.91-.741-1.267ZM10.53,20.64h0c-.252.252-.587.391-.943.391s-.691-.139-.943-.39c-.52-.52-.52-1.366,0-1.885.252-.252.587-.391.943-.391s.691.139.943.391.39.587.39.943-.139.691-.391.943Z"/>
    <path class="cls-1" d="M25.352,37.073H2.765c-.108,0-.196-.088-.196-.196V2.763c0-.108.088-.196.196-.196h34.114c.108,0,.196.088.196.196v20.046c.052.009.106.016.158.025h.005s.005.002.005.002c.508.1.972.215,1.4.347V2.763c0-.973-.792-1.765-1.765-1.765H2.765c-.973,0-1.765.792-1.765,1.765v34.114c0,.973.792,1.765,1.765,1.765h24.514c-.235-.112-.455-.232-.658-.361-.61-.381-1.011-.798-1.268-1.208Z"/>
  </g>
</svg>