<svg id="Layer_1" data-name="Layer 1" xmlns="http://www.w3.org/2000/svg" viewBox="0 0 40.13 42"><defs><style>.cls-1{fill:#fff;}.cls-2{fill:#2c5967;}</style></defs><title>Managed-Database-MDB2</title><metadata><?xpacket begin="﻿" id="W5M0MpCehiHzreSzNTczkc9d"?>
<x:xmpmeta xmlns:x="adobe:ns:meta/" x:xmptk="Adobe XMP Core 6.0-c006 79.164648, 2021/01/12-15:52:29        ">
   <rdf:RDF xmlns:rdf="http://www.w3.org/1999/02/22-rdf-syntax-ns#">
      <rdf:Description rdf:about=""
            xmlns:xmp="http://ns.adobe.com/xap/1.0/"
            xmlns:xmpMM="http://ns.adobe.com/xap/1.0/mm/"
            xmlns:stEvt="http://ns.adobe.com/xap/1.0/sType/ResourceEvent#"
            xmlns:xmpRights="http://ns.adobe.com/xap/1.0/rights/"
            xmlns:dc="http://purl.org/dc/elements/1.1/"
            xmlns:lr="http://ns.adobe.com/lightroom/1.0/">
         <xmp:MetadataDate>2021-07-22T15:21:02-05:00</xmp:MetadataDate>
         <xmpMM:InstanceID>xmp.iid:ca88ed45-f997-4f84-ac81-c60c77d46452</xmpMM:InstanceID>
         <xmpMM:DocumentID>xmp.did:bf534fc9-9ccb-43bd-8e6c-5e70ea741ccc</xmpMM:DocumentID>
         <xmpMM:OriginalDocumentID>xmp.did:bf534fc9-9ccb-43bd-8e6c-5e70ea741ccc</xmpMM:OriginalDocumentID>
         <xmpMM:History>
            <rdf:Seq>
               <rdf:li>
                  <rdf:Description>
                     <stEvt:action>saved</stEvt:action>
                     <stEvt:instanceID>xmp.iid:bf534fc9-9ccb-43bd-8e6c-5e70ea741ccc</stEvt:instanceID>
                     <stEvt:when>2021-06-18T11:41:55-05:00</stEvt:when>
                     <stEvt:softwareAgent>Adobe Bridge 2021 (Macintosh)</stEvt:softwareAgent>
                     <stEvt:changed>/metadata</stEvt:changed>
                  </rdf:Description>
               </rdf:li>
               <rdf:li>
                  <rdf:Description>
                     <stEvt:action>saved</stEvt:action>
                     <stEvt:instanceID>xmp.iid:ca88ed45-f997-4f84-ac81-c60c77d46452</stEvt:instanceID>
                     <stEvt:when>2021-07-22T15:21:02-05:00</stEvt:when>
                     <stEvt:softwareAgent>Adobe Bridge 2021 (Macintosh)</stEvt:softwareAgent>
                     <stEvt:changed>/metadata</stEvt:changed>
                  </rdf:Description>
               </rdf:li>
            </rdf:Seq>
         </xmpMM:History>
         <xmpRights:Marked>True</xmpRights:Marked>
         <dc:title>
            <rdf:Alt>
               <rdf:li xml:lang="x-default">Managed-Database-MDB2</rdf:li>
            </rdf:Alt>
         </dc:title>
         <dc:subject>
            <rdf:Bag>
               <rdf:li>icon</rdf:li>
               <rdf:li>Data</rdf:li>
               <rdf:li>Data Management</rdf:li>
               <rdf:li>technology</rdf:li>
               <rdf:li>MDB</rdf:li>
            </rdf:Bag>
         </dc:subject>
         <dc:rights>
            <rdf:Alt>
               <rdf:li xml:lang="x-default">Oracle All Rights Reserved</rdf:li>
            </rdf:Alt>
         </dc:rights>
         <lr:hierarchicalSubject>
            <rdf:Bag>
               <rdf:li>icon</rdf:li>
               <rdf:li>Data</rdf:li>
               <rdf:li>Data Management</rdf:li>
               <rdf:li>technology</rdf:li>
            </rdf:Bag>
         </lr:hierarchicalSubject>
      </rdf:Description>
   </rdf:RDF>
</x:xmpmeta>
                                                                                                    
                                                                                                    
                                                                                                    
                                                                                                    
                                                                                                    
                                                                                                    
                                                                                                    
                                                                                                    
                                                                                                    
                                                    
<?xpacket end="w"?></metadata>
<path class="cls-1" d="M15.57,41.5C11,41.27.5,40.29.5,36.07V6.48a1.21,1.21,0,0,1,0-.19,1.77,1.77,0,0,1,0-.23C.5,2,10.42.5,18.91.5S37.32,2,37.32,6.06a1.79,1.79,0,0,1,0,.23,1.23,1.23,0,0,1,0,.19V24.89h.28a2,2,0,0,1,2,2V41.5Z"/><path class="cls-1" d="M18.91,1c8.62,0,17.91,1.58,17.91,5.06a2.29,2.29,0,0,1,0,.25.88.88,0,0,1,0,.17V25.39h.78a1.53,1.53,0,0,1,1.53,1.53V41H15.57C9.26,40.68,1,39.34,1,36.07V26.19H1V16.45H1v-10a.88.88,0,0,1,0-.17,2.29,2.29,0,0,1,0-.25C1,2.58,10.28,1,18.91,1m0-1C15.75,0,0,.29,0,6.06a1.85,1.85,0,0,0,0,.23,1.15,1.15,0,0,0,0,.19v10H0v9.74H0v9.84C0,40.55,9.73,41.71,15.52,42H40.13V26.92a2.53,2.53,0,0,0-2.31-2.52V6.48c0-.07,0-.13,0-.2s0-.15,0-.22C37.82.29,22.07,0,18.91,0Z"/><path class="cls-2" d="M15.57,39.24A47.59,47.59,0,0,1,7,38.14c-3.56-.85-4.35-1.8-4.35-2.07V28.46a20.84,20.84,0,0,0,7,2L11.21,29A38.2,38.2,0,0,1,7,28.26c-3.56-.85-4.35-1.81-4.35-2.07V18.72c3.46,2.05,11.46,2.65,16.22,2.65,1.47,0,3.24-.05,5.1-.19l.62-.62,1.23-1.23a63.38,63.38,0,0,1-6.95.36A53.85,53.85,0,0,1,7,18.52c-3.56-.85-4.35-1.81-4.35-2.07V8.37c3.06,1.87,9.82,2.74,16.22,2.74s13.16-.87,16.22-2.74v8.08c0,.26-.8,1.22-4.35,2.07l-.11,0,1.39,1.39a12.84,12.84,0,0,0,3.07-1.21v5.4h1.69V6.48a.88.88,0,0,0,0-.17,2.29,2.29,0,0,0,0-.25C36.82,2.58,27.53,1,18.91,1S1,2.58,1,6.06a2.29,2.29,0,0,0,0,.25.88.88,0,0,0,0,.17v10H1v9.74H1v9.88c0,3.27,8.26,4.53,14.57,4.84V39.24ZM18.91,2.69A51.86,51.86,0,0,1,30.77,3.9c3.58.88,4.36,1.85,4.36,2.16s-.78,1.28-4.36,2.16A51.86,51.86,0,0,1,18.91,9.43,52,52,0,0,1,7,8.22C3.47,7.34,2.69,6.36,2.69,6.06S3.47,4.78,7,3.9A52,52,0,0,1,18.91,2.69Z"/><polygon class="cls-2" points="30.6 22.65 31.8 21.45 28.66 18.32 25.52 21.45 26.71 22.65 27.82 21.55 27.82 24.03 27.82 24.03 29.5 24.03 29.5 21.55 30.6 22.65"/><polygon class="cls-2" points="9.41 32.72 12.54 35.86 13.74 34.67 12.63 33.57 15.12 33.57 15.12 31.88 12.63 31.88 13.74 30.78 12.54 29.59 9.41 32.72"/><path class="cls-2" d="M37.6,25.39H26.21L25,23.63a1.69,1.69,0,0,0-1.4-.75H18.37a1.53,1.53,0,0,0-1.53,1.53V41H39.13V26.92A1.53,1.53,0,0,0,37.6,25.39ZM18.52,39.31V24.57h5.11l1.68,2.51H37.45V39.31Z"/></svg>