<svg id="Layer_1" data-name="Layer 1" xmlns="http://www.w3.org/2000/svg" viewBox="0 0 31.17 42"><metadata><?xpacket begin="﻿" id="W5M0MpCehiHzreSzNTczkc9d"?>
<x:xmpmeta xmlns:x="adobe:ns:meta/" x:xmptk="Adobe XMP Core 6.0-c006 79.164648, 2021/01/12-15:52:29        ">
   <rdf:RDF xmlns:rdf="http://www.w3.org/1999/02/22-rdf-syntax-ns#">
      <rdf:Description rdf:about=""
            xmlns:dc="http://purl.org/dc/elements/1.1/"
            xmlns:xmpRights="http://ns.adobe.com/xap/1.0/rights/"
            xmlns:xmp="http://ns.adobe.com/xap/1.0/"
            xmlns:xmpMM="http://ns.adobe.com/xap/1.0/mm/"
            xmlns:stEvt="http://ns.adobe.com/xap/1.0/sType/ResourceEvent#">
         <dc:subject>
            <rdf:Bag>
               <rdf:li>icon</rdf:li>
               <rdf:li>server</rdf:li>
               <rdf:li>multiple</rdf:li>
               <rdf:li>instances</rdf:li>
            </rdf:Bag>
         </dc:subject>
         <dc:rights>
            <rdf:Alt>
               <rdf:li xml:lang="x-default">Oracle All Rights&#xA;</rdf:li>
            </rdf:Alt>
         </dc:rights>
         <xmpRights:Marked>True</xmpRights:Marked>
         <xmp:MetadataDate>2023-11-21T17:30:42-06:00</xmp:MetadataDate>
         <xmpMM:InstanceID>xmp.iid:5fac03fc-c916-4c47-ab78-c77a4d305546</xmpMM:InstanceID>
         <xmpMM:DocumentID>xmp.did:5fac03fc-c916-4c47-ab78-c77a4d305546</xmpMM:DocumentID>
         <xmpMM:OriginalDocumentID>xmp.did:5fac03fc-c916-4c47-ab78-c77a4d305546</xmpMM:OriginalDocumentID>
         <xmpMM:History>
            <rdf:Seq>
               <rdf:li>
                  <rdf:Description>
                     <stEvt:action>saved</stEvt:action>
                     <stEvt:instanceID>xmp.iid:5fac03fc-c916-4c47-ab78-c77a4d305546</stEvt:instanceID>
                     <stEvt:when>2023-11-21T17:30:42-06:00</stEvt:when>
                     <stEvt:softwareAgent>Adobe Bridge 2021 (Macintosh)</stEvt:softwareAgent>
                     <stEvt:changed>/metadata</stEvt:changed>
                  </rdf:Description>
               </rdf:li>
            </rdf:Seq>
         </xmpMM:History>
      </rdf:Description>
   </rdf:RDF>
</x:xmpmeta>
                                                                                                    
                                                                                                    
                                                                                                    
                                                                                                    
                                                                                                    
                                                                                                    
                                                                                                    
                                                                                                    
                                                                                                    
                                                                                                    
                                                                                                    
                                                                                                    
                                                                                                    
                                                                                                    
                                                                                                    
                                                                                                    
                                                                                                    
                                                                                                    
                                                                                                    
                                                                                                    
                           
<?xpacket end="w"?></metadata>
<rect x="0.5" y="0.5" width="30.17" height="41" fill="#fff"/><path d="M30.17,1V41H1V1H30.17m1-1H0V42H31.17V0Z" fill="#fff"/><polygon points="2.67 39.33 2.67 2.67 3.5 2.67 3.5 1 1 1 1 41 3.5 41 3.5 39.33 2.67 39.33" fill="#2c5967"/><polygon points="6.42 39.33 6.42 2.67 7.25 2.67 7.25 1 4.75 1 4.75 41 7.25 41 7.25 39.33 6.42 39.33" fill="#2c5967"/><path d="M8.5,1V41H30.17V1Zm20,38.33H10.17V2.67H28.5Z" fill="#2c5967"/><rect x="12.67" y="5.17" width="13.33" height="1.67" fill="#2c5967"/><rect x="12.67" y="8.08" width="13.33" height="1.67" fill="#2c5967"/><rect x="12.67" y="35.17" width="13.33" height="1.67" fill="#2c5967"/><path d="M26,13.92H12.67v5.83H26Zm-1.67,4.16h-10v-2.5h10Z" fill="#2c5967"/><path d="M26,21H12.67v5.83H26Zm-1.67,4.17h-10v-2.5h10Z" fill="#2c5967"/><path d="M26,33.92V28.08H12.67v5.84ZM14.33,29.75h10v2.5h-10Z" fill="#2c5967"/><path d="M12.92,12.7a1.07,1.07,0,0,0,.58.18,1,1,0,0,0,.74-.31,1.07,1.07,0,0,0,.3-.74,1.12,1.12,0,0,0-.17-.58,1.09,1.09,0,0,0-.47-.38,1,1,0,0,0-1.14.23,1.05,1.05,0,0,0-.28.53,1,1,0,0,0,.06.6A1.09,1.09,0,0,0,12.92,12.7Z" fill="#2c5967"/><path d="M15.87,12.23a1.09,1.09,0,0,0,.38.47,1.13,1.13,0,0,0,.58.18,1.06,1.06,0,0,0,1.05-1.05,1.13,1.13,0,0,0-.18-.58,1.06,1.06,0,0,0-1.07-.44,1.08,1.08,0,0,0-.82.82A1,1,0,0,0,15.87,12.23Z" fill="#2c5967"/><path d="M19.2,12.23a1.11,1.11,0,0,0,.39.47,1.07,1.07,0,0,0,.58.18,1,1,0,0,0,.73-.31A1,1,0,0,0,21,11.25a1,1,0,0,0-.46-.38,1.05,1.05,0,0,0-.61-.06,1,1,0,0,0-.53.29,1,1,0,0,0-.28.53A1.11,1.11,0,0,0,19.2,12.23Z" fill="#2c5967"/></svg>