<svg id="Layer_1" data-name="Layer 1" xmlns="http://www.w3.org/2000/svg" viewBox="0 0 23.56 42"><title>Other - Persona_Database Administrator</title><metadata><?xpacket begin="﻿" id="W5M0MpCehiHzreSzNTczkc9d"?>
<x:xmpmeta xmlns:x="adobe:ns:meta/" x:xmptk="Adobe XMP Core 6.0-c006 79.164648, 2021/01/12-15:52:29        ">
   <rdf:RDF xmlns:rdf="http://www.w3.org/1999/02/22-rdf-syntax-ns#">
      <rdf:Description rdf:about=""
            xmlns:dc="http://purl.org/dc/elements/1.1/"
            xmlns:lr="http://ns.adobe.com/lightroom/1.0/"
            xmlns:xmp="http://ns.adobe.com/xap/1.0/"
            xmlns:xmpMM="http://ns.adobe.com/xap/1.0/mm/"
            xmlns:stEvt="http://ns.adobe.com/xap/1.0/sType/ResourceEvent#"
            xmlns:xmpRights="http://ns.adobe.com/xap/1.0/rights/">
         <dc:title>
            <rdf:Alt>
               <rdf:li xml:lang="x-default">Other - Persona_Database Administrator</rdf:li>
            </rdf:Alt>
         </dc:title>
         <dc:subject>
            <rdf:Bag>
               <rdf:li>icon</rdf:li>
               <rdf:li>persona</rdf:li>
               <rdf:li>user</rdf:li>
               <rdf:li>people</rdf:li>
            </rdf:Bag>
         </dc:subject>
         <dc:rights>
            <rdf:Alt>
               <rdf:li xml:lang="x-default">Oracle All Rights Reserved</rdf:li>
            </rdf:Alt>
         </dc:rights>
         <lr:hierarchicalSubject>
            <rdf:Bag>
               <rdf:li>icon</rdf:li>
               <rdf:li>persona</rdf:li>
               <rdf:li>user</rdf:li>
               <rdf:li>people</rdf:li>
            </rdf:Bag>
         </lr:hierarchicalSubject>
         <xmp:MetadataDate>2021-11-23T13:28:06-06:00</xmp:MetadataDate>
         <xmpMM:InstanceID>xmp.iid:28a81733-5b1f-472c-9ca8-485c6a2c5668</xmpMM:InstanceID>
         <xmpMM:DocumentID>xmp.did:200359e1-911a-fb49-9c04-005b24419e21</xmpMM:DocumentID>
         <xmpMM:OriginalDocumentID>xmp.did:200359e1-911a-fb49-9c04-005b24419e21</xmpMM:OriginalDocumentID>
         <xmpMM:History>
            <rdf:Seq>
               <rdf:li>
                  <rdf:Description>
                     <stEvt:action>saved</stEvt:action>
                     <stEvt:instanceID>xmp.iid:200359e1-911a-fb49-9c04-005b24419e21</stEvt:instanceID>
                     <stEvt:when>2021-11-22T15:45:01-06:00</stEvt:when>
                     <stEvt:softwareAgent>Adobe Bridge 2020 (Windows)</stEvt:softwareAgent>
                     <stEvt:changed>/metadata</stEvt:changed>
                  </rdf:Description>
               </rdf:li>
               <rdf:li>
                  <rdf:Description>
                     <stEvt:action>saved</stEvt:action>
                     <stEvt:instanceID>xmp.iid:28a81733-5b1f-472c-9ca8-485c6a2c5668</stEvt:instanceID>
                     <stEvt:when>2021-11-23T13:28:06-06:00</stEvt:when>
                     <stEvt:softwareAgent>Adobe Bridge 2021 (Macintosh)</stEvt:softwareAgent>
                     <stEvt:changed>/metadata</stEvt:changed>
                  </rdf:Description>
               </rdf:li>
            </rdf:Seq>
         </xmpMM:History>
         <xmpRights:Marked>True</xmpRights:Marked>
      </rdf:Description>
   </rdf:RDF>
</x:xmpmeta>
                                                                                                    
                                                                                                    
                                                                                                    
                                                                                                    
                                                                                                    
                                                                                                    
                                                                                                    
                                                                                                    
                                                                                                    
                                                                                                    
           
<?xpacket end="w"?></metadata>
<path d="M11.78,41.5c-2,0-8.35-.21-8.35-3V29.14H.64v0H.5V20.25a5.31,5.31,0,0,1,5.31-5.31h1v-1.5a7.44,7.44,0,1,1,10,0v1.5h1a5.31,5.31,0,0,1,5.31,5.31V29.1h-.14l-.5,0H20.13v9.41C20.13,41.29,13.74,41.5,11.78,41.5Z" fill="#fff"/><path d="M11.78,1a6.94,6.94,0,0,1,4.51,12.21v2.32l.07-.09h1.39a4.82,4.82,0,0,1,4.81,4.81V28.6h-.14v0H19.63v9.91c0,2.38-7,2.45-7.85,2.45s-7.85-.07-7.85-2.45V28.64H1.14v0H1V20.25a4.82,4.82,0,0,1,4.81-4.81H7.2l.07.09V13.21A6.94,6.94,0,0,1,11.78,1m0-1A7.94,7.94,0,0,0,6.27,13.65v.79H5.81A5.82,5.82,0,0,0,0,20.25V29.6H.14l1,0H2.93v8.91c0,3,5.55,3.45,8.85,3.45s8.85-.45,8.85-3.45V29.64h2.79v0h.14V20.25a5.82,5.82,0,0,0-5.81-5.81h-.46v-.79A7.94,7.94,0,0,0,11.78,0Z" fill="#fff"/><path d="M11.78,14.88A6.94,6.94,0,1,0,4.84,7.94,6.94,6.94,0,0,0,11.78,14.88Zm0-12.44a5.5,5.5,0,1,1-5.5,5.5A5.51,5.51,0,0,1,11.78,2.44Z" fill="#2c5967"/><path d="M21.12,20.25a3.38,3.38,0,0,0-3.37-3.37h-.7a6.93,6.93,0,0,1-10.54,0h-.7a3.38,3.38,0,0,0-3.37,3.37V28.6H21.12Z" fill="#fff"/><path d="M22.56,20.25a4.82,4.82,0,0,0-4.81-4.81H16.36l-.22.28a5.5,5.5,0,0,1-8.72,0l-.22-.28H5.81A4.82,4.82,0,0,0,1,20.25V28.6H2.44V20.25a3.38,3.38,0,0,1,3.37-3.37h.7a6.93,6.93,0,0,0,10.54,0h.7a3.38,3.38,0,0,1,3.37,3.37V28.6h1.44Z" fill="#2c5967"/><path d="M11.78,36.77a20.69,20.69,0,0,1-6.4-.92v2.61c.37.39,2.57,1.1,6.4,1.1s6-.71,6.4-1.1V35.85A20.69,20.69,0,0,1,11.78,36.77Z" fill="#fff"/><path d="M11.78,32.6a20.92,20.92,0,0,1-6.4-.91v2.54c.37.39,2.57,1.09,6.4,1.09s6-.7,6.4-1.09V31.69A20.92,20.92,0,0,1,11.78,32.6Z" fill="#fff"/><path d="M11.78,28.27a20.83,20.83,0,0,1-6.4-.9v2.69c.37.39,2.57,1.1,6.4,1.1s6-.71,6.4-1.1V27.37A20.83,20.83,0,0,1,11.78,28.27Z" fill="#fff"/><ellipse cx="11.78" cy="25.84" rx="6.29" ry="0.99" fill="#fff"/><path d="M19.63,25.84c0-2.37-7-2.44-7.85-2.44s-7.85.07-7.85,2.44V38.55C3.93,40.93,11,41,11.78,41s7.85-.07,7.85-2.45V25.93s0,0,0,0A.13.13,0,0,0,19.63,25.84ZM11.78,39.56c-3.83,0-6-.71-6.4-1.1V35.85a20.69,20.69,0,0,0,6.4.92,20.69,20.69,0,0,0,6.4-.92v2.61C17.81,38.85,15.6,39.56,11.78,39.56Zm6.4-5.33c-.37.39-2.58,1.09-6.4,1.09s-6-.7-6.4-1.09V31.69a20.92,20.92,0,0,0,6.4.91,20.92,20.92,0,0,0,6.4-.91Zm0-4.17c-.37.39-2.58,1.1-6.4,1.1s-6-.71-6.4-1.1V27.37a20.83,20.83,0,0,0,6.4.9,20.83,20.83,0,0,0,6.4-.9Zm-.11-4.22c-.6.4-2.76,1-6.29,1s-5.69-.59-6.29-1c.6-.4,2.75-1,6.29-1S17.47,25.44,18.07,25.84Z" fill="#2c5967"/></svg>