<svg id="Layer_1" data-name="Layer 1" xmlns="http://www.w3.org/2000/svg" viewBox="0 0 46.71 42"><title>Database Administrators - Male</title><metadata><?xpacket begin="﻿" id="W5M0MpCehiHzreSzNTczkc9d"?>
<x:xmpmeta xmlns:x="adobe:ns:meta/" x:xmptk="Adobe XMP Core 6.0-c006 79.164648, 2021/01/12-15:52:29        ">
   <rdf:RDF xmlns:rdf="http://www.w3.org/1999/02/22-rdf-syntax-ns#">
      <rdf:Description rdf:about=""
            xmlns:xmpRights="http://ns.adobe.com/xap/1.0/rights/"
            xmlns:xmp="http://ns.adobe.com/xap/1.0/"
            xmlns:xmpMM="http://ns.adobe.com/xap/1.0/mm/"
            xmlns:stEvt="http://ns.adobe.com/xap/1.0/sType/ResourceEvent#"
            xmlns:dc="http://purl.org/dc/elements/1.1/"
            xmlns:lr="http://ns.adobe.com/lightroom/1.0/">
         <xmpRights:Marked>True</xmpRights:Marked>
         <xmp:MetadataDate>2022-01-29T10:33:07-06:00</xmp:MetadataDate>
         <xmpMM:InstanceID>xmp.iid:ca66e05a-7883-4826-882f-b26711ec19f9</xmpMM:InstanceID>
         <xmpMM:DocumentID>xmp.did:66f4b947-6107-7a4d-8474-f2be66fa5c5c</xmpMM:DocumentID>
         <xmpMM:OriginalDocumentID>xmp.did:66f4b947-6107-7a4d-8474-f2be66fa5c5c</xmpMM:OriginalDocumentID>
         <xmpMM:History>
            <rdf:Seq>
               <rdf:li>
                  <rdf:Description>
                     <stEvt:action>saved</stEvt:action>
                     <stEvt:instanceID>xmp.iid:66f4b947-6107-7a4d-8474-f2be66fa5c5c</stEvt:instanceID>
                     <stEvt:when>2022-01-28T20:44:43-06:00</stEvt:when>
                     <stEvt:softwareAgent>Adobe Bridge 2020 (Windows)</stEvt:softwareAgent>
                     <stEvt:changed>/metadata</stEvt:changed>
                  </rdf:Description>
               </rdf:li>
               <rdf:li>
                  <rdf:Description>
                     <stEvt:action>saved</stEvt:action>
                     <stEvt:instanceID>xmp.iid:ca66e05a-7883-4826-882f-b26711ec19f9</stEvt:instanceID>
                     <stEvt:when>2022-01-29T10:33:07-06:00</stEvt:when>
                     <stEvt:softwareAgent>Adobe Bridge 2021 (Macintosh)</stEvt:softwareAgent>
                     <stEvt:changed>/metadata</stEvt:changed>
                  </rdf:Description>
               </rdf:li>
            </rdf:Seq>
         </xmpMM:History>
         <dc:title>
            <rdf:Alt>
               <rdf:li xml:lang="x-default">Database Administrators - Male</rdf:li>
            </rdf:Alt>
         </dc:title>
         <dc:rights>
            <rdf:Alt>
               <rdf:li xml:lang="x-default">Oracle, All rights reserved</rdf:li>
            </rdf:Alt>
         </dc:rights>
         <dc:subject>
            <rdf:Bag>
               <rdf:li>icon</rdf:li>
               <rdf:li>user</rdf:li>
               <rdf:li>person</rdf:li>
               <rdf:li>persona</rdf:li>
               <rdf:li>team</rdf:li>
               <rdf:li>group</rdf:li>
               <rdf:li>data</rdf:li>
            </rdf:Bag>
         </dc:subject>
         <lr:hierarchicalSubject>
            <rdf:Bag>
               <rdf:li>icon</rdf:li>
               <rdf:li>Other Keywords|user</rdf:li>
               <rdf:li>Other Keywords|person</rdf:li>
               <rdf:li>Other Keywords|persona</rdf:li>
               <rdf:li>Other Keywords|team</rdf:li>
            </rdf:Bag>
         </lr:hierarchicalSubject>
      </rdf:Description>
   </rdf:RDF>
</x:xmpmeta>
                                                                                                    
                                                                                                    
                                                                                                    
                                                                                                    
                                                                                                    
                                                                                                    
                                                                                                    
                                                     
<?xpacket end="w"?></metadata>
<path d="M23.25,41.5c-2.25,0-9.58-.24-9.58-3.34v-12H.5l0-4.44a4.66,4.66,0,0,1,2.11-4,5.89,5.89,0,0,1-.42-.64L2,16.62,3.6,10a3.78,3.78,0,0,1,3.6-3.2H8.87a3.71,3.71,0,0,1,3.27,2.16l.06,0,.16.6c0,.14.07.27.1.41l1.39,5.65h1.31a6,6,0,0,1,3.08-.87h.63V13.36a6,6,0,0,1-1.65-4.14V5.39c0-3,1.73-4.89,4.47-4.89H29.5V9.15a6.09,6.09,0,0,1-1.68,4.17V14.7h.66a5.92,5.92,0,0,1,3.07.87h1.38l1.32-5.66.06-.23.15-.63.06,0a3.71,3.71,0,0,1,3.32-2.29h1.67A3.79,3.79,0,0,1,43.12,10l1.64,6.6-.27.47c-.13.23-.27.44-.41.64a4.67,4.67,0,0,1,2.1,4l0,4.44H32.84v12C32.84,41.26,25.5,41.5,23.25,41.5Z" fill="#fff"/><path d="M29,1v.83h0V9.15a5.59,5.59,0,0,1-1.68,4V15.2h1.16a5.47,5.47,0,0,1,2.93.87h1.92l1.41-6c0-.08,0-.15,0-.23l0-.16h0a3.24,3.24,0,0,1,3-2.36h1.67a3.28,3.28,0,0,1,3.11,2.82l1.61,6.45-.17.29a5.58,5.58,0,0,1-.75,1,4.18,4.18,0,0,1,2.37,3.82l0,3.94H32.34V38.16c0,2.76-8.16,2.84-9.09,2.84s-9.08-.08-9.08-2.84V25.64H1l0-3.94A4.18,4.18,0,0,1,3.4,17.87a5.94,5.94,0,0,1-.75-1l-.16-.29,1.6-6.45A3.28,3.28,0,0,1,7.2,7.28H8.87a3.24,3.24,0,0,1,3,2.35h0v0A2.37,2.37,0,0,1,12,10l1.49,6.05h1.85a5.45,5.45,0,0,1,2.93-.87h1.13v-2a5.52,5.52,0,0,1-1.65-3.93V5.35h0c0-2.72,1.49-4.35,4-4.35H29m1-1H21.69a4.67,4.67,0,0,0-4.91,4.35h-.06V9.22a6.46,6.46,0,0,0,1.65,4.33v.65h-.13a6.42,6.42,0,0,0-3.21.87h-.79l-1.3-5.29c0-.11-.06-.26-.1-.41l-.27-.89-.1,0a4.19,4.19,0,0,0-3.6-2.22H7.2A4.3,4.3,0,0,0,3.11,9.9L1.52,16.31l-.1.38.2.35.16.29.17.28A5.17,5.17,0,0,0,0,21.69l0,3.94v1H13.17V38.16c0,3.47,7,3.84,10.08,3.84s10.09-.37,10.09-3.84V26.64H46.71v-1l0-3.94a5.18,5.18,0,0,0-1.92-4.08l.17-.28.16-.29.2-.35-.09-.38L43.6,9.9a4.28,4.28,0,0,0-4.09-3.62H37.84a4.17,4.17,0,0,0-3.58,2.19l-.16,0-.24,1,0,.16q0,.12-.06.27l-1.22,5.23h-.85a6.45,6.45,0,0,0-3.21-.87h-.16v-.69A6.55,6.55,0,0,0,30,9.15V0Z" fill="#fff"/><path d="M13.46,16,12,10a2.37,2.37,0,0,0-.09-.36v0h0a3.24,3.24,0,0,0-3-2.35H7.2A3.28,3.28,0,0,0,4.09,10.1l-1.6,6.45.16.29a5.94,5.94,0,0,0,.75,1A4.18,4.18,0,0,0,1,21.69l0,3.94H2.68l0-3.95a2.48,2.48,0,0,1,2.47-2.54h.47A2.34,2.34,0,0,0,8,21.06a2.34,2.34,0,0,0,2.35-1.86h.42a2.75,2.75,0,0,1,.81.13,6.15,6.15,0,0,1,.5-1.5A7.23,7.23,0,0,1,13.46,16ZM4.6,15a4.39,4.39,0,0,0,1,1.22v1.18a2.78,2.78,0,0,1-1.33-1.1ZM5.71,12.8v-.66A3.68,3.68,0,0,0,8,11.5a3.68,3.68,0,0,0,2.08.65h.24v.66A2.53,2.53,0,0,1,8,15.42,2.51,2.51,0,0,1,5.71,12.8Zm5.76,2.14.34,1.35a2.85,2.85,0,0,1-1.4,1.13v-1.2A4.4,4.4,0,0,0,11.47,14.94ZM7.2,9H8.87a1.56,1.56,0,0,1,1.4,1.16l.06.26s0,.06,0,.1A2.25,2.25,0,0,1,8.6,9.82L8,9.31l-.56.51a2.24,2.24,0,0,1-1.76.65v0l.1-.4h0A1.55,1.55,0,0,1,7.2,9ZM8,19.39a.68.68,0,0,1-.74-.62V17A3.65,3.65,0,0,0,8,17.1,3.45,3.45,0,0,0,8.73,17v1.74A.67.67,0,0,1,8,19.39Z" fill="#2c5967"/><path d="M45.68,21.69a4.18,4.18,0,0,0-2.37-3.82,5.58,5.58,0,0,0,.75-1l.17-.29L42.62,10.1a3.28,3.28,0,0,0-3.11-2.82H37.84a3.24,3.24,0,0,0-3,2.36h0l0,.16c0,.08,0,.15,0,.23l-1.41,6a6.56,6.56,0,0,1,1.29,1.82.61.61,0,0,0,.05.12c0,.08.07.16.11.25v0l.12.32h0a7.27,7.27,0,0,1,.22.8,2.64,2.64,0,0,1,.81-.13h.41a2.43,2.43,0,0,0,4.73,0h.45A2.49,2.49,0,0,1,44,21.7l0,3.94h1.67Zm-9.37-4.3A2.78,2.78,0,0,1,35,16.29l.3-1.28a4.3,4.3,0,0,0,1,1.21Zm0-4.59v-.66h.24a3.66,3.66,0,0,0,2.08-.65,3.69,3.69,0,0,0,2.33.64v.66a2.51,2.51,0,0,1-2.29,2.62A2.53,2.53,0,0,1,36.35,12.8ZM42.12,15l.32,1.3a2.78,2.78,0,0,1-1.33,1.1V16.21A4.42,4.42,0,0,0,42.12,15ZM37.84,9h1.67A1.56,1.56,0,0,1,40.89,10h0l.11.4v0a2.21,2.21,0,0,1-1.75-.65l-.57-.51-.56.51a2.21,2.21,0,0,1-1.75.65s0-.07,0-.1l0-.22A1.57,1.57,0,0,1,37.84,9Zm.87,10.44a.67.67,0,0,1-.73-.63V17a3.47,3.47,0,0,0,.73.08,3.55,3.55,0,0,0,.73-.08v1.75A.67.67,0,0,1,38.71,19.39Z" fill="#2c5967"/><path d="M28.48,15.2H27.32V13.11a5.59,5.59,0,0,0,1.68-4V1.84h0V1H21.69c-2.48,0-4,1.63-4,4.35h0V9.22a5.52,5.52,0,0,0,1.65,3.93v2H18.24a5.57,5.57,0,0,0-5.35,4.17h1.77a3.92,3.92,0,0,1,3.58-2.5h1.54l3.55,2.82,3.54-2.82h1.61a3.91,3.91,0,0,1,3.57,2.5h1.77A5.56,5.56,0,0,0,28.48,15.2ZM21.69,2.67h5.58C27,4.55,25.8,4.55,25.37,4.55H19.45A2.05,2.05,0,0,1,21.69,2.67Zm3.68,3.55a3.49,3.49,0,0,0,1.95-.54V9.15a4,4,0,0,1-4,4,3.94,3.94,0,0,1-4-3.89v-3Zm-2,11.33L21,15.73V14.29a5.81,5.81,0,0,0,2.32.49,5.55,5.55,0,0,0,2.29-.5v1.43Z" fill="#2c5967"/><path d="M23.25,20.63c-.93,0-9.08.08-9.08,2.82V38.16c0,2.76,8.15,2.84,9.08,2.84s9.09-.08,9.09-2.84V23.55a0,0,0,0,0,0,0,.2.2,0,0,0,0-.07C32.34,20.71,24.18,20.63,23.25,20.63Zm0,18.7c-4.43,0-7-.81-7.41-1.27V35c2.43,1,6.75,1.06,7.41,1.06s5,0,7.42-1.06v3C30.24,38.52,27.68,39.33,23.25,39.33Zm7.42-6.17c-.43.45-3,1.27-7.42,1.27s-7-.82-7.41-1.27V30.22c2.43,1,6.75,1.05,7.41,1.05s5,0,7.42-1.05Zm0-4.82c-.43.45-3,1.26-7.42,1.26s-7-.81-7.41-1.26V25.22c2.43,1,6.75,1.05,7.41,1.05s5,0,7.42-1.05Zm-.13-4.89c-.7.45-3.2,1.14-7.29,1.14S16.66,23.9,16,23.45c.69-.46,3.19-1.15,7.28-1.15S29.84,23,30.54,23.45Z" fill="#2c5967"/></svg>