<svg id="Layer_1" data-name="Layer 1" xmlns="http://www.w3.org/2000/svg" viewBox="0 0 48.41 42"><metadata><?xpacket begin="﻿" id="W5M0MpCehiHzreSzNTczkc9d"?>
<x:xmpmeta xmlns:x="adobe:ns:meta/" x:xmptk="Adobe XMP Core 6.0-c006 79.164648, 2021/01/12-15:52:29        ">
   <rdf:RDF xmlns:rdf="http://www.w3.org/1999/02/22-rdf-syntax-ns#">
      <rdf:Description rdf:about=""
            xmlns:dc="http://purl.org/dc/elements/1.1/"
            xmlns:xmp="http://ns.adobe.com/xap/1.0/"
            xmlns:xmpMM="http://ns.adobe.com/xap/1.0/mm/"
            xmlns:stEvt="http://ns.adobe.com/xap/1.0/sType/ResourceEvent#"
            xmlns:lr="http://ns.adobe.com/lightroom/1.0/">
         <dc:subject>
            <rdf:Bag>
               <rdf:li>icon</rdf:li>
               <rdf:li>service</rdf:li>
               <rdf:li>microsoft</rdf:li>
               <rdf:li>azure</rdf:li>
               <rdf:li>partner</rdf:li>
            </rdf:Bag>
         </dc:subject>
         <xmp:MetadataDate>2022-12-08T14:01:11-06:00</xmp:MetadataDate>
         <xmpMM:InstanceID>xmp.iid:5a8bb2fa-ecb7-420c-8096-9dd6d416cc34</xmpMM:InstanceID>
         <xmpMM:DocumentID>xmp.did:07c94261-7c28-4244-83d1-bf9c91544758</xmpMM:DocumentID>
         <xmpMM:OriginalDocumentID>xmp.did:07c94261-7c28-4244-83d1-bf9c91544758</xmpMM:OriginalDocumentID>
         <xmpMM:History>
            <rdf:Seq>
               <rdf:li>
                  <rdf:Description>
                     <stEvt:action>saved</stEvt:action>
                     <stEvt:instanceID>xmp.iid:07c94261-7c28-4244-83d1-bf9c91544758</stEvt:instanceID>
                     <stEvt:when>2022-12-08T13:53:55-06:00</stEvt:when>
                     <stEvt:softwareAgent>Adobe Bridge 2021 (Macintosh)</stEvt:softwareAgent>
                     <stEvt:changed>/metadata</stEvt:changed>
                  </rdf:Description>
               </rdf:li>
               <rdf:li>
                  <rdf:Description>
                     <stEvt:action>saved</stEvt:action>
                     <stEvt:instanceID>xmp.iid:5a8bb2fa-ecb7-420c-8096-9dd6d416cc34</stEvt:instanceID>
                     <stEvt:when>2022-12-08T14:01:11-06:00</stEvt:when>
                     <stEvt:softwareAgent>Adobe Bridge 2021 (Macintosh)</stEvt:softwareAgent>
                     <stEvt:changed>/metadata</stEvt:changed>
                  </rdf:Description>
               </rdf:li>
            </rdf:Seq>
         </xmpMM:History>
         <lr:hierarchicalSubject>
            <rdf:Bag>
               <rdf:li>Other Keywords|icon</rdf:li>
            </rdf:Bag>
         </lr:hierarchicalSubject>
      </rdf:Description>
   </rdf:RDF>
</x:xmpmeta>
                                                                                                    
                                                                                                    
                                                                                                    
                                                                                                    
                                                                                                    
                                                                                                    
                                                                                                    
                                                                                                    
                                                                                                    
                                                                                                    
                                                                                                    
                                                                                                    
                                                                                                    
 
<?xpacket end="w"?></metadata>
<path d="M10.2,21.59h-6a8.51,8.51,0,0,1,4.41-5.9,5.11,5.11,0,0,0,2.66-3.54,5.93,5.93,0,0,1,3.43-4.29,6,6,0,0,1,2.39-.51,5.07,5.07,0,0,1,.55,0,4.18,4.18,0,0,0,.5,0,4.93,4.93,0,0,0,3.65-1.57,7.87,7.87,0,0,1,5.74-2.51,7.79,7.79,0,0,1,7,4.34A5.14,5.14,0,0,0,38,10.39a8.23,8.23,0,0,1,2.55,1,8.09,8.09,0,0,1,3,10.15H38.2v1.9h6.6l.27-.5A10,10,0,0,0,41.6,9.84a9.77,9.77,0,0,0-3.15-1.3,3.27,3.27,0,0,1-2.23-1.73A9.72,9.72,0,0,0,20.38,4.54a3.08,3.08,0,0,1-2.26,1l-.32,0c-.24,0-.48,0-.73,0a7.82,7.82,0,0,0-7.68,6.32A3.21,3.21,0,0,1,7.71,14a10.39,10.39,0,0,0-5.56,8.46l-.07,1H10.2Z" fill="#2c5967"/><path d="M1.42,33c0,4.2,10.2,7.6,22.78,7.6S47,37.18,47,33c0-2.33-3.32-4.74-8.78-6v2l1.66.52c3.69,1.23,5.2,2.7,5.2,3.56s-1.67,2.34-5.36,3.57a51,51,0,0,1-15.5,2.13A61.23,61.23,0,0,1,15,38v.05l-1.69-.32c-.68-.13-1.35-.28-2-.43l-1.09-.26v0c-.51-.15-1-.3-1.49-.46C5,35.32,3.34,33.84,3.34,33S5,30.64,8.71,29.41c.43-.14.88-.28,1.35-.41V27C4.8,28.42,1.42,30.57,1.42,33Z" fill="#2c5967"/><path d="M45.46,28.4a20.9,20.9,0,0,0-6.92-2.86l-.34-.08v-.54h7.45l.4-.75.27-.5a11.42,11.42,0,0,0-4-15,11.28,11.28,0,0,0-3.61-1.48,1.85,1.85,0,0,1-1.26-1,11.15,11.15,0,0,0-18.15-2.6,1.64,1.64,0,0,1-1.22.51h-.18c-.29,0-.58,0-.87,0A9.29,9.29,0,0,0,8,11.51a1.79,1.79,0,0,1-.94,1.24A11.81,11.81,0,0,0,.73,22.37l-.07,1L.54,24.92H10.2v.6l-.51.14C3.44,27.31,0,29.91,0,33c0,1.91,1.33,4.62,7.65,6.72A54.4,54.4,0,0,0,24.2,42a54.43,54.43,0,0,0,16.56-2.3c6.32-2.1,7.65-4.81,7.65-6.72C48.41,31.84,47.89,30.11,45.46,28.4ZM2.15,22.47A10.39,10.39,0,0,1,7.71,14a3.21,3.21,0,0,0,1.68-2.23,7.82,7.82,0,0,1,7.68-6.32c.25,0,.49,0,.73,0l.32,0a3.08,3.08,0,0,0,2.26-1A9.72,9.72,0,0,1,36.22,6.81a3.27,3.27,0,0,0,2.23,1.73,9.77,9.77,0,0,1,3.15,1.3A10,10,0,0,1,45.07,23l-.27.5H38.2v-1.9h5.44a8.09,8.09,0,0,0-3-10.15,8.23,8.23,0,0,0-2.55-1,5.14,5.14,0,0,1-3.52-2.73,7.79,7.79,0,0,0-7-4.34,7.87,7.87,0,0,0-5.74,2.51A4.93,4.93,0,0,1,18.12,7.4a4.18,4.18,0,0,1-.5,0,5.07,5.07,0,0,0-.55,0,6,6,0,0,0-2.39.51,5.93,5.93,0,0,0-3.43,4.29,5.11,5.11,0,0,1-2.66,3.54,8.51,8.51,0,0,0-4.41,5.9h6v1.9H2.08Zm9.48,1.78v-6.8a.25.25,0,0,1,0-.08.53.53,0,0,1,0-.13c0-1.3,1.35-2.27,4.12-2.95a36.31,36.31,0,0,1,8.45-.88,36.31,36.31,0,0,1,8.45.88c2.78.68,4.13,1.65,4.13,2.95,0,.05,0,.09,0,.13s0,.06,0,.08V35.81c-.61.16-1.24.3-1.9.44V33.17a11.66,11.66,0,0,1-2.23.73,37.62,37.62,0,0,1-8.45.84,37.59,37.59,0,0,1-8.44-.84,11.66,11.66,0,0,1-2.23-.73v3.17c-.66-.13-1.29-.26-1.9-.41V24.25ZM10.06,29c-.47.13-.92.27-1.35.41C5,30.64,3.34,32.12,3.34,33S5,35.32,8.71,36.55c.48.16,1,.31,1.49.46v0l1.09.26c.62.15,1.29.3,2,.43l1.69.32V38a61.23,61.23,0,0,0,9.25.67,51,51,0,0,0,15.5-2.13c3.69-1.23,5.36-2.71,5.36-3.57s-1.51-2.33-5.2-3.56L38.2,28.9v-2C43.66,28.24,47,30.65,47,33c0,4.2-10.2,7.6-22.78,7.6S1.42,37.18,1.42,33c0-2.41,3.38-4.56,8.64-5.95Z" fill="#fff"/><path d="M11.63,31v4.92c.61.15,1.24.28,1.9.41V33.17a11.66,11.66,0,0,0,2.23.73,37.59,37.59,0,0,0,8.44.84,37.62,37.62,0,0,0,8.45-.84,11.66,11.66,0,0,0,2.23-.73v3.08c.66-.14,1.29-.28,1.9-.44V17.45s0-.05,0-.08,0-.08,0-.13c0-1.3-1.35-2.27-4.13-2.95a36.31,36.31,0,0,0-8.45-.88,36.31,36.31,0,0,0-8.45.88c-2.77.68-4.12,1.65-4.12,2.95a.53.53,0,0,0,0,.13.25.25,0,0,0,0,.08V31ZM24.2,15.31c6.29,0,10.12,1.21,10.65,1.93-.53.73-4.36,1.93-10.65,1.93S14.09,18,13.55,17.24C14.09,16.52,17.91,15.31,24.2,15.31Zm9.61,2.89ZM13.53,19.45a11.92,11.92,0,0,0,2.22.75,36.91,36.91,0,0,0,8.45.87,36.91,36.91,0,0,0,8.45-.87,12.3,12.3,0,0,0,2.23-.75v4.74c-.46.69-4.33,1.89-10.68,1.89S14,24.88,13.53,24.19Zm0,7a13.26,13.26,0,0,0,2.23.73A38.18,38.18,0,0,0,24.2,28a38.21,38.21,0,0,0,8.45-.84,13.26,13.26,0,0,0,2.23-.73V31c-.46.7-4.33,1.9-10.68,1.9S14,31.65,13.53,31Z" fill="#2c5967"/><path d="M24.2,32.85c6.35,0,10.22-1.2,10.68-1.9V26.41a13.26,13.26,0,0,1-2.23.73A38.21,38.21,0,0,1,24.2,28a38.18,38.18,0,0,1-8.44-.84,13.26,13.26,0,0,1-2.23-.73V31C14,31.65,17.86,32.85,24.2,32.85Z" fill="#fff"/><path d="M24.2,19.17c6.29,0,10.12-1.2,10.65-1.93-.53-.72-4.36-1.93-10.65-1.93s-10.11,1.21-10.65,1.93C14.09,18,17.91,19.17,24.2,19.17Z" fill="#fff"/><path d="M24.2,26.08c6.35,0,10.22-1.2,10.68-1.89V19.45a12.3,12.3,0,0,1-2.23.75,36.91,36.91,0,0,1-8.45.87,36.91,36.91,0,0,1-8.45-.87,11.92,11.92,0,0,1-2.22-.75v4.74C14,24.88,17.86,26.08,24.2,26.08Z" fill="#fff"/></svg>