<svg id="Layer_1" data-name="Layer 1" xmlns="http://www.w3.org/2000/svg" viewBox="0 0 37.61 42.23"><title>Other - Dashed-Database</title><metadata><?xpacket begin="﻿" id="W5M0MpCehiHzreSzNTczkc9d"?>
<x:xmpmeta xmlns:x="adobe:ns:meta/" x:xmptk="Adobe XMP Core 6.0-c006 79.164648, 2021/01/12-15:52:29        ">
   <rdf:RDF xmlns:rdf="http://www.w3.org/1999/02/22-rdf-syntax-ns#">
      <rdf:Description rdf:about=""
            xmlns:xmp="http://ns.adobe.com/xap/1.0/"
            xmlns:xmpMM="http://ns.adobe.com/xap/1.0/mm/"
            xmlns:stEvt="http://ns.adobe.com/xap/1.0/sType/ResourceEvent#"
            xmlns:dc="http://purl.org/dc/elements/1.1/"
            xmlns:xmpRights="http://ns.adobe.com/xap/1.0/rights/">
         <xmp:MetadataDate>2021-11-23T13:28:02-06:00</xmp:MetadataDate>
         <xmpMM:InstanceID>xmp.iid:0291982c-dc74-471e-a34f-1bec64e63343</xmpMM:InstanceID>
         <xmpMM:DocumentID>xmp.did:afb32e6c-4456-4b6f-90d3-2d3c91fad462</xmpMM:DocumentID>
         <xmpMM:OriginalDocumentID>xmp.did:afb32e6c-4456-4b6f-90d3-2d3c91fad462</xmpMM:OriginalDocumentID>
         <xmpMM:History>
            <rdf:Seq>
               <rdf:li>
                  <rdf:Description>
                     <stEvt:action>saved</stEvt:action>
                     <stEvt:instanceID>xmp.iid:afb32e6c-4456-4b6f-90d3-2d3c91fad462</stEvt:instanceID>
                     <stEvt:when>2021-11-22T11:59:51-06:00</stEvt:when>
                     <stEvt:softwareAgent>Adobe Bridge 2021 (Macintosh)</stEvt:softwareAgent>
                     <stEvt:changed>/metadata</stEvt:changed>
                  </rdf:Description>
               </rdf:li>
               <rdf:li>
                  <rdf:Description>
                     <stEvt:action>saved</stEvt:action>
                     <stEvt:instanceID>xmp.iid:0291982c-dc74-471e-a34f-1bec64e63343</stEvt:instanceID>
                     <stEvt:when>2021-11-23T13:28:02-06:00</stEvt:when>
                     <stEvt:softwareAgent>Adobe Bridge 2021 (Macintosh)</stEvt:softwareAgent>
                     <stEvt:changed>/metadata</stEvt:changed>
                  </rdf:Description>
               </rdf:li>
            </rdf:Seq>
         </xmpMM:History>
         <dc:title>
            <rdf:Alt>
               <rdf:li xml:lang="x-default">Other - Dashed-Database</rdf:li>
            </rdf:Alt>
         </dc:title>
         <dc:subject>
            <rdf:Bag>
               <rdf:li>icon</rdf:li>
               <rdf:li>technology</rdf:li>
            </rdf:Bag>
         </dc:subject>
         <dc:rights>
            <rdf:Alt>
               <rdf:li xml:lang="x-default">Oracle All Rights Reserved</rdf:li>
            </rdf:Alt>
         </dc:rights>
         <xmpRights:Marked>True</xmpRights:Marked>
      </rdf:Description>
   </rdf:RDF>
</x:xmpmeta>
                                                                                                    
                                                                                                    
                                                                                                    
                                                                                                    
                                                                                                    
                                                                                                    
                                                                                                    
                                                                                                    
                                                                                                    
                                                                                                    
                                                                                                    
                                                                                                   
<?xpacket end="w"?></metadata>
<path d="M18.8,41.5C16.93,41.5.5,41.35.5,36V6.16C.5.66,16.93.5,18.8.5S37.11.66,37.11,6.16V36C37.11,41.35,20.68,41.5,18.8,41.5Z" fill="#fff"/><path d="M18.8,1C25,1,36.61,2.08,36.61,6.16V36c0,4-11.65,5-17.81,5S1,40,1,36V6.16C1,2.08,12.65,1,18.8,1m0-1C15.66,0,0,.3,0,6.16V36c0,5.73,15.66,6,18.8,6s18.81-.29,18.81-6V6.16C37.61.3,22,0,18.8,0Z" fill="#fff"/><rect x="0.89" y="29.42" width="1.69" height="3.83" fill="#2c5967"/><path d="M4,39a23.06,23.06,0,0,0,3.83,1l.33-1.65a21.39,21.39,0,0,1-3.55-1Z" fill="#2c5967"/><path d="M2.58,36.07V34.52H.89v1.55c0,.9.63,1.7,1.86,2.38L3.56,37C2.79,36.54,2.58,36.21,2.58,36.07Z" fill="#2c5967"/><rect x="35.03" y="9.02" width="1.69" height="3.77" fill="#2c5967"/><path d="M24.46,39.08l.14,1.68c1.36-.11,2.66-.27,3.87-.46l-.27-1.67C27,38.82,25.78,39,24.46,39.08Z" fill="#2c5967"/><rect x="0.89" y="9.01" width="1.69" height="3.78" fill="#2c5967"/><path d="M35,36.07c0,.14-.21.48-1,.9l.81,1.48c1.24-.67,1.86-1.47,1.87-2.38V34.53H35Z" fill="#2c5967"/><rect x="0.89" y="19.21" width="1.69" height="3.83" fill="#2c5967"/><path d="M19.43,39.31V41c1.31,0,2.62-.06,3.87-.14l-.1-1.68C22,39.26,20.71,39.3,19.43,39.31Z" fill="#2c5967"/><rect x="35.03" y="29.43" width="1.69" height="3.83" fill="#2c5967"/><path d="M9.13,40.29c1.2.2,2.5.36,3.86.47l.14-1.68c-1.32-.11-2.57-.26-3.73-.45Z" fill="#2c5967"/><path d="M29.43,38.41l.32,1.66a24.08,24.08,0,0,0,3.83-1L33,37.45A20.7,20.7,0,0,1,29.43,38.41Z" fill="#2c5967"/><path d="M14.28,40.86c1.26.08,2.56.13,3.87.14l0-1.69c-1.28,0-2.55-.05-3.78-.13Z" fill="#2c5967"/><rect x="35.03" y="19.23" width="1.69" height="3.83" fill="#2c5967"/><path d="M.89,25v3.13h1.2a9.34,9.34,0,0,0,2.55,1.22l.53-1.6c-2-.66-2.55-1.3-2.59-1.55h0V24.38H.89Z" fill="#2c5967"/><path d="M10.24,28.87a32.32,32.32,0,0,1-3.84-.75L6,29.75a35.33,35.33,0,0,0,4,.79Z" fill="#2c5967"/><path d="M26.05,29c-1.26.14-2.58.25-3.95.31L22.18,31c1.4-.07,2.77-.18,4.06-.33Z" fill="#2c5967"/><path d="M20.78,29.4c-.65,0-1.32,0-2,0s-1.35,0-2,0l-.05,1.69c.66,0,1.35,0,2,0s1.36,0,2,0Z" fill="#2c5967"/><path d="M31.2,28.13a34.35,34.35,0,0,1-3.85.74l.24,1.67a35.25,35.25,0,0,0,4-.78Z" fill="#2c5967"/><path d="M15.49,29.35c-1.36-.06-2.69-.17-3.94-.31l-.19,1.67c1.29.15,2.65.26,4.05.33Z" fill="#2c5967"/><path d="M35,25v1.21h0s-.15.72-2.6,1.54l.53,1.6a9.43,9.43,0,0,0,2.54-1.2h1.22V24.38H35Z" fill="#2c5967"/><path d="M.89,14.11v3.82h.66a7.51,7.51,0,0,0,3.12,1.7L5.2,18c-1.95-.65-2.56-1.28-2.62-1.55h0V14.05H.89Z" fill="#2c5967"/><path d="M20.78,19.66c-1.32,0-2.66,0-4,0l-.05,1.69c.67,0,1.36,0,2,0s1.36,0,2,0Z" fill="#2c5967"/><path d="M26,19.3c-1.25.14-2.57.25-3.93.31l.08,1.69c1.39-.07,2.75-.18,4-.32Z" fill="#2c5967"/><path d="M11.57,19.3,11.38,21c1.28.15,2.64.26,4,.33l.08-1.69C14.14,19.55,12.82,19.44,11.57,19.3Z" fill="#2c5967"/><path d="M31.17,18.39a36.9,36.9,0,0,1-3.84.75l.24,1.66a35.49,35.49,0,0,0,4-.78Z" fill="#2c5967"/><path d="M6.43,18.39,6,20a35.06,35.06,0,0,0,4,.78l.24-1.67A34.59,34.59,0,0,1,6.43,18.39Z" fill="#2c5967"/><path d="M35,14.12v2.36h0c-.06.27-.68.9-2.63,1.55l.53,1.6A7.65,7.65,0,0,0,36,18h.68v-3.9H35Z" fill="#2c5967"/><path d="M2.34,8.23l.93-1.4c-.51-.34-.69-.63-.69-.78s.18-.43.69-.77l-.93-1.4a2.88,2.88,0,0,0-1.45,2h0v1.9h.82A4.78,4.78,0,0,0,2.34,8.23Z" fill="#2c5967"/><path d="M13,9.17c-1.35-.12-2.64-.29-3.82-.5l-.29,1.67c1.23.21,2.56.38,4,.51Z" fill="#2c5967"/><path d="M7.89,8.43A18.31,18.31,0,0,1,4.3,7.36L3.63,8.91a20.59,20.59,0,0,0,3.92,1.17Z" fill="#2c5967"/><path d="M7.91,3.67,7.56,2A21.84,21.84,0,0,0,3.64,3.19l.67,1.55A19.68,19.68,0,0,1,7.91,3.67Z" fill="#2c5967"/><path d="M13,2.94l-.15-1.68c-1.4.13-2.73.3-4,.51l.29,1.66C10.35,3.23,11.63,3.06,13,2.94Z" fill="#2c5967"/><path d="M18.14,2.69l0-1.69c-1.34,0-2.68.07-4,.15l.12,1.69C15.53,2.75,16.83,2.7,18.14,2.69Z" fill="#2c5967"/><path d="M18.13,9.42c-1.32,0-2.62-.06-3.87-.15L14.14,11c1.29.09,2.62.14,4,.16Z" fill="#2c5967"/><path d="M28.7,1.77c-1.23-.22-2.56-.39-4-.51l-.15,1.67c1.36.13,2.64.29,3.82.5Z" fill="#2c5967"/><path d="M33.92,8.94l-.66-1.55a20.25,20.25,0,0,1-3.6,1.06L30,10.1A21.9,21.9,0,0,0,33.92,8.94Z" fill="#2c5967"/><path d="M33.93,3.18A20,20,0,0,0,30,2l-.35,1.65a19.44,19.44,0,0,1,3.6,1.06Z" fill="#2c5967"/><path d="M23.42,1.15c-1.29-.09-2.63-.14-4-.15l0,1.69c1.31,0,2.62.06,3.87.14Z" fill="#2c5967"/><path d="M34.29,6.85l.91,1.42a4.45,4.45,0,0,0,.7-.54h.82V5.83h0a2.9,2.9,0,0,0-1.5-2L34.3,5.26c.54.35.73.64.73.79S34.84,6.5,34.29,6.85Z" fill="#2c5967"/><path d="M28.69,10.35,28.4,8.69c-1.18.2-2.47.36-3.82.49l.15,1.67C26.13,10.73,27.46,10.56,28.69,10.35Z" fill="#2c5967"/><path d="M23.4,11l-.11-1.68c-1.26.08-2.56.13-3.87.14v1.69C20.78,11.1,22.12,11.05,23.4,11Z" fill="#2c5967"/></svg>