<svg id="Layer_1" data-name="Layer 1" xmlns="http://www.w3.org/2000/svg" viewBox="0 0 57.54 42"><defs><style>.cls-1{fill:#fff;}.cls-2{fill:#2c5967;}</style></defs><title>Managed-Database-MDB</title><metadata><?xpacket begin="﻿" id="W5M0MpCehiHzreSzNTczkc9d"?>
<x:xmpmeta xmlns:x="adobe:ns:meta/" x:xmptk="Adobe XMP Core 6.0-c006 79.164648, 2021/01/12-15:52:29        ">
   <rdf:RDF xmlns:rdf="http://www.w3.org/1999/02/22-rdf-syntax-ns#">
      <rdf:Description rdf:about=""
            xmlns:xmp="http://ns.adobe.com/xap/1.0/"
            xmlns:xmpMM="http://ns.adobe.com/xap/1.0/mm/"
            xmlns:stEvt="http://ns.adobe.com/xap/1.0/sType/ResourceEvent#"
            xmlns:xmpRights="http://ns.adobe.com/xap/1.0/rights/"
            xmlns:dc="http://purl.org/dc/elements/1.1/"
            xmlns:lr="http://ns.adobe.com/lightroom/1.0/">
         <xmp:MetadataDate>2021-07-22T15:21:02-05:00</xmp:MetadataDate>
         <xmpMM:InstanceID>xmp.iid:bd07314b-c176-41e8-8a55-580e1974d77d</xmpMM:InstanceID>
         <xmpMM:DocumentID>xmp.did:7fd9ccd9-d91f-44bd-8376-af24b8482b38</xmpMM:DocumentID>
         <xmpMM:OriginalDocumentID>xmp.did:7fd9ccd9-d91f-44bd-8376-af24b8482b38</xmpMM:OriginalDocumentID>
         <xmpMM:History>
            <rdf:Seq>
               <rdf:li>
                  <rdf:Description>
                     <stEvt:action>saved</stEvt:action>
                     <stEvt:instanceID>xmp.iid:7fd9ccd9-d91f-44bd-8376-af24b8482b38</stEvt:instanceID>
                     <stEvt:when>2021-06-18T11:41:55-05:00</stEvt:when>
                     <stEvt:softwareAgent>Adobe Bridge 2021 (Macintosh)</stEvt:softwareAgent>
                     <stEvt:changed>/metadata</stEvt:changed>
                  </rdf:Description>
               </rdf:li>
               <rdf:li>
                  <rdf:Description>
                     <stEvt:action>saved</stEvt:action>
                     <stEvt:instanceID>xmp.iid:bd07314b-c176-41e8-8a55-580e1974d77d</stEvt:instanceID>
                     <stEvt:when>2021-07-22T15:21:02-05:00</stEvt:when>
                     <stEvt:softwareAgent>Adobe Bridge 2021 (Macintosh)</stEvt:softwareAgent>
                     <stEvt:changed>/metadata</stEvt:changed>
                  </rdf:Description>
               </rdf:li>
            </rdf:Seq>
         </xmpMM:History>
         <xmpRights:Marked>True</xmpRights:Marked>
         <dc:title>
            <rdf:Alt>
               <rdf:li xml:lang="x-default">Managed-Database-MDB</rdf:li>
            </rdf:Alt>
         </dc:title>
         <dc:subject>
            <rdf:Bag>
               <rdf:li>icon</rdf:li>
               <rdf:li>Data</rdf:li>
               <rdf:li>Data Management</rdf:li>
               <rdf:li>technology</rdf:li>
               <rdf:li>MDB</rdf:li>
            </rdf:Bag>
         </dc:subject>
         <dc:rights>
            <rdf:Alt>
               <rdf:li xml:lang="x-default">Oracle All Rights Reserved</rdf:li>
            </rdf:Alt>
         </dc:rights>
         <lr:hierarchicalSubject>
            <rdf:Bag>
               <rdf:li>icon</rdf:li>
               <rdf:li>Data</rdf:li>
               <rdf:li>Data Management</rdf:li>
               <rdf:li>technology</rdf:li>
            </rdf:Bag>
         </lr:hierarchicalSubject>
      </rdf:Description>
   </rdf:RDF>
</x:xmpmeta>
                                                                                                    
                                                                                                    
                                                                                                    
                                                                                                    
                                                                                                    
                                                                                                    
                                                                                                    
                                                                                                    
                                                                                                    
                                                    
<?xpacket end="w"?></metadata>
<path class="cls-1" d="M18.91,41.5C17,41.5.5,41.35.5,36.07V6.48a1.21,1.21,0,0,1,0-.19,1.77,1.77,0,0,1,0-.23C.5,2,10.42.5,18.91.5S37.32,2,37.32,6.06c0,.07,0,.14,0,.21l.91,1,3.48,3.48-1.9,1.9L39.21,12v1.73H48a2,2,0,0,1,2,2v5.84H51.7L51.13,21,53,19.1l3.8,3.81L53,26.74l-1.9-1.9.59-.59H50v7.8H39v1.73l.59-.58,1.9,1.89-3.83,3.84-1.12-1.12-.18.19,0,0L36,38.4l-.33.34-.07-.07C31.19,41.42,20.18,41.5,18.91,41.5Z"/><path class="cls-1" d="M18.91,1c8.62,0,17.91,1.58,17.91,5.06a2.29,2.29,0,0,1,0,.25.88.88,0,0,1,0,.17l1,1.13h0L41,10.73,39.8,11.92l-.31-.31-.78-.78v3.44H48a1.47,1.47,0,0,1,1.46,1.46v6.34H52.9L51.84,21,53,19.81l3.1,3.1L53,26l-1.19-1.19,1.09-1.09H49.46v7.8h-11V35l1.09-1.09,1.19,1.19-3.12,3.13L36.54,37.1l-.89.9h0l0,0,0,0h0c-3.16,2.28-11.69,3-16.67,3C12.71,41,1,40,1,36.07V6.48a.88.88,0,0,1,0-.17,2.29,2.29,0,0,1,0-.25C1,2.58,10.28,1,18.91,1m0-1C15.75,0,0,.29,0,6.06a1.85,1.85,0,0,0,0,.23,1.15,1.15,0,0,0,0,.19V36.07C0,41.71,15.75,42,18.91,42c1.25,0,11.83-.08,16.54-2.68l.14.14.68-.67.31-.23.37.37.71.7.71-.7,3.12-3.13.71-.71-.71-.7L40.3,33.2l-.65-.65H50.46V24.9l.64.65,1.2,1.19.7.71.71-.71,3.12-3.12.71-.71-.71-.71-3.09-3.1L53,18.4l-.71.7-1.19,1.19-.67.68V15.73A2.47,2.47,0,0,0,48,13.27H39.86l.65-.64,1.19-1.2.71-.7L41.7,10,38.58,6.9l0-.05-.71-.77v0C37.82.29,22.07,0,18.91,0Zm20.8,13.27v0l0,0Zm10.75,7.8v0l0,0Zm0,3.68h0l0,0v0Zm-11,7.8h0l0,0v0Z"/><path class="cls-2" d="M34.44,36.79a12,12,0,0,1-3.66,1.35,53.31,53.31,0,0,1-11.87,1.17A53.25,53.25,0,0,1,7,38.14c-3.56-.85-4.35-1.8-4.35-2.07V28.46c3.46,2.05,11.46,2.65,16.22,2.65,1.4,0,3.08-.05,4.84-.18V29.26c-1.55.11-3.18.17-4.84.17A53.85,53.85,0,0,1,7,28.26c-3.56-.85-4.35-1.81-4.35-2.07V18.72c3.46,2.05,11.46,2.65,16.22,2.65,1.4,0,3.08-.05,4.84-.17V19.52c-1.55.11-3.18.17-4.84.17A53.85,53.85,0,0,1,7,18.52c-3.56-.85-4.35-1.81-4.35-2.07V8.37c3.06,1.87,9.82,2.74,16.22,2.74a66.6,66.6,0,0,0,7-.36l.54-.06c3.65-.43,6.84-1.19,8.69-2.32v.18l1.69-1.68V6.48a.88.88,0,0,0,0-.17,2.29,2.29,0,0,0,0-.25C36.82,2.58,27.53,1,18.91,1S1,2.58,1,6.06a2.29,2.29,0,0,0,0,.25.88.88,0,0,0,0,.17V36.07C1,40,12.71,41,18.91,41c5,0,13.64-.67,16.75-3ZM18.91,2.69A51.86,51.86,0,0,1,30.77,3.9c3.58.88,4.36,1.85,4.36,2.16s-.78,1.28-4.36,2.16A51.86,51.86,0,0,1,18.91,9.43,52,52,0,0,1,7,8.22C3.47,7.34,2.69,6.36,2.69,6.06S3.47,4.78,7,3.9A52,52,0,0,1,18.91,2.69Z"/><path class="cls-2" d="M49.46,22.07h0V15.73A1.47,1.47,0,0,0,48,14.27H35.34l-1.28-1.73A1.49,1.49,0,0,0,32.89,12H26.48A1.46,1.46,0,0,0,25,13.42V31.55H49.46v-7.8h0ZM26.7,13.64h6.07l.91,1.21-1.15,1.53H26.7Zm0,16.22V18.07h5.94a1.47,1.47,0,0,0,1.17-.59L35,16H47.77v13.9Z"/><polygon class="cls-2" points="53.03 19.81 51.84 21 52.9 22.07 50.72 22.07 50.72 23.75 50.72 23.75 52.9 23.75 52.9 23.75 51.81 24.84 51.81 24.84 53 26.04 56.13 22.91 53.03 19.81"/><polygon class="cls-2" points="35.94 11.92 36.82 11.04 36.82 11.04 36.25 11.61 37.03 10.83 37.03 10.83 37.03 10.83 37.03 13.01 38.71 13.01 38.71 10.83 38.71 10.83 38.71 10.83 39.49 11.61 39.8 11.92 40.99 10.73 37.87 7.6 34.74 10.73 35.94 11.92"/><polygon class="cls-2" points="39.59 33.9 38.5 34.99 38.5 34.99 38.5 34.99 38.5 32.81 36.82 32.81 36.82 34.99 36.82 34.99 36.82 34.99 35.73 33.9 34.53 35.09 36.44 37 35.13 35.69 35.13 35.69 36.53 37.09 36.53 37.09 37.66 38.22 40.78 35.09 39.59 33.9"/></svg>