<svg id="Layer_1" data-name="Layer 1" xmlns="http://www.w3.org/2000/svg" viewBox="0 0 42 42"><defs><style>.cls-1{fill:#fff;}.cls-2{fill:#2c5967;}</style></defs><title>SQL Developer</title><metadata><?xpacket begin="﻿" id="W5M0MpCehiHzreSzNTczkc9d"?>
<x:xmpmeta xmlns:x="adobe:ns:meta/" x:xmptk="Adobe XMP Core 6.0-c006 79.164648, 2021/01/12-15:52:29        ">
   <rdf:RDF xmlns:rdf="http://www.w3.org/1999/02/22-rdf-syntax-ns#">
      <rdf:Description rdf:about=""
            xmlns:xmp="http://ns.adobe.com/xap/1.0/"
            xmlns:xmpMM="http://ns.adobe.com/xap/1.0/mm/"
            xmlns:stEvt="http://ns.adobe.com/xap/1.0/sType/ResourceEvent#"
            xmlns:xmpRights="http://ns.adobe.com/xap/1.0/rights/"
            xmlns:dc="http://purl.org/dc/elements/1.1/"
            xmlns:lr="http://ns.adobe.com/lightroom/1.0/">
         <xmp:MetadataDate>2021-07-21T19:29:41-05:00</xmp:MetadataDate>
         <xmpMM:InstanceID>xmp.iid:24b65b04-a4c9-4ee9-aa6a-4dcc8e67f9aa</xmpMM:InstanceID>
         <xmpMM:DocumentID>xmp.did:bcb76992-1bb9-4e23-9c8b-94e13fc27889</xmpMM:DocumentID>
         <xmpMM:OriginalDocumentID>xmp.did:bcb76992-1bb9-4e23-9c8b-94e13fc27889</xmpMM:OriginalDocumentID>
         <xmpMM:History>
            <rdf:Seq>
               <rdf:li>
                  <rdf:Description>
                     <stEvt:action>saved</stEvt:action>
                     <stEvt:instanceID>xmp.iid:bcb76992-1bb9-4e23-9c8b-94e13fc27889</stEvt:instanceID>
                     <stEvt:when>2021-06-18T11:41:55-05:00</stEvt:when>
                     <stEvt:softwareAgent>Adobe Bridge 2021 (Macintosh)</stEvt:softwareAgent>
                     <stEvt:changed>/metadata</stEvt:changed>
                  </rdf:Description>
               </rdf:li>
               <rdf:li>
                  <rdf:Description>
                     <stEvt:action>saved</stEvt:action>
                     <stEvt:instanceID>xmp.iid:24b65b04-a4c9-4ee9-aa6a-4dcc8e67f9aa</stEvt:instanceID>
                     <stEvt:when>2021-07-21T19:29:41-05:00</stEvt:when>
                     <stEvt:softwareAgent>Adobe Bridge 2021 (Macintosh)</stEvt:softwareAgent>
                     <stEvt:changed>/metadata</stEvt:changed>
                  </rdf:Description>
               </rdf:li>
            </rdf:Seq>
         </xmpMM:History>
         <xmpRights:Marked>True</xmpRights:Marked>
         <dc:title>
            <rdf:Alt>
               <rdf:li xml:lang="x-default">SQL Developer</rdf:li>
            </rdf:Alt>
         </dc:title>
         <dc:subject>
            <rdf:Bag>
               <rdf:li>icon</rdf:li>
               <rdf:li>technology</rdf:li>
               <rdf:li>SQL</rdf:li>
            </rdf:Bag>
         </dc:subject>
         <dc:rights>
            <rdf:Alt>
               <rdf:li xml:lang="x-default">Oracle All Rights Reserved</rdf:li>
            </rdf:Alt>
         </dc:rights>
         <lr:hierarchicalSubject>
            <rdf:Bag>
               <rdf:li>icon</rdf:li>
               <rdf:li>technology</rdf:li>
            </rdf:Bag>
         </lr:hierarchicalSubject>
      </rdf:Description>
   </rdf:RDF>
</x:xmpmeta>
                                                                                                    
                                                                                                    
                                                                                                    
                                                                                                    
                                                                                                    
                                                                                                    
                                                                                                    
                                                                                                    
                                                                                                    
                                                                                                    
                                                                                                    
                    
<?xpacket end="w"?></metadata>
<path class="cls-1" d="M21,41.5a20.46,20.46,0,0,1-2.06-.11,1.54,1.54,0,0,1-.3,0l-.17,0c-.52-.07-1.05-.14-1.56-.24l-.38-.1c-.44-.09-1-.23-1.6-.41l-.14,0c-.7-.23-1.25-.43-1.75-.64l-.12-.06c-.61-.26-1.16-.52-1.67-.8l-.1-.06c-.62-.34-1.13-.65-1.59-1l-.23-.18-.16-.11c-.42-.3-.81-.58-1.18-.89s-.71-.6-1.05-.92v2.55H4.2V32.71a19.23,19.23,0,0,1-1.67-2.87l-.1-.19-.19-.39c-.15-.35-.28-.7-.41-1.06l-.06-.14-.16-.45c-.13-.38-.25-.76-.35-1.15-.05-.17-.09-.33-.13-.5-.11-.43-.2-.84-.28-1.25l0-.35a20.84,20.84,0,0,1-.26-2.53s0-.36,0-.46v-.14c0-.07,0-.15,0-.23s0-.33,0-.5l0-.29,0-.68c0-.38.07-.76.11-1.14,0-.16,0-.32.08-.48l0-.14a20.35,20.35,0,0,1,.93-3.65L1.76,14c.08-.22.15-.44.24-.66s.23-.53.35-.8.29-.62.44-.92l.38-.7c.19-.32.38-.64.59-1l.08-.14.3-.45c.24-.35.5-.69.77-1L5,8.16c.08-.09.15-.19.22-.28l.64-.73H3.33V4.41H9a21.15,21.15,0,0,1,1.94-1.27L11.2,3c.49-.27,1-.53,1.67-.81l.27-.11a18.23,18.23,0,0,1,1.72-.63l.11,0c.59-.18,1.16-.33,1.73-.45L17,.9c.57-.11,1.18-.2,1.79-.27l.3,0C19.81.53,20.43.5,21,.5a20.66,20.66,0,0,1,2.07.11,1.45,1.45,0,0,1,.29,0l.17,0c.53.07,1.06.14,1.57.24l.24.06.14,0c.44.09,1,.23,1.6.41l.15.05c.69.23,1.24.43,1.74.64l.1,0c.65.29,1.19.55,1.69.82l.11.07c.64.36,1.14.65,1.57,1a2.69,2.69,0,0,1,.27.2l.17.12c.43.31.79.57,1.14.86s.41.35.61.53V3.11h2.74V8.69a21.15,21.15,0,0,1,1.41,2.13l.09.15a9.65,9.65,0,0,1,.46.9l.14.27c.08.16.16.32.23.49.16.34.3.7.43,1.06q.12.29.21.57c.14.39.26.77.37,1.16l.12.47A20.51,20.51,0,0,1,41.45,20v.19c0,.12,0,.25,0,.38v.18c0,.09,0,.19,0,.28s0,.29,0,.44l0,.26c0,.23,0,.46,0,.68,0,.39-.06.78-.1,1.16l-.06.4,0,.18a21.32,21.32,0,0,1-.58,2.68c-.11.35-.2.61-.3.88l-.06.17c-.11.32-.19.56-.29.79s-.23.56-.36.84-.28.59-.43.89-.25.47-.38.71-.38.64-.59,1l-.1.17-.28.42c-.24.36-.51.7-.78,1l-.12.17-.21.27-.45.52h2.36v2.74H33.31a20.67,20.67,0,0,1-2.24,1.49l-.26.15c-.5.27-1,.53-1.69.81l-.26.11c-.58.24-1.16.46-1.72.63l-.11,0c-.6.18-1.16.33-1.73.45l-.25.06q-.87.16-1.8.27l-.28,0c-.78.07-1.4.1-2,.1Z"/><path class="cls-1" d="M21,1c.68,0,1.35,0,2,.1l.45.07c.52.06,1,.13,1.53.23l.37.09c.53.12,1.05.25,1.56.4l.23.09a16.41,16.41,0,0,1,1.61.59l.15.07a16.76,16.76,0,0,1,1.6.77l.18.1c.5.28,1,.57,1.46.89.15.1.28.22.43.32.37.27.75.53,1.11.83s.78.69,1.16,1l.27.25V3.61h1.74V8.86a19.66,19.66,0,0,1,1.56,2.36h0l0,0c.17.31.32.63.48,1s.2.4.29.61.29.69.43,1c.07.18.14.37.2.56.13.37.25.75.36,1.13l.12.45a20.12,20.12,0,0,1,.6,4l0,.56c0,.15,0,.3,0,.45s0,.46,0,.69,0,.44,0,.66c0,.38,0,.76-.1,1.13,0,.19-.06.37-.09.56a18.61,18.61,0,0,1-.56,2.61.31.31,0,0,0,0,.08c-.1.32-.22.64-.33.95s-.18.52-.28.77-.23.55-.36.82-.27.58-.41.87-.25.46-.38.69-.37.63-.57.94-.24.39-.37.58-.5.68-.76,1c-.11.14-.21.28-.33.42-.38.46-.79.91-1.22,1.34h3v1.74h-5a22,22,0,0,1-2.57,1.7h0c-.54.29-1.09.55-1.65.79l-.25.11a16.85,16.85,0,0,1-1.68.61l-.16.05c-.54.16-1.08.3-1.64.42l-.24.06c-.58.11-1.16.2-1.75.26l-.36,0C22.23,41,21.62,41,21,41h0c-.68,0-1.35,0-2-.1l-.46-.07c-.51-.06-1-.13-1.53-.23l-.36-.09c-.53-.12-1-.25-1.56-.4L14.85,40c-.55-.18-1.09-.37-1.63-.6l-.12-.06c-.55-.23-1.09-.49-1.63-.78a.57.57,0,0,0-.13-.08c-.51-.29-1-.59-1.51-.92l-.38-.28c-.39-.28-.78-.56-1.15-.86s-1-.85-1.45-1.31l-.41-.44V38H4.7v-5.4A20.06,20.06,0,0,1,3,29.63l-.28-.57c-.15-.35-.28-.7-.41-1.06l-.21-.55c-.12-.37-.24-.74-.34-1.12-.05-.17-.09-.34-.13-.51q-.15-.6-.27-1.2c0-.12,0-.23-.05-.34A20.06,20.06,0,0,1,1,21.81c0-.15,0-.3,0-.45s0-.24,0-.36,0-.51,0-.77l0-.66c0-.38.06-.75.11-1.12l.09-.61a20.42,20.42,0,0,1,.91-3.56c.09-.26.18-.52.29-.77s.23-.54.35-.8.27-.59.42-.88.24-.46.37-.68.37-.63.57-.94.24-.38.37-.57c.24-.34.49-.67.75-1,.11-.15.22-.3.34-.44.38-.45.77-.89,1.2-1.32l0,0,.21-.2H3.83V4.91H9.15a21.84,21.84,0,0,1,2.29-1.48h0c.53-.29,1.08-.55,1.63-.79l.26-.11A17.63,17.63,0,0,1,15,1.92l.17,0c.54-.16,1.08-.3,1.63-.42l.25-.06c.58-.11,1.16-.2,1.75-.26l.36,0C19.77,1,20.38,1,21,1h0m0-1c-.59,0-1.2,0-1.93.1H19l-.29,0c-.63.07-1.25.17-1.83.28l-.17,0-.09,0C16,.6,15.43.74,14.88.91l-.05,0-.12,0c-.57.18-1.17.4-1.76.65l-.21.09-.07,0c-.66.29-1.2.55-1.71.83l-.52.29h0c-.52.31-1,.66-1.61,1.06h-6V7.65h2l-.16.21L4.51,8c-.22.28-.51.66-.78,1.05-.11.15-.21.31-.31.47l-.08.13c-.21.33-.41.65-.6,1s-.27.48-.39.72-.3.62-.44.93-.26.55-.37.83-.17.45-.25.68L1.24,14a20.5,20.5,0,0,0-.95,3.74l0,.14c0,.16-.05.33-.07.5,0,.38-.09.77-.12,1.16l0,.71a2.45,2.45,0,0,1,0,.27c0,.18,0,.35,0,.53s0,.18,0,.27,0,.07,0,.11,0,.21,0,.31v.16a21.83,21.83,0,0,0,.27,2.59v.12c0,.08,0,.16,0,.24.08.46.19.89.28,1.26,0,.18.09.35.14.53.11.43.23.82.36,1.18.05.15.1.31.16.46l.05.12c.14.38.28.74.44,1.11.06.13.12.27.19.4l.09.2A21.48,21.48,0,0,0,3.7,32.87V39H7.44V37l.22.19c.4.33.81.62,1.2.9l.15.11.26.19c.47.32,1,.63,1.58,1l.15.09a18.17,18.17,0,0,0,1.71.82l.13.06c.51.22,1.07.42,1.71.63l0,0,.17.06c.6.18,1.19.32,1.64.42l.13,0,.26.07c.56.11,1.12.18,1.6.24l.16,0,.32,0A20.66,20.66,0,0,0,21,42H21c.59,0,1.2,0,1.93-.1H23l.28,0c.64-.07,1.26-.17,1.85-.28l.16,0,.09,0c.59-.12,1.17-.27,1.72-.44l.06,0,.11,0c.57-.18,1.17-.4,1.77-.65l.19-.08.07,0c.66-.28,1.22-.56,1.72-.83l.53-.29h0a21.14,21.14,0,0,0,1.9-1.28h5.7V34.13h-1.8l.11-.15c.25-.3.53-.67.8-1.06.11-.15.2-.3.3-.46l.09-.15c.21-.32.42-.65.6-1s.27-.49.4-.74.3-.6.44-.91.25-.56.37-.85.18-.48.26-.72l0-.09.06-.17c.1-.27.2-.55.28-.83v0l0-.07a21,21,0,0,0,.59-2.73l0-.18c0-.13.05-.27.06-.41.06-.42.09-.83.11-1.18s0-.47,0-.7c0-.08,0-.17,0-.25s0-.31,0-.47,0-.21,0-.32a.76.76,0,0,1,0-.15c0-.14,0-.28,0-.41v-.18a21.42,21.42,0,0,0-.63-4.17l0-.14c0-.11-.05-.23-.09-.34-.1-.38-.23-.77-.37-1.19-.07-.2-.14-.39-.22-.59-.14-.37-.28-.73-.44-1.09l-.24-.49-.07-.15-.08-.15c-.13-.28-.27-.57-.43-.84a.11.11,0,0,0,0-.06L39,10.22h0a19.27,19.27,0,0,0-1.14-1.69V2.61H34.13v2c-.3-.23-.6-.45-.89-.65l-.07-.06L33,3.79a3.06,3.06,0,0,0-.29-.21,17.72,17.72,0,0,0-1.54-.94L31,2.53c-.52-.28-1.07-.55-1.69-.81a.66.66,0,0,0-.15-.07c-.5-.22-1.06-.42-1.7-.63L27.4,1,27.23.94C26.63.76,26,.62,25.59.52l-.13,0L25.2.42c-.51-.1-1-.17-1.61-.24l-.16,0-.31,0C22.41,0,21.7,0,21,0Z"/><path class="cls-2" d="M21,1a19.8,19.8,0,0,0-9.56,2.43v2A18.26,18.26,0,0,1,33.91,8.09l.08.08H30.78V9.91h6.09V3.61H35.13V6.85A19.87,19.87,0,0,0,21,1Z"/><path class="cls-2" d="M6.86,35.14a20,20,0,0,0,23.71,3.43v-2A18.28,18.28,0,0,1,8.09,33.91l-.29-.3H11V31.87H4.7V38H6.44V34.7C6.58,34.85,6.71,35,6.86,35.14Z"/><path class="cls-2" d="M6.86,6.86A20,20,0,0,0,3.44,30.57h2A18.29,18.29,0,0,1,8.09,8.09l.3-.29V11h1.74V4.91H3.83V6.65H7.07Z"/><path class="cls-2" d="M35.15,35.13a20,20,0,0,0,3.29-23.91h-2a18.29,18.29,0,0,1-2.51,22.69l-.3.29V30.57H31.87v6.3h6.3V35.13h-3Z"/><path class="cls-2" d="M29.92,25.4a9.9,9.9,0,0,0,.65-1.58l3-.33V18.08l-3-.34a9.79,9.79,0,0,0-.65-1.57l1.91-2.39L28,10l-2.39,1.91A9.79,9.79,0,0,0,24,11.22L23.7,8.17H18.3L18,11.22a9.79,9.79,0,0,0-1.57.65L14,10l-3.83,3.83,1.91,2.39a10.8,10.8,0,0,0-.65,1.57l-3,.34v5.41l3,.33a10.92,10.92,0,0,0,.65,1.58l-1.91,2.39L14,31.61l2.39-1.91a9.79,9.79,0,0,0,1.57.65l.34,3h5.4l.34-3a9.79,9.79,0,0,0,1.57-.65L28,31.61l3.83-3.82Zm-2.05,3.88-1.17-.94-.88-.71-1,.52a7.65,7.65,0,0,1-1.29.54L22.44,29l-.13,1.12-.16,1.49h-2.3l-.16-1.49L19.56,29l-1.07-.35a7.42,7.42,0,0,1-1.3-.54l-1-.52-.88.71-1.17.94L12.5,27.66l.94-1.18.71-.88-.52-1a8.11,8.11,0,0,1-.54-1.3l-.34-1.08-1.13-.12-1.49-.17V19.64l1.49-.17,1.13-.13.34-1.07a7.42,7.42,0,0,1,.54-1.3l.52-1-.71-.89-.94-1.17,1.63-1.62,1.17.93.88.71,1-.52a8.27,8.27,0,0,1,1.3-.54l1.07-.34.13-1.12.16-1.5h2.3l.16,1.5.13,1.12,1.08.34a8.57,8.57,0,0,1,1.29.54l1,.52.88-.7,1.17-.94,1.63,1.62-.94,1.17-.71.89.52,1a7.42,7.42,0,0,1,.54,1.3l.34,1.07,1.13.13,1.49.17v2.29l-1.49.17-1.13.12-.34,1.08a8.11,8.11,0,0,1-.54,1.3l-.52,1,.71.88.94,1.18Z"/><path class="cls-2" d="M14.38,23.16v-1a4.39,4.39,0,0,0,1.58.31,1.41,1.41,0,0,0,.71-.15.47.47,0,0,0,.26-.41.4.4,0,0,0-.17-.32,2.82,2.82,0,0,0-.63-.28l-.55-.19a2.15,2.15,0,0,1-1-.59,1.41,1.41,0,0,1-.31-.93,1.49,1.49,0,0,1,.25-.84,1.67,1.67,0,0,1,.7-.54A2.9,2.9,0,0,1,16.33,18a4.13,4.13,0,0,1,.78.08,3.79,3.79,0,0,1,.67.2v1a4.25,4.25,0,0,0-.75-.22,3.67,3.67,0,0,0-.7-.08c-.6,0-.89.18-.89.53a.36.36,0,0,0,.17.32,2.36,2.36,0,0,0,.63.29l.55.18a2.24,2.24,0,0,1,1,.6,1.38,1.38,0,0,1,.3.94A1.41,1.41,0,0,1,17.56,23a2.24,2.24,0,0,1-1.47.43,4.68,4.68,0,0,1-.64,0,5.36,5.36,0,0,1-.62-.1A1.68,1.68,0,0,1,14.38,23.16Z"/><path class="cls-2" d="M20.43,23.88l.09-.47a2.07,2.07,0,0,1-1.4-.85,3.06,3.06,0,0,1-.49-1.82,2.88,2.88,0,0,1,.64-2,2.29,2.29,0,0,1,1.8-.71,2.32,2.32,0,0,1,1.8.71,2.88,2.88,0,0,1,.64,2,3.12,3.12,0,0,1-.38,1.63,2,2,0,0,1-1.12.88l1.68.43-.13.64Zm.64-1.26a1.11,1.11,0,0,0,1-.46,2.53,2.53,0,0,0,.32-1.42A2.28,2.28,0,0,0,22,19.43a1.14,1.14,0,0,0-1-.44,1.12,1.12,0,0,0-1,.44,2.21,2.21,0,0,0-.32,1.31,2.45,2.45,0,0,0,.32,1.42A1.08,1.08,0,0,0,21.07,22.62Z"/><path class="cls-2" d="M24.35,23.35V18.13h1.12v4.22h2.29v1Z"/></svg>