<svg id="Layer_1" data-name="Layer 1" xmlns="http://www.w3.org/2000/svg" viewBox="0 0 42.41 32.02"><metadata><?xpacket begin="﻿" id="W5M0MpCehiHzreSzNTczkc9d"?>
<x:xmpmeta xmlns:x="adobe:ns:meta/" x:xmptk="Adobe XMP Core 6.0-c006 79.164648, 2021/01/12-15:52:29        ">
   <rdf:RDF xmlns:rdf="http://www.w3.org/1999/02/22-rdf-syntax-ns#">
      <rdf:Description rdf:about=""
            xmlns:dc="http://purl.org/dc/elements/1.1/"
            xmlns:xmp="http://ns.adobe.com/xap/1.0/"
            xmlns:xmpMM="http://ns.adobe.com/xap/1.0/mm/"
            xmlns:stEvt="http://ns.adobe.com/xap/1.0/sType/ResourceEvent#"
            xmlns:xmpRights="http://ns.adobe.com/xap/1.0/rights/"
            xmlns:lr="http://ns.adobe.com/lightroom/1.0/">
         <dc:subject>
            <rdf:Bag>
               <rdf:li>database</rdf:li>
               <rdf:li>clock</rdf:li>
               <rdf:li>recovery</rdf:li>
               <rdf:li>backgrouknd</rdf:li>
               <rdf:li>icon</rdf:li>
            </rdf:Bag>
         </dc:subject>
         <dc:rights>
            <rdf:Alt>
               <rdf:li xml:lang="x-default">Oracle All Rights</rdf:li>
            </rdf:Alt>
         </dc:rights>
         <xmp:MetadataDate>2023-08-02T14:36:32-06:00</xmp:MetadataDate>
         <xmpMM:InstanceID>xmp.iid:3629a7ed-fb09-4ede-b0a3-37854ed8ceb4</xmpMM:InstanceID>
         <xmpMM:DocumentID>xmp.did:a7a0b671-4f97-4477-b786-2f17d988d69b</xmpMM:DocumentID>
         <xmpMM:OriginalDocumentID>xmp.did:a7a0b671-4f97-4477-b786-2f17d988d69b</xmpMM:OriginalDocumentID>
         <xmpMM:History>
            <rdf:Seq>
               <rdf:li>
                  <rdf:Description>
                     <stEvt:action>saved</stEvt:action>
                     <stEvt:instanceID>xmp.iid:a7a0b671-4f97-4477-b786-2f17d988d69b</stEvt:instanceID>
                     <stEvt:when>2023-08-02T14:28:12-06:00</stEvt:when>
                     <stEvt:softwareAgent>Adobe Bridge 2021 (Macintosh)</stEvt:softwareAgent>
                     <stEvt:changed>/metadata</stEvt:changed>
                  </rdf:Description>
               </rdf:li>
               <rdf:li>
                  <rdf:Description>
                     <stEvt:action>saved</stEvt:action>
                     <stEvt:instanceID>xmp.iid:3629a7ed-fb09-4ede-b0a3-37854ed8ceb4</stEvt:instanceID>
                     <stEvt:when>2023-08-02T14:36:32-06:00</stEvt:when>
                     <stEvt:softwareAgent>Adobe Bridge 2021 (Macintosh)</stEvt:softwareAgent>
                     <stEvt:changed>/metadata</stEvt:changed>
                  </rdf:Description>
               </rdf:li>
            </rdf:Seq>
         </xmpMM:History>
         <xmpRights:Marked>True</xmpRights:Marked>
         <lr:hierarchicalSubject>
            <rdf:Bag>
               <rdf:li>Other Keywords|icon</rdf:li>
            </rdf:Bag>
         </lr:hierarchicalSubject>
      </rdf:Description>
   </rdf:RDF>
</x:xmpmeta>
                                                                                                    
                                                                                                    
                                                                                                    
                                                                                                    
                                                                                                    
                                                                                                    
                                                                                                    
                                                                                                    
                                                                                                    
                                                                                            
<?xpacket end="w"?></metadata>
<path d="M31.61,18.54l1.88-2,1.79,1.68A16.45,16.45,0,0,0,19,3.23a18.15,18.15,0,0,0-2.08.13l-.23,0-.17-.16a9.67,9.67,0,0,0-1.84-1.35l-1.14-.64L14.76,1A18.94,18.94,0,0,1,19,.5,19.2,19.2,0,0,1,38,18.22l1.75-1.75,1.94,1.93-5,5Z" fill="#fff"/><path d="M19,1A18.64,18.64,0,0,1,37.57,19.38l2.2-2.21L41,18.4l-4.28,4.28-4.4-4.16,1.19-1.26,2.33,2.19A16.92,16.92,0,0,0,19,2.73a18.77,18.77,0,0,0-2.14.13,10.19,10.19,0,0,0-1.94-1.42A19,19,0,0,1,19,1m0-1a19.86,19.86,0,0,0-4.29.47L12.1,1l2.28,1.29A8.73,8.73,0,0,1,16.13,3.6l.34.31.47-.05a15,15,0,0,1,2-.13A16,16,0,0,1,34.61,16.92l-.41-.38-.73-.69-.69.73-1.19,1.26-.68.72.73.69L36,23.4l.7.67.69-.69,4.28-4.28.7-.7-.7-.71-1.23-1.23-.71-.7-.7.7-.66.66A19.71,19.71,0,0,0,19,0Z" fill="#fff"/><path d="M19.21,31.49H19c-2.56,0-10.9-.26-10.9-3.64V19.51A9.38,9.38,0,1,1,18.9,7.76h1c6.64.12,10,1.3,10,3.5V28c0,2.21-3.37,3.39-10,3.5l-.65,0Z" fill="#fff"/><path d="M9.88,1.43a8.89,8.89,0,0,1,8.63,6.84H19l.87,0v0c3.43.06,9.52.52,9.52,3V28c0,2.49-6.09,2.94-9.52,3H19c-1.07,0-10.4-.08-10.4-3.14V19.09A8.88,8.88,0,0,1,9.88,1.43m0-1a9.88,9.88,0,0,0-2.3,19.48v7.94c0,3.61,7.43,4.11,11,4.14v0l1.27,0c7.07-.12,10.5-1.43,10.5-4V11.26c0-2.56-3.43-3.87-10.5-4h-.6A9.85,9.85,0,0,0,9.88.43Z" fill="#fff"/><path d="M41,18.4l-4.28,4.28-4.4-4.16,1.19-1.26,2.33,2.19A16.92,16.92,0,0,0,19,2.73a18.77,18.77,0,0,0-2.14.13,10.19,10.19,0,0,0-1.94-1.42A19,19,0,0,1,19,1,18.64,18.64,0,0,1,37.57,19.38l2.2-2.21Z" fill="#2c5967"/><path d="M27.64,22.31v.09a.19.19,0,0,1,0-.12Zm0-5.49v.08a.25.25,0,0,1,0-.12Zm0-5.45v.09a.19.19,0,0,1,0-.12ZM10.29,22.28a.44.44,0,0,1,0,.12v-.09Z" fill="#2c5967"/><path d="M19.85,8.26a9.19,9.19,0,0,1,.2,1.74c4.67.11,7.19.89,7.59,1.35v0l0,0a.19.19,0,0,0,0,.12v-.09c-.42.53-3.3,1.41-7.9,1.49a10,10,0,0,1-.63,1.74c1.11,0,5.9-.1,8.53-1.24v3.46l0,0a.25.25,0,0,0,0,.12v-.08c-.44.55-3.62,1.5-8.66,1.5-1,0-1.87,0-2.7-.1a10,10,0,0,1-2.45,1.47,38.91,38.91,0,0,0,5.15.36c.77,0,5.91-.05,8.66-1.25v3.51l0,0a.19.19,0,0,0,0,.12v-.09c-.44.56-3.62,1.5-8.66,1.5s-8.22-.94-8.67-1.5v.09a.44.44,0,0,0,0-.12l0,0V20.48H9.88a11.2,11.2,0,0,1-1.3-.08v7.44C8.58,30.91,17.91,31,19,31s10.39-.08,10.39-3.14V11.26C29.37,8.78,23.28,8.32,19.85,8.26Zm7.79,19.5c-.46.56-3.63,1.5-8.66,1.5s-8.21-.94-8.67-1.5V24.3c2.76,1.2,7.89,1.24,8.67,1.24s5.91,0,8.66-1.24Z" fill="#2c5967"/><path d="M10.31,22.31v.09a.44.44,0,0,0,0-.12Z" fill="#2c5967"/><path d="M27.66,22.28a.44.44,0,0,0,0,.12v-.09Z" fill="#2c5967"/><path d="M27.66,16.78a.71.71,0,0,0,0,.12v-.08A.05.05,0,0,0,27.66,16.78Z" fill="#2c5967"/><path d="M27.66,11.34a.44.44,0,0,0,0,.12v-.09Z" fill="#2c5967"/><path d="M9.88,1.43a8.88,8.88,0,1,0,8.88,8.88A8.89,8.89,0,0,0,9.88,1.43Zm0,16A7.15,7.15,0,1,1,17,10.31,7.16,7.16,0,0,1,9.88,17.46Z" fill="#2c5967"/><path d="M14,13.17l-1.23,1.22L9.26,10.93A.91.91,0,0,1,9,10.31V6.2h1.74V10Z" fill="#2c5967"/></svg>