<svg id="Layer_1" data-name="Layer 1" xmlns="http://www.w3.org/2000/svg" viewBox="0 0 38.16 42"><metadata><?xpacket begin="﻿" id="W5M0MpCehiHzreSzNTczkc9d"?>
<x:xmpmeta xmlns:x="adobe:ns:meta/" x:xmptk="Adobe XMP Core 6.0-c006 79.164648, 2021/01/12-15:52:29        ">
   <rdf:RDF xmlns:rdf="http://www.w3.org/1999/02/22-rdf-syntax-ns#">
      <rdf:Description rdf:about=""
            xmlns:dc="http://purl.org/dc/elements/1.1/"
            xmlns:xmp="http://ns.adobe.com/xap/1.0/"
            xmlns:xmpMM="http://ns.adobe.com/xap/1.0/mm/"
            xmlns:stEvt="http://ns.adobe.com/xap/1.0/sType/ResourceEvent#"
            xmlns:xmpRights="http://ns.adobe.com/xap/1.0/rights/"
            xmlns:lr="http://ns.adobe.com/lightroom/1.0/">
         <dc:subject>
            <rdf:Bag>
               <rdf:li>database</rdf:li>
               <rdf:li>rocket</rdf:li>
               <rdf:li>launch</rdf:li>
               <rdf:li>migration</rdf:li>
               <rdf:li>migrate</rdf:li>
               <rdf:li>icon</rdf:li>
            </rdf:Bag>
         </dc:subject>
         <dc:rights>
            <rdf:Alt>
               <rdf:li xml:lang="x-default">Oracle All Rights</rdf:li>
            </rdf:Alt>
         </dc:rights>
         <xmp:MetadataDate>2023-08-02T14:36:32-06:00</xmp:MetadataDate>
         <xmpMM:InstanceID>xmp.iid:6eddff96-f33b-46e1-b910-6bf183cde733</xmpMM:InstanceID>
         <xmpMM:DocumentID>xmp.did:632bdacc-80a6-4308-91b9-54397208aec4</xmpMM:DocumentID>
         <xmpMM:OriginalDocumentID>xmp.did:632bdacc-80a6-4308-91b9-54397208aec4</xmpMM:OriginalDocumentID>
         <xmpMM:History>
            <rdf:Seq>
               <rdf:li>
                  <rdf:Description>
                     <stEvt:action>saved</stEvt:action>
                     <stEvt:instanceID>xmp.iid:632bdacc-80a6-4308-91b9-54397208aec4</stEvt:instanceID>
                     <stEvt:when>2023-08-02T14:22:31-06:00</stEvt:when>
                     <stEvt:softwareAgent>Adobe Bridge 2021 (Macintosh)</stEvt:softwareAgent>
                     <stEvt:changed>/metadata</stEvt:changed>
                  </rdf:Description>
               </rdf:li>
               <rdf:li>
                  <rdf:Description>
                     <stEvt:action>saved</stEvt:action>
                     <stEvt:instanceID>xmp.iid:6eddff96-f33b-46e1-b910-6bf183cde733</stEvt:instanceID>
                     <stEvt:when>2023-08-02T14:36:32-06:00</stEvt:when>
                     <stEvt:softwareAgent>Adobe Bridge 2021 (Macintosh)</stEvt:softwareAgent>
                     <stEvt:changed>/metadata</stEvt:changed>
                  </rdf:Description>
               </rdf:li>
            </rdf:Seq>
         </xmpMM:History>
         <xmpRights:Marked>True</xmpRights:Marked>
         <lr:hierarchicalSubject>
            <rdf:Bag>
               <rdf:li>Other Keywords|icon</rdf:li>
            </rdf:Bag>
         </lr:hierarchicalSubject>
      </rdf:Description>
   </rdf:RDF>
</x:xmpmeta>
                                                                                                    
                                                                                                    
                                                                                                    
                                                                                                    
                                                                                                    
                                                                                                    
                                                                                                    
                                                                                                    
                                                                                                    
                                                                                            
<?xpacket end="w"?></metadata>
<path d="M27.41,21.62c-2.13,0-7.09-.25-7.09-2.58V12.18H15.67l.09-1.25a5.64,5.64,0,0,1,3-4.53.74.74,0,0,0,.39-.55,4.38,4.38,0,0,1,2.51-3.11,4.58,4.58,0,0,1,1.75-.37,4,4,0,0,1,.49,0h0a.7.7,0,0,0,.53-.23,5.22,5.22,0,0,1,8.5,1.22.8.8,0,0,0,.53.42,5.24,5.24,0,0,1,1.71.7A5.37,5.37,0,0,1,37,11.57l-.33.61H34.49V19C34.49,21.37,29.53,21.62,27.41,21.62Z" fill="#fff"/><path d="M28.26,1a4.7,4.7,0,0,1,4.23,2.62,1.26,1.26,0,0,0,.86.68,4.84,4.84,0,0,1,3.24,7l-.19.35H34V19c0,2-5.48,2.08-6.58,2.08S20.83,21,20.83,19V11.68H16.21l.05-.72A5.1,5.1,0,0,1,19,6.85a1.25,1.25,0,0,0,.65-.9A3.88,3.88,0,0,1,21.86,3.2a4,4,0,0,1,1.55-.33,3.11,3.11,0,0,1,.43,0h.1a1.19,1.19,0,0,0,.85-.38A4.69,4.69,0,0,1,28.26,1m0-1a5.7,5.7,0,0,0-4.21,1.84.2.2,0,0,1-.11.06,4.33,4.33,0,0,0-.53,0,5,5,0,0,0-1.94.41,4.87,4.87,0,0,0-2.81,3.47.28.28,0,0,1-.11.2,6.14,6.14,0,0,0-3.29,4.94l0,.72-.07,1.07h4.69V19c0,1.41,1.31,3.08,7.58,3.08,3.45,0,7.58-.53,7.58-3.08V12.68h2l.28-.54.18-.35a5.84,5.84,0,0,0-3.91-8.47.27.27,0,0,1-.17-.13A5.7,5.7,0,0,0,28.26,0Z" fill="#fff"/><path d="M13.44,41.5l-1.5-1.27-.06.1H9.7V41.5H7.36V40.33H5.21l-.08-.15L3.55,41.5H.5V37.23a2.29,2.29,0,0,1,.59-1.53l1.87-2A16,16,0,0,1,7.16,20.8v-7a3.92,3.92,0,0,1,3.92-3.91h.33l-1.2-1.2L11.84,7l4.05,4-4.05,4-1.63-1.66,1.17-1.16h-.3A1.58,1.58,0,0,0,9.5,13.76v7a16.59,16.59,0,0,1,4.39,8.89,17.09,17.09,0,0,1,.12,4l.74.8,1.14,1.23a2.25,2.25,0,0,1,.6,1.54V41.5Z" fill="#fff"/><path d="M11.85,7.7,15.18,11l-3.33,3.29-.94-.95,1.69-1.66H11.08A2.08,2.08,0,0,0,9,13.76V21a16.07,16.07,0,0,1,4.39,8.77,16.35,16.35,0,0,1,.1,4.07l.89,1L15.53,36A1.76,1.76,0,0,1,16,37.23V41H13.63l-1.07-.9-.78-.65s0,0,0,0l-.18.35H9.2V41H7.86V39.83H5.51l-.18-.35,0-.08-.78.65L3.37,41H1V37.23A1.77,1.77,0,0,1,1.47,36l1.16-1.27.85-.92A15.49,15.49,0,0,1,7.66,21V13.76a3.42,3.42,0,0,1,3.42-3.41h1.55l-1.72-1.7.94-1m0-1.42L11.13,7,10.2,8l-.7.71.71.7.06.06a4.42,4.42,0,0,0-3.61,4.34V20.6A16.46,16.46,0,0,0,2.43,33.51l-.53.58L.73,35.36A2.8,2.8,0,0,0,0,37.23V42H3.73L4,41.77l1.11-.94H6.86V42H10.2V40.83h1.68l0,0,1.06.89.28.24H17V37.23a2.75,2.75,0,0,0-.72-1.86l-1.16-1.25-.58-.63a17.85,17.85,0,0,0-.15-3.86,17.06,17.06,0,0,0-4.38-9V13.84l.2.21.93.95.71.71.71-.7,3.33-3.3L16.6,11l-.72-.71L12.55,7l-.71-.71Z" fill="#fff"/><path d="M27.41,6.51c-.67,0-6.58.07-6.58,2.17V19c0,2,5.48,2.08,6.58,2.08S34,21,34,19V8.68C34,6.58,28.07,6.51,27.41,6.51Zm0,1.34a11.84,11.84,0,0,1,5.14.83,11.69,11.69,0,0,1-5.14.83,11.79,11.79,0,0,1-5.15-.83A11.86,11.86,0,0,1,27.41,7.85Zm5.24,11.09c-.36.32-2.2.85-5.24.85s-4.89-.55-5.25-.85V17a17.24,17.24,0,0,0,5.25.72A17.18,17.18,0,0,0,32.65,17Zm0-3.41c-.36.31-2.2.85-5.24.85s-4.89-.55-5.25-.85v-2a17.24,17.24,0,0,0,5.25.72,17.18,17.18,0,0,0,5.24-.72Zm0-3.5c-.36.32-2.2.85-5.24.85s-4.89-.53-5.25-.85V10.1a16.87,16.87,0,0,0,5.25.75,17.49,17.49,0,0,0,5.24-.75Z" fill="#2c5967"/><path d="M34.9,4.93a4.87,4.87,0,0,0-1.55-.63,1.26,1.26,0,0,1-.86-.68,4.72,4.72,0,0,0-7.7-1.1,1.2,1.2,0,0,1-.95.38A3.84,3.84,0,0,0,19.64,6a1.25,1.25,0,0,1-.65.9A5.1,5.1,0,0,0,16.26,11l-.05.72h3.62V10.35h-2.1A3.76,3.76,0,0,1,19.61,8a2.6,2.6,0,0,0,1.33-1.82,2.56,2.56,0,0,1,1.45-1.79,2.4,2.4,0,0,1,1.3-.2,2.5,2.5,0,0,0,2.07-.8,3.4,3.4,0,0,1,5.54.8A2.65,2.65,0,0,0,33.09,5.6a3.08,3.08,0,0,1,1.11.46,3.53,3.53,0,0,1,1.39,4.29H35v1.33H36.4l.19-.35A4.88,4.88,0,0,0,34.9,4.93Z" fill="#2c5967"/><path d="M9,19.58V13.76a2.08,2.08,0,0,1,2.08-2.08H12.6l-1.69,1.66.94.95L15.18,11,11.85,7.7l-.94,1,1.72,1.7H11.08a3.42,3.42,0,0,0-3.42,3.41v5.82l.67-.67Z" fill="#2c5967"/><path d="M8.51,27.41a2.17,2.17,0,1,0,2.17,2.16A2.15,2.15,0,0,0,8.51,27.41Zm0,3a.83.83,0,1,1,.84-.83A.84.84,0,0,1,8.51,30.4Z" fill="#2c5967"/><path d="M14.38,34.8l-.89-1a16.35,16.35,0,0,0-.1-4.07,16.1,16.1,0,0,0-4.59-9l-.47-.46-.47.46A15.5,15.5,0,0,0,3.48,33.85l-.85.92L1.47,36A1.77,1.77,0,0,0,1,37.23V41H3.37l1.13-1,.78-.65,0,.08.18.35H7.86V41H9.2V39.83h2.38l.18-.35s0,0,0,0l.78.65,1.07.9H16V37.23A1.76,1.76,0,0,0,15.53,36ZM8.33,22.22a16.31,16.31,0,0,1,1.72,2.29H6.65A13.44,13.44,0,0,1,8.33,22.22ZM3.88,38.82l-1,.85H2.33V37.23a.4.4,0,0,1,.12-.29L3,36.35l.8-.86a16.34,16.34,0,0,0,.9,2.66ZM9.2,38.5v-5H7.86v5H6.31A14.6,14.6,0,0,1,6,25.84h4.81a14.36,14.36,0,0,1,0,12.66Zm5.46,1.17h-.55l-.95-.8-.8-.67a14.67,14.67,0,0,0,.87-2.7l.81.89.5.53a.45.45,0,0,1,.12.3Z" fill="#2c5967"/></svg>