<svg id="Layer_1" data-name="Layer 1" xmlns="http://www.w3.org/2000/svg" viewBox="0 0 42 36.81"><title>Other - GoldenGate-for-Big-Data</title><metadata><?xpacket begin="﻿" id="W5M0MpCehiHzreSzNTczkc9d"?>
<x:xmpmeta xmlns:x="adobe:ns:meta/" x:xmptk="Adobe XMP Core 6.0-c006 79.164648, 2021/01/12-15:52:29        ">
   <rdf:RDF xmlns:rdf="http://www.w3.org/1999/02/22-rdf-syntax-ns#">
      <rdf:Description rdf:about=""
            xmlns:dc="http://purl.org/dc/elements/1.1/"
            xmlns:lr="http://ns.adobe.com/lightroom/1.0/"
            xmlns:xmp="http://ns.adobe.com/xap/1.0/"
            xmlns:xmpMM="http://ns.adobe.com/xap/1.0/mm/"
            xmlns:stEvt="http://ns.adobe.com/xap/1.0/sType/ResourceEvent#"
            xmlns:xmpRights="http://ns.adobe.com/xap/1.0/rights/">
         <dc:title>
            <rdf:Alt>
               <rdf:li xml:lang="x-default">Other - GoldenGate-for-Big-Data</rdf:li>
            </rdf:Alt>
         </dc:title>
         <dc:subject>
            <rdf:Bag>
               <rdf:li>icon</rdf:li>
               <rdf:li>Golden Gate</rdf:li>
            </rdf:Bag>
         </dc:subject>
         <dc:rights>
            <rdf:Alt>
               <rdf:li xml:lang="x-default">Oracle All Rights Reserved</rdf:li>
            </rdf:Alt>
         </dc:rights>
         <lr:hierarchicalSubject>
            <rdf:Bag>
               <rdf:li>icon</rdf:li>
               <rdf:li>Golden Gate</rdf:li>
            </rdf:Bag>
         </lr:hierarchicalSubject>
         <xmp:MetadataDate>2021-11-23T13:29:23-06:00</xmp:MetadataDate>
         <xmpMM:InstanceID>xmp.iid:3b2930b6-a8a6-44ec-8f35-e62f658366d1</xmpMM:InstanceID>
         <xmpMM:DocumentID>xmp.did:f4ed8c28-a2d9-7e49-bdc3-55158c55c331</xmpMM:DocumentID>
         <xmpMM:OriginalDocumentID>xmp.did:f4ed8c28-a2d9-7e49-bdc3-55158c55c331</xmpMM:OriginalDocumentID>
         <xmpMM:History>
            <rdf:Seq>
               <rdf:li>
                  <rdf:Description>
                     <stEvt:action>saved</stEvt:action>
                     <stEvt:instanceID>xmp.iid:f4ed8c28-a2d9-7e49-bdc3-55158c55c331</stEvt:instanceID>
                     <stEvt:when>2021-11-22T15:44:56-06:00</stEvt:when>
                     <stEvt:softwareAgent>Adobe Bridge 2020 (Windows)</stEvt:softwareAgent>
                     <stEvt:changed>/metadata</stEvt:changed>
                  </rdf:Description>
               </rdf:li>
               <rdf:li>
                  <rdf:Description>
                     <stEvt:action>saved</stEvt:action>
                     <stEvt:instanceID>xmp.iid:3b2930b6-a8a6-44ec-8f35-e62f658366d1</stEvt:instanceID>
                     <stEvt:when>2021-11-23T13:29:23-06:00</stEvt:when>
                     <stEvt:softwareAgent>Adobe Bridge 2021 (Macintosh)</stEvt:softwareAgent>
                     <stEvt:changed>/metadata</stEvt:changed>
                  </rdf:Description>
               </rdf:li>
            </rdf:Seq>
         </xmpMM:History>
         <xmpRights:Marked>True</xmpRights:Marked>
      </rdf:Description>
   </rdf:RDF>
</x:xmpmeta>
                                                                                                    
                                                                                                    
                                                                                                    
                                                                                                    
                                                                                                    
                                                                                                    
                                                                                                    
                                                                                                    
                                                                                                    
                                                                                                    
                                                                                                    
                                                      
<?xpacket end="w"?></metadata>
<path d="M41,36.31a3.12,3.12,0,0,1-2-.73c-.28-.21-.36-.27-.64-.27s-.35.06-.63.27a3.2,3.2,0,0,1-4.07,0c-.28-.21-.36-.27-.63-.27s-.35.06-.63.27a3.18,3.18,0,0,1-2,.73,3.12,3.12,0,0,1-2-.73c-.28-.21-.36-.27-.64-.27s-.35.06-.63.27a3.19,3.19,0,0,1-4.06,0c-.29-.21-.36-.27-.64-.27s-.35.06-.63.27a3.2,3.2,0,0,1-4.07,0c-.28-.21-.36-.27-.63-.27s-.35.06-.63.27a3.18,3.18,0,0,1-2,.73,3.12,3.12,0,0,1-2-.73c-.28-.21-.36-.27-.64-.27s-.35.06-.63.27a3.19,3.19,0,0,1-4.06,0c-.29-.21-.36-.27-.64-.27s-.35.06-.63.27a3.12,3.12,0,0,1-2,.73,3.13,3.13,0,0,1-2-.73c-.28-.21-.35-.27-.63-.27H.5v-5H1A3.12,3.12,0,0,1,3,31a.83.83,0,0,0,.64.27c.27,0,.35-.06.63-.26a3.07,3.07,0,0,1,2-.74,3.1,3.1,0,0,1,2,.73c.29.21.36.27.64.27s.35-.06.63-.26a2.68,2.68,0,0,1,.37-.26V28.65H.5v-5H1.83C8,23.65,10,16.7,10,14.31V13.15h2.33v1.16A10.91,10.91,0,0,0,14,19.9a8,8,0,0,0,7.15,3.58,7.77,7.77,0,0,0,7-3.74,11.35,11.35,0,0,0,1.61-5.43V13.15h2.34v1.16c0,2.39,2,9.34,8.16,9.34H41.5v5H32.17v1.77A3.19,3.19,0,0,1,35,31c.28.21.36.27.63.27a.89.89,0,0,0,.64-.26,3.07,3.07,0,0,1,2-.74,3.1,3.1,0,0,1,2,.73c.29.21.36.27.64.27h.5v5Z" fill="#fff"/><path d="M31.67,13.65v.66c0,2.52,2.13,9.84,8.66,9.84H41v4H31.67v3A2.45,2.45,0,0,1,33,30.81a2.67,2.67,0,0,1,1.73.63,1.37,1.37,0,0,0,1.87,0,2.67,2.67,0,0,1,1.73-.63,2.7,2.7,0,0,1,1.74.63,1.31,1.31,0,0,0,.93.37v4a2.59,2.59,0,0,1-1.73-.63,1.33,1.33,0,0,0-.94-.37,1.31,1.31,0,0,0-.93.37,2.7,2.7,0,0,1-3.47,0,1.31,1.31,0,0,0-.93-.37,1.33,1.33,0,0,0-.94.37,2.69,2.69,0,0,1-3.46,0,1.37,1.37,0,0,0-1.87,0,2.61,2.61,0,0,1-1.73.63,2.64,2.64,0,0,1-1.74-.63,1.35,1.35,0,0,0-1.86,0,2.7,2.7,0,0,1-3.47,0,1.31,1.31,0,0,0-.93-.37,1.33,1.33,0,0,0-.94.37,2.69,2.69,0,0,1-3.46,0,1.37,1.37,0,0,0-1.87,0,2.69,2.69,0,0,1-3.46,0,1.33,1.33,0,0,0-.94-.37,1.31,1.31,0,0,0-.93.37,2.63,2.63,0,0,1-1.73.63,2.64,2.64,0,0,1-1.74-.63A1.31,1.31,0,0,0,1,34.81v-4a2.64,2.64,0,0,1,1.73.63,1.37,1.37,0,0,0,1.87,0,2.67,2.67,0,0,1,1.73-.63,2.7,2.7,0,0,1,1.74.63,1.29,1.29,0,0,0,.93.37,1.31,1.31,0,0,0,.93-.37,4,4,0,0,1,.57-.36V28.15H1v-4h.83c6.54,0,8.67-7.32,8.67-9.84v-.66h1.33v.66a11.58,11.58,0,0,0,1.77,5.87A8.47,8.47,0,0,0,21.17,24a8.21,8.21,0,0,0,7.47-4,11.77,11.77,0,0,0,1.69-5.69v-.66h1.34m1-1H29.33v1.66a11,11,0,0,1-1.54,5.17A7.2,7.2,0,0,1,21.17,23a7.42,7.42,0,0,1-6.73-3.35,10.4,10.4,0,0,1-1.61-5.32V12.65H9.5v1.66c0,2.27-1.89,8.84-7.67,8.84H0v6H9.5v1.37l-.17.12c-.22.17-.22.17-.33.17s-.11,0-.33-.16a3.68,3.68,0,0,0-4.67,0c-.22.17-.22.17-.33.17s-.11,0-.34-.16A3.53,3.53,0,0,0,1,29.81H0v6H1c.11,0,.11,0,.33.17a3.62,3.62,0,0,0,2.34.83A3.61,3.61,0,0,0,6,36c.22-.17.22-.17.33-.17s.11,0,.33.17A3.64,3.64,0,0,0,9,36.81,3.59,3.59,0,0,0,11.33,36c.22-.17.22-.17.33-.17s.12,0,.34.17a3.69,3.69,0,0,0,4.66,0c.23-.17.23-.17.34-.17s.11,0,.33.17A3.7,3.7,0,0,0,22,36c.22-.17.22-.17.33-.17s.11,0,.33.17a3.7,3.7,0,0,0,4.67,0c.22-.17.22-.17.33-.17s.11,0,.34.17a3.69,3.69,0,0,0,4.66,0c.23-.17.23-.17.34-.17s.11,0,.33.17A3.7,3.7,0,0,0,38,36c.22-.17.22-.17.33-.17s.11,0,.34.17a3.59,3.59,0,0,0,2.33.83h1v-6H41c-.11,0-.11,0-.33-.16a3.68,3.68,0,0,0-4.67,0c-.22.17-.22.17-.34.17s-.11,0-.33-.16A3.55,3.55,0,0,0,33,29.81h-.33v-.67H42v-6H40.33c-5.78,0-7.66-6.57-7.66-8.84V12.65Z" fill="#fff"/><path d="M21,16.76c-2.21,0-7.35-.26-7.35-2.65V3.2C13.65.69,19.27.5,21,.5s7.35.19,7.35,2.7V14.11C28.35,16.5,23.21,16.76,21,16.76Z" fill="#fff"/><path d="M21,1c.7,0,6.85.06,6.85,2.2V14.11c0,2.05-5.71,2.15-6.85,2.15s-6.85-.1-6.85-2.15V3.2C14.15,1.06,20.3,1,21,1m0-1c-2.93,0-7.85.42-7.85,3.2V14.11c0,2.61,4.27,3.15,7.85,3.15s7.85-.54,7.85-3.15V3.2C28.85.42,23.93,0,21,0Z" fill="#fff"/><path d="M21.54,12.53a.36.36,0,0,0-.14-.31.84.84,0,0,0-.45-.09h-.36v.81H21a.84.84,0,0,0,.45-.09A.36.36,0,0,0,21.54,12.53Z" fill="none"/><path d="M26.52,14V8.2A17.87,17.87,0,0,1,21,9a17.87,17.87,0,0,1-5.52-.76V14c.36.33,2.28.91,5.52.91S26.16,14.35,26.52,14ZM19.69,10.1H21a1.84,1.84,0,0,1,1,.22.78.78,0,0,1,.33.7.76.76,0,0,1-.12.42.88.88,0,0,1-.34.32.77.77,0,0,1,.61.8c0,.7-.48,1-1.42,1H19.69Z" fill="none"/><path d="M21.28,11.44a.34.34,0,0,0,.13-.29.36.36,0,0,0-.13-.3,1,1,0,0,0-.45-.08h-.24v.75h.24A1,1,0,0,0,21.28,11.44Z" fill="none"/><path d="M26.52,6.71V4.6A17.92,17.92,0,0,1,21,5.39a17.92,17.92,0,0,1-5.52-.79V6.71c.36.33,2.28.91,5.52.91S26.16,7,26.52,6.71Z" fill="none"/><path d="M14.33,31.81a1.29,1.29,0,0,0,.93-.37A2.7,2.7,0,0,1,17,30.81a2.67,2.67,0,0,1,1.73.63,1.37,1.37,0,0,0,1.87,0,2.69,2.69,0,0,1,3.46,0,1.33,1.33,0,0,0,.94.37,1.31,1.31,0,0,0,.93-.37,2.7,2.7,0,0,1,3.47,0,1.31,1.31,0,0,0,.93.37h0V28.15H11.83v2.67a2.71,2.71,0,0,1,1.57.62A1.31,1.31,0,0,0,14.33,31.81Z" fill="none"/><ellipse cx="21" cy="3.2" rx="5.41" ry="0.86" fill="none"/><path d="M32.48,21a11.12,11.12,0,0,1-.81-1.47v4.64h3.91A10.32,10.32,0,0,1,32.48,21Z" fill="none"/><path d="M26.17,24.15h4.16V19.69a11.05,11.05,0,0,1-.55,1A9.64,9.64,0,0,1,26.17,24.15Z" fill="none"/><path d="M12.48,20.91c-.24-.38-.45-.76-.65-1.15v4.39H16A9.55,9.55,0,0,1,12.48,20.91Z" fill="none"/><path d="M6.58,24.15H10.5V19.51A14,14,0,0,1,9.69,21,10.36,10.36,0,0,1,6.58,24.15Z" fill="none"/><path d="M1,28.15h9.5v2.93a4,4,0,0,0-.57.36,1.31,1.31,0,0,1-.93.37,1.29,1.29,0,0,1-.93-.37,2.7,2.7,0,0,0-1.74-.63,2.67,2.67,0,0,0-1.73.63,1.37,1.37,0,0,1-1.87,0A2.64,2.64,0,0,0,1,30.81v1.34a1.3,1.3,0,0,1,.93.36,2.67,2.67,0,0,0,3.47,0,1.3,1.3,0,0,1,.93-.36,1.32,1.32,0,0,1,.94.36,2.66,2.66,0,0,0,3.46,0,1.39,1.39,0,0,1,1.87,0,2.66,2.66,0,0,0,3.46,0,1.32,1.32,0,0,1,.94-.36,1.3,1.3,0,0,1,.93.36,2.67,2.67,0,0,0,3.47,0,1.38,1.38,0,0,1,1.86,0,2.64,2.64,0,0,0,1.74.64,2.61,2.61,0,0,0,1.73-.64,1.39,1.39,0,0,1,1.87,0,2.66,2.66,0,0,0,3.46,0,1.32,1.32,0,0,1,.94-.36,1.3,1.3,0,0,1,.93.36,2.67,2.67,0,0,0,3.47,0,1.3,1.3,0,0,1,.93-.36,1.32,1.32,0,0,1,.94.36,2.59,2.59,0,0,0,1.73.64V31.81a1.31,1.31,0,0,1-.93-.37,2.7,2.7,0,0,0-1.74-.63,2.67,2.67,0,0,0-1.73.63,1.37,1.37,0,0,1-1.87,0A2.67,2.67,0,0,0,33,30.81a2.45,2.45,0,0,0-1.33.36v-3H41V26.81H1Zm10.83,0h18.5v3.66h0a1.31,1.31,0,0,1-.93-.37,2.7,2.7,0,0,0-3.47,0,1.31,1.31,0,0,1-.93.37,1.33,1.33,0,0,1-.94-.37,2.69,2.69,0,0,0-3.46,0,1.37,1.37,0,0,1-1.87,0A2.67,2.67,0,0,0,17,30.81a2.7,2.7,0,0,0-1.74.63,1.29,1.29,0,0,1-.93.37,1.31,1.31,0,0,1-.93-.37,2.71,2.71,0,0,0-1.57-.62Z" fill="#2c5967"/><path d="M40.33,24.15c-6.53,0-8.66-7.32-8.66-9.84v-.66H30.33v.66A11.77,11.77,0,0,1,28.64,20a8.21,8.21,0,0,1-7.47,4,8.47,8.47,0,0,1-7.57-3.8,11.58,11.58,0,0,1-1.77-5.87v-.66H10.5v.66c0,2.52-2.13,9.84-8.67,9.84H1v1.33H41V24.15Zm-29.83,0H6.58A10.36,10.36,0,0,0,9.69,21a14,14,0,0,0,.81-1.47Zm1.33,0V19.76c.2.39.41.77.65,1.15A9.55,9.55,0,0,0,16,24.15Zm18.5,0H26.17a9.64,9.64,0,0,0,3.61-3.45,11.05,11.05,0,0,0,.55-1Zm1.34,0V19.51A11.12,11.12,0,0,0,32.48,21a10.32,10.32,0,0,0,3.1,3.17Z" fill="#2c5967"/><path d="M38.33,33.48a2.61,2.61,0,0,0-1.73.63,1.37,1.37,0,0,1-1.87,0A2.61,2.61,0,0,0,33,33.48a2.64,2.64,0,0,0-1.74.63,1.35,1.35,0,0,1-1.86,0,2.7,2.7,0,0,0-3.47,0,1.31,1.31,0,0,1-.93.37,1.33,1.33,0,0,1-.94-.37,2.69,2.69,0,0,0-3.46,0,1.37,1.37,0,0,1-1.87,0A2.61,2.61,0,0,0,17,33.48a2.64,2.64,0,0,0-1.74.63,1.29,1.29,0,0,1-.93.37,1.31,1.31,0,0,1-.93-.37,2.7,2.7,0,0,0-3.47,0,1.31,1.31,0,0,1-.93.37,1.29,1.29,0,0,1-.93-.37,2.64,2.64,0,0,0-1.74-.63,2.61,2.61,0,0,0-1.73.63,1.37,1.37,0,0,1-1.87,0A2.59,2.59,0,0,0,1,33.48v1.33a1.31,1.31,0,0,1,.93.37,2.64,2.64,0,0,0,1.74.63,2.63,2.63,0,0,0,1.73-.63,1.31,1.31,0,0,1,.93-.37,1.33,1.33,0,0,1,.94.37,2.69,2.69,0,0,0,3.46,0,1.37,1.37,0,0,1,1.87,0,2.69,2.69,0,0,0,3.46,0,1.33,1.33,0,0,1,.94-.37,1.31,1.31,0,0,1,.93.37,2.7,2.7,0,0,0,3.47,0,1.35,1.35,0,0,1,1.86,0,2.64,2.64,0,0,0,1.74.63,2.61,2.61,0,0,0,1.73-.63,1.37,1.37,0,0,1,1.87,0,2.69,2.69,0,0,0,3.46,0,1.33,1.33,0,0,1,.94-.37,1.31,1.31,0,0,1,.93.37,2.7,2.7,0,0,0,3.47,0,1.31,1.31,0,0,1,.93-.37,1.33,1.33,0,0,1,.94.37,2.59,2.59,0,0,0,1.73.63V34.48a1.31,1.31,0,0,1-.93-.37A2.64,2.64,0,0,0,38.33,33.48Z" fill="#2c5967"/><path d="M21,16.26c1.14,0,6.85-.1,6.85-2.15V3.2C27.85,1.06,21.7,1,21,1s-6.85.06-6.85,2.2V14.11C14.15,16.16,19.86,16.26,21,16.26ZM21,2.33c3,0,4.87.52,5.41.87-.54.34-2.4.86-5.41.86s-4.87-.52-5.41-.86C16.13,2.85,18,2.33,21,2.33ZM15.48,4.6A17.92,17.92,0,0,0,21,5.39a17.92,17.92,0,0,0,5.52-.79V6.71c-.36.33-2.28.91-5.52.91S15.84,7,15.48,6.71Zm0,3.6A17.87,17.87,0,0,0,21,9a17.87,17.87,0,0,0,5.52-.76V14c-.36.33-2.28.91-5.52.91s-5.16-.58-5.52-.91Z" fill="#2c5967"/><path d="M22.5,12.56a.77.77,0,0,0-.61-.8.88.88,0,0,0,.34-.32.76.76,0,0,0,.12-.42.78.78,0,0,0-.33-.7,1.84,1.84,0,0,0-1-.22H19.69v3.51h1.39C22,13.61,22.5,13.26,22.5,12.56Zm-1.91-1.79h.24a1,1,0,0,1,.45.08.36.36,0,0,1,.13.3.34.34,0,0,1-.13.29,1,1,0,0,1-.45.08h-.24Zm0,2.17v-.81H21a.84.84,0,0,1,.45.09.36.36,0,0,1,.14.31.36.36,0,0,1-.14.32.84.84,0,0,1-.45.09Z" fill="#2c5967"/></svg>