<svg id="Layer_1" data-name="Layer 1" xmlns="http://www.w3.org/2000/svg" viewBox="0 0 45.14 42"><defs><style>.cls-1{fill:#fff;}.cls-2{fill:#2c5967;}</style></defs><title>WebLogic Security</title><metadata><?xpacket begin="﻿" id="W5M0MpCehiHzreSzNTczkc9d"?>
<x:xmpmeta xmlns:x="adobe:ns:meta/" x:xmptk="Adobe XMP Core 6.0-c006 79.164648, 2021/01/12-15:52:29        ">
   <rdf:RDF xmlns:rdf="http://www.w3.org/1999/02/22-rdf-syntax-ns#">
      <rdf:Description rdf:about=""
            xmlns:xmpRights="http://ns.adobe.com/xap/1.0/rights/"
            xmlns:xmp="http://ns.adobe.com/xap/1.0/"
            xmlns:xmpMM="http://ns.adobe.com/xap/1.0/mm/"
            xmlns:stEvt="http://ns.adobe.com/xap/1.0/sType/ResourceEvent#"
            xmlns:dc="http://purl.org/dc/elements/1.1/"
            xmlns:lr="http://ns.adobe.com/lightroom/1.0/">
         <xmpRights:Marked>True</xmpRights:Marked>
         <xmp:MetadataDate>2021-06-24T19:34:39-05:00</xmp:MetadataDate>
         <xmpMM:InstanceID>xmp.iid:f0b49ec0-9f54-49db-aeb9-000f7feffeff</xmpMM:InstanceID>
         <xmpMM:DocumentID>xmp.did:6ff7c155-2061-4603-bb3a-426ccb5dac5c</xmpMM:DocumentID>
         <xmpMM:OriginalDocumentID>xmp.did:6ff7c155-2061-4603-bb3a-426ccb5dac5c</xmpMM:OriginalDocumentID>
         <xmpMM:History>
            <rdf:Seq>
               <rdf:li>
                  <rdf:Description>
                     <stEvt:action>saved</stEvt:action>
                     <stEvt:instanceID>xmp.iid:6ff7c155-2061-4603-bb3a-426ccb5dac5c</stEvt:instanceID>
                     <stEvt:when>2021-06-23T15:54:05-05:00</stEvt:when>
                     <stEvt:softwareAgent>Adobe Bridge 2021 (Macintosh)</stEvt:softwareAgent>
                     <stEvt:changed>/metadata</stEvt:changed>
                  </rdf:Description>
               </rdf:li>
               <rdf:li>
                  <rdf:Description>
                     <stEvt:action>saved</stEvt:action>
                     <stEvt:instanceID>xmp.iid:f0b49ec0-9f54-49db-aeb9-000f7feffeff</stEvt:instanceID>
                     <stEvt:when>2021-06-24T19:34:39-05:00</stEvt:when>
                     <stEvt:softwareAgent>Adobe Bridge 2021 (Macintosh)</stEvt:softwareAgent>
                     <stEvt:changed>/metadata</stEvt:changed>
                  </rdf:Description>
               </rdf:li>
            </rdf:Seq>
         </xmpMM:History>
         <dc:title>
            <rdf:Alt>
               <rdf:li xml:lang="x-default">WebLogic Security</rdf:li>
            </rdf:Alt>
         </dc:title>
         <dc:rights>
            <rdf:Alt>
               <rdf:li xml:lang="x-default">Oracle All Rights Reserved</rdf:li>
            </rdf:Alt>
         </dc:rights>
         <dc:subject>
            <rdf:Bag>
               <rdf:li>icon</rdf:li>
               <rdf:li>technology</rdf:li>
            </rdf:Bag>
         </dc:subject>
         <lr:hierarchicalSubject>
            <rdf:Bag>
               <rdf:li>icon</rdf:li>
               <rdf:li>technology</rdf:li>
            </rdf:Bag>
         </lr:hierarchicalSubject>
      </rdf:Description>
   </rdf:RDF>
</x:xmpmeta>
                                                                                                    
                                                                                                    
                                                                                                    
                                                                                                    
                                                                                                    
                                                                                                    
                                                                                                    
                                                                                                    
                                                                                                    
                                       
<?xpacket end="w"?></metadata>
<path class="cls-1" d="M3,41.5A2.5,2.5,0,0,1,.5,39V8.76A2.51,2.51,0,0,1,3,6.25H33V5.53a5.24,5.24,0,0,1,.12-1.11A5,5,0,0,1,36.53.7,5.06,5.06,0,0,1,37.91.5a4.88,4.88,0,0,1,3,1,5,5,0,0,1,2,4v.8h1.78V17.93H39.3V39a2.5,2.5,0,0,1-2.5,2.5Z"/><path class="cls-1" d="M37.91,1a4.46,4.46,0,0,1,2.66.89,4.5,4.5,0,0,1,1.79,3.56V6.76h1.78V17.43H38.8V39a2,2,0,0,1-2,2H3a2,2,0,0,1-2-2V8.76a2,2,0,0,1,2-2H33.47V5.53a4.71,4.71,0,0,1,.11-1A4.43,4.43,0,0,1,37.91,1m0-1h0A5.5,5.5,0,0,0,36.4.21a5.46,5.46,0,0,0-3.8,4.11,5.53,5.53,0,0,0-.13,1.21v.23H3a3,3,0,0,0-3,3V39a3,3,0,0,0,3,3H36.8a3,3,0,0,0,3-3V18.43h5.34V5.76H43.36V5.45A5.47,5.47,0,0,0,41.17,1.1,5.36,5.36,0,0,0,37.91,0Z"/><path class="cls-2" d="M37,20.35H16.79v-2.9H30.35V15.67H2.78V8.76A.22.22,0,0,1,3,8.53H30.35V6.76H3a2,2,0,0,0-2,2V39a2,2,0,0,0,2,2H36.8a2,2,0,0,0,2-2V18.76H37Zm-22-2.9v2.9H2.78v-2.9ZM36.8,39.22H3A.22.22,0,0,1,2.78,39V22.12H37V39A.22.22,0,0,1,36.8,39.22Z"/><rect class="cls-2" x="21.24" y="35.22" width="13.12" height="2.22"/><path class="cls-2" d="M44.14,6.76H42.36V5.45a4.5,4.5,0,0,0-1.79-3.56,4.41,4.41,0,0,0-3.9-.71,4.46,4.46,0,0,0-3.09,3.35,4.71,4.71,0,0,0-.11,1V6.76H31.69l0,10.67H44.14Zm-8.9-1.23a2.78,2.78,0,0,1,.19-1A2.63,2.63,0,0,1,39.5,3.32a2.71,2.71,0,0,1,.91,1.21,2.59,2.59,0,0,1,.17.92V6.76H35.24Zm7.12,10.12H33.45V8.53h8.9Z"/><path class="cls-2" d="M37.8,9.87h-.16A1.35,1.35,0,0,0,36.48,11a1.33,1.33,0,0,0,.7,1.37l-.27,1.71h1.78l-.25-1.72a1.31,1.31,0,0,0,.7-1.17A1.34,1.34,0,0,0,37.8,9.87Z"/><polygon class="cls-2" points="5.45 26.1 16.12 30.55 16.12 30.77 5.45 35.38 5.45 37.44 5.45 37.66 19.46 31.66 19.46 31.44 19.46 29.66 5.45 23.88 5.45 26.1"/><path class="cls-2" d="M7.07,13.37A1.27,1.27,0,1,0,5.8,12.1,1.27,1.27,0,0,0,7.07,13.37Z"/><path class="cls-2" d="M11.53,13.37a1.27,1.27,0,1,0-1.27-1.27A1.27,1.27,0,0,0,11.53,13.37Z"/><path class="cls-2" d="M16,13.37a1.27,1.27,0,1,0-1.28-1.27A1.27,1.27,0,0,0,16,13.37Z"/></svg>