<svg id="Layer_1" data-name="Layer 1" xmlns="http://www.w3.org/2000/svg" viewBox="0 0 40 42"><title>Other - Autonomous-Database</title><metadata><?xpacket begin="﻿" id="W5M0MpCehiHzreSzNTczkc9d"?>
<x:xmpmeta xmlns:x="adobe:ns:meta/" x:xmptk="Adobe XMP Core 6.0-c006 79.164648, 2021/01/12-15:52:29        ">
   <rdf:RDF xmlns:rdf="http://www.w3.org/1999/02/22-rdf-syntax-ns#">
      <rdf:Description rdf:about=""
            xmlns:xmp="http://ns.adobe.com/xap/1.0/"
            xmlns:xmpMM="http://ns.adobe.com/xap/1.0/mm/"
            xmlns:stEvt="http://ns.adobe.com/xap/1.0/sType/ResourceEvent#"
            xmlns:dc="http://purl.org/dc/elements/1.1/"
            xmlns:lr="http://ns.adobe.com/lightroom/1.0/"
            xmlns:xmpRights="http://ns.adobe.com/xap/1.0/rights/">
         <xmp:MetadataDate>2021-11-23T13:28:02-06:00</xmp:MetadataDate>
         <xmpMM:InstanceID>xmp.iid:074458a1-03c6-42c3-baf6-6e670f2b41c4</xmpMM:InstanceID>
         <xmpMM:DocumentID>xmp.did:46308b44-2fa1-4dac-a8d2-2a3de5830c23</xmpMM:DocumentID>
         <xmpMM:OriginalDocumentID>xmp.did:46308b44-2fa1-4dac-a8d2-2a3de5830c23</xmpMM:OriginalDocumentID>
         <xmpMM:History>
            <rdf:Seq>
               <rdf:li>
                  <rdf:Description>
                     <stEvt:action>saved</stEvt:action>
                     <stEvt:instanceID>xmp.iid:46308b44-2fa1-4dac-a8d2-2a3de5830c23</stEvt:instanceID>
                     <stEvt:when>2021-11-22T11:59:50-06:00</stEvt:when>
                     <stEvt:softwareAgent>Adobe Bridge 2021 (Macintosh)</stEvt:softwareAgent>
                     <stEvt:changed>/metadata</stEvt:changed>
                  </rdf:Description>
               </rdf:li>
               <rdf:li>
                  <rdf:Description>
                     <stEvt:action>saved</stEvt:action>
                     <stEvt:instanceID>xmp.iid:074458a1-03c6-42c3-baf6-6e670f2b41c4</stEvt:instanceID>
                     <stEvt:when>2021-11-23T13:28:02-06:00</stEvt:when>
                     <stEvt:softwareAgent>Adobe Bridge 2021 (Macintosh)</stEvt:softwareAgent>
                     <stEvt:changed>/metadata</stEvt:changed>
                  </rdf:Description>
               </rdf:li>
            </rdf:Seq>
         </xmpMM:History>
         <dc:title>
            <rdf:Alt>
               <rdf:li xml:lang="x-default">Other - Autonomous-Database</rdf:li>
            </rdf:Alt>
         </dc:title>
         <dc:subject>
            <rdf:Bag>
               <rdf:li>icon</rdf:li>
               <rdf:li>database</rdf:li>
               <rdf:li>data</rdf:li>
               <rdf:li>technology</rdf:li>
            </rdf:Bag>
         </dc:subject>
         <dc:rights>
            <rdf:Alt>
               <rdf:li xml:lang="x-default">Oracle All Rights Reserved</rdf:li>
            </rdf:Alt>
         </dc:rights>
         <lr:hierarchicalSubject>
            <rdf:Bag>
               <rdf:li>Other Keywords|data</rdf:li>
               <rdf:li>Other Keywords|technology</rdf:li>
            </rdf:Bag>
         </lr:hierarchicalSubject>
         <xmpRights:Marked>True</xmpRights:Marked>
      </rdf:Description>
   </rdf:RDF>
</x:xmpmeta>
                                                                                                    
                                                                                                    
                                                                                                    
                                                                                                    
                                                                                                    
                                                                                                    
                                                                                                    
                                                                                                    
                                          
<?xpacket end="w"?></metadata>
<path d="M17.22,41.5c-1.71,0-16.72-.14-16.72-5V9.72a1,1,0,0,1,0-.17,1.41,1.41,0,0,1,0-.21c0-3.75,9-5.08,16.72-5.08h1.36A9.84,9.84,0,0,1,26.26.5a9.7,9.7,0,0,1,6.92,2.83A9.91,9.91,0,0,1,35,5.78a8.18,8.18,0,0,1,.72,1.85l3.62,3.61L37.51,13l-1.58-1.58a9.77,9.77,0,0,1-2,4.77V36.54C34,41.36,18.94,41.5,17.22,41.5Z" fill="#fff"/><path d="M26.32,1a9.14,9.14,0,0,1,6.51,2.69A9.32,9.32,0,0,1,34.52,6a7.87,7.87,0,0,1,.71,1.87l1.39,1.39,2,2-1.08,1.08-.92-.92-1.08-1.08a9.38,9.38,0,0,1-2.06,5.73V36.54c0,3.53-10.61,4.46-16.23,4.46S1,40.07,1,36.54V9.72a.77.77,0,0,1,0-.15,1.79,1.79,0,0,1,0-.23C1,6.2,9.41,4.76,17.22,4.76h1.6A9.41,9.41,0,0,1,26.26,1h.06m0-1h-.06a10.31,10.31,0,0,0-7.92,3.76H17.22C14.35,3.76,0,4,0,9.34a1.48,1.48,0,0,0,0,.21,1,1,0,0,0,0,.17V36.54C0,41.74,14.35,42,17.22,42s17.23-.26,17.23-5.46V16.39a10.34,10.34,0,0,0,1.81-3.91l.54.55.71.7.71-.7L39.3,12l.7-.71-.7-.71-2-2-1.2-1.2a9.64,9.64,0,0,0-.73-1.83A10.37,10.37,0,0,0,33.54,3a10.17,10.17,0,0,0-7.22-3Z" fill="#fff"/><path d="M31.56,19.22A9.57,9.57,0,0,1,28,20.63a48.24,48.24,0,0,1-10.76,1.06A48.15,48.15,0,0,1,6.47,20.63C3.25,19.86,2.53,19,2.53,18.76V11.44c2.64,1.61,8.3,2.4,13.83,2.48a9.32,9.32,0,0,1-.3-1l-.52-.52A44.09,44.09,0,0,1,6.47,11.3c-3.23-.8-3.94-1.68-3.94-2s.71-1.16,3.94-2A46.33,46.33,0,0,1,16.61,6.29a10.19,10.19,0,0,1,.81-1.53h-.2C9.41,4.76,1,6.2,1,9.34a1.79,1.79,0,0,0,0,.23.77.77,0,0,0,0,.15V36.54C1,40.07,11.61,41,17.22,41s16.23-.93,16.23-4.46V17.76A10.82,10.82,0,0,1,31.56,19.22ZM28,38.41a48.24,48.24,0,0,1-10.76,1.06A48.15,48.15,0,0,1,6.47,38.41c-3.22-.77-3.94-1.63-3.94-1.87v-6.9C5.67,31.49,12.92,32,17.22,32s11.56-.55,14.7-2.4v6.9C31.92,36.78,31.2,37.64,28,38.41Zm3.94-10.83c0,.24-.72,1.1-3.94,1.87a48.19,48.19,0,0,1-10.76,1.07A48.09,48.09,0,0,1,6.47,29.45c-3.22-.77-3.94-1.63-3.94-1.87V20.82c3.14,1.85,10.39,2.4,14.69,2.4s11.56-.55,14.7-2.4Z" fill="#2c5967"/><path d="M21.46,9,20.38,7.91,18.46,9.83a7.91,7.91,0,0,1,7.81-7.3h.05a7.61,7.61,0,0,1,5.43,2.24,7.44,7.44,0,0,1,1.62,2.39L34.52,6a9.32,9.32,0,0,0-1.69-2.32A9.14,9.14,0,0,0,26.32,1h-.06a9.44,9.44,0,0,0-9.34,9L15.87,8.92l-1-1L13.77,9l1.69,1.69,2.16,2.15,1.71-1.71Z" fill="#2c5967"/><path d="M38.59,11.24l-2-2L34.75,7.4,32.6,9.55l-1.69,1.69L32,12.32l2-2a7.92,7.92,0,0,1-7.84,7.76h0a7.63,7.63,0,0,1-7.17-4.94l-1.17,1.17a9.19,9.19,0,0,0,8.34,5.3h.06a9.45,9.45,0,0,0,9.35-9.29l1.08,1.08.92.92Z" fill="#2c5967"/><path d="M27.08,5H25L22.09,15.08H24.3L24.78,13h2.45l.48,2.07H30ZM26,7.45l.85,3.74H25.14Z" fill="#2c5967"/></svg>