<svg id="Layer_1" data-name="Layer 1" xmlns="http://www.w3.org/2000/svg" viewBox="0 0 42.08 38.15"><title>Other - Sales-and-Operations-Planning-Cloud-Service</title><metadata><?xpacket begin="﻿" id="W5M0MpCehiHzreSzNTczkc9d"?>
<x:xmpmeta xmlns:x="adobe:ns:meta/" x:xmptk="Adobe XMP Core 6.0-c006 79.164648, 2021/01/12-15:52:29        ">
   <rdf:RDF xmlns:rdf="http://www.w3.org/1999/02/22-rdf-syntax-ns#">
      <rdf:Description rdf:about=""
            xmlns:dc="http://purl.org/dc/elements/1.1/"
            xmlns:lr="http://ns.adobe.com/lightroom/1.0/"
            xmlns:xmp="http://ns.adobe.com/xap/1.0/"
            xmlns:xmpMM="http://ns.adobe.com/xap/1.0/mm/"
            xmlns:stEvt="http://ns.adobe.com/xap/1.0/sType/ResourceEvent#"
            xmlns:xmpRights="http://ns.adobe.com/xap/1.0/rights/">
         <dc:title>
            <rdf:Alt>
               <rdf:li xml:lang="x-default">Other - Sales-and-Operations-Planning-Cloud-Service</rdf:li>
            </rdf:Alt>
         </dc:title>
         <dc:subject>
            <rdf:Bag>
               <rdf:li>icon</rdf:li>
               <rdf:li>cloud</rdf:li>
               <rdf:li>finances</rdf:li>
            </rdf:Bag>
         </dc:subject>
         <dc:rights>
            <rdf:Alt>
               <rdf:li xml:lang="x-default">Oracle All Rights Reserved</rdf:li>
            </rdf:Alt>
         </dc:rights>
         <lr:hierarchicalSubject>
            <rdf:Bag>
               <rdf:li>icon</rdf:li>
               <rdf:li>cloud</rdf:li>
               <rdf:li>finances</rdf:li>
            </rdf:Bag>
         </lr:hierarchicalSubject>
         <xmp:MetadataDate>2021-11-23T13:28:05-06:00</xmp:MetadataDate>
         <xmpMM:InstanceID>xmp.iid:e2f6ec2c-603f-40be-8849-6670007b5bdc</xmpMM:InstanceID>
         <xmpMM:DocumentID>xmp.did:1fa962dc-2713-4440-a109-26a71734b924</xmpMM:DocumentID>
         <xmpMM:OriginalDocumentID>xmp.did:1fa962dc-2713-4440-a109-26a71734b924</xmpMM:OriginalDocumentID>
         <xmpMM:History>
            <rdf:Seq>
               <rdf:li>
                  <rdf:Description>
                     <stEvt:action>saved</stEvt:action>
                     <stEvt:instanceID>xmp.iid:1fa962dc-2713-4440-a109-26a71734b924</stEvt:instanceID>
                     <stEvt:when>2021-11-22T15:44:59-06:00</stEvt:when>
                     <stEvt:softwareAgent>Adobe Bridge 2020 (Windows)</stEvt:softwareAgent>
                     <stEvt:changed>/metadata</stEvt:changed>
                  </rdf:Description>
               </rdf:li>
               <rdf:li>
                  <rdf:Description>
                     <stEvt:action>saved</stEvt:action>
                     <stEvt:instanceID>xmp.iid:e2f6ec2c-603f-40be-8849-6670007b5bdc</stEvt:instanceID>
                     <stEvt:when>2021-11-23T13:28:05-06:00</stEvt:when>
                     <stEvt:softwareAgent>Adobe Bridge 2021 (Macintosh)</stEvt:softwareAgent>
                     <stEvt:changed>/metadata</stEvt:changed>
                  </rdf:Description>
               </rdf:li>
            </rdf:Seq>
         </xmpMM:History>
         <xmpRights:Marked>True</xmpRights:Marked>
      </rdf:Description>
   </rdf:RDF>
</x:xmpmeta>
                                                                                                    
                                                                                                    
                                                                                                    
                                                                                                    
                                                                                                    
                                                                                                    
                                                                                                    
                                                                                                    
                                                                                                    
                                                                                                    
                                                                                     
<?xpacket end="w"?></metadata>
<path d="M26.44,37.65A7,7,0,0,1,20.31,34a11.85,11.85,0,0,1-10.6-8H8.14V21.48H.54L.65,20A9.87,9.87,0,0,1,6,12,2.37,2.37,0,0,0,7.2,10.28a7.61,7.61,0,0,1,4.4-5.49,7.84,7.84,0,0,1,3.06-.64,5.48,5.48,0,0,1,.7,0h.24a2.28,2.28,0,0,0,1.68-.72A9.31,9.31,0,0,1,32.44,5.65,2.46,2.46,0,0,0,34.12,7a9.22,9.22,0,0,1,3,1.24,9.53,9.53,0,0,1,3.31,12.57l-.38.71H32.79c0,.22,0,.43,0,.65A11.61,11.61,0,0,1,32,26.46a7,7,0,0,1-5.55,11.19Z" fill="#fff"/><path d="M24.11,1A8.76,8.76,0,0,1,32,5.88a2.94,2.94,0,0,0,2,1.56,9.16,9.16,0,0,1,2.86,1.18A9,9,0,0,1,40,20.53l-.24.45H32.25a10.93,10.93,0,0,1,.06,1.15,11.44,11.44,0,0,1-.89,4.42,6.47,6.47,0,1,1-10.8,6.93,11.38,11.38,0,0,1-10.55-8H8.64V21H1.08l.07-.92a9.37,9.37,0,0,1,5-7.66,3,3,0,0,0,1.52-2,7.09,7.09,0,0,1,4.1-5.13,7.22,7.22,0,0,1,2.86-.6l.66,0,.28,0a2.8,2.8,0,0,0,2-.88A8.85,8.85,0,0,1,24.11,1m0-1a9.82,9.82,0,0,0-7.19,3.14,1.78,1.78,0,0,1-1.32.56h-.19a6.28,6.28,0,0,0-.75,0,8.12,8.12,0,0,0-7.95,6.54,1.91,1.91,0,0,1-1,1.32A10.41,10.41,0,0,0,.15,20l-.07.92L0,22H7.64v4.51H9.36a12.35,12.35,0,0,0,10.64,8,7.47,7.47,0,1,0,12.56-8.06,12.29,12.29,0,0,0,.75-4.26V22h7l.28-.52.24-.45A10,10,0,0,0,34.23,6.47a2,2,0,0,1-1.34-1A9.77,9.77,0,0,0,24.11,0Z" fill="#fff"/><path d="M36.87,8.62A9.16,9.16,0,0,0,34,7.44a2.94,2.94,0,0,1-2-1.56A8.76,8.76,0,0,0,24.11,1a8.85,8.85,0,0,0-6.46,2.82,2.78,2.78,0,0,1-2.33.86,7.21,7.21,0,0,0-3.52.57,7.09,7.09,0,0,0-4.1,5.13,2.91,2.91,0,0,1-1.52,2,9.4,9.4,0,0,0-5,7.67L1.08,21H7.35V19.26H3a7.7,7.7,0,0,1,4-5.34,4.6,4.6,0,0,0,2.4-3.21,5.37,5.37,0,0,1,3.11-3.88,5.42,5.42,0,0,1,2.66-.44A4.49,4.49,0,0,0,18.91,5a7.12,7.12,0,0,1,5.2-2.27,7,7,0,0,1,6.34,3.92,4.7,4.7,0,0,0,3.19,2.48,7.3,7.3,0,0,1,5.07,10.14H33.22A12.33,12.33,0,0,1,33.5,21h6.26l.24-.45A9,9,0,0,0,36.87,8.62Z" fill="#2c5967"/><path d="M12.62,26.78H10.71a11.31,11.31,0,0,0,8.42,6.51,7.56,7.56,0,0,1-.41-1.84A9.59,9.59,0,0,1,12.62,26.78Z" fill="#2c5967"/><path d="M30.2,19.61a9.35,9.35,0,0,1,.35,2.55A10,10,0,0,1,30.38,24a7.9,7.9,0,0,1,1.49,1.15,11.25,11.25,0,0,0-.3-6.88l-1.29,1.28Z" fill="#2c5967"/><path d="M27.07,12.67a11.24,11.24,0,0,0-14,1.48,2.42,2.42,0,0,1,1.47.93l0,0h0a9.52,9.52,0,0,1,11.27-1.18l.53-.53Z" fill="#2c5967"/><path d="M19.53,16.46h-5.6l-.42-.6h0a1.16,1.16,0,0,0-.92-.46H9.78a1.14,1.14,0,0,0-1.14,1.14v9h12V17.6A1.14,1.14,0,0,0,19.53,16.46Zm-9.17.64h1.92L13,18.18H19v5.6H10.36Z" fill="#2c5967"/><polygon points="35.04 17.14 35.04 11.79 29.7 11.79 29.7 13.51 32.1 13.51 29.34 16.24 27.26 14.3 23.68 17.89 24.89 19.1 27.3 16.69 29.37 18.62 33.32 14.72 33.32 17.14 35.04 17.14" fill="#2c5967"/><path d="M32.92,30.68a6.48,6.48,0,1,0-6.48,6.47A6.48,6.48,0,0,0,32.92,30.68Zm-4.21,4.18a4.26,4.26,0,0,1-.85.36l-.23.06a4.68,4.68,0,0,1-1.19.15A4.76,4.76,0,1,1,31,29.27a1.42,1.42,0,0,1,.07.22,4.68,4.68,0,0,1,.15,1.19,4.75,4.75,0,0,1-1.91,3.81A4.38,4.38,0,0,1,28.71,34.86Z" fill="#2c5967"/><path d="M28.87,31.66v0a1.73,1.73,0,0,0-1.67-1.69v-.46h1.2V28H27.2v-.9H25.69V28A1.74,1.74,0,0,0,24,29.71v0a1.73,1.73,0,0,0,1.68,1.69v.45h-1.2v1.51h1.2v.86H27.2v-.86A1.73,1.73,0,0,0,28.87,31.66Zm-3.18-1.74a.22.22,0,0,1-.17-.21.24.24,0,0,1,.17-.22Zm1.68,1.74a.22.22,0,0,1-.17.21v-.43A.25.25,0,0,1,27.37,31.66Z" fill="#2c5967"/></svg>