<svg id="Layer_1" data-name="Layer 1" xmlns="http://www.w3.org/2000/svg" viewBox="0 0 46.91 42"><title>Other - Upload-File-to-Cloud</title><metadata><?xpacket begin="﻿" id="W5M0MpCehiHzreSzNTczkc9d"?>
<x:xmpmeta xmlns:x="adobe:ns:meta/" x:xmptk="Adobe XMP Core 6.0-c006 79.164648, 2021/01/12-15:52:29        ">
   <rdf:RDF xmlns:rdf="http://www.w3.org/1999/02/22-rdf-syntax-ns#">
      <rdf:Description rdf:about=""
            xmlns:dc="http://purl.org/dc/elements/1.1/"
            xmlns:lr="http://ns.adobe.com/lightroom/1.0/"
            xmlns:xmp="http://ns.adobe.com/xap/1.0/"
            xmlns:xmpMM="http://ns.adobe.com/xap/1.0/mm/"
            xmlns:stEvt="http://ns.adobe.com/xap/1.0/sType/ResourceEvent#"
            xmlns:xmpRights="http://ns.adobe.com/xap/1.0/rights/">
         <dc:title>
            <rdf:Alt>
               <rdf:li xml:lang="x-default">Other - Upload-File-to-Cloud</rdf:li>
            </rdf:Alt>
         </dc:title>
         <dc:subject>
            <rdf:Bag>
               <rdf:li>icon</rdf:li>
               <rdf:li>cloud</rdf:li>
               <rdf:li>upload</rdf:li>
               <rdf:li>document</rdf:li>
            </rdf:Bag>
         </dc:subject>
         <dc:rights>
            <rdf:Alt>
               <rdf:li xml:lang="x-default">Oracle All Rights Reserved</rdf:li>
            </rdf:Alt>
         </dc:rights>
         <lr:hierarchicalSubject>
            <rdf:Bag>
               <rdf:li>icon</rdf:li>
               <rdf:li>cloud</rdf:li>
               <rdf:li>upload</rdf:li>
               <rdf:li>document</rdf:li>
            </rdf:Bag>
         </lr:hierarchicalSubject>
         <xmp:MetadataDate>2021-11-23T13:28:06-06:00</xmp:MetadataDate>
         <xmpMM:InstanceID>xmp.iid:80ed3ac3-f94a-474d-93e2-447f694ab3f9</xmpMM:InstanceID>
         <xmpMM:DocumentID>xmp.did:2bec73d5-d5c9-9246-be50-11ce5e2e004b</xmpMM:DocumentID>
         <xmpMM:OriginalDocumentID>xmp.did:2bec73d5-d5c9-9246-be50-11ce5e2e004b</xmpMM:OriginalDocumentID>
         <xmpMM:History>
            <rdf:Seq>
               <rdf:li>
                  <rdf:Description>
                     <stEvt:action>saved</stEvt:action>
                     <stEvt:instanceID>xmp.iid:2bec73d5-d5c9-9246-be50-11ce5e2e004b</stEvt:instanceID>
                     <stEvt:when>2021-11-22T15:45-06:00</stEvt:when>
                     <stEvt:softwareAgent>Adobe Bridge 2020 (Windows)</stEvt:softwareAgent>
                     <stEvt:changed>/metadata</stEvt:changed>
                  </rdf:Description>
               </rdf:li>
               <rdf:li>
                  <rdf:Description>
                     <stEvt:action>saved</stEvt:action>
                     <stEvt:instanceID>xmp.iid:80ed3ac3-f94a-474d-93e2-447f694ab3f9</stEvt:instanceID>
                     <stEvt:when>2021-11-23T13:28:06-06:00</stEvt:when>
                     <stEvt:softwareAgent>Adobe Bridge 2021 (Macintosh)</stEvt:softwareAgent>
                     <stEvt:changed>/metadata</stEvt:changed>
                  </rdf:Description>
               </rdf:li>
            </rdf:Seq>
         </xmpMM:History>
         <xmpRights:Marked>True</xmpRights:Marked>
      </rdf:Description>
   </rdf:RDF>
</x:xmpmeta>
                                                                                                    
                                                                                                    
                                                                                                    
                                                                                                    
                                                                                                    
                                                                                                    
                                                                                                    
                                                                                                    
                                                                                                    
                                                                                                    
    
<?xpacket end="w"?></metadata>
<path d="M12.91,41.5V34.44L11.34,36,6.72,31.41l6.19-6.2V23.9H.54l.12-1.58a11,11,0,0,1,5.9-9A2.74,2.74,0,0,0,8,11.42a8.47,8.47,0,0,1,8.29-6.83c.27,0,.53,0,.79,0h.28a2.61,2.61,0,0,0,1.93-.82A10.37,10.37,0,0,1,36.17,6.24,2.8,2.8,0,0,0,38.1,7.73a10.63,10.63,0,0,1,7,15.4l-.41.77h-8V41.5Z" fill="#fff"/><path d="M26.89,1a9.81,9.81,0,0,1,8.83,5.46A3.33,3.33,0,0,0,38,8.22,10.12,10.12,0,0,1,44.7,22.89l-.27.51H36.22V41H13.41V33.21l-2.07,2.11L7.43,31.41l6-6v-2H1.08l.07-1A10.55,10.55,0,0,1,6.8,13.77a3.25,3.25,0,0,0,1.69-2.26A8,8,0,0,1,13.1,5.77a7.86,7.86,0,0,1,3.2-.68,6.23,6.23,0,0,1,.74,0h.32a3.11,3.11,0,0,0,2.29-1A9.91,9.91,0,0,1,26.89,1m0-1a10.91,10.91,0,0,0-8,3.48,2.09,2.09,0,0,1-1.56.66h-.23c-.27,0-.56,0-.83,0a9,9,0,0,0-8.79,7.23,2.27,2.27,0,0,1-1.18,1.57,11.5,11.5,0,0,0-6.17,9.4l-.08,1L0,24.4H12.41V25L6.72,30.7,6,31.41l.71.71L10.63,36l.71.71.71-.72.36-.36V42H37.22V24.4H45l.28-.53.27-.51A11.09,11.09,0,0,0,38.2,7.25,2.35,2.35,0,0,1,36.62,6a10.83,10.83,0,0,0-9.73-6Z" fill="#fff"/><path d="M41.19,9.54A10.17,10.17,0,0,0,38,8.22a3.33,3.33,0,0,1-2.27-1.76,9.87,9.87,0,0,0-16.07-2.3,3.11,3.11,0,0,1-2.61,1,7.84,7.84,0,0,0-3.94.64,8,8,0,0,0-4.61,5.74A3.25,3.25,0,0,1,6.8,13.77a10.55,10.55,0,0,0-5.65,8.59l-.07,1H12V21.47H3.21a8.63,8.63,0,0,1,4.48-6,5.2,5.2,0,0,0,2.7-3.6,6,6,0,0,1,6.46-4.83,5.05,5.05,0,0,0,4.21-1.58A8,8,0,0,1,34,7.33a5.21,5.21,0,0,0,3.57,2.77,8.2,8.2,0,0,1,5.69,11.37H37.67V23.4h6.76l.27-.51A10.13,10.13,0,0,0,41.19,9.54Z" fill="#2c5967"/><path d="M15.34,21.45V14H29.16v5.35H34.3V39.07H20.63V41H36.22V17.31L31,12.1H13.41V23.38l1.86-1.86ZM31.09,14.9l2.55,2.56H31.09Z" fill="#2c5967"/><polygon points="22.76 34.06 17.26 28.56 17.26 41 19.18 41 19.18 33.21 21.39 35.42 22.76 34.06" fill="#2c5967"/><polygon points="11.44 35.18 13.4 33.21 13.4 41 13.41 41 15.33 41 15.33 28.56 10.07 33.82 11.44 35.18" fill="#2c5967"/><polygon points="25.4 31.65 16.3 22.54 7.43 31.41 8.79 32.77 16.3 25.26 24.04 33.01 25.4 31.65" fill="#2c5967"/></svg>