<svg id="Layer_1" data-name="Layer 1" xmlns="http://www.w3.org/2000/svg" viewBox="0 0 48.22 42"><defs><style>.cls-1{fill:#fff;}.cls-2{fill:#2c5967;}</style></defs><title>Technology - Oracle-Application-Strategy-Technology</title><metadata><?xpacket begin="﻿" id="W5M0MpCehiHzreSzNTczkc9d"?>
<x:xmpmeta xmlns:x="adobe:ns:meta/" x:xmptk="Adobe XMP Core 6.0-c006 79.164648, 2021/01/12-15:52:29        ">
   <rdf:RDF xmlns:rdf="http://www.w3.org/1999/02/22-rdf-syntax-ns#">
      <rdf:Description rdf:about=""
            xmlns:dc="http://purl.org/dc/elements/1.1/"
            xmlns:lr="http://ns.adobe.com/lightroom/1.0/"
            xmlns:xmp="http://ns.adobe.com/xap/1.0/"
            xmlns:xmpMM="http://ns.adobe.com/xap/1.0/mm/"
            xmlns:stEvt="http://ns.adobe.com/xap/1.0/sType/ResourceEvent#"
            xmlns:xmpRights="http://ns.adobe.com/xap/1.0/rights/">
         <dc:title>
            <rdf:Alt>
               <rdf:li xml:lang="x-default">Technology - Oracle-Application-Strategy-Technology</rdf:li>
            </rdf:Alt>
         </dc:title>
         <dc:subject>
            <rdf:Bag>
               <rdf:li>icon</rdf:li>
               <rdf:li>technology</rdf:li>
            </rdf:Bag>
         </dc:subject>
         <dc:rights>
            <rdf:Alt>
               <rdf:li xml:lang="x-default">Oracle All Rights Reserved</rdf:li>
            </rdf:Alt>
         </dc:rights>
         <lr:hierarchicalSubject>
            <rdf:Bag>
               <rdf:li>icon</rdf:li>
               <rdf:li>technology</rdf:li>
            </rdf:Bag>
         </lr:hierarchicalSubject>
         <xmp:MetadataDate>2021-06-24T19:23:55-05:00</xmp:MetadataDate>
         <xmpMM:InstanceID>xmp.iid:fce01fbd-087d-4f35-adbf-1f250002772d</xmpMM:InstanceID>
         <xmpMM:DocumentID>xmp.did:76f8d90f-b082-4425-8a5e-3a9c170ff079</xmpMM:DocumentID>
         <xmpMM:OriginalDocumentID>xmp.did:76f8d90f-b082-4425-8a5e-3a9c170ff079</xmpMM:OriginalDocumentID>
         <xmpMM:History>
            <rdf:Seq>
               <rdf:li>
                  <rdf:Description>
                     <stEvt:action>saved</stEvt:action>
                     <stEvt:instanceID>xmp.iid:76f8d90f-b082-4425-8a5e-3a9c170ff079</stEvt:instanceID>
                     <stEvt:when>2021-06-18T11:42:16-05:00</stEvt:when>
                     <stEvt:softwareAgent>Adobe Bridge 2021 (Macintosh)</stEvt:softwareAgent>
                     <stEvt:changed>/metadata</stEvt:changed>
                  </rdf:Description>
               </rdf:li>
               <rdf:li>
                  <rdf:Description>
                     <stEvt:action>saved</stEvt:action>
                     <stEvt:instanceID>xmp.iid:fce01fbd-087d-4f35-adbf-1f250002772d</stEvt:instanceID>
                     <stEvt:when>2021-06-24T19:23:55-05:00</stEvt:when>
                     <stEvt:softwareAgent>Adobe Bridge 2021 (Macintosh)</stEvt:softwareAgent>
                     <stEvt:changed>/metadata</stEvt:changed>
                  </rdf:Description>
               </rdf:li>
            </rdf:Seq>
         </xmpMM:History>
         <xmpRights:Marked>True</xmpRights:Marked>
      </rdf:Description>
   </rdf:RDF>
</x:xmpmeta>
                                                                                                    
                                                                                                    
                                                                                                    
                                                                                                    
                                                                                                    
                                                                                                    
                                                                                                    
                                                                                                    
                                                                                                    
                                                                                                    
                                                                                                    
                                                        
<?xpacket end="w"?></metadata>
<path class="cls-1" d="M34,41.5a2.59,2.59,0,0,1-2.58-2.58v-.8h-12a1.54,1.54,0,0,1-1.54-1.54V27h0a12.61,12.61,0,0,1-8.34-3.13A25.78,25.78,0,0,0,5.73,34.65a3.62,3.62,0,1,1-3.08-.07A29,29,0,0,1,7.41,21.43,12.7,12.7,0,0,1,17.88,1.54a12.73,12.73,0,0,1,9.22,4A40.41,40.41,0,0,1,39.78,2.63a3.62,3.62,0,1,1,3.3,5.1,3.65,3.65,0,0,1-3.25-2A36.82,36.82,0,0,0,29,8.08a12.66,12.66,0,0,1,.89,10.34h6.18A1.54,1.54,0,0,1,37.59,20v5.22h7.56a2.57,2.57,0,0,1,2.57,2.57V38.92a2.58,2.58,0,0,1-2.57,2.58Z"/><path class="cls-1" d="M43.08,1a3.12,3.12,0,1,1-2.92,4.19,37.37,37.37,0,0,0-11.9,2.64,12.18,12.18,0,0,1,.9,11.09h6.9a1,1,0,0,1,1,1v5.72h8.06a2.07,2.07,0,0,1,2.07,2.07V38.92A2.08,2.08,0,0,1,45.15,41H34a2.08,2.08,0,0,1-2.08-2.08v-1.3H19.43a1,1,0,0,1-1-1V26.43l-.51,0a12.13,12.13,0,0,1-8.44-3.4A26.19,26.19,0,0,0,5.2,35a3.1,3.1,0,1,1-2.08,0A28.51,28.51,0,0,1,8,21.42,12.2,12.2,0,0,1,27,6.11a39.66,39.66,0,0,1,13.16-3A3.13,3.13,0,0,1,43.08,1m0-1a4.11,4.11,0,0,0-3.61,2.15A40.73,40.73,0,0,0,27.23,4.92,13.2,13.2,0,0,0,4.68,14.25a13.07,13.07,0,0,0,2.13,7.19A29.5,29.5,0,0,0,2.18,34.25a4.12,4.12,0,1,0,4.08.13,25.18,25.18,0,0,1,3.41-9.8,13.18,13.18,0,0,0,7.72,2.87v9.13a2,2,0,0,0,2,2H30.9v.3A3.08,3.08,0,0,0,34,42H45.15a3.08,3.08,0,0,0,3.07-3.08V27.75a3.08,3.08,0,0,0-3.07-3.07H38.09V20a2,2,0,0,0-2-2H30.57a13,13,0,0,0,.52-3.67,13.23,13.23,0,0,0-1.39-5.9,36,36,0,0,1,9.85-2.12A4.11,4.11,0,1,0,43.08,0Z"/><path class="cls-2" d="M45.15,25.68H34a2.08,2.08,0,0,0-2.08,2.07V38.92A2.08,2.08,0,0,0,34,41H45.15a2.08,2.08,0,0,0,2.07-2.08V27.75a2.07,2.07,0,0,0-2.07-2.07M34,38.92V27.75H45.15V38.92Z"/><path class="cls-2" d="M27.09,24.12H29.3a1,1,0,0,0,1-1V20a1,1,0,0,0-.06-.35,13.61,13.61,0,0,1-3.19,4.51"/><rect class="cls-2" x="31.9" y="18.92" width="5.19" height="5.19" rx="1.04"/><path class="cls-2" d="M18.39,27.74v2.09a1,1,0,0,0,1,1h3.12a1,1,0,0,0,1-1V26.71a.76.76,0,0,0,0-.21,13.54,13.54,0,0,1-5.17,1.24"/><path class="cls-2" d="M29.3,25.68H26.19a1,1,0,0,0-1,1v3.12a1,1,0,0,0,1,1H29.3a1,1,0,0,0,1-1V26.71a1,1,0,0,0-1-1"/><path class="cls-2" d="M22.55,32.43H19.43a1,1,0,0,0-1,1v3.11a1,1,0,0,0,1,1h3.12a1,1,0,0,0,1-1V33.47a1,1,0,0,0-1-1"/><path class="cls-2" d="M29.3,32.43H26.19a1,1,0,0,0-1,1v3.11a1,1,0,0,0,1,1H29.3a1,1,0,0,0,1-1V33.47a1,1,0,0,0-1-1"/><path class="cls-2" d="M13.69,21.26H23.6v-1l-2-1a31.19,31.19,0,0,1-.83-6v-1H15v1a31.19,31.19,0,0,1-.83,6l-2,1v1Zm3.38-7H18.7a36.08,36.08,0,0,0,.73,4.95h-3.1a34.47,34.47,0,0,0,.74-4.95"/><path class="cls-2" d="M14.77,10.61H21a1.55,1.55,0,0,0,1.55-1.56V7H20.48V8.53H18.92V7H16.84V8.53H15.29V7H13.21V9.05a1.56,1.56,0,0,0,1.56,1.56"/><path class="cls-2" d="M17.88,26.45a12.22,12.22,0,0,0,12.21-12.2,12.09,12.09,0,0,0-1.83-6.42,37.37,37.37,0,0,1,11.9-2.64,3.11,3.11,0,1,0,0-2.08A39.66,39.66,0,0,0,27,6.11,12.2,12.2,0,0,0,8,21.42a28.51,28.51,0,0,0-4.9,13.51A3.13,3.13,0,1,0,5.2,35,26.19,26.19,0,0,1,9.44,23.05a12.13,12.13,0,0,0,8.44,3.4M43.08,3.08a1,1,0,1,1-1,1,1,1,0,0,1,1-1m-25.2,1A10.13,10.13,0,1,1,7.75,14.25,10.14,10.14,0,0,1,17.88,4.12M4.12,38.92a1,1,0,0,1,0-2.08,1,1,0,1,1,0,2.08"/><polygon class="cls-2" points="38.42 34.1 36.97 32.65 35.5 34.12 38.42 37.04 43.63 31.84 42.16 30.37 38.42 34.1"/></svg>