<svg id="Layer_1" data-name="Layer 1" xmlns="http://www.w3.org/2000/svg" viewBox="0 0 44.2 42"><defs><style>.cls-1{fill:#fff;}.cls-2{fill:#2c5967;}</style></defs><title>Database-Warehouse</title><metadata><?xpacket begin="﻿" id="W5M0MpCehiHzreSzNTczkc9d"?>
<x:xmpmeta xmlns:x="adobe:ns:meta/" x:xmptk="Adobe XMP Core 6.0-c006 79.164648, 2021/01/12-15:52:29        ">
   <rdf:RDF xmlns:rdf="http://www.w3.org/1999/02/22-rdf-syntax-ns#">
      <rdf:Description rdf:about=""
            xmlns:dc="http://purl.org/dc/elements/1.1/"
            xmlns:lr="http://ns.adobe.com/lightroom/1.0/"
            xmlns:xmp="http://ns.adobe.com/xap/1.0/"
            xmlns:xmpMM="http://ns.adobe.com/xap/1.0/mm/"
            xmlns:stEvt="http://ns.adobe.com/xap/1.0/sType/ResourceEvent#">
         <dc:title>
            <rdf:Alt>
               <rdf:li xml:lang="x-default">Database-Warehouse</rdf:li>
            </rdf:Alt>
         </dc:title>
         <dc:subject>
            <rdf:Bag>
               <rdf:li>icon</rdf:li>
               <rdf:li>Data</rdf:li>
            </rdf:Bag>
         </dc:subject>
         <lr:hierarchicalSubject>
            <rdf:Bag>
               <rdf:li>icon</rdf:li>
               <rdf:li>Data</rdf:li>
            </rdf:Bag>
         </lr:hierarchicalSubject>
         <xmp:MetadataDate>2021-07-16T14:26:09-05:00</xmp:MetadataDate>
         <xmpMM:InstanceID>xmp.iid:2f4e6b53-bbba-409a-b63f-d846803c795f</xmpMM:InstanceID>
         <xmpMM:DocumentID>xmp.did:7f945afb-5a88-488c-86e5-34a6476c0f95</xmpMM:DocumentID>
         <xmpMM:OriginalDocumentID>xmp.did:7f945afb-5a88-488c-86e5-34a6476c0f95</xmpMM:OriginalDocumentID>
         <xmpMM:History>
            <rdf:Seq>
               <rdf:li>
                  <rdf:Description>
                     <stEvt:action>saved</stEvt:action>
                     <stEvt:instanceID>xmp.iid:7f945afb-5a88-488c-86e5-34a6476c0f95</stEvt:instanceID>
                     <stEvt:when>2021-07-16T14:19:58-05:00</stEvt:when>
                     <stEvt:softwareAgent>Adobe Bridge 2021 (Macintosh)</stEvt:softwareAgent>
                     <stEvt:changed>/metadata</stEvt:changed>
                  </rdf:Description>
               </rdf:li>
               <rdf:li>
                  <rdf:Description>
                     <stEvt:action>saved</stEvt:action>
                     <stEvt:instanceID>xmp.iid:2f4e6b53-bbba-409a-b63f-d846803c795f</stEvt:instanceID>
                     <stEvt:when>2021-07-16T14:26:09-05:00</stEvt:when>
                     <stEvt:softwareAgent>Adobe Bridge 2021 (Macintosh)</stEvt:softwareAgent>
                     <stEvt:changed>/metadata</stEvt:changed>
                  </rdf:Description>
               </rdf:li>
            </rdf:Seq>
         </xmpMM:History>
      </rdf:Description>
   </rdf:RDF>
</x:xmpmeta>
                                                                                                    
                                                                                                    
                                                                                                    
                                                                                                    
                                                                                                    
                                                                                                    
                                                                                                    
                                                                                                    
                                                                                                    
                                                                                                    
                                                                                                    
                                                                                                    
                                                                                                    
                                                                                                    
                                                  
<?xpacket end="w"?></metadata>
<path class="cls-1" d="M10.26,41.5a23.2,23.2,0,0,1-4.47-.41A10.55,10.55,0,0,1,2.15,39.8a4.14,4.14,0,0,1-1-.8,2.65,2.65,0,0,1-.57-1,2.53,2.53,0,0,1-.11-.73V26.19a3,3,0,0,1,1.66-2.51,10.75,10.75,0,0,1,3.63-1.29,20.05,20.05,0,0,1,2.07-.28V7.67l-1.32.09-.9-1.54L7.76,5A31.6,31.6,0,0,1,23.85.5,31.57,31.57,0,0,1,39.94,5l2.12,1.24-.9,1.54L40,7.69V31.46h1.32l2.34,1.17v1.78H20v2.88a2.58,2.58,0,0,1-.11.73,2.82,2.82,0,0,1-.58,1,4.14,4.14,0,0,1-1,.8,10.49,10.49,0,0,1-3.63,1.29A23.27,23.27,0,0,1,10.26,41.5Z"/><path class="cls-1" d="M23.85,1A31.17,31.17,0,0,1,39.69,5.42l1.68,1-.49.84-1.34-.09V32h1.71l2,1v1H19.52v3.38a1.85,1.85,0,0,1-.09.58,2.28,2.28,0,0,1-.47.8,3.92,3.92,0,0,1-.86.71,10.19,10.19,0,0,1-3.47,1.22,22.25,22.25,0,0,1-4.37.4,22.35,22.35,0,0,1-4.38-.4,10.13,10.13,0,0,1-3.46-1.22,4.25,4.25,0,0,1-.87-.71,2.25,2.25,0,0,1-.46-.8A1.85,1.85,0,0,1,1,37.29V26.19A2.51,2.51,0,0,1,2.42,24.1a10.35,10.35,0,0,1,3.46-1.22,21.26,21.26,0,0,1,2.48-.31V7.14l-1.55.1L6.32,6.4,8,5.42H8A31.31,31.31,0,0,1,23.85,1m0-1V0A32.07,32.07,0,0,0,7.51,4.55l0,0h0l-1.64,1L5,6l.51.87L6,7.75l.31.53.62,0,.48,0V21.65c-.61.07-1.16.15-1.67.25a10.83,10.83,0,0,0-3.8,1.36A3.42,3.42,0,0,0,0,26.19v11.1a2.89,2.89,0,0,0,.14.88,3,3,0,0,0,.67,1.16,5.21,5.21,0,0,0,1.08.9A11.1,11.1,0,0,0,5.7,41.58a23.34,23.34,0,0,0,4.56.42,23.59,23.59,0,0,0,4.57-.42,11.19,11.19,0,0,0,3.8-1.35,5.21,5.21,0,0,0,1.08-.9,3.17,3.17,0,0,0,.67-1.16,2.89,2.89,0,0,0,.14-.88V34.91H44.2V32.32L43.65,32l-2-1L41.48,31h-.94V8.22l.28,0,.61,0,.31-.53.5-.84.5-.87-.86-.5-1.69-1A32,32,0,0,0,23.85,0Z"/><path class="cls-2" d="M43.2,32.93l-2-1H39.54V7.15l1.34.09.49-.84-1.68-1A30.63,30.63,0,0,0,8,5.41H8l-1.69,1,.49.84,1.55-.1v14C9,21.05,9.61,21,10.26,21h0V6.38h0a28.57,28.57,0,0,1,27.29.1V32h-2V16.37H24.92V32H23V16.37H12.25V21.1c.67,0,1.32.12,1.95.22v-3H21V22H16.94a9.77,9.77,0,0,1,1.81.81,5.3,5.3,0,0,1,1.38,1.14H21v10H43.2Zm-9.51-1H26.87V29h6.82Zm0-4.87H26.87V23.92h6.82Zm0-5.12H26.87V18.32h6.82Z"/><path class="cls-2" d="M23,7.35H12.25v7.31H23ZM21,12.71H14.2V9.3H21Z"/><path class="cls-2" d="M35.64,7.35H24.92v7.31H35.64Zm-2,5.36H26.87V9.3h6.82Z"/><path class="cls-2" d="M19.52,26.19l0-.15A2.57,2.57,0,0,0,18,24a6.56,6.56,0,0,0-.7-.36,11.88,11.88,0,0,0-1.72-.59l-1-.23a23.67,23.67,0,0,0-4.31-.38,23.14,23.14,0,0,0-4.38.4A10.13,10.13,0,0,0,2.42,24.1,2.51,2.51,0,0,0,1,26.19v11.1a1.85,1.85,0,0,0,.09.58,2.13,2.13,0,0,0,.47.8,3.92,3.92,0,0,0,.86.71A10.13,10.13,0,0,0,5.88,40.6a22.35,22.35,0,0,0,4.38.4,22.25,22.25,0,0,0,4.37-.4,10.19,10.19,0,0,0,3.47-1.22,3.92,3.92,0,0,0,.86-.71,2.28,2.28,0,0,0,.47-.8,1.85,1.85,0,0,0,.09-.58ZM3,26.15c0-.14.21-.3.53-.49a6.88,6.88,0,0,1,1.42-.6,14.6,14.6,0,0,1,2.31-.51,23.76,23.76,0,0,1,3.13-.2,21.45,21.45,0,0,1,3.2.22,14.38,14.38,0,0,1,2.33.51,6.67,6.67,0,0,1,1.4.62c.31.2.47.36.47.49s-.16.3-.47.49a6.67,6.67,0,0,1-1.4.62,14.38,14.38,0,0,1-2.33.51,21.45,21.45,0,0,1-3.2.22,21.31,21.31,0,0,1-3.19-.22,14.51,14.51,0,0,1-2.34-.51,6.56,6.56,0,0,1-1.39-.62c-.32-.19-.47-.36-.47-.49Zm-.24,2.36a11.87,11.87,0,0,0,3.37,1,23.59,23.59,0,0,0,4.06.33l.87,0,.76,0,1.2-.09,1-.16,1.19-.22.33-.09.58-.16.63-.2.58-.24.09-.05.2-.11v3.24c0,.13-.16.29-.47.49a6.78,6.78,0,0,1-1.41.62,13.51,13.51,0,0,1-2.34.51,21.64,21.64,0,0,1-3.21.23,21.68,21.68,0,0,1-3.22-.23,13.51,13.51,0,0,1-2.34-.51,6.78,6.78,0,0,1-1.41-.62c-.31-.2-.46-.36-.46-.49Zm14.86,8.7c0,.13-.16.3-.47.49a6.78,6.78,0,0,1-1.41.62,14.51,14.51,0,0,1-2.34.51,21.68,21.68,0,0,1-3.21.22,21.73,21.73,0,0,1-3.22-.22,14.51,14.51,0,0,1-2.34-.51,6.78,6.78,0,0,1-1.41-.62c-.31-.19-.46-.36-.46-.49V34a11.27,11.27,0,0,0,3.37,1,23.59,23.59,0,0,0,4.06.33h.93a21.4,21.4,0,0,0,3.64-.29,10,10,0,0,0,2.86-.91Z"/></svg>