<svg id="Layer_1" data-name="Layer 1" xmlns="http://www.w3.org/2000/svg" viewBox="0 0 46.27 42"><title>Database Administrators - Female</title><metadata><?xpacket begin="﻿" id="W5M0MpCehiHzreSzNTczkc9d"?>
<x:xmpmeta xmlns:x="adobe:ns:meta/" x:xmptk="Adobe XMP Core 6.0-c006 79.164648, 2021/01/12-15:52:29        ">
   <rdf:RDF xmlns:rdf="http://www.w3.org/1999/02/22-rdf-syntax-ns#">
      <rdf:Description rdf:about=""
            xmlns:xmpRights="http://ns.adobe.com/xap/1.0/rights/"
            xmlns:xmp="http://ns.adobe.com/xap/1.0/"
            xmlns:xmpMM="http://ns.adobe.com/xap/1.0/mm/"
            xmlns:stEvt="http://ns.adobe.com/xap/1.0/sType/ResourceEvent#"
            xmlns:dc="http://purl.org/dc/elements/1.1/"
            xmlns:lr="http://ns.adobe.com/lightroom/1.0/">
         <xmpRights:Marked>True</xmpRights:Marked>
         <xmp:MetadataDate>2022-01-29T10:33:07-06:00</xmp:MetadataDate>
         <xmpMM:InstanceID>xmp.iid:4617d486-cf7f-4d4a-b404-0bb62ca1b608</xmpMM:InstanceID>
         <xmpMM:DocumentID>xmp.did:1bb476d9-32f8-f448-8656-427dd9afc556</xmpMM:DocumentID>
         <xmpMM:OriginalDocumentID>xmp.did:1bb476d9-32f8-f448-8656-427dd9afc556</xmpMM:OriginalDocumentID>
         <xmpMM:History>
            <rdf:Seq>
               <rdf:li>
                  <rdf:Description>
                     <stEvt:action>saved</stEvt:action>
                     <stEvt:instanceID>xmp.iid:1bb476d9-32f8-f448-8656-427dd9afc556</stEvt:instanceID>
                     <stEvt:when>2022-01-28T20:44:43-06:00</stEvt:when>
                     <stEvt:softwareAgent>Adobe Bridge 2020 (Windows)</stEvt:softwareAgent>
                     <stEvt:changed>/metadata</stEvt:changed>
                  </rdf:Description>
               </rdf:li>
               <rdf:li>
                  <rdf:Description>
                     <stEvt:action>saved</stEvt:action>
                     <stEvt:instanceID>xmp.iid:4617d486-cf7f-4d4a-b404-0bb62ca1b608</stEvt:instanceID>
                     <stEvt:when>2022-01-29T10:33:07-06:00</stEvt:when>
                     <stEvt:softwareAgent>Adobe Bridge 2021 (Macintosh)</stEvt:softwareAgent>
                     <stEvt:changed>/metadata</stEvt:changed>
                  </rdf:Description>
               </rdf:li>
            </rdf:Seq>
         </xmpMM:History>
         <dc:title>
            <rdf:Alt>
               <rdf:li xml:lang="x-default">Database Administrators - Female</rdf:li>
            </rdf:Alt>
         </dc:title>
         <dc:rights>
            <rdf:Alt>
               <rdf:li xml:lang="x-default">Oracle, All rights reserved</rdf:li>
            </rdf:Alt>
         </dc:rights>
         <dc:subject>
            <rdf:Bag>
               <rdf:li>icon</rdf:li>
               <rdf:li>user</rdf:li>
               <rdf:li>person</rdf:li>
               <rdf:li>persona</rdf:li>
               <rdf:li>team</rdf:li>
               <rdf:li>group</rdf:li>
               <rdf:li>data</rdf:li>
               <rdf:li>women</rdf:li>
               <rdf:li>men</rdf:li>
               <rdf:li>man</rdf:li>
               <rdf:li>woman</rdf:li>
            </rdf:Bag>
         </dc:subject>
         <lr:hierarchicalSubject>
            <rdf:Bag>
               <rdf:li>icon</rdf:li>
               <rdf:li>Other Keywords|user</rdf:li>
               <rdf:li>Other Keywords|person</rdf:li>
               <rdf:li>Other Keywords|persona</rdf:li>
               <rdf:li>Other Keywords|team</rdf:li>
               <rdf:li>Other Keywords|women</rdf:li>
               <rdf:li>men</rdf:li>
               <rdf:li>man</rdf:li>
               <rdf:li>woman</rdf:li>
            </rdf:Bag>
         </lr:hierarchicalSubject>
      </rdf:Description>
   </rdf:RDF>
</x:xmpmeta>
                                                                                                    
                                                                                                    
                                                                                                    
                                                                                                    
                                             
<?xpacket end="w"?></metadata>
<path d="M23,41.5c-2.25,0-9.58-.24-9.58-3.34V26.56H.5v-4.8A4.87,4.87,0,0,1,5.09,17v-.37a4.52,4.52,0,0,1-1.25-3.12V10.61A3.51,3.51,0,0,1,7.47,6.76H13.4v6.61a4.74,4.74,0,0,1-1.25,3.21V17h1.08a5.9,5.9,0,0,1,3-2,9.57,9.57,0,0,1-.7-1.05l-.26-.46,2.24-9A4.61,4.61,0,0,1,22,.5h2.32a4.56,4.56,0,0,1,4.16,2.82h.05l.14.48,2.41,9.67-.27.46a7.66,7.66,0,0,1-.7,1.05,5.94,5.94,0,0,1,3,2h1.08v-.43a4.74,4.74,0,0,1-1.25-3.21V6.76H38.8a3.51,3.51,0,0,1,3.63,3.85v2.92a4.52,4.52,0,0,1-1.25,3.12V17a4.88,4.88,0,0,1,4.59,4.75v4.8H32.62v11.6C32.62,41.26,25.28,41.5,23,41.5Z" fill="#fff"/><path d="M24.29,1a4.1,4.1,0,0,1,3.85,2.91h0l2.35,9.48-.16.29a7.12,7.12,0,0,1-1.22,1.59,5.46,5.46,0,0,1,3.66,2.24h1.83V16.38a4.29,4.29,0,0,1-1.25-3V7.27H38.8a3,3,0,0,1,3.13,3.34v2.92a4,4,0,0,1-1.25,2.91v1.07h.22a4.36,4.36,0,0,1,4.37,4.25v4.3H32.12v12.1C32.12,40.92,24,41,23,41S14,40.92,14,38.16V26.06H1v-4.3a4.37,4.37,0,0,1,4.38-4.25h.21V16.44a4,4,0,0,1-1.25-2.91V10.61A3,3,0,0,1,7.47,7.27H12.9v6.1a4.29,4.29,0,0,1-1.25,3v1.13h1.84a5.44,5.44,0,0,1,3.66-2.24,7.39,7.39,0,0,1-1.21-1.59l-.17-.29L18,4.55A4.14,4.14,0,0,1,22,1h2.32m0-1H22a5.11,5.11,0,0,0-5,4.35L14.8,13.14l-.1.39.2.35.17.29c.11.19.22.38.34.55A6.35,6.35,0,0,0,13,16.51h-.14a5.22,5.22,0,0,0,1-3.14V6.27H7.47a4,4,0,0,0-4.13,4.34v2.92a5,5,0,0,0,1,3.07A5.37,5.37,0,0,0,0,21.76v5.3H13v11.1C13,41.63,20,42,23,42s10.09-.37,10.09-3.84V27.06H46.27v-5.3a5.37,5.37,0,0,0-4.39-5.16,5,5,0,0,0,1-3.07V10.61A4,4,0,0,0,38.8,6.27H32.37v7.1a5.28,5.28,0,0,0,1,3.14h-.13a6.4,6.4,0,0,0-2.41-1.78c.12-.18.24-.36.35-.56l.16-.29.2-.35-.1-.39L29.13,3.67l-.25-1-.15,0A5,5,0,0,0,24.29,0Z" fill="#fff"/><path d="M23,20.63c-.93,0-9.08.08-9.08,2.82V38.16C14,40.92,22.1,41,23,41s9.09-.08,9.09-2.84V23.55s0,0,0,0,0-.05,0-.07C32.12,20.71,24,20.63,23,20.63Zm0,18.7c-4.43,0-7-.81-7.41-1.27V35c2.44,1,6.75,1.06,7.41,1.06s5,0,7.42-1.06v3C30,38.52,27.46,39.33,23,39.33Zm7.42-6.17c-.43.45-3,1.27-7.42,1.27s-7-.82-7.41-1.27V30.22c2.44,1,6.75,1.05,7.41,1.05s5,0,7.42-1.05Zm0-4.82c-.43.45-3,1.26-7.42,1.26s-7-.81-7.41-1.26V25.22c2.44,1,6.75,1.05,7.41,1.05s5,0,7.42-1.05Zm-.14-4.89c-.69.46-3.19,1.15-7.28,1.15s-6.59-.69-7.28-1.15C16.44,23,18.94,22.3,23,22.3S29.62,23,30.31,23.45Z" fill="#2c5967"/><path d="M29.13,15.27a7.12,7.12,0,0,0,1.22-1.59l.16-.3L28.16,3.91h0A4.1,4.1,0,0,0,24.29,1H22a4.14,4.14,0,0,0-4,3.55l-2.2,8.83.17.3a7.39,7.39,0,0,0,1.21,1.59,5.4,5.4,0,0,0-4.52,4.11h1.74A3.81,3.81,0,0,1,18,16.87h2.09a3.16,3.16,0,0,0,6.06,0h2.09a3.79,3.79,0,0,1,3.64,2.51h1.74A5.4,5.4,0,0,0,29.13,15.27Zm-9.55-7V7A4.88,4.88,0,0,0,23.14,6,4.86,4.86,0,0,0,26,7c.24,0,.45,0,.66,0V8.23a3.72,3.72,0,0,1-3.56,3.86A3.72,3.72,0,0,1,19.58,8.23Zm6.69,6.82v-2.4A5.64,5.64,0,0,0,28,10.22l.72,2.91A4.3,4.3,0,0,1,26.27,15.05ZM22,2.67h2.32a2.52,2.52,0,0,1,2.4,2.59,3.35,3.35,0,0,1-3-.92l-.56-.52-.57.52a3.32,3.32,0,0,1-3,.92,2.4,2.4,0,0,1,0-.37l.14-.58h0A2.42,2.42,0,0,1,22,2.67Zm-3.7,7.59A5.53,5.53,0,0,0,20,12.66V15a4.2,4.2,0,0,1-2.44-1.91Zm4.86,7.19a1.45,1.45,0,0,1-1.46-1.3V13.54a5,5,0,0,0,2.93,0v2.61A1.45,1.45,0,0,1,23.13,17.45Z" fill="#2c5967"/><path d="M40.9,17.51h-.22V16.44a4,4,0,0,0,1.25-2.91V10.61A3,3,0,0,0,38.8,7.27H33.37v6.1a4.29,4.29,0,0,0,1.25,3v2.26l.17.22.05.06a3.79,3.79,0,0,0,2.78,1.24h0a3.82,3.82,0,0,0,2.54-1h.72a2.71,2.71,0,0,1,2.7,2.58v4.3h1.67v-4.3A4.36,4.36,0,0,0,40.9,17.51Zm-.64-4A2.56,2.56,0,0,1,37.62,16,2.64,2.64,0,0,1,35,13.37V11.19a3.13,3.13,0,0,0,1.25.25h4ZM38.8,8.94a1.25,1.25,0,0,1,1.34.83H36.29a1.06,1.06,0,0,1-1.15-.83Zm-1.16,9.55h0A2,2,0,0,1,36.29,18v-.56a4,4,0,0,0,1.33.23A4.27,4.27,0,0,0,39,17.44V18A2.08,2.08,0,0,1,37.64,18.49Z" fill="#2c5967"/><path d="M12.9,13.37V7.27H7.47a3,3,0,0,0-3.13,3.34v2.92a4,4,0,0,0,1.25,2.91v1.07H5.38A4.37,4.37,0,0,0,1,21.76v4.3H2.67v-4.3a2.72,2.72,0,0,1,2.71-2.58H6.1a3.8,3.8,0,0,0,2.53,1h0a3.77,3.77,0,0,0,2.78-1.24l.22-.28V16.38A4.29,4.29,0,0,0,12.9,13.37ZM7.47,8.94h3.66A1.06,1.06,0,0,1,10,9.77H6.13A1.25,1.25,0,0,1,7.47,8.94ZM10,11.44a3.06,3.06,0,0,0,1.25-.25v2.18A2.64,2.64,0,0,1,8.65,16,2.57,2.57,0,0,1,6,13.53V11.44Zm-1.34,7A2.18,2.18,0,0,1,7.26,18v-.54a4.31,4.31,0,0,0,1.39.23A4,4,0,0,0,10,17.44V18A2,2,0,0,1,8.64,18.49Z" fill="#2c5967"/></svg>