<svg id="Layer_1" data-name="Layer 1" xmlns="http://www.w3.org/2000/svg" viewBox="0 0 46.16 42"><defs><style>.cls-1{fill:#fff;}.cls-2{fill:none;}.cls-3{fill:#2c5967;}</style></defs><title>WebLogic Site (WLST)</title><metadata><?xpacket begin="﻿" id="W5M0MpCehiHzreSzNTczkc9d"?>
<x:xmpmeta xmlns:x="adobe:ns:meta/" x:xmptk="Adobe XMP Core 6.0-c006 79.164648, 2021/01/12-15:52:29        ">
   <rdf:RDF xmlns:rdf="http://www.w3.org/1999/02/22-rdf-syntax-ns#">
      <rdf:Description rdf:about=""
            xmlns:xmpRights="http://ns.adobe.com/xap/1.0/rights/"
            xmlns:xmp="http://ns.adobe.com/xap/1.0/"
            xmlns:xmpMM="http://ns.adobe.com/xap/1.0/mm/"
            xmlns:stEvt="http://ns.adobe.com/xap/1.0/sType/ResourceEvent#"
            xmlns:dc="http://purl.org/dc/elements/1.1/"
            xmlns:lr="http://ns.adobe.com/lightroom/1.0/">
         <xmpRights:Marked>True</xmpRights:Marked>
         <xmp:MetadataDate>2021-07-21T19:24:18-05:00</xmp:MetadataDate>
         <xmpMM:InstanceID>xmp.iid:dd40820b-23b3-406e-bddb-80647d20804e</xmpMM:InstanceID>
         <xmpMM:DocumentID>xmp.did:b6406246-de6d-4087-b001-3a81015f122f</xmpMM:DocumentID>
         <xmpMM:OriginalDocumentID>xmp.did:b6406246-de6d-4087-b001-3a81015f122f</xmpMM:OriginalDocumentID>
         <xmpMM:History>
            <rdf:Seq>
               <rdf:li>
                  <rdf:Description>
                     <stEvt:action>saved</stEvt:action>
                     <stEvt:instanceID>xmp.iid:b6406246-de6d-4087-b001-3a81015f122f</stEvt:instanceID>
                     <stEvt:when>2021-06-23T15:54:05-05:00</stEvt:when>
                     <stEvt:softwareAgent>Adobe Bridge 2021 (Macintosh)</stEvt:softwareAgent>
                     <stEvt:changed>/metadata</stEvt:changed>
                  </rdf:Description>
               </rdf:li>
               <rdf:li>
                  <rdf:Description>
                     <stEvt:action>saved</stEvt:action>
                     <stEvt:instanceID>xmp.iid:dd40820b-23b3-406e-bddb-80647d20804e</stEvt:instanceID>
                     <stEvt:when>2021-07-21T19:24:18-05:00</stEvt:when>
                     <stEvt:softwareAgent>Adobe Bridge 2021 (Macintosh)</stEvt:softwareAgent>
                     <stEvt:changed>/metadata</stEvt:changed>
                  </rdf:Description>
               </rdf:li>
            </rdf:Seq>
         </xmpMM:History>
         <dc:title>
            <rdf:Alt>
               <rdf:li xml:lang="x-default">WebLogic Site (WLST)</rdf:li>
            </rdf:Alt>
         </dc:title>
         <dc:rights>
            <rdf:Alt>
               <rdf:li xml:lang="x-default">Oracle All Rights Reserved</rdf:li>
            </rdf:Alt>
         </dc:rights>
         <dc:subject>
            <rdf:Bag>
               <rdf:li>icon</rdf:li>
               <rdf:li>technology</rdf:li>
               <rdf:li>WLST</rdf:li>
            </rdf:Bag>
         </dc:subject>
         <lr:hierarchicalSubject>
            <rdf:Bag>
               <rdf:li>icon</rdf:li>
               <rdf:li>technology</rdf:li>
            </rdf:Bag>
         </lr:hierarchicalSubject>
      </rdf:Description>
   </rdf:RDF>
</x:xmpmeta>
                                                                                                    
                                                                                                    
                                                                                                    
                                                                                                    
                                                                                                    
                                                                                                    
                                                                                                    
                                                                                                    
                                                                                                    
  
<?xpacket end="w"?></metadata>
<rect class="cls-1" x="0.5" y="0.5" width="45.16" height="41" rx="2.84"/><path class="cls-1" d="M42.82,1a2.34,2.34,0,0,1,2.34,2.34V38.66A2.34,2.34,0,0,1,42.82,41H3.34A2.34,2.34,0,0,1,1,38.66V3.34A2.34,2.34,0,0,1,3.34,1H42.82m0-1H3.34A3.35,3.35,0,0,0,0,3.34V38.66A3.35,3.35,0,0,0,3.34,42H42.82a3.35,3.35,0,0,0,3.34-3.34V3.34A3.35,3.35,0,0,0,42.82,0Z"/><rect class="cls-2" x="19.44" y="13.47" width="23.64" height="3.38"/><rect class="cls-2" x="3.08" y="13.47" width="14.29" height="3.38"/><path class="cls-2" d="M3.08,18.92V38.66a.25.25,0,0,0,.26.26H42.82a.26.26,0,0,0,.26-.26V18.92ZM22.56,29.83l-16.37,7V34.17l12.47-5.38v-.26L6.19,23.34v-2.6l16.37,6.75Zm17.4,7H24.64V34.25H40Z"/><path class="cls-2" d="M43.08,11.39v-8a.26.26,0,0,0-.26-.26H3.34a.25.25,0,0,0-.26.26v8.05ZM18.53,5.68A1.43,1.43,0,1,1,17.1,7.1,1.42,1.42,0,0,1,18.53,5.68Zm-5.19,0A1.43,1.43,0,1,1,11.91,7.1,1.42,1.42,0,0,1,13.34,5.68Zm-5.2,0A1.43,1.43,0,1,1,6.71,7.1,1.42,1.42,0,0,1,8.14,5.68Z"/><path class="cls-3" d="M42.82,1H3.34A2.34,2.34,0,0,0,1,3.34V38.66A2.34,2.34,0,0,0,3.34,41H42.82a2.34,2.34,0,0,0,2.34-2.34V3.34A2.34,2.34,0,0,0,42.82,1ZM3.34,3.08H42.82a.26.26,0,0,1,.26.26v8.05h-40v-8A.25.25,0,0,1,3.34,3.08ZM3.08,13.47H17.36v3.37H3.08Zm16.36,0H43.08v3.37H19.44ZM42.82,38.92H3.34a.25.25,0,0,1-.26-.26V18.92h40V38.66A.26.26,0,0,1,42.82,38.92Z"/><rect class="cls-3" x="24.64" y="34.25" width="15.32" height="2.6"/><polygon class="cls-3" points="6.2 23.34 18.66 28.53 18.66 28.79 6.2 34.17 6.2 36.84 22.56 29.83 22.56 27.49 6.2 20.74 6.2 23.34"/><circle class="cls-3" cx="8.14" cy="7.1" r="1.43"/><circle class="cls-3" cx="13.34" cy="7.1" r="1.43"/><circle class="cls-3" cx="18.53" cy="7.1" r="1.43"/></svg>