<svg id="Layer_1" data-name="Layer 1" xmlns="http://www.w3.org/2000/svg" viewBox="0 0 38.17 42.31"><metadata><?xpacket begin="﻿" id="W5M0MpCehiHzreSzNTczkc9d"?>
<x:xmpmeta xmlns:x="adobe:ns:meta/" x:xmptk="Adobe XMP Core 6.0-c006 79.164648, 2021/01/12-15:52:29        ">
   <rdf:RDF xmlns:rdf="http://www.w3.org/1999/02/22-rdf-syntax-ns#">
      <rdf:Description rdf:about=""
            xmlns:dc="http://purl.org/dc/elements/1.1/"
            xmlns:xmp="http://ns.adobe.com/xap/1.0/"
            xmlns:xmpMM="http://ns.adobe.com/xap/1.0/mm/"
            xmlns:stEvt="http://ns.adobe.com/xap/1.0/sType/ResourceEvent#"
            xmlns:lr="http://ns.adobe.com/lightroom/1.0/"
            xmlns:xmpRights="http://ns.adobe.com/xap/1.0/rights/">
         <dc:subject>
            <rdf:Bag>
               <rdf:li>data</rdf:li>
               <rdf:li>database</rdf:li>
               <rdf:li>search</rdf:li>
               <rdf:li>compass</rdf:li>
               <rdf:li>icon</rdf:li>
            </rdf:Bag>
         </dc:subject>
         <dc:rights>
            <rdf:Alt>
               <rdf:li xml:lang="x-default">Oracle All Rights</rdf:li>
            </rdf:Alt>
         </dc:rights>
         <xmp:MetadataDate>2023-04-12T12:13:31-06:00</xmp:MetadataDate>
         <xmpMM:InstanceID>xmp.iid:4d36fce9-e060-464e-bf7a-229f74b18dc6</xmpMM:InstanceID>
         <xmpMM:DocumentID>xmp.did:518e7ba5-5c2f-430d-b761-0e7efaf105d0</xmpMM:DocumentID>
         <xmpMM:OriginalDocumentID>xmp.did:518e7ba5-5c2f-430d-b761-0e7efaf105d0</xmpMM:OriginalDocumentID>
         <xmpMM:History>
            <rdf:Seq>
               <rdf:li>
                  <rdf:Description>
                     <stEvt:action>saved</stEvt:action>
                     <stEvt:instanceID>xmp.iid:518e7ba5-5c2f-430d-b761-0e7efaf105d0</stEvt:instanceID>
                     <stEvt:when>2023-04-12T11:22:44-06:00</stEvt:when>
                     <stEvt:softwareAgent>Adobe Bridge 2021 (Macintosh)</stEvt:softwareAgent>
                     <stEvt:changed>/metadata</stEvt:changed>
                  </rdf:Description>
               </rdf:li>
               <rdf:li>
                  <rdf:Description>
                     <stEvt:action>saved</stEvt:action>
                     <stEvt:instanceID>xmp.iid:4d36fce9-e060-464e-bf7a-229f74b18dc6</stEvt:instanceID>
                     <stEvt:when>2023-04-12T12:13:31-06:00</stEvt:when>
                     <stEvt:softwareAgent>Adobe Bridge 2021 (Macintosh)</stEvt:softwareAgent>
                     <stEvt:changed>/metadata</stEvt:changed>
                  </rdf:Description>
               </rdf:li>
            </rdf:Seq>
         </xmpMM:History>
         <lr:hierarchicalSubject>
            <rdf:Bag>
               <rdf:li>Other Keywords|icon</rdf:li>
            </rdf:Bag>
         </lr:hierarchicalSubject>
         <xmpRights:Marked>True</xmpRights:Marked>
      </rdf:Description>
   </rdf:RDF>
</x:xmpmeta>
                                                                                                    
                                                                                                    
                                                                                                    
                                                                                                    
                                                                                                    
                                                                                                    
                                                                                                    
                                                                                                    
                                                                                                    
                                                                                            
<?xpacket end="w"?></metadata>
<path d="M29.32,39.46a1.75,1.75,0,0,0,0,.4l.7.7-1,.16a65.45,65.45,0,0,1-10.11.78C17,41.5.5,41.35.5,36.07V6.48a1.21,1.21,0,0,1,0-.19c0-.08,0-.15,0-.23C.5,2,10.42.5,18.91.5S37.32,2,37.32,6.06a1.79,1.79,0,0,1,0,.23,1.23,1.23,0,0,1,0,.19V34.53l-1.42-1-.3.2,1.86,1.86-6,6Z" fill="#fff"/><path d="M18.91,1c8.62,0,17.91,1.58,17.91,5.06a2.29,2.29,0,0,1,0,.25.88.88,0,0,1,0,.17V33.57L36,33h0a4,4,0,0,0-1.13.71c.07.08.16.15.24.23l1.68,1.68L31.47,40.9l-1.69-1.69c-.27-.26-.52-.56-.78-.84-.19.92-.29,1.63-.15,1.77l.09.09a65.06,65.06,0,0,1-10,.77C12.71,41,1,40,1,36.07V6.48a.88.88,0,0,1,0-.17,2.29,2.29,0,0,1,0-.25C1,2.58,10.28,1,18.91,1m0-1C15.75,0,0,.29,0,6.06a1.85,1.85,0,0,0,0,.23,1.15,1.15,0,0,0,0,.19V36.07C0,41.71,15.75,42,18.91,42a65.24,65.24,0,0,0,10.19-.79L30.18,41l.58.58.71.7.7-.7,5.29-5.29.71-.71-.35-.35V6.48c0-.07,0-.13,0-.19s0-.16,0-.23C37.82.29,22.07,0,18.91,0Z" fill="#fff"/><path d="M27.55,38.75a62.09,62.09,0,0,1-8.64.56A53.25,53.25,0,0,1,7,38.14c-3.56-.85-4.35-1.8-4.35-2.07V28.46c1.95,1.16,5.36,1.85,8.81,2.24a11.39,11.39,0,0,1-1.33-1.85C9.05,28.68,8,28.48,7,28.26c-3.56-.85-4.35-1.81-4.35-2.07V18.72a19.73,19.73,0,0,0,6.52,1.93,11.41,11.41,0,0,1,.6-1.6c-1-.15-1.92-.33-2.77-.53-3.56-.85-4.35-1.81-4.35-2.07V8.37c3.06,1.87,9.82,2.74,16.22,2.74s13.16-.87,16.22-2.74v8.08c0,.26-.8,1.22-4.35,2.07-.56.13-1.15.25-1.76.36a10.73,10.73,0,0,1,.63,1.59,17.4,17.4,0,0,0,5.48-1.75v7.47c0,.26-.8,1.22-4.35,2.07l-.49.11,1.8,1.29a12.58,12.58,0,0,0,3-1.2v3.71L36,33l.83.82V6.48a.88.88,0,0,0,0-.17,2.29,2.29,0,0,0,0-.25C36.82,2.58,27.53,1,18.91,1S1,2.58,1,6.06a2.29,2.29,0,0,0,0,.25.88.88,0,0,0,0,.17V36.07C1,40,12.71,41,18.91,41a65.06,65.06,0,0,0,10-.77l-.09-.09C28.41,39.7,28,39.23,27.55,38.75ZM7,3.9A52,52,0,0,1,18.91,2.69,51.86,51.86,0,0,1,30.77,3.9c3.58.88,4.36,1.85,4.36,2.16s-.78,1.28-4.36,2.16A51.86,51.86,0,0,1,18.91,9.43,52,52,0,0,1,7,8.22C3.47,7.34,2.69,6.36,2.69,6.06S3.47,4.78,7,3.9Z" fill="#2c5967"/><path d="M31.49,30.85l-3.71-2.68a9.39,9.39,0,1,0-8.24,4.89A9.24,9.24,0,0,0,24,31.92l2.69,3.73a32,32,0,0,0,3.07,3.56l1.68,1.69,5.29-5.29-1.68-1.68A33.42,33.42,0,0,0,31.49,30.85Zm-11,.47V29.64H18.8v1.7a7.69,7.69,0,0,1-6.92-7h1.68V22.69H11.92A7.68,7.68,0,0,1,18.8,16v1.65h1.69V16.06a7.66,7.66,0,0,1,6.67,6.63H25.54v1.68H27.2a7.7,7.7,0,0,1-6.71,7Zm11,7.2L31,38a31.3,31.3,0,0,1-2.9-3.37L25.42,31a9.32,9.32,0,0,0,.75-.66,9.45,9.45,0,0,0,.67-.75L30.5,32.2a34,34,0,0,1,3.38,2.92l.49.49Z" fill="#2c5967"/><path d="M18.22,21.21,19,22a1.59,1.59,0,0,1,.66-.14,1.69,1.69,0,0,1,1.68,1.69,1.85,1.85,0,0,1-.13.66L22,25l2-5.74Z" fill="#2c5967"/><path d="M19.65,25.21A1.68,1.68,0,0,1,18,23.53a1.76,1.76,0,0,1,.13-.66l-.76-.76-2,5.74,5.74-2-.77-.76A1.57,1.57,0,0,1,19.65,25.21Z" fill="#2c5967"/></svg>