<svg id="Layer_1" data-name="Layer 1" xmlns="http://www.w3.org/2000/svg" viewBox="0 0 42.08 21.98"><metadata><?xpacket begin="﻿" id="W5M0MpCehiHzreSzNTczkc9d"?>
<x:xmpmeta xmlns:x="adobe:ns:meta/" x:xmptk="Adobe XMP Core 6.0-c006 79.164648, 2021/01/12-15:52:29        ">
   <rdf:RDF xmlns:rdf="http://www.w3.org/1999/02/22-rdf-syntax-ns#">
      <rdf:Description rdf:about=""
            xmlns:dc="http://purl.org/dc/elements/1.1/"
            xmlns:xmp="http://ns.adobe.com/xap/1.0/"
            xmlns:xmpMM="http://ns.adobe.com/xap/1.0/mm/"
            xmlns:stEvt="http://ns.adobe.com/xap/1.0/sType/ResourceEvent#"
            xmlns:lr="http://ns.adobe.com/lightroom/1.0/"
            xmlns:xmpRights="http://ns.adobe.com/xap/1.0/rights/">
         <dc:subject>
            <rdf:Bag>
               <rdf:li>methods advisor</rdf:li>
               <rdf:li>icon</rdf:li>
            </rdf:Bag>
         </dc:subject>
         <dc:rights>
            <rdf:Alt>
               <rdf:li xml:lang="x-default">Oracle All Rights</rdf:li>
            </rdf:Alt>
         </dc:rights>
         <xmp:MetadataDate>2023-04-12T12:13:31-06:00</xmp:MetadataDate>
         <xmpMM:InstanceID>xmp.iid:db7c3644-4bd7-45bb-bffd-92878247fefb</xmpMM:InstanceID>
         <xmpMM:DocumentID>xmp.did:77674285-328e-43e3-b41e-e2f67671ec79</xmpMM:DocumentID>
         <xmpMM:OriginalDocumentID>xmp.did:77674285-328e-43e3-b41e-e2f67671ec79</xmpMM:OriginalDocumentID>
         <xmpMM:History>
            <rdf:Seq>
               <rdf:li>
                  <rdf:Description>
                     <stEvt:action>saved</stEvt:action>
                     <stEvt:instanceID>xmp.iid:77674285-328e-43e3-b41e-e2f67671ec79</stEvt:instanceID>
                     <stEvt:when>2023-04-12T11:24:06-06:00</stEvt:when>
                     <stEvt:softwareAgent>Adobe Bridge 2021 (Macintosh)</stEvt:softwareAgent>
                     <stEvt:changed>/metadata</stEvt:changed>
                  </rdf:Description>
               </rdf:li>
               <rdf:li>
                  <rdf:Description>
                     <stEvt:action>saved</stEvt:action>
                     <stEvt:instanceID>xmp.iid:db7c3644-4bd7-45bb-bffd-92878247fefb</stEvt:instanceID>
                     <stEvt:when>2023-04-12T12:13:31-06:00</stEvt:when>
                     <stEvt:softwareAgent>Adobe Bridge 2021 (Macintosh)</stEvt:softwareAgent>
                     <stEvt:changed>/metadata</stEvt:changed>
                  </rdf:Description>
               </rdf:li>
            </rdf:Seq>
         </xmpMM:History>
         <lr:hierarchicalSubject>
            <rdf:Bag>
               <rdf:li>Other Keywords|icon</rdf:li>
            </rdf:Bag>
         </lr:hierarchicalSubject>
         <xmpRights:Marked>True</xmpRights:Marked>
      </rdf:Description>
   </rdf:RDF>
</x:xmpmeta>
                                                                                                    
                                                                                                    
                                                                                                    
                                                                                                    
                                                                                                    
                                                                                                    
                                                                                                    
                                                                                                    
                                                                                                    
                                                                                                    
                      
<?xpacket end="w"?></metadata>
<path d="M18.15,21.48h0l-5.22,0H.54L.65,20A9.87,9.87,0,0,1,6,12,2.37,2.37,0,0,0,7.2,10.28a7.59,7.59,0,0,1,7.45-6.13,5.53,5.53,0,0,1,.71,0h.24a2.26,2.26,0,0,0,1.68-.72,9.37,9.37,0,0,1,6.83-3,9.26,9.26,0,0,1,8.33,5.15A2.42,2.42,0,0,0,34.12,7a9.55,9.55,0,0,1,6.32,13.82l-.38.71Z" fill="#fff"/><path d="M24.11,1A8.76,8.76,0,0,1,32,5.88a2.94,2.94,0,0,0,2,1.56,9.16,9.16,0,0,1,2.86,1.18A9,9,0,0,1,40,20.53l-.24.45H18.56s-3.08,0-5.62,0l-.47,0H1.08l.07-.92a9.4,9.4,0,0,1,5-7.67,2.91,2.91,0,0,0,1.52-2,7.09,7.09,0,0,1,4.1-5.13,7.21,7.21,0,0,1,2.85-.6c.23,0,.45,0,.67,0l.28,0a2.8,2.8,0,0,0,2-.88A8.85,8.85,0,0,1,24.11,1m0-1a9.82,9.82,0,0,0-7.19,3.14,1.78,1.78,0,0,1-1.32.56h-.19a6.34,6.34,0,0,0-.76,0,8.12,8.12,0,0,0-7.94,6.54,1.91,1.91,0,0,1-1,1.32A10.41,10.41,0,0,0,.15,20l-.07.92L0,22H12.47l.35,0H40.36l.28-.52.24-.45A10,10,0,0,0,34.23,6.47a2,2,0,0,1-1.34-1A9.77,9.77,0,0,0,24.11,0Z" fill="#fff"/><path d="M36.87,8.62A9.16,9.16,0,0,0,34,7.44a2.94,2.94,0,0,1-2-1.56A8.76,8.76,0,0,0,24.11,1a8.85,8.85,0,0,0-6.46,2.82,2.78,2.78,0,0,1-2.33.86,7.21,7.21,0,0,0-3.52.57,7.09,7.09,0,0,0-4.1,5.13,2.91,2.91,0,0,1-1.52,2,9.4,9.4,0,0,0-5,7.67L1.08,21H12.47a11.61,11.61,0,0,0,5.14-1.2,7.45,7.45,0,0,0,2.47-2l4.24-5.47v4.39H26V9.59H19v1.72h4l-4.19,5.4a5.61,5.61,0,0,1-1.87,1.53,10,10,0,0,1-4.38,1H3a7.7,7.7,0,0,1,4-5.34,4.6,4.6,0,0,0,2.4-3.21,5.37,5.37,0,0,1,3.11-3.88,5.42,5.42,0,0,1,2.66-.44A4.48,4.48,0,0,0,18.91,5a7.12,7.12,0,0,1,5.2-2.27,7,7,0,0,1,6.34,3.92,4.7,4.7,0,0,0,3.19,2.48,7.19,7.19,0,0,1,2.31,1,7.32,7.32,0,0,1,2.76,9.19H21a8.4,8.4,0,0,1-2.3,1.68l-.1,0h21.2l.24-.45A9,9,0,0,0,36.87,8.62Z" fill="#2c5967"/></svg>