<svg id="Layer_1" data-name="Layer 1" xmlns="http://www.w3.org/2000/svg" viewBox="0 0 52.45 42"><title>Customer_Oracle-Account-Management-Female</title><metadata><?xpacket begin="﻿" id="W5M0MpCehiHzreSzNTczkc9d"?>
<x:xmpmeta xmlns:x="adobe:ns:meta/" x:xmptk="Adobe XMP Core 6.0-c006 79.164648, 2021/01/12-15:52:29        ">
   <rdf:RDF xmlns:rdf="http://www.w3.org/1999/02/22-rdf-syntax-ns#">
      <rdf:Description rdf:about=""
            xmlns:xmpRights="http://ns.adobe.com/xap/1.0/rights/"
            xmlns:xmp="http://ns.adobe.com/xap/1.0/"
            xmlns:xmpMM="http://ns.adobe.com/xap/1.0/mm/"
            xmlns:stEvt="http://ns.adobe.com/xap/1.0/sType/ResourceEvent#"
            xmlns:dc="http://purl.org/dc/elements/1.1/"
            xmlns:lr="http://ns.adobe.com/lightroom/1.0/">
         <xmpRights:Marked>True</xmpRights:Marked>
         <xmp:MetadataDate>2022-01-29T10:33:07-06:00</xmp:MetadataDate>
         <xmpMM:InstanceID>xmp.iid:0ec4aefd-8d53-4109-b708-b28172b00568</xmpMM:InstanceID>
         <xmpMM:DocumentID>xmp.did:e8553571-139d-c147-b1f8-de3ede27c5ce</xmpMM:DocumentID>
         <xmpMM:OriginalDocumentID>xmp.did:e8553571-139d-c147-b1f8-de3ede27c5ce</xmpMM:OriginalDocumentID>
         <xmpMM:History>
            <rdf:Seq>
               <rdf:li>
                  <rdf:Description>
                     <stEvt:action>saved</stEvt:action>
                     <stEvt:instanceID>xmp.iid:e8553571-139d-c147-b1f8-de3ede27c5ce</stEvt:instanceID>
                     <stEvt:when>2022-01-28T20:44:43-06:00</stEvt:when>
                     <stEvt:softwareAgent>Adobe Bridge 2020 (Windows)</stEvt:softwareAgent>
                     <stEvt:changed>/metadata</stEvt:changed>
                  </rdf:Description>
               </rdf:li>
               <rdf:li>
                  <rdf:Description>
                     <stEvt:action>saved</stEvt:action>
                     <stEvt:instanceID>xmp.iid:0ec4aefd-8d53-4109-b708-b28172b00568</stEvt:instanceID>
                     <stEvt:when>2022-01-29T10:33:07-06:00</stEvt:when>
                     <stEvt:softwareAgent>Adobe Bridge 2021 (Macintosh)</stEvt:softwareAgent>
                     <stEvt:changed>/metadata</stEvt:changed>
                  </rdf:Description>
               </rdf:li>
            </rdf:Seq>
         </xmpMM:History>
         <dc:title>
            <rdf:Alt>
               <rdf:li xml:lang="x-default">Customer_Oracle-Account-Management-Female</rdf:li>
            </rdf:Alt>
         </dc:title>
         <dc:rights>
            <rdf:Alt>
               <rdf:li xml:lang="x-default">Oracle, All rights reserved</rdf:li>
            </rdf:Alt>
         </dc:rights>
         <dc:subject>
            <rdf:Bag>
               <rdf:li>icon</rdf:li>
               <rdf:li>user</rdf:li>
               <rdf:li>person</rdf:li>
               <rdf:li>persona</rdf:li>
               <rdf:li>Folder</rdf:li>
               <rdf:li>account</rdf:li>
               <rdf:li>database</rdf:li>
               <rdf:li>women</rdf:li>
               <rdf:li>man</rdf:li>
               <rdf:li>woman</rdf:li>
            </rdf:Bag>
         </dc:subject>
         <lr:hierarchicalSubject>
            <rdf:Bag>
               <rdf:li>icon</rdf:li>
               <rdf:li>Other Keywords|user</rdf:li>
               <rdf:li>Other Keywords|person</rdf:li>
               <rdf:li>Other Keywords|persona</rdf:li>
               <rdf:li>Folder</rdf:li>
               <rdf:li>Other Keywords|account</rdf:li>
               <rdf:li>database</rdf:li>
               <rdf:li>Other Keywords|women</rdf:li>
               <rdf:li>man</rdf:li>
               <rdf:li>woman</rdf:li>
            </rdf:Bag>
         </lr:hierarchicalSubject>
      </rdf:Description>
   </rdf:RDF>
</x:xmpmeta>
                                                                                                    
                                                                                                    
                                                                                                    
                                                                                                    
                          
<?xpacket end="w"?></metadata>
<path d="M.5,41.5V3.37A2.87,2.87,0,0,1,3.36.5h13.1a2.87,2.87,0,0,1,2.3,1.16l2.67,3.6H49.09A2.86,2.86,0,0,1,52,8.12V41.5Z" fill="#fff"/><path d="M16.46,1a2.38,2.38,0,0,1,1.89,1l2.83,3.81H49.09a2.36,2.36,0,0,1,2.36,2.36V41H1V3.36A2.37,2.37,0,0,1,3.37,1H16.46m0-1H3.37A3.37,3.37,0,0,0,0,3.36V42H52.45V8.12a3.37,3.37,0,0,0-3.36-3.36H21.69l-2.53-3.4A3.38,3.38,0,0,0,16.46,0Z" fill="#fff"/><path d="M49.09,5.76H21.18L18.35,2A2.38,2.38,0,0,0,16.46,1H3.37A2.37,2.37,0,0,0,1,3.37V41H51.45V8.12A2.36,2.36,0,0,0,49.09,5.76ZM3.37,3.1H16.46a.26.26,0,0,1,.21.11l2.68,3.61-2.68,3.56a.26.26,0,0,1-.21.11H3.1V3.37A.27.27,0,0,1,3.37,3.1Zm46,35.8H3.1V12.59H16.46a2.37,2.37,0,0,0,1.89-.94L21.2,7.86H49.09a.26.26,0,0,1,.26.26Z" fill="#2c5967"/><rect x="5.47" y="5.76" width="9.72" height="2.1" fill="#2c5967"/><path d="M45.67,35.19H44.1v-1a5.32,5.32,0,0,0-3.9-5.11A7.31,7.31,0,0,0,40.94,28l.21-.36L39,19h0a4.07,4.07,0,0,0-3.77-3H33.1a4.14,4.14,0,0,0-3.92,3.55l-2,8.11.2.36a7.3,7.3,0,0,0,.73,1.06,5.3,5.3,0,0,0-4,5.13v1H6.78L4.67,36.24v1H47.78v-1l-2.11-1.05ZM31.22,28.78a3.5,3.5,0,0,1-1.81-1.44l.41-1.64a5.33,5.33,0,0,0,1.4,1.65Zm2.89-2.52A3.16,3.16,0,0,1,31.22,23v-.83a4.6,4.6,0,0,0,2.93-.8,4.69,4.69,0,0,0,2.62.81h.3V23A3.19,3.19,0,0,1,34.11,26.26Zm-.79,2a3.94,3.94,0,0,0,1.58,0v2.18a.79.79,0,1,1-1.58,0Zm5.16-2.64.42,1.7A3.42,3.42,0,0,1,37,28.81V27.36A5.59,5.59,0,0,0,38.48,25.64ZM33.1,18.11h2.1A2.06,2.06,0,0,1,37.06,20a2.76,2.76,0,0,1-2.2-.81l-.71-.65-.71.65a2.76,2.76,0,0,1-2.2.81v0l.13-.51h0A2,2,0,0,1,33.1,18.11ZM26.22,34.22a3.2,3.2,0,0,1,3.2-3.2h1.85A2.9,2.9,0,0,0,37,31h1.84a3.2,3.2,0,0,1,3.2,3.2v1H26.22Z" fill="#2c5967"/><path d="M22.71,18.63c0-2.48-6.57-2.61-7.88-2.61s-7.89.13-7.89,2.61c0,0,0,.05,0,.07s0,0,0,.06V31c0,2.43,6.57,2.56,7.89,2.56s7.88-.13,7.88-2.56V18.76a.14.14,0,0,0,0-.06A.14.14,0,0,0,22.71,18.63Zm-14,12.21V28.66a21,21,0,0,0,6.14.82A21,21,0,0,0,21,28.66v2.18c-.49.37-2.64,1-6.13,1S9.18,31.21,8.69,30.84ZM21,26.76c-.49.36-2.64,1-6.13,1s-5.65-.61-6.14-1V24.59a21.26,21.26,0,0,0,6.14.81A21.24,21.24,0,0,0,21,24.59Zm0-4.08c-.49.36-2.64,1-6.13,1s-5.65-.61-6.14-1V20.41a20.73,20.73,0,0,0,6.14.83A20.71,20.71,0,0,0,21,20.41Zm-.26-4.05a15.6,15.6,0,0,1-5.87.86A15.63,15.63,0,0,1,9,18.63a15.63,15.63,0,0,1,5.88-.86A15.6,15.6,0,0,1,20.7,18.63Z" fill="#2c5967"/></svg>