<svg id="Layer_1" data-name="Layer 1" xmlns="http://www.w3.org/2000/svg" viewBox="0 0 44.58 42.02"><defs><style>.cls-1{fill:#fff;}.cls-2{fill:#2c5967;}</style></defs><title>Autonomous Graph Database Cloud Service</title><metadata><?xpacket begin="﻿" id="W5M0MpCehiHzreSzNTczkc9d"?>
<x:xmpmeta xmlns:x="adobe:ns:meta/" x:xmptk="Adobe XMP Core 6.0-c006 79.164648, 2021/01/12-15:52:29        ">
   <rdf:RDF xmlns:rdf="http://www.w3.org/1999/02/22-rdf-syntax-ns#">
      <rdf:Description rdf:about=""
            xmlns:dc="http://purl.org/dc/elements/1.1/"
            xmlns:lr="http://ns.adobe.com/lightroom/1.0/"
            xmlns:xmp="http://ns.adobe.com/xap/1.0/"
            xmlns:xmpMM="http://ns.adobe.com/xap/1.0/mm/"
            xmlns:stEvt="http://ns.adobe.com/xap/1.0/sType/ResourceEvent#"
            xmlns:xmpRights="http://ns.adobe.com/xap/1.0/rights/">
         <dc:title>
            <rdf:Alt>
               <rdf:li xml:lang="x-default">Autonomous Graph Database Cloud Service</rdf:li>
            </rdf:Alt>
         </dc:title>
         <dc:subject>
            <rdf:Bag>
               <rdf:li>icon</rdf:li>
               <rdf:li>Business</rdf:li>
               <rdf:li>Data</rdf:li>
            </rdf:Bag>
         </dc:subject>
         <dc:rights>
            <rdf:Alt>
               <rdf:li xml:lang="x-default">Oracle All Rights Reserved</rdf:li>
            </rdf:Alt>
         </dc:rights>
         <lr:hierarchicalSubject>
            <rdf:Bag>
               <rdf:li>icon</rdf:li>
               <rdf:li>Business</rdf:li>
               <rdf:li>Data</rdf:li>
            </rdf:Bag>
         </lr:hierarchicalSubject>
         <xmp:MetadataDate>2021-07-21T19:23:25-05:00</xmp:MetadataDate>
         <xmpMM:InstanceID>xmp.iid:f1f07a70-f99e-4146-b49b-e0f04701eea3</xmpMM:InstanceID>
         <xmpMM:DocumentID>xmp.did:1aaf13a0-7115-4d2f-a3b4-d1d6c55e6b0a</xmpMM:DocumentID>
         <xmpMM:OriginalDocumentID>xmp.did:1aaf13a0-7115-4d2f-a3b4-d1d6c55e6b0a</xmpMM:OriginalDocumentID>
         <xmpMM:History>
            <rdf:Seq>
               <rdf:li>
                  <rdf:Description>
                     <stEvt:action>saved</stEvt:action>
                     <stEvt:instanceID>xmp.iid:1aaf13a0-7115-4d2f-a3b4-d1d6c55e6b0a</stEvt:instanceID>
                     <stEvt:when>2021-06-18T11:42-05:00</stEvt:when>
                     <stEvt:softwareAgent>Adobe Bridge 2021 (Macintosh)</stEvt:softwareAgent>
                     <stEvt:changed>/metadata</stEvt:changed>
                  </rdf:Description>
               </rdf:li>
               <rdf:li>
                  <rdf:Description>
                     <stEvt:action>saved</stEvt:action>
                     <stEvt:instanceID>xmp.iid:f1f07a70-f99e-4146-b49b-e0f04701eea3</stEvt:instanceID>
                     <stEvt:when>2021-07-21T19:23:25-05:00</stEvt:when>
                     <stEvt:softwareAgent>Adobe Bridge 2021 (Macintosh)</stEvt:softwareAgent>
                     <stEvt:changed>/metadata</stEvt:changed>
                  </rdf:Description>
               </rdf:li>
            </rdf:Seq>
         </xmpMM:History>
         <xmpRights:Marked>True</xmpRights:Marked>
      </rdf:Description>
   </rdf:RDF>
</x:xmpmeta>
                                                                                                    
                                                                                                    
                                                                                                    
                                                                                                    
                                                                                                    
                                                                                                    
                                                                                                    
                                                                                                    
                                                                                                    
                                                                                                    
                                                                                    
<?xpacket end="w"?></metadata>
<path class="cls-1" d="M8.64,41.52a2.91,2.91,0,0,1-.8-5.71L8,34.88A3.19,3.19,0,0,1,7.1,34l-.89.17a2.89,2.89,0,0,1-2.8,2.11,2.92,2.92,0,1,1,2.32-4.67l.88-.17a3.33,3.33,0,0,1,.52-1.17l-1-1.65-.27,0a2.92,2.92,0,1,1,2.91-2.92,2.8,2.8,0,0,1-.43,1.52l1,1.65a2.94,2.94,0,0,1,.51-.05,3,3,0,0,1,.66.08V20.23H2.38l.11-1.4a9.29,9.29,0,0,1,5-7.58A2.22,2.22,0,0,0,8.63,9.71a7.16,7.16,0,0,1,7-5.77q.33,0,.66,0l.23,0a2.06,2.06,0,0,0,1.54-.67A8.7,8.7,0,0,1,23.75.55h0l1,0v0a8.72,8.72,0,0,1,7.57,4.83,2.11,2.11,0,0,0,.41.58L34.12,7l.31,0,.45.09.52.13.17.06a8,8,0,0,1,4.31,3.35l.21.33,0,0a8,8,0,0,1,.63,1.48l3.18,3.18L42,17.59l-1.1-1.1a8,8,0,0,1-7.78,6.36h-.31v10c0,1.35-1.27,2.31-3.88,2.93a32.76,32.76,0,0,1-7.28.73c-.6,0-1.2,0-1.78,0l-.7,0a2.91,2.91,0,0,1-5.81-.32,2.44,2.44,0,0,1,0-.27l-1.65-1a3.29,3.29,0,0,1-1.16.52l-.18.93a2.91,2.91,0,0,1-1.76,5.23Z"/><path class="cls-1" d="M24.49,1a8.21,8.21,0,0,1,7.38,4.57,2.7,2.7,0,0,0,.5.7l1.55,1.22h0c.14,0,.28,0,.41.06l.39.08a3.74,3.74,0,0,1,.48.12l.22.07a7.5,7.5,0,0,1,4,3.12l0,0a7.37,7.37,0,0,1,.82,1.83l2.91,2.91L42,16.88l-1.47-1.46a7.45,7.45,0,0,1-7.42,6.93h0a6.62,6.62,0,0,1-.77,0V32.87c0,1.08-1.14,1.88-3.5,2.45a32.19,32.19,0,0,1-7.16.71c-.6,0-1.19,0-1.76,0l-1.23-.05a1.5,1.5,0,0,1,0,.2,2.41,2.41,0,1,1-4.82,0,3,3,0,0,1,0-.52l-2.22-1.39a2.72,2.72,0,0,1-1.56.69l-.3,1.6a2.42,2.42,0,1,1-1.58-.29l.3-1.6a2.82,2.82,0,0,1-1.22-1.22L5.8,33.7a2.43,2.43,0,1,1-.3-1.58l1.55-.29a2.78,2.78,0,0,1,.69-1.57L6.35,28a2.24,2.24,0,0,1-.52.06,2.42,2.42,0,1,1,2.41-2.42,2.48,2.48,0,0,1-.52,1.51L9.1,29.41a2.67,2.67,0,0,1,.75-.11,2.82,2.82,0,0,1,1.16.27V19.73H2.92L3,18.87A8.8,8.8,0,0,1,7.7,11.69,2.74,2.74,0,0,0,9.12,9.81a6.63,6.63,0,0,1,6.52-5.37c.21,0,.41,0,.62,0l.27,0a2.59,2.59,0,0,0,1.91-.83A8.18,8.18,0,0,1,24.27,1l0,.8,0-.8h.22m.75-1-1,0h0l-1,0V.11A9.15,9.15,0,0,0,17.71,3a1.57,1.57,0,0,1-1.18.51h-.18a5.63,5.63,0,0,0-.71,0,7.77,7.77,0,0,0-3.08.65A7.62,7.62,0,0,0,8.14,9.61a1.74,1.74,0,0,1-.9,1.2,9.77,9.77,0,0,0-5.25,8l-.06.87-.08,1.07H10v7.58H9.6l-.71-1.13a3.37,3.37,0,0,0,.35-1.5A3.42,3.42,0,1,0,5.83,29.1h0l.71,1.13a3.79,3.79,0,0,0-.33.74L5.93,31A3.41,3.41,0,0,0,0,33.33a3.41,3.41,0,0,0,3.41,3.41,3.38,3.38,0,0,0,3.18-2.17l.29-.06a4,4,0,0,0,.58.59l-.06.33a3.41,3.41,0,1,0,3.55.66l.06-.33a3.49,3.49,0,0,0,.74-.33l1.13.71h0A3.41,3.41,0,0,0,19.6,37h.27c.6,0,1.21,0,1.8,0a33,33,0,0,0,7.39-.74c1.06-.25,4.27-1,4.27-3.42V23.35a8.5,8.5,0,0,0,7.86-5.89l.13.13.71.71.7-.71,1.14-1.14.71-.71-.71-.7-2.74-2.75a9.77,9.77,0,0,0-.46-1.12l0,0-.39-.7a8.5,8.5,0,0,0-4.52-3.53l-.06,0-.19-.06L35,6.68l-.44-.09-.22,0-1.28-1a1.61,1.61,0,0,1-.29-.41A9.2,9.2,0,0,0,25.24.05V0Z"/><path class="cls-2" d="M9.8,18.12H4.71a7.18,7.18,0,0,1,3.74-5,4.31,4.31,0,0,0,2.25-3,5,5,0,0,1,2.91-3.64,5,5,0,0,1,2.49-.41,4.21,4.21,0,0,0,3.52-1.31,6.56,6.56,0,0,1,4.69-2.12h.18a6.6,6.6,0,0,1,5.94,3.68,3.3,3.3,0,0,0,.18.32,8.44,8.44,0,0,1,1.76-.34,2.7,2.7,0,0,1-.5-.7A8.21,8.21,0,0,0,24.49,1h-.22a8.18,8.18,0,0,0-5.83,2.63,2.59,2.59,0,0,1-2.18.81A6.8,6.8,0,0,0,13,5,6.67,6.67,0,0,0,9.12,9.81,2.74,2.74,0,0,1,7.7,11.69,8.8,8.8,0,0,0,3,18.87l-.07.86H9.8Z"/><path class="cls-2" d="M30.1,18.39h1.66l.38-1.64h1.93l.37,1.64h1.72l-2.23-7.76H32.34Zm3-5.86.66,2.9H32.44Z"/><path class="cls-2" d="M25.71,14.39l-1.46-1.46-1.14,1.14,3.39,3.38,3.39-3.38-1.14-1.14-1.42,1.41a5.83,5.83,0,0,1,11-2.19L39.46,11a7.45,7.45,0,0,0-13.75,3.42Z"/><path class="cls-2" d="M43.16,15.74l-3.38-3.38-3.39,3.38,1.14,1.14L39,15.47a5.83,5.83,0,0,1-11,2.19l-1.18,1.18a7.44,7.44,0,0,0,13.74-3.42L42,16.88Z"/><path class="cls-2" d="M30.72,27.17c-.38.59-3.66,1.61-9,1.61a36.8,36.8,0,0,1-3.88-.2,3.9,3.9,0,0,1-.44,1,3.66,3.66,0,0,1-.38.5,38.21,38.21,0,0,0,4.7.28,32.19,32.19,0,0,0,7.16-.71,11,11,0,0,0,1.89-.62v3.75c-.34.5-3.31,1.61-9,1.61-.8,0-1.54,0-2.23-.06A3.74,3.74,0,0,1,19.91,36c.57,0,1.16,0,1.76,0a32.19,32.19,0,0,0,7.16-.71c2.36-.57,3.5-1.37,3.5-2.45V23.71a8.66,8.66,0,0,1-1.61-.32Z"/><path class="cls-2" d="M11.48,25.39a3.7,3.7,0,0,1,1.14-.91v-1.1a10.79,10.79,0,0,0,1.89.61,32.2,32.2,0,0,0,7.16.72A32.14,32.14,0,0,0,28.83,24a10.58,10.58,0,0,0,1.87-.6,9.18,9.18,0,0,1-2.16-1,29.91,29.91,0,0,1-6.87.69c-5.39,0-8.67-1-9.05-1.61V17.74a10.74,10.74,0,0,0,1.89.62,32.25,32.25,0,0,0,7.16.71c1.28,0,2.52-.05,3.67-.16a9.52,9.52,0,0,1-.61-1.56c-.92.07-1.95.11-3.06.11-5.39,0-8.67-1-9.05-1.6v-.1c.37-.52,3.32-1.46,9.05-1.46h.4V12.69h-.4a35.07,35.07,0,0,0-7.14.63c-2.37.51-3.52,1.3-3.52,2.39V26.14a3.59,3.59,0,0,1,.27-.47A2.83,2.83,0,0,1,11.48,25.39Z"/><path class="cls-2" d="M16.29,33.73a2.38,2.38,0,0,0-1.5.53l-2.22-1.39a3.08,3.08,0,0,0,.1-.75,2.78,2.78,0,0,0-.34-1.34l.91-.91a2.41,2.41,0,1,0-1.38-2.18,2.37,2.37,0,0,0,.24,1l-.91.91a2.86,2.86,0,0,0-1.34-.34,2.67,2.67,0,0,0-.75.11L7.72,27.19a2.48,2.48,0,0,0,.52-1.51A2.42,2.42,0,1,0,5.83,28.1,2.24,2.24,0,0,0,6.35,28l1.39,2.22a2.78,2.78,0,0,0-.69,1.57l-1.55.29a2.41,2.41,0,1,0,.3,1.58l1.55-.29a2.82,2.82,0,0,0,1.22,1.22l-.3,1.6a2.41,2.41,0,1,0,1.58.29l.3-1.6a2.72,2.72,0,0,0,1.56-.69l2.22,1.39a3,3,0,0,0,0,.52,2.41,2.41,0,1,0,2.41-2.41Zm-6.44-.4a1.21,1.21,0,1,1,1.21-1.21A1.21,1.21,0,0,1,9.85,33.33Zm-4-6.84a.81.81,0,1,1,.8-.81A.81.81,0,0,1,5.83,26.49Zm9.65,9.65a.81.81,0,0,1,.81-.8.81.81,0,0,1,0,1.61A.81.81,0,0,1,15.48,36.14Zm-1.2-7.64a.81.81,0,1,1,.8-.81A.81.81,0,0,1,14.28,28.5ZM4.22,33.33a.81.81,0,1,1-.81-.81A.8.8,0,0,1,4.22,33.33Zm4.42,6.08a.8.8,0,0,1-.8-.8.81.81,0,1,1,.8.8Z"/></svg>