<svg id="Layer_1" data-name="Layer 1" xmlns="http://www.w3.org/2000/svg" viewBox="0 0 42.08 38.5"><title>Identity Cloud Service-Female</title><metadata><?xpacket begin="﻿" id="W5M0MpCehiHzreSzNTczkc9d"?>
<x:xmpmeta xmlns:x="adobe:ns:meta/" x:xmptk="Adobe XMP Core 6.0-c006 79.164648, 2021/01/12-15:52:29        ">
   <rdf:RDF xmlns:rdf="http://www.w3.org/1999/02/22-rdf-syntax-ns#">
      <rdf:Description rdf:about=""
            xmlns:xmpRights="http://ns.adobe.com/xap/1.0/rights/"
            xmlns:xmp="http://ns.adobe.com/xap/1.0/"
            xmlns:xmpMM="http://ns.adobe.com/xap/1.0/mm/"
            xmlns:stEvt="http://ns.adobe.com/xap/1.0/sType/ResourceEvent#"
            xmlns:dc="http://purl.org/dc/elements/1.1/"
            xmlns:lr="http://ns.adobe.com/lightroom/1.0/">
         <xmpRights:Marked>True</xmpRights:Marked>
         <xmp:MetadataDate>2022-01-29T10:33:07-06:00</xmp:MetadataDate>
         <xmpMM:InstanceID>xmp.iid:d9dcf06c-1ba5-4d59-8a0d-5f4fa75184f5</xmpMM:InstanceID>
         <xmpMM:DocumentID>xmp.did:94db5a86-44d7-7544-929d-32a7454c8c43</xmpMM:DocumentID>
         <xmpMM:OriginalDocumentID>xmp.did:94db5a86-44d7-7544-929d-32a7454c8c43</xmpMM:OriginalDocumentID>
         <xmpMM:History>
            <rdf:Seq>
               <rdf:li>
                  <rdf:Description>
                     <stEvt:action>saved</stEvt:action>
                     <stEvt:instanceID>xmp.iid:94db5a86-44d7-7544-929d-32a7454c8c43</stEvt:instanceID>
                     <stEvt:when>2022-01-28T20:44:44-06:00</stEvt:when>
                     <stEvt:softwareAgent>Adobe Bridge 2020 (Windows)</stEvt:softwareAgent>
                     <stEvt:changed>/metadata</stEvt:changed>
                  </rdf:Description>
               </rdf:li>
               <rdf:li>
                  <rdf:Description>
                     <stEvt:action>saved</stEvt:action>
                     <stEvt:instanceID>xmp.iid:d9dcf06c-1ba5-4d59-8a0d-5f4fa75184f5</stEvt:instanceID>
                     <stEvt:when>2022-01-29T10:33:07-06:00</stEvt:when>
                     <stEvt:softwareAgent>Adobe Bridge 2021 (Macintosh)</stEvt:softwareAgent>
                     <stEvt:changed>/metadata</stEvt:changed>
                  </rdf:Description>
               </rdf:li>
            </rdf:Seq>
         </xmpMM:History>
         <dc:title>
            <rdf:Alt>
               <rdf:li xml:lang="x-default">Identity Cloud Service-Female</rdf:li>
            </rdf:Alt>
         </dc:title>
         <dc:rights>
            <rdf:Alt>
               <rdf:li xml:lang="x-default">Oracle, All rights reserved</rdf:li>
            </rdf:Alt>
         </dc:rights>
         <dc:subject>
            <rdf:Bag>
               <rdf:li>icon</rdf:li>
               <rdf:li>user</rdf:li>
               <rdf:li>person</rdf:li>
               <rdf:li>persona</rdf:li>
               <rdf:li>profile</rdf:li>
               <rdf:li>account</rdf:li>
               <rdf:li>ID</rdf:li>
               <rdf:li>women</rdf:li>
               <rdf:li>man</rdf:li>
               <rdf:li>woman</rdf:li>
            </rdf:Bag>
         </dc:subject>
         <lr:hierarchicalSubject>
            <rdf:Bag>
               <rdf:li>icon</rdf:li>
               <rdf:li>Other Keywords|user</rdf:li>
               <rdf:li>Other Keywords|person</rdf:li>
               <rdf:li>Other Keywords|persona</rdf:li>
               <rdf:li>ID</rdf:li>
               <rdf:li>Other Keywords|women</rdf:li>
               <rdf:li>man</rdf:li>
               <rdf:li>woman</rdf:li>
            </rdf:Bag>
         </lr:hierarchicalSubject>
      </rdf:Description>
   </rdf:RDF>
</x:xmpmeta>
                                                                                                    
                                                                                                    
                                                                                                    
                                                                                                    
                                                                                                    
                              
<?xpacket end="w"?></metadata>
<path d="M20.46,37.63C14.3,34.55,10.6,29.7,10.29,24.34V21.48H.54L.65,20A9.87,9.87,0,0,1,6,12a2.41,2.41,0,0,0,1.26-1.67,7.58,7.58,0,0,1,7.45-6.13,5.48,5.48,0,0,1,.7,0h.24a2.26,2.26,0,0,0,1.68-.72A9.31,9.31,0,0,1,32.44,5.65,2.46,2.46,0,0,0,34.12,7a9.22,9.22,0,0,1,3,1.24,9.53,9.53,0,0,1,3.31,12.57l-.38.71H31.91v2.84c-.3,5.37-4,10.21-10.23,13.31l-.61.31Z" fill="#fff"/><path d="M24.11,1A8.76,8.76,0,0,1,32,5.88a2.94,2.94,0,0,0,2,1.56,9.16,9.16,0,0,1,2.86,1.18A9,9,0,0,1,40,20.53l-.24.45H31.41v3.34c-.29,5.15-3.92,9.84-9.95,12.87l-.39.19-.38-.2c-6-3-9.61-7.69-9.9-12.86V21H1.08l.07-.92a9.4,9.4,0,0,1,5-7.67,2.91,2.91,0,0,0,1.52-2,7.09,7.09,0,0,1,4.1-5.13,7.22,7.22,0,0,1,2.86-.6l.66,0,.29,0a2.8,2.8,0,0,0,2-.88A8.85,8.85,0,0,1,24.11,1m0-1a9.82,9.82,0,0,0-7.19,3.14,1.78,1.78,0,0,1-1.31.56h-.2a6.28,6.28,0,0,0-.75,0,8.12,8.12,0,0,0-7.95,6.54,1.91,1.91,0,0,1-1,1.32A10.41,10.41,0,0,0,.15,20l-.07.92L0,22H9.79v2.29h0v.06c.32,5.58,4.12,10.57,10.45,13.74l.38.19.45.23.45-.23.38-.19c6.37-3.19,10.2-8.18,10.51-13.71V22h8l.28-.52.24-.45A10,10,0,0,0,34.23,6.47a2,2,0,0,1-1.35-1A9.74,9.74,0,0,0,24.11,0Z" fill="#fff"/><path d="M36.87,8.62A9.16,9.16,0,0,0,34,7.44a2.94,2.94,0,0,1-2-1.56A8.76,8.76,0,0,0,24.11,1a8.85,8.85,0,0,0-6.46,2.82,2.78,2.78,0,0,1-2.33.86,7.21,7.21,0,0,0-3.52.57,7.09,7.09,0,0,0-4.1,5.13,2.91,2.91,0,0,1-1.52,2,9.4,9.4,0,0,0-5,7.67L1.08,21H9.5V19.26H3a7.7,7.7,0,0,1,4-5.34,4.6,4.6,0,0,0,2.4-3.21,5.37,5.37,0,0,1,3.11-3.88,5.42,5.42,0,0,1,2.66-.44A4.49,4.49,0,0,0,18.91,5a7.12,7.12,0,0,1,5.2-2.27,7,7,0,0,1,6.34,3.92,4.7,4.7,0,0,0,3.19,2.48,7.19,7.19,0,0,1,2.31,1,7.32,7.32,0,0,1,2.76,9.19h-6V21h7.06l.24-.45A9,9,0,0,0,36.87,8.62Z" fill="#2c5967"/><path d="M18.24,27.41h.42a2.49,2.49,0,0,0,4.86,0H24a2.54,2.54,0,0,1,2.48,2l0,0L26.7,29a9.59,9.59,0,0,0,.84-1.49A4.28,4.28,0,0,0,25.82,26,5.86,5.86,0,0,0,26.59,25l.17-.3L25.11,18a3.38,3.38,0,0,0-3.2-2.9H20.19a3.33,3.33,0,0,0-3.08,2.42h0l-1.77,7.11.17.3a5.45,5.45,0,0,0,.85,1.15,4.45,4.45,0,0,0-1.69,1.44A11.57,11.57,0,0,0,15.47,29l.23.33A2.62,2.62,0,0,1,18.24,27.41Zm5.32-3.09a4.38,4.38,0,0,0,1-1.26l.33,1.34a2.82,2.82,0,0,1-1.36,1.14ZM21.84,27a.76.76,0,0,1-1.51,0V25.16a3.6,3.6,0,0,0,1.51,0ZM20.19,16.86h1.72A1.58,1.58,0,0,1,23.32,18h0l.11.42v0a2.27,2.27,0,0,1-1.8-.67l-.58-.52-.58.52a2.31,2.31,0,0,1-1.8.67A1.68,1.68,0,0,1,20.19,16.86Zm-1.53,3.28h.25a3.84,3.84,0,0,0,2.14-.67,3.82,3.82,0,0,0,2.39.66v.68a2.58,2.58,0,0,1-2.36,2.7,2.61,2.61,0,0,1-2.42-2.7ZM17.51,23a4.54,4.54,0,0,0,1.1,1.32v1.24a2.89,2.89,0,0,1-1.45-1.17Z" fill="#2c5967"/><path d="M20.69,37.18l.38.2.39-.19c6-3,9.66-7.72,10-12.87V14.63L21.07,10.2,10.79,14.71v9.61C11.08,29.49,14.69,34.18,20.69,37.18ZM12.51,15.83l8.57-3.76,8.61,3.69v8.48c-.26,4.41-3.39,8.48-8.62,11.21-5.19-2.72-8.3-6.78-8.56-11.21Z" fill="#2c5967"/></svg>