<svg id="Layer_1" data-name="Layer 1" xmlns="http://www.w3.org/2000/svg" viewBox="0 0 42 20.33"><title>Technology - Database-Appliance</title><metadata><?xpacket begin="﻿" id="W5M0MpCehiHzreSzNTczkc9d"?>
<x:xmpmeta xmlns:x="adobe:ns:meta/" x:xmptk="Adobe XMP Core 6.0-c002 79.164352, 2020/01/30-15:50:38        ">
   <rdf:RDF xmlns:rdf="http://www.w3.org/1999/02/22-rdf-syntax-ns#">
      <rdf:Description rdf:about=""
            xmlns:dc="http://purl.org/dc/elements/1.1/"
            xmlns:lr="http://ns.adobe.com/lightroom/1.0/"
            xmlns:xmp="http://ns.adobe.com/xap/1.0/"
            xmlns:xmpMM="http://ns.adobe.com/xap/1.0/mm/"
            xmlns:stEvt="http://ns.adobe.com/xap/1.0/sType/ResourceEvent#">
         <dc:title>
            <rdf:Alt>
               <rdf:li xml:lang="x-default">Technology - Database-Appliance</rdf:li>
            </rdf:Alt>
         </dc:title>
         <dc:subject>
            <rdf:Bag>
               <rdf:li>icon</rdf:li>
               <rdf:li>technology</rdf:li>
               <rdf:li>data</rdf:li>
            </rdf:Bag>
         </dc:subject>
         <lr:hierarchicalSubject>
            <rdf:Bag>
               <rdf:li>icon</rdf:li>
               <rdf:li>technology</rdf:li>
            </rdf:Bag>
         </lr:hierarchicalSubject>
         <xmp:MetadataDate>2021-12-16T16:24:17-06:00</xmp:MetadataDate>
         <xmpMM:InstanceID>xmp.iid:c69d1dbf-7a61-fb48-88f2-4db2114697ef</xmpMM:InstanceID>
         <xmpMM:DocumentID>xmp.did:bbd8d2af-ef26-4445-b5d3-36d22e9d3339</xmpMM:DocumentID>
         <xmpMM:OriginalDocumentID>xmp.did:bbd8d2af-ef26-4445-b5d3-36d22e9d3339</xmpMM:OriginalDocumentID>
         <xmpMM:History>
            <rdf:Seq>
               <rdf:li>
                  <rdf:Description>
                     <stEvt:action>saved</stEvt:action>
                     <stEvt:instanceID>xmp.iid:bbd8d2af-ef26-4445-b5d3-36d22e9d3339</stEvt:instanceID>
                     <stEvt:when>2021-12-16T16:09:38-06:00</stEvt:when>
                     <stEvt:softwareAgent>Adobe Bridge 2020 (Windows)</stEvt:softwareAgent>
                     <stEvt:changed>/metadata</stEvt:changed>
                  </rdf:Description>
               </rdf:li>
               <rdf:li>
                  <rdf:Description>
                     <stEvt:action>saved</stEvt:action>
                     <stEvt:instanceID>xmp.iid:c69d1dbf-7a61-fb48-88f2-4db2114697ef</stEvt:instanceID>
                     <stEvt:when>2021-12-16T16:24:17-06:00</stEvt:when>
                     <stEvt:softwareAgent>Adobe Bridge 2020 (Windows)</stEvt:softwareAgent>
                     <stEvt:changed>/metadata</stEvt:changed>
                  </rdf:Description>
               </rdf:li>
            </rdf:Seq>
         </xmpMM:History>
      </rdf:Description>
   </rdf:RDF>
</x:xmpmeta>
                                                                                                    
                                                                                                    
                                                                                                    
                                                                                                    
                                                                                                    
                                                                                                    
                                                                                                    
                                                                                                    
                                                                                                    
                                                                                                    
                                                                                                    
                                                                                                    
                                                                                                    
                                                                                                    
   
<?xpacket end="w"?></metadata>
<polygon points="0.5 19.83 0.5 0.5 40.57 0.5 41.5 2.36 41.5 17.97 40.57 19.83 0.5 19.83" fill="#fff"/><path d="M40.26,1,41,2.48V17.85l-.74,1.48H1V1H40.26m.62-1H0V20.33H40.88l.27-.55.74-1.48.11-.21V2.25L41.89,2,41.15.55,40.88,0Z" fill="#fff"/><path d="M1,19.33H38.41V1H1ZM2.48,2.48H36.93V17.85H2.48Z" fill="#2c5967"/><rect x="6.37" y="6.74" width="7.04" height="1.48" fill="#2c5967"/><rect x="17.48" y="6.74" width="7.04" height="1.48" fill="#2c5967"/><rect x="28.59" y="6.74" width="7.04" height="1.48" fill="#2c5967"/><rect x="6.37" y="9.52" width="7.04" height="1.48" fill="#2c5967"/><rect x="17.48" y="9.52" width="7.04" height="1.48" fill="#2c5967"/><rect x="28.59" y="9.52" width="7.04" height="1.48" fill="#2c5967"/><rect x="6.37" y="12.3" width="7.04" height="1.48" fill="#2c5967"/><rect x="17.48" y="12.3" width="7.04" height="1.48" fill="#2c5967"/><rect x="28.59" y="12.3" width="7.04" height="1.48" fill="#2c5967"/><rect x="6.37" y="15.07" width="7.04" height="1.48" fill="#2c5967"/><rect x="17.48" y="15.07" width="7.04" height="1.48" fill="#2c5967"/><rect x="28.59" y="15.07" width="7.04" height="1.48" fill="#2c5967"/><polygon points="40.26 1 39.52 1 39.52 2.48 39.52 17.85 39.52 19.33 40.26 19.33 41 17.85 41 2.48 40.26 1" fill="#2c5967"/><rect x="3.78" y="6.74" width="1.48" height="1.48" fill="#2c5967"/><rect x="3.78" y="9.52" width="1.48" height="1.48" fill="#2c5967"/><rect x="3.78" y="12.3" width="1.48" height="1.48" fill="#2c5967"/><rect x="3.78" y="15.07" width="1.48" height="1.48" fill="#2c5967"/><rect x="14.89" y="6.74" width="1.48" height="1.48" fill="#2c5967"/><rect x="14.89" y="9.52" width="1.48" height="1.48" fill="#2c5967"/><rect x="14.89" y="12.3" width="1.48" height="1.48" fill="#2c5967"/><rect x="14.89" y="15.07" width="1.48" height="1.48" fill="#2c5967"/><rect x="26" y="6.74" width="1.48" height="1.48" fill="#2c5967"/><rect x="6.37" y="3.96" width="7.04" height="1.48" fill="#2c5967"/><rect x="17.48" y="3.96" width="7.04" height="1.48" fill="#2c5967"/><rect x="28.59" y="3.96" width="7.04" height="1.48" fill="#2c5967"/><rect x="3.78" y="3.96" width="1.48" height="1.48" fill="#2c5967"/><rect x="14.89" y="3.96" width="1.48" height="1.48" fill="#2c5967"/><rect x="26" y="3.96" width="1.48" height="1.48" fill="#2c5967"/><rect x="26" y="9.52" width="1.48" height="1.48" fill="#2c5967"/><rect x="26" y="12.3" width="1.48" height="1.48" fill="#2c5967"/><rect x="26" y="15.07" width="1.48" height="1.48" fill="#2c5967"/></svg>