<svg id="Layer_1" data-name="Layer 1" xmlns="http://www.w3.org/2000/svg" viewBox="0 0 42.41 33.48"><title>Other - Autonomous-Container-Database</title><metadata><?xpacket begin="﻿" id="W5M0MpCehiHzreSzNTczkc9d"?>
<x:xmpmeta xmlns:x="adobe:ns:meta/" x:xmptk="Adobe XMP Core 6.0-c006 79.164648, 2021/01/12-15:52:29        ">
   <rdf:RDF xmlns:rdf="http://www.w3.org/1999/02/22-rdf-syntax-ns#">
      <rdf:Description rdf:about=""
            xmlns:xmp="http://ns.adobe.com/xap/1.0/"
            xmlns:xmpMM="http://ns.adobe.com/xap/1.0/mm/"
            xmlns:stEvt="http://ns.adobe.com/xap/1.0/sType/ResourceEvent#"
            xmlns:dc="http://purl.org/dc/elements/1.1/"
            xmlns:lr="http://ns.adobe.com/lightroom/1.0/"
            xmlns:xmpRights="http://ns.adobe.com/xap/1.0/rights/">
         <xmp:MetadataDate>2021-11-23T13:28:02-06:00</xmp:MetadataDate>
         <xmpMM:InstanceID>xmp.iid:ad2da559-3f10-4ab0-a1f9-8b03be4bfb12</xmpMM:InstanceID>
         <xmpMM:DocumentID>xmp.did:c7267f33-591e-4a05-b211-fb407c623c8d</xmpMM:DocumentID>
         <xmpMM:OriginalDocumentID>xmp.did:c7267f33-591e-4a05-b211-fb407c623c8d</xmpMM:OriginalDocumentID>
         <xmpMM:History>
            <rdf:Seq>
               <rdf:li>
                  <rdf:Description>
                     <stEvt:action>saved</stEvt:action>
                     <stEvt:instanceID>xmp.iid:c7267f33-591e-4a05-b211-fb407c623c8d</stEvt:instanceID>
                     <stEvt:when>2021-11-22T11:59:50-06:00</stEvt:when>
                     <stEvt:softwareAgent>Adobe Bridge 2021 (Macintosh)</stEvt:softwareAgent>
                     <stEvt:changed>/metadata</stEvt:changed>
                  </rdf:Description>
               </rdf:li>
               <rdf:li>
                  <rdf:Description>
                     <stEvt:action>saved</stEvt:action>
                     <stEvt:instanceID>xmp.iid:ad2da559-3f10-4ab0-a1f9-8b03be4bfb12</stEvt:instanceID>
                     <stEvt:when>2021-11-23T13:28:02-06:00</stEvt:when>
                     <stEvt:softwareAgent>Adobe Bridge 2021 (Macintosh)</stEvt:softwareAgent>
                     <stEvt:changed>/metadata</stEvt:changed>
                  </rdf:Description>
               </rdf:li>
            </rdf:Seq>
         </xmpMM:History>
         <dc:title>
            <rdf:Alt>
               <rdf:li xml:lang="x-default">Other - Autonomous-Container-Database</rdf:li>
            </rdf:Alt>
         </dc:title>
         <dc:subject>
            <rdf:Bag>
               <rdf:li>icon</rdf:li>
               <rdf:li>database</rdf:li>
               <rdf:li>data</rdf:li>
               <rdf:li>technology</rdf:li>
            </rdf:Bag>
         </dc:subject>
         <dc:rights>
            <rdf:Alt>
               <rdf:li xml:lang="x-default">Oracle All Rights Reserved</rdf:li>
            </rdf:Alt>
         </dc:rights>
         <lr:hierarchicalSubject>
            <rdf:Bag>
               <rdf:li>Other Keywords|data</rdf:li>
               <rdf:li>Other Keywords|technology</rdf:li>
            </rdf:Bag>
         </lr:hierarchicalSubject>
         <xmpRights:Marked>True</xmpRights:Marked>
      </rdf:Description>
   </rdf:RDF>
</x:xmpmeta>
                                                                                                    
                                                                                                    
                                                                                                    
                                                                                                    
                                                                                                    
                                                                                                    
                                                                                                    
                                                                                                    
                                          
<?xpacket end="w"?></metadata>
<path d="M.5,33v-7a1.87,1.87,0,0,1,1.87-1.87H4.3v-.78c-1.41-.31-2.13-.9-2.13-1.76V14.29h0s0,0,0-.06c0-2.45,3.88-2.64,5.07-2.64,4.18,0,5.06,1.44,5.06,2.64v7.29c0,.86-.72,1.45-2.13,1.76v.78h4.32v-.78c-1.41-.31-2.13-.9-2.13-1.76V14.34a.34.34,0,0,1,0-.1c0-2.45,3.88-2.64,5.06-2.64,4.19,0,5.07,1.44,5.07,2.64v7.29c0,.86-.72,1.45-2.13,1.76v.78H32.48a1.87,1.87,0,0,1,1.87,1.87v7Z" fill="#fff"/><path d="M17.43,12.1c2.08,0,4.56.37,4.56,2.14,0,0,0,.07,0,.1s0,.05,0,.07V19.1s0,0,0,.07,0,0,0,0v2.32c0,.77-1,1.16-2.13,1.35v1.69H32.48a1.37,1.37,0,0,1,1.37,1.37v6.54H1V25.94a1.37,1.37,0,0,1,1.37-1.37H4.8V22.88c-1.12-.19-2.13-.58-2.13-1.35V19.21s0,0,0,0,0-.05,0-.07V16.71s0,0,0,0V14.41s0-.05,0-.07,0-.06,0-.1c0-2,3.8-2.14,4.57-2.14,2.08,0,4.56.37,4.56,2.14,0,0,0,.07,0,.1s0,.05,0,.07V19.1a.2.2,0,0,1,0,.07s0,0,0,0v2.32c0,.77-1,1.16-2.13,1.35v1.69H15V22.88c-1.12-.19-2.13-.58-2.13-1.35V19.21s0,0,0,0,0-.05,0-.07V16.74a0,0,0,0,1,0,0,.06.06,0,0,1,0,0V14.41s0-.05,0-.07,0-.06,0-.1c0-2,3.8-2.14,4.57-2.14m0-1c-2.49,0-4.26.6-5.07,1.66-.64-.92-2.09-1.66-5.12-1.66-3.49,0-5.57,1.18-5.57,3.14a.28.28,0,0,0,0,.09.22.22,0,0,0,0,.08v2.31h0v2.43h0v2.37c0,.68.34,1.53,1.8,2H2.37A2.38,2.38,0,0,0,0,25.94v7.54H34.85V25.94a2.38,2.38,0,0,0-2.37-2.37H21.2c1.45-.51,1.79-1.36,1.79-2V19.14h0v-4.9c0-1.43-1-3.14-5.56-3.14ZM11,23.57a3,3,0,0,0,1.32-.82,3.07,3.07,0,0,0,1.33.82Z" fill="#fff"/><path d="M26.7,22.94a1.86,1.86,0,0,1-1.86-1.86V19.64c-1.42-.31-2.14-.91-2.14-1.76V15.56l.51,0-.5-.07V10.69s0-.06,0-.1c0-1.48,1.49-2.41,4.19-2.6l.23,0-2-2L26.7,4.42l.77.77a6.15,6.15,0,0,1,11.86-.31l2.38,2.38L40.14,8.83l-.77-.77a6.1,6.1,0,0,1-5.95,4.69l-.59,0v5.16c0,.85-.72,1.45-2.13,1.76v1.44a1.87,1.87,0,0,1-1.87,1.86Z" fill="#fff"/><path d="M33.48,1a5.57,5.57,0,0,1,5.4,4.14L41,7.26l-.86.86L39,7c0,.05,0,.11,0,.16a5.61,5.61,0,0,1-6.69,5v5.74c0,.77-1,1.16-2.13,1.35v1.85a1.37,1.37,0,0,1-1.37,1.36H26.7a1.36,1.36,0,0,1-1.36-1.36V19.23c-1.13-.19-2.14-.58-2.14-1.35V15.56s0,0,0-.05,0,0,0-.06V10.76s0,0,0-.07,0-.06,0-.1c0-1.6,2.35-2,3.73-2.11l1.32-.08L25.84,6l.86-.86,1.11,1.11A5.64,5.64,0,0,1,33.42,1h.06m0-1h-.06a6.65,6.65,0,0,0-6.18,4.25l-.54-.53-.7.71-.86.86-.71.7.71.71.87.88c-3.29.46-3.81,2.06-3.81,3,0,0,0,.06,0,.09s0,.05,0,.08v2.31h0V15.5h0v2.37c0,.73.4,1.65,2.14,2.15v1a2.36,2.36,0,0,0,2.36,2.36h2.13a2.37,2.37,0,0,0,2.37-2.36V20c1.74-.5,2.13-1.42,2.13-2.15V15.49h0V13.25h.09A6.59,6.59,0,0,0,39.61,9l.53.54.71-.71L41.71,8l.7-.71-.7-.71L39.77,4.62A6.56,6.56,0,0,0,33.48,0Z" fill="#fff"/><path d="M32.16,13h0a6.47,6.47,0,0,1-1-.3v.11a8.51,8.51,0,0,1-3.34.47,8.54,8.54,0,0,1-3.35-.47V11.73a11.74,11.74,0,0,0,3.35.37A17.46,17.46,0,0,0,29.72,12a6.15,6.15,0,0,1-.8-.65h0v0l-.27-.27h0l-.16-.18h-.69c-1.76,0-3.2-.16-3.35-.46.15-.44,1.58-.74,3.19-.76l-.15-.31a2.87,2.87,0,0,1-.25-.88h-.28c-1.38.11-3.73.51-3.73,2.11,0,0,0,.07,0,.1s0,.05,0,.07v4.69s0,0,0,.06,0,0,0,.05v2.32c0,.77,1,1.16,2.14,1.35v1.85a1.36,1.36,0,0,0,1.36,1.36h2.13a1.37,1.37,0,0,0,1.37-1.36V19.23c1.12-.19,2.13-.58,2.13-1.35V13.07l-.16,0Zm-3.18,8a.15.15,0,0,1-.15.15H26.7a.15.15,0,0,1-.15-.15V19.37c.46,0,.89,0,1.22,0s.75,0,1.21,0Zm2.13-3.37a8.55,8.55,0,0,1-3.34.48,8.62,8.62,0,0,1-3.35-.48V16.59a12.16,12.16,0,0,0,3.35.38,12.1,12.1,0,0,0,3.34-.38Zm0-2.42a9.31,9.31,0,0,1-3.34.46,9.39,9.39,0,0,1-3.35-.46V14.16a11.77,11.77,0,0,0,3.35.38,10.49,10.49,0,0,0,3.34-.38Z" fill="#2c5967"/><path d="M32.48,24.57H20.77v1.22H32.48a.15.15,0,0,1,.15.15v5.32H2.22V25.94a.15.15,0,0,1,.15-.15H3.89V24.57H2.37A1.37,1.37,0,0,0,1,25.94v6.54H33.85V25.94A1.37,1.37,0,0,0,32.48,24.57Z" fill="#2c5967"/><rect x="10.58" y="24.57" width="3.5" height="1.22" fill="#2c5967"/><path d="M15,22.88v1.85a1.37,1.37,0,0,0,1.37,1.36h2.13a1.37,1.37,0,0,0,1.37-1.36V22.88C21,22.69,22,22.3,22,21.53V19.21s0,0,0-.05,0,0,0-.06V14.41s0-.05,0-.07,0-.06,0-.1c0-1.77-2.48-2.14-4.56-2.14-.77,0-4.57.11-4.57,2.14,0,0,0,.07,0,.1s0,.05,0,.07v2.26a.06.06,0,0,0,0,0V19.1s0,0,0,.06,0,0,0,.05v2.32C12.86,22.3,13.87,22.69,15,22.88Zm3.65,1.85a.15.15,0,0,1-.15.15H16.36a.15.15,0,0,1-.15-.15V23c.46,0,.89,0,1.22,0s.75,0,1.21,0ZM17.43,13.32c2.06,0,3.19.3,3.34.76-.15.3-1.56.46-3.34.46s-3.2-.16-3.35-.46C14.23,13.62,15.74,13.32,17.43,13.32Zm-3.35,2.06a11.74,11.74,0,0,0,3.35.37,11.71,11.71,0,0,0,3.34-.37V16.5a8.51,8.51,0,0,1-3.34.47,8.54,8.54,0,0,1-3.35-.47Zm0,2.43a11.77,11.77,0,0,0,3.35.38,10.49,10.49,0,0,0,3.34-.38v1.13a9.31,9.31,0,0,1-3.34.46,9.34,9.34,0,0,1-3.35-.46Zm0,2.43a12.12,12.12,0,0,0,3.35.38,12.1,12.1,0,0,0,3.34-.38v1.12a8.55,8.55,0,0,1-3.34.48,8.62,8.62,0,0,1-3.35-.48Z" fill="#2c5967"/><path d="M4.8,22.88v1.85a1.37,1.37,0,0,0,1.37,1.36H8.3a1.37,1.37,0,0,0,1.37-1.36V22.88c1.12-.19,2.13-.58,2.13-1.35V19.21s0,0,0-.05a.13.13,0,0,0,0-.06V14.41s0-.05,0-.07,0-.06,0-.1c0-1.77-2.48-2.14-4.56-2.14-.77,0-4.57.11-4.57,2.14,0,0,0,.07,0,.1s0,.05,0,.07v2.26s0,0,0,0V19.1s0,0,0,.06,0,0,0,.05v2.32C2.67,22.3,3.68,22.69,4.8,22.88Zm3.65,1.85a.15.15,0,0,1-.15.15H6.17A.15.15,0,0,1,6,24.73V23c.46,0,.89,0,1.22,0s.75,0,1.21,0ZM7.24,13.32c2.06,0,3.19.3,3.34.76-.15.3-1.56.46-3.34.46s-3.2-.16-3.35-.46C4,13.62,5.55,13.32,7.24,13.32ZM3.89,15.38a11.74,11.74,0,0,0,3.35.37,11.71,11.71,0,0,0,3.34-.37V16.5A8.51,8.51,0,0,1,7.24,17a8.54,8.54,0,0,1-3.35-.47Zm0,2.43a11.77,11.77,0,0,0,3.35.38,10.49,10.49,0,0,0,3.34-.38v1.13a9.31,9.31,0,0,1-3.34.46,9.34,9.34,0,0,1-3.35-.46Zm0,2.43a12.12,12.12,0,0,0,3.35.38,12.1,12.1,0,0,0,3.34-.38v1.12a8.55,8.55,0,0,1-3.34.48,8.62,8.62,0,0,1-3.35-.48Z" fill="#2c5967"/><path d="M29.59,28.53a1.83,1.83,0,1,0-1.82,1.82A1.83,1.83,0,0,0,29.59,28.53Zm-2.43,0a.61.61,0,0,1,.61-.61.61.61,0,0,1,.61.61.62.62,0,0,1-.61.61A.61.61,0,0,1,27.16,28.53Z" fill="#2c5967"/><circle cx="17.43" cy="28.53" r="1.22" fill="#2c5967"/><circle cx="7.24" cy="28.53" r="1.22" fill="#2c5967"/><path d="M32.66,8h1.46l.29,1.23H35.7L34,3.4h-1.2l-1.7,5.86h1.26Zm.74-3.2L33.9,7h-1Z" fill="#2c5967"/><path d="M39,7l1.11,1.1L41,7.26,38.44,4.7,35.88,7.26l.86.86,1.07-1.07a4.41,4.41,0,0,1-8.28,1.66l-.88.89A5.62,5.62,0,0,0,39,7Z" fill="#2c5967"/><path d="M26.7,5.13,25.84,6,28.4,8.55,31,6l-.86-.86L29,6.2a4.42,4.42,0,0,1,8.28-1.66l.89-.89A5.63,5.63,0,0,0,27.81,6.24Z" fill="#2c5967"/></svg>