<svg id="Layer_1" data-name="Layer 1" xmlns="http://www.w3.org/2000/svg" viewBox="0 0 43.89 42"><title>Other - Data-Load-Cloud-Service</title><metadata><?xpacket begin="﻿" id="W5M0MpCehiHzreSzNTczkc9d"?>
<x:xmpmeta xmlns:x="adobe:ns:meta/" x:xmptk="Adobe XMP Core 6.0-c006 79.164648, 2021/01/12-15:52:29        ">
   <rdf:RDF xmlns:rdf="http://www.w3.org/1999/02/22-rdf-syntax-ns#">
      <rdf:Description rdf:about=""
            xmlns:dc="http://purl.org/dc/elements/1.1/"
            xmlns:lr="http://ns.adobe.com/lightroom/1.0/"
            xmlns:xmp="http://ns.adobe.com/xap/1.0/"
            xmlns:xmpMM="http://ns.adobe.com/xap/1.0/mm/"
            xmlns:stEvt="http://ns.adobe.com/xap/1.0/sType/ResourceEvent#"
            xmlns:xmpRights="http://ns.adobe.com/xap/1.0/rights/">
         <dc:title>
            <rdf:Alt>
               <rdf:li xml:lang="x-default">Other - Data-Load-Cloud-Service</rdf:li>
            </rdf:Alt>
         </dc:title>
         <dc:subject>
            <rdf:Bag>
               <rdf:li>document</rdf:li>
            </rdf:Bag>
         </dc:subject>
         <dc:rights>
            <rdf:Alt>
               <rdf:li xml:lang="x-default">Oracle All Rights Reserved</rdf:li>
            </rdf:Alt>
         </dc:rights>
         <lr:hierarchicalSubject>
            <rdf:Bag>
               <rdf:li>document</rdf:li>
            </rdf:Bag>
         </lr:hierarchicalSubject>
         <xmp:MetadataDate>2021-11-23T13:28:02-06:00</xmp:MetadataDate>
         <xmpMM:InstanceID>xmp.iid:0abb6426-38f8-4565-9484-778d8af6fa96</xmpMM:InstanceID>
         <xmpMM:DocumentID>xmp.did:83bc8947-68b0-8e42-9223-a21b8d348b3a</xmpMM:DocumentID>
         <xmpMM:OriginalDocumentID>xmp.did:83bc8947-68b0-8e42-9223-a21b8d348b3a</xmpMM:OriginalDocumentID>
         <xmpMM:History>
            <rdf:Seq>
               <rdf:li>
                  <rdf:Description>
                     <stEvt:action>saved</stEvt:action>
                     <stEvt:instanceID>xmp.iid:83bc8947-68b0-8e42-9223-a21b8d348b3a</stEvt:instanceID>
                     <stEvt:when>2021-11-22T16:28:31-06:00</stEvt:when>
                     <stEvt:softwareAgent>Adobe Bridge 2020 (Windows)</stEvt:softwareAgent>
                     <stEvt:changed>/metadata</stEvt:changed>
                  </rdf:Description>
               </rdf:li>
               <rdf:li>
                  <rdf:Description>
                     <stEvt:action>saved</stEvt:action>
                     <stEvt:instanceID>xmp.iid:0abb6426-38f8-4565-9484-778d8af6fa96</stEvt:instanceID>
                     <stEvt:when>2021-11-23T13:28:02-06:00</stEvt:when>
                     <stEvt:softwareAgent>Adobe Bridge 2021 (Macintosh)</stEvt:softwareAgent>
                     <stEvt:changed>/metadata</stEvt:changed>
                  </rdf:Description>
               </rdf:li>
            </rdf:Seq>
         </xmpMM:History>
         <xmpRights:Marked>True</xmpRights:Marked>
      </rdf:Description>
   </rdf:RDF>
</x:xmpmeta>
                                                                                                    
                                                                                                    
                                                                                                    
                                                                                                    
                                                                                                    
                                                                                                    
                                                                                                    
                                                                                                    
                                                                                                    
                                                                                                    
                                                                                                    
                                                                                                    
                                         
<?xpacket end="w"?></metadata>
<path d="M19.28,41.5V38.36H8v-16H.54l.11-1.51a10.31,10.31,0,0,1,5.53-8.41A2.54,2.54,0,0,0,7.5,10.71a7.92,7.92,0,0,1,7.77-6.39c.25,0,.49,0,.74,0h.26A2.39,2.39,0,0,0,18,3.61,9.71,9.71,0,0,1,33.84,5.87a2.56,2.56,0,0,0,1.77,1.38,9.79,9.79,0,0,1,3.14,1.29,10,10,0,0,1,3.46,13.11l-.4.74H36.88v16H25.67V41.5Z" fill="#fff"/><path d="M25.15,1a9.16,9.16,0,0,1,8.24,5.1A3.14,3.14,0,0,0,35.5,7.74a9.41,9.41,0,0,1,6.27,13.68l-.26.47H36.38v16H25.17V41H19.78V37.86H8.53v-16H1.08l.07-1a9.81,9.81,0,0,1,5.26-8A3,3,0,0,0,8,10.81a7.4,7.4,0,0,1,7.28-6l.69,0h.3a2.87,2.87,0,0,0,2.14-.92A9.25,9.25,0,0,1,25.15,1m0-1a10.24,10.24,0,0,0-7.48,3.26,1.89,1.89,0,0,1-1.41.6h-.2c-.26,0-.53,0-.79,0A8.41,8.41,0,0,0,7,10.61,2,2,0,0,1,6,12a10.81,10.81,0,0,0-5.8,8.82l-.07,1L0,22.89H7.53v16H18.78V42h7.39V38.86H37.38v-16h4.73l.28-.53.26-.47A10.45,10.45,0,0,0,39,8.12a10.24,10.24,0,0,0-3.3-1.36,2.11,2.11,0,0,1-1.44-1.11A10.16,10.16,0,0,0,25.15,0Z" fill="#fff"/><path d="M38.49,9a9.39,9.39,0,0,0-3-1.22A3.14,3.14,0,0,1,33.39,6.1,9.16,9.16,0,0,0,25.15,1,9.25,9.25,0,0,0,18.4,3.94,2.91,2.91,0,0,1,16,4.85a7.41,7.41,0,0,0-8,6,3,3,0,0,1-1.58,2.1,9.81,9.81,0,0,0-5.26,8l-.07,1h6.2v-1.8H3.07A8.05,8.05,0,0,1,7.25,14.5a4.82,4.82,0,0,0,2.51-3.35,5.61,5.61,0,0,1,6-4.51,4.73,4.73,0,0,0,3.93-1.47A7.41,7.41,0,0,1,31.78,6.9a4.89,4.89,0,0,0,3.33,2.59,7.63,7.63,0,0,1,5.31,10.6H37.67v1.8h3.84l.26-.48A9.46,9.46,0,0,0,38.49,9Z" fill="#2c5967"/><path d="M34.77,18.2H19.91l-1.43-1.91a1.6,1.6,0,0,0-1.29-.65h-7a1.61,1.61,0,0,0-1.61,1.61V37.86h9.9v-1.8h-8.1V22.55h6.86a1.62,1.62,0,0,0,1.29-.64L19.91,20H34.58V36.06H26.52v1.8h9.86v-18A1.61,1.61,0,0,0,34.77,18.2ZM17.1,20.75H10.33V17.44H17.1l1.24,1.67Z" fill="#2c5967"/><polygon points="28.5 32.67 23.37 27.55 23.37 41 25.17 41 25.17 31.88 27.23 33.94 28.5 32.67" fill="#2c5967"/><polygon points="17.95 33.72 19.78 31.88 19.78 41 21.58 41 21.58 27.55 16.68 32.45 17.95 33.72" fill="#2c5967"/><polygon points="30.97 30.43 22.48 21.93 14.2 30.2 15.47 31.47 22.48 24.47 29.7 31.7 30.97 30.43" fill="#2c5967"/></svg>