<svg id="Layer_1" data-name="Layer 1" xmlns="http://www.w3.org/2000/svg" viewBox="0 0 46.67 42"><title>Other - Visual-Builder-Cloud-Service-VBCS</title><metadata><?xpacket begin="﻿" id="W5M0MpCehiHzreSzNTczkc9d"?>
<x:xmpmeta xmlns:x="adobe:ns:meta/" x:xmptk="Adobe XMP Core 6.0-c006 79.164648, 2021/01/12-15:52:29        ">
   <rdf:RDF xmlns:rdf="http://www.w3.org/1999/02/22-rdf-syntax-ns#">
      <rdf:Description rdf:about=""
            xmlns:dc="http://purl.org/dc/elements/1.1/"
            xmlns:lr="http://ns.adobe.com/lightroom/1.0/"
            xmlns:xmp="http://ns.adobe.com/xap/1.0/"
            xmlns:xmpMM="http://ns.adobe.com/xap/1.0/mm/"
            xmlns:stEvt="http://ns.adobe.com/xap/1.0/sType/ResourceEvent#"
            xmlns:xmpRights="http://ns.adobe.com/xap/1.0/rights/">
         <dc:title>
            <rdf:Alt>
               <rdf:li xml:lang="x-default">Other - Visual-Builder-Cloud-Service-VBCS</rdf:li>
            </rdf:Alt>
         </dc:title>
         <dc:subject>
            <rdf:Bag>
               <rdf:li>icon</rdf:li>
               <rdf:li>pencil</rdf:li>
            </rdf:Bag>
         </dc:subject>
         <dc:rights>
            <rdf:Alt>
               <rdf:li xml:lang="x-default">Oracle All Rights Reserved</rdf:li>
            </rdf:Alt>
         </dc:rights>
         <lr:hierarchicalSubject>
            <rdf:Bag>
               <rdf:li>icon</rdf:li>
               <rdf:li>pencil</rdf:li>
            </rdf:Bag>
         </lr:hierarchicalSubject>
         <xmp:MetadataDate>2021-11-23T13:28:06-06:00</xmp:MetadataDate>
         <xmpMM:InstanceID>xmp.iid:418c3070-8882-4407-82e8-c2ac014a7c55</xmpMM:InstanceID>
         <xmpMM:DocumentID>xmp.did:3dfab18a-ad89-0646-9055-d6450243c5a3</xmpMM:DocumentID>
         <xmpMM:OriginalDocumentID>xmp.did:3dfab18a-ad89-0646-9055-d6450243c5a3</xmpMM:OriginalDocumentID>
         <xmpMM:History>
            <rdf:Seq>
               <rdf:li>
                  <rdf:Description>
                     <stEvt:action>saved</stEvt:action>
                     <stEvt:instanceID>xmp.iid:3dfab18a-ad89-0646-9055-d6450243c5a3</stEvt:instanceID>
                     <stEvt:when>2021-11-22T15:45:01-06:00</stEvt:when>
                     <stEvt:softwareAgent>Adobe Bridge 2020 (Windows)</stEvt:softwareAgent>
                     <stEvt:changed>/metadata</stEvt:changed>
                  </rdf:Description>
               </rdf:li>
               <rdf:li>
                  <rdf:Description>
                     <stEvt:action>saved</stEvt:action>
                     <stEvt:instanceID>xmp.iid:418c3070-8882-4407-82e8-c2ac014a7c55</stEvt:instanceID>
                     <stEvt:when>2021-11-23T13:28:06-06:00</stEvt:when>
                     <stEvt:softwareAgent>Adobe Bridge 2021 (Macintosh)</stEvt:softwareAgent>
                     <stEvt:changed>/metadata</stEvt:changed>
                  </rdf:Description>
               </rdf:li>
            </rdf:Seq>
         </xmpMM:History>
         <xmpRights:Marked>True</xmpRights:Marked>
      </rdf:Description>
   </rdf:RDF>
</x:xmpmeta>
                                                                                                    
                                                                                                    
                                                                                                    
                                                                                                    
                                                                                                    
                                                                                                    
                                                                                                    
                                                                                                    
                                                                                                    
                                                                                                    
                                                                                                    
                                                                
<?xpacket end="w"?></metadata>
<path d="M13.24,41.5a2.07,2.07,0,0,1-2.07-2.07V23.78H.54l.11-1.57a11,11,0,0,1,5.88-9A2.74,2.74,0,0,0,8,11.36a8.44,8.44,0,0,1,4.87-6.08,8.58,8.58,0,0,1,3.39-.71,6.79,6.79,0,0,1,.78,0h.27a2.59,2.59,0,0,0,1.92-.82A10.31,10.31,0,0,1,36,6.21,2.79,2.79,0,0,0,37.9,7.69a10.83,10.83,0,0,1,3.34,1.38A10.59,10.59,0,0,1,44.91,23l-.41.77H36.61V39.43a2.07,2.07,0,0,1-2.07,2.07Z" fill="#fff"/><path d="M26.75,1a9.77,9.77,0,0,1,8.79,5.44,3.27,3.27,0,0,0,2.25,1.74A10,10,0,0,1,41,9.49a10.09,10.09,0,0,1,3.5,13.28l-.27.51H36.11V39.43A1.57,1.57,0,0,1,34.54,41H13.24a1.57,1.57,0,0,1-1.57-1.57V23.28H1.08l.07-1A10.49,10.49,0,0,1,6.76,13.7a3.19,3.19,0,0,0,1.69-2.24A7.92,7.92,0,0,1,13,5.74a8,8,0,0,1,3.19-.67,6,6,0,0,1,.73,0h.32a3.07,3.07,0,0,0,2.28-1A9.84,9.84,0,0,1,26.75,1m0-1a10.85,10.85,0,0,0-7.93,3.46,2.08,2.08,0,0,1-1.55.66h-.22a7.81,7.81,0,0,0-.83,0,8.9,8.9,0,0,0-8.75,7.19A2.27,2.27,0,0,1,6.3,12.82,11.44,11.44,0,0,0,.16,22.17l-.08,1L0,24.28H10.67V39.43A2.58,2.58,0,0,0,13.24,42h21.3a2.58,2.58,0,0,0,2.57-2.57V24.28H44.8l.28-.53.27-.5a11.09,11.09,0,0,0-3.84-14.6A10.85,10.85,0,0,0,38,7.21,2.34,2.34,0,0,1,36.43,6a10.74,10.74,0,0,0-9.68-6Z" fill="#fff"/><path d="M20.48,35.94,32.75,23.67,29,19.92,17.07,31.85h0l-.34.34L15,37.65ZM29,26.06Zm1-2.39-1,1-1-1,1-1ZM26.61,25l1,1-8.18,8.19-1-1Z" fill="#2c5967"/><path d="M41,9.49a10,10,0,0,0-3.18-1.31,3.27,3.27,0,0,1-2.25-1.74,9.82,9.82,0,0,0-16-2.3,3.12,3.12,0,0,1-2.6,1,7.9,7.9,0,0,0-8.5,6.35A3.19,3.19,0,0,1,6.76,13.7a10.49,10.49,0,0,0-5.61,8.55l-.07,1h9.16V21.36h-7a8.56,8.56,0,0,1,4.46-6,5.15,5.15,0,0,0,2.67-3.57A6,6,0,0,1,16.77,7,5,5,0,0,0,21,5.44,7.91,7.91,0,0,1,33.82,7.29a5.21,5.21,0,0,0,3.55,2.76A8.32,8.32,0,0,1,40,11.11,8.17,8.17,0,0,1,43,21.36H37.54v1.92H44.2l.27-.51A10.09,10.09,0,0,0,41,9.49Z" fill="#2c5967"/><path d="M34.54,16.57H13.24a1.57,1.57,0,0,0-1.57,1.57V39.43A1.57,1.57,0,0,0,13.24,41h21.3a1.57,1.57,0,0,0,1.57-1.57V18.14A1.57,1.57,0,0,0,34.54,16.57ZM15.25,39.08H13.59V25.19H21.7l1.92-1.91h-10V18.49h20.6V39.08Z" fill="#2c5967"/><circle cx="15.99" cy="20.88" r="0.96" fill="#2c5967"/><circle cx="19.34" cy="20.88" r="0.96" fill="#2c5967"/><circle cx="22.69" cy="20.88" r="0.96" fill="#2c5967"/></svg>