<svg id="Layer_1" data-name="Layer 1" xmlns="http://www.w3.org/2000/svg" viewBox="0 0 41.33 42"><metadata><?xpacket begin="﻿" id="W5M0MpCehiHzreSzNTczkc9d"?>
<x:xmpmeta xmlns:x="adobe:ns:meta/" x:xmptk="Adobe XMP Core 6.0-c006 79.164648, 2021/01/12-15:52:29        ">
   <rdf:RDF xmlns:rdf="http://www.w3.org/1999/02/22-rdf-syntax-ns#">
      <rdf:Description rdf:about=""
            xmlns:dc="http://purl.org/dc/elements/1.1/"
            xmlns:xmp="http://ns.adobe.com/xap/1.0/"
            xmlns:xmpMM="http://ns.adobe.com/xap/1.0/mm/"
            xmlns:stEvt="http://ns.adobe.com/xap/1.0/sType/ResourceEvent#"
            xmlns:xmpRights="http://ns.adobe.com/xap/1.0/rights/"
            xmlns:lr="http://ns.adobe.com/lightroom/1.0/">
         <dc:subject>
            <rdf:Bag>
               <rdf:li>Exadata</rdf:li>
               <rdf:li>server</rdf:li>
               <rdf:li>autonomous</rdf:li>
               <rdf:li>X</rdf:li>
               <rdf:li>icon</rdf:li>
               <rdf:li>database</rdf:li>
               <rdf:li>service</rdf:li>
            </rdf:Bag>
         </dc:subject>
         <dc:rights>
            <rdf:Alt>
               <rdf:li xml:lang="x-default">Oracle All Rights</rdf:li>
            </rdf:Alt>
         </dc:rights>
         <xmp:MetadataDate>2023-08-02T14:36:31-06:00</xmp:MetadataDate>
         <xmpMM:InstanceID>xmp.iid:e9a3aa9d-e5dd-4176-94f7-129e6085447b</xmpMM:InstanceID>
         <xmpMM:DocumentID>xmp.did:9c523b58-371d-4043-b487-14c831a9ee98</xmpMM:DocumentID>
         <xmpMM:OriginalDocumentID>xmp.did:9c523b58-371d-4043-b487-14c831a9ee98</xmpMM:OriginalDocumentID>
         <xmpMM:History>
            <rdf:Seq>
               <rdf:li>
                  <rdf:Description>
                     <stEvt:action>saved</stEvt:action>
                     <stEvt:instanceID>xmp.iid:9c523b58-371d-4043-b487-14c831a9ee98</stEvt:instanceID>
                     <stEvt:when>2023-08-02T12:28:14-06:00</stEvt:when>
                     <stEvt:softwareAgent>Adobe Bridge 2021 (Macintosh)</stEvt:softwareAgent>
                     <stEvt:changed>/metadata</stEvt:changed>
                  </rdf:Description>
               </rdf:li>
               <rdf:li>
                  <rdf:Description>
                     <stEvt:action>saved</stEvt:action>
                     <stEvt:instanceID>xmp.iid:e9a3aa9d-e5dd-4176-94f7-129e6085447b</stEvt:instanceID>
                     <stEvt:when>2023-08-02T14:36:31-06:00</stEvt:when>
                     <stEvt:softwareAgent>Adobe Bridge 2021 (Macintosh)</stEvt:softwareAgent>
                     <stEvt:changed>/metadata</stEvt:changed>
                  </rdf:Description>
               </rdf:li>
            </rdf:Seq>
         </xmpMM:History>
         <xmpRights:Marked>True</xmpRights:Marked>
         <lr:hierarchicalSubject>
            <rdf:Bag>
               <rdf:li>Other Keywords|icon</rdf:li>
            </rdf:Bag>
         </lr:hierarchicalSubject>
      </rdf:Description>
   </rdf:RDF>
</x:xmpmeta>
                                                                                                    
                                                                                                    
                                                                                                    
                                                                                                    
                                                                                                    
                                                                                                    
                                                                                                    
                                                                                                    
                                                                                                    
                                                                                                    
                            
<?xpacket end="w"?></metadata>
<path d="M29.78,41.5c-1.46,0-8.62-.12-10.55-2.35H7.7V15.57H.54l.1-1.35A7.12,7.12,0,0,1,4.45,8.41a1.35,1.35,0,0,0,.7-.92A5.55,5.55,0,0,1,10.59,3l.52,0h.13a1.25,1.25,0,0,0,.92-.39A6.72,6.72,0,0,1,23.1,4.22a1.38,1.38,0,0,0,.94.72l1.18.29a7.47,7.47,0,0,1,7.11-1l.4.16.55.26.21.12a6,6,0,0,1,.75.49A7.59,7.59,0,0,1,37,9.13l2.94,2.93-1.78,1.79-1-1a7.49,7.49,0,0,1-2.77,4.37l-.22.17a.68.68,0,0,0,.32-.09l.17-.13.21,0c3.51.48,5.51,1.41,5.93,2.75a1.22,1.22,0,0,1,.08.46V37.89C40.83,41.33,31.62,41.5,29.78,41.5Z" fill="#fff"/><path d="M17.09,1a6.18,6.18,0,0,1,5.56,3.45,1.88,1.88,0,0,0,1.28,1h0l1.38.33a7,7,0,0,1,4.38-1.53,7.13,7.13,0,0,1,2.44.44l.05,0,.39.17c.15.07.3.13.44.21l.2.11a6.58,6.58,0,0,1,.7.47l0,0a7,7,0,0,1,2.55,3.71l1.32,1.32,1.35,1.35-1.07,1.08-.4-.39-1-1a7,7,0,0,1-2.71,5h0l-.32.23-.29.2-.09.05a6.78,6.78,0,0,1-1,.49c.48,0,1,.1,1.43.1a1.63,1.63,0,0,0,1-.21c2.68.37,5.11,1.1,5.52,2.41a.81.81,0,0,1,.06.31V37.89c0,2.46-6.63,3.11-10.55,3.11-3.48,0-9.09-.52-10.31-2.35H8.2V15.07H1.08l.06-.82a6.63,6.63,0,0,1,3.55-5.4,1.82,1.82,0,0,0,.95-1.27A5,5,0,0,1,8.56,3.94a5.1,5.1,0,0,1,2-.43l.47,0h.18A1.7,1.7,0,0,0,12.52,3a6.28,6.28,0,0,1,4.57-2m0-1a7.23,7.23,0,0,0-5.3,2.31.73.73,0,0,1-.55.23h-.08a5.44,5.44,0,0,0-.57,0A6.15,6.15,0,0,0,8.16,3a6.06,6.06,0,0,0-3.5,4.37A.84.84,0,0,1,4.22,8,7.65,7.65,0,0,0,.14,14.18L.08,15,0,16.07H7.2V39.65H19C21.23,41.82,27.74,42,29.78,42c10.43,0,11.55-2.87,11.55-4.11V20.4a1.75,1.75,0,0,0-.12-.65c-.49-1.45-2.34-2.42-5.65-3a7.91,7.91,0,0,0,1.8-3l0,0,.71.7.7-.7,1.08-1.08.71-.71-.71-.7L38.55,10,37.41,8.86a8,8,0,0,0-2.84-4h0l0,0a9.16,9.16,0,0,0-.8-.53l-.22-.12A4.59,4.59,0,0,0,33,4l-.08,0-.38-.16h0l-.05,0a8,8,0,0,0-7.36,1l-.93-.22h-.05A.89.89,0,0,1,23.55,4a7.18,7.18,0,0,0-6.46-4Z" fill="#fff"/><path d="M18,37.13H9.72v-27H19l.46-.46L20.5,8.61H8.2v30h10a2.42,2.42,0,0,1-.14-.81Z" fill="#2c5967"/><polygon points="10.86 12.79 20.37 12.79 20.37 12.22 19.44 11.29 19.42 11.27 10.86 11.27 10.86 12.79" fill="#2c5967"/><path d="M19.23,13.93H12v1.33H10.86v1.52H12v1.33h7.23V16.78h1.14V15.26H19.23Zm-1.52,2.66H13.52V15.45h4.19Z" fill="#2c5967"/><path d="M24,5.44h0a1.88,1.88,0,0,1-1.28-1A6.18,6.18,0,0,0,17.09,1a6.28,6.28,0,0,0-4.57,2,1.72,1.72,0,0,1-1.46.54A5.06,5.06,0,0,0,5.64,7.58a1.82,1.82,0,0,1-.95,1.27,6.63,6.63,0,0,0-3.55,5.4l-.06.82h6V13.55H2.78A5.12,5.12,0,0,1,5.39,10.2,3.34,3.34,0,0,0,7.13,7.88a3.56,3.56,0,0,1,2-2.55,3.5,3.5,0,0,1,1.75-.28,3.27,3.27,0,0,0,2.72-1,4.69,4.69,0,0,1,7.65,1.1,3.43,3.43,0,0,0,1.63,1.56A7.76,7.76,0,0,1,24,5.44Z" fill="#2c5967"/><polygon points="15.7 29.05 13.87 26 11.7 26 14.29 30.26 11.56 34.85 13.65 34.85 15.55 31.5 17.52 34.85 18.01 34.85 18.01 32.04 16.96 30.29 18.01 28.56 18.01 26.25 18.01 26.03 18.01 26 17.48 26 15.7 29.05" fill="#2c5967"/><rect x="10.86" y="19.25" width="1.52" height="1.52" fill="#2c5967"/><rect x="13.52" y="19.25" width="1.52" height="1.52" fill="#2c5967"/><rect x="16.18" y="19.25" width="1.52" height="1.52" fill="#2c5967"/><rect x="10.86" y="21.92" width="1.52" height="1.52" fill="#2c5967"/><rect x="13.52" y="21.92" width="1.52" height="1.52" fill="#2c5967"/><rect x="16.18" y="21.92" width="1.52" height="1.52" fill="#2c5967"/><path d="M32.45,19c3.75.26,6,1,6.34,1.53-.43.61-3.66,1.62-9,1.62s-8.58-1-9-1.62C21.12,20,23.3,19.25,27,19a8.28,8.28,0,0,1-2.31-1.28c-2.61.38-5,1.11-5.36,2.39a.81.81,0,0,0-.06.31V37.89c0,2.46,6.63,3.11,10.55,3.11s10.55-.65,10.55-3.11V20.4a.81.81,0,0,0-.06-.31c-.41-1.31-2.84-2-5.52-2.41A8.22,8.22,0,0,1,32.45,19ZM20.75,37.85V33.76c2.19,1,6.28,1.36,9,1.36s6.84-.32,9-1.36v4.09c-.35.6-3.6,1.63-9,1.63S21.1,38.45,20.75,37.85Zm0-15.6c2.19,1.05,6.28,1.38,9,1.38s6.84-.33,9-1.38v3.83c-.35.6-3.6,1.63-9,1.63s-8.68-1-9-1.63Zm0,5.61c2.19,1.05,6.28,1.37,9,1.37s6.84-.32,9-1.37V32c-.35.59-3.6,1.62-9,1.62s-8.68-1-9-1.62Z" fill="#2c5967"/><path d="M20.24,10.48l3.2,3.2,3.2-3.2L25.57,9.4l-1.34,1.34A5.52,5.52,0,0,1,34.58,8.67l1.11-1.12a7,7,0,0,0-13,3.23L21.32,9.4Z" fill="#2c5967"/><path d="M36,8.86l-3.2,3.2,1.08,1.08,1.34-1.34a5.51,5.51,0,0,1-10.35,2.08L23.74,15a7,7,0,0,0,13-3.23l1,1,.4.39,1.07-1.08-1.35-1.35Z" fill="#2c5967"/><path d="M29,7.23l-2.11,7.33h1.57L28.77,13h1.82L31,14.56h1.62L30.46,7.23Zm.09,4.54L29.69,9l.62,2.74Z" fill="#2c5967"/></svg>