<svg id="Layer_1" data-name="Layer 1" xmlns="http://www.w3.org/2000/svg" viewBox="0 0 42.72 42.83"><metadata><?xpacket begin="﻿" id="W5M0MpCehiHzreSzNTczkc9d"?>
<x:xmpmeta xmlns:x="adobe:ns:meta/" x:xmptk="Adobe XMP Core 6.0-c006 79.164648, 2021/01/12-15:52:29        ">
   <rdf:RDF xmlns:rdf="http://www.w3.org/1999/02/22-rdf-syntax-ns#">
      <rdf:Description rdf:about=""
            xmlns:dc="http://purl.org/dc/elements/1.1/"
            xmlns:xmp="http://ns.adobe.com/xap/1.0/"
            xmlns:xmpMM="http://ns.adobe.com/xap/1.0/mm/"
            xmlns:stEvt="http://ns.adobe.com/xap/1.0/sType/ResourceEvent#"
            xmlns:lr="http://ns.adobe.com/lightroom/1.0/">
         <dc:subject>
            <rdf:Bag>
               <rdf:li>java</rdf:li>
               <rdf:li>manage</rdf:li>
               <rdf:li>administration</rdf:li>
               <rdf:li>connectivity</rdf:li>
               <rdf:li>settings</rdf:li>
               <rdf:li>icon</rdf:li>
            </rdf:Bag>
         </dc:subject>
         <xmp:MetadataDate>2022-12-08T14:01:11-06:00</xmp:MetadataDate>
         <xmpMM:InstanceID>xmp.iid:faef5c7a-9b8d-43b4-9257-0fa7d3a10ded</xmpMM:InstanceID>
         <xmpMM:DocumentID>xmp.did:ddc757f7-b975-4d49-a060-626e20daa4e1</xmpMM:DocumentID>
         <xmpMM:OriginalDocumentID>xmp.did:ddc757f7-b975-4d49-a060-626e20daa4e1</xmpMM:OriginalDocumentID>
         <xmpMM:History>
            <rdf:Seq>
               <rdf:li>
                  <rdf:Description>
                     <stEvt:action>saved</stEvt:action>
                     <stEvt:instanceID>xmp.iid:ddc757f7-b975-4d49-a060-626e20daa4e1</stEvt:instanceID>
                     <stEvt:when>2022-12-08T13:46:59-06:00</stEvt:when>
                     <stEvt:softwareAgent>Adobe Bridge 2021 (Macintosh)</stEvt:softwareAgent>
                     <stEvt:changed>/metadata</stEvt:changed>
                  </rdf:Description>
               </rdf:li>
               <rdf:li>
                  <rdf:Description>
                     <stEvt:action>saved</stEvt:action>
                     <stEvt:instanceID>xmp.iid:faef5c7a-9b8d-43b4-9257-0fa7d3a10ded</stEvt:instanceID>
                     <stEvt:when>2022-12-08T14:01:11-06:00</stEvt:when>
                     <stEvt:softwareAgent>Adobe Bridge 2021 (Macintosh)</stEvt:softwareAgent>
                     <stEvt:changed>/metadata</stEvt:changed>
                  </rdf:Description>
               </rdf:li>
            </rdf:Seq>
         </xmpMM:History>
         <lr:hierarchicalSubject>
            <rdf:Bag>
               <rdf:li>Other Keywords|icon</rdf:li>
            </rdf:Bag>
         </lr:hierarchicalSubject>
      </rdf:Description>
   </rdf:RDF>
</x:xmpmeta>
                                                                                                    
                                                                                                    
                                                                                                    
                                                                                                    
                                                                                                    
                                                                                                    
                                                                                                    
                                                                                                    
                                                                                                    
                                                                                                    
                                                                                                    
                                                                                                    
                    
<?xpacket end="w"?></metadata>
<path d="M18.23,39l1.56-1.56.49.49V36.44h-12a1.86,1.86,0,0,1-1.86-1.86v-12H5l.39.39L3.81,24.49l-3.1-3.1,3.1-3.1,1.56,1.56-.47.47H6.37V8.26A1.86,1.86,0,0,1,8.23,6.4H20.28V5l-.38.38L18.34,3.81l3.1-3.1,3.1,3.1L23,5.37l-.49-.49V6.4H34.55a1.86,1.86,0,0,1,1.86,1.86V20.32h1.41l-.47-.47,1.56-1.56,3.1,3.1-3.1,3.1-1.56-1.57.39-.39H36.41v12a1.86,1.86,0,0,1-1.86,1.86H22.49v1.39l.38-.37L24.43,39l-3.1,3.1Z" fill="#fff"/><path d="M21.44,1.41l2.4,2.4L23,4.66l-1-1V6.9H34.55a1.36,1.36,0,0,1,1.36,1.36V20.82H39l-1-1,.86-.86,2.39,2.4-2.39,2.39-.86-.85L39,22h-3V34.58A1.37,1.37,0,0,1,34.55,36H22V39l.88-.88.85.86-2.39,2.39L18.93,39l.86-.86,1,1V36H8.23a1.37,1.37,0,0,1-1.36-1.37V22H3.77l.89.9-.85.85-2.4-2.39L3.81,19l.85.86-1,1H6.87V8.26A1.36,1.36,0,0,1,8.23,6.9H20.78V3.78l-.88.88-.85-.85,2.39-2.4m0-1.41-.7.71L18.34,3.1l-.71.71.71.71.86.85.53.53H8.23A2.36,2.36,0,0,0,5.87,8.26V19.64l-.5-.5-.85-.85-.71-.71-.71.71L.71,20.68,0,21.39l.71.7,2.39,2.4.71.7.71-.7.85-.86.5-.5V34.58A2.37,2.37,0,0,0,8.23,37H19.6l-.52.51-.85.85-.71.71.71.71,2.39,2.39.71.71.71-.71,2.39-2.39.71-.71-.71-.71-.86-.85L23.06,37H34.55a2.37,2.37,0,0,0,2.36-2.37V23.2l.44.43.85.86.71.7.71-.7L42,22.09l.71-.7L42,20.68l-2.39-2.39-.71-.71-.71.71-.85.85-.44.44V8.26A2.36,2.36,0,0,0,34.55,5.9H23.16l.53-.53.85-.85.71-.71-.71-.71L22.15.71,21.44,0Z" fill="#fff"/><polygon points="20.78 3.78 20.78 8.11 22 8.11 22 3.68 22.98 4.66 23.84 3.81 21.44 1.41 19.05 3.81 19.9 4.66 20.78 3.78" fill="#2c5967"/><polygon points="22 39.04 22 34.73 20.78 34.73 20.78 39.16 19.79 38.16 18.93 39.02 21.33 41.41 23.72 39.02 22.87 38.16 22 39.04" fill="#2c5967"/><polygon points="8.04 22.03 8.04 20.82 3.69 20.82 4.66 19.85 3.81 18.99 1.41 21.39 3.81 23.78 4.66 22.93 3.77 22.03 8.04 22.03" fill="#2c5967"/><polygon points="38.91 18.99 38.05 19.85 39.02 20.82 34.7 20.82 34.7 22.03 38.95 22.03 38.05 22.93 38.91 23.78 41.3 21.39 38.91 18.99" fill="#2c5967"/><path d="M26.3,14.29s-7.46,1.86-3.9,6a1.6,1.6,0,0,1-.27,2.3s2.66-1.38,1.44-3.11S21.55,17.05,26.3,14.29Z" fill="#2c5967"/><path d="M21.42,21.79c-.8-1.82-3.53-3.41,0-6.2,4.41-3.48,2.15-5.75,2.15-5.75.91,3.6-3.22,4.68-4.71,6.92C17.84,18.29,19.36,19.93,21.42,21.79Z" fill="#2c5967"/><path d="M18.53,26.69c-3.35.93,2,2.87,6.3,1a7.4,7.4,0,0,1-1.2-.59,12.62,12.62,0,0,1-4.51.2C17.7,27.17,18.53,26.69,18.53,26.69Z" fill="#2c5967"/><path d="M24.32,24.86a17.47,17.47,0,0,1-5.82.28C17.08,25,18,24.3,18,24.3c-3.69,1.23,2,2.62,7.21,1.11A2.69,2.69,0,0,1,24.32,24.86Z" fill="#2c5967"/><path d="M14.45,30.1c8.69,1.41,15.85-.63,13.59-1.65,0,0,.62.51-.68.9-2.46.75-10.24,1-12.4,0-.78-.34.68-.81,1.14-.9a2.78,2.78,0,0,1,.75-.09C16,27.78,11.26,29.59,14.45,30.1Z" fill="#2c5967"/><path d="M18.93,21.83a7.56,7.56,0,0,0-3.43.81c-2.23,1.08,5.53,1.58,9.55.52a6.37,6.37,0,0,1,1-.53s-1.65.29-3.28.43a29.92,29.92,0,0,1-5.24.05C15,22.77,18.93,21.83,18.93,21.83Z" fill="#2c5967"/><path d="M26,25.8a.43.43,0,0,1-.08.11c5.46-1.44,3.45-5.06.84-4.14a.73.73,0,0,0-.35.27,3.32,3.32,0,0,1,.47-.13C28.23,21.64,30.12,23.68,26,25.8Z" fill="#2c5967"/><path d="M29.42,29.56s-.27.7-3.24,1.26a32.07,32.07,0,0,1-9.93.15s.5.42,3.08.59C23.25,31.81,29.28,31.42,29.42,29.56Z" fill="#2c5967"/><path d="M8.08,8.26a.15.15,0,0,1,.15-.15H18.82V6.9H8.23A1.36,1.36,0,0,0,6.87,8.26v10H8.08Z" fill="#2c5967"/><path d="M34.7,34.58a.16.16,0,0,1-.15.16H24V36H34.55a1.37,1.37,0,0,0,1.36-1.37v-10H34.7Z" fill="#2c5967"/><path d="M8.08,34.58v-10H6.87v10A1.37,1.37,0,0,0,8.23,36H18.82V34.74H8.23A.16.16,0,0,1,8.08,34.58Z" fill="#2c5967"/><path d="M34.7,8.26v10h1.21v-10A1.36,1.36,0,0,0,34.55,6.9H24V8.11H34.55A.15.15,0,0,1,34.7,8.26Z" fill="#2c5967"/></svg>