<svg id="Layer_1" data-name="Layer 1" xmlns="http://www.w3.org/2000/svg" viewBox="0 0 48.07 42"><defs><style>.cls-1{fill:#fff;}.cls-2{fill:#2c5967;}</style></defs><title>Flex Virtual Machine (VM)</title><metadata><?xpacket begin="﻿" id="W5M0MpCehiHzreSzNTczkc9d"?>
<x:xmpmeta xmlns:x="adobe:ns:meta/" x:xmptk="Adobe XMP Core 6.0-c006 79.164648, 2021/01/12-15:52:29        ">
   <rdf:RDF xmlns:rdf="http://www.w3.org/1999/02/22-rdf-syntax-ns#">
      <rdf:Description rdf:about=""
            xmlns:xmp="http://ns.adobe.com/xap/1.0/"
            xmlns:xmpMM="http://ns.adobe.com/xap/1.0/mm/"
            xmlns:stEvt="http://ns.adobe.com/xap/1.0/sType/ResourceEvent#"
            xmlns:xmpRights="http://ns.adobe.com/xap/1.0/rights/"
            xmlns:dc="http://purl.org/dc/elements/1.1/"
            xmlns:lr="http://ns.adobe.com/lightroom/1.0/">
         <xmp:MetadataDate>2021-07-21T19:36:39-05:00</xmp:MetadataDate>
         <xmpMM:InstanceID>xmp.iid:52c3ec0a-df79-4c1e-9b63-9badbca308a8</xmpMM:InstanceID>
         <xmpMM:DocumentID>xmp.did:1dfafb7f-927e-4781-87ce-92c1bae7b2d7</xmpMM:DocumentID>
         <xmpMM:OriginalDocumentID>xmp.did:1dfafb7f-927e-4781-87ce-92c1bae7b2d7</xmpMM:OriginalDocumentID>
         <xmpMM:History>
            <rdf:Seq>
               <rdf:li>
                  <rdf:Description>
                     <stEvt:action>saved</stEvt:action>
                     <stEvt:instanceID>xmp.iid:1dfafb7f-927e-4781-87ce-92c1bae7b2d7</stEvt:instanceID>
                     <stEvt:when>2021-06-18T11:41:54-05:00</stEvt:when>
                     <stEvt:softwareAgent>Adobe Bridge 2021 (Macintosh)</stEvt:softwareAgent>
                     <stEvt:changed>/metadata</stEvt:changed>
                  </rdf:Description>
               </rdf:li>
               <rdf:li>
                  <rdf:Description>
                     <stEvt:action>saved</stEvt:action>
                     <stEvt:instanceID>xmp.iid:52c3ec0a-df79-4c1e-9b63-9badbca308a8</stEvt:instanceID>
                     <stEvt:when>2021-07-21T19:36:39-05:00</stEvt:when>
                     <stEvt:softwareAgent>Adobe Bridge 2021 (Macintosh)</stEvt:softwareAgent>
                     <stEvt:changed>/metadata</stEvt:changed>
                  </rdf:Description>
               </rdf:li>
            </rdf:Seq>
         </xmpMM:History>
         <xmpRights:Marked>True</xmpRights:Marked>
         <dc:title>
            <rdf:Alt>
               <rdf:li xml:lang="x-default">Flex Virtual Machine (VM)</rdf:li>
            </rdf:Alt>
         </dc:title>
         <dc:subject>
            <rdf:Bag>
               <rdf:li>icon</rdf:li>
               <rdf:li>technology</rdf:li>
               <rdf:li>VM</rdf:li>
               <rdf:li>Flex</rdf:li>
            </rdf:Bag>
         </dc:subject>
         <dc:rights>
            <rdf:Alt>
               <rdf:li xml:lang="x-default">Oracle All Rights Reserved</rdf:li>
            </rdf:Alt>
         </dc:rights>
         <lr:hierarchicalSubject>
            <rdf:Bag>
               <rdf:li>icon</rdf:li>
               <rdf:li>technology</rdf:li>
               <rdf:li>Flex</rdf:li>
            </rdf:Bag>
         </lr:hierarchicalSubject>
      </rdf:Description>
   </rdf:RDF>
</x:xmpmeta>
                                                                                                    
                                                                                                    
                                                                                                    
                                                                                                    
                                                                                                    
                                                                                                    
                                                                                                    
                                                                                                    
                                                                                                    
                                                                                                    
                                                
<?xpacket end="w"?></metadata>
<polygon class="cls-1" points="12.51 41.5 12.51 39.73 14.81 38.58 16.79 38.58 17.19 35.71 0.5 35.71 0.5 0.5 47.57 0.5 47.57 35.71 31.16 35.71 31.55 38.58 33.53 38.58 35.84 39.73 35.84 41.5 12.51 41.5"/><path class="cls-1" d="M47.07,1V35.21H30.59l.53,3.87h2.3l1.92,1v1H13V40l1.92-1h2.3l.53-3.87H1V1H47.07m1-1H0V36.21H16.61l-.25,1.87H14.69l-.21.11-1.92,1-.55.27V42H36.34V39.42l-.55-.27-1.93-1-.21-.11H32l-.26-1.87H48.07V0Z"/><path class="cls-2" d="M47.07,1H1V35.21H17.76l-.53,3.87h-2.3L13,40v1H35.34V40l-1.92-1h-2.3l-.53-3.87H47.07ZM19.17,39.08l.53-3.87h9l.53,3.87Zm26-5.79H2.92V31.37H45.15Zm0-3.84H2.92V2.92H45.15Z"/><path class="cls-2" d="M17.13,19.75l-2.06,4.76,9,3.36,8.68-3.36-2-5a8.16,8.16,0,0,1-.15-5.68L32.68,7.8,24,4.46,15.12,7.8l2.18,5.86A8.17,8.17,0,0,1,17.13,19.75Zm1.76.76a10,10,0,0,0,.2-7.52L18,10l5.09,1.91V25.46l-5.44-2Zm11.33,2.91-5.23,2V11.9L29.89,10l-1.11,3.24a10.07,10.07,0,0,0,.18,7ZM28.81,8.37,24,10.22,19.09,8.37,24,6.51Z"/><polygon class="cls-2" points="10.87 19.21 12.23 20.56 16.03 16.77 12.23 12.97 10.87 14.32 12.36 15.8 4.36 15.8 4.36 17.73 12.36 17.73 10.87 19.21"/><polygon class="cls-2" points="35.84 20.56 37.2 19.21 35.72 17.73 43.71 17.73 43.71 15.8 35.72 15.8 37.2 14.32 35.84 12.97 32.04 16.77 35.84 20.56"/></svg>