<svg width="36" height="36" viewBox="0 0 36 36" fill="none" xmlns="http://www.w3.org/2000/svg">
<g id="Srv-Oracle Exadata Database Service on Exascale Infrastructure" clip-path="url(#clip0_9953_23452)">
<g id="Group">
<g id="Group_2">
<path id="Vector" d="M18.0633 35.5727C15.6771 35.5727 7.89202 35.333 7.89202 32.2513V20.4902H0.461182L0.553586 19.2403C0.771763 16.293 2.46755 13.7103 5.08824 12.3321C5.65207 12.0351 6.04479 11.5146 6.16458 10.9034C6.57441 8.81635 7.98015 7.05976 9.92491 6.20544C10.7429 5.84504 11.6464 5.655 12.5379 5.655C12.7407 5.655 12.9443 5.66442 13.1462 5.68411C13.2147 5.6901 13.2831 5.69352 13.3507 5.69352C13.9094 5.69352 14.4202 5.47438 14.789 5.07718C16.2905 3.45755 18.4184 2.52875 20.6267 2.52875C23.6641 2.52875 26.3951 4.21857 27.7538 6.93906C28.0379 7.50918 28.5615 7.91495 29.1912 8.05448C30.1058 8.2565 30.9734 8.61433 31.7717 9.11682C35.3848 11.393 36.6289 16.1209 34.6028 19.8789L34.2743 20.4902H28.2355V32.2513C28.2355 35.333 20.4496 35.5727 18.0633 35.5727Z" fill="white"/>
<path id="Vector_2" d="M20.6267 2.95699C23.5006 2.95699 26.0854 4.55607 27.3705 7.13104C27.7127 7.81672 28.3424 8.30552 29.0979 8.47245C29.9638 8.6642 30.7869 9.00319 31.5424 9.47915C34.9664 11.6364 36.1446 16.1152 34.2255 19.6763L34.0176 20.0632H27.8068V21.4825V21.7522V26.8593V26.9963V32.2524C27.8068 35.0644 19.0609 35.1458 18.0633 35.1458C17.0657 35.1458 8.3198 35.0644 8.3198 32.2524V26.9963V26.8593V21.7522V21.4825V20.0632H0.921475L0.980511 19.2731C1.18842 16.4738 2.79865 14.0213 5.28757 12.7124C5.96692 12.3554 6.43921 11.7263 6.58466 10.9875C6.96796 9.03744 8.2813 7.39641 10.0969 6.59772C10.8678 6.25873 11.702 6.0841 12.5379 6.0841C12.727 6.0841 12.9161 6.09266 13.1051 6.11064C13.1873 6.11834 13.2686 6.12262 13.3498 6.12262C14.0223 6.12262 14.6512 5.85468 15.1012 5.36931C16.5241 3.83614 18.5373 2.95699 20.6267 2.95699ZM20.6267 2.10095C18.3003 2.10095 16.0578 3.0794 14.4749 4.78635C14.1883 5.09538 13.7888 5.26573 13.3507 5.26573C13.2968 5.26573 13.242 5.26316 13.1873 5.25802C12.9725 5.23748 12.7543 5.22721 12.5387 5.22721C11.5882 5.22721 10.6248 5.43009 9.75292 5.81359C7.68067 6.72527 6.18253 8.59743 5.74532 10.8214C5.65035 11.3051 5.33806 11.7177 4.88972 11.954C2.13728 13.4015 0.357639 16.1135 0.127484 19.2097L0.0684476 19.999L0 20.9184H0.921475H7.46506V21.4817V21.7513V26.8585V26.9954V32.2515C7.46506 35.6354 14.8771 36.001 18.0642 36.001C21.2513 36.001 28.6633 35.6354 28.6633 32.2515V26.9954V26.8585V21.7513V21.4817V20.9184H34.0184H34.5292L34.7714 20.469L34.9793 20.0821C37.1114 16.1263 35.8024 11.151 31.9992 8.75494C31.1599 8.22591 30.2461 7.85011 29.2836 7.63696C28.7813 7.52567 28.363 7.20209 28.1362 6.74839C26.7048 3.88151 23.8275 2.10095 20.6267 2.10095Z" fill="white"/>
</g>
<g id="Group_3">
<path id="Vector_3" d="M18.0643 13.3543C14.4451 13.3543 8.3208 13.9792 8.3208 16.3231C8.3208 16.3539 8.32593 16.383 8.3285 16.4129C8.32593 16.4378 8.3208 16.4617 8.3208 16.4866V21.4824V21.7521V26.8592V26.9961V32.2522C8.3208 35.0643 17.0667 35.1456 18.0643 35.1456C19.0619 35.1456 27.8078 35.0643 27.8078 32.2522V26.9961V26.8592V21.7521V21.4824V16.4866C27.8078 16.4617 27.8027 16.4378 27.8001 16.4129C27.8018 16.383 27.8078 16.3539 27.8078 16.3231C27.807 13.9792 21.6826 13.3543 18.0643 13.3543ZM18.0643 33.6733C13.1481 33.6733 10.1492 32.7436 9.79157 32.2043V28.6748C10.8833 29.1782 12.4311 29.4735 13.8993 29.6456L14.5872 28.2468C11.75 27.9532 10.0542 27.3446 9.79157 26.9482V23.4316C11.0861 24.0283 13.0223 24.3322 14.7061 24.4862L13.9335 22.9274C11.4899 22.6141 10.0328 22.0696 9.79071 21.7041V18.0197C11.8304 18.9888 15.5497 19.2909 18.0635 19.2909C20.5772 19.2909 24.2965 18.9888 26.3362 18.0197V21.7041C26.0932 22.0714 24.6224 22.6201 22.1558 22.9325L21.3909 24.4888C23.0815 24.3356 25.0331 24.0317 26.3362 23.4307V26.9474C26.071 27.348 24.3487 27.9635 21.4679 28.2537L22.1618 29.6533C23.6496 29.4821 25.2274 29.1859 26.3362 28.6748V32.2043C25.9794 32.7427 22.9806 33.6733 18.0643 33.6733ZM26.314 16.3222C25.8981 16.8855 22.9369 17.8194 18.0643 17.8194C13.1917 17.8194 10.2305 16.8863 9.81467 16.3222C10.2305 15.7589 13.1926 14.825 18.0643 14.825C22.9361 14.825 25.8981 15.7589 26.314 16.3222Z" fill="#2D5967"/>
<path id="Vector_4" d="M31.5432 9.47901C30.7869 9.00305 29.9647 8.66406 29.0988 8.47231C28.3433 8.30538 27.7136 7.81658 27.3714 7.13089C26.0854 4.55593 23.5007 2.95685 20.6267 2.95685C18.5373 2.95685 16.5233 3.836 15.1013 5.36831C14.5965 5.91189 13.8684 6.18326 13.1052 6.10964C12.0819 6.01205 11.0423 6.18069 10.0961 6.59673C8.27962 7.39541 6.96714 9.03644 6.58384 10.9865C6.43838 11.7253 5.9661 12.3544 5.28675 12.7114C2.79783 14.0203 1.1876 16.4728 0.97969 19.2721L0.920654 20.0622H7.21697V18.5907H2.55313C2.93472 16.6346 4.17277 14.9594 5.97208 14.0134C7.04671 13.4485 7.79621 12.4486 8.02808 11.2707C8.31898 9.79318 9.31318 8.54935 10.689 7.94413C11.4051 7.62911 12.1931 7.50156 12.9666 7.57518C14.1909 7.69246 15.3614 7.25245 16.1802 6.36988C17.325 5.13632 18.9455 4.42838 20.6276 4.42838C22.9411 4.42838 25.021 5.71586 26.0563 7.78833C26.5979 8.87293 27.5912 9.64594 28.7822 9.90874C29.483 10.0637 30.1478 10.3376 30.7604 10.7237C33.4093 12.393 34.3984 15.7786 33.1244 18.5907H28.9003V20.0622H34.0193L34.2272 19.6753C36.1455 16.115 34.9673 11.6362 31.5432 9.47901Z" fill="#2D5967"/>
<path id="Vector_5" d="M16.8047 26.2369L14.3389 31.2516H16.483L17.0793 29.8717L17.7091 28.4147L17.9837 27.7787L19.5648 31.2516H21.7226L20.9868 29.7664L20.2844 28.3497L19.2705 26.3037L20.1167 24.5822L20.8619 23.0653L21.6294 21.5031H19.4844L18.0778 24.7346L16.6165 21.5031H14.4586L15.2313 23.0619L15.9833 24.5805L16.8047 26.2369Z" fill="#2D5967"/>
</g>
</g>
</g>
<defs>
<clipPath id="clip0_9953_23452">
<rect width="36" height="36" fill="white"/>
</clipPath>
</defs>
</svg>
