<svg id="Layer_1" data-name="Layer 1" xmlns="http://www.w3.org/2000/svg" viewBox="0 0 44 44"><title>Other - Oracle-TEQ</title><metadata><?xpacket begin="﻿" id="W5M0MpCehiHzreSzNTczkc9d"?>
<x:xmpmeta xmlns:x="adobe:ns:meta/" x:xmptk="Adobe XMP Core 6.0-c006 79.164648, 2021/01/12-15:52:29        ">
   <rdf:RDF xmlns:rdf="http://www.w3.org/1999/02/22-rdf-syntax-ns#">
      <rdf:Description rdf:about=""
            xmlns:dc="http://purl.org/dc/elements/1.1/"
            xmlns:lr="http://ns.adobe.com/lightroom/1.0/"
            xmlns:xmp="http://ns.adobe.com/xap/1.0/"
            xmlns:xmpMM="http://ns.adobe.com/xap/1.0/mm/"
            xmlns:stEvt="http://ns.adobe.com/xap/1.0/sType/ResourceEvent#"
            xmlns:xmpRights="http://ns.adobe.com/xap/1.0/rights/">
         <dc:title>
            <rdf:Alt>
               <rdf:li xml:lang="x-default">Other - Oracle-TEQ</rdf:li>
            </rdf:Alt>
         </dc:title>
         <dc:subject>
            <rdf:Bag>
               <rdf:li>icon</rdf:li>
            </rdf:Bag>
         </dc:subject>
         <dc:rights>
            <rdf:Alt>
               <rdf:li xml:lang="x-default">Oracle All Rights Reserved</rdf:li>
            </rdf:Alt>
         </dc:rights>
         <lr:hierarchicalSubject>
            <rdf:Bag>
               <rdf:li>icon</rdf:li>
            </rdf:Bag>
         </lr:hierarchicalSubject>
         <xmp:MetadataDate>2021-11-23T13:28:05-06:00</xmp:MetadataDate>
         <xmpMM:InstanceID>xmp.iid:33639287-65ed-467d-9c77-b7d1bffdf68a</xmpMM:InstanceID>
         <xmpMM:DocumentID>xmp.did:d69f05a3-eb89-c44d-89d2-05350bbbc714</xmpMM:DocumentID>
         <xmpMM:OriginalDocumentID>xmp.did:d69f05a3-eb89-c44d-89d2-05350bbbc714</xmpMM:OriginalDocumentID>
         <xmpMM:History>
            <rdf:Seq>
               <rdf:li>
                  <rdf:Description>
                     <stEvt:action>saved</stEvt:action>
                     <stEvt:instanceID>xmp.iid:d69f05a3-eb89-c44d-89d2-05350bbbc714</stEvt:instanceID>
                     <stEvt:when>2021-11-22T15:44:58-06:00</stEvt:when>
                     <stEvt:softwareAgent>Adobe Bridge 2020 (Windows)</stEvt:softwareAgent>
                     <stEvt:changed>/metadata</stEvt:changed>
                  </rdf:Description>
               </rdf:li>
               <rdf:li>
                  <rdf:Description>
                     <stEvt:action>saved</stEvt:action>
                     <stEvt:instanceID>xmp.iid:33639287-65ed-467d-9c77-b7d1bffdf68a</stEvt:instanceID>
                     <stEvt:when>2021-11-23T13:28:05-06:00</stEvt:when>
                     <stEvt:softwareAgent>Adobe Bridge 2021 (Macintosh)</stEvt:softwareAgent>
                     <stEvt:changed>/metadata</stEvt:changed>
                  </rdf:Description>
               </rdf:li>
            </rdf:Seq>
         </xmpMM:History>
         <xmpRights:Marked>True</xmpRights:Marked>
      </rdf:Description>
   </rdf:RDF>
</x:xmpmeta>
                                                                                                    
                                                                                                    
                                                                                                    
                                                                                                    
                                                                                                    
                                                                                                    
                                                                                                    
                                                                                                    
                                                                                                    
                                                                                                    
                                                                                                    
                                                                                                    
                                         
<?xpacket end="w"?></metadata>
<circle cx="22" cy="22" r="21.5" fill="#fff"/><path d="M22,1A21,21,0,1,1,1,22,21,21,0,0,1,22,1m0-1A22,22,0,1,0,44,22,22,22,0,0,0,22,0Z" fill="#fff"/><path d="M22,1A21,21,0,1,0,43,22,21,21,0,0,0,22,1Zm0,40.25A19.25,19.25,0,1,1,41.25,22,19.28,19.28,0,0,1,22,41.25Z" fill="#2c5967"/><polygon points="32.24 17.23 31.01 18.46 33.67 21.13 22.44 21.13 22.44 22.88 33.67 22.88 31.01 25.54 32.24 26.77 37.02 22 32.24 17.23" fill="#2c5967"/><polygon points="20.07 15.04 21.31 16.27 26.08 11.5 21.31 6.72 20.07 7.96 22.73 10.63 11.5 10.63 11.5 12.38 22.73 12.38 20.07 15.04" fill="#2c5967"/><polygon points="20.07 28.96 22.73 31.63 11.5 31.63 11.5 33.38 22.73 33.38 20.07 36.04 21.31 37.27 26.08 32.5 21.31 27.73 20.07 28.96" fill="#2c5967"/></svg>