<svg id="Layer_1" data-name="Layer 1" xmlns="http://www.w3.org/2000/svg" viewBox="0 0 37.82 42"><defs><style>.cls-1{fill:#fff;}.cls-2{fill:#2c5967;}</style></defs><title>Audit-Vault</title><metadata><?xpacket begin="﻿" id="W5M0MpCehiHzreSzNTczkc9d"?>
<x:xmpmeta xmlns:x="adobe:ns:meta/" x:xmptk="Adobe XMP Core 6.0-c006 79.164648, 2021/01/12-15:52:29        ">
   <rdf:RDF xmlns:rdf="http://www.w3.org/1999/02/22-rdf-syntax-ns#">
      <rdf:Description rdf:about=""
            xmlns:xmpRights="http://ns.adobe.com/xap/1.0/rights/"
            xmlns:xmp="http://ns.adobe.com/xap/1.0/"
            xmlns:xmpMM="http://ns.adobe.com/xap/1.0/mm/"
            xmlns:stEvt="http://ns.adobe.com/xap/1.0/sType/ResourceEvent#"
            xmlns:dc="http://purl.org/dc/elements/1.1/"
            xmlns:lr="http://ns.adobe.com/lightroom/1.0/">
         <xmpRights:Marked>True</xmpRights:Marked>
         <xmp:MetadataDate>2021-06-24T19:25:54-05:00</xmp:MetadataDate>
         <xmpMM:InstanceID>xmp.iid:1ca005ba-ee4e-4498-aa18-c4a319b17e0c</xmpMM:InstanceID>
         <xmpMM:DocumentID>xmp.did:26151f83-0dc6-4400-ac75-2b5692fdc33c</xmpMM:DocumentID>
         <xmpMM:OriginalDocumentID>xmp.did:26151f83-0dc6-4400-ac75-2b5692fdc33c</xmpMM:OriginalDocumentID>
         <xmpMM:History>
            <rdf:Seq>
               <rdf:li>
                  <rdf:Description>
                     <stEvt:action>saved</stEvt:action>
                     <stEvt:instanceID>xmp.iid:26151f83-0dc6-4400-ac75-2b5692fdc33c</stEvt:instanceID>
                     <stEvt:when>2021-06-23T15:53:56-05:00</stEvt:when>
                     <stEvt:softwareAgent>Adobe Bridge 2021 (Macintosh)</stEvt:softwareAgent>
                     <stEvt:changed>/metadata</stEvt:changed>
                  </rdf:Description>
               </rdf:li>
               <rdf:li>
                  <rdf:Description>
                     <stEvt:action>saved</stEvt:action>
                     <stEvt:instanceID>xmp.iid:1ca005ba-ee4e-4498-aa18-c4a319b17e0c</stEvt:instanceID>
                     <stEvt:when>2021-06-24T19:25:54-05:00</stEvt:when>
                     <stEvt:softwareAgent>Adobe Bridge 2021 (Macintosh)</stEvt:softwareAgent>
                     <stEvt:changed>/metadata</stEvt:changed>
                  </rdf:Description>
               </rdf:li>
            </rdf:Seq>
         </xmpMM:History>
         <dc:title>
            <rdf:Alt>
               <rdf:li xml:lang="x-default">Audit-Vault</rdf:li>
            </rdf:Alt>
         </dc:title>
         <dc:rights>
            <rdf:Alt>
               <rdf:li xml:lang="x-default">Oracle All Rights Reserved</rdf:li>
            </rdf:Alt>
         </dc:rights>
         <dc:subject>
            <rdf:Bag>
               <rdf:li>icon</rdf:li>
               <rdf:li>Auditing</rdf:li>
               <rdf:li>audit</rdf:li>
               <rdf:li>Vault</rdf:li>
               <rdf:li>technology</rdf:li>
            </rdf:Bag>
         </dc:subject>
         <lr:hierarchicalSubject>
            <rdf:Bag>
               <rdf:li>icon</rdf:li>
               <rdf:li>Auditing</rdf:li>
               <rdf:li>audit</rdf:li>
               <rdf:li>Vault</rdf:li>
               <rdf:li>technology</rdf:li>
            </rdf:Bag>
         </lr:hierarchicalSubject>
      </rdf:Description>
   </rdf:RDF>
</x:xmpmeta>
                                                                                                    
                                                                                                    
                                                                                                    
                                                                                                    
                                                                                                    
                                                                                                    
                                                                                                    
       
<?xpacket end="w"?></metadata>
<path class="cls-1" d="M18.91,41.5C17,41.5.5,41.35.5,36.07V6.48a1.21,1.21,0,0,1,0-.19,1.77,1.77,0,0,1,0-.23C.5,2,10.42.5,18.91.5S37.32,2,37.32,6.06a1.79,1.79,0,0,1,0,.23,1.23,1.23,0,0,1,0,.19V36.07C37.32,41.35,20.79,41.5,18.91,41.5Z"/><path class="cls-1" d="M18.91,1c8.62,0,17.91,1.58,17.91,5.06a2.29,2.29,0,0,1,0,.25.88.88,0,0,1,0,.17V36.07C36.82,40,25.1,41,18.91,41S1,40,1,36.07V6.48a.88.88,0,0,1,0-.17,2.29,2.29,0,0,1,0-.25C1,2.58,10.28,1,18.91,1m0-1C15.75,0,0,.29,0,6.06a1.85,1.85,0,0,0,0,.23,1.15,1.15,0,0,0,0,.19V36.07C0,41.71,15.75,42,18.91,42s18.91-.29,18.91-5.93V6.48c0-.07,0-.13,0-.19s0-.16,0-.23C37.82.29,22.07,0,18.91,0Z"/><path class="cls-2" d="M36.82,6.06C36.82,2.58,27.53,1,18.91,1S1,2.58,1,6.06a2.29,2.29,0,0,0,0,.25.88.88,0,0,0,0,.17V36.07C1,40,12.71,41,18.91,41s17.91-1,17.91-4.93V6.48a.88.88,0,0,0,0-.17A2.29,2.29,0,0,0,36.82,6.06Zm-6,32.08a53.31,53.31,0,0,1-11.87,1.17A53.25,53.25,0,0,1,7,38.14c-3.56-.85-4.35-1.8-4.35-2.07V28.46a17,17,0,0,0,5.24,1.71,12.2,12.2,0,0,1-.73-1.88l-.16,0c-3.56-.85-4.35-1.81-4.35-2.07V18.72a16.18,16.18,0,0,0,4.84,1.63,14,14,0,0,1,.75-1.56L7,18.52c-3.56-.85-4.35-1.81-4.35-2.07V8.37c3.06,1.87,9.82,2.74,16.22,2.74s13.16-.87,16.22-2.74v8.08c0,.26-.8,1.22-4.35,2.07l-1.25.27a11.18,11.18,0,0,1,.75,1.56,16.35,16.35,0,0,0,4.85-1.63v7.47c0,.26-.8,1.22-4.35,2.07l-.16,0a12.24,12.24,0,0,1-.74,1.88,17.1,17.1,0,0,0,5.25-1.71v7.61C35.13,36.34,34.33,37.29,30.78,38.14ZM18.91,2.69A51.86,51.86,0,0,1,30.77,3.9c3.58.88,4.36,1.85,4.36,2.16s-.78,1.28-4.36,2.16A51.86,51.86,0,0,1,18.91,9.43,52,52,0,0,1,7,8.22C3.47,7.34,2.69,6.36,2.69,6.06S3.47,4.78,7,3.9A52,52,0,0,1,18.91,2.69Z"/><path class="cls-2" d="M18.91,35.76A11,11,0,1,0,8,24.81,11,11,0,0,0,18.91,35.76ZM9.64,24.81a9.27,9.27,0,1,1,9.27,9.27A9.28,9.28,0,0,1,9.64,24.81Z"/><path class="cls-2" d="M13.91,30.3h10V21.7H22.52v-.86A3.63,3.63,0,0,0,21.07,18a3.54,3.54,0,0,0-3.16-.58,3.66,3.66,0,0,0-2.6,3.52v.8H13.93ZM17,20.9A2,2,0,0,1,18.37,19a1.87,1.87,0,0,1,1.68.31,1.92,1.92,0,0,1,.78,1.53v.86H17Zm-1.38,2.49h6.61v5.22H15.6Z"/><path class="cls-2" d="M18.34,26.23l-.2,1.32h1.38l-.19-1.33a1,1,0,0,0-.5-1.95H18.7a1,1,0,0,0-.36,1.95Z"/></svg>