<svg id="Layer_1" data-name="Layer 1" xmlns="http://www.w3.org/2000/svg" viewBox="0 0 42.25 44.06"><defs><style>.cls-1{fill:#fff;}.cls-2{fill:none;}.cls-3{fill:#2c5967;}</style></defs><title>Burstable Virtual Machine (VM)</title><metadata><?xpacket begin="﻿" id="W5M0MpCehiHzreSzNTczkc9d"?>
<x:xmpmeta xmlns:x="adobe:ns:meta/" x:xmptk="Adobe XMP Core 6.0-c006 79.164648, 2021/01/12-15:52:29        ">
   <rdf:RDF xmlns:rdf="http://www.w3.org/1999/02/22-rdf-syntax-ns#">
      <rdf:Description rdf:about=""
            xmlns:xmpRights="http://ns.adobe.com/xap/1.0/rights/"
            xmlns:xmp="http://ns.adobe.com/xap/1.0/"
            xmlns:xmpMM="http://ns.adobe.com/xap/1.0/mm/"
            xmlns:stEvt="http://ns.adobe.com/xap/1.0/sType/ResourceEvent#"
            xmlns:dc="http://purl.org/dc/elements/1.1/"
            xmlns:lr="http://ns.adobe.com/lightroom/1.0/">
         <xmpRights:Marked>True</xmpRights:Marked>
         <xmp:MetadataDate>2021-06-24T19:27:15-05:00</xmp:MetadataDate>
         <xmpMM:InstanceID>xmp.iid:a9d7ca41-9605-4b9b-bb22-40872efb1178</xmpMM:InstanceID>
         <xmpMM:DocumentID>xmp.did:b0ae162b-e4c9-4a40-9d03-f5d11f5bca8c</xmpMM:DocumentID>
         <xmpMM:OriginalDocumentID>xmp.did:b0ae162b-e4c9-4a40-9d03-f5d11f5bca8c</xmpMM:OriginalDocumentID>
         <xmpMM:History>
            <rdf:Seq>
               <rdf:li>
                  <rdf:Description>
                     <stEvt:action>saved</stEvt:action>
                     <stEvt:instanceID>xmp.iid:b0ae162b-e4c9-4a40-9d03-f5d11f5bca8c</stEvt:instanceID>
                     <stEvt:when>2021-06-23T15:53:56-05:00</stEvt:when>
                     <stEvt:softwareAgent>Adobe Bridge 2021 (Macintosh)</stEvt:softwareAgent>
                     <stEvt:changed>/metadata</stEvt:changed>
                  </rdf:Description>
               </rdf:li>
               <rdf:li>
                  <rdf:Description>
                     <stEvt:action>saved</stEvt:action>
                     <stEvt:instanceID>xmp.iid:a9d7ca41-9605-4b9b-bb22-40872efb1178</stEvt:instanceID>
                     <stEvt:when>2021-06-24T19:27:15-05:00</stEvt:when>
                     <stEvt:softwareAgent>Adobe Bridge 2021 (Macintosh)</stEvt:softwareAgent>
                     <stEvt:changed>/metadata</stEvt:changed>
                  </rdf:Description>
               </rdf:li>
            </rdf:Seq>
         </xmpMM:History>
         <dc:title>
            <rdf:Alt>
               <rdf:li xml:lang="x-default">Burstable Virtual Machine (VM)</rdf:li>
            </rdf:Alt>
         </dc:title>
         <dc:rights>
            <rdf:Alt>
               <rdf:li xml:lang="x-default">Oracle All Rights Reserved</rdf:li>
            </rdf:Alt>
         </dc:rights>
         <dc:subject>
            <rdf:Bag>
               <rdf:li>icon</rdf:li>
               <rdf:li>Burstable</rdf:li>
               <rdf:li>Virtual Machine</rdf:li>
               <rdf:li>VM</rdf:li>
               <rdf:li>technology</rdf:li>
            </rdf:Bag>
         </dc:subject>
         <lr:hierarchicalSubject>
            <rdf:Bag>
               <rdf:li>icon</rdf:li>
               <rdf:li>Virtual Machine</rdf:li>
               <rdf:li>VM</rdf:li>
               <rdf:li>technology</rdf:li>
            </rdf:Bag>
         </lr:hierarchicalSubject>
      </rdf:Description>
   </rdf:RDF>
</x:xmpmeta>
                                                                                                    
                                                                                                    
                                                                                                    
                                                                                                    
                                                                                                    
                                                                                                    
                                                                                                    
                                 
<?xpacket end="w"?></metadata>
<path class="cls-1" d="M11,43.56V41.91l2.06-1h1.69l.33-2.38H.5V7.61H11.76l-.65-3.4L17.79,10a.26.26,0,0,0,.18.07.29.29,0,0,0,.27-.19l2.89-8.36L24,9.89a.27.27,0,0,0,.27.19.22.22,0,0,0,.17-.07l6.69-5.79-.66,3.39H41.75V38.5H27.42l.33,2.38h1.69l2.06,1v1.65Z"/><path class="cls-1" d="M21.13,3.06l1.58,4.58.84,2.42a.77.77,0,0,0,.74.52.73.73,0,0,0,.5-.19l1.93-1.67,3.67-3.18-.5,2.57H41.25V38H26.85l.46,3.38h2l1.68.84v.84H11.49v-.84l1.68-.84h2L15.64,38H1V8.11H12.37l-.5-2.57,3.67,3.17,1.93,1.68a.71.71,0,0,0,.5.19.78.78,0,0,0,.74-.52l.83-2.42,1.59-4.58m0-3.06-.94,2.73L18.6,7.32l-.73,2.1L16.19,8,12.53,4.78,10.34,2.89l.55,2.84.27,1.38H0V39H14.5l-.19,1.38H12.93l-.21.11L11,41.33l-.55.27v2.46H32V41.6l-.55-.27-1.68-.84-.21-.11H28.19L28,39H42.25V7.11H31.1l.27-1.38.55-2.84-2.19,1.9L26.07,8,24.39,9.42l-.73-2.1L22.08,2.73,21.13,0Z"/><path class="cls-2" d="M12.52,15.41a2.59,2.59,0,0,1-.47-.05l-2.51-.48,1.67,1.93a2.43,2.43,0,0,1,.52,2.24,2.11,2.11,0,0,1-.22.54,2.4,2.4,0,0,1-1.35,1.14l-2.42.84,2.42.83.29.13a2.37,2.37,0,0,1,1.18,1.28,2.31,2.31,0,0,1,.1.28,2.7,2.7,0,0,1,.08.57,2.84,2.84,0,0,1-.05.58,2.57,2.57,0,0,1-.36.84c-.06.08-.12.17-.19.25L9.54,28.26l2.5-.48a2.61,2.61,0,0,1,.48-.05l.27,0a2.26,2.26,0,0,1,.78.22,3,3,0,0,1,.44.28l.2.17a2.26,2.26,0,0,1,.47.63,2.1,2.1,0,0,1,.2.49,2.58,2.58,0,0,1,0,1.11l-.49,2.51,1.93-1.67a2.42,2.42,0,0,1,1-.52,2.27,2.27,0,0,1,.63-.08,2.45,2.45,0,0,1,2.33,1.65L21.12,35h0L22,32.54a2.44,2.44,0,0,1,2.14-1.65h.39a2,2,0,0,1,.42.07,3.39,3.39,0,0,1,.41.15,2,2,0,0,1,.56.37l1.93,1.67-.48-2.51a2.38,2.38,0,0,1,0-.84,2.46,2.46,0,0,1,1.62-1.94,2.36,2.36,0,0,1,.8-.14,2.59,2.59,0,0,1,.47.05l2.51.49L31,26.33a2.45,2.45,0,0,1,1.05-3.92l2.42-.83-2.42-.84-.29-.12a2.39,2.39,0,0,1-1.18-1.29,2.49,2.49,0,0,1-.18-.85,2.84,2.84,0,0,1,0-.58A2.62,2.62,0,0,1,31,16.81l1.68-1.93-2.51.49a2.59,2.59,0,0,1-.48,0,2.42,2.42,0,0,1-.54-.06l-.26-.07a2.65,2.65,0,0,1-.48-.23,2.74,2.74,0,0,1-.75-.73,2.39,2.39,0,0,1-.38-1,2.43,2.43,0,0,1,0-.85l.49-2.5-1.93,1.67a2.63,2.63,0,0,1-.77.45,2.39,2.39,0,0,1-.83.15,2.48,2.48,0,0,1-1.69-.67,2.16,2.16,0,0,1-.47-.61,2.48,2.48,0,0,1-.17-.37l-.83-2.42-.84,2.41a2.44,2.44,0,0,1-1.95,1.63,2.31,2.31,0,0,1-.37,0,2.39,2.39,0,0,1-.83-.15,2.09,2.09,0,0,1-.4-.19l-.19-.12-.18-.14L14.44,10l.48,2.51a2.44,2.44,0,0,1-1.35,2.68,2.3,2.3,0,0,1-.5.18A2.51,2.51,0,0,1,12.52,15.41Zm1.16,1.28,7.55-2.83,7.34,2.84v10l-7.34,2.84-7.55-2.83Z"/><polygon class="cls-2" points="15.36 25.5 20.39 27.39 20.39 20.56 15.36 18.52 15.36 25.5"/><polygon class="cls-2" points="21.23 15.66 16.83 17.31 21.23 19.09 25.49 17.3 21.23 15.66"/><polygon class="cls-2" points="22.07 27.37 26.89 25.5 26.89 18.54 22.07 20.56 22.07 27.37"/><polygon class="cls-3" points="2.68 9.79 11.41 9.79 11.09 8.11 1 8.11 1 20.79 2.68 20.21 2.68 9.79"/><polygon class="cls-3" points="31.17 8.11 30.85 9.79 39.57 9.79 39.57 20.22 41.25 20.8 41.25 8.11 31.17 8.11"/><polygon class="cls-3" points="39.57 32.97 30.76 32.97 31.09 34.64 39.57 34.64 39.57 36.32 31.41 36.32 31.73 38 41.25 38 41.25 22.35 39.57 22.93 39.57 32.97"/><polygon class="cls-3" points="2.68 22.92 1 22.34 1 38 10.51 38 10.83 36.32 2.68 36.32 2.68 34.64 11.16 34.64 11.48 32.97 2.68 32.97 2.68 22.92"/><polygon class="cls-3" points="29.32 41.38 27.31 41.38 26.85 38 28.91 38 26.98 36.32 23.75 36.32 23.17 38 25.16 38 25.62 41.38 16.87 41.38 17.33 38 19.07 38 18.49 36.32 15.27 36.32 13.33 38 15.64 38 15.18 41.38 13.17 41.38 13.17 41.38 13.17 41.38 11.49 42.22 11.49 43.06 31 43.06 31 42.22 29.32 41.38 29.32 41.38"/><path class="cls-3" d="M13.27,12.81a.74.74,0,0,1-.16.64.76.76,0,0,1-.59.28h-.15l-2.51-.49L5.1,12.31,8.27,16l1.67,1.93a.75.75,0,0,1,.17.71.76.76,0,0,1-.5.53L7.2,20,2.61,21.57,7.2,23.15,9.61,24a.76.76,0,0,1,.5.53.75.75,0,0,1-.17.71L8.27,27.16,5.09,30.82l4.76-.91,2.51-.49h.16a.77.77,0,0,1,.75.92l-.48,2.51-.92,4.76,3.66-3.17,1.93-1.68a.8.8,0,0,1,.5-.19.77.77,0,0,1,.74.53l.84,2.41,1.58,4.58,1.59-4.58.83-2.41a.78.78,0,0,1,.74-.53.76.76,0,0,1,.5.19l1.93,1.68,3.67,3.18-.92-4.77L29,30.34a.72.72,0,0,1,.16-.64.77.77,0,0,1,.59-.29l.16,0,2.5.48,4.76.92L34,27.17l-1.67-1.93a.75.75,0,0,1-.17-.71.77.77,0,0,1,.5-.54l2.41-.83,4.59-1.58L35.05,20l-2.41-.84a.75.75,0,0,1-.5-.53.78.78,0,0,1,.17-.71L34,16l3.18-3.66-4.76.92-2.51.48-.16,0a.78.78,0,0,1-.59-.29.76.76,0,0,1-.16-.64l.49-2.51.92-4.76L26.72,8.72l-1.93,1.67a.73.73,0,0,1-.5.19.77.77,0,0,1-.74-.52l-.84-2.42L21.13,3.06,19.54,7.64l-.83,2.42a.78.78,0,0,1-.74.52.71.71,0,0,1-.5-.19L15.54,8.72,11.87,5.54l.92,4.76Zm1.53,1a2.48,2.48,0,0,0,.12-1.36L14.44,10l1.93,1.68.18.14.19.12a2.09,2.09,0,0,0,.4.19,2.39,2.39,0,0,0,.83.15,2.31,2.31,0,0,0,.37,0,2.44,2.44,0,0,0,1.95-1.63l.84-2.41L22,10.61a2.48,2.48,0,0,0,.17.37,2.16,2.16,0,0,0,.47.61,2.48,2.48,0,0,0,1.69.67,2.39,2.39,0,0,0,.83-.15,2.63,2.63,0,0,0,.77-.45L27.82,10l-.49,2.5a2.43,2.43,0,0,0,0,.85,2.39,2.39,0,0,0,.38,1,2.74,2.74,0,0,0,.75.73,2.65,2.65,0,0,0,.48.23l.26.07a2.42,2.42,0,0,0,.54.06,2.59,2.59,0,0,0,.48,0l2.51-.49L31,16.81a2.62,2.62,0,0,0-.55,1.09,2.84,2.84,0,0,0,0,.58,2.49,2.49,0,0,0,.18.85,2.39,2.39,0,0,0,1.18,1.29l.29.12,2.42.84-2.42.83A2.45,2.45,0,0,0,31,26.33l1.67,1.94-2.51-.49a2.59,2.59,0,0,0-.47-.05,2.36,2.36,0,0,0-.8.14,2.46,2.46,0,0,0-1.62,1.94,2.38,2.38,0,0,0,0,.84l.48,2.51-1.93-1.67a2,2,0,0,0-.56-.37,3.39,3.39,0,0,0-.41-.15,2,2,0,0,0-.42-.07H24.1A2.44,2.44,0,0,0,22,32.54L21.12,35h0l-.83-2.41A2.45,2.45,0,0,0,18,30.89a2.27,2.27,0,0,0-.63.08,2.42,2.42,0,0,0-1,.52l-1.93,1.67.49-2.51a2.58,2.58,0,0,0,0-1.11,2.1,2.1,0,0,0-.2-.49,2.26,2.26,0,0,0-.47-.63l-.2-.17a3,3,0,0,0-.44-.28,2.26,2.26,0,0,0-.78-.22l-.27,0a2.61,2.61,0,0,0-.48.05l-2.5.48,1.67-1.93c.07-.08.13-.17.19-.25a2.57,2.57,0,0,0,.36-.84,2.84,2.84,0,0,0,.05-.58,2.7,2.7,0,0,0-.08-.57,2.31,2.31,0,0,0-.1-.28,2.37,2.37,0,0,0-1.18-1.28l-.29-.13-2.42-.83,2.42-.84a2.4,2.4,0,0,0,1.35-1.14,2.11,2.11,0,0,0,.22-.54,2.43,2.43,0,0,0-.52-2.24L9.54,14.88l2.51.48a2.59,2.59,0,0,0,.47.05,2.51,2.51,0,0,0,.55-.06,2.3,2.3,0,0,0,.5-.18A2.48,2.48,0,0,0,14.8,13.85Z"/><path class="cls-3" d="M28.57,26.65V16.7l-7.34-2.84-7.55,2.83v10l7.55,2.83ZM26.89,25.5l-4.82,1.87V20.56l4.82-2Zm-6.5,1.88-5-1.88v-7l5,2ZM16.83,17.31l4.4-1.65,4.26,1.65-4.26,1.78Z"/></svg>