<svg id="Layer_1" data-name="Layer 1" xmlns="http://www.w3.org/2000/svg" viewBox="0 0 46.57 42"><defs><style>.cls-1{fill:#fff;}.cls-2{fill:#2c5967;}</style></defs><title>Machine Learning with ODM and SQL Developer</title><metadata><?xpacket begin="﻿" id="W5M0MpCehiHzreSzNTczkc9d"?>
<x:xmpmeta xmlns:x="adobe:ns:meta/" x:xmptk="Adobe XMP Core 6.0-c006 79.164648, 2021/01/12-15:52:29        ">
   <rdf:RDF xmlns:rdf="http://www.w3.org/1999/02/22-rdf-syntax-ns#">
      <rdf:Description rdf:about=""
            xmlns:xmpRights="http://ns.adobe.com/xap/1.0/rights/"
            xmlns:xmp="http://ns.adobe.com/xap/1.0/"
            xmlns:xmpMM="http://ns.adobe.com/xap/1.0/mm/"
            xmlns:stEvt="http://ns.adobe.com/xap/1.0/sType/ResourceEvent#"
            xmlns:dc="http://purl.org/dc/elements/1.1/"
            xmlns:lr="http://ns.adobe.com/lightroom/1.0/">
         <xmpRights:Marked>True</xmpRights:Marked>
         <xmp:MetadataDate>2021-07-22T15:22:06-05:00</xmp:MetadataDate>
         <xmpMM:InstanceID>xmp.iid:372bbff6-15a8-4354-8031-3f53bca25914</xmpMM:InstanceID>
         <xmpMM:DocumentID>xmp.did:c93f6c07-6af4-4c49-af30-62f3878eafb0</xmpMM:DocumentID>
         <xmpMM:OriginalDocumentID>xmp.did:c93f6c07-6af4-4c49-af30-62f3878eafb0</xmpMM:OriginalDocumentID>
         <xmpMM:History>
            <rdf:Seq>
               <rdf:li>
                  <rdf:Description>
                     <stEvt:action>saved</stEvt:action>
                     <stEvt:instanceID>xmp.iid:c93f6c07-6af4-4c49-af30-62f3878eafb0</stEvt:instanceID>
                     <stEvt:when>2021-06-23T15:54-05:00</stEvt:when>
                     <stEvt:softwareAgent>Adobe Bridge 2021 (Macintosh)</stEvt:softwareAgent>
                     <stEvt:changed>/metadata</stEvt:changed>
                  </rdf:Description>
               </rdf:li>
               <rdf:li>
                  <rdf:Description>
                     <stEvt:action>saved</stEvt:action>
                     <stEvt:instanceID>xmp.iid:372bbff6-15a8-4354-8031-3f53bca25914</stEvt:instanceID>
                     <stEvt:when>2021-07-22T15:22:06-05:00</stEvt:when>
                     <stEvt:softwareAgent>Adobe Bridge 2021 (Macintosh)</stEvt:softwareAgent>
                     <stEvt:changed>/metadata</stEvt:changed>
                  </rdf:Description>
               </rdf:li>
            </rdf:Seq>
         </xmpMM:History>
         <dc:title>
            <rdf:Alt>
               <rdf:li xml:lang="x-default">Machine Learning with ODM and SQL Developer</rdf:li>
            </rdf:Alt>
         </dc:title>
         <dc:rights>
            <rdf:Alt>
               <rdf:li xml:lang="x-default">Oracle All Rights Reserved</rdf:li>
            </rdf:Alt>
         </dc:rights>
         <dc:subject>
            <rdf:Bag>
               <rdf:li>icon</rdf:li>
               <rdf:li>AI</rdf:li>
               <rdf:li>Artificial Intelligence</rdf:li>
               <rdf:li>technology</rdf:li>
               <rdf:li>ODM</rdf:li>
               <rdf:li>SQL</rdf:li>
               <rdf:li>OML</rdf:li>
            </rdf:Bag>
         </dc:subject>
         <lr:hierarchicalSubject>
            <rdf:Bag>
               <rdf:li>icon</rdf:li>
               <rdf:li>AI</rdf:li>
               <rdf:li>Artificial Intelligence</rdf:li>
               <rdf:li>technology</rdf:li>
               <rdf:li>Other Keywords|SQL</rdf:li>
               <rdf:li>Other Keywords|OML</rdf:li>
            </rdf:Bag>
         </lr:hierarchicalSubject>
      </rdf:Description>
   </rdf:RDF>
</x:xmpmeta>
                                                                                                    
                                                                                                    
                                                                                                    
                                                                                                    
                                                                                                    
                                                
<?xpacket end="w"?></metadata>
<path class="cls-1" d="M38.2,41.5a7.78,7.78,0,0,1-4.69-1.56l-1.42.16a67.43,67.43,0,0,1-7,.38c-1.81,0-17.67-.15-17.67-5.22V27.39a7.08,7.08,0,0,1-5.25-6.81c0-.13,0-.26,0-.4a7,7,0,0,1,0-9.11c0-.14,0-.28,0-.42A7.1,7.1,0,0,1,8,3.7,7.2,7.2,0,0,1,11.48.94,6.9,6.9,0,0,1,13.89.5h.21a2.7,2.7,0,0,1,2.52,2H17a2.7,2.7,0,0,1,2.52-2h.22a6.88,6.88,0,0,1,2.4.44,3.82,3.82,0,0,1,.46.21l0,0,2,0h.35c8.15,0,17.67,1.4,17.67,5.35a1.77,1.77,0,0,1,0,.23,1.09,1.09,0,0,1,0,.18V27.2A7.87,7.87,0,0,1,38.2,41.5Z"/><path class="cls-1" d="M19.77,1A6.42,6.42,0,0,1,22,1.41c.19.07.37.17.56.26l2.18,0h.33c8.27,0,17.17,1.52,17.17,4.85a1.94,1.94,0,0,1,0,.24,1,1,0,0,1,0,.17V27.47a7.37,7.37,0,1,1-8.59,12L32,39.6a67.57,67.57,0,0,1-7,.38C19.13,40,7.9,39,7.9,35.26V27a6.6,6.6,0,0,1-5.25-6.42q0-.27,0-.57a6.56,6.56,0,0,1,0-8.77c0-.21,0-.4,0-.59A6.59,6.59,0,0,1,8.29,4.16a6.63,6.63,0,0,1,3.36-2.75A6.43,6.43,0,0,1,13.89,1h.19A2.2,2.2,0,0,1,16.2,3h1.25a2.19,2.19,0,0,1,2.11-2h.21m0-1h-.24a3.21,3.21,0,0,0-2.71,1.69A3.19,3.19,0,0,0,14.12,0h-.23A7.46,7.46,0,0,0,11.3.47,7.72,7.72,0,0,0,7.7,3.25a7.6,7.6,0,0,0-6.05,7.4,2,2,0,0,0,0,.25,7.55,7.55,0,0,0,0,9.45,1.77,1.77,0,0,0,0,.23A7.59,7.59,0,0,0,6.9,27.77v7.49C6.9,40.7,22,41,25.07,41a66.42,66.42,0,0,0,7.08-.39l1.22-.13A8.26,8.26,0,0,0,38.2,42a8.37,8.37,0,0,0,5-15V6.88a1.21,1.21,0,0,0,0-.19,1.55,1.55,0,0,0,0-.22C43.24.91,28.1.62,25.07.62h-.34l-1.94,0a3.62,3.62,0,0,0-.45-.2A7.35,7.35,0,0,0,19.77,0Z"/><path class="cls-2" d="M30.88,38.11c-1.83.16-3.79.25-5.81.25a51.61,51.61,0,0,1-11.38-1.12c-3.41-.82-4.18-1.73-4.18-2V30.13A7.79,7.79,0,0,1,7.9,28.65v6.6C7.9,39,19.13,40,25.07,40a67.57,67.57,0,0,0,7-.38A8.39,8.39,0,0,1,30.88,38.11Z"/><path class="cls-2" d="M16.82,30h0Z"/><path class="cls-2" d="M23.56,30.48l1.51,0c1.49,0,3.32-.06,5.22-.21a8.86,8.86,0,0,1,1-1.7c-1.79.18-3.71.28-5.7.29A7.46,7.46,0,0,1,23.56,30.48Z"/><path class="cls-2" d="M26.07,3.05c.27.06.52.13.77.21A47.43,47.43,0,0,1,36.45,4.4c3.42.85,4.17,1.78,4.17,2.07s-.75,1.23-4.17,2.08a38.41,38.41,0,0,1-4.36.76,7.5,7.5,0,0,1,.12,1.34,1.09,1.09,0,0,1,0,.18l.07.09c3.51-.41,6.58-1.14,8.35-2.23v7.75c0,.25-.76,1.16-4.17,2-1,.24-2.16.45-3.38.62a7.63,7.63,0,0,1-.87,1.38.86.86,0,0,1,0,.16c0,.06,0,.12,0,.18,3.3-.37,6.55-1,8.42-2.14v6.77a8.87,8.87,0,0,1,1.62.66V6.88a1,1,0,0,0,0-.17,1.94,1.94,0,0,0,0-.24c0-3.33-8.9-4.85-17.17-4.85h-.33A7.78,7.78,0,0,1,26.07,3.05Z"/><path class="cls-2" d="M8.26,27.07a6.53,6.53,0,0,0,5.62,3.18h.17A2.24,2.24,0,0,0,16.22,28V3.22A2.21,2.21,0,0,0,14.08,1a6.38,6.38,0,0,0-2.43.41A6.63,6.63,0,0,0,8.29,4.16a6.59,6.59,0,0,0-5.64,6.49c0,.19,0,.38,0,.59a6.56,6.56,0,0,0,0,8.77q0,.3,0,.57A6.6,6.6,0,0,0,8.26,27.07ZM2.62,15.62A4.91,4.91,0,0,1,4.1,12.09l.29-.28-.06-.41a5.36,5.36,0,0,1-.06-.75A5,5,0,0,1,8.85,5.72l.44,0L9.5,5.3a5.09,5.09,0,0,1,2.71-2.38,4.87,4.87,0,0,1,1.67-.3H14a.6.6,0,0,1,.57.6V11h-4l-.26-.26a2.31,2.31,0,0,0,.2-1,2.43,2.43,0,1,0-2.42,2.42,2.35,2.35,0,0,0,1.12-.28l.69.68H14.6v2.23h-6a2.43,2.43,0,1,0,0,1.61h6v2H10l-.82.82a2.55,2.55,0,0,0-1-.21,2.43,2.43,0,1,0,2.42,2.42,2.5,2.5,0,0,0-.26-1.09l.32-.32h4v8a.61.61,0,0,1-.59.6h-.13a4.93,4.93,0,0,1-4.4-2.69l-.21-.4-.45,0a5,5,0,0,1-4.55-4.93,5.1,5.1,0,0,1,.06-.73l.06-.41-.29-.29A4.89,4.89,0,0,1,2.62,15.62ZM8.94,9.77A.81.81,0,1,1,8.14,9,.8.8,0,0,1,8.94,9.77ZM7.13,15.62a.81.81,0,0,1-1.62,0,.81.81,0,0,1,1.62,0Zm1.81,5.86a.81.81,0,1,1-.8-.8A.8.8,0,0,1,8.94,21.48Z"/><path class="cls-2" d="M17.43,3.22V28a2.24,2.24,0,0,0,2.16,2.22h.18a6.55,6.55,0,0,0,5.62-3.18A6.59,6.59,0,0,0,31,20.58c0-.18,0-.37,0-.57a6.55,6.55,0,0,0,0-8.77c0-.21,0-.4,0-.59a6.58,6.58,0,0,0-5.64-6.49A6.61,6.61,0,0,0,22,1.41,6.46,6.46,0,0,0,19.56,1,2.21,2.21,0,0,0,17.43,3.22ZM25.51,9a.81.81,0,1,1-.81.81A.81.81,0,0,1,25.51,9Zm2.63,6.66a.81.81,0,0,1-1.62,0,.81.81,0,0,1,1.62,0Zm-1.82,5.86a.81.81,0,1,1-.81-.8A.81.81,0,0,1,26.32,21.48ZM21.43,2.92A5.08,5.08,0,0,1,24.15,5.3l.21.39.44,0a5,5,0,0,1,4.58,4.93,4.27,4.27,0,0,1-.07.75l-.06.41.3.28a4.95,4.95,0,0,1,0,7.06l-.29.29.06.41a5.1,5.1,0,0,1,.06.73,5,5,0,0,1-4.56,4.93l-.45,0-.2.4a4.94,4.94,0,0,1-4.4,2.69h-.13a.61.61,0,0,1-.59-.6v-8h4l.31.31a2.27,2.27,0,0,0-.27,1.1,2.42,2.42,0,1,0,2.42-2.42,2.3,2.3,0,0,0-1,.21l-.81-.82H19.05v-2h6a2.43,2.43,0,1,0,0-1.61h-6V12.59h4.67l.68-.67a2.4,2.4,0,1,0-1.11-1.18l-.24.24h-4V3.22a.6.6,0,0,1,.57-.6h.15A4.77,4.77,0,0,1,21.43,2.92Z"/><path class="cls-2" d="M38.2,26.25a7.38,7.38,0,1,0,7.37,7.38A7.38,7.38,0,0,0,38.2,26.25Zm0,13.13A5.76,5.76,0,1,1,44,33.63,5.77,5.77,0,0,1,38.2,39.38Z"/><polygon class="cls-2" points="36.13 37.03 42.06 33.61 36.13 30.19 36.13 37.03"/></svg>