<svg width="36" height="36" viewBox="0 0 36 36" fill="none" xmlns="http://www.w3.org/2000/svg">
<metadata><?xpacket begin="﻿" id="W5M0MpCehiHzreSzNTczkc9d"?>
<x:xmpmeta xmlns:x="adobe:ns:meta/" x:xmptk="Adobe XMP Core 7.1-c000 79.4d2f597, 2021/09/01-20:51:22        ">
   <rdf:RDF xmlns:rdf="http://www.w3.org/1999/02/22-rdf-syntax-ns#">
      <rdf:Description rdf:about=""
            xmlns:dc="http://purl.org/dc/elements/1.1/"
            xmlns:xmp="http://ns.adobe.com/xap/1.0/"
            xmlns:xmpMM="http://ns.adobe.com/xap/1.0/mm/"
            xmlns:stEvt="http://ns.adobe.com/xap/1.0/sType/ResourceEvent#"
            xmlns:xmpRights="http://ns.adobe.com/xap/1.0/rights/">
         <dc:subject>
            <rdf:Bag>
               <rdf:li>SQL</rdf:li>
               <rdf:li>firewall</rdf:li>
               <rdf:li>database</rdf:li>
               <rdf:li>icon</rdf:li>
            </rdf:Bag>
         </dc:subject>
         <dc:rights>
            <rdf:Alt>
               <rdf:li xml:lang="x-default">Oracle All Rights</rdf:li>
            </rdf:Alt>
         </dc:rights>
         <xmp:MetadataDate>2025-02-06T15:37:27-06:00</xmp:MetadataDate>
         <xmpMM:InstanceID>xmp.iid:224cfb9a-69c9-4fe2-85e7-ffaa370f5087</xmpMM:InstanceID>
         <xmpMM:DocumentID>xmp.did:3e6476fb-d1b3-481e-89f0-322aa710aad1</xmpMM:DocumentID>
         <xmpMM:OriginalDocumentID>xmp.did:3e6476fb-d1b3-481e-89f0-322aa710aad1</xmpMM:OriginalDocumentID>
         <xmpMM:History>
            <rdf:Seq>
               <rdf:li>
                  <rdf:Description>
                     <stEvt:action>saved</stEvt:action>
                     <stEvt:instanceID>xmp.iid:3e6476fb-d1b3-481e-89f0-322aa710aad1</stEvt:instanceID>
                     <stEvt:when>2025-02-06T15:36:42-06:00</stEvt:when>
                     <stEvt:softwareAgent>Adobe Bridge 2023</stEvt:softwareAgent>
                     <stEvt:changed>/metadata</stEvt:changed>
                  </rdf:Description>
               </rdf:li>
               <rdf:li>
                  <rdf:Description>
                     <stEvt:action>saved</stEvt:action>
                     <stEvt:instanceID>xmp.iid:224cfb9a-69c9-4fe2-85e7-ffaa370f5087</stEvt:instanceID>
                     <stEvt:when>2025-02-06T15:37:27-06:00</stEvt:when>
                     <stEvt:softwareAgent>Adobe Bridge 2023</stEvt:softwareAgent>
                     <stEvt:changed>/metadata</stEvt:changed>
                  </rdf:Description>
               </rdf:li>
            </rdf:Seq>
         </xmpMM:History>
         <xmpRights:Marked>True</xmpRights:Marked>
      </rdf:Description>
   </rdf:RDF>
</x:xmpmeta>
                                                                                                    
                                                                                                    
                                                                                                    
                                                                                                    
                                                                                                    
                                                                                                    
                                                                                                    
                                                                                                    
                                                                                                    
                                                                                                    
                                                                                                    
                                                                                                    
                                                              
<?xpacket end="w"?></metadata>
<path d="M26.2223 35.4136C25.9989 35.3331 25.7942 35.2433 25.5887 35.1526L25.5082 35.1175H1.72742V23.4467H4.35527V4.872C4.35527 4.82664 4.35784 4.78128 4.36383 4.73592C4.35869 4.67944 4.35527 4.6221 4.35527 4.5639C4.35527 1.5112 11.6634 0.427734 17.9218 0.427734C24.1802 0.427734 31.4883 1.5112 31.4883 4.5639C31.4883 4.6221 31.4849 4.67944 31.4798 4.73592C31.4858 4.78128 31.4883 4.82664 31.4883 4.872V17.8385L34.2712 19.0307V26.0467C34.2712 26.318 34.1881 32.7383 26.9399 35.411L26.5811 35.5428L26.2223 35.4136Z" fill="white"/>
<path d="M17.9217 0.855818C24.2494 0.855818 31.0601 2.01631 31.0601 4.56408C31.0601 4.6257 31.055 4.68646 31.0473 4.74637C31.0558 4.78745 31.0601 4.82938 31.0601 4.87303V11.6708V12.1834V18.1211L33.8421 19.3133V26.0477C33.8421 26.307 33.7616 32.4398 26.7908 35.0107L26.5802 35.0886L26.3678 35.0115C26.0947 34.9131 25.8498 34.7993 25.5972 34.6897H2.15545V23.8756H4.7833V19.3252V19.0856V12.1826V11.6699V4.87303C4.7833 4.82938 4.78758 4.78745 4.79615 4.74637C4.78844 4.68646 4.7833 4.6257 4.7833 4.56408C4.7833 2.01631 11.594 0.855818 17.9217 0.855818ZM17.9217 0C15.585 0 3.92705 0.219945 3.92705 4.56408C3.92705 4.62056 3.92961 4.67619 3.9339 4.73182C3.92961 4.77889 3.92705 4.82596 3.92705 4.87389V11.6717V12.1843V19.0873V19.3269V23.0215H2.15545H1.29919V23.8773V34.6915V35.5473H2.15545H25.4182C25.6314 35.6414 25.8446 35.7338 26.0767 35.8177L26.289 35.8947L26.5836 36.0017L26.8773 35.8939L27.0888 35.816C34.6127 33.0414 34.6992 26.3344 34.6992 26.0503V19.3158V18.7518L34.1803 18.5293L31.9172 17.5597V12.186V11.6734V4.87303C31.9172 4.82596 31.9146 4.77889 31.9104 4.73096C31.9146 4.67534 31.9172 4.61971 31.9172 4.56322C31.9172 0.219945 20.2593 0 17.9217 0Z" fill="white"/>
<path d="M6.01964 22.9489V20.9959C8.56272 22.4945 14.4349 22.9395 17.9216 22.9395C18.0715 22.9395 18.2264 22.9386 18.3857 22.9369V21.7011C18.2316 21.7028 18.0774 21.7037 17.9216 21.7037C14.6242 21.7037 11.5314 21.3982 9.21262 20.8436C6.60617 20.2206 6.01964 19.5222 6.01964 19.3262V13.8541C8.56272 15.3527 14.4349 15.7968 17.9216 15.7968C21.4083 15.7968 27.2805 15.3518 29.8236 13.8541V16.5842L31.06 17.1139V12.1844V11.6718V4.87317C31.06 4.82952 31.0557 4.78759 31.0472 4.74651C31.0549 4.6866 31.06 4.62584 31.06 4.56422C31.0609 2.01645 24.2493 0.855957 17.9216 0.855957C11.5939 0.855957 4.7832 2.01645 4.7832 4.56422C4.7832 4.62584 4.78834 4.6866 4.79605 4.74651C4.78748 4.78759 4.7832 4.82952 4.7832 4.87317V11.6709V12.1836V19.0866V19.3254V22.9489H6.01964ZM17.9216 2.09176C21.2173 2.09176 24.3093 2.4067 26.6263 2.97839C29.249 3.62539 29.8236 4.34171 29.8236 4.56336C29.8236 4.78502 29.249 5.50134 26.6263 6.14834C24.3084 6.72002 21.2173 7.03497 17.9216 7.03497C14.6259 7.03497 11.5339 6.72002 9.2169 6.14834C6.59419 5.50134 6.01964 4.78502 6.01964 4.56422C6.01964 4.34342 6.59419 3.62624 9.2169 2.97924C11.5348 2.4067 14.6259 2.09176 17.9216 2.09176ZM26.6314 13.7001C24.3127 14.2546 21.219 14.5602 17.9225 14.5602C14.6259 14.5602 11.5322 14.2546 9.21348 13.7001C6.60703 13.0762 6.02049 12.3787 6.02049 12.1827V6.26302C8.26817 7.63318 13.2276 8.27162 17.9225 8.27162C22.6173 8.27162 27.5768 7.63233 29.8244 6.26302V12.1836C29.8236 12.3787 29.237 13.077 26.6314 13.7001Z" fill="#2D5967"/>
<path d="M18.3857 26.0478V23.8757H2.1554V34.6907H18.3857V26.0478ZM3.39183 33.4541V25.1115H17.1484V33.4541H3.39183Z" fill="#2D5967"/>
<path d="M6.83225 29.0371L6.38014 28.8882C6.12241 28.8044 5.94688 28.7291 5.85354 28.6623C5.76021 28.5955 5.71398 28.5091 5.71398 28.4021C5.71398 28.124 5.95972 27.9853 6.45121 27.9853C6.62931 27.9853 6.82368 28.005 7.03432 28.0453C7.24411 28.0855 7.45046 28.1437 7.65254 28.2198V27.4256C7.49413 27.3572 7.30832 27.3024 7.09597 27.263C6.88362 27.2228 6.6687 27.2031 6.45036 27.2031C6.10528 27.2031 5.80816 27.2536 5.55814 27.3546C5.30811 27.4556 5.1146 27.5994 4.97845 27.7859C4.84145 27.9725 4.77295 28.1959 4.77295 28.4543C4.77295 28.7556 4.85686 29.0021 5.02554 29.1946C5.19423 29.3872 5.46309 29.5446 5.83128 29.6662L6.28339 29.8151C6.5454 29.899 6.72179 29.9743 6.81255 30.041C6.90332 30.1078 6.94955 30.1908 6.94955 30.2901C6.94955 30.4313 6.87848 30.5417 6.73549 30.6213C6.59249 30.7009 6.39641 30.7411 6.14638 30.7411C5.72596 30.7411 5.28756 30.6589 4.83203 30.4955V31.2905C4.92708 31.3359 5.05294 31.3761 5.20964 31.4103C5.36633 31.4446 5.53673 31.4711 5.72083 31.4899C5.90492 31.5087 6.08302 31.5182 6.25342 31.5182C6.77659 31.5182 7.18246 31.406 7.47016 31.181C7.75786 30.9559 7.90171 30.6495 7.90171 30.261C7.90171 29.9443 7.82037 29.6944 7.65768 29.5096C7.4967 29.3238 7.22099 29.1664 6.83225 29.0371Z" fill="#2D5967"/>
<path d="M12.0931 30.6571C12.3012 30.3276 12.4057 29.8937 12.4057 29.3571C12.4057 28.675 12.2293 28.1453 11.8765 27.7678C11.5237 27.3904 11.0262 27.2021 10.3832 27.2021C9.741 27.2021 9.24266 27.3904 8.88988 27.7678C8.53711 28.1453 8.36072 28.675 8.36072 29.3571C8.36072 29.9596 8.49515 30.4431 8.76487 30.8086C9.03459 31.1749 9.42333 31.3991 9.93024 31.483L9.85317 31.8604L12.4468 32.2147L12.5538 31.7003L11.1624 31.3631C11.5751 31.2228 11.8851 30.9874 12.0931 30.6571ZM10.3832 30.8599C10.0219 30.8599 9.75385 30.7384 9.57746 30.4936C9.40107 30.2497 9.31288 29.8706 9.31288 29.3562C9.31288 28.9027 9.40107 28.5569 9.57746 28.319C9.75385 28.0811 10.0227 27.9621 10.3832 27.9621C10.7403 27.9621 11.0074 28.0811 11.1864 28.319C11.3645 28.5569 11.4544 28.9027 11.4544 29.3562C11.4544 29.8706 11.3653 30.2497 11.1864 30.4936C11.0083 30.7384 10.7403 30.8599 10.3832 30.8599Z" fill="#2D5967"/>
<path d="M14.0289 27.2817H13.1016V31.4376H15.9323V30.6434H14.0289V27.2817Z" fill="#2D5967"/>
<path d="M26.5775 16.2017L19.3121 19.3134V22.9489V24.4937V26.0461C19.3113 26.308 19.3772 32.4862 26.3668 35.0117L26.58 35.0887L26.7915 35.0108C33.7623 32.4408 33.8428 26.308 33.8428 26.0479V19.3134L26.5775 16.2017ZM32.6064 26.0479C32.6064 26.1001 32.5387 31.0698 27.1966 33.5072V17.8115L32.6064 20.129V26.0479ZM20.5494 26.0479V20.1282L25.9593 17.8106V33.514C20.6042 31.1246 20.5486 26.2644 20.5494 26.0479Z" fill="#2D5967"/>
</svg>
