<?xml version="1.0" encoding="utf-8"?>
<!-- Generator: Adobe Illustrator 27.7.0, SVG Export Plug-In . SVG Version: 6.00 Build 0)  -->
<svg version="1.1" id="Extras" xmlns="http://www.w3.org/2000/svg" xmlns:xlink="http://www.w3.org/1999/xlink" x="0px" y="0px"
	 viewBox="0 0 42.121 42.121" style="enable-background:new 0 0 42.121 42.121;" xml:space="preserve">
<metadata><?xpacket begin="﻿" id="W5M0MpCehiHzreSzNTczkc9d"?>
<x:xmpmeta xmlns:x="adobe:ns:meta/" x:xmptk="Adobe XMP Core 7.1-c000 79.4d2f597, 2021/09/01-20:51:22        ">
   <rdf:RDF xmlns:rdf="http://www.w3.org/1999/02/22-rdf-syntax-ns#">
      <rdf:Description rdf:about=""
            xmlns:dc="http://purl.org/dc/elements/1.1/"
            xmlns:xmpRights="http://ns.adobe.com/xap/1.0/rights/"
            xmlns:xmp="http://ns.adobe.com/xap/1.0/"
            xmlns:xmpMM="http://ns.adobe.com/xap/1.0/mm/"
            xmlns:stEvt="http://ns.adobe.com/xap/1.0/sType/ResourceEvent#">
         <dc:subject>
            <rdf:Bag>
               <rdf:li>world</rdf:li>
               <rdf:li>earth</rdf:li>
               <rdf:li>icon</rdf:li>
               <rdf:li>database</rdf:li>
            </rdf:Bag>
         </dc:subject>
         <dc:rights>
            <rdf:Alt>
               <rdf:li xml:lang="x-default">Oracle All Rights&#xA;</rdf:li>
            </rdf:Alt>
         </dc:rights>
         <xmpRights:Marked>True</xmpRights:Marked>
         <xmp:MetadataDate>2025-02-04T14:47:26-06:00</xmp:MetadataDate>
         <xmpMM:InstanceID>xmp.iid:c4fcc0f2-beec-4223-9844-bf1762421e27</xmpMM:InstanceID>
         <xmpMM:DocumentID>xmp.did:c4fcc0f2-beec-4223-9844-bf1762421e27</xmpMM:DocumentID>
         <xmpMM:OriginalDocumentID>xmp.did:c4fcc0f2-beec-4223-9844-bf1762421e27</xmpMM:OriginalDocumentID>
         <xmpMM:History>
            <rdf:Seq>
               <rdf:li>
                  <rdf:Description>
                     <stEvt:action>saved</stEvt:action>
                     <stEvt:instanceID>xmp.iid:c4fcc0f2-beec-4223-9844-bf1762421e27</stEvt:instanceID>
                     <stEvt:when>2025-02-04T14:47:26-06:00</stEvt:when>
                     <stEvt:softwareAgent>Adobe Bridge 2023</stEvt:softwareAgent>
                     <stEvt:changed>/metadata</stEvt:changed>
                  </rdf:Description>
               </rdf:li>
            </rdf:Seq>
         </xmpMM:History>
      </rdf:Description>
   </rdf:RDF>
</x:xmpmeta>
                                                                                                    
                                                                                                    
                                                                                                    
                                                                                                    
                                                                                                    
                                                                                                    
                                                                                                    
                                                                                                    
                                                                                                    
                                                                                                    
                                                                                                    
                                                                                                    
                                                                                                    
                                                                                                    
                                                                                                    
                                                                                                    
                                                                                                    
                                                                                                    
                                                                                                    
                                                                                                    
                           
<?xpacket end="w"?></metadata>
<style type="text/css">
	.st0{fill:#FFFFFF;}
	.st1{fill:#2C5967;}
</style>
<g>
	<path class="st0" d="M41.655,16.641v-1.9V14.67l0-0.001c0-0.005,0-0.009,0-0.014c0-0.581-0.232-1.379-1.281-2.025
		C37.025,4.945,29.506,0,21.121,0C15.49,0,10.197,2.21,6.217,6.224C2.21,10.197,0,15.49,0,21.121c0,11.579,9.421,21,21,21
		c5.331,0,10.422-2.018,14.335-5.683c0.08-0.073,0.164-0.154,0.248-0.234l0.049-0.047c0.179-0.175,0.351-0.344,0.518-0.518
		c1.953-2.003,3.471-4.362,4.509-7.01c0.815-0.617,0.996-1.321,0.996-1.826v-1.459c0.309-1.455,0.466-2.915,0.466-4.344
		C42.121,19.562,41.964,18.096,41.655,16.641z"/>
	<g>
		<path class="st1" d="M37.493,29.756c-3.118,5.931-9.34,9.986-16.493,9.986c-10.268,0-18.621-8.353-18.621-18.621
			c0-3.248,0.837-6.304,2.305-8.966h1.66v0.517l-0.789,1.981c-0.077,0.185-0.07,0.394,0.02,0.574l2.508,5.015
			c0.099,0.198,0.288,0.337,0.506,0.372c0.219,0.036,0.441-0.036,0.598-0.193l0.48-0.48l0.174,0.261l0.152,0.762
			c0.03,0.15,0.109,0.286,0.225,0.387l3.94,3.403c0.076,0.065,0.165,0.114,0.261,0.141l1.923,0.536v1.724
			c0,0.129,0.104,0.235,0.172,0.345l1.724,2.586v7.241c0,0.142,0.022,0.213,0.104,0.33c0,0,0.586,1.222,1.62,1.222
			c1.034,0,1.897-0.517,1.897-0.517s0.345-0.245,0.345-0.517v-1.207l1.034-0.69c0.202-0.126,0.345-0.452,0.345-0.69v-1.724
			l3.179-1.713c0.148-0.081,0.26-0.214,0.317-0.372c0,0,0.411-1.109,0.703-1.917c-0.489-0.126-0.925-0.273-1.301-0.442l-0.612,1.649
			L22.552,32.5c-0.22,0.121-0.345,0.438-0.345,0.69v1.724l-1.155,0.734c-0.202,0.126-0.224,0.407-0.224,0.645v1.034
			c0,0-0.345,0.172-0.69,0.172s-0.517-0.345-0.517-0.345v-7.241c0-0.129-0.104-0.235-0.172-0.345l-1.724-2.586v-2.069
			c0-0.308-0.221-0.605-0.517-0.69l-2.26-0.613L11.3,20.462l-0.133-0.664c-0.018-0.088-0.052-0.172-0.102-0.247l-0.716-1.075
			c-0.115-0.172-0.3-0.283-0.506-0.304c-0.206-0.021-0.409,0.053-0.556,0.199l-0.398,0.398l-1.938-3.877l0.774-1.875
			c0.035-0.084,0-0.254,0-0.345v-1.207c0-0.381-0.481-0.69-0.862-0.69H5.525c1.891-2.82,4.532-5.096,7.635-6.542l2.487,1.755
			c0.091,0.064,0.196,0.105,0.307,0.12l2.455,0.327l0.689,0.689l-0.118,0.176l-1.837-0.565c-0.256-0.079-0.533-0.003-0.713,0.195
			l-1.791,1.97c-0.115,0.127-0.179,0.292-0.179,0.464v1.075c0,0.351,0.264,0.647,0.614,0.685l1.094,0.122l0.093,0.56
			c0.055,0.333,0.266,0.52,0.603,0.52h1.552c0.343,0,0.593-0.196,0.641-0.536l0.119-0.832l1.208-0.402
			c0.031-0.01,0.061-0.023,0.09-0.037l0.749-0.375l0.813,0.458v1.379l-2.143,0.869c-0.228,0.098-0.386,0.311-0.414,0.558
			l-0.143,1.293l-1.345,0.896c-0.159,0.106-0.266,0.272-0.298,0.46l-0.179,1.075c-0.017,0.101-0.011,0.204,0.017,0.303l0.412,1.441
			l-0.494-0.09l-0.4-1.067c-0.101-0.269-0.358-0.448-0.646-0.448h-1.791c-0.149,0-0.294,0.048-0.414,0.138l-0.716,0.537
			c-0.208,0.156-0.31,0.416-0.265,0.671l0.537,3.045c0.058,0.33,0.344,0.57,0.679,0.57h1.171l1.416,1.259
			c0.144,0.128,0.333,0.19,0.527,0.171l3.279-0.328l1.565,1.408c0.088,0.079,0.196,0.135,0.312,0.16l1.403,0.353
			c0.065,0,0.278,0,0.517,0v-1.379h-0.172l-1.272-0.281l-1.656-1.491c-0.144-0.13-0.335-0.192-0.53-0.174l-3.281,0.328l-1.386-1.232
			c-0.126-0.112-0.289-0.174-0.458-0.174H15.01l-0.363-2.058l0.193-0.145h1.083l0.37,0.985c0.085,0.227,0.284,0.393,0.522,0.436
			l1.97,0.358c0.236,0.043,0.475-0.039,0.634-0.215c0.16-0.177,0.218-0.423,0.152-0.653l-0.674-2.358l0.104-0.627l1.363-0.909
			c0.17-0.113,0.28-0.295,0.303-0.498l0.135-1.213l2.138-0.916c0.235-0.101,0.45-0.291,0.471-0.545v-2.241
			c0.023-0.27-0.108-0.558-0.345-0.69l-1.496-0.806c-0.199-0.111-0.439-0.116-0.643-0.014l-1.031,0.515l-1.565,0.522
			c-0.248,0.083-0.428,0.298-0.465,0.557l-0.094,0.662h-0.251l-0.083-0.498c-0.051-0.304-0.297-0.538-0.604-0.572l-0.998-0.111
			V9.633l1.317-1.449l1.91,0.588c0.291,0.09,0.607-0.023,0.777-0.277l0.717-1.075c0.182-0.274,0.146-0.638-0.086-0.87l-1.254-1.254
			C19.111,5.189,18.972,5.12,18.822,5.1l-2.519-0.336L14.667,3.61c0.654-0.237,1.324-0.438,2.009-0.602l0.174,0.611
			c0.075,0.264,0.3,0.458,0.572,0.494l2.687,0.358c0.031,0.004,0.061,0.006,0.092,0.006c0.291,0,0.556-0.185,0.652-0.467
			c0.24-0.702,0.401-1.18,0.509-1.506c0.517,0.01,1.028,0.04,1.534,0.091v2.145c0,0.217,0,0.345,0.225,0.493l0.485,0.364l0.32,2.4
			c0.046,0.343,0.338,0.537,0.684,0.537h1.046v2.417c0,0.381,0.309,0.686,0.69,0.686h1.379c0.187,0,0.296-0.072,0.426-0.206
			l4.595-4.749c1.644,1.34,3.055,2.956,4.164,4.774c0.622,0.089,1.231,0.21,1.796,0.37C35.353,5.467,28.675,1.121,21,1.121
			c-11.028,0-20,8.972-20,20c0,11.028,8.972,20,20,20c8.108,0,15.105-4.85,18.241-11.801c-0.267,0.092-0.554,0.177-0.864,0.252
			C38.099,29.639,37.803,29.7,37.493,29.756z M24.276,2.789c2.697,0.481,5.194,1.545,7.358,3.055l-4.271,4.418h-0.328V7.907
			c0-0.381-0.309-0.752-0.69-0.752h-1.187l-0.223-2.026c-0.024-0.184-0.122-0.35-0.27-0.461l-0.389-0.272V2.789z M19.898,2.534
			c-0.053,0.158-0.11,0.325-0.168,0.495l-1.677-0.224l-0.019-0.068C18.645,2.639,19.267,2.57,19.898,2.534z"/>
		<path class="st1" d="M40.655,22.757v-0.084v-3.899v-0.239v-3.793c0-0.009-0.002-0.018-0.003-0.027
			c0.001-0.02,0.003-0.039,0.003-0.059c0-2.262-6.732-2.328-7.5-2.328s-7.5,0.065-7.5,2.328c0,0.02,0.002,0.039,0.003,0.059
			c0,0.009-0.003,0.018-0.003,0.027v3.793v0.239v3.899v0.084v4.046c0,2.276,6.732,2.342,7.5,2.342s7.5-0.066,7.5-2.342V22.757z
			 M39.168,14.655c-0.573,0.378-2.634,0.948-6.012,0.948c-3.378,0-5.44-0.57-6.012-0.948c0.573-0.378,2.634-0.948,6.012-0.948
			C36.534,13.707,38.595,14.277,39.168,14.655z M27.034,24.227c0.695,0.289,1.573,0.483,2.449,0.612l0.761-1.28
			c-1.87-0.222-2.963-0.625-3.21-0.885v-2.43c0.818,0.341,1.892,0.549,2.916,0.675l-0.704-1.157l-0.229-0.376
			c-1.124-0.22-1.796-0.499-1.983-0.695v-2.574c2.012,0.833,5.575,0.866,6.121,0.866c0.546,0,4.108-0.033,6.121-0.866v2.574
			c-0.191,0.2-0.888,0.487-2.059,0.709l-0.218,0.36l-0.707,1.167c1.044-0.126,2.148-0.335,2.985-0.683v2.43
			c-0.25,0.263-1.37,0.673-3.285,0.893l0.771,1.281c0.898-0.129,1.803-0.325,2.515-0.621v2.493
			c-0.355,0.373-2.465,1.045-6.121,1.045c-3.656,0-5.766-0.672-6.121-1.045V24.227z"/>
		<polygon class="st1" points="29.998,25.961 31.606,25.961 31.613,25.948 31.619,25.948 33.062,23.405 34.56,25.948 34.573,25.948 
			34.58,25.961 36.254,25.961 34.15,22.464 36.114,19.224 36.114,19.224 36.151,19.163 34.542,19.163 33.177,21.51 31.775,19.163 
			30.101,19.163 30.138,19.224 30.13,19.224 32.088,22.443 		"/>
	</g>
</g>
</svg>
