<svg id="Layer_1" data-name="Layer 1" xmlns="http://www.w3.org/2000/svg" viewBox="0 0 27.5 40"><metadata><?xpacket begin="﻿" id="W5M0MpCehiHzreSzNTczkc9d"?>
<x:xmpmeta xmlns:x="adobe:ns:meta/" x:xmptk="Adobe XMP Core 6.0-c006 79.164648, 2021/01/12-15:52:29        ">
   <rdf:RDF xmlns:rdf="http://www.w3.org/1999/02/22-rdf-syntax-ns#">
      <rdf:Description rdf:about=""
            xmlns:dc="http://purl.org/dc/elements/1.1/"
            xmlns:xmp="http://ns.adobe.com/xap/1.0/"
            xmlns:xmpMM="http://ns.adobe.com/xap/1.0/mm/"
            xmlns:stEvt="http://ns.adobe.com/xap/1.0/sType/ResourceEvent#">
         <dc:subject>
            <rdf:Bag>
               <rdf:li>RAC</rdf:li>
               <rdf:li>2-node</rdf:li>
               <rdf:li>database</rdf:li>
               <rdf:li>two servers</rdf:li>
               <rdf:li>icon</rdf:li>
               <rdf:li>database</rdf:li>
               <rdf:li>server</rdf:li>
               <rdf:li>technology</rdf:li>
               <rdf:li>automatic storage management</rdf:li>
               <rdf:li>disk</rdf:li>
               <rdf:li>group</rdf:li>
               <rdf:li>administration</rdf:li>
               <rdf:li>server</rdf:li>
               <rdf:li>platform</rdf:li>
            </rdf:Bag>
         </dc:subject>
         <xmp:MetadataDate>2022-12-16T08:39:14-06:00</xmp:MetadataDate>
         <xmpMM:InstanceID>xmp.iid:a7d7e6b4-3046-45eb-b4c7-8ee4409233f4</xmpMM:InstanceID>
         <xmpMM:DocumentID>xmp.did:28caf8e9-cb10-47a2-ab92-b47643459755</xmpMM:DocumentID>
         <xmpMM:OriginalDocumentID>xmp.did:28caf8e9-cb10-47a2-ab92-b47643459755</xmpMM:OriginalDocumentID>
         <xmpMM:History>
            <rdf:Seq>
               <rdf:li>
                  <rdf:Description>
                     <stEvt:action>saved</stEvt:action>
                     <stEvt:instanceID>xmp.iid:28caf8e9-cb10-47a2-ab92-b47643459755</stEvt:instanceID>
                     <stEvt:when>2022-12-16T08:38:32-06:00</stEvt:when>
                     <stEvt:softwareAgent>Adobe Bridge 2021 (Macintosh)</stEvt:softwareAgent>
                     <stEvt:changed>/metadata</stEvt:changed>
                  </rdf:Description>
               </rdf:li>
               <rdf:li>
                  <rdf:Description>
                     <stEvt:action>saved</stEvt:action>
                     <stEvt:instanceID>xmp.iid:a7d7e6b4-3046-45eb-b4c7-8ee4409233f4</stEvt:instanceID>
                     <stEvt:when>2022-12-16T08:39:14-06:00</stEvt:when>
                     <stEvt:softwareAgent>Adobe Bridge 2021 (Macintosh)</stEvt:softwareAgent>
                     <stEvt:changed>/metadata</stEvt:changed>
                  </rdf:Description>
               </rdf:li>
            </rdf:Seq>
         </xmpMM:History>
      </rdf:Description>
   </rdf:RDF>
</x:xmpmeta>
                                                                                                    
                                                                                                    
                                                                                                    
                                                                                                    
                                                                                                    
                                                                                                    
                                                                                                    
                                                                                                    
                                                                                                    
                                                                                                    
                                                                                                    
    
<?xpacket end="w"?></metadata>
<path d="M7.69,33.28H20V37c0,.82-2.76,1.48-6.15,1.48S7.69,37.8,7.69,37Z" fill="#fff"/><path d="M7.69,29.56H20v3.79c0,.82-2.76,1.48-6.15,1.48s-6.16-.66-6.16-1.48Z" fill="#fff"/><path d="M7.69,26.16H20v3.62c0,.82-2.76,1.48-6.15,1.48s-6.16-.66-6.16-1.48Z" fill="#fff"/><ellipse cx="13.85" cy="26.08" rx="6.15" ry="1.47" fill="#fff"/><path d="M8.62,2.15H2.15V16.46H8.62ZM5.46,14.46a.61.61,0,0,1-.61-.61.61.61,0,0,1,.61-.62.62.62,0,0,1,.62.62A.61.61,0,0,1,5.46,14.46ZM7.69,9.85H3.08V8.62H7.69Zm0-2.47H3.08V6.15H7.69Zm0-2.46H3.08V3.69H7.69Z" fill="none"/><path d="M8.3,31.09v.79h0v1.39c.32.33,2.23.94,5.54.94s5.19-.6,5.53-.93v-.62h0V31.1a18.06,18.06,0,0,1-5.53.78A18,18,0,0,1,8.3,31.09Z" fill="none"/><path d="M8.41,26.08c.51.34,2.38.86,5.44.86s4.92-.52,5.44-.86c-.52-.34-2.38-.85-5.44-.85S8.92,25.74,8.41,26.08Z" fill="none"/><path d="M8.3,34.65v.87h0v1.39c.32.33,2.23.94,5.54.94s5.21-.61,5.53-.94V34.65a17.84,17.84,0,0,1-5.53.79A18,18,0,0,1,8.3,34.65Z" fill="none"/><path d="M18.34,27.72a20.13,20.13,0,0,1-4.49.45,20.22,20.22,0,0,1-4.5-.45,6.93,6.93,0,0,1-1-.32v.92h0v1.39c.32.34,2.23.94,5.54.94s5.19-.59,5.53-.93V29h0V27.4A6.45,6.45,0,0,1,18.34,27.72Z" fill="none"/><path d="M18.88,16.46h6.47V2.15H18.88Zm3.16-2a.61.61,0,0,1-.62-.61.62.62,0,0,1,.62-.62.61.61,0,0,1,.61.62A.61.61,0,0,1,22,14.46ZM19.81,3.69h4.61V4.92H19.81Zm0,2.46h4.61V7.38H19.81Zm0,2.47h4.61V9.85H19.81Z" fill="none"/><path d="M9.23,35.9v.45a14.68,14.68,0,0,0,4.62.57,14.65,14.65,0,0,0,4.61-.57V35.9a22.48,22.48,0,0,1-4.61.46A22.51,22.51,0,0,1,9.23,35.9Z" fill="none"/><path d="M9.23,28.64v.52a14.68,14.68,0,0,0,4.62.57,14.62,14.62,0,0,0,4.6-.57v-.52a21.38,21.38,0,0,1-4.6.45A21.51,21.51,0,0,1,9.23,28.64Z" fill="none"/><path d="M9.23,32.35v.37a15,15,0,0,0,4.62.57,14.62,14.62,0,0,0,4.6-.57v-.37a23.16,23.16,0,0,1-4.6.46A23.27,23.27,0,0,1,9.23,32.35Z" fill="none"/><path d="M17.65,16.46v1.23h3.7v2.46H15.58a1.84,1.84,0,0,0-3.47,0h-6V17.69h3.7V.92H.92V17.69h4v3.69h7.19a1.83,1.83,0,0,0,1.14,1.13V24a18.74,18.74,0,0,0-3.9.44c-1.52.36-2.27.89-2.27,1.63h0V37c0,2,6.07,2.1,6.77,2.1S20.62,39,20.62,37V26.08h0c0-.74-.75-1.27-2.27-1.63A19.1,19.1,0,0,0,14.48,24V22.5a1.89,1.89,0,0,0,1.11-1.12h7V17.69h4V.92H17.65Zm-15.5,0V2.15H8.62V16.46Zm11.08,4.31a.62.62,0,0,1,.62-.62.61.61,0,0,1,.61.62.61.61,0,0,1-.61.61A.61.61,0,0,1,13.23,20.77Zm6.15,16.14c-.32.33-2.22.94-5.53.94s-5.22-.61-5.54-.94V35.52h0v-.87a18,18,0,0,0,5.55.79,17.84,17.84,0,0,0,5.53-.79Zm0-4.25h0v.62c-.34.33-2.25.93-5.53.93s-5.22-.61-5.54-.94V31.88h0v-.79a18,18,0,0,0,5.55.79,18.06,18.06,0,0,0,5.53-.78Zm0-3.64h0v.7c-.34.34-2.25.93-5.53.93s-5.22-.6-5.54-.94V28.32h0V27.4a6.93,6.93,0,0,0,1,.32,20.22,20.22,0,0,0,4.5.45,20.13,20.13,0,0,0,4.49-.45,6.45,6.45,0,0,0,1-.32Zm-.09-2.94c-.52.34-2.38.86-5.44.86s-4.93-.52-5.44-.86c.51-.34,2.38-.85,5.44-.85S18.77,25.74,19.29,26.08ZM18.88,2.15h6.47V16.46H18.88Z" fill="#2c5a67"/><path d="M26.58,0H16.73V18.62h3.69v.61H16.15a2.77,2.77,0,0,0-4.6,0H7.08v-.61h3.69V0H0V18.62H4v3.69h7.55a2.73,2.73,0,0,0,.78.77v0a18.26,18.26,0,0,0-3.19.43c-.73.17-2.91.69-3,2.44V37c0,1.37,1.31,2.29,3.9,2.72a24.15,24.15,0,0,0,7.59,0c2.59-.43,3.9-1.35,3.9-2.72V26h0c-.08-1.76-2.26-2.28-3-2.45a18.89,18.89,0,0,0-3.15-.43v-.06a2.82,2.82,0,0,0,.75-.75H23.5V18.62h4V0Zm0,16.46v1.23h-4v3.69h-7a1.89,1.89,0,0,1-1.11,1.12V24a19.1,19.1,0,0,1,3.86.44c1.52.36,2.27.89,2.27,1.63h0V37c0,2-6.08,2.1-6.77,2.1S7.08,39,7.08,37V26.08h0c0-.74.75-1.27,2.27-1.63a18.74,18.74,0,0,1,3.9-.44v-1.5a1.83,1.83,0,0,1-1.14-1.13H4.92V17.69h-4V.92H9.85V17.69H6.15v2.46h6a1.84,1.84,0,0,1,3.47,0h5.77V17.69h-3.7V.92h8.93Z" fill="#fff"/><path d="M8.3,31.09v.79h0v1.39c.32.33,2.23.94,5.54.94s5.19-.6,5.53-.93v-.62h0V31.1a18.06,18.06,0,0,1-5.53.78A18,18,0,0,1,8.3,31.09Z" fill="#fff"/><path d="M25.35,2.15H18.88V16.46h6.47Z" fill="#fff"/><path d="M13.85,28.17a20.22,20.22,0,0,1-4.5-.45,6.93,6.93,0,0,1-1-.32v.92h0v1.39c.32.34,2.23.94,5.54.94s5.19-.59,5.53-.93V29h0V27.4a6.45,6.45,0,0,1-1,.32A20.13,20.13,0,0,1,13.85,28.17Z" fill="#fff"/><path d="M8.62,2.15H2.15V16.46H8.62Z" fill="#fff"/><path d="M8.3,34.65v.87h0v1.39c.32.33,2.23.94,5.54.94s5.21-.61,5.53-.94V34.65a17.84,17.84,0,0,1-5.53.79A18,18,0,0,1,8.3,34.65Z" fill="#fff"/><path d="M8.41,26.08c.51.34,2.38.86,5.44.86s4.92-.52,5.44-.86c-.52-.34-2.38-.85-5.44-.85S8.92,25.74,8.41,26.08Z" fill="#fff"/><circle cx="13.85" cy="20.77" r="0.62" fill="#fff"/><rect x="19.81" y="3.69" width="4.62" height="1.23" fill="#2c5a67"/><circle cx="22.04" cy="13.85" r="0.62" fill="#2c5a67"/><rect x="19.81" y="6.15" width="4.62" height="1.23" fill="#2c5a67"/><rect x="19.81" y="8.62" width="4.62" height="1.23" fill="#2c5a67"/><rect x="3.08" y="3.69" width="4.62" height="1.23" fill="#2c5a67"/><circle cx="5.46" cy="13.85" r="0.62" fill="#2c5a67"/><rect x="3.08" y="6.15" width="4.62" height="1.23" fill="#2c5a67"/><rect x="3.08" y="8.62" width="4.62" height="1.23" fill="#2c5a67"/><circle cx="13.85" cy="20.77" r="0.62" fill="#fff"/></svg>