<?xml version="1.0" encoding="UTF-8"?>
<svg id="Layer_1" data-name="Layer 1" xmlns="http://www.w3.org/2000/svg" viewBox="0 0 39.5 42.41">
  <metadata><?xpacket begin="﻿" id="W5M0MpCehiHzreSzNTczkc9d"?>
<x:xmpmeta xmlns:x="adobe:ns:meta/" x:xmptk="Adobe XMP Core 7.1-c000 79.4d2f597, 2021/09/01-20:51:22        ">
   <rdf:RDF xmlns:rdf="http://www.w3.org/1999/02/22-rdf-syntax-ns#">
      <rdf:Description rdf:about=""
            xmlns:dc="http://purl.org/dc/elements/1.1/"
            xmlns:xmpRights="http://ns.adobe.com/xap/1.0/rights/"
            xmlns:xmp="http://ns.adobe.com/xap/1.0/"
            xmlns:xmpMM="http://ns.adobe.com/xap/1.0/mm/"
            xmlns:stEvt="http://ns.adobe.com/xap/1.0/sType/ResourceEvent#">
         <dc:rights>
            <rdf:Alt>
               <rdf:li xml:lang="x-default">Oracle All Rights</rdf:li>
            </rdf:Alt>
         </dc:rights>
         <dc:subject>
            <rdf:Bag>
               <rdf:li>arrow</rdf:li>
               <rdf:li>cycle</rdf:li>
               <rdf:li>database</rdf:li>
               <rdf:li>data</rdf:li>
               <rdf:li>lock</rdf:li>
               <rdf:li>security</rdf:li>
               <rdf:li>icon</rdf:li>
            </rdf:Bag>
         </dc:subject>
         <xmpRights:Marked>True</xmpRights:Marked>
         <xmp:MetadataDate>2024-07-05T18:09:40-06:00</xmp:MetadataDate>
         <xmpMM:InstanceID>xmp.iid:e8cc706e-753b-45d0-804c-aba300c7484c</xmpMM:InstanceID>
         <xmpMM:DocumentID>xmp.did:d4399754-0785-48e8-879a-d90e049729af</xmpMM:DocumentID>
         <xmpMM:OriginalDocumentID>xmp.did:d4399754-0785-48e8-879a-d90e049729af</xmpMM:OriginalDocumentID>
         <xmpMM:History>
            <rdf:Seq>
               <rdf:li>
                  <rdf:Description>
                     <stEvt:action>saved</stEvt:action>
                     <stEvt:instanceID>xmp.iid:d4399754-0785-48e8-879a-d90e049729af</stEvt:instanceID>
                     <stEvt:when>2024-07-05T18:05:08-06:00</stEvt:when>
                     <stEvt:softwareAgent>Adobe Bridge 2023</stEvt:softwareAgent>
                     <stEvt:changed>/metadata</stEvt:changed>
                  </rdf:Description>
               </rdf:li>
               <rdf:li>
                  <rdf:Description>
                     <stEvt:action>saved</stEvt:action>
                     <stEvt:instanceID>xmp.iid:e8cc706e-753b-45d0-804c-aba300c7484c</stEvt:instanceID>
                     <stEvt:when>2024-07-05T18:09:40-06:00</stEvt:when>
                     <stEvt:softwareAgent>Adobe Bridge 2023</stEvt:softwareAgent>
                     <stEvt:changed>/metadata</stEvt:changed>
                  </rdf:Description>
               </rdf:li>
            </rdf:Seq>
         </xmpMM:History>
      </rdf:Description>
   </rdf:RDF>
</x:xmpmeta>
                                                                                                    
                                                                                                    
                                                                                                    
                                                                                                    
                                                                                                    
                                                                                                    
                                                                                                    
                                                                                                    
                                                                                                    
                                                                                                    
                                                                                                    
                                                                                
<?xpacket end="w"?></metadata>
<defs>
    <style>
      .cls-1 {
        fill: #fff;
      }

      .cls-2 {
        fill: #2d5967;
      }
    </style>
  </defs>
  <g>
    <path class="cls-1" d="m38.5,21.66h-2.56v1c0,8.93-7.26,16.19-16.19,16.19S3.56,31.59,3.56,22.66c0-7.9,5.35-14.32,12.81-15.85l.6.6,1.11,1.11.71.71.71-.71,3.2-3.2.71-.71-.71-.71-3.2-3.2-.71-.71-.71.71-1.11,1.11-.71.71.59.59C7.24,4.52,0,12.72,0,22.66c0,10.71,9.04,19.75,19.75,19.75s19.75-8.86,19.75-19.75v-1h-1Z"/>
    <path class="cls-1" d="m31.54,13.87v17.6c0,2.41-3.24,3.18-4.3,3.43-2,.49-4.66.75-7.49.75s-5.46-.26-7.48-.75c-1.06-.26-4.3-1.05-4.3-3.43V13.87c0-3.93,9.02-4.24,11.78-4.24s11.79.31,11.79,4.24Z"/>
  </g>
  <g>
    <path class="cls-2" d="m36.94,22.66c0,9.49-7.71,17.19-17.19,17.19S2.56,32.14,2.56,22.66,9.81,5.95,18.89,5.5l-1.21,1.21,1.11,1.11,3.2-3.2-3.2-3.2-1.11,1.11,1.39,1.39C9.05,4.29,1,12.55,1,22.66s8.42,18.75,18.75,18.75,18.75-8.42,18.75-18.75h-1.56Z"/>
    <path class="cls-2" d="m8.97,13.88v17.6c0,1.07,1.15,1.88,3.54,2.46,1.95.47,4.53.72,7.25.72s5.31-.25,7.25-.72c2.38-.57,3.54-1.37,3.54-2.46V13.88c0-2.56-6.78-3.24-10.78-3.24s-10.78.68-10.78,3.24h0Zm20,6.04c-.2.29-1.33.82-3.46,1.21v1.58c.53-.08,1.02-.18,1.48-.29.78-.2,1.45-.41,1.97-.64v3.87c-.2.29-1.33.82-3.46,1.21v1.58c.53-.08,1.02-.18,1.48-.29.78-.2,1.45-.41,1.97-.64v3.95c-.31.51-3.32,1.66-9.22,1.66s-8.91-1.15-9.22-1.66v-3.95c.53.23,1.17.45,1.97.64.47.12.96.21,1.48.29v-1.58c-2.13-.37-3.26-.9-3.46-1.21v-3.87c.53.23,1.17.45,1.97.64.47.12.96.21,1.5.29v-1.58c-2.13-.37-3.28-.92-3.46-1.21v-4.22c2.25,1.09,6.41,1.43,9.22,1.43s6.97-.33,9.22-1.43v4.22h-.02Zm-.02-6.04c-.33.43-2.99,1.68-9.2,1.68s-8.87-1.25-9.2-1.68c.33-.43,2.99-1.68,9.2-1.68s8.87,1.25,9.2,1.68Z"/>
    <path class="cls-2" d="m18.99,18.6c-1.54.31-2.66,1.72-2.66,3.34v.66h-1.17v8.01h9.18v-8.01h-1.37v-.76c0-1-.45-1.93-1.23-2.58-.78-.62-1.78-.88-2.75-.68v.02Zm3.79,5.57v4.88h-6.05v-4.88h6.05Zm-1.37-2.3v.76h-3.52v-.66c0-.88.59-1.64,1.41-1.82.53-.1,1.04.02,1.45.37.41.33.66.84.66,1.37v-.02Z"/>
    <path class="cls-2" d="m19.14,26.84l-.2,1.23h1.29l-.18-1.23c.29-.16.51-.49.51-.84,0-.53-.43-.96-.96-.96s-.14,0-.21.02c-.37.08-.66.37-.74.74-.08.45.14.84.49,1.04h0Z"/>
  </g>
</svg>