<svg id="Layer_1" data-name="Layer 1" xmlns="http://www.w3.org/2000/svg" viewBox="0 0 42.36 42"><defs><style>.cls-1{fill:#fff;}.cls-2{fill:#2c5967;}</style></defs><title>Autonomous Oracle Machine Learning with REST</title><metadata><?xpacket begin="﻿" id="W5M0MpCehiHzreSzNTczkc9d"?>
<x:xmpmeta xmlns:x="adobe:ns:meta/" x:xmptk="Adobe XMP Core 6.0-c006 79.164648, 2021/01/12-15:52:29        ">
   <rdf:RDF xmlns:rdf="http://www.w3.org/1999/02/22-rdf-syntax-ns#">
      <rdf:Description rdf:about=""
            xmlns:xmpRights="http://ns.adobe.com/xap/1.0/rights/"
            xmlns:xmp="http://ns.adobe.com/xap/1.0/"
            xmlns:xmpMM="http://ns.adobe.com/xap/1.0/mm/"
            xmlns:stEvt="http://ns.adobe.com/xap/1.0/sType/ResourceEvent#"
            xmlns:dc="http://purl.org/dc/elements/1.1/"
            xmlns:lr="http://ns.adobe.com/lightroom/1.0/">
         <xmpRights:Marked>True</xmpRights:Marked>
         <xmp:MetadataDate>2021-07-22T15:28:19-05:00</xmp:MetadataDate>
         <xmpMM:InstanceID>xmp.iid:65e5c7e4-ecfe-4969-aef0-6984f6c7a555</xmpMM:InstanceID>
         <xmpMM:DocumentID>xmp.did:618f9e54-1417-440d-81ac-282a622a39a4</xmpMM:DocumentID>
         <xmpMM:OriginalDocumentID>xmp.did:618f9e54-1417-440d-81ac-282a622a39a4</xmpMM:OriginalDocumentID>
         <xmpMM:History>
            <rdf:Seq>
               <rdf:li>
                  <rdf:Description>
                     <stEvt:action>saved</stEvt:action>
                     <stEvt:instanceID>xmp.iid:618f9e54-1417-440d-81ac-282a622a39a4</stEvt:instanceID>
                     <stEvt:when>2021-06-23T15:53:56-05:00</stEvt:when>
                     <stEvt:softwareAgent>Adobe Bridge 2021 (Macintosh)</stEvt:softwareAgent>
                     <stEvt:changed>/metadata</stEvt:changed>
                  </rdf:Description>
               </rdf:li>
               <rdf:li>
                  <rdf:Description>
                     <stEvt:action>saved</stEvt:action>
                     <stEvt:instanceID>xmp.iid:65e5c7e4-ecfe-4969-aef0-6984f6c7a555</stEvt:instanceID>
                     <stEvt:when>2021-07-22T15:28:19-05:00</stEvt:when>
                     <stEvt:softwareAgent>Adobe Bridge 2021 (Macintosh)</stEvt:softwareAgent>
                     <stEvt:changed>/metadata</stEvt:changed>
                  </rdf:Description>
               </rdf:li>
            </rdf:Seq>
         </xmpMM:History>
         <dc:title>
            <rdf:Alt>
               <rdf:li xml:lang="x-default">Autonomous Oracle Machine Learning with REST</rdf:li>
            </rdf:Alt>
         </dc:title>
         <dc:rights>
            <rdf:Alt>
               <rdf:li xml:lang="x-default">Oracle All Rights Reserved</rdf:li>
            </rdf:Alt>
         </dc:rights>
         <dc:subject>
            <rdf:Bag>
               <rdf:li>icon</rdf:li>
               <rdf:li>Autonomous</rdf:li>
               <rdf:li>REST</rdf:li>
               <rdf:li>Machine</rdf:li>
               <rdf:li>Learning</rdf:li>
               <rdf:li>technology</rdf:li>
               <rdf:li>OML</rdf:li>
            </rdf:Bag>
         </dc:subject>
         <lr:hierarchicalSubject>
            <rdf:Bag>
               <rdf:li>icon</rdf:li>
               <rdf:li>Autonomous</rdf:li>
               <rdf:li>REST</rdf:li>
               <rdf:li>Machine</rdf:li>
               <rdf:li>Learning</rdf:li>
               <rdf:li>technology</rdf:li>
               <rdf:li>Other Keywords|OML</rdf:li>
            </rdf:Bag>
         </lr:hierarchicalSubject>
      </rdf:Description>
   </rdf:RDF>
</x:xmpmeta>
                                                                                                    
                                                                                                    
                                                                                                    
                                                                                                    
                                                                                                    
                                  
<?xpacket end="w"?></metadata>
<path class="cls-1" d="M26.16,41.5a7.55,7.55,0,0,1-.83,0h-.07a7.27,7.27,0,0,1-1.05-.2l-.16-.05,0-.51-.15.48-.19-.06-.46-.18-.45-.21-.44-.23-.24-.15L22,40.2a7,7,0,0,1-1-.78l-.28-.28,0,0-.3-.34L20,38.3,19.8,38l-.28-.46.08,0-.42-1.1L15.84,33V.5h26V14.71H28.31l.25.33a6.52,6.52,0,0,1,1,3.39c0,.12,0,.25,0,.38a6.61,6.61,0,0,1,.35,8.08h0s-.13.21-.32.47a7.39,7.39,0,0,1,2.7,2.29l.27.41.74,1.72,3,3-1.77,1.77-1-1v0c0,.06,0,.17-.07.29a7.49,7.49,0,0,1-6,5.51,6.65,6.65,0,0,1-.78.09h-.49Z"/><path class="cls-1" d="M41.36,1V14.21h-14l.86,1.13A6.14,6.14,0,0,1,29,18.43,5.21,5.21,0,0,1,29,19a6.1,6.1,0,0,1,.46,7.62,7,7,0,0,1-.7.94,7.08,7.08,0,0,1,3.08,2.4h0l.07.11h0a2.75,2.75,0,0,1,.19.28h0l.73,1.73.07.07.42.42,2.26,2.26-1.07,1.06L33.12,34.5h0c0,.07,0,.14,0,.2h0v0h0c0,.23-.06.46-.1.68h0c0,.11,0,.22-.07.33h0a7,7,0,0,1-5.57,5.13,6,6,0,0,1-.74.08h-.45a6.81,6.81,0,0,1-.78,0h0a7.07,7.07,0,0,1-1-.19l-.21-.07h0l-.23-.07h0a2.34,2.34,0,0,1-.24-.09h0l-.19-.07-.25-.11-.17-.08h0l-.24-.13h0l-.17-.09h0l-.22-.13-.18-.12a6.4,6.4,0,0,1-.91-.74h0L21,38.76h0c-.1-.1-.19-.21-.28-.32l0,0h0c-.1-.12-.2-.25-.29-.38l-.06-.09c-.05-.07-.1-.14-.14-.21h0l-.62-1.62-3-3-.28-.28V1h25m1-1h-27V33.24l.3.29.27.27,2.84,2.84.31.82-.1.1.42.68.12.18,0,.06.07.11.33.43,0,0,.31.36.34.35a8.78,8.78,0,0,0,1.05.84l.2.13.26.16.19.11.27.14.2.1.28.12.2.08.3.11.22.07.09,0,.2.06a8.65,8.65,0,0,0,1.17.22c.33,0,.62,0,.9,0h.49a7.7,7.7,0,0,0,.87-.1,8,8,0,0,0,6.21-5.35l.05,0,.71.71.71-.71,1.06-1.07.71-.7-.71-.71L34,31.84l-.35-.35L33,29.94l0-.1-.05-.07c-.06-.1-.13-.19-.2-.29l-.08-.12a8,8,0,0,0-2.37-2.18l0,0A7.12,7.12,0,0,0,30,18.64v-.21a7.08,7.08,0,0,0-.78-3.22H42.36V0Z"/><path class="cls-1" d="M13,37.23a6.58,6.58,0,0,1-5.56-3A6.67,6.67,0,0,1,2,27.7c0-.12,0-.24,0-.36a6.63,6.63,0,0,1,0-8.53c0-.13,0-.26,0-.38a6.66,6.66,0,0,1,5.47-6.52,6.79,6.79,0,0,1,3.26-2.58A6.35,6.35,0,0,1,13,8.92h.21a2.56,2.56,0,0,1,2.47,2.57V34.66a2.59,2.59,0,0,1-2.5,2.57Z"/><path class="cls-1" d="M13,9.42h.19a2.06,2.06,0,0,1,2,2.07V34.66a2.08,2.08,0,0,1-2,2.07H13a6.1,6.1,0,0,1-5.25-3A6.17,6.17,0,0,1,2.54,27.7a5,5,0,0,1,0-.53,6.13,6.13,0,0,1,0-8.19,5.21,5.21,0,0,1,0-.55,6.17,6.17,0,0,1,5.27-6.07A6.19,6.19,0,0,1,11,9.8,5.79,5.79,0,0,1,13,9.42m0-1a7,7,0,0,0-2.43.44,7.22,7.22,0,0,0-3.38,2.59,7.18,7.18,0,0,0-5.68,7,1.48,1.48,0,0,0,0,.21,7.12,7.12,0,0,0,0,8.87,1.21,1.21,0,0,0,0,.19,7.18,7.18,0,0,0,5.63,7A7.07,7.07,0,0,0,13,37.73h.19a3.09,3.09,0,0,0,3-3.07V11.49a3.06,3.06,0,0,0-3-3.07Z"/><path class="cls-2" d="M17.85,30.63V23.86h5.61a2.27,2.27,0,1,0,0-1.51H17.85V20.28h4.37l.63-.64a2.17,2.17,0,0,0,1,.26,2.27,2.27,0,1,0-2.07-1.36l-.22.23H17.85v-3.4H16.34v16.7Zm7.74-8.28a.76.76,0,1,1-.75.76A.75.75,0,0,1,25.59,22.35Zm-1.7-5.47a.76.76,0,1,1-.75.75A.76.76,0,0,1,23.89,16.88Z"/><path class="cls-2" d="M27.5,18.46a4.59,4.59,0,0,1-.05.7l-.06.38.27.27a4.61,4.61,0,0,1,.26,6.32,8.46,8.46,0,0,1,1.52.5,6,6,0,0,0,1.12-3.52A6.12,6.12,0,0,0,29,19c0-.19,0-.37,0-.55a6.14,6.14,0,0,0-.84-3.09H26.31A4.61,4.61,0,0,1,27.5,18.46Z"/><path class="cls-2" d="M24.87,27.19h0Z"/><path class="cls-2" d="M16.34,14.24h25V1h-25ZM39.85,2.54V12.73h-22V2.54Z"/><path class="cls-2" d="M23.31,37.31h1.56l.35-1.53H27l.35,1.53H29L26.9,30H25.41Zm2.19-2.77.63-2.72.62,2.72Z"/><path class="cls-2" d="M27.1,27.13H27l-.35,0h-.52a6.87,6.87,0,0,0-1.38.14h0l-.33.07h0l-.16,0h0l-.48.16h0l-.16.06h0a4.32,4.32,0,0,0-.45.19h0l-.3.15h0c-.15.08-.3.16-.44.25h0l-.12.08h0l-.15.1h0l-.11.08h0l-.15.11h0l-.11.08h0l-.13.11h0a.52.52,0,0,0-.11.1h0a.69.69,0,0,0-.13.11h0a.47.47,0,0,0-.1.1h0l-.23.23h0a.47.47,0,0,1-.1.1h0l-.11.14h0c-.1.11-.2.22-.29.34h0L20.5,30h0l-.07.09h0l-.12.17h0a.22.22,0,0,1,0,.08h0l-.12.2h0l0,0h0a6.86,6.86,0,0,0-.93,3L17.82,32.2l-1.07,1.06,3.18,3.18,3.17-3.18L22,32.2l-1.33,1.32A5.48,5.48,0,0,1,31,31.46l1.1-1.1h0a2.75,2.75,0,0,0-.19-.28h0a.36.36,0,0,0-.07-.1h0A7,7,0,0,0,27.1,27.13Z"/><path class="cls-2" d="M32.38,31.66l-3.17,3.18,1.06,1.06,1.33-1.32a5.48,5.48,0,0,1-10.27,2.06l-1.1,1.1h0l.14.21.06.09c.09.13.19.26.29.38h0l0,0h0c.09.11.18.22.28.32h0l.3.29h0a6.4,6.4,0,0,0,.91.74h0l.18.12h0l.22.14h0l.17.09h0l.24.13h0l.17.08h0l.25.11h0l.19.07h0a2.34,2.34,0,0,0,.24.09h0l.23.08h0l.21.06h0a7.32,7.32,0,0,0,1,.19h0a6.49,6.49,0,0,0,.77.05h.46a6,6,0,0,0,.73-.08h0a7,7,0,0,0,5.57-5.13h0c0-.11,0-.22.07-.33h0c0-.22.08-.45.1-.68h0v0h0c0-.07,0-.14,0-.21h0l1.37,1.37,1.07-1.06L33.3,32.58l-.42-.42Z"/><path class="cls-2" d="M15.21,11.52a2.06,2.06,0,0,0-2-2.07A6,6,0,0,0,11,9.83,6.16,6.16,0,0,0,7.81,12.4a6.15,6.15,0,0,0-5.27,6.06,5.21,5.21,0,0,0,0,.55,6.13,6.13,0,0,0,0,8.19,5,5,0,0,0,0,.53A6.17,6.17,0,0,0,7.78,33.8a6.11,6.11,0,0,0,5.25,3h.16a2.08,2.08,0,0,0,2-2.07V11.52ZM13.15,35.25H13a4.61,4.61,0,0,1-4.11-2.52l-.19-.37-.42,0a4.64,4.64,0,0,1-4.26-4.61,4.48,4.48,0,0,1,.06-.68l.06-.38-.28-.27a4.61,4.61,0,0,1,0-6.59l.27-.27-.06-.38a4.72,4.72,0,0,1-.06-.7,4.64,4.64,0,0,1,4.28-4.6l.41,0,.2-.37a4.74,4.74,0,0,1,2.53-2.22A4.47,4.47,0,0,1,13,11h.14a.56.56,0,0,1,.53.56v7.25H10l-.23-.24a2.45,2.45,0,0,0,.18-.9A2.27,2.27,0,1,0,7.67,19.9a2.33,2.33,0,0,0,1.05-.26l.64.64H13.7v2.07H8.1a2.27,2.27,0,1,0,0,1.51h5.6v1.89H9.36l-.77.76a2.33,2.33,0,0,0-.92-.2,2.27,2.27,0,1,0,2.26,2.27,2.17,2.17,0,0,0-.25-1l.3-.3H13.7v7.43A.56.56,0,0,1,13.15,35.25ZM7.67,18.39a.76.76,0,1,1,.75-.76A.76.76,0,0,1,7.67,18.39Zm-1,4.72A.76.76,0,1,1,6,22.35.76.76,0,0,1,6.72,23.11Zm1.7,5.47a.76.76,0,1,1-.75-.76A.76.76,0,0,1,8.42,28.58Z"/><path class="cls-2" d="M19.86,10.58V5.11H22a2.2,2.2,0,0,1,1.51.46A1.58,1.58,0,0,1,24,6.84a1.62,1.62,0,0,1-.3,1,1.66,1.66,0,0,1-.84.58l1.37,2.17h-1.3l-1.15-2L21,8.43v2.15ZM21,7.66h.57a1.79,1.79,0,0,0,.95-.17.69.69,0,0,0,.27-.62.67.67,0,0,0-.27-.62,1.77,1.77,0,0,0-.95-.18H21Z"/><path class="cls-2" d="M24.82,10.58V5.11h3.56v1H26V7.33h2.16v1H26V9.59h2.46v1Z"/><path class="cls-2" d="M29.13,10.39V9.34a4.72,4.72,0,0,0,1.67.33,1.53,1.53,0,0,0,.74-.16.49.49,0,0,0,.27-.44.42.42,0,0,0-.17-.33A3.05,3.05,0,0,0,31,8.45l-.57-.2a2.25,2.25,0,0,1-1-.62,1.47,1.47,0,0,1-.32-1,1.43,1.43,0,0,1,.26-.88,1.61,1.61,0,0,1,.73-.57A3,3,0,0,1,31.18,5a4.47,4.47,0,0,1,.82.08,3,3,0,0,1,.7.21v1a4.35,4.35,0,0,0-.78-.23A4.07,4.07,0,0,0,31.18,6c-.62,0-.93.18-.93.55a.42.42,0,0,0,.17.34,2.56,2.56,0,0,0,.67.3l.57.19A2.45,2.45,0,0,1,32.71,8,1.54,1.54,0,0,1,33,9a1.44,1.44,0,0,1-.55,1.21,2.36,2.36,0,0,1-1.54.45,5.22,5.22,0,0,1-.67,0,5.92,5.92,0,0,1-.65-.1A2.68,2.68,0,0,1,29.13,10.39Z"/><path class="cls-2" d="M35.11,10.58V6.11H33.5v-1h4.41v1H36.29v4.47Z"/></svg>