<svg id="Layer_1" data-name="Layer 1" xmlns="http://www.w3.org/2000/svg" viewBox="0 0 45.72 42"><defs><style>.cls-1{fill:#fff;}.cls-2{fill:#2c5967;}</style></defs><title>Autonomous Oracle Machine Learning</title><metadata><?xpacket begin="﻿" id="W5M0MpCehiHzreSzNTczkc9d"?>
<x:xmpmeta xmlns:x="adobe:ns:meta/" x:xmptk="Adobe XMP Core 6.0-c006 79.164648, 2021/01/12-15:52:29        ">
   <rdf:RDF xmlns:rdf="http://www.w3.org/1999/02/22-rdf-syntax-ns#">
      <rdf:Description rdf:about=""
            xmlns:xmpRights="http://ns.adobe.com/xap/1.0/rights/"
            xmlns:xmp="http://ns.adobe.com/xap/1.0/"
            xmlns:xmpMM="http://ns.adobe.com/xap/1.0/mm/"
            xmlns:stEvt="http://ns.adobe.com/xap/1.0/sType/ResourceEvent#"
            xmlns:dc="http://purl.org/dc/elements/1.1/"
            xmlns:lr="http://ns.adobe.com/lightroom/1.0/">
         <xmpRights:Marked>True</xmpRights:Marked>
         <xmp:MetadataDate>2021-07-22T15:28:19-05:00</xmp:MetadataDate>
         <xmpMM:InstanceID>xmp.iid:2396d8ce-2f7a-4c89-b626-14c82cd172d4</xmpMM:InstanceID>
         <xmpMM:DocumentID>xmp.did:c4eb51b6-ecac-4702-a746-a9dfbd642b8b</xmpMM:DocumentID>
         <xmpMM:OriginalDocumentID>xmp.did:c4eb51b6-ecac-4702-a746-a9dfbd642b8b</xmpMM:OriginalDocumentID>
         <xmpMM:History>
            <rdf:Seq>
               <rdf:li>
                  <rdf:Description>
                     <stEvt:action>saved</stEvt:action>
                     <stEvt:instanceID>xmp.iid:c4eb51b6-ecac-4702-a746-a9dfbd642b8b</stEvt:instanceID>
                     <stEvt:when>2021-06-23T15:53:56-05:00</stEvt:when>
                     <stEvt:softwareAgent>Adobe Bridge 2021 (Macintosh)</stEvt:softwareAgent>
                     <stEvt:changed>/metadata</stEvt:changed>
                  </rdf:Description>
               </rdf:li>
               <rdf:li>
                  <rdf:Description>
                     <stEvt:action>saved</stEvt:action>
                     <stEvt:instanceID>xmp.iid:2396d8ce-2f7a-4c89-b626-14c82cd172d4</stEvt:instanceID>
                     <stEvt:when>2021-07-22T15:28:19-05:00</stEvt:when>
                     <stEvt:softwareAgent>Adobe Bridge 2021 (Macintosh)</stEvt:softwareAgent>
                     <stEvt:changed>/metadata</stEvt:changed>
                  </rdf:Description>
               </rdf:li>
            </rdf:Seq>
         </xmpMM:History>
         <dc:title>
            <rdf:Alt>
               <rdf:li xml:lang="x-default">Autonomous Oracle Machine Learning</rdf:li>
            </rdf:Alt>
         </dc:title>
         <dc:rights>
            <rdf:Alt>
               <rdf:li xml:lang="x-default">Oracle All Rights Reserved</rdf:li>
            </rdf:Alt>
         </dc:rights>
         <dc:subject>
            <rdf:Bag>
               <rdf:li>icon</rdf:li>
               <rdf:li>Autonomous</rdf:li>
               <rdf:li>Machine</rdf:li>
               <rdf:li>Learning</rdf:li>
               <rdf:li>technology</rdf:li>
               <rdf:li>OML</rdf:li>
            </rdf:Bag>
         </dc:subject>
         <lr:hierarchicalSubject>
            <rdf:Bag>
               <rdf:li>icon</rdf:li>
               <rdf:li>Autonomous</rdf:li>
               <rdf:li>Machine</rdf:li>
               <rdf:li>Learning</rdf:li>
               <rdf:li>technology</rdf:li>
               <rdf:li>Other Keywords|OML</rdf:li>
            </rdf:Bag>
         </lr:hierarchicalSubject>
      </rdf:Description>
   </rdf:RDF>
</x:xmpmeta>
                                                                                                    
                                                                                                    
                                                                                                    
                                                                                                    
                                                                                                    
                                                                                                    
       
<?xpacket end="w"?></metadata>
<path class="cls-1" d="M23,41.5A3.17,3.17,0,0,1,20,38.36V9.09l-.21-.21.34-.37L21.8,6.8l1.38,1.37a9.22,9.22,0,0,1,1.1-3c.16-.28.29-.47.42-.67l.1-.13a9.16,9.16,0,0,1,.69-.85A9.35,9.35,0,0,1,40.17,4.68h.22v.44l.33,1.46L45,10.86,43,12.92l-1.37-1.38a9.35,9.35,0,0,1-4.75,6.52l.55.69A8.28,8.28,0,0,1,37,29a4.18,4.18,0,0,1,0,.5,8.33,8.33,0,0,1-6.83,8.15,8.22,8.22,0,0,1-7,3.81Z"/><path class="cls-1" d="M32.38,1A8.9,8.9,0,0,1,39.9,5.17h0l.38,1.65,4,4L43,12.21l-1-1-.6-.6-.11-.11a8.86,8.86,0,0,1-5.16,7.42h0L37,19.06a7.79,7.79,0,0,1-.48,9.81c0,.23,0,.45,0,.67a7.81,7.81,0,0,1-6.64,7.69A7.75,7.75,0,0,1,23.24,41H23a2.65,2.65,0,0,1-2.56-2.64V8.88l0,0L21.8,7.5l1.74,1.74a8.81,8.81,0,0,1,1.17-3.81h0l0-.07h0c.11-.19.24-.38.36-.56l.09-.12a10,10,0,0,1,.65-.81A8.86,8.86,0,0,1,32.38,1m0-1a9.88,9.88,0,0,0-7.26,3.2,10.47,10.47,0,0,0-.73.89l-.1.14c-.14.2-.27.41-.4.62h0l0,0a9.9,9.9,0,0,0-1,2.28l-.38-.38-.71-.71-.7.71L19.74,8.15l-.7.71.43.43V38.36A3.67,3.67,0,0,0,23,42h.24a8.7,8.7,0,0,0,7.27-3.86,8.83,8.83,0,0,0,7-8.6c0-.11,0-.22,0-.33a8.77,8.77,0,0,0,.26-10.74l-.21-.27a9.81,9.81,0,0,0,4.28-5.67l.39.39.7.7.71-.7L45,11.56l.71-.7L45,10.15,41.19,6.32,40.87,5l0-.11-.05-.11,0-.06,0,0A9.94,9.94,0,0,0,32.38,0Z"/><path class="cls-1" d="M16.26,41.5a8.19,8.19,0,0,1-7-3.81,8.33,8.33,0,0,1-6.84-8.15,4.18,4.18,0,0,1,0-.5,8.27,8.27,0,0,1,0-10.74c0-.18,0-.35,0-.52A8.32,8.32,0,0,1,9.34,9.62a8.53,8.53,0,0,1,4.11-3.27,8,8,0,0,1,2.83-.51h.24a3.09,3.09,0,0,1,2.92,2.37,3.29,3.29,0,0,1,.09.76V38.36a3.17,3.17,0,0,1-3.05,3.14Z"/><path class="cls-1" d="M16.28,6.34h.23a2.6,2.6,0,0,1,2.44,2A2.67,2.67,0,0,1,19,9V38.36A2.65,2.65,0,0,1,16.47,41h-.21A7.75,7.75,0,0,1,9.6,37.23,7.82,7.82,0,0,1,3,29.54c0-.22,0-.44,0-.67a7.79,7.79,0,0,1,0-10.4q0-.36,0-.69a7.8,7.8,0,0,1,6.68-7.7,7.92,7.92,0,0,1,4-3.26,7.66,7.66,0,0,1,2.66-.48m0-1a8.69,8.69,0,0,0-3,.54A9,9,0,0,0,9,9.17,8.81,8.81,0,0,0,2,17.78c0,.12,0,.23,0,.35A8.77,8.77,0,0,0,2,29.21c0,.11,0,.22,0,.33a8.83,8.83,0,0,0,7,8.6A8.7,8.7,0,0,0,16.26,42h.24A3.67,3.67,0,0,0,20,38.36V9a3.94,3.94,0,0,0-.11-.89,3.64,3.64,0,0,0-3.38-2.74Z"/><path class="cls-2" d="M36.59,23.67a5.83,5.83,0,0,1-1.76,4.18l-.35.34.07.48a5.76,5.76,0,0,1-5.32,6.71l-.53,0-.25.48a5.85,5.85,0,0,1-5.21,3.18h-.15a.74.74,0,0,1-.71-.72V28.94h4.75l.36.36A2.87,2.87,0,1,0,30,27.74a2.92,2.92,0,0,0-1.15.24l-1-1H22.38V24.63h7.11a2.87,2.87,0,1,0,0-1.92H22.38V20.08h5.54l.66-.66a10.1,10.1,0,0,1-2.27-1.26H22.38V12.82l-1.91-1.91V38.36A2.65,2.65,0,0,0,23,41h.21a7.75,7.75,0,0,0,6.66-3.77,7.82,7.82,0,0,0,6.64-7.69c0-.22,0-.44,0-.67A7.79,7.79,0,0,0,37,19.06a10.42,10.42,0,0,1-1.88.72A5.84,5.84,0,0,1,36.59,23.67Zm-6.55,6a1,1,0,1,1-.95,1A1,1,0,0,1,30,29.65Zm2.16-6.94a1,1,0,1,1-1,1A1,1,0,0,1,32.2,22.71Z"/><polygon class="cls-2" points="20.47 8.88 20.47 8.88 22.38 10.79 22.38 10.79 20.47 8.88"/><path class="cls-2" d="M31.43,4.78,28.76,14h2l.45-1.94h2.29L33.93,14h2L33.32,4.78ZM32.34,7l.79,3.46H31.54Z"/><path class="cls-2" d="M24.48,12.89l4-4L27.15,7.5,25.47,9.19a6.94,6.94,0,0,1,13-2.61l1.4-1.4h0a8.86,8.86,0,0,0-14-1.3h0a10,10,0,0,0-.65.81h0l-.09.12h0c-.12.18-.25.37-.36.56h0l0,.07h0a8.81,8.81,0,0,0-1.17,3.82L21.8,7.5,20.45,8.86l3.08,3.08.33.33Z"/><path class="cls-2" d="M43,12.21l1.36-1.35-4-4-4,4,1.35,1.35,1.69-1.68a6.94,6.94,0,0,1-13,2.61l-1.4,1.4h0l.05.07.09.14.12.18.09.13,0,0a3.25,3.25,0,0,0,.23.29h0a.1.1,0,0,0,0,0h0c.11.14.23.28.35.41h0l.37.38h0l0,0h0a5,5,0,0,0,.42.37h0l.19.16h0l.26.2h0l.25.17L27.19,17h0l.22.15.23.15a2.61,2.61,0,0,0,.28.17l.21.13.31.15.22.11L29,18l.24.09.31.12.28.09.28.08.59.14h0l.49.08h0l.13,0h0l.4,0h0l.48,0H33l.3,0h0l.17,0h0l.27,0h0l.19,0h0l.23,0h0l.2,0h0l.23-.06h0l.12,0,.29-.08.09,0,.35-.12h0a9.44,9.44,0,0,0,1-.45,9.44,9.44,0,0,1-1,.45,8.85,8.85,0,0,0,5.78-7.7l.11.11.6.6ZM27.64,17.33a2.61,2.61,0,0,0,.28.17A2.61,2.61,0,0,1,27.64,17.33Zm.5.3.3.15Zm.52.26L29,18Zm.55.23.31.12Zm.59.21.28.08Zm1.36.3-.49-.08h0l.49.08Zm.54.06-.3,0,.3,0Zm3-.28.29-.08Zm.38-.11.35-.12Z"/><path class="cls-2" d="M19,8.33a2.6,2.6,0,0,0-2.44-2,7.57,7.57,0,0,0-2.89.48,7.92,7.92,0,0,0-4,3.26A7.8,7.8,0,0,0,3,17.78q0,.33,0,.69a7.79,7.79,0,0,0,0,10.4c0,.23,0,.45,0,.67A7.82,7.82,0,0,0,9.6,37.23,7.75,7.75,0,0,0,16.26,41h.21A2.65,2.65,0,0,0,19,38.36V9A2.67,2.67,0,0,0,19,8.33ZM16.41,39.08h-.15a5.85,5.85,0,0,1-5.21-3.18l-.25-.48-.53,0A5.76,5.76,0,0,1,5,28.67L5,28.19l-.35-.34a5.87,5.87,0,0,1,0-8.36L5,19.14,5,18.66a6.09,6.09,0,0,1-.08-.88,5.9,5.9,0,0,1,5.43-5.85l.52,0,.25-.46a6,6,0,0,1,3.22-2.81,5.63,5.63,0,0,1,2-.37h.18a.71.71,0,0,1,.68.71v9.19H12.4l-.31-.3a2.7,2.7,0,0,0,.24-1.13A2.88,2.88,0,1,0,9.46,19.6a2.85,2.85,0,0,0,1.33-.33l.81.81h5.52v2.63H10a2.87,2.87,0,1,0,0,1.92h7.11V27H11.6l-1,1a2.87,2.87,0,1,0,1.7,2.62A2.82,2.82,0,0,0,12,29.32l.38-.38h4.72v9.42A.73.73,0,0,1,16.41,39.08ZM9.46,17.68a1,1,0,1,1,.95-.95A1,1,0,0,1,9.46,17.68Zm-1.2,6a1,1,0,1,1-1-1A1,1,0,0,1,8.26,23.67Zm2.15,6.94a1,1,0,1,1-.95-1A1,1,0,0,1,10.41,30.61Z"/></svg>