<svg id="Layer_1" data-name="Layer 1" xmlns="http://www.w3.org/2000/svg" viewBox="0 0 33.9 42"><defs><style>.cls-1{fill:#fff;}.cls-2{fill:none;}.cls-3{fill:#2c5967;}</style></defs><title>Oracle Machine Learning Services</title><metadata><?xpacket begin="﻿" id="W5M0MpCehiHzreSzNTczkc9d"?>
<x:xmpmeta xmlns:x="adobe:ns:meta/" x:xmptk="Adobe XMP Core 6.0-c006 79.164648, 2021/01/12-15:52:29        ">
   <rdf:RDF xmlns:rdf="http://www.w3.org/1999/02/22-rdf-syntax-ns#">
      <rdf:Description rdf:about=""
            xmlns:xmpRights="http://ns.adobe.com/xap/1.0/rights/"
            xmlns:xmp="http://ns.adobe.com/xap/1.0/"
            xmlns:xmpMM="http://ns.adobe.com/xap/1.0/mm/"
            xmlns:stEvt="http://ns.adobe.com/xap/1.0/sType/ResourceEvent#"
            xmlns:dc="http://purl.org/dc/elements/1.1/"
            xmlns:lr="http://ns.adobe.com/lightroom/1.0/">
         <xmpRights:Marked>True</xmpRights:Marked>
         <xmp:MetadataDate>2021-07-22T15:12:07-05:00</xmp:MetadataDate>
         <xmpMM:InstanceID>xmp.iid:ff67afe3-05f6-4f2e-a90e-77269af298f1</xmpMM:InstanceID>
         <xmpMM:DocumentID>xmp.did:c5e2323e-5a17-4c16-a9ee-386e91825d82</xmpMM:DocumentID>
         <xmpMM:OriginalDocumentID>xmp.did:c5e2323e-5a17-4c16-a9ee-386e91825d82</xmpMM:OriginalDocumentID>
         <xmpMM:History>
            <rdf:Seq>
               <rdf:li>
                  <rdf:Description>
                     <stEvt:action>saved</stEvt:action>
                     <stEvt:instanceID>xmp.iid:c5e2323e-5a17-4c16-a9ee-386e91825d82</stEvt:instanceID>
                     <stEvt:when>2021-06-23T15:54:02-05:00</stEvt:when>
                     <stEvt:softwareAgent>Adobe Bridge 2021 (Macintosh)</stEvt:softwareAgent>
                     <stEvt:changed>/metadata</stEvt:changed>
                  </rdf:Description>
               </rdf:li>
               <rdf:li>
                  <rdf:Description>
                     <stEvt:action>saved</stEvt:action>
                     <stEvt:instanceID>xmp.iid:ff67afe3-05f6-4f2e-a90e-77269af298f1</stEvt:instanceID>
                     <stEvt:when>2021-07-22T15:12:07-05:00</stEvt:when>
                     <stEvt:softwareAgent>Adobe Bridge 2021 (Macintosh)</stEvt:softwareAgent>
                     <stEvt:changed>/metadata</stEvt:changed>
                  </rdf:Description>
               </rdf:li>
            </rdf:Seq>
         </xmpMM:History>
         <dc:title>
            <rdf:Alt>
               <rdf:li xml:lang="x-default">Oracle Machine Learning Services</rdf:li>
            </rdf:Alt>
         </dc:title>
         <dc:rights>
            <rdf:Alt>
               <rdf:li xml:lang="x-default">Oracle All Rights Reserved</rdf:li>
            </rdf:Alt>
         </dc:rights>
         <dc:subject>
            <rdf:Bag>
               <rdf:li>icon</rdf:li>
               <rdf:li>AI</rdf:li>
               <rdf:li>Artificial Intelligence</rdf:li>
               <rdf:li>technology</rdf:li>
               <rdf:li>OML</rdf:li>
            </rdf:Bag>
         </dc:subject>
         <lr:hierarchicalSubject>
            <rdf:Bag>
               <rdf:li>icon</rdf:li>
               <rdf:li>AI</rdf:li>
               <rdf:li>Artificial Intelligence</rdf:li>
               <rdf:li>technology</rdf:li>
               <rdf:li>Other Keywords|OML</rdf:li>
            </rdf:Bag>
         </lr:hierarchicalSubject>
      </rdf:Description>
   </rdf:RDF>
</x:xmpmeta>
                                                                                                    
                                                                                                    
                                                                                                    
                                                                                                    
                                                                                                    
                                                                                                    
                                                                         
<?xpacket end="w"?></metadata>
<path class="cls-1" d="M14.29,27a6.17,6.17,0,0,1-5.2-2.81A6.27,6.27,0,0,1,4,18.08c0-.11,0-.22,0-.33a6.23,6.23,0,0,1,0-8c0-.12,0-.23,0-.34A6.28,6.28,0,0,1,9.12,3.29,6.44,6.44,0,0,1,12.18.88,6.2,6.2,0,0,1,14.3.5h.19a2.43,2.43,0,0,1,2.34,2.44V24.57A2.46,2.46,0,0,1,14.46,27Z"/><path class="cls-1" d="M14.3,1h.17a1.93,1.93,0,0,1,1.86,1.94V24.57a2,2,0,0,1-1.88,1.94h-.16a5.71,5.71,0,0,1-4.9-2.77A5.76,5.76,0,0,1,4.5,18.08a4.32,4.32,0,0,1,0-.5,5.71,5.71,0,0,1,0-7.65,4.63,4.63,0,0,1,0-.51A5.76,5.76,0,0,1,9.42,3.75a5.87,5.87,0,0,1,2.93-2.4,5.73,5.73,0,0,1,2-.35m0-1A6.54,6.54,0,0,0,12,.42,6.84,6.84,0,0,0,8.83,2.84,6.77,6.77,0,0,0,3.5,9.42v.17a6.74,6.74,0,0,0,0,8.33v.16a6.76,6.76,0,0,0,5.29,6.56,6.63,6.63,0,0,0,5.5,2.87h.19a3,3,0,0,0,2.85-2.94V2.94A2.93,2.93,0,0,0,14.51,0Z"/><path class="cls-1" d="M19.26,27a2.46,2.46,0,0,1-2.37-2.44V2.94A2.43,2.43,0,0,1,19.23.5h.19a6.25,6.25,0,0,1,2.13.38A6.47,6.47,0,0,1,24.6,3.29a6.27,6.27,0,0,1,5.12,6.13c0,.11,0,.22,0,.34a6.23,6.23,0,0,1,0,8c0,.11,0,.22,0,.33a6.27,6.27,0,0,1-5.08,6.12A6.2,6.2,0,0,1,19.43,27Z"/><path class="cls-1" d="M19.42,1a5.69,5.69,0,0,1,1.95.35,5.87,5.87,0,0,1,2.93,2.4,5.76,5.76,0,0,1,4.92,5.67c0,.16,0,.33,0,.51a5.74,5.74,0,0,1,0,7.65c0,.17,0,.34,0,.5a5.76,5.76,0,0,1-4.89,5.66,5.69,5.69,0,0,1-4.9,2.77h-.15a2,2,0,0,1-1.89-1.94V2.94A1.93,1.93,0,0,1,19.25,1h.17m0-1h-.2a2.93,2.93,0,0,0-2.83,2.94V24.57a3,3,0,0,0,2.86,2.94h.18a6.66,6.66,0,0,0,5.51-2.87,6.76,6.76,0,0,0,5.28-6.56v-.16a6.74,6.74,0,0,0,0-8.33V9.42A6.77,6.77,0,0,0,24.9,2.84,6.87,6.87,0,0,0,21.72.42,6.5,6.5,0,0,0,19.42,0Z"/><polygon class="cls-1" points="2.29 29.52 0.5 28.62 0.5 27.11 33.4 27.11 33.4 28.62 31.61 29.52 2.29 29.52"/><path class="cls-1" d="M32.9,27.61v.7L31.49,29H2.41L1,28.31v-.7H32.9m1-1H0v2.32l.55.28,1.42.7.21.11H31.72l.21-.11,1.42-.7.55-.28V26.61Z"/><path class="cls-1" d="M18.18,41.5a3.57,3.57,0,0,1-1-.15c-.28-.09-2.41-.67-4.12-1.14l-.19-.05-3.59-1V41.5H1.91V29.57H9.25v.7H9.6s.15-.05.86-.33c.22-.08.41-.16.55-.2a4.85,4.85,0,0,1,1.47-.18,13.1,13.1,0,0,1,1.72.12l.12,0,8.93,2.13L26.69,30a3.48,3.48,0,0,1,1.67-.42,3.55,3.55,0,0,1,3,1.67l0,0,.06.11.78,2.11-.83.52c-7.61,4.75-10,6.21-10.76,6.69l-.23.15A4.61,4.61,0,0,1,18.18,41.5Z"/><path class="cls-1" d="M12.48,30.06a15.84,15.84,0,0,1,1.66.11l.07,0,9.11,2.17,3.6-1.92a3,3,0,0,1,1.44-.36A3,3,0,0,1,31,31.51l0,.06.64,1.73-.48.31c-8.57,5.33-10.49,6.53-11,6.82h0a4.08,4.08,0,0,1-2,.56,3.08,3.08,0,0,1-.88-.13h0L13,39.68c-1.85-.51-3.61-1-4.14-1.15H8.75V41H2.41V30.07H8.75v.7H9.6a8.71,8.71,0,0,0,1-.36c.21-.08.39-.16.52-.2a4.79,4.79,0,0,1,1.32-.15m0-1h0a5.24,5.24,0,0,0-1.63.2l-.58.22-.52.2v-.61H1.41V42H9.75V39.83l3,.81.08,0c1.66.45,3.93,1.07,4.17,1.15a4.07,4.07,0,0,0,1.22.19,5.23,5.23,0,0,0,2.51-.7l.84-.52h0c1.21-.74,3.88-2.4,10.07-6.26l.08,0,.49-.31.7-.43L32.58,33l-.64-1.74,0-.09,0-.09,0-.06a4.07,4.07,0,0,0-5.36-1.42L23.18,31.3l-8.74-2.09h-.12a14,14,0,0,0-1.84-.13Z"/><circle class="cls-2" cx="9.28" cy="18.87" r="0.7"/><circle class="cls-2" cx="26.02" cy="13.76" r="0.7"/><circle class="cls-2" cx="9.28" cy="8.65" r="0.7"/><circle class="cls-2" cx="7.7" cy="13.76" r="0.7"/><circle class="cls-2" cx="24.44" cy="8.65" r="0.7"/><circle class="cls-2" cx="24.44" cy="18.87" r="0.7"/><path class="cls-2" d="M19.32,25.1h.11a4.32,4.32,0,0,0,3.84-2.34l.18-.35.39,0a4.34,4.34,0,0,0,4-4.3,5.27,5.27,0,0,0,0-.64l-.05-.35.25-.26a4.31,4.31,0,0,0,0-6.15l-.26-.26.06-.35a5.57,5.57,0,0,0,0-.65,4.32,4.32,0,0,0-4-4.3l-.39,0-.18-.34a4.38,4.38,0,0,0-2.37-2.07,4,4,0,0,0-1.45-.27H19.3a.53.53,0,0,0-.5.53V9.7h3.49l.21-.21a2.14,2.14,0,0,1-.18-.84,2.13,2.13,0,1,1,1.15,1.87l-.59.59H18.8v1.94H24a2.12,2.12,0,1,1,0,1.41H18.8v1.76h4.08l.71.71a2.19,2.19,0,0,1,.85-.18,2.13,2.13,0,1,1-1.88,1.15l-.27-.27H18.8v6.94A.55.55,0,0,0,19.32,25.1Z"/><path class="cls-2" d="M5.76,16.83l.26.26L6,17.44a5.27,5.27,0,0,0,0,.64,4.34,4.34,0,0,0,4,4.3l.4,0,.18.35a4.3,4.3,0,0,0,3.83,2.34h.11a.54.54,0,0,0,.52-.53V17.63H11.45l-.28.28a2.06,2.06,0,0,1,.23,1,2.12,2.12,0,1,1-2.12-2.12,2.09,2.09,0,0,1,.87.19l.72-.72h4.05V14.46H9.69a2.12,2.12,0,1,1,0-1.41h5.23V11.11H10.87l-.6-.59a2.19,2.19,0,0,1-1,.24,2.11,2.11,0,1,1,2-1.28l.22.22h3.47V2.94a.53.53,0,0,0-.49-.53h-.14a4.13,4.13,0,0,0-1.45.27,4.45,4.45,0,0,0-2.37,2.07l-.18.34-.39,0a4.33,4.33,0,0,0-4,4.3,4.12,4.12,0,0,0,.06.65l0,.35-.26.26a4.31,4.31,0,0,0,0,6.15Z"/><path class="cls-2" d="M9,37.12l.11,0,4.19,1.16c2.51.68,4.06,1.1,4.37,1.2a2.43,2.43,0,0,0,1.73-.28l.1-.06,10.38-6.46-.19-.52a1.65,1.65,0,0,0-2.14-.52l-4.67,2.49-.37.94-.16.12a11.11,11.11,0,0,1-.93.65l-.1,0a4.25,4.25,0,0,1-1.72.5h-.26l-3.45-.61.25-1.39,3.42.6a2.88,2.88,0,0,0,1.17-.37l.05,0,.57-.41.25-.64,0-.15-7.75-1.85a7.53,7.53,0,0,0-2.32,0l-.44.17a6.55,6.55,0,0,1-1.47.46H8.75v4.93Z"/><path class="cls-3" d="M4.53,17.58a4.32,4.32,0,0,0,0,.5,5.76,5.76,0,0,0,4.89,5.66,5.71,5.71,0,0,0,4.9,2.77h.16a2,2,0,0,0,1.88-1.94V2.94A1.93,1.93,0,0,0,14.47,1a5.76,5.76,0,0,0-2.12.35,5.87,5.87,0,0,0-2.93,2.4A5.76,5.76,0,0,0,4.5,9.42a4.63,4.63,0,0,0,0,.51,5.71,5.71,0,0,0,0,7.65Zm1.23-6.9L6,10.42l0-.35a4.12,4.12,0,0,1-.06-.65,4.33,4.33,0,0,1,4-4.3l.39,0,.18-.34a4.45,4.45,0,0,1,2.37-2.07,4.13,4.13,0,0,1,1.45-.27h.14a.53.53,0,0,1,.49.53V9.7H11.45l-.22-.22a2.12,2.12,0,1,0-2,1.28,2.19,2.19,0,0,0,1-.24l.6.59h4.05v1.94H9.69a2.12,2.12,0,1,0,0,1.41h5.23v1.76H10.87l-.72.72a2.09,2.09,0,0,0-.87-.19,2.12,2.12,0,1,0,2.12,2.12,2.06,2.06,0,0,0-.23-1l.28-.28h3.47v6.94a.54.54,0,0,1-.52.53h-.11a4.3,4.3,0,0,1-3.83-2.34l-.18-.35-.4,0a4.34,4.34,0,0,1-4-4.3,5.27,5.27,0,0,1,0-.64L6,17.09l-.26-.26a4.31,4.31,0,0,1,0-6.15Zm4.23-2a.71.71,0,1,1-.71-.71A.71.71,0,0,1,10,8.65ZM8.4,13.76a.7.7,0,0,1-.7.7.71.71,0,1,1,.7-.7ZM10,18.87a.71.71,0,1,1-.71-.71A.71.71,0,0,1,10,18.87Z"/><path class="cls-3" d="M19.28,26.51h.15a5.69,5.69,0,0,0,4.9-2.77,5.76,5.76,0,0,0,4.89-5.66c0-.16,0-.33,0-.5a5.74,5.74,0,0,0,0-7.65c0-.18,0-.35,0-.51A5.76,5.76,0,0,0,24.3,3.75a5.87,5.87,0,0,0-2.93-2.4A5.72,5.72,0,0,0,19.25,1a1.93,1.93,0,0,0-1.86,1.94V24.57A2,2,0,0,0,19.28,26.51Zm-.48-8.88h3.49l.27.27a2.11,2.11,0,1,0,1.88-1.15,2.19,2.19,0,0,0-.85.18l-.71-.71H18.8V14.46H24a2.12,2.12,0,1,0,0-1.41H18.8V11.11h4.08l.59-.59a2.11,2.11,0,1,0-1.15-1.87,2.14,2.14,0,0,0,.18.84l-.21.21H18.8V2.94a.53.53,0,0,1,.5-.53h.13a4,4,0,0,1,1.45.27,4.38,4.38,0,0,1,2.37,2.07l.18.34.39,0a4.32,4.32,0,0,1,4,4.3,5.57,5.57,0,0,1,0,.65l-.06.35.26.26a4.31,4.31,0,0,1,0,6.15l-.25.26.05.35a5.27,5.27,0,0,1,0,.64,4.34,4.34,0,0,1-4,4.3l-.39,0-.18.35a4.32,4.32,0,0,1-3.84,2.34h-.11a.55.55,0,0,1-.52-.53Zm4.93,1.24a.71.71,0,0,1,.71-.71.71.71,0,1,1-.71.71Zm1.59-5.11a.71.71,0,1,1,.7.7A.71.71,0,0,1,25.32,13.76ZM23.73,8.65a.71.71,0,0,1,.71-.71.71.71,0,1,1-.71.71Z"/><polygon class="cls-3" points="1 27.61 1 28.31 2.41 29.02 2.41 29.02 31.49 29.02 31.49 29.02 32.9 28.31 32.9 27.61 1 27.61"/><path class="cls-1" d="M3.82,39.59H7.35V31.48H3.82Zm1.76-2.47a.71.71,0,0,1,.71.71.7.7,0,0,1-.71.7.7.7,0,0,1-.7-.7A.7.7,0,0,1,5.58,37.12Z"/><path class="cls-3" d="M31.64,33.31,31,31.57l0-.06a3.06,3.06,0,0,0-4-1.07l-3.6,1.92-9.11-2.17-.07,0a9.06,9.06,0,0,0-3,0c-.13,0-.31.12-.52.2a8.71,8.71,0,0,1-1,.36H8.75v-.7H2.41V41H8.75V38.53h.08c.53.16,2.29.64,4.14,1.15l4.31,1.18h0a3.08,3.08,0,0,0,.88.13,4.08,4.08,0,0,0,2-.56h0c.5-.29,2.43-1.49,11-6.82ZM7.35,39.59H3.82V31.48H7.35Zm12.19-.41-.1.06a2.43,2.43,0,0,1-1.73.28c-.31-.1-1.86-.52-4.37-1.2L9.15,37.16l-.11,0H8.75V32.19h.94a6.55,6.55,0,0,0,1.47-.46l.44-.17a7.53,7.53,0,0,1,2.32,0l7.75,1.85,0,.15-.25.64-.57.41-.05,0A2.88,2.88,0,0,1,19.6,35l-3.42-.6-.25,1.39,3.45.61h.26a4.25,4.25,0,0,0,1.72-.5l.1,0a11.11,11.11,0,0,0,.93-.65l.16-.12.37-.94,4.67-2.49a1.65,1.65,0,0,1,2.14.52l.19.52Z"/><circle class="cls-3" cx="5.58" cy="37.83" r="0.7"/></svg>