<?xml version="1.0" encoding="UTF-8"?>
<svg id="Layer_1" data-name="Layer 1" xmlns="http://www.w3.org/2000/svg" viewBox="0 0 42 38.8">
  <metadata><?xpacket begin="﻿" id="W5M0MpCehiHzreSzNTczkc9d"?>
<x:xmpmeta xmlns:x="adobe:ns:meta/" x:xmptk="Adobe XMP Core 7.1-c000 79.4d2f597, 2021/09/01-20:51:22        ">
   <rdf:RDF xmlns:rdf="http://www.w3.org/1999/02/22-rdf-syntax-ns#">
      <rdf:Description rdf:about=""
            xmlns:xmpRights="http://ns.adobe.com/xap/1.0/rights/"
            xmlns:dc="http://purl.org/dc/elements/1.1/"
            xmlns:xmp="http://ns.adobe.com/xap/1.0/"
            xmlns:xmpMM="http://ns.adobe.com/xap/1.0/mm/"
            xmlns:stEvt="http://ns.adobe.com/xap/1.0/sType/ResourceEvent#">
         <xmpRights:Marked/>
         <dc:rights>
            <rdf:Alt>
               <rdf:li xml:lang="x-default">Oracle All Rights</rdf:li>
            </rdf:Alt>
         </dc:rights>
         <dc:subject>
            <rdf:Bag>
               <rdf:li>brain</rdf:li>
               <rdf:li>connections artificial</rdf:li>
               <rdf:li>intelligence</rdf:li>
               <rdf:li>icons</rdf:li>
            </rdf:Bag>
         </dc:subject>
         <xmp:MetadataDate>2023-11-09T12:18:16-06:00</xmp:MetadataDate>
         <xmpMM:InstanceID>xmp.iid:9c319569-18f8-5645-8ae3-08f1a4bd6081</xmpMM:InstanceID>
         <xmpMM:DocumentID>xmp.did:9c319569-18f8-5645-8ae3-08f1a4bd6081</xmpMM:DocumentID>
         <xmpMM:OriginalDocumentID>xmp.did:9c319569-18f8-5645-8ae3-08f1a4bd6081</xmpMM:OriginalDocumentID>
         <xmpMM:History>
            <rdf:Seq>
               <rdf:li>
                  <rdf:Description>
                     <stEvt:action>saved</stEvt:action>
                     <stEvt:instanceID>xmp.iid:9c319569-18f8-5645-8ae3-08f1a4bd6081</stEvt:instanceID>
                     <stEvt:when>2023-11-09T12:18:16-06:00</stEvt:when>
                     <stEvt:softwareAgent>Adobe Bridge 2023</stEvt:softwareAgent>
                     <stEvt:changed>/metadata</stEvt:changed>
                  </rdf:Description>
               </rdf:li>
            </rdf:Seq>
         </xmpMM:History>
      </rdf:Description>
   </rdf:RDF>
</x:xmpmeta>
                                                                                                    
                                                                                                    
                                                                                                    
                                                                                                    
                                                                                                    
                                                                                                    
                                                                                                    
                                                                                                    
                                                                                                    
                                                                                                    
                                                                                                    
                                                                                                    
                                                                                                    
                                                                                                    
                                                                                                    
                                                                                                    
                                                                                                    
                                                                                                    
                                                                                                    
                                                                                                    
                           
<?xpacket end="w"?></metadata>
<defs>
    <style>
      .cls-1 {
        fill: #2c5967;
      }

      .cls-2 {
        fill: #fff;
      }
    </style>
  </defs>
  <path class="cls-2" d="M21.18,21.24h13.44c.67,1.26,2,2.09,3.46,2.09,2.16,0,3.92-1.76,3.92-3.93s-1.76-3.93-3.92-3.93c-1.46,0-2.79,.83-3.46,2.09h-13.69v-1.14h9.13l.29-.29,2.93-2.93c.38,.12,.77,.18,1.17,.18,2.16,0,3.92-1.76,3.92-3.93s-1.76-3.93-3.92-3.93-3.92,1.76-3.92,3.93c0,.39,.06,.77,.17,1.14l-2.16,2.16h-7.61v-2.27l.96-.96,1.86-1.86c.38,.12,.77,.18,1.17,.18,2.16,0,3.92-1.76,3.92-3.93s-1.76-3.93-3.92-3.93c-1.57,0-2.92,.93-3.54,2.27v-.03s-.41,.83-.41,.83l-.3-.79s0-.02-.01-.03h0s0,0,0,0C20.12,.97,18.9,.07,17.44,.02c-.1,0-.19,0-.29,0-1.05,0-2.1,.19-3.11,.57-1.81,.67-3.38,1.91-4.46,3.51-4.3,.79-7.48,4.58-7.48,9,0,.15,0,.31,.01,.47-1.36,1.64-2.11,3.7-2.11,5.85s.75,4.21,2.11,5.85c0,.15-.01,.3-.01,.45,0,4.39,3.16,8.17,7.43,8.99,1.7,2.58,4.51,4.11,7.62,4.11,.08,0,.16,0,.24,0,1.87-.05,3.38-1.55,3.51-3.38h.15c.27,1.9,1.89,3.38,3.87,3.38,2.16,0,3.92-1.76,3.92-3.93s-1.76-3.93-3.92-3.93c-.4,0-.79,.06-1.17,.18l-1.86-1.86-.96-.96v-2.25h7.61l2.2,2.21c-.08,.32-.12,.64-.12,.97,0,2.16,1.76,3.93,3.92,3.93s3.92-1.76,3.92-3.93-1.76-3.93-3.92-3.93c-.45,0-.9,.08-1.33,.23l-2.86-2.87-.29-.29h-9.13v-1.14h.25Z"/>
  <g>
    <path class="cls-1" d="M23.51,6.49c.42,.23,.9,.36,1.4,.36,1.61,0,2.92-1.31,2.92-2.93s-1.31-2.93-2.92-2.93-2.92,1.31-2.92,2.93c0,.5,.13,.96,.34,1.37l-1.16,1.16v2.36l2.33-2.33Zm1.4-3.82c.69,0,1.25,.56,1.25,1.25s-.56,1.25-1.25,1.25-1.25-.56-1.25-1.25,.56-1.25,1.25-1.25Z"/>
    <path class="cls-1" d="M24.91,31.94c-.51,0-.99,.13-1.4,.36l-2.33-2.33v2.36l1.16,1.16c-.22,.41-.34,.88-.34,1.37,0,1.61,1.31,2.93,2.92,2.93s2.92-1.31,2.92-2.93-1.31-2.93-2.92-2.93Zm0,4.18c-.69,0-1.25-.56-1.25-1.25s.56-1.25,1.25-1.25,1.25,.56,1.25,1.25-.56,1.25-1.25,1.25Z"/>
    <path class="cls-1" d="M19.92,28.4V3.65c0-1.43-1.11-2.58-2.52-2.63-1.02-.03-2.03,.13-3.01,.5-1.76,.65-3.24,1.89-4.21,3.49-4,.53-7.08,3.99-7.08,8.08,0,.26,.01,.52,.05,.81-1.39,1.51-2.14,3.45-2.14,5.51s.76,4,2.14,5.51c-.03,.28-.04,.53-.04,.79,0,4.07,3.06,7.53,7.04,8.07,1.46,2.49,4.11,4.03,7.01,4.03,.07,0,.14,0,.21,0,1.42-.04,2.57-1.22,2.57-2.63v-6.76ZM17.35,2.69c.5,.02,.91,.45,.91,.96v7.09s0,3.03,0,3.03h-5.24l-.52-.52c.21-.41,.34-.87,.34-1.36,0-1.61-1.31-2.93-2.92-2.93s-2.92,1.31-2.92,2.93,1.31,2.93,2.92,2.93c.51,0,1-.14,1.42-.37l1,1h5.93v3.14h-7.84c-.36-1.21-1.48-2.09-2.8-2.09-1.61,0-2.92,1.31-2.92,2.93s1.31,2.93,2.92,2.93c1.32,0,2.44-.88,2.8-2.09h7.84v3.14h-5.93l-.87,.87c-.45-.28-.98-.45-1.55-.45-1.61,0-2.92,1.31-2.92,2.93s1.31,2.93,2.92,2.93,2.92-1.31,2.92-2.93c0-.44-.1-.85-.27-1.22l.45-.45h5.24v10.11c0,.52-.42,.95-.95,.96-.06,0-.11,0-.17,0-2.43,0-4.63-1.35-5.75-3.52l-.21-.41-.46-.04c-3.34-.27-5.95-3.1-5.95-6.46,0-.29,.03-.59,.08-.96l.06-.42-.3-.3c-1.25-1.23-1.94-2.87-1.94-4.62s.69-3.39,1.94-4.62l.3-.3-.06-.42c-.06-.37-.08-.68-.08-.97,0-3.37,2.63-6.21,5.98-6.46l.46-.03,.22-.41c.77-1.44,2.03-2.54,3.54-3.11l2.38-.4Zm-7.44,10.45c-.69,0-1.25-.56-1.25-1.25s.56-1.25,1.25-1.25,1.25,.56,1.25,1.25-.56,1.25-1.25,1.25Zm-1.04,6.27c0,.69-.56,1.25-1.25,1.25s-1.25-.56-1.25-1.25,.56-1.25,1.25-1.25,1.25,.56,1.25,1.25Zm2.3,7.32c0,.69-.56,1.25-1.25,1.25s-1.25-.56-1.25-1.25,.56-1.25,1.25-1.25,1.25,.56,1.25,1.25Z"/>
    <path class="cls-1" d="M21.18,13.76v1.67h8.46l3.4-3.41c.42,.23,.9,.36,1.4,.36,1.61,0,2.92-1.31,2.92-2.93s-1.31-2.93-2.92-2.93-2.92,1.31-2.92,2.93c0,.5,.13,.96,.34,1.37l-2.92,2.92h-7.77Zm13.26-5.55c.69,0,1.25,.56,1.25,1.25s-.56,1.25-1.25,1.25-1.25-.56-1.25-1.25,.56-1.25,1.25-1.25Z"/>
    <path class="cls-1" d="M34.53,26.3c-.56,0-1.09,.16-1.53,.44l-3.36-3.37h-8.46v1.67h7.77l2.94,2.95c-.18,.38-.28,.79-.28,1.23,0,1.61,1.31,2.93,2.92,2.93s2.92-1.31,2.92-2.93-1.31-2.93-2.92-2.93Zm0,4.18c-.69,0-1.25-.56-1.25-1.25s.56-1.25,1.25-1.25,1.25,.56,1.25,1.25-.56,1.25-1.25,1.25Z"/>
    <path class="cls-1" d="M38.08,16.48c-1.32,0-2.44,.88-2.8,2.09h-14.1v1.67h14.1c.36,1.21,1.48,2.09,2.8,2.09,1.61,0,2.92-1.31,2.92-2.93s-1.31-2.93-2.92-2.93Zm0,4.18c-.69,0-1.25-.56-1.25-1.25s.56-1.25,1.25-1.25,1.25,.56,1.25,1.25-.56,1.25-1.25,1.25Z"/>
  </g>
</svg>