<svg id="Layer_1" data-name="Layer 1" xmlns="http://www.w3.org/2000/svg" viewBox="0 0 44.74 43"><defs><style>.cls-1{fill:#fff;}.cls-2{fill:#2c5967;}</style></defs><title>Technology - Cloud IaaS</title><metadata><?xpacket begin="﻿" id="W5M0MpCehiHzreSzNTczkc9d"?>
<x:xmpmeta xmlns:x="adobe:ns:meta/" x:xmptk="Adobe XMP Core 6.0-c006 79.164648, 2021/01/12-15:52:29        ">
   <rdf:RDF xmlns:rdf="http://www.w3.org/1999/02/22-rdf-syntax-ns#">
      <rdf:Description rdf:about=""
            xmlns:dc="http://purl.org/dc/elements/1.1/"
            xmlns:lr="http://ns.adobe.com/lightroom/1.0/"
            xmlns:xmp="http://ns.adobe.com/xap/1.0/"
            xmlns:xmpMM="http://ns.adobe.com/xap/1.0/mm/"
            xmlns:stEvt="http://ns.adobe.com/xap/1.0/sType/ResourceEvent#"
            xmlns:xmpRights="http://ns.adobe.com/xap/1.0/rights/">
         <dc:title>
            <rdf:Alt>
               <rdf:li xml:lang="x-default">Technology - Cloud IaaS</rdf:li>
            </rdf:Alt>
         </dc:title>
         <dc:subject>
            <rdf:Bag>
               <rdf:li>icon</rdf:li>
               <rdf:li>Infrastructure</rdf:li>
               <rdf:li>platform</rdf:li>
               <rdf:li>iaas</rdf:li>
            </rdf:Bag>
         </dc:subject>
         <dc:rights>
            <rdf:Alt>
               <rdf:li xml:lang="x-default">Oracle All Rights Reserved</rdf:li>
            </rdf:Alt>
         </dc:rights>
         <lr:hierarchicalSubject>
            <rdf:Bag>
               <rdf:li>icon</rdf:li>
               <rdf:li>&#xA;Infrastructure</rdf:li>
               <rdf:li>Access|platform</rdf:li>
               <rdf:li>Other Keywords|iaas</rdf:li>
            </rdf:Bag>
         </lr:hierarchicalSubject>
         <xmp:MetadataDate>2021-07-21T19:21:46-05:00</xmp:MetadataDate>
         <xmpMM:InstanceID>xmp.iid:14fc823c-c1cf-4204-817d-eaf535fe14a3</xmpMM:InstanceID>
         <xmpMM:DocumentID>xmp.did:1e5509d8-2642-4abb-bae4-53dec0c5f433</xmpMM:DocumentID>
         <xmpMM:OriginalDocumentID>xmp.did:1e5509d8-2642-4abb-bae4-53dec0c5f433</xmpMM:OriginalDocumentID>
         <xmpMM:History>
            <rdf:Seq>
               <rdf:li>
                  <rdf:Description>
                     <stEvt:action>saved</stEvt:action>
                     <stEvt:instanceID>xmp.iid:1e5509d8-2642-4abb-bae4-53dec0c5f433</stEvt:instanceID>
                     <stEvt:when>2021-06-18T11:42-05:00</stEvt:when>
                     <stEvt:softwareAgent>Adobe Bridge 2021 (Macintosh)</stEvt:softwareAgent>
                     <stEvt:changed>/metadata</stEvt:changed>
                  </rdf:Description>
               </rdf:li>
               <rdf:li>
                  <rdf:Description>
                     <stEvt:action>saved</stEvt:action>
                     <stEvt:instanceID>xmp.iid:14fc823c-c1cf-4204-817d-eaf535fe14a3</stEvt:instanceID>
                     <stEvt:when>2021-07-21T19:21:46-05:00</stEvt:when>
                     <stEvt:softwareAgent>Adobe Bridge 2021 (Macintosh)</stEvt:softwareAgent>
                     <stEvt:changed>/metadata</stEvt:changed>
                  </rdf:Description>
               </rdf:li>
            </rdf:Seq>
         </xmpMM:History>
         <xmpRights:Marked>True</xmpRights:Marked>
      </rdf:Description>
   </rdf:RDF>
</x:xmpmeta>
                                                                                                    
                                                                                                    
                                                                                                    
                                                                                                    
                                                                                                    
                                                                                                    
                                                                                                    
                                                                                                    
                                                                                                    
                                                                
<?xpacket end="w"?></metadata>
<path class="cls-1" d="M11.39,42.5V40.78L13,40V22.8H.54l.11-1.52A10.51,10.51,0,0,1,6.29,12.7a2.62,2.62,0,0,0,1.36-1.8,8.08,8.08,0,0,1,7.91-6.51c.25,0,.5,0,.75,0h.26a2.46,2.46,0,0,0,1.82-.78A9.9,9.9,0,0,1,34.5,6a2.64,2.64,0,0,0,1.81,1.41A10.13,10.13,0,0,1,43,22.06l-.4.74H31.87V39.86l1.84.91V42.5Z"/><path class="cls-1" d="M25.64,1a9.34,9.34,0,0,1,8.41,5.2,3.17,3.17,0,0,0,2.16,1.67,9.62,9.62,0,0,1,6.39,14l-.26.48h-11V40.17l1.84.91V42H11.89v-.92l1.61-.8v-18H1.08l.07-1a10,10,0,0,1,5.37-8.17A3.11,3.11,0,0,0,8.14,11a7.57,7.57,0,0,1,7.42-6.11,5.63,5.63,0,0,1,.71,0h.3A3,3,0,0,0,18.76,4a9.41,9.41,0,0,1,6.88-3m0-1A10.44,10.44,0,0,0,18,3.32a1.94,1.94,0,0,1-1.45.62h-.21c-.26,0-.53,0-.8,0a8.57,8.57,0,0,0-8.4,6.92,2.12,2.12,0,0,1-1.11,1.45,11,11,0,0,0-5.9,9l-.07,1L0,23.3H12.5V39.66l-1.06.53-.55.28V43H34.21V40.47l-.56-.28-1.28-.64V23.3H42.94l.28-.52.26-.49a10.63,10.63,0,0,0-7.06-15.4A2.14,2.14,0,0,1,35,5.75,10.35,10.35,0,0,0,25.64,0Z"/><path class="cls-2" d="M31.37,10.39H13.5V40.28l-1.61.8V42H33.21v-.92l-1.84-.91Zm-16,1.83H29.54v28H15.33ZM16.7,13.6H28.16v1.83H16.7Zm10.09,3.2H18.08v1.61H16.7v1.83h1.38v1.6h8.71v-1.6h1.37V18.41H26.79ZM25,20H19.91V18.64H25Zm1.83,10.54H18.08v1.6H16.7V34h1.38v1.61h8.71V34h1.37V32.15H26.79ZM25,33.75H19.91V32.38H25ZM16.7,29.17H28.16v-6H16.7Zm1.84-4.12h7.79v2.29H18.54ZM16.7,37H28.16v1.83H16.7ZM42.6,21.82l-.26.48H32.75V20.47h8.47A7.77,7.77,0,0,0,35.81,9.66,5,5,0,0,1,32.41,7,7.56,7.56,0,0,0,20.1,5.25a4.81,4.81,0,0,1-4,1.5,5.8,5.8,0,0,0-2.84.46,5.72,5.72,0,0,0-3.31,4.14,4.93,4.93,0,0,1-2.57,3.42,8.21,8.21,0,0,0-4.26,5.7h9V22.3h-11l.07-1a10,10,0,0,1,5.37-8.17A3.11,3.11,0,0,0,8.14,11a7.55,7.55,0,0,1,4.38-5.47,7.64,7.64,0,0,1,3.75-.6A3,3,0,0,0,18.76,4,9.4,9.4,0,0,1,34.05,6.2a3.17,3.17,0,0,0,2.16,1.67,9.62,9.62,0,0,1,6.39,14"/></svg>