<svg id="Layer_1" data-name="Layer 1" xmlns="http://www.w3.org/2000/svg" viewBox="0 0 42.08 42"><defs><style>.cls-1{fill:#fff;}.cls-2{fill:#2c5967;}</style></defs><title>Cloud Communication Service CCS</title><metadata><?xpacket begin="﻿" id="W5M0MpCehiHzreSzNTczkc9d"?>
<x:xmpmeta xmlns:x="adobe:ns:meta/" x:xmptk="Adobe XMP Core 6.0-c006 79.164648, 2021/01/12-15:52:29        ">
   <rdf:RDF xmlns:rdf="http://www.w3.org/1999/02/22-rdf-syntax-ns#">
      <rdf:Description rdf:about=""
            xmlns:dc="http://purl.org/dc/elements/1.1/"
            xmlns:lr="http://ns.adobe.com/lightroom/1.0/"
            xmlns:xmp="http://ns.adobe.com/xap/1.0/"
            xmlns:xmpMM="http://ns.adobe.com/xap/1.0/mm/"
            xmlns:stEvt="http://ns.adobe.com/xap/1.0/sType/ResourceEvent#"
            xmlns:xmpRights="http://ns.adobe.com/xap/1.0/rights/">
         <dc:title>
            <rdf:Alt>
               <rdf:li xml:lang="x-default">Cloud Communication Service CCS</rdf:li>
            </rdf:Alt>
         </dc:title>
         <dc:subject>
            <rdf:Bag>
               <rdf:li>icon</rdf:li>
               <rdf:li>Business</rdf:li>
               <rdf:li>Connectivity</rdf:li>
               <rdf:li>CCS</rdf:li>
            </rdf:Bag>
         </dc:subject>
         <dc:rights>
            <rdf:Alt>
               <rdf:li xml:lang="x-default">Oracle All Rights Reserved</rdf:li>
            </rdf:Alt>
         </dc:rights>
         <lr:hierarchicalSubject>
            <rdf:Bag>
               <rdf:li>icon</rdf:li>
               <rdf:li>Business</rdf:li>
               <rdf:li>Connectivity</rdf:li>
            </rdf:Bag>
         </lr:hierarchicalSubject>
         <xmp:MetadataDate>2021-07-21T19:21:57-05:00</xmp:MetadataDate>
         <xmpMM:InstanceID>xmp.iid:cb5b9192-be72-47a0-bb34-4277e9aa5002</xmpMM:InstanceID>
         <xmpMM:DocumentID>xmp.did:92b473b4-d2aa-4b6d-b9c7-b9d2717da1d3</xmpMM:DocumentID>
         <xmpMM:OriginalDocumentID>xmp.did:92b473b4-d2aa-4b6d-b9c7-b9d2717da1d3</xmpMM:OriginalDocumentID>
         <xmpMM:History>
            <rdf:Seq>
               <rdf:li>
                  <rdf:Description>
                     <stEvt:action>saved</stEvt:action>
                     <stEvt:instanceID>xmp.iid:92b473b4-d2aa-4b6d-b9c7-b9d2717da1d3</stEvt:instanceID>
                     <stEvt:when>2021-06-18T11:42-05:00</stEvt:when>
                     <stEvt:softwareAgent>Adobe Bridge 2021 (Macintosh)</stEvt:softwareAgent>
                     <stEvt:changed>/metadata</stEvt:changed>
                  </rdf:Description>
               </rdf:li>
               <rdf:li>
                  <rdf:Description>
                     <stEvt:action>saved</stEvt:action>
                     <stEvt:instanceID>xmp.iid:cb5b9192-be72-47a0-bb34-4277e9aa5002</stEvt:instanceID>
                     <stEvt:when>2021-07-21T19:21:57-05:00</stEvt:when>
                     <stEvt:softwareAgent>Adobe Bridge 2021 (Macintosh)</stEvt:softwareAgent>
                     <stEvt:changed>/metadata</stEvt:changed>
                  </rdf:Description>
               </rdf:li>
            </rdf:Seq>
         </xmpMM:History>
         <xmpRights:Marked>True</xmpRights:Marked>
      </rdf:Description>
   </rdf:RDF>
</x:xmpmeta>
                                                                                                    
                                                                                                    
                                                                                                    
                                                                                                    
                                                                                                    
                                                                                                    
                                                                                                    
                                                                                                    
                                                                                                    
                                                                                                    
                                
<?xpacket end="w"?></metadata>
<path class="cls-1" d="M28.83,41.5A3.4,3.4,0,0,1,27.48,35v-.14H23.1V35a3.41,3.41,0,1,1-2.71,0v-.14H16V35a3.4,3.4,0,1,1-2.72,0V32.12h7.1V32H14.22a2.43,2.43,0,0,1-2.43-2.43v-8.1H.54L.65,20A9.87,9.87,0,0,1,6,12,2.38,2.38,0,0,0,7.2,10.29a7.63,7.63,0,0,1,4.4-5.5,7.8,7.8,0,0,1,3.06-.64,5.48,5.48,0,0,1,.7,0h.25a2.26,2.26,0,0,0,1.67-.72A9.31,9.31,0,0,1,32.44,5.65,2.46,2.46,0,0,0,34.12,7a9.22,9.22,0,0,1,3,1.24,9.53,9.53,0,0,1,3.31,12.57l-.38.71H31.48v8.1A2.43,2.43,0,0,1,29.05,32H23.1v.11h7.09V35a3.4,3.4,0,0,1-1.36,6.52Z"/><path class="cls-1" d="M24.11,1A8.76,8.76,0,0,1,32,5.88a2.94,2.94,0,0,0,2,1.56,9.16,9.16,0,0,1,2.86,1.18A9,9,0,0,1,40,20.53l-.24.45H31v8.6a1.93,1.93,0,0,1-1.93,1.93H22.6v1.11h7.09v2.71a2.91,2.91,0,1,1-1.71,0v-1H22.6v1a2.91,2.91,0,1,1-1.71,0v-1H15.51v1a2.9,2.9,0,1,1-1.72,0V32.62h7.1V31.51H14.22a1.94,1.94,0,0,1-1.93-1.93V21H1.08l.07-.92a9.37,9.37,0,0,1,5-7.66,3,3,0,0,0,1.52-2,7.09,7.09,0,0,1,4.1-5.13,7.22,7.22,0,0,1,2.86-.6l.66,0,.29,0a2.78,2.78,0,0,0,2-.88A8.85,8.85,0,0,1,24.11,1m0-1a9.82,9.82,0,0,0-7.19,3.14,1.78,1.78,0,0,1-1.31.56h-.2a6.28,6.28,0,0,0-.75,0,8.12,8.12,0,0,0-7.95,6.54,1.91,1.91,0,0,1-1,1.32A10.41,10.41,0,0,0,.15,20l-.07.92L0,22H11.29v7.6a2.94,2.94,0,0,0,1.5,2.56v2.53a3.9,3.9,0,1,0,5.41,5.06,3.9,3.9,0,0,0,7.09,0,3.9,3.9,0,1,0,5.4-5.06V32A2.93,2.93,0,0,0,32,29.58V22h8.38l.28-.52.24-.45A10,10,0,0,0,34.23,6.47a2,2,0,0,1-1.34-1A9.77,9.77,0,0,0,24.11,0Zm.4,35.34h1.56a3.82,3.82,0,0,0-.78,1.12,3.82,3.82,0,0,0-.78-1.12Zm-7.09,0H19a3.82,3.82,0,0,0-.78,1.12,3.82,3.82,0,0,0-.78-1.12Z"/><path class="cls-2" d="M36.87,8.62A9.16,9.16,0,0,0,34,7.44a2.94,2.94,0,0,1-2-1.56A8.76,8.76,0,0,0,24.11,1a8.85,8.85,0,0,0-6.46,2.82,2.78,2.78,0,0,1-2.33.86,7.21,7.21,0,0,0-3.52.57,7.09,7.09,0,0,0-4.1,5.13,2.91,2.91,0,0,1-1.52,2,9.4,9.4,0,0,0-5,7.67L1.08,21H11V19.26H3a7.7,7.7,0,0,1,4-5.34,4.6,4.6,0,0,0,2.4-3.21,5.37,5.37,0,0,1,3.11-3.88,5.42,5.42,0,0,1,2.66-.44A4.49,4.49,0,0,0,18.91,5a7.12,7.12,0,0,1,5.2-2.27,7,7,0,0,1,6.34,3.92,4.7,4.7,0,0,0,3.19,2.48,7.19,7.19,0,0,1,2.31,1,7.32,7.32,0,0,1,2.76,9.19H32.27V21h7.49l.24-.45A9,9,0,0,0,36.87,8.62Z"/><path class="cls-2" d="M15.3,28.5H28V24H15.3ZM17,25.71h9.24v1.07H17Z"/><rect class="cls-2" x="15.3" y="15.83" width="2.79" height="2.79"/><rect class="cls-2" x="20.24" y="15.83" width="2.79" height="2.79"/><rect class="cls-2" x="15.3" y="19.91" width="2.79" height="2.79"/><rect class="cls-2" x="20.24" y="19.91" width="2.79" height="2.79"/><rect class="cls-2" x="25.18" y="15.83" width="2.79" height="2.79"/><rect class="cls-2" x="25.18" y="19.91" width="2.79" height="2.79"/><path class="cls-2" d="M22.6,31.51h6.45A1.93,1.93,0,0,0,31,29.58V14.75a1.93,1.93,0,0,0-1.93-1.93H14.22a1.94,1.94,0,0,0-1.93,1.93V29.58a1.94,1.94,0,0,0,1.93,1.93h6.67v1.11h-7.1v2.71a2.9,2.9,0,1,0,1.72,0v-1h5.38v1a2.91,2.91,0,1,0,1.71,0v-1H28v1a2.91,2.91,0,1,0,1.71,0V32.62H22.6ZM14,29.58V14.75a.21.21,0,0,1,.21-.21H29.05a.21.21,0,0,1,.21.21V29.58a.21.21,0,0,1-.21.21H14.22A.22.22,0,0,1,14,29.58Zm.64,9.7a1.18,1.18,0,1,1,1.19-1.18A1.18,1.18,0,0,1,14.65,39.28Zm7.09,0a1.18,1.18,0,1,1,1.19-1.18A1.18,1.18,0,0,1,21.74,39.28Zm7.1,0A1.18,1.18,0,1,1,30,38.1,1.18,1.18,0,0,1,28.84,39.28Z"/></svg>