<?xml version="1.0" encoding="utf-8"?>
<!-- Generator: Adobe Illustrator 27.7.0, SVG Export Plug-In . SVG Version: 6.00 Build 0)  -->
<svg version="1.1" xmlns="http://www.w3.org/2000/svg" xmlns:xlink="http://www.w3.org/1999/xlink" x="0px" y="0px"
	 viewBox="0 0 35.544 42" style="enable-background:new 0 0 35.544 42;" xml:space="preserve">
<style type="text/css">
	.st0{display:none;}
	.st1{display:inline;}
	.st2{fill:#2BA6DE;}
	.st3{fill:none;stroke:#2BA6DE;stroke-width:0.25;stroke-miterlimit:10;}
	.st4{fill:#FFFFFF;}
	.st5{fill:#2C5967;}
</style>
<g id="guides" class="st0">
	<g id="Guides" class="st1">
		<g>
			<path class="st2" d="M24.549-21.658c26.329,0,47.75,21.386,47.75,47.672s-21.421,47.672-47.75,47.672s-47.75-21.386-47.75-47.672
				S-1.781-21.658,24.549-21.658 M24.549-21.908c-26.51,0-48,21.456-48,47.922s21.49,47.922,48,47.922s48-21.456,48-47.922
				S51.059-21.908,24.549-21.908L24.549-21.908z"/>
		</g>
		<line class="st3" x1="-23.451" y1="-118" x2="-23.451" y2="170"/>
		<line class="st3" x1="72.549" y1="-118" x2="72.549" y2="170"/>
		<line class="st3" x1="-119.451" y1="74" x2="168.549" y2="74"/>
		<line class="st3" x1="-119.451" y1="-22" x2="168.549" y2="-22"/>
		<g>
			<path class="st2" d="M24.549-105.601c35.192,0,68.277,13.704,93.161,38.589c24.884,24.884,38.589,57.97,38.589,93.161
				s-13.704,68.277-38.589,93.161s-57.97,38.589-93.161,38.589s-68.277-13.704-93.161-38.589
				c-24.884-24.884-38.589-57.97-38.589-93.161s13.704-68.277,38.589-93.161C-43.728-91.896-10.643-105.601,24.549-105.601
				 M24.549-105.851c-72.902,0-132,59.098-132,132s59.098,132,132,132s132-59.098,132-132S97.451-105.851,24.549-105.851
				L24.549-105.851z"/>
		</g>
		<g>
			<path class="st2" d="M120.549-105.75c6.479,0,11.75,5.271,11.75,11.75v240c0,6.479-5.271,11.75-11.75,11.75h-192
				c-6.479,0-11.75-5.271-11.75-11.75V-94c0-6.479,5.271-11.75,11.75-11.75H120.549 M120.549-106h-192c-6.6,0-12,5.4-12,12v240
				c0,6.6,5.4,12,12,12h192c6.6,0,12-5.4,12-12V-94C132.549-100.6,127.149-106,120.549-106L120.549-106z"/>
		</g>
		<g>
			<path class="st2" d="M144.549-81.75c6.479,0,11.75,5.271,11.75,11.75v192c0,6.479-5.271,11.75-11.75,11.75h-240
				c-6.479,0-11.75-5.271-11.75-11.75V-70c0-6.479,5.271-11.75,11.75-11.75H144.549 M144.549-82h-240c-6.6,0-12,5.4-12,12v192
				c0,6.6,5.4,12,12,12h240c6.6,0,12-5.4,12-12V-70C156.549-76.6,151.149-82,144.549-82L144.549-82z"/>
		</g>
		<g>
			<path class="st2" d="M128.328-93.75c8.806,0,15.971,7.164,15.971,15.971v207.558c0,8.806-7.164,15.971-15.971,15.971H-79.23
				c-8.806,0-15.971-7.164-15.971-15.971V-77.779c0-8.806,7.164-15.971,15.971-15.971H128.328 M128.328-94H-79.23
				c-8.921,0-16.221,7.299-16.221,16.221v207.558c0,8.921,7.299,16.221,16.221,16.221h207.558c8.921,0,16.221-7.299,16.221-16.221
				V-77.779C144.549-86.701,137.25-94,128.328-94L128.328-94z"/>
		</g>
		<g>
			<path class="st2" d="M120.299-69.75v191.5h-191.5v-191.5H120.299 M120.549-70h-192v192h192V-70L120.549-70z"/>
		</g>
	</g>
</g>
<g id="Extras">
	<g>
		<path class="st4" d="M31.562,6.535c-0.841-0.529-1.756-0.905-2.72-1.116c-0.441-0.097-0.808-0.38-1.005-0.778
			C26.413,1.778,23.544,0,20.35,0c-2.321,0-4.557,0.977-6.135,2.682c-0.248,0.268-0.601,0.416-0.992,0.416
			c-0.049,0-0.099-0.002-0.149-0.007c-0.214-0.02-0.43-0.031-0.646-0.031c-0.951,0-1.914,0.202-2.785,0.585
			c-2.07,0.91-3.568,2.78-4.004,5.002C5.555,9.08,5.275,9.449,4.872,9.661c-2.738,1.439-4.509,4.136-4.737,7.214L0.08,17.622
			L0,18.696h1.077h7.471h0.043V36.13v1h1h1.391h0.044v1.435v1h1h1.391h0.043V41v1h1h13.565h1v-1V18.696h0.043h4.381h0.597
			l0.283-0.525l0.197-0.365C36.651,13.869,35.347,8.919,31.562,6.535z"/>
		<g>
			<polygon class="st5" points="23.157,8.652 9.592,8.652 9.592,36.13 10.983,36.13 10.983,10.043 23.157,10.043 			"/>
			<path class="st5" d="M31.029,7.381c-0.743-0.468-1.55-0.799-2.401-0.985c-0.739-0.162-1.354-0.639-1.687-1.309
				C25.687,2.566,23.162,1,20.35,1c-2.043,0-4.012,0.861-5.401,2.361c-0.493,0.533-1.211,0.797-1.968,0.726
				c-0.998-0.095-2.013,0.069-2.935,0.475C8.275,5.34,6.995,6.94,6.621,8.841c-0.144,0.731-0.611,1.352-1.283,1.705
				c-2.43,1.278-4.002,3.671-4.205,6.403l-0.055,0.747h7.471v-1.391h-5.93c0.369-1.934,1.589-3.593,3.367-4.527
				c1.046-0.55,1.776-1.522,2.001-2.668c0.286-1.455,1.266-2.679,2.621-3.274c0.705-0.31,1.481-0.436,2.243-0.363
				c1.193,0.114,2.33-0.311,3.121-1.166c1.126-1.217,2.723-1.915,4.38-1.915c2.28,0,4.328,1.27,5.344,3.314
				c0.522,1.05,1.483,1.797,2.636,2.049c0.693,0.152,1.352,0.422,1.957,0.804c2.609,1.643,3.581,4.979,2.318,7.746H29.07v1.391
				h4.381l0.197-0.365C35.522,13.856,34.371,9.486,31.029,7.381z"/>
			<polygon class="st5" points="25.592,11.087 12.026,11.087 12.026,38.565 13.418,38.565 13.418,12.478 25.592,12.478 			"/>
			<path class="st5" d="M14.461,41h13.565V13.522H14.461V41z M15.852,14.913h10.783v24.696H15.852V14.913z"/>
			<path class="st5" d="M23.292,33.136c0.222-0.409,0.333-0.87,0.32-1.336c0-0.799-0.227-1.405-0.682-1.817
				c-0.454-0.414-1.097-0.635-2.035-0.635h-2.261v8H20.2v-3.13l0.555,0.066l1.358,3.064h1.739l-1.624-3.384
				C22.671,33.824,23.048,33.53,23.292,33.136z M20.896,33.174H20.2v-2.609h0.696c0.791,0,1.111,0.496,1.111,1.323
				C22.007,32.717,21.687,33.174,20.896,33.174z"/>
			<rect x="16.896" y="15.957" class="st5" width="8.696" height="1.391"/>
			<path class="st5" d="M24.548,18.391h-6.609v1.217h-1.043V21h1.043v1.217h6.609V21h1.043v-1.391h-1.043V18.391z M23.157,20.826
				h-3.826v-1.043h3.826V20.826z"/>
			<rect x="16.896" y="23.261" class="st5" width="1.391" height="1.391"/>
			<rect x="19.331" y="23.261" class="st5" width="1.391" height="1.391"/>
			<rect x="21.765" y="23.261" class="st5" width="1.391" height="1.391"/>
			<rect x="24.2" y="23.261" class="st5" width="1.391" height="1.391"/>
			<rect x="16.896" y="25.696" class="st5" width="1.391" height="1.391"/>
			<rect x="19.331" y="25.696" class="st5" width="1.391" height="1.391"/>
			<rect x="21.765" y="25.696" class="st5" width="1.391" height="1.391"/>
			<rect x="24.2" y="25.696" class="st5" width="1.391" height="1.391"/>
		</g>
	</g>
</g>
</svg>
