<svg width="40" height="40" viewBox="0 0 40 40" fill="none" xmlns="http://www.w3.org/2000/svg">
<metadata><?xpacket begin="﻿" id="W5M0MpCehiHzreSzNTczkc9d"?>
<x:xmpmeta xmlns:x="adobe:ns:meta/" x:xmptk="Adobe XMP Core 7.1-c000 79.4d2f597, 2021/09/01-20:51:22        ">
   <rdf:RDF xmlns:rdf="http://www.w3.org/1999/02/22-rdf-syntax-ns#">
      <rdf:Description rdf:about=""
            xmlns:dc="http://purl.org/dc/elements/1.1/"
            xmlns:xmp="http://ns.adobe.com/xap/1.0/"
            xmlns:xmpMM="http://ns.adobe.com/xap/1.0/mm/"
            xmlns:stEvt="http://ns.adobe.com/xap/1.0/sType/ResourceEvent#"
            xmlns:xmpRights="http://ns.adobe.com/xap/1.0/rights/">
         <dc:subject>
            <rdf:Bag>
               <rdf:li>AWS</rdf:li>
               <rdf:li>database</rdf:li>
               <rdf:li>amazon</rdf:li>
            </rdf:Bag>
         </dc:subject>
         <dc:rights>
            <rdf:Alt>
               <rdf:li xml:lang="x-default">Oracle All Rights</rdf:li>
            </rdf:Alt>
         </dc:rights>
         <xmp:MetadataDate>2025-02-06T15:37:27-06:00</xmp:MetadataDate>
         <xmpMM:InstanceID>xmp.iid:c422f297-ec98-416e-b458-c3a85b3dcced</xmpMM:InstanceID>
         <xmpMM:DocumentID>xmp.did:417662cf-c376-4a63-958b-a6ed8d93485f</xmpMM:DocumentID>
         <xmpMM:OriginalDocumentID>xmp.did:417662cf-c376-4a63-958b-a6ed8d93485f</xmpMM:OriginalDocumentID>
         <xmpMM:History>
            <rdf:Seq>
               <rdf:li>
                  <rdf:Description>
                     <stEvt:action>saved</stEvt:action>
                     <stEvt:instanceID>xmp.iid:417662cf-c376-4a63-958b-a6ed8d93485f</stEvt:instanceID>
                     <stEvt:when>2025-02-06T15:28:56-06:00</stEvt:when>
                     <stEvt:softwareAgent>Adobe Bridge 2023</stEvt:softwareAgent>
                     <stEvt:changed>/metadata</stEvt:changed>
                  </rdf:Description>
               </rdf:li>
               <rdf:li>
                  <rdf:Description>
                     <stEvt:action>saved</stEvt:action>
                     <stEvt:instanceID>xmp.iid:c422f297-ec98-416e-b458-c3a85b3dcced</stEvt:instanceID>
                     <stEvt:when>2025-02-06T15:37:27-06:00</stEvt:when>
                     <stEvt:softwareAgent>Adobe Bridge 2023</stEvt:softwareAgent>
                     <stEvt:changed>/metadata</stEvt:changed>
                  </rdf:Description>
               </rdf:li>
            </rdf:Seq>
         </xmpMM:History>
         <xmpRights:Marked>True</xmpRights:Marked>
      </rdf:Description>
   </rdf:RDF>
</x:xmpmeta>
                                                                                                    
                                                                                                    
                                                                                                    
                                                                                                    
                                                                                                    
                                                                                                    
                                                                                                    
                                                                                                    
                                                                                                    
                                                                                                    
                                                                                                    
                                                                                                    
                                                              
<?xpacket end="w"?></metadata>
<path d="M40 -0.00195312H0V39.998H40V-0.00195312Z" fill="#C925D1"/>
<path d="M21 32.8071C19.9477 32.9259 18.7815 32.998 17.5 32.998C11.6143 32.998 8 31.5419 8 30.498V25.0754C9.77246 26.3415 13.6503 26.998 17.5 26.998C18.6873 26.998 19.8699 26.9281 21 26.8045V25.8071C19.9477 25.9259 18.7815 25.998 17.5 25.998C11.6143 25.998 8 24.5419 8 23.498V18.0754C9.77246 19.3415 13.6503 19.998 17.5 19.998C18.6873 19.998 19.8699 19.9281 21 19.8045V18.8071C19.9477 18.9259 18.7815 18.998 17.5 18.998C11.6143 18.998 8 17.5419 8 16.498V11.0754C9.77246 12.3415 13.6503 12.998 17.5 12.998C21.3497 12.998 25.2275 12.3415 27 11.0754V12.998H28V9.49805C28 7.2002 22.7178 5.99805 17.5 5.99805C12.2822 5.99805 7 7.2002 7 9.49805V30.498C7 32.7958 12.2822 33.998 17.5 33.998C18.6852 33.998 19.8708 33.9328 21 33.81V32.8071ZM17.5 6.99805C23.3857 6.99805 27 8.4541 27 9.49805C27 10.5419 23.3857 11.998 17.5 11.998C11.6143 11.998 8 10.5419 8 9.49805C8 8.4541 11.6143 6.99805 17.5 6.99805ZM32.5 33.998H22.5C22.2236 33.998 22 33.7744 22 33.498V14.498C22 14.2216 22.2236 13.998 22.5 13.998H32.5C32.7764 13.998 33 14.2216 33 14.498V33.498C33 33.7744 32.7764 33.998 32.5 33.998ZM23 32.998H32V14.998H23V32.998ZM28 16.998H24V15.998H28V16.998ZM31 18.998H24V17.998H31V18.998ZM31 31.998H29.8593L27.5 27.5687L25.1407 31.998H24L26.9297 26.498L24 20.998H25.1407L27.5 25.4273L29.8593 20.998H31L28.0703 26.498L31 31.998Z" fill="white"/>
</svg>
