<?xml version="1.0" encoding="UTF-8"?>
<svg id="Layer_1" data-name="Layer 1" xmlns="http://www.w3.org/2000/svg" viewBox="0 0 42.41 40.8">
  <metadata><?xpacket begin="﻿" id="W5M0MpCehiHzreSzNTczkc9d"?>
<x:xmpmeta xmlns:x="adobe:ns:meta/" x:xmptk="Adobe XMP Core 7.1-c000 79.4d2f597, 2021/09/01-20:51:22        ">
   <rdf:RDF xmlns:rdf="http://www.w3.org/1999/02/22-rdf-syntax-ns#">
      <rdf:Description rdf:about=""
            xmlns:dc="http://purl.org/dc/elements/1.1/"
            xmlns:xmpRights="http://ns.adobe.com/xap/1.0/rights/"
            xmlns:xmp="http://ns.adobe.com/xap/1.0/"
            xmlns:xmpMM="http://ns.adobe.com/xap/1.0/mm/"
            xmlns:stEvt="http://ns.adobe.com/xap/1.0/sType/ResourceEvent#">
         <dc:rights>
            <rdf:Alt>
               <rdf:li xml:lang="x-default">Oracle All Rights</rdf:li>
            </rdf:Alt>
         </dc:rights>
         <dc:subject>
            <rdf:Bag>
               <rdf:li>data</rdf:li>
               <rdf:li>database</rdf:li>
               <rdf:li>JSON</rdf:li>
               <rdf:li>AI</rdf:li>
               <rdf:li>autonomous</rdf:li>
               <rdf:li>icon</rdf:li>
            </rdf:Bag>
         </dc:subject>
         <xmpRights:Marked>True</xmpRights:Marked>
         <xmp:MetadataDate>2024-07-05T18:09:40-06:00</xmp:MetadataDate>
         <xmpMM:InstanceID>xmp.iid:8934c4e8-460f-44b5-9ef3-08f96856f189</xmpMM:InstanceID>
         <xmpMM:DocumentID>xmp.did:4b746c13-8277-4278-8775-00a617e5d814</xmpMM:DocumentID>
         <xmpMM:OriginalDocumentID>xmp.did:4b746c13-8277-4278-8775-00a617e5d814</xmpMM:OriginalDocumentID>
         <xmpMM:History>
            <rdf:Seq>
               <rdf:li>
                  <rdf:Description>
                     <stEvt:action>saved</stEvt:action>
                     <stEvt:instanceID>xmp.iid:4b746c13-8277-4278-8775-00a617e5d814</stEvt:instanceID>
                     <stEvt:when>2024-07-05T18:05:08-06:00</stEvt:when>
                     <stEvt:softwareAgent>Adobe Bridge 2023</stEvt:softwareAgent>
                     <stEvt:changed>/metadata</stEvt:changed>
                  </rdf:Description>
               </rdf:li>
               <rdf:li>
                  <rdf:Description>
                     <stEvt:action>saved</stEvt:action>
                     <stEvt:instanceID>xmp.iid:8934c4e8-460f-44b5-9ef3-08f96856f189</stEvt:instanceID>
                     <stEvt:when>2024-07-05T18:09:40-06:00</stEvt:when>
                     <stEvt:softwareAgent>Adobe Bridge 2023</stEvt:softwareAgent>
                     <stEvt:changed>/metadata</stEvt:changed>
                  </rdf:Description>
               </rdf:li>
            </rdf:Seq>
         </xmpMM:History>
      </rdf:Description>
   </rdf:RDF>
</x:xmpmeta>
                                                                                                    
                                                                                                    
                                                                                                    
                                                                                                    
                                                                                                    
                                                                                                    
                                                                                                    
                                                                                                    
                                                                                                    
                                                                                                    
                                                                                                    
                                                                                                    
                  
<?xpacket end="w"?></metadata>
<defs>
    <style>
      .cls-1 {
        fill: #fff;
      }

      .cls-2 {
        fill: #2d5967;
      }
    </style>
  </defs>
  <path class="cls-1" d="m42.41,10.86l-.7.71-1.05,1.04-.7.71-.71-.71-.49-.48c-.32,1.35-.92,2.6-1.73,3.68v19.32c0,2.83-4.27,3.86-5.68,4.2-1.28.31-2.77.55-4.56.75l-.23.03v.69H0v-14.83h3.87V9.01c0-2.87,4.27-3.93,5.67-4.27,2.91-.73,6.79-1.13,10.91-1.13h1C23.28,1.42,26.02.02,29.08,0h.07c2.63,0,5.09,1.02,6.96,2.88.7.73,1.3,1.56,1.78,2.47l.34.65-.33.34.12.13,3.69,3.68.7.71Z"/>
  <g>
    <path class="cls-2" d="m18.16,7.65l-1.04,1.04,3.68,3.68,3.68-3.68-1.04-1.04-1.85,1.85c.29-3.89,3.56-6.98,7.5-7.02,2,0,3.87.75,5.26,2.14.68.68,1.19,1.45,1.56,2.29l1.1-1.1c-.42-.81-.95-1.56-1.61-2.24-1.69-1.69-3.92-2.6-6.31-2.58-4.8.04-8.74,3.87-8.96,8.62l-1.98-1.98.02.02Z"/>
    <path class="cls-2" d="m37.26,7.16l-3.68,3.68,1.04,1.04,1.92-1.92c-.05,4.09-3.43,7.42-7.52,7.46-1.98,0-3.87-.75-5.26-2.14-.75-.75-1.32-1.63-1.67-2.6l-1.12,1.12c.42.92,1.03,1.78,1.76,2.51,1.67,1.67,3.89,2.58,6.25,2.58s.04,0,.05,0c4.89-.04,8.91-4.03,8.98-8.91l1.92,1.92,1.04-1.04-3.68-3.68-.05-.02Z"/>
    <path class="cls-2" d="m25.11,14.52h2.13l.46-2h2.36l.46,2h2.2l-2.79-9.72h-2l-2.8,9.72h-.02Zm3.76-7.31l.82,3.59h-1.65l.82-3.59Z"/>
    <path class="cls-2" d="m30.75,19.86c-2.75.66-6.42,1.03-10.32,1.03s-7.57-.37-10.32-1.03c-3.1-.73-3.79-1.58-3.79-1.8v-7.02c.81.49,1.96.92,3.45,1.28,2.66.66,6.14,1.04,9.84,1.08-.16-.48-.31-.97-.4-1.47-3.45-.07-6.64-.44-9.09-1.04-3.12-.77-3.79-1.61-3.79-1.89s.68-1.12,3.79-1.89c2.6-.64,6.05-1.01,9.73-1.04.22-.51.48-1.01.79-1.47h-.18c-4.01,0-7.81.38-10.67,1.1-3.26.81-4.91,1.91-4.91,3.3s0,.15,0,.22v16.63h1.47v-5.85c.81.48,1.96.9,3.45,1.25,2.86.68,6.65,1.06,10.67,1.06s7.81-.38,10.67-1.06c1.48-.35,2.64-.77,3.45-1.25v6.51c0,.24-.7,1.06-3.79,1.8-1.21.29-2.58.51-4.09.7v1.47c1.63-.18,3.13-.42,4.44-.73,1.48-.35,2.64-.77,3.45-1.25v6.64c0,.24-.7,1.06-3.79,1.8-1.21.29-2.58.51-4.09.7v1.47c1.63-.18,3.13-.42,4.44-.73,3.26-.79,4.91-1.87,4.91-3.23v-18.04c-.55.53-1.15,1.01-1.81,1.41-.46.37-1.45.88-3.45,1.36h-.02Z"/>
    <path class="cls-2" d="m1,39.8h24.56v-12.83H1v12.83Zm1.47-11.37h21.63v9.9H2.47v-9.9Z"/>
    <path class="cls-2" d="m5.25,31.61l.93.29v2.49c0,.48-.26.71-.77.71s-.29-.02-.46-.05-.35-.11-.55-.18v.93c.15.09.33.15.55.2.2.04.42.07.64.07.53,0,.95-.13,1.25-.4s.44-.66.44-1.15v-3.46h-2.03v.59-.04Z"/>
    <path class="cls-2" d="m10.42,33.09l-.53-.18c-.31-.09-.51-.18-.62-.27-.11-.07-.16-.18-.16-.31,0-.33.29-.49.88-.49s.44.02.7.07c.26.05.49.11.73.2v-.93c-.18-.07-.4-.15-.66-.2s-.51-.07-.77-.07c-.4,0-.77.05-1.06.18-.29.13-.53.29-.7.51s-.24.49-.24.79.09.64.29.88c.2.22.51.42.95.57l.53.18c.31.09.51.18.62.27.11.07.16.18.16.29,0,.16-.09.29-.26.38s-.4.15-.7.15c-.49,0-1.03-.09-1.56-.29v.93c.11.05.26.11.44.15s.38.07.6.09c.22.02.42.04.62.04.62,0,1.1-.13,1.45-.4s.51-.62.51-1.1-.09-.68-.29-.9-.51-.4-.97-.57l.02.04Z"/>
    <path class="cls-2" d="m14.64,30.91c-.77,0-1.36.22-1.78.68s-.62,1.08-.62,1.89.2,1.45.62,1.89c.42.44,1.01.66,1.78.66s1.36-.22,1.78-.66c.42-.44.62-1.08.62-1.89s-.2-1.43-.62-1.89-1.01-.68-1.78-.68Zm.95,3.79c-.2.29-.53.42-.95.42s-.75-.15-.95-.42c-.2-.29-.31-.7-.31-1.23s.11-.95.31-1.23.53-.42.95-.42.75.15.95.42.31.7.31,1.23-.11.95-.31,1.23Z"/>
    <polygon class="cls-2" points="21.09 34.21 18.87 31.01 17.87 31.01 17.87 35.94 18.95 35.94 18.95 32.73 21.16 35.94 22.17 35.94 22.17 31.01 21.09 31.01 21.09 34.21"/>
  </g>
</svg>