<svg id="Layer_1" data-name="Layer 1" xmlns="http://www.w3.org/2000/svg" viewBox="0 0 41.96 42"><metadata><?xpacket begin="﻿" id="W5M0MpCehiHzreSzNTczkc9d"?>
<x:xmpmeta xmlns:x="adobe:ns:meta/" x:xmptk="Adobe XMP Core 6.0-c006 79.164648, 2021/01/12-15:52:29        ">
   <rdf:RDF xmlns:rdf="http://www.w3.org/1999/02/22-rdf-syntax-ns#">
      <rdf:Description rdf:about=""
            xmlns:dc="http://purl.org/dc/elements/1.1/"
            xmlns:xmp="http://ns.adobe.com/xap/1.0/"
            xmlns:xmpMM="http://ns.adobe.com/xap/1.0/mm/"
            xmlns:stEvt="http://ns.adobe.com/xap/1.0/sType/ResourceEvent#"
            xmlns:lr="http://ns.adobe.com/lightroom/1.0/">
         <dc:subject>
            <rdf:Bag>
               <rdf:li>OCI</rdf:li>
               <rdf:li>VM</rdf:li>
               <rdf:li>Virtual</rdf:li>
               <rdf:li>Machine</rdf:li>
               <rdf:li>Snapshot</rdf:li>
               <rdf:li>time-stamp</rdf:li>
               <rdf:li>time</rdf:li>
               <rdf:li>clock</rdf:li>
               <rdf:li>camera</rdf:li>
               <rdf:li>picture</rdf:li>
               <rdf:li>icon</rdf:li>
            </rdf:Bag>
         </dc:subject>
         <xmp:MetadataDate>2022-12-08T14:01:11-06:00</xmp:MetadataDate>
         <xmpMM:InstanceID>xmp.iid:eb17ad34-01b3-4cee-8d1d-de3e611f1604</xmpMM:InstanceID>
         <xmpMM:DocumentID>xmp.did:09fb6d66-a7df-4228-b36c-878d8d7406f1</xmpMM:DocumentID>
         <xmpMM:OriginalDocumentID>xmp.did:09fb6d66-a7df-4228-b36c-878d8d7406f1</xmpMM:OriginalDocumentID>
         <xmpMM:History>
            <rdf:Seq>
               <rdf:li>
                  <rdf:Description>
                     <stEvt:action>saved</stEvt:action>
                     <stEvt:instanceID>xmp.iid:09fb6d66-a7df-4228-b36c-878d8d7406f1</stEvt:instanceID>
                     <stEvt:when>2022-12-08T13:40:34-06:00</stEvt:when>
                     <stEvt:softwareAgent>Adobe Bridge 2021 (Macintosh)</stEvt:softwareAgent>
                     <stEvt:changed>/metadata</stEvt:changed>
                  </rdf:Description>
               </rdf:li>
               <rdf:li>
                  <rdf:Description>
                     <stEvt:action>saved</stEvt:action>
                     <stEvt:instanceID>xmp.iid:eb17ad34-01b3-4cee-8d1d-de3e611f1604</stEvt:instanceID>
                     <stEvt:when>2022-12-08T14:01:11-06:00</stEvt:when>
                     <stEvt:softwareAgent>Adobe Bridge 2021 (Macintosh)</stEvt:softwareAgent>
                     <stEvt:changed>/metadata</stEvt:changed>
                  </rdf:Description>
               </rdf:li>
            </rdf:Seq>
         </xmpMM:History>
         <lr:hierarchicalSubject>
            <rdf:Bag>
               <rdf:li>Other Keywords|icon</rdf:li>
            </rdf:Bag>
         </lr:hierarchicalSubject>
      </rdf:Description>
   </rdf:RDF>
</x:xmpmeta>
                                                                                                    
                                                                                                    
                                                                                                    
                                                                                                    
                                                                                                    
                                                                                                    
                                                                                                    
                                                                                                    
                                                                                                    
                                                                                                    
                                                                                                    
                                                                                                    
                                                                 
<?xpacket end="w"?></metadata>
<path d="M2.67,41.5A2.22,2.22,0,0,1,.5,39.29V2.66A2.17,2.17,0,0,1,2.67.5H39.29a2.17,2.17,0,0,1,2.17,2.16V39.33a2.22,2.22,0,0,1-2.21,2.17Z" fill="#fff"/><path d="M39.29,1A1.67,1.67,0,0,1,41,2.67V39.33A1.71,1.71,0,0,1,39.25,41H2.67A1.71,1.71,0,0,1,1,39.29V2.67A1.67,1.67,0,0,1,2.67,1H39.29m0-1H2.67A2.68,2.68,0,0,0,0,2.67V39.29A2.69,2.69,0,0,0,2.67,42H39.25A2.7,2.7,0,0,0,42,39.33V2.67A2.68,2.68,0,0,0,39.29,0Z" fill="#fff"/><path d="M2.67,39.48a.19.19,0,0,1-.19-.19V2.66a.18.18,0,0,1,.19-.18H39.29a.19.19,0,0,1,.19.18V23.58a2.68,2.68,0,0,1,1.48.55V2.66A1.67,1.67,0,0,0,39.29,1H2.67A1.67,1.67,0,0,0,1,2.66V39.29A1.67,1.67,0,0,0,2.67,41H17.1a2.76,2.76,0,0,1-.55-1.48Z" fill="#2c5967"/><polygon points="6.55 35.41 16.54 35.41 16.54 33.93 8.03 33.93 8.03 28.01 16.54 28.01 16.54 26.53 6.55 26.53 6.55 35.41" fill="#2c5967"/><path d="M6.55,15.43h8.88V6.55H6.55ZM8,8H14V14H8Z" fill="#2c5967"/><path d="M16.54,15.43h8.88V6.55H16.54ZM18,8h5.92V14H18Z" fill="#2c5967"/><path d="M6.55,25.42h8.88V16.54H6.55ZM8,18H14v5.92H8Z" fill="#2c5967"/><path d="M16.54,16.54v8.88h.16A2.8,2.8,0,0,1,18,23.89V18h5.92v3.23a2.92,2.92,0,0,1,1.48,1.61V16.54Z" fill="#2c5967"/><path d="M26.53,15.43h8.88V6.55H26.53ZM28,8h5.92V14H28Z" fill="#2c5967"/><path d="M26.53,16.54V21A3.17,3.17,0,0,1,28,20V18h5.92v2a3.18,3.18,0,0,1,1.48,1.13V16.54Z" fill="#2c5967"/><path d="M39.25,41a1.67,1.67,0,0,0,1.67-1.67V26.39a1.67,1.67,0,0,0-1.67-1.67h-.88V23.38H36.89v1.34H35.75l-1.07-2.51A2,2,0,0,0,32.8,21H28.86a2,2,0,0,0-1.92,1.35l-.85,2.39h-1.6v-.85a1.78,1.78,0,0,0-1.78-1.78H21.65a1.78,1.78,0,0,0-1.78,1.78v.85h-.6a1.66,1.66,0,0,0-1.66,1.67V39.33A1.66,1.66,0,0,0,19.27,41Zm.19-14.61V39.33a.19.19,0,0,1-.19.19h-20a.18.18,0,0,1-.18-.19V26.39a.18.18,0,0,1,.18-.19h20A.19.19,0,0,1,39.44,26.39ZM32.8,22.46a.56.56,0,0,1,.52.34l.82,1.92H27.66l.67-1.89a.56.56,0,0,1,.53-.37ZM21.35,23.87a.29.29,0,0,1,.3-.3h1.06a.29.29,0,0,1,.3.3v.85H21.35Z" fill="#2c5967"/><path d="M30.74,27.5a5.37,5.37,0,1,0,5.37,5.36A5.36,5.36,0,0,0,30.74,27.5Zm0,9.25a3.89,3.89,0,1,1,3.89-3.89A3.89,3.89,0,0,1,30.74,36.75Z" fill="#2c5967"/><circle cx="37.4" cy="28.24" r="0.74" fill="#2c5967"/><rect x="20.42" y="27.45" width="3.51" height="1.48" fill="#2c5967"/><path d="M31.52,30.78a.74.74,0,0,0-1.48,0v1.85a.74.74,0,0,0,.74.74h1.3a.74.74,0,1,0,0-1.48h-.56Z" fill="#2c5967"/></svg>