<?xml version="1.0" encoding="UTF-8"?>
<svg id="Layer_1" data-name="Layer 1" xmlns="http://www.w3.org/2000/svg" viewBox="0 0 40 40">
  <metadata><?xpacket begin="﻿" id="W5M0MpCehiHzreSzNTczkc9d"?>
<x:xmpmeta xmlns:x="adobe:ns:meta/" x:xmptk="Adobe XMP Core 9.1-c001 79.a8d4753, 2023/03/23-08:56:37        ">
   <rdf:RDF xmlns:rdf="http://www.w3.org/1999/02/22-rdf-syntax-ns#">
      <rdf:Description rdf:about=""
            xmlns:dc="http://purl.org/dc/elements/1.1/"
            xmlns:xmpRights="http://ns.adobe.com/xap/1.0/rights/"
            xmlns:xmp="http://ns.adobe.com/xap/1.0/"
            xmlns:xmpMM="http://ns.adobe.com/xap/1.0/mm/"
            xmlns:stEvt="http://ns.adobe.com/xap/1.0/sType/ResourceEvent#">
         <dc:subject>
            <rdf:Bag>
               <rdf:li>google</rdf:li>
               <rdf:li>cloud</rdf:li>
               <rdf:li>database</rdf:li>
               <rdf:li>data</rdf:li>
            </rdf:Bag>
         </dc:subject>
         <xmpRights:Marked/>
         <xmpRights:UsageTerms>
            <rdf:Alt>
               <rdf:li xml:lang="x-default">Oracle All Right  </rdf:li>
            </rdf:Alt>
         </xmpRights:UsageTerms>
         <xmp:MetadataDate>2024-08-20T12:11:46-06:00</xmp:MetadataDate>
         <xmpMM:InstanceID>xmp.iid:948957da-2b78-43e2-b0b8-0938b1b83f23</xmpMM:InstanceID>
         <xmpMM:DocumentID>xmp.did:5bdf0e13-ae9b-4078-b8c4-f9852c7a8dc4</xmpMM:DocumentID>
         <xmpMM:OriginalDocumentID>xmp.did:5bdf0e13-ae9b-4078-b8c4-f9852c7a8dc4</xmpMM:OriginalDocumentID>
         <xmpMM:History>
            <rdf:Seq>
               <rdf:li>
                  <rdf:Description>
                     <stEvt:action>saved</stEvt:action>
                     <stEvt:instanceID>xmp.iid:5bdf0e13-ae9b-4078-b8c4-f9852c7a8dc4</stEvt:instanceID>
                     <stEvt:when>2024-08-20T12:11:36-06:00</stEvt:when>
                     <stEvt:softwareAgent>Adobe Bridge 2024</stEvt:softwareAgent>
                     <stEvt:changed>/metadata</stEvt:changed>
                  </rdf:Description>
               </rdf:li>
               <rdf:li>
                  <rdf:Description>
                     <stEvt:action>saved</stEvt:action>
                     <stEvt:instanceID>xmp.iid:948957da-2b78-43e2-b0b8-0938b1b83f23</stEvt:instanceID>
                     <stEvt:when>2024-08-20T12:11:46-06:00</stEvt:when>
                     <stEvt:softwareAgent>Adobe Bridge 2024</stEvt:softwareAgent>
                     <stEvt:changed>/metadata</stEvt:changed>
                  </rdf:Description>
               </rdf:li>
            </rdf:Seq>
         </xmpMM:History>
      </rdf:Description>
   </rdf:RDF>
</x:xmpmeta>
                                                                                                    
                                                                                                    
                                                                                                    
                                                                                                    
                                                                                                    
                                                                                                    
                                                                                                    
                                                                                                    
                                                                                                    
                                                                                                    
                                                                                                    
                                                                                                    
                                                                                                    
                                                                                                    
                                                                                                    
                                   
<?xpacket end="w"?></metadata>
<defs>
    <style>
      .cls-1 {
        fill: #f3b437;
      }

      .cls-2 {
        fill: #d94836;
      }

      .cls-3 {
        fill: #c94634;
      }

      .cls-4 {
        fill: #3f7ce9;
      }

      .cls-5 {
        fill: #469952;
      }
    </style>
  </defs>
  <g>
    <path class="cls-2" d="m19.137,2.386h0c-1.664-1.484-3.861-2.386-6.262-2.386C8.528,0,4.859,2.958,3.773,6.964c.008-.005.02-.005.029-.01,1.092-.746,2.412-1.185,3.834-1.187h0c.46,0,.907.056,1.341.143.01-.003.022-.016.031-.015.991-1.089,2.396-1.71,3.868-1.709,1.243.003,2.388.442,3.288,1.168h0s2.971-2.97,2.971-2.97c0,0,0,0,.001.001Z"/>
    <path class="cls-5" d="m6.558,14.961h-.004s.004.005.007.006l-3.035,3.035c1.181.9,2.625,1.387,4.111,1.386v.003h5.236v-4.196h-5.236c-.372,0-.74-.08-1.078-.234Z"/>
    <path class="cls-1" d="m8.978,5.91c-.435-.087-.881-.143-1.341-.143h0c-1.422.002-2.742.44-3.834,1.187-1.795,1.227-2.975,3.287-2.978,5.625,0,2.212,1.06,4.179,2.699,5.425l.002-.002,3.035-3.035s-.004-.003-.007-.004c-.935-.425-1.536-1.356-1.537-2.383,0-1.445,1.177-2.619,2.619-2.619,1.062,0,1.975.64,2.388,1.544l3.037-3.037c-.986-1.298-2.429-2.223-4.084-2.556Z"/>
    <path class="cls-4" d="m21.982,6.973h0c-.487-1.797-1.49-3.383-2.845-4.586,0,0,0,0-.001-.001l-2.971,2.971v.003h.003c1.188.961,1.95,2.429,1.95,4.073v.524c.645,0,1.229.244,1.686.632,1.426-.186,3.013-.306,4.7-.359-.49-1.325-1.376-2.462-2.523-3.256Z"/>
  </g>
  <g>
    <path class="cls-3" d="m26.44,33.128c-7.491,0-13.562-1.322-13.562-2.953v6.872c0,1.63,6.072,2.953,13.562,2.953s13.56-1.322,13.56-2.953v-6.872c0,1.63-6.072,2.953-13.56,2.953Zm5.171,3.853c-.4,0-.725-.326-.725-.728s.325-.728.725-.728.725.326.725.728-.325.728-.725.728Zm2.486-.208c-.4,0-.725-.326-.725-.728s.325-.728.725-.728.725.326.725.728-.325.728-.725.728Zm2.486-.416c-.4,0-.725-.326-.725-.728s.325-.728.725-.728.725.326.725.728-.325.728-.725.728Z"/>
    <path class="cls-3" d="m26.44,24.289v.002c-7.491,0-13.562-1.32-13.562-2.951v7.234c0,1.63,6.072,2.951,13.562,2.951s13.56-1.322,13.56-2.953v-7.236c0,1.63-6.072,2.953-13.56,2.953Zm5.171,4.167c-.4,0-.725-.326-.725-.728s.325-.728.725-.728.725.326.725.728-.325.728-.725.728Zm2.486-.208c-.4,0-.725-.326-.725-.728s.325-.728.725-.728.725.326.725.728-.325.728-.725.728Zm2.486-.416c-.4,0-.725-.326-.725-.728s.325-.728.725-.728.725.326.725.728-.325.728-.725.728Z"/>
    <path class="cls-3" d="m26.44,10.195c-7.491,0-13.562,1.306-13.562,3.466v6.08c0,1.628,6.072,2.948,13.562,2.948s13.56-1.322,13.56-2.953v-5.855c0-2.383-6.072-3.687-13.56-3.687Zm5.171,9.527c-.4,0-.725-.326-.725-.728s.325-.728.725-.728.725.326.725.728-.325.728-.725.728Zm2.486-.208c-.4,0-.725-.326-.725-.728s.325-.728.725-.728.725.326.725.728-.325.728-.725.728Zm2.486-.416c-.4,0-.725-.326-.725-.728s.325-.728.725-.728.725.326.725.728-.325.728-.725.728Zm-10.142-3.529c-6.747,0-12.214-1.233-12.214-1.965,0-.896,5.467-2.283,12.214-2.283s12.214,1.443,12.214,2.283c0,.765-5.469,1.965-12.214,1.965Z"/>
  </g>
</svg>