<?xml version="1.0" encoding="UTF-8"?>
<svg id="Layer_1" data-name="Layer 1" xmlns="http://www.w3.org/2000/svg" viewBox="0 0 42 40.36">
  <metadata><?xpacket begin="﻿" id="W5M0MpCehiHzreSzNTczkc9d"?>
<x:xmpmeta xmlns:x="adobe:ns:meta/" x:xmptk="Adobe XMP Core 7.1-c000 79.4d2f597, 2021/09/01-20:51:22        ">
   <rdf:RDF xmlns:rdf="http://www.w3.org/1999/02/22-rdf-syntax-ns#">
      <rdf:Description rdf:about=""
            xmlns:dc="http://purl.org/dc/elements/1.1/"
            xmlns:xmpRights="http://ns.adobe.com/xap/1.0/rights/"
            xmlns:xmp="http://ns.adobe.com/xap/1.0/"
            xmlns:xmpMM="http://ns.adobe.com/xap/1.0/mm/"
            xmlns:stEvt="http://ns.adobe.com/xap/1.0/sType/ResourceEvent#">
         <dc:rights>
            <rdf:Alt>
               <rdf:li xml:lang="x-default">Oracle All Rights</rdf:li>
            </rdf:Alt>
         </dc:rights>
         <dc:subject>
            <rdf:Bag>
               <rdf:li>database</rdf:li>
               <rdf:li>idea</rdf:li>
               <rdf:li>icon</rdf:li>
            </rdf:Bag>
         </dc:subject>
         <xmpRights:Marked>True</xmpRights:Marked>
         <xmp:MetadataDate>2024-07-05T18:09:40-06:00</xmp:MetadataDate>
         <xmpMM:InstanceID>xmp.iid:daee63c1-bd5b-49ca-ba83-fade257a1bb4</xmpMM:InstanceID>
         <xmpMM:DocumentID>xmp.did:6c8f86bb-a307-483d-926b-13e6a217da38</xmpMM:DocumentID>
         <xmpMM:OriginalDocumentID>xmp.did:6c8f86bb-a307-483d-926b-13e6a217da38</xmpMM:OriginalDocumentID>
         <xmpMM:History>
            <rdf:Seq>
               <rdf:li>
                  <rdf:Description>
                     <stEvt:action>saved</stEvt:action>
                     <stEvt:instanceID>xmp.iid:6c8f86bb-a307-483d-926b-13e6a217da38</stEvt:instanceID>
                     <stEvt:when>2024-07-05T18:05:08-06:00</stEvt:when>
                     <stEvt:softwareAgent>Adobe Bridge 2023</stEvt:softwareAgent>
                     <stEvt:changed>/metadata</stEvt:changed>
                  </rdf:Description>
               </rdf:li>
               <rdf:li>
                  <rdf:Description>
                     <stEvt:action>saved</stEvt:action>
                     <stEvt:instanceID>xmp.iid:daee63c1-bd5b-49ca-ba83-fade257a1bb4</stEvt:instanceID>
                     <stEvt:when>2024-07-05T18:09:40-06:00</stEvt:when>
                     <stEvt:softwareAgent>Adobe Bridge 2023</stEvt:softwareAgent>
                     <stEvt:changed>/metadata</stEvt:changed>
                  </rdf:Description>
               </rdf:li>
            </rdf:Seq>
         </xmpMM:History>
      </rdf:Description>
   </rdf:RDF>
</x:xmpmeta>
                                                                                                    
                                                                                                    
                                                                                                    
                                                                                                    
                                                                                                    
                                                                                                    
                                                                                                    
                                                                                                    
                                                                                                    
                                                                                                    
                                                                                                    
                                                                                                    
                                                                                                    
                                
<?xpacket end="w"?></metadata>
<defs>
    <style>
      .cls-1 {
        fill: #fff;
      }

      .cls-2 {
        fill: #2d5967;
      }
    </style>
  </defs>
  <path class="cls-1" d="m42,8.11v3.58h-4.37c-.23.86-.58,1.5-.87,2.01l-.03.05c-.32.57-.47.84-.47,1.28v3.17l-.53.28-2.48,1.3h.64v14.66h-8.55v1.52c0,1.32-1.23,4.4-12.67,4.4-2.97,0-12.67-.32-12.67-4.4v-19.23c0-4.16,9.7-4.48,12.67-4.48s12.67.32,12.67,4.48v14.13h4.97v-11.08h.63l-2.47-1.3-.54-.28v-3.17c0-.44-.14-.71-.48-1.31-.07-.13-.15-.22-.22-.32-.32-.46-.59-.89-.74-1.71h-4.29v-3.58h4.44c.09-.27.21-.54.34-.79l-.35-.35-2.09-2.1-.71-.7.71-.71,1.12-1.12.7-.71.71.71,2.1,2.1.36.36c.25-.13.51-.24.78-.33V0h3.58v4.42c.29.09.56.21.83.34l.32-.32,2.09-2.1.71-.7.71.7,1.83,1.83-2.81,2.81-.32.31c.14.27.25.54.34.82h4.41Z"/>
  <g>
    <path class="cls-2" d="m24.34,16.73c0-2.75-7.34-3.48-11.67-3.48s-11.67.73-11.67,3.48,0,.08,0,.1v19.13c0,2.67,7.34,3.4,11.67,3.4s11.67-.71,11.67-3.4v-19.23Zm-1.58,12.86c-.24.44-3.09,1.84-10.09,1.84s-9.85-1.42-10.09-1.84v-4.45c2.39,1.17,7,1.54,10.09,1.54s7.7-.36,10.09-1.54v4.45Zm0-6.33c-.24.44-3.09,1.84-10.09,1.84s-9.85-1.42-10.09-1.84v-4.61c2.39,1.21,7,1.58,10.09,1.58s7.7-.38,10.09-1.58v4.61Zm-10.09-8.43c6.09,0,9.77,1.23,10.09,1.9-.32.67-3.98,1.9-10.09,1.9s-9.77-1.23-10.09-1.9c.32-.67,3.98-1.9,10.09-1.9Zm0,22.95c-7,0-9.85-1.42-10.09-1.84v-4.45c2.39,1.17,7,1.54,10.09,1.54s7.7-.36,10.09-1.54v4.45c-.24.44-3.09,1.84-10.09,1.84Z"/>
    <g>
      <rect class="cls-2" x="38.03" y="9.11" width="2.97" height="1.58"/>
      <rect class="cls-2" x="23.2" y="9.11" width="2.97" height="1.58"/>
      <rect class="cls-2" x="35.87" y="3.87" width="2.97" height="1.58" transform="translate(7.64 27.78) rotate(-45)"/>
      <rect class="cls-2" x="31.31" y="1" width="1.58" height="2.97"/>
      <rect class="cls-2" x="26.06" y="3.17" width="1.58" height="2.97" transform="translate(4.57 20.35) rotate(-45)"/>
      <path class="cls-2" d="m32.16,5.16c-2.61,0-4.81,2.16-4.81,4.69s.53,2.61.97,3.38c.34.59.61,1.07.61,1.8v2.57l3.17,1.66,3.17-1.66v-2.57c0-.73.28-1.21.61-1.8.44-.77.99-1.74.99-3.38,0-2.59-2.1-4.69-4.69-4.69h-.02Zm1.52,11.51l-1.58.83-1.58-.83v-.83h3.17v.83Zm.81-4.21c-.28.51-.59,1.07-.73,1.8h-.87v-2.57h-1.58v2.57h-.87c-.14-.73-.45-1.29-.73-1.8-.4-.71-.77-1.38-.77-2.61s1.29-3.11,3.22-3.11,3.11,1.62,3.11,3.11-.38,1.9-.77,2.61h0Z"/>
      <rect class="cls-2" x="31.31" y="31.86" width="1.58" height="1.58"/>
      <rect class="cls-2" x="28.54" y="31.86" width="1.58" height="1.58"/>
      <rect class="cls-2" x="25.77" y="31.86" width="1.58" height="1.58"/>
      <rect class="cls-2" x="31.31" y="29.09" width="1.58" height="1.58"/>
      <rect class="cls-2" x="31.31" y="26.32" width="1.58" height="1.58"/>
      <rect class="cls-2" x="31.31" y="23.55" width="1.58" height="1.58"/>
      <rect class="cls-2" x="31.31" y="20.78" width="1.58" height="1.58"/>
    </g>
  </g>
</svg>