<svg id="Layer_1" data-name="Layer 1" xmlns="http://www.w3.org/2000/svg" viewBox="0 0 50.09 42"><defs><style>.cls-1{fill:#fff;}.cls-2{fill:none;}.cls-3{fill:#2c5967;}</style></defs><title>WebLogic Server</title><metadata><?xpacket begin="﻿" id="W5M0MpCehiHzreSzNTczkc9d"?>
<x:xmpmeta xmlns:x="adobe:ns:meta/" x:xmptk="Adobe XMP Core 6.0-c006 79.164648, 2021/01/12-15:52:29        ">
   <rdf:RDF xmlns:rdf="http://www.w3.org/1999/02/22-rdf-syntax-ns#">
      <rdf:Description rdf:about=""
            xmlns:xmpRights="http://ns.adobe.com/xap/1.0/rights/"
            xmlns:xmp="http://ns.adobe.com/xap/1.0/"
            xmlns:xmpMM="http://ns.adobe.com/xap/1.0/mm/"
            xmlns:stEvt="http://ns.adobe.com/xap/1.0/sType/ResourceEvent#"
            xmlns:dc="http://purl.org/dc/elements/1.1/"
            xmlns:lr="http://ns.adobe.com/lightroom/1.0/">
         <xmpRights:Marked>True</xmpRights:Marked>
         <xmp:MetadataDate>2021-06-24T19:53:45-05:00</xmp:MetadataDate>
         <xmpMM:InstanceID>xmp.iid:1a310871-a995-48d6-8240-48f56763cce4</xmpMM:InstanceID>
         <xmpMM:DocumentID>xmp.did:53874a8f-25ec-4c2c-8dbf-0770dede7932</xmpMM:DocumentID>
         <xmpMM:OriginalDocumentID>xmp.did:53874a8f-25ec-4c2c-8dbf-0770dede7932</xmpMM:OriginalDocumentID>
         <xmpMM:History>
            <rdf:Seq>
               <rdf:li>
                  <rdf:Description>
                     <stEvt:action>saved</stEvt:action>
                     <stEvt:instanceID>xmp.iid:53874a8f-25ec-4c2c-8dbf-0770dede7932</stEvt:instanceID>
                     <stEvt:when>2021-06-23T15:54:05-05:00</stEvt:when>
                     <stEvt:softwareAgent>Adobe Bridge 2021 (Macintosh)</stEvt:softwareAgent>
                     <stEvt:changed>/metadata</stEvt:changed>
                  </rdf:Description>
               </rdf:li>
               <rdf:li>
                  <rdf:Description>
                     <stEvt:action>saved</stEvt:action>
                     <stEvt:instanceID>xmp.iid:1a310871-a995-48d6-8240-48f56763cce4</stEvt:instanceID>
                     <stEvt:when>2021-06-24T19:53:45-05:00</stEvt:when>
                     <stEvt:softwareAgent>Adobe Bridge 2021 (Macintosh)</stEvt:softwareAgent>
                     <stEvt:changed>/metadata</stEvt:changed>
                  </rdf:Description>
               </rdf:li>
            </rdf:Seq>
         </xmpMM:History>
         <dc:title>
            <rdf:Alt>
               <rdf:li xml:lang="x-default">WebLogic Server</rdf:li>
            </rdf:Alt>
         </dc:title>
         <dc:rights>
            <rdf:Alt>
               <rdf:li xml:lang="x-default">Oracle All Rights Reserved</rdf:li>
            </rdf:Alt>
         </dc:rights>
         <dc:subject>
            <rdf:Bag>
               <rdf:li>icon</rdf:li>
               <rdf:li>technology</rdf:li>
               <rdf:li>Hardware</rdf:li>
            </rdf:Bag>
         </dc:subject>
         <lr:hierarchicalSubject>
            <rdf:Bag>
               <rdf:li>icon</rdf:li>
               <rdf:li>technology</rdf:li>
               <rdf:li>Hardware</rdf:li>
            </rdf:Bag>
         </lr:hierarchicalSubject>
      </rdf:Description>
   </rdf:RDF>
</x:xmpmeta>
                                                                                                    
                                                                                                    
                                                                                                    
                                                                                                    
                                                                                                    
                                                                                                    
                                                                                                    
                                                                                                    
                                                          
<?xpacket end="w"?></metadata>
<polygon class="cls-1" points="0.5 41.5 0.5 39.84 2.59 38.8 3.06 38.8 3.06 0.5 23.63 0.5 23.63 38.8 24.1 38.8 26.19 39.84 26.19 41.5 0.5 41.5"/><path class="cls-1" d="M23.13,1V39.3H24l1.71.85V41H1v-.85l1.71-.85h.85V1H23.13m1-1H2.56V38.3H2.47l-.21.1-1.71.85L0,39.53V42H26.69V39.53l-.56-.28-1.7-.85-.21-.1h-.09V0Z"/><rect class="cls-1" x="23.91" y="9.01" width="25.68" height="24.4"/><path class="cls-1" d="M49.09,9.51v23.4H24.41V9.51H49.09m1-1H23.41v25.4H50.09V8.51Z"/><rect class="cls-2" x="9.94" y="9.94" width="6.81" height="1.7"/><path class="cls-2" d="M26.11,15.47H47.39V11.21H26.11Zm8.51-3a.85.85,0,1,1-.85.85A.85.85,0,0,1,34.62,12.49Zm-3,0a.85.85,0,1,1-.85.85A.85.85,0,0,1,31.64,12.49Zm-3,0a.85.85,0,1,1-.85.85A.85.85,0,0,1,28.66,12.49Z"/><path class="cls-2" d="M5.26,39.3H21.43V2.7H5.26Zm1.28-34H20.15V7H6.54Zm0,4.68h1.7V8.23H18.45V9.94h1.7v1.7h-1.7v1.7H8.24v-1.7H6.54Zm0,4.68H20.15v1.7H6.54Zm0,3H20.15v5.95H6.54Zm0,7.23H20.15v6H6.54Zm0,7.23H20.15v1.71H6.54Zm0,3H20.15v1.7H6.54Z"/><rect class="cls-2" x="8.24" y="19.3" width="10.21" height="2.55"/><rect class="cls-2" x="8.24" y="26.53" width="10.21" height="2.55"/><rect class="cls-2" x="26.11" y="17.17" width="7.66" height="1.28"/><rect class="cls-2" x="35.47" y="17.17" width="11.91" height="1.28"/><path class="cls-2" d="M26.11,31.21H47.39V20.15H26.11Zm11.06-3h8.51v1.71H37.17Zm-9.36,0,5.11-2.55-5.11-2.55v-1.7l8.09,4v.42l-8.09,4.05Z"/><path class="cls-3" d="M8.24,13.34H18.45v-1.7h1.7V9.94h-1.7V8.23H8.24V9.94H6.54v1.7h1.7Zm1.7-3.4h6.81v1.7H9.94Z"/><rect class="cls-3" x="6.54" y="5.26" width="13.62" height="1.7"/><rect class="cls-3" x="6.54" y="14.62" width="13.62" height="1.7"/><rect class="cls-3" x="6.54" y="35.04" width="13.62" height="1.7"/><rect class="cls-3" x="6.54" y="32.06" width="13.62" height="1.7"/><path class="cls-3" d="M20.15,24.83H6.54v6H20.15Zm-1.7,4.26H8.24V26.53H18.45Z"/><path class="cls-3" d="M20.15,17.6H6.54v5.95H20.15Zm-1.7,4.25H8.24V19.3H18.45Z"/><path class="cls-3" d="M24,39.3h-.85V1H3.56V39.3H2.71L1,40.15V41H25.69v-.85L24,39.3Zm-2.55,0H5.26V2.7H21.43Z"/><path class="cls-3" d="M24.41,9.51v23.4H49.09V9.51Zm1.7,7.66h7.66v1.28H26.11Zm21.28,14H26.11V20.15H47.39Zm0-12.76H35.47V17.17H47.39Zm0-3H26.11V11.21H47.39Z"/><circle class="cls-3" cx="28.66" cy="13.34" r="0.85"/><circle class="cls-3" cx="31.64" cy="13.34" r="0.85"/><circle class="cls-3" cx="34.62" cy="13.34" r="0.85"/><polygon class="cls-3" points="35.9 25.47 27.81 21.43 27.81 23.13 32.92 25.68 27.81 28.23 27.81 29.94 35.9 25.89 35.9 25.47"/><rect class="cls-3" x="37.17" y="28.23" width="8.51" height="1.7"/></svg>