<?xml version="1.0" encoding="utf-8"?>
<!-- Generator: Adobe Illustrator 24.0.2, SVG Export Plug-In . SVG Version: 6.00 Build 0)  -->
<svg version="1.1" id="guides" xmlns="http://www.w3.org/2000/svg" xmlns:xlink="http://www.w3.org/1999/xlink" x="0px" y="0px"
	 viewBox="0 0 42 40.56" style="enable-background:new 0 0 42 40.56;" xml:space="preserve">
<metadata><?xpacket begin="﻿" id="W5M0MpCehiHzreSzNTczkc9d"?>
<x:xmpmeta xmlns:x="adobe:ns:meta/" x:xmptk="Adobe XMP Core 7.1-c000 79.4d2f597, 2021/09/01-20:51:22        ">
   <rdf:RDF xmlns:rdf="http://www.w3.org/1999/02/22-rdf-syntax-ns#">
      <rdf:Description rdf:about=""
            xmlns:dc="http://purl.org/dc/elements/1.1/"
            xmlns:xmpRights="http://ns.adobe.com/xap/1.0/rights/"
            xmlns:xmp="http://ns.adobe.com/xap/1.0/"
            xmlns:xmpMM="http://ns.adobe.com/xap/1.0/mm/"
            xmlns:stEvt="http://ns.adobe.com/xap/1.0/sType/ResourceEvent#">
         <dc:subject>
            <rdf:Bag>
               <rdf:li>earth</rdf:li>
               <rdf:li>globe</rdf:li>
               <rdf:li>world</rdf:li>
               <rdf:li>data</rdf:li>
               <rdf:li>map</rdf:li>
            </rdf:Bag>
         </dc:subject>
         <dc:rights>
            <rdf:Alt>
               <rdf:li xml:lang="x-default">Oracle All Rights</rdf:li>
            </rdf:Alt>
         </dc:rights>
         <xmpRights:Marked>True</xmpRights:Marked>
         <xmp:MetadataDate>2024-04-25T16:28:23-06:00</xmp:MetadataDate>
         <xmpMM:InstanceID>xmp.iid:62b95e59-929e-42c5-b944-b99884136e1f</xmpMM:InstanceID>
         <xmpMM:DocumentID>xmp.did:62b95e59-929e-42c5-b944-b99884136e1f</xmpMM:DocumentID>
         <xmpMM:OriginalDocumentID>xmp.did:62b95e59-929e-42c5-b944-b99884136e1f</xmpMM:OriginalDocumentID>
         <xmpMM:History>
            <rdf:Seq>
               <rdf:li>
                  <rdf:Description>
                     <stEvt:action>saved</stEvt:action>
                     <stEvt:instanceID>xmp.iid:62b95e59-929e-42c5-b944-b99884136e1f</stEvt:instanceID>
                     <stEvt:when>2024-04-25T16:28:23-06:00</stEvt:when>
                     <stEvt:softwareAgent>Adobe Bridge 2023</stEvt:softwareAgent>
                     <stEvt:changed>/metadata</stEvt:changed>
                  </rdf:Description>
               </rdf:li>
            </rdf:Seq>
         </xmpMM:History>
      </rdf:Description>
   </rdf:RDF>
</x:xmpmeta>
                                                                                                    
                                                                                                    
                                                                                                    
                                                                                                    
                                                                                                    
                                                                                                    
                                                                                                    
                                                                                                    
                                                                                                    
                                                                                                    
                                                                                                    
                                                                                                    
                                                                                                    
                                                                                                    
                                                                                                    
                                                                                                    
                                                                                                    
                                                                                                    
                                                                                                    
                                                                                                    
                           
<?xpacket end="w"?></metadata>
<style type="text/css">
	.st0{fill:#FFFFFF;}
	.st1{fill:#2C5967;}
</style>
<g>
	<path class="st0" d="M42,17.044c0-1.07-0.756-1.854-2.217-2.362l-0.203-0.627C36.863,5.648,29.106,0,20.28,0
		C9.097,0,0,9.097,0,20.28s9.097,20.28,20.28,20.28c7.051,0,13.706-3.762,17.367-9.817l0.395-0.653
		C40.222,29.743,42,28.949,42,27.271v-3.407v-0.071v-3.283V20.31v-3.194v-0.071l0,0L42,17.044z"/>
	<g>
		<path class="st1" d="M20.28,38.23c-9.898,0-17.95-8.052-17.95-17.95c0-3.131,0.807-6.077,2.222-8.643h1.601v0.499l-0.76,1.909
			c-0.074,0.178-0.067,0.38,0.019,0.553l2.417,4.835c0.096,0.191,0.277,0.325,0.488,0.359c0.211,0.034,0.426-0.035,0.577-0.186
			l0.463-0.463l0.168,0.252l0.147,0.734c0.029,0.145,0.105,0.276,0.217,0.373l3.799,3.281c0.073,0.063,0.159,0.11,0.252,0.136
			l1.854,0.516v1.662c0,0.125,0.1,0.227,0.166,0.332l1.662,2.493v6.981c0,0.137,0.022,0.206,0.1,0.318c0,0,0.565,1.178,1.562,1.178
			s1.828-0.499,1.828-0.499s0.332-0.236,0.332-0.499v-1.163l0.997-0.665c0.194-0.121,0.332-0.436,0.332-0.665v-1.662l3.064-1.651
			c0.142-0.078,0.251-0.206,0.306-0.359c0,0,0.952-2.568,0.952-2.644v-2.992c0-0.222-0.161-0.37-0.346-0.494l-1.554-1.036
			c-0.109-0.073-0.296-0.132-0.427-0.132h-1.163l-1.226-0.271l-1.597-1.437c-0.139-0.125-0.323-0.185-0.511-0.167l-3.163,0.317
			l-1.336-1.188c-0.122-0.108-0.279-0.168-0.442-0.168h-0.824l-0.35-1.984l0.186-0.14h1.044l0.356,0.95
			c0.082,0.219,0.273,0.379,0.503,0.421l1.899,0.345c0.227,0.041,0.458-0.037,0.612-0.208c0.154-0.17,0.21-0.408,0.147-0.629
			l-0.649-2.273l0.101-0.604l0.492-0.328l-0.959-0.959l-0.511,0.34c-0.153,0.102-0.257,0.263-0.287,0.444l-0.173,1.036
			c-0.016,0.097-0.011,0.197,0.017,0.292l0.397,1.389l-0.476-0.087l-0.385-1.028c-0.097-0.26-0.345-0.431-0.622-0.431h-1.727
			c-0.144,0-0.284,0.047-0.399,0.133l-0.691,0.518c-0.2,0.15-0.299,0.401-0.256,0.647l0.518,2.935
			c0.056,0.318,0.332,0.549,0.655,0.549h1.129l1.365,1.213c0.139,0.124,0.321,0.183,0.508,0.165l3.161-0.316l1.508,1.357
			c0.085,0.077,0.189,0.13,0.3,0.155l1.353,0.341c0.166,0,1.33,0,1.33,0l1.163,0.665v2.493l-0.789,2.126l-3.2,1.697
			c-0.212,0.117-0.332,0.422-0.332,0.665v1.662l-1.114,0.708c-0.194,0.121-0.216,0.393-0.216,0.622v0.997
			c0,0-0.332,0.166-0.665,0.166c-0.332,0-0.499-0.332-0.499-0.332v-6.981c0-0.125-0.1-0.227-0.166-0.332l-1.662-2.493v-1.994
			c0-0.297-0.213-0.583-0.499-0.665l-2.179-0.591l-3.515-3.036l-0.128-0.64c-0.017-0.085-0.05-0.166-0.099-0.238l-0.691-1.036
			c-0.111-0.166-0.289-0.273-0.488-0.293c-0.199-0.02-0.395,0.051-0.536,0.191l-0.384,0.384l-1.869-3.737l0.746-1.808
			c0.034-0.081,0-0.245,0-0.332v-1.163c0-0.367-0.464-0.665-0.831-0.665H5.362c1.823-2.718,4.369-4.912,7.36-6.307l2.397,1.692
			c0.088,0.062,0.189,0.102,0.296,0.116l2.367,0.316l0.664,0.664l-0.113,0.17l-1.771-0.545c-0.246-0.076-0.514-0.003-0.688,0.188
			l-1.727,1.899c-0.111,0.122-0.173,0.282-0.173,0.447v1.036c0,0.339,0.255,0.623,0.591,0.661l1.054,0.117l0.09,0.54
			c0.053,0.321,0.256,0.501,0.581,0.501h1.496c0.331,0,0.571-0.189,0.618-0.516l0.114-0.802l1.164-0.388
			c0.03-0.01,0.059-0.022,0.087-0.036L20.493,9.7l0.08,0.045c0.276-0.368,0.587-0.709,0.928-1.018l-0.668-0.36
			c-0.192-0.107-0.424-0.111-0.62-0.013l-0.994,0.497l-1.509,0.503c-0.239,0.08-0.412,0.287-0.448,0.537l-0.091,0.638h-0.242
			l-0.08-0.48c-0.049-0.293-0.287-0.519-0.582-0.551l-0.962-0.107V9.205l1.27-1.397l1.841,0.567C18.695,8.462,19,8.353,19.163,8.109
			l0.691-1.036c0.176-0.264,0.141-0.615-0.083-0.839l-1.209-1.209c-0.103-0.103-0.237-0.17-0.382-0.189l-2.428-0.324l-1.577-1.113
			c0.63-0.229,1.276-0.422,1.937-0.58l0.168,0.589c0.073,0.254,0.289,0.441,0.551,0.476l2.59,0.345
			c0.03,0.004,0.059,0.006,0.088,0.006c0.281,0,0.536-0.178,0.629-0.45c0.118-0.346,0.216-0.635,0.298-0.877
			c-0.105-0.146-0.134-0.312,0.138-0.411c0.019-0.058,0.038-0.113,0.054-0.163c0.498,0.01,0.991,0.038,1.479,0.088v0.023
			c0.448,0.037,1.003,0.105,1.689,0.212c2.615,0.408,4.728,1.529,6.158,2.513c0.194,0.125,0.386,0.252,0.575,0.383l-0.017,0.018
			c0.435,0.327,0.781,0.622,1.032,0.85l0.056-0.058c2.487,2.027,4.422,4.707,5.543,7.774c0.529,0.058,1.028,0.133,1.484,0.225
			C36.125,6.617,28.847,1,20.28,1C9.649,1,1,9.649,1,20.28c0,10.631,8.649,19.28,19.28,19.28c6.995,0,13.131-3.745,16.511-9.334
			c-0.525,0.048-1.073,0.08-1.637,0.093C31.924,35.088,26.462,38.23,20.28,38.23z M19.217,2.362
			c-0.051,0.153-0.106,0.314-0.161,0.477l-1.617-0.216L17.42,2.558C18.01,2.464,18.609,2.398,19.217,2.362z"/>
		<path class="st1" d="M35.67,15.025l-0.393,0.393l-0.914,0.914c0.079-0.001,0.156-0.002,0.237-0.002c2.601,0,4.287,0.41,4.89,0.714
			c-0.603,0.304-2.289,0.714-4.89,0.714c-0.812,0-1.534-0.04-2.163-0.104c-0.263,0.442-0.572,0.852-0.92,1.225
			c1.308,0.189,2.61,0.208,3.082,0.208c0.726,0,3.417-0.046,5.069-0.685v2.001c-0.357,0.305-2.126,0.834-5.069,0.834
			s-4.713-0.529-5.069-0.834v-0.02c-0.421,0.216-0.866,0.391-1.33,0.521v2.89v0.071v3.407c0,1.957,5.33,2.056,6.399,2.056
			S41,29.228,41,27.271v-3.407v-0.071v-3.283V20.31v-3.194c0-0.011-0.003-0.022-0.003-0.034C40.997,17.069,41,17.057,41,17.044
			C41,15.485,37.58,15.112,35.67,15.025z M39.67,27.164c-0.357,0.305-2.126,0.834-5.069,0.834s-4.712-0.529-5.069-0.834v-1.932
			c1.652,0.643,4.343,0.689,5.069,0.689s3.417-0.046,5.069-0.689V27.164z M39.67,23.757c-0.357,0.305-2.126,0.834-5.069,0.834
			s-4.712-0.529-5.069-0.834v-1.879c1.652,0.643,4.343,0.689,5.069,0.689s3.417-0.046,5.069-0.689V23.757z"/>
		<path class="st1" d="M22.286,14.644L22.286,14.644l1.318-1.318l-0.94-0.94l-1.169,1.169c0.235-2.44,2.296-4.355,4.797-4.355
			c1.809,0,3.426,1.013,4.249,2.542l0.531-0.531l0.441-0.441c-1.098-1.758-3.051-2.9-5.22-2.9c-3.248,0-5.914,2.531-6.133,5.724
			l-1.208-1.208l-0.94,0.94l2.797,2.797l0.531-0.531L22.286,14.644z"/>
		<path class="st1" d="M32.424,14.445l1.208,1.208l0.94-0.94l-2.797-2.797l-2.797,2.797l0.94,0.94l1.169-1.169
			c-0.235,2.44-2.296,4.355-4.797,4.355c-1.809,0-3.426-1.013-4.249-2.542l-0.972,0.972c1.098,1.758,3.051,2.9,5.22,2.9
			C29.539,20.169,32.205,17.638,32.424,14.445z"/>
		<path class="st1" d="M23.781,16.895h1.374l0.308-1.348h1.595l0.308,1.348h1.418l-1.841-6.404h-1.312L23.781,16.895z
			 M26.265,12.059l0.546,2.396H25.71L26.265,12.059z"/>
	</g>
</g>
</svg>
