<svg id="Layer_1" data-name="Layer 1" xmlns="http://www.w3.org/2000/svg" viewBox="0 0 40.84 42"><title>Oracle-Fusion-Cloud-Accounting-Hub-Cloud-Service</title><metadata><?xpacket begin="﻿" id="W5M0MpCehiHzreSzNTczkc9d"?>
<x:xmpmeta xmlns:x="adobe:ns:meta/" x:xmptk="Adobe XMP Core 6.0-c006 79.164648, 2021/01/12-15:52:29        ">
   <rdf:RDF xmlns:rdf="http://www.w3.org/1999/02/22-rdf-syntax-ns#">
      <rdf:Description rdf:about=""
            xmlns:xmp="http://ns.adobe.com/xap/1.0/"
            xmlns:xmpMM="http://ns.adobe.com/xap/1.0/mm/"
            xmlns:stEvt="http://ns.adobe.com/xap/1.0/sType/ResourceEvent#"
            xmlns:dc="http://purl.org/dc/elements/1.1/"
            xmlns:lr="http://ns.adobe.com/lightroom/1.0/"
            xmlns:xmpRights="http://ns.adobe.com/xap/1.0/rights/">
         <xmp:MetadataDate>2022-01-29T10:37:57-06:00</xmp:MetadataDate>
         <xmpMM:InstanceID>xmp.iid:32b99735-279f-4e98-98c5-b825c42e2af7</xmpMM:InstanceID>
         <xmpMM:DocumentID>xmp.did:35a59df4-e8c8-5444-b3a5-3afcb7852880</xmpMM:DocumentID>
         <xmpMM:OriginalDocumentID>xmp.did:35a59df4-e8c8-5444-b3a5-3afcb7852880</xmpMM:OriginalDocumentID>
         <xmpMM:History>
            <rdf:Seq>
               <rdf:li>
                  <rdf:Description>
                     <stEvt:action>saved</stEvt:action>
                     <stEvt:instanceID>xmp.iid:35a59df4-e8c8-5444-b3a5-3afcb7852880</stEvt:instanceID>
                     <stEvt:when>2022-01-28T12:21:13-06:00</stEvt:when>
                     <stEvt:softwareAgent>Adobe Bridge 2020 (Windows)</stEvt:softwareAgent>
                     <stEvt:changed>/metadata</stEvt:changed>
                  </rdf:Description>
               </rdf:li>
               <rdf:li>
                  <rdf:Description>
                     <stEvt:action>saved</stEvt:action>
                     <stEvt:instanceID>xmp.iid:32b99735-279f-4e98-98c5-b825c42e2af7</stEvt:instanceID>
                     <stEvt:when>2022-01-29T10:37:57-06:00</stEvt:when>
                     <stEvt:softwareAgent>Adobe Bridge 2021 (Macintosh)</stEvt:softwareAgent>
                     <stEvt:changed>/metadata</stEvt:changed>
                  </rdf:Description>
               </rdf:li>
            </rdf:Seq>
         </xmpMM:History>
         <dc:title>
            <rdf:Alt>
               <rdf:li xml:lang="x-default">Oracle-Fusion-Cloud-Accounting-Hub-Cloud-Service</rdf:li>
            </rdf:Alt>
         </dc:title>
         <dc:subject>
            <rdf:Bag>
               <rdf:li>Oracle</rdf:li>
               <rdf:li>Fusion</rdf:li>
               <rdf:li>Cloud</rdf:li>
               <rdf:li>Accounting</rdf:li>
               <rdf:li>Hub</rdf:li>
               <rdf:li>calculator</rdf:li>
               <rdf:li>balance sheet</rdf:li>
               <rdf:li>icon</rdf:li>
            </rdf:Bag>
         </dc:subject>
         <dc:rights>
            <rdf:Alt>
               <rdf:li xml:lang="x-default">Oracle All Rights Reserved</rdf:li>
            </rdf:Alt>
         </dc:rights>
         <lr:hierarchicalSubject>
            <rdf:Bag>
               <rdf:li>icon</rdf:li>
            </rdf:Bag>
         </lr:hierarchicalSubject>
         <xmpRights:Marked>True</xmpRights:Marked>
      </rdf:Description>
   </rdf:RDF>
</x:xmpmeta>
                                                                                                    
                                                                                                    
                                                                                                    
                                                                                                    
                                                                                                    
                                                                                                    
                                                                                                    
                                                                                                    
                                                                                                    
                                                                                                  
<?xpacket end="w"?></metadata>
<path d="M26.73,41.5a2.38,2.38,0,0,1-2.38-2.37v-3H11.24V20.87H.54l.1-1.44A9.62,9.62,0,0,1,5.79,11.6,2.31,2.31,0,0,0,7,10a7.4,7.4,0,0,1,4.27-5.33,7.56,7.56,0,0,1,3-.62c.23,0,.46,0,.68,0h.23a2.16,2.16,0,0,0,1.62-.69A9,9,0,0,1,31.48,5.5,2.39,2.39,0,0,0,33.1,6.76a9.23,9.23,0,0,1,6.14,13.41l-.38.7H32v5.05h4.34a2.38,2.38,0,0,1,2.37,2.38V39.13a2.38,2.38,0,0,1-2.37,2.37Z" fill="#fff"/><path d="M23.4,1A8.47,8.47,0,0,1,31,5.73a2.9,2.9,0,0,0,2,1.51A8.75,8.75,0,0,1,38.8,19.93l-.24.43H31.47v6.06h4.84a1.88,1.88,0,0,1,1.87,1.88V39.13A1.87,1.87,0,0,1,36.31,41H26.73a1.88,1.88,0,0,1-1.88-1.87V35.59H11.74V20.36H1.08l.06-.89A9.12,9.12,0,0,1,6,12a2.78,2.78,0,0,0,1.47-1.95,6.85,6.85,0,0,1,4-5,7,7,0,0,1,2.77-.58l.64,0h.27a2.68,2.68,0,0,0,2-.85A8.58,8.58,0,0,1,23.4,1m0-1a9.53,9.53,0,0,0-7,3.05,1.71,1.71,0,0,1-1.26.53H15c-.24,0-.49,0-.73,0A7.89,7.89,0,0,0,6.51,9.9a1.84,1.84,0,0,1-1,1.26A10.08,10.08,0,0,0,.15,19.4l-.07.89L0,21.36H10.74V36.59H23.85v2.54A2.88,2.88,0,0,0,26.73,42h9.58a2.88,2.88,0,0,0,2.87-2.87V28.3a2.88,2.88,0,0,0-2.87-2.88H32.47V21.36h6.69l.28-.52.24-.44A9.77,9.77,0,0,0,36.29,7.54a9.65,9.65,0,0,0-3.08-1.27,1.9,1.9,0,0,1-1.28-1A9.49,9.49,0,0,0,23.4,0Z" fill="#fff"/><polygon points="27.03 13.02 27.03 15.23 29.24 15.23 27.03 13.02" fill="none"/><path d="M29.8,26.42V16.9H25.36V12.27H13.41V33.92H24.85V28.3a1.88,1.88,0,0,1,1.88-1.88ZM15.69,18.51H27.56v1.67H15.69Zm7.92,9.58H15.69V26.42h7.92Zm-7.92-4.16V22.26H27.56v1.67Z" fill="none"/><path d="M36.31,28.09H26.73a.21.21,0,0,0-.21.21V39.13a.2.2,0,0,0,.21.2h9.58a.2.2,0,0,0,.2-.2V28.3A.2.2,0,0,0,36.31,28.09Zm-6.87,10H27.77V36.42h1.67Zm0-2.91H27.77V33.5h1.67Zm2.91,2.91H30.68V36.42h1.67Zm0-2.91H30.68V33.5h1.67Zm2.92,2.91H33.6V33.5h1.67Zm0-5.83h-7.5V29.34h7.5Z" fill="none"/><path d="M35.76,8.38A8.82,8.82,0,0,0,33,7.24a2.86,2.86,0,0,1-2-1.51,8.54,8.54,0,0,0-13.9-2,2.7,2.7,0,0,1-2.26.84,6.87,6.87,0,0,0-7.39,5.52A2.78,2.78,0,0,1,6,12a9.12,9.12,0,0,0-4.88,7.43l-.06.89h9.41V18.7H2.92A7.46,7.46,0,0,1,6.8,13.52a4.51,4.51,0,0,0,2.33-3.11,5.17,5.17,0,0,1,3-3.76,5.09,5.09,0,0,1,2.58-.42,4.37,4.37,0,0,0,3.64-1.37,6.92,6.92,0,0,1,5-2.19,6.81,6.81,0,0,1,6.14,3.8,4.54,4.54,0,0,0,3.09,2.4,7.21,7.21,0,0,1,2.24.92,7.11,7.11,0,0,1,2.68,8.91H32.71v1.66h5.85l.24-.43A8.78,8.78,0,0,0,35.76,8.38Z" fill="#2c5967"/><rect x="15.69" y="22.26" width="11.87" height="1.67" fill="#2c5967"/><rect x="15.69" y="26.42" width="7.91" height="1.67" fill="#2c5967"/><rect x="15.69" y="18.51" width="11.87" height="1.67" fill="#2c5967"/><path d="M36.31,26.42H31.47V15.1L27,10.6H11.74v25H24.85v3.54A1.88,1.88,0,0,0,26.73,41h9.58a1.87,1.87,0,0,0,1.87-1.87V28.3A1.88,1.88,0,0,0,36.31,26.42ZM27,13l2.21,2.22H27ZM24.85,28.3v5.62H13.41V12.27h12V16.9H29.8v9.52H26.73A1.88,1.88,0,0,0,24.85,28.3ZM36.51,39.13a.2.2,0,0,1-.2.2H26.73a.2.2,0,0,1-.21-.2V28.3a.21.21,0,0,1,.21-.21h9.58a.2.2,0,0,1,.2.21Z" fill="#2c5967"/><rect x="27.77" y="29.34" width="7.5" height="2.92" fill="#2c5967"/><rect x="27.77" y="33.5" width="1.67" height="1.67" fill="#2c5967"/><rect x="30.68" y="33.5" width="1.67" height="1.67" fill="#2c5967"/><rect x="27.77" y="36.42" width="1.67" height="1.67" fill="#2c5967"/><rect x="30.68" y="36.42" width="1.67" height="1.67" fill="#2c5967"/><rect x="33.6" y="33.5" width="1.67" height="4.58" fill="#2c5967"/><polygon points="27.03 13.02 27.03 15.23 29.24 15.23 27.03 13.02" fill="none"/><path d="M29.8,26.42V16.9H25.36V12.27H13.41V33.92H24.85V28.3a1.88,1.88,0,0,1,1.88-1.88ZM15.69,18.51H27.56v1.67H15.69Zm7.92,9.58H15.69V26.42h7.92Zm-7.92-4.16V22.26H27.56v1.67Z" fill="none"/><path d="M36.31,28.09H26.73a.21.21,0,0,0-.21.21V39.13a.2.2,0,0,0,.21.2h9.58a.2.2,0,0,0,.2-.2V28.3A.2.2,0,0,0,36.31,28.09Zm-6.87,10H27.77V36.42h1.67Zm0-2.91H27.77V33.5h1.67Zm2.91,2.91H30.68V36.42h1.67Zm0-2.91H30.68V33.5h1.67Zm2.92,2.91H33.6V33.5h1.67Zm0-5.83h-7.5V29.34h7.5Z" fill="none"/><path d="M35.76,8.38A8.82,8.82,0,0,0,33,7.24a2.86,2.86,0,0,1-2-1.51,8.54,8.54,0,0,0-13.9-2,2.7,2.7,0,0,1-2.26.84,6.87,6.87,0,0,0-7.39,5.52A2.78,2.78,0,0,1,6,12a9.12,9.12,0,0,0-4.88,7.43l-.06.89h9.41V18.7H2.92A7.46,7.46,0,0,1,6.8,13.52a4.51,4.51,0,0,0,2.33-3.11,5.17,5.17,0,0,1,3-3.76,5.09,5.09,0,0,1,2.58-.42,4.37,4.37,0,0,0,3.64-1.37,6.92,6.92,0,0,1,5-2.19,6.81,6.81,0,0,1,6.14,3.8,4.54,4.54,0,0,0,3.09,2.4,7.21,7.21,0,0,1,2.24.92,7.11,7.11,0,0,1,2.68,8.91H32.71v1.66h5.85l.24-.43A8.78,8.78,0,0,0,35.76,8.38Z" fill="#2c5967"/><rect x="15.69" y="22.26" width="11.87" height="1.67" fill="#2c5967"/><rect x="15.69" y="26.42" width="7.91" height="1.67" fill="#2c5967"/><rect x="15.69" y="18.51" width="11.87" height="1.67" fill="#2c5967"/><path d="M36.31,26.42H31.47V15.1L27,10.6H11.74v25H24.85v3.54A1.88,1.88,0,0,0,26.73,41h9.58a1.87,1.87,0,0,0,1.87-1.87V28.3A1.88,1.88,0,0,0,36.31,26.42ZM27,13l2.21,2.22H27ZM24.85,28.3v5.62H13.41V12.27h12V16.9H29.8v9.52H26.73A1.88,1.88,0,0,0,24.85,28.3ZM36.51,39.13a.2.2,0,0,1-.2.2H26.73a.2.2,0,0,1-.21-.2V28.3a.21.21,0,0,1,.21-.21h9.58a.2.2,0,0,1,.2.21Z" fill="#2c5967"/><rect x="27.77" y="29.34" width="7.5" height="2.92" fill="#2c5967"/><rect x="27.77" y="33.5" width="1.67" height="1.67" fill="#2c5967"/><rect x="30.68" y="33.5" width="1.67" height="1.67" fill="#2c5967"/><rect x="27.77" y="36.42" width="1.67" height="1.67" fill="#2c5967"/><rect x="30.68" y="36.42" width="1.67" height="1.67" fill="#2c5967"/><rect x="33.6" y="33.5" width="1.67" height="4.58" fill="#2c5967"/></svg>