<svg id="Layer_1" data-name="Layer 1" xmlns="http://www.w3.org/2000/svg" viewBox="0 0 42.08 32.1"><metadata><?xpacket begin="﻿" id="W5M0MpCehiHzreSzNTczkc9d"?>
<x:xmpmeta xmlns:x="adobe:ns:meta/" x:xmptk="Adobe XMP Core 6.0-c006 79.164648, 2021/01/12-15:52:29        ">
   <rdf:RDF xmlns:rdf="http://www.w3.org/1999/02/22-rdf-syntax-ns#">
      <rdf:Description rdf:about=""
            xmlns:dc="http://purl.org/dc/elements/1.1/"
            xmlns:xmp="http://ns.adobe.com/xap/1.0/"
            xmlns:xmpMM="http://ns.adobe.com/xap/1.0/mm/"
            xmlns:stEvt="http://ns.adobe.com/xap/1.0/sType/ResourceEvent#"
            xmlns:xmpRights="http://ns.adobe.com/xap/1.0/rights/">
         <dc:subject>
            <rdf:Bag>
               <rdf:li>Service</rdf:li>
               <rdf:li>Cloud</rdf:li>
               <rdf:li>icon</rdf:li>
               <rdf:li>network</rdf:li>
               <rdf:li>internet</rdf:li>
               <rdf:li>sharing</rdf:li>
               <rdf:li>remote</rdf:li>
            </rdf:Bag>
         </dc:subject>
         <dc:rights>
            <rdf:Alt>
               <rdf:li xml:lang="x-default">Oracle All Rights Reserved</rdf:li>
            </rdf:Alt>
         </dc:rights>
         <xmp:MetadataDate>2023-01-18T10:50:57-06:00</xmp:MetadataDate>
         <xmpMM:InstanceID>xmp.iid:c6e04a9f-14b2-461d-a325-7b98ced4a395</xmpMM:InstanceID>
         <xmpMM:DocumentID>xmp.did:c2f28b0f-d69c-4075-8824-f739fc8c0611</xmpMM:DocumentID>
         <xmpMM:OriginalDocumentID>xmp.did:c2f28b0f-d69c-4075-8824-f739fc8c0611</xmpMM:OriginalDocumentID>
         <xmpMM:History>
            <rdf:Seq>
               <rdf:li>
                  <rdf:Description>
                     <stEvt:action>saved</stEvt:action>
                     <stEvt:instanceID>xmp.iid:c2f28b0f-d69c-4075-8824-f739fc8c0611</stEvt:instanceID>
                     <stEvt:when>2023-01-18T10:49:09-06:00</stEvt:when>
                     <stEvt:softwareAgent>Adobe Bridge 2021 (Macintosh)</stEvt:softwareAgent>
                     <stEvt:changed>/metadata</stEvt:changed>
                  </rdf:Description>
               </rdf:li>
               <rdf:li>
                  <rdf:Description>
                     <stEvt:action>saved</stEvt:action>
                     <stEvt:instanceID>xmp.iid:c6e04a9f-14b2-461d-a325-7b98ced4a395</stEvt:instanceID>
                     <stEvt:when>2023-01-18T10:50:57-06:00</stEvt:when>
                     <stEvt:softwareAgent>Adobe Bridge 2021 (Macintosh)</stEvt:softwareAgent>
                     <stEvt:changed>/metadata</stEvt:changed>
                  </rdf:Description>
               </rdf:li>
            </rdf:Seq>
         </xmpMM:History>
         <xmpRights:Marked>True</xmpRights:Marked>
      </rdf:Description>
   </rdf:RDF>
</x:xmpmeta>
                                                                                                    
                                                                                                    
                                                                                                    
                                                                                                    
                                                                                                    
                                                                                                    
                                                                                                    
                                                                                                    
                                                                                                    
                                                                                                    
                                                                                                    
                                                                                                    
                                                                                        
<?xpacket end="w"?></metadata>
<path d="M21.93,8.87h2.59L32.73,24l-.43.41-.27,0h-.15a3.15,3.15,0,0,0-1,.15l-.39.12Z" fill="#fff"/><path d="M24.23,9.37l7.88,14.55,0,0h-.18a3.78,3.78,0,0,0-1.11.17l-8-14.76h1.46m.59-1H21.09l.8,1.47,8,14.77.4.73.78-.25a2.54,2.54,0,0,1,.81-.13H32l.44,0,.32-.31.56-.53-.34-.7L25.1,8.89l-.28-.52Z" fill="#fff"/><path d="M15.67,29.25l0-.45a4,4,0,0,0-.29-1.14L15.05,27H28.63l-.88.85A4.15,4.15,0,0,0,26.94,29l-.14.29Z" fill="#fff"/><path d="M27.4,27.47a4.66,4.66,0,0,0-.91,1.28H16.12a4.38,4.38,0,0,0-.32-1.28H27.4m2.45-1H14.29l.59,1.39a3.62,3.62,0,0,1,.25,1l.09.91h11.9l.27-.57a3.71,3.71,0,0,1,.71-1l1.75-1.71Z" fill="#fff"/><path d="M11.29,23.89a4,4,0,0,0-1-.49l-.58-.18,7.8-14.35h2.6L11.75,24.21Z" fill="#fff"/><path d="M19.24,9.37,11.57,23.48a4.06,4.06,0,0,0-1.15-.55L17.79,9.37h1.45m1.69-1H17.19l-.28.52L9.54,22.45,9,23.52l1.17.36a3.56,3.56,0,0,1,.88.42l.91.64.53-1L20.12,9.84l.81-1.47Z" fill="#fff"/><path d="M.54,31.6l.09-1.22A4,4,0,0,1,2.79,27.1,3.38,3.38,0,0,1,4.7,24.69,3.22,3.22,0,0,1,6,24.42h.3a4.06,4.06,0,0,1,2.86-1.24,3.78,3.78,0,0,1,3.4,2.12.15.15,0,0,0,.09.06A3.89,3.89,0,0,1,15.23,31l-.33.6Z" fill="#fff"/><path d="M9.16,23.69a3.3,3.3,0,0,1,3,1.84.61.61,0,0,0,.43.33,3.72,3.72,0,0,1,1.07.44,3.41,3.41,0,0,1,1.17,4.46l-.18.34H1.08l0-.69A3.55,3.55,0,0,1,3,27.54a.55.55,0,0,0,.3-.42A2.73,2.73,0,0,1,6,24.92h.31a.57.57,0,0,0,.43-.18,3.32,3.32,0,0,1,2.42-1.06m0-1a4.34,4.34,0,0,0-3,1.23H6a3.84,3.84,0,0,0-1.5.31,3.77,3.77,0,0,0-2.12,2.53A4.55,4.55,0,0,0,.13,30.34l0,.69L0,32.1H15.2l.29-.53.18-.33a4.4,4.4,0,0,0-1.52-5.78,4.26,4.26,0,0,0-1.22-.53,4.27,4.27,0,0,0-3.77-2.24Z" fill="#fff"/><path d="M26.43,31.6l.09-1.22a4,4,0,0,1,2.16-3.28,3.38,3.38,0,0,1,1.91-2.41,3.19,3.19,0,0,1,1.3-.27h.3a4.06,4.06,0,0,1,2.86-1.24,3.78,3.78,0,0,1,3.4,2.12.15.15,0,0,0,.09.06A3.89,3.89,0,0,1,41.12,31l-.33.6Z" fill="#fff"/><path d="M35.05,23.69a3.31,3.31,0,0,1,3,1.84.61.61,0,0,0,.43.33,3.66,3.66,0,0,1,1.06.44,3.4,3.4,0,0,1,1.18,4.46l-.18.34H27l.05-.69a3.55,3.55,0,0,1,1.89-2.87.55.55,0,0,0,.3-.42,2.75,2.75,0,0,1,1.58-2,2.78,2.78,0,0,1,1.1-.23h.31a.57.57,0,0,0,.43-.18,3.31,3.31,0,0,1,2.42-1.06m0-1a4.34,4.34,0,0,0-3,1.23h-.15a3.84,3.84,0,0,0-1.5.31,3.77,3.77,0,0,0-2.12,2.53A4.55,4.55,0,0,0,26,30.34L26,31l-.08,1.07h15.2l.29-.53.18-.33A4.41,4.41,0,0,0,40,25.46a4.26,4.26,0,0,0-1.22-.53,4.27,4.27,0,0,0-3.77-2.24Z" fill="#fff"/><path d="M13.32,8.91l.09-1.23a4.06,4.06,0,0,1,2.17-3.27A3.35,3.35,0,0,1,17.48,2a3.26,3.26,0,0,1,1.3-.27h.3A4,4,0,0,1,21.94.5a3.78,3.78,0,0,1,3.41,2.12s0,0,.09.06A3.88,3.88,0,0,1,28,8.31l-.32.6Z" fill="#fff"/><path d="M21.94,1a3.28,3.28,0,0,1,3,1.84.61.61,0,0,0,.43.33,3.23,3.23,0,0,1,1.07.44,3.39,3.39,0,0,1,1.17,4.46l-.18.34H13.86l.05-.69a3.56,3.56,0,0,1,1.9-2.87.61.61,0,0,0,.3-.42,2.71,2.71,0,0,1,1.58-2,2.57,2.57,0,0,1,1.09-.23h.32a.62.62,0,0,0,.43-.18A3.3,3.3,0,0,1,21.94,1m0-1a4.31,4.31,0,0,0-3,1.23h-.16a3.69,3.69,0,0,0-3.61,2.83,4.54,4.54,0,0,0-2.25,3.59l-.06.68-.08,1.08H28l.28-.53.18-.34a4.38,4.38,0,0,0-1.52-5.77,4.59,4.59,0,0,0-1.22-.54A4.26,4.26,0,0,0,21.94,0Z" fill="#fff"/><path d="M30.77,24.13A3.78,3.78,0,0,1,31.88,24h.18l0,0L24.23,9.37H22.77Z" fill="#2c5967"/><path d="M15.8,27.47a4.3,4.3,0,0,1,.32,1.28H26.49a4.66,4.66,0,0,1,.91-1.28Z" fill="#2c5967"/><path d="M19.24,9.37H17.79L10.42,22.93a4.06,4.06,0,0,1,1.15.55Z" fill="#2c5967"/><path d="M13.62,26.3a3.72,3.72,0,0,0-1.07-.44.61.61,0,0,1-.43-.33,3.3,3.3,0,0,0-5.38-.78.58.58,0,0,1-.49.18,2.73,2.73,0,0,0-1.35.22,2.77,2.77,0,0,0-1.58,2,.55.55,0,0,1-.3.42,3.55,3.55,0,0,0-1.89,2.87l0,.69H14.61l.18-.34A3.41,3.41,0,0,0,13.62,26.3Zm.19,3.52H2.57a2.26,2.26,0,0,1,1-1.14,1.87,1.87,0,0,0,1-1.31,1.43,1.43,0,0,1,.84-1.05,1.44,1.44,0,0,1,.71-.12,1.84,1.84,0,0,0,1.55-.58A2,2,0,0,1,11,26.1a1.89,1.89,0,0,0,1.3,1,2.1,2.1,0,0,1,1.54,2.71Z" fill="#2c5967"/><path d="M39.5,26.3a3.55,3.55,0,0,0-1.06-.44.61.61,0,0,1-.43-.33,3.3,3.3,0,0,0-5.38-.78.58.58,0,0,1-.49.18,2.72,2.72,0,0,0-1.35.22,2.75,2.75,0,0,0-1.58,2,.55.55,0,0,1-.3.42A3.55,3.55,0,0,0,27,30.41L27,31.1H40.5l.18-.34A3.4,3.4,0,0,0,39.5,26.3Zm.19,3.52H28.46a2.26,2.26,0,0,1,1-1.14,1.87,1.87,0,0,0,1-1.31,1.43,1.43,0,0,1,.84-1.05A1.44,1.44,0,0,1,32,26.2a1.84,1.84,0,0,0,1.55-.58,2,2,0,0,1,3.29.48,1.89,1.89,0,0,0,1.3,1,2.24,2.24,0,0,1,.66.27A2.1,2.1,0,0,1,39.69,29.82Z" fill="#2c5967"/><path d="M27.39,8.41l.18-.34A3.39,3.39,0,0,0,26.4,3.61a3.23,3.23,0,0,0-1.07-.44.61.61,0,0,1-.43-.33,3.29,3.29,0,0,0-5.37-.78.59.59,0,0,1-.49.18,2.61,2.61,0,0,0-1.35.22,2.71,2.71,0,0,0-1.58,2,.61.61,0,0,1-.3.42,3.56,3.56,0,0,0-1.9,2.87l-.05.69ZM18.2,3.63a1.48,1.48,0,0,1,.72-.12,1.85,1.85,0,0,0,1.54-.58,2,2,0,0,1,3.29.48,1.93,1.93,0,0,0,1.31,1,2.09,2.09,0,0,1,.66.27,2.11,2.11,0,0,1,.87,2.44H15.35a2.23,2.23,0,0,1,1-1.14,1.85,1.85,0,0,0,1-1.31A1.47,1.47,0,0,1,18.2,3.63Z" fill="#2c5967"/></svg>