<svg id="Layer_1" data-name="Layer 1" xmlns="http://www.w3.org/2000/svg" viewBox="0 0 42.44 40.95"><defs><style>.cls-1{fill:#fff;}.cls-2{fill:#2c5967;}</style></defs><title>Autonomous Database Cloud Service with Oracle Machine Learning OML</title><metadata><?xpacket begin="﻿" id="W5M0MpCehiHzreSzNTczkc9d"?>
<x:xmpmeta xmlns:x="adobe:ns:meta/" x:xmptk="Adobe XMP Core 6.0-c006 79.164648, 2021/01/12-15:52:29        ">
   <rdf:RDF xmlns:rdf="http://www.w3.org/1999/02/22-rdf-syntax-ns#">
      <rdf:Description rdf:about=""
            xmlns:dc="http://purl.org/dc/elements/1.1/"
            xmlns:lr="http://ns.adobe.com/lightroom/1.0/"
            xmlns:xmp="http://ns.adobe.com/xap/1.0/"
            xmlns:xmpMM="http://ns.adobe.com/xap/1.0/mm/"
            xmlns:stEvt="http://ns.adobe.com/xap/1.0/sType/ResourceEvent#"
            xmlns:xmpRights="http://ns.adobe.com/xap/1.0/rights/">
         <dc:title>
            <rdf:Alt>
               <rdf:li xml:lang="x-default">Autonomous Database Cloud Service with Oracle Machine Learning OML</rdf:li>
            </rdf:Alt>
         </dc:title>
         <dc:subject>
            <rdf:Bag>
               <rdf:li>icon</rdf:li>
               <rdf:li>Business</rdf:li>
               <rdf:li>AI</rdf:li>
               <rdf:li>Artificial Intelligence</rdf:li>
               <rdf:li>Data</rdf:li>
            </rdf:Bag>
         </dc:subject>
         <dc:rights>
            <rdf:Alt>
               <rdf:li xml:lang="x-default">Oracle All Rights Reserved</rdf:li>
            </rdf:Alt>
         </dc:rights>
         <lr:hierarchicalSubject>
            <rdf:Bag>
               <rdf:li>icon</rdf:li>
               <rdf:li>Business</rdf:li>
               <rdf:li>AI</rdf:li>
               <rdf:li>Artificial Intelligence</rdf:li>
               <rdf:li>Data</rdf:li>
            </rdf:Bag>
         </lr:hierarchicalSubject>
         <xmp:MetadataDate>2021-06-28T13:59:48-05:00</xmp:MetadataDate>
         <xmpMM:InstanceID>xmp.iid:97d917bf-bab6-4f3f-a1d2-903fd7d29d78</xmpMM:InstanceID>
         <xmpMM:DocumentID>xmp.did:b034fd6f-7d81-444a-a562-1b056830b375</xmpMM:DocumentID>
         <xmpMM:OriginalDocumentID>xmp.did:b034fd6f-7d81-444a-a562-1b056830b375</xmpMM:OriginalDocumentID>
         <xmpMM:History>
            <rdf:Seq>
               <rdf:li>
                  <rdf:Description>
                     <stEvt:action>saved</stEvt:action>
                     <stEvt:instanceID>xmp.iid:b034fd6f-7d81-444a-a562-1b056830b375</stEvt:instanceID>
                     <stEvt:when>2021-06-18T11:42-05:00</stEvt:when>
                     <stEvt:softwareAgent>Adobe Bridge 2021 (Macintosh)</stEvt:softwareAgent>
                     <stEvt:changed>/metadata</stEvt:changed>
                  </rdf:Description>
               </rdf:li>
               <rdf:li>
                  <rdf:Description>
                     <stEvt:action>saved</stEvt:action>
                     <stEvt:instanceID>xmp.iid:97d917bf-bab6-4f3f-a1d2-903fd7d29d78</stEvt:instanceID>
                     <stEvt:when>2021-06-28T13:59:48-05:00</stEvt:when>
                     <stEvt:softwareAgent>Adobe Bridge 2021 (Macintosh)</stEvt:softwareAgent>
                     <stEvt:changed>/metadata</stEvt:changed>
                  </rdf:Description>
               </rdf:li>
            </rdf:Seq>
         </xmpMM:History>
         <xmpRights:Marked>True</xmpRights:Marked>
      </rdf:Description>
   </rdf:RDF>
</x:xmpmeta>
                                                                                                    
                                                                                                    
                                                                                                    
                                                                                                    
                                                                                                    
                                                                                                    
                                                                                                    
                                                                                                    
                                                                                                    
   
<?xpacket end="w"?></metadata>
<path class="cls-1" d="M11.4,40.45A2.86,2.86,0,0,1,10,39.92l-.06,0,0,0a2.84,2.84,0,0,1-1.45.54H8.28a4.33,4.33,0,0,1-3.52-1.79,4.39,4.39,0,0,1-3.35-4.25h0a4.4,4.4,0,0,1,0-5.28v0a4.4,4.4,0,0,1,3.37-4.26,4.53,4.53,0,0,1,2-1.5,4.32,4.32,0,0,1,1.5-.27h.16l.16,0v-3H.54l.1-1.4a9.24,9.24,0,0,1,5-7.53A2.21,2.21,0,0,0,6.74,9.62,7.09,7.09,0,0,1,10.85,4.5a7,7,0,0,1,2.85-.6q.33,0,.66,0h.22a2.1,2.1,0,0,0,1.54-.66A8.63,8.63,0,0,1,22.25.5h.24a8.63,8.63,0,0,1,7.77,4.81,2.29,2.29,0,0,0,.41.57L32.09,7a8,8,0,0,1,5.69,3.64,6.39,6.39,0,0,1,.77,1.82l3.19,3.19L39.9,17.45l-1.09-1.09a7.92,7.92,0,0,1-7.73,6.31h-.3v9.95c0,1.34-1.27,2.29-3.87,2.92a32.71,32.71,0,0,1-7.22.72H18a4.42,4.42,0,0,1-2.93,2.4,4.35,4.35,0,0,1-3.53,1.79Z"/><path class="cls-1" d="M22.49,1a8.17,8.17,0,0,1,7.33,4.53,2.7,2.7,0,0,0,.5.7L31.9,7.45a7.39,7.39,0,0,1,5.45,3.43,6,6,0,0,1,.75,1.81L41,15.62,39.9,16.75l-1.45-1.46a7.4,7.4,0,0,1-7.37,6.88,7,7,0,0,1-.8-.05v10.5c0,1.07-1.14,1.87-3.48,2.43a31.78,31.78,0,0,1-7.11.71h-2a3.92,3.92,0,0,1-2.9,2.46A3.85,3.85,0,0,1,11.52,40h-.11a2.33,2.33,0,0,1-1.19-.46L9.9,39.3l-.31.19A2.33,2.33,0,0,1,8.4,40H8.28a3.84,3.84,0,0,1-3.22-1.73,3.91,3.91,0,0,1-3.15-3.81c0-.06,0-.12,0-.18a3.87,3.87,0,0,1,0-4.94c0-.06,0-.13,0-.19a3.9,3.9,0,0,1,3.17-3.81A4,4,0,0,1,7,23.81a3.76,3.76,0,0,1,1.32-.24h.14a1.63,1.63,0,0,1,.67.19V19.58h-8l.06-.86a8.76,8.76,0,0,1,4.68-7.13A2.69,2.69,0,0,0,7.23,9.72,6.57,6.57,0,0,1,13.7,4.4l.62,0,.26,0a2.55,2.55,0,0,0,1.9-.82A8.15,8.15,0,0,1,22.27,1h.22m0-1h-.25a9.13,9.13,0,0,0-6.49,2.94,1.58,1.58,0,0,1-1.17.5h-.17c-.24,0-.47,0-.71,0A7.7,7.7,0,0,0,10.64,4,7.6,7.6,0,0,0,6.25,9.53a1.74,1.74,0,0,1-.89,1.18A9.71,9.71,0,0,0,.14,18.64l-.06.86L0,20.58H8.1v2a5,5,0,0,0-1.48.29A4.94,4.94,0,0,0,4.5,24.4,4.87,4.87,0,0,0,.92,29a4.87,4.87,0,0,0,0,5.61A4.87,4.87,0,0,0,4.46,39.1,4.84,4.84,0,0,0,8.28,41h.15a3,3,0,0,0,1.47-.48,3.05,3.05,0,0,0,1.48.48h.14a4.84,4.84,0,0,0,3.82-1.85,4.88,4.88,0,0,0,2.94-2.34h1.41A32.63,32.63,0,0,0,27,36c1-.25,4.25-1,4.25-3.4V23.17a8.42,8.42,0,0,0,7.79-5.84l.12.12.71.71.71-.71,1.13-1.13.7-.7-.7-.71L39,12.17a6.8,6.8,0,0,0-.81-1.84,8.48,8.48,0,0,0-5.9-3.84l-1.3-1a1.48,1.48,0,0,1-.28-.39A9.15,9.15,0,0,0,22.49,0Z"/><path class="cls-2" d="M7.91,18H2.85a7.13,7.13,0,0,1,3.71-5A4.3,4.3,0,0,0,8.8,10a5,5,0,0,1,2.89-3.61A4.78,4.78,0,0,1,14.16,6a4.24,4.24,0,0,0,3.5-1.31A6.54,6.54,0,0,1,22.31,2.6h.18a6.57,6.57,0,0,1,5.9,3.65,2.58,2.58,0,0,0,.18.32,8.34,8.34,0,0,1,1.75-.34,2.7,2.7,0,0,1-.5-.7A8.17,8.17,0,0,0,22.49,1h-.22a8.15,8.15,0,0,0-5.79,2.62,2.56,2.56,0,0,1-2.16.8,6.6,6.6,0,0,0-7.09,5.3,2.69,2.69,0,0,1-1.41,1.87,8.76,8.76,0,0,0-4.68,7.13l-.06.86H7.91Z"/><path class="cls-2" d="M28.06,18.24h1.65l.37-1.62H32l.37,1.62h1.7l-2.21-7.7H30.28Zm3-5.81.65,2.88H30.38Z"/><path class="cls-2" d="M23.71,14.27l-1.46-1.45L21.12,14l3.37,3.36L27.85,14l-1.13-1.13-1.41,1.4a5.79,5.79,0,0,1,10.87-2.17l1.17-1.17a7.38,7.38,0,0,0-13.64,3.39Z"/><path class="cls-2" d="M41,15.62l-3.36-3.37-3.36,3.37,1.13,1.13,1.4-1.41A5.79,5.79,0,0,1,26,17.52L24.8,18.69a7.39,7.39,0,0,0,13.65-3.4l1.45,1.46Z"/><path class="cls-2" d="M11.33,22.38h.19a5,5,0,0,1,1.74.32,5.06,5.06,0,0,1,2.17,1.54,1.14,1.14,0,0,1,.26.09,39.08,39.08,0,0,0,4,.2,32.37,32.37,0,0,0,7.11-.71,10.4,10.4,0,0,0,1.86-.61,8.5,8.5,0,0,1-2.15-1,29.48,29.48,0,0,1-6.82.69c-5.35,0-8.61-1-9-1.6V17.6a10.66,10.66,0,0,0,1.88.61,31.84,31.84,0,0,0,7.11.71c1.27,0,2.5-.05,3.65-.16a8.33,8.33,0,0,1-.61-1.55c-.92.07-1.93.11-3,.11-5.35,0-8.61-1-9-1.59v-.1c.37-.52,3.3-1.45,9-1.45h.4v-1.6h-.4a35.42,35.42,0,0,0-7.09.62c-2.35.51-3.5,1.29-3.5,2.37v6.9a2.56,2.56,0,0,1,.8.38A2.69,2.69,0,0,1,11.33,22.38Z"/><path class="cls-2" d="M28.68,27c-.38.59-3.64,1.6-9,1.6h-.63l0,.34a5.34,5.34,0,0,1,.62,1.27,32.8,32.8,0,0,0,7.09-.71,10.6,10.6,0,0,0,1.88-.62v3.73c-.34.49-3.29,1.6-9,1.6h-.32c-.09.16-.18.32-.28.47a5.14,5.14,0,0,1-.18,1.12h.78a31.78,31.78,0,0,0,7.11-.71c2.34-.56,3.48-1.36,3.48-2.43V23.53a9.44,9.44,0,0,1-1.6-.32Z"/><circle class="cls-2" cx="5.11" cy="31.76" r="0.8"/><path class="cls-2" d="M5.35,28.68a.8.8,0,1,0,1.13,0A.81.81,0,0,0,5.35,28.68Z"/><path class="cls-2" d="M5.32,33.72a.8.8,0,1,0,1.13,0A.8.8,0,0,0,5.32,33.72Z"/><path class="cls-2" d="M14.75,38.22a3.91,3.91,0,0,0,3.14-3.81v-.18a3.87,3.87,0,0,0,0-4.94V29.1a3.9,3.9,0,0,0-3.16-3.81,4,4,0,0,0-1.89-1.48,4.1,4.1,0,0,0-1.46-.24,2.33,2.33,0,0,0-1.13.45l-.35.21L9.55,24a2.26,2.26,0,0,0-1.12-.45,3.92,3.92,0,0,0-3.35,1.72A3.9,3.9,0,0,0,1.91,29.1c0,.06,0,.13,0,.19a3.87,3.87,0,0,0,0,4.94c0,.06,0,.12,0,.18a3.91,3.91,0,0,0,3.15,3.81A3.84,3.84,0,0,0,8.28,40H8.4a2.33,2.33,0,0,0,1.19-.46l.31-.19.32.19a2.33,2.33,0,0,0,1.19.46h.11A3.85,3.85,0,0,0,14.75,38.22ZM6.26,37.11l-.21-.39-.44,0a2.29,2.29,0,0,1-2.1-2.27,2.35,2.35,0,0,1,0-.34l.06-.4-.29-.28a2.29,2.29,0,0,1,0-3.26l.29-.28-.06-.4a2.47,2.47,0,0,1,0-.35,2.29,2.29,0,0,1,2.11-2.27l.44,0,.21-.39a2.3,2.3,0,0,1,2-1.24h.06a2.44,2.44,0,0,1,.36.2l.39.24V37.92l-.34.2a2.39,2.39,0,0,1-.41.23H8.28A2.26,2.26,0,0,1,6.26,37.11Zm7.94-.43-.45,0-.2.39a2.27,2.27,0,0,1-2,1.24h0a2.07,2.07,0,0,1-.42-.23l-.35-.2V25.61l.4-.24a3.37,3.37,0,0,1,.34-.2,2.22,2.22,0,0,1,.84.14,2.35,2.35,0,0,1,1.26,1.1l.21.39.44,0A2.29,2.29,0,0,1,16.3,29.1a2.47,2.47,0,0,1,0,.35l-.07.4.3.28a2.29,2.29,0,0,1,0,3.26l-.29.28.06.4a2.35,2.35,0,0,1,0,.34A2.29,2.29,0,0,1,14.2,36.68Z"/><circle class="cls-2" cx="14.7" cy="31.76" r="0.8"/><path class="cls-2" d="M14.48,28.68a.81.81,0,0,0-1.13,0,.8.8,0,1,0,1.13,0Z"/><path class="cls-2" d="M13.39,33.67a.8.8,0,0,0-.06,1.13.8.8,0,1,0,.06-1.13Z"/></svg>