<svg width="40" height="42" viewBox="0 0 40 42" fill="none" xmlns="http://www.w3.org/2000/svg">
<metadata><?xpacket begin="﻿" id="W5M0MpCehiHzreSzNTczkc9d"?>
<x:xmpmeta xmlns:x="adobe:ns:meta/" x:xmptk="Adobe XMP Core 7.1-c000 79.4d2f597, 2021/09/01-20:51:22        ">
   <rdf:RDF xmlns:rdf="http://www.w3.org/1999/02/22-rdf-syntax-ns#">
      <rdf:Description rdf:about=""
            xmlns:dc="http://purl.org/dc/elements/1.1/"
            xmlns:xmp="http://ns.adobe.com/xap/1.0/"
            xmlns:xmpMM="http://ns.adobe.com/xap/1.0/mm/"
            xmlns:stEvt="http://ns.adobe.com/xap/1.0/sType/ResourceEvent#"
            xmlns:xmpRights="http://ns.adobe.com/xap/1.0/rights/">
         <dc:subject>
            <rdf:Bag>
               <rdf:li>Google</rdf:li>
               <rdf:li>database</rdf:li>
            </rdf:Bag>
         </dc:subject>
         <dc:rights>
            <rdf:Alt>
               <rdf:li xml:lang="x-default">Oracle All Rights</rdf:li>
            </rdf:Alt>
         </dc:rights>
         <xmp:MetadataDate>2025-02-06T15:37:27-06:00</xmp:MetadataDate>
         <xmpMM:InstanceID>xmp.iid:96535b3a-4fb8-4bb2-8621-570a5e117740</xmpMM:InstanceID>
         <xmpMM:DocumentID>xmp.did:22e46246-f98e-4f9e-8a0b-343701e183e8</xmpMM:DocumentID>
         <xmpMM:OriginalDocumentID>xmp.did:22e46246-f98e-4f9e-8a0b-343701e183e8</xmpMM:OriginalDocumentID>
         <xmpMM:History>
            <rdf:Seq>
               <rdf:li>
                  <rdf:Description>
                     <stEvt:action>saved</stEvt:action>
                     <stEvt:instanceID>xmp.iid:22e46246-f98e-4f9e-8a0b-343701e183e8</stEvt:instanceID>
                     <stEvt:when>2025-02-06T15:29:26-06:00</stEvt:when>
                     <stEvt:softwareAgent>Adobe Bridge 2023</stEvt:softwareAgent>
                     <stEvt:changed>/metadata</stEvt:changed>
                  </rdf:Description>
               </rdf:li>
               <rdf:li>
                  <rdf:Description>
                     <stEvt:action>saved</stEvt:action>
                     <stEvt:instanceID>xmp.iid:96535b3a-4fb8-4bb2-8621-570a5e117740</stEvt:instanceID>
                     <stEvt:when>2025-02-06T15:37:27-06:00</stEvt:when>
                     <stEvt:softwareAgent>Adobe Bridge 2023</stEvt:softwareAgent>
                     <stEvt:changed>/metadata</stEvt:changed>
                  </rdf:Description>
               </rdf:li>
            </rdf:Seq>
         </xmpMM:History>
         <xmpRights:Marked>True</xmpRights:Marked>
      </rdf:Description>
   </rdf:RDF>
</x:xmpmeta>
                                                                                                    
                                                                                                    
                                                                                                    
                                                                                                    
                                                                                                    
                                                                                                    
                                                                                                    
                                                                                                    
                                                                                                    
                                                                                                    
                                                                                                    
                                                                                                    
                                                              
<?xpacket end="w"?></metadata>
<path d="M34.5296 11.6162C34.5296 8.8555 32.9398 6.30849 30.0509 4.4367C27.3501 2.68456 23.7774 1.71875 19.9996 1.71875C16.2219 1.71875 12.6578 2.68456 9.94836 4.4367C7.05947 6.30849 5.46973 8.8555 5.46973 11.6162V31.8213C5.46973 34.582 7.05947 37.129 9.94836 39.0008C12.6492 40.7529 16.2219 41.7188 19.9996 41.7188C23.7774 41.7188 27.3501 40.7529 30.0509 39.0008C32.9398 37.129 34.5296 34.582 34.5296 31.8213V11.6247V11.6162ZM11.4355 6.73584C13.7005 5.26576 16.7432 4.45379 19.9996 4.45379C23.2561 4.45379 26.2988 5.26576 28.5637 6.73584C30.6492 8.08627 31.7945 9.82131 31.7945 11.6162C31.7945 13.4111 30.6492 15.1461 28.5637 16.4965C26.2988 17.9666 23.2561 18.7786 19.9996 18.7786C16.7432 18.7786 13.7005 17.9666 11.4355 16.4965C9.35007 15.1461 8.20477 13.4111 8.20477 11.6162C8.20477 9.82131 9.35007 8.08627 11.4355 6.73584ZM11.4355 36.7017C9.35007 35.3512 8.20477 33.6162 8.20477 31.8213V28.3256C8.71759 28.8042 9.29879 29.2658 9.94836 29.6846C12.6492 31.4367 16.2219 32.4025 19.9996 32.4025C23.7774 32.4025 27.3501 31.4367 30.0509 29.6846C30.7005 29.2658 31.2817 28.8128 31.7945 28.3256V31.8128C31.7945 33.6162 30.6492 35.3512 28.5637 36.7017C26.2988 38.1717 23.2561 38.9837 19.9996 38.9837C16.7432 38.9837 13.7005 38.1717 11.4355 36.7017ZM31.7945 22.4965C31.7945 24.2999 30.6492 26.035 28.5637 27.3854C26.2988 28.8555 23.2561 29.6675 19.9996 29.6675C16.7432 29.6675 13.7005 28.8555 11.4355 27.3854C9.35007 26.035 8.20477 24.2999 8.20477 22.5051V17.4367C8.71759 17.9153 9.29879 18.3769 9.94836 18.7957C12.6492 20.5478 16.2219 21.5136 19.9996 21.5136C23.7774 21.5136 27.3501 20.5478 30.0509 18.7957C30.7005 18.3769 31.2817 17.9239 31.7945 17.4367V22.4965Z" fill="#C74634"/>
</svg>
