<?xml version="1.0" encoding="UTF-8"?>
<svg id="Layer_1" data-name="Layer 1" xmlns="http://www.w3.org/2000/svg" viewBox="0 0 39.33 42">
  <metadata><?xpacket begin="﻿" id="W5M0MpCehiHzreSzNTczkc9d"?>
<x:xmpmeta xmlns:x="adobe:ns:meta/" x:xmptk="Adobe XMP Core 7.1-c000 79.4d2f597, 2021/09/01-20:51:22        ">
   <rdf:RDF xmlns:rdf="http://www.w3.org/1999/02/22-rdf-syntax-ns#">
      <rdf:Description rdf:about=""
            xmlns:dc="http://purl.org/dc/elements/1.1/"
            xmlns:xmpRights="http://ns.adobe.com/xap/1.0/rights/"
            xmlns:xmp="http://ns.adobe.com/xap/1.0/"
            xmlns:xmpMM="http://ns.adobe.com/xap/1.0/mm/"
            xmlns:stEvt="http://ns.adobe.com/xap/1.0/sType/ResourceEvent#">
         <dc:rights>
            <rdf:Alt>
               <rdf:li xml:lang="x-default">Oracle All Rights</rdf:li>
            </rdf:Alt>
         </dc:rights>
         <dc:subject>
            <rdf:Bag>
               <rdf:li>storage</rdf:li>
               <rdf:li>servers</rdf:li>
               <rdf:li>icon</rdf:li>
            </rdf:Bag>
         </dc:subject>
         <xmpRights:Marked>True</xmpRights:Marked>
         <xmp:MetadataDate>2024-07-05T18:09:40-06:00</xmp:MetadataDate>
         <xmpMM:InstanceID>xmp.iid:8cd6c6bf-2342-4b51-8321-7f2aa817da8c</xmpMM:InstanceID>
         <xmpMM:DocumentID>xmp.did:70fbfc07-5829-47a6-bf3e-4d2f7b8a1451</xmpMM:DocumentID>
         <xmpMM:OriginalDocumentID>xmp.did:70fbfc07-5829-47a6-bf3e-4d2f7b8a1451</xmpMM:OriginalDocumentID>
         <xmpMM:History>
            <rdf:Seq>
               <rdf:li>
                  <rdf:Description>
                     <stEvt:action>saved</stEvt:action>
                     <stEvt:instanceID>xmp.iid:70fbfc07-5829-47a6-bf3e-4d2f7b8a1451</stEvt:instanceID>
                     <stEvt:when>2024-07-05T18:05:08-06:00</stEvt:when>
                     <stEvt:softwareAgent>Adobe Bridge 2023</stEvt:softwareAgent>
                     <stEvt:changed>/metadata</stEvt:changed>
                  </rdf:Description>
               </rdf:li>
               <rdf:li>
                  <rdf:Description>
                     <stEvt:action>saved</stEvt:action>
                     <stEvt:instanceID>xmp.iid:8cd6c6bf-2342-4b51-8321-7f2aa817da8c</stEvt:instanceID>
                     <stEvt:when>2024-07-05T18:09:40-06:00</stEvt:when>
                     <stEvt:softwareAgent>Adobe Bridge 2023</stEvt:softwareAgent>
                     <stEvt:changed>/metadata</stEvt:changed>
                  </rdf:Description>
               </rdf:li>
            </rdf:Seq>
         </xmpMM:History>
      </rdf:Description>
   </rdf:RDF>
</x:xmpmeta>
                                                                                                    
                                                                                                    
                                                                                                    
                                                                                                    
                                                                                                    
                                                                                                    
                                                                                                    
                                                                                                    
                                                                                                    
                                                                                                    
                                                                                                    
                                                                                                    
                                                                                                    
                              
<?xpacket end="w"?></metadata>
<defs>
    <style>
      .cls-1 {
        fill: #fff;
      }

      .cls-2 {
        fill: #2d5967;
      }
    </style>
  </defs>
  <path class="cls-1" d="m38.33,0h-10.04v11.69h-3.1V0h-11.04v11.69h-3.1V0H0v19.44h3.62v3.12H0v19.44h11.04v-9.69h3.1v9.69h11.04v-9.69h3.1v9.69h11.04v-19.44h-3.66v-3.12h3.66V0h-1ZM14.14,22.56v6.03h-3.1v-6.03h-3.7v-3.12h3.7v-4.03h3.1v4.03h3.66v3.12h-3.66Zm14.14,0v6.03h-3.1v-6.03h-3.66v-3.12h3.66v-4.03h3.1v4.03h3.66v3.12h-3.66Z"/>
  <g>
    <circle class="cls-2" cx="33.82" cy="14.13" r="1.08"/>
    <rect class="cls-2" x="18.16" y="4.01" width="3.01" height="1.72"/>
    <rect class="cls-2" x="18.16" y="10.04" width="3.01" height="1.72"/>
    <rect class="cls-2" x="18.16" y="7.03" width="3.01" height="1.72"/>
    <circle class="cls-2" cx="19.67" cy="14.13" r="1.08"/>
    <rect class="cls-2" x="4.01" y="4.01" width="3.01" height="1.72"/>
    <rect class="cls-2" x="4.01" y="10.04" width="3.01" height="1.72"/>
    <rect class="cls-2" x="4.01" y="7.03" width="3.01" height="1.72"/>
    <circle class="cls-2" cx="5.52" cy="14.11" r="1.08"/>
    <path class="cls-2" d="m38.33,18.44V1h-9.04v11.69h-5.1V1h-9.04v11.69h-5.1V1H1v17.44h3.62v5.12H1v17.44h9.04v-9.69h5.1v9.69h9.04v-9.69h5.1v9.69h9.04v-17.44h-3.66v-5.12h3.66Zm-7.32-15.72h5.6v13.99h-5.6V2.72Zm-14.14,0h5.6v13.99h-5.6V2.72Zm-14.14,0h5.6v13.99H2.72V2.72Zm5.6,36.56H2.72v-13.99h5.6v13.99Zm1.72-9.69v-6.03h-3.7v-5.12h3.7v-4.03h5.1v4.03h3.66v5.12h-3.66v6.03h-5.1Zm12.42,9.69h-5.6v-13.99h5.6v13.99Zm14.14,0h-5.6v-13.99h5.6v13.99Zm-3.66-15.72h-3.66v6.03h-5.1v-6.03h-3.66v-5.12h3.66v-4.03h5.1v4.03h3.66v5.12Z"/>
    <rect class="cls-2" x="32.3" y="4.01" width="3.01" height="1.72"/>
    <rect class="cls-2" x="32.3" y="10.04" width="3.01" height="1.72"/>
    <rect class="cls-2" x="32.3" y="7.03" width="3.01" height="1.72"/>
    <rect class="cls-2" x="18.16" y="26.58" width="3.01" height="1.72"/>
    <rect class="cls-2" x="18.16" y="32.6" width="3.01" height="1.72"/>
    <rect class="cls-2" x="18.16" y="29.59" width="3.01" height="1.72"/>
    <circle class="cls-2" cx="19.68" cy="36.7" r="1.08"/>
    <rect class="cls-2" x="4.01" y="26.58" width="3.01" height="1.72"/>
    <rect class="cls-2" x="4.01" y="32.6" width="3.01" height="1.72"/>
    <rect class="cls-2" x="4.01" y="29.59" width="3.01" height="1.72"/>
    <circle class="cls-2" cx="5.52" cy="36.67" r="1.08"/>
    <rect class="cls-2" x="32.3" y="26.58" width="3.01" height="1.72"/>
    <rect class="cls-2" x="32.3" y="32.6" width="3.01" height="1.72"/>
    <rect class="cls-2" x="32.3" y="29.59" width="3.01" height="1.72"/>
    <circle class="cls-2" cx="33.83" cy="36.7" r="1.08"/>
  </g>
</svg>