<svg id="Layer_1" data-name="Layer 1" xmlns="http://www.w3.org/2000/svg" viewBox="0 0 44.35 42"><defs><style>.cls-1{fill:#fff;}.cls-2{fill:#2c5967;}</style></defs><title>Autonomous-Graph-Database</title><metadata><?xpacket begin="﻿" id="W5M0MpCehiHzreSzNTczkc9d"?>
<x:xmpmeta xmlns:x="adobe:ns:meta/" x:xmptk="Adobe XMP Core 6.0-c006 79.164648, 2021/01/12-15:52:29        ">
   <rdf:RDF xmlns:rdf="http://www.w3.org/1999/02/22-rdf-syntax-ns#">
      <rdf:Description rdf:about=""
            xmlns:dc="http://purl.org/dc/elements/1.1/"
            xmlns:lr="http://ns.adobe.com/lightroom/1.0/"
            xmlns:xmp="http://ns.adobe.com/xap/1.0/"
            xmlns:xmpMM="http://ns.adobe.com/xap/1.0/mm/"
            xmlns:stEvt="http://ns.adobe.com/xap/1.0/sType/ResourceEvent#"
            xmlns:xmpRights="http://ns.adobe.com/xap/1.0/rights/">
         <dc:title>
            <rdf:Alt>
               <rdf:li xml:lang="x-default">Autonomous-Graph-Database</rdf:li>
            </rdf:Alt>
         </dc:title>
         <dc:subject>
            <rdf:Bag>
               <rdf:li>icon</rdf:li>
               <rdf:li>Business</rdf:li>
               <rdf:li>Data</rdf:li>
            </rdf:Bag>
         </dc:subject>
         <dc:rights>
            <rdf:Alt>
               <rdf:li xml:lang="x-default">Oracle All Rights Reserved</rdf:li>
            </rdf:Alt>
         </dc:rights>
         <lr:hierarchicalSubject>
            <rdf:Bag>
               <rdf:li>icon</rdf:li>
               <rdf:li>Business</rdf:li>
               <rdf:li>Data</rdf:li>
            </rdf:Bag>
         </lr:hierarchicalSubject>
         <xmp:MetadataDate>2021-07-21T19:23:25-05:00</xmp:MetadataDate>
         <xmpMM:InstanceID>xmp.iid:1947d69c-8032-44b6-9432-2988748a7ee7</xmpMM:InstanceID>
         <xmpMM:DocumentID>xmp.did:f5dcca16-d953-49ca-8ae8-6dfaebef3883</xmpMM:DocumentID>
         <xmpMM:OriginalDocumentID>xmp.did:f5dcca16-d953-49ca-8ae8-6dfaebef3883</xmpMM:OriginalDocumentID>
         <xmpMM:History>
            <rdf:Seq>
               <rdf:li>
                  <rdf:Description>
                     <stEvt:action>saved</stEvt:action>
                     <stEvt:instanceID>xmp.iid:f5dcca16-d953-49ca-8ae8-6dfaebef3883</stEvt:instanceID>
                     <stEvt:when>2021-06-18T11:42-05:00</stEvt:when>
                     <stEvt:softwareAgent>Adobe Bridge 2021 (Macintosh)</stEvt:softwareAgent>
                     <stEvt:changed>/metadata</stEvt:changed>
                  </rdf:Description>
               </rdf:li>
               <rdf:li>
                  <rdf:Description>
                     <stEvt:action>saved</stEvt:action>
                     <stEvt:instanceID>xmp.iid:1947d69c-8032-44b6-9432-2988748a7ee7</stEvt:instanceID>
                     <stEvt:when>2021-07-21T19:23:25-05:00</stEvt:when>
                     <stEvt:softwareAgent>Adobe Bridge 2021 (Macintosh)</stEvt:softwareAgent>
                     <stEvt:changed>/metadata</stEvt:changed>
                  </rdf:Description>
               </rdf:li>
            </rdf:Seq>
         </xmpMM:History>
         <xmpRights:Marked>True</xmpRights:Marked>
      </rdf:Description>
   </rdf:RDF>
</x:xmpmeta>
                                                                                                    
                                                                                                    
                                                                                                    
                                                                                                    
                                                                                                    
                                                                                                    
                                                                                                    
                                                                                                    
                                                                                                    
                                                                                                    
                                                                                    
<?xpacket end="w"?></metadata>
<path class="cls-1" d="M10.35,41.5a9,9,0,0,1-4.63-1.26,8.86,8.86,0,0,1-3.3-3.3,9,9,0,0,1-1.26-4.63A9.15,9.15,0,0,1,6,24.22l.26-.13A12.51,12.51,0,0,1,9,23.18V21H.54l.1-1.43a9.67,9.67,0,0,1,5.17-7.87A2.33,2.33,0,0,0,7,10a7.39,7.39,0,0,1,7.28-6c.23,0,.45,0,.68,0h.24a2.17,2.17,0,0,0,1.62-.7A9.07,9.07,0,0,1,23.26.5h.25a9,9,0,0,1,8.12,5,2.5,2.5,0,0,0,.44.6l1.42,1.14a8.31,8.31,0,0,1,6,3.81,8.42,8.42,0,0,1,.8,1.9l3.33,3.33L41.75,18.2,40.59,17a8.25,8.25,0,0,1-8.08,6.64h-.34V34.12c0,1.4-1.32,2.39-4,3a33.83,33.83,0,0,1-7.56.76c-.55,0-1.1,0-1.64,0l-1.26,0a9,9,0,0,1-1.13,1.25,9.23,9.23,0,0,1-2.86,1.78l-.35.13-.22.07A9,9,0,0,1,10.35,41.5Z"/><path class="cls-1" d="M23.51,1a8.55,8.55,0,0,1,7.68,4.75,2.7,2.7,0,0,0,.52.73l1.58,1.27a7.75,7.75,0,0,1,5.79,3.6,7.09,7.09,0,0,1,.78,1.89l3.08,3.07L41.75,17.5,40.23,16a1.77,1.77,0,0,1-.06.49,7.74,7.74,0,0,1-7.66,6.71,7.89,7.89,0,0,1-.84-.05v11c0,1.13-1.19,2-3.64,2.55a33.43,33.43,0,0,1-7.45.75c-.55,0-1.09,0-1.62,0l-1.53-.06a8,8,0,0,1-1.22,1.39,8.72,8.72,0,0,1-2.7,1.69l-.34.12-.1,0h0l-.11,0a8.78,8.78,0,0,1-2.61.4A8.53,8.53,0,0,1,6,39.81a8.34,8.34,0,0,1-3.12-3.12,8.65,8.65,0,0,1,3.4-12l.25-.13a11.87,11.87,0,0,1,3-.94V20.46H1.08l.06-.9A9.16,9.16,0,0,1,6.05,12.1a2.82,2.82,0,0,0,1.47-2,6.93,6.93,0,0,1,4-5,7,7,0,0,1,2.78-.58c.22,0,.43,0,.65,0h.28a2.67,2.67,0,0,0,2-.86A8.53,8.53,0,0,1,23.28,1h.23m0-1h-.26a9.51,9.51,0,0,0-6.76,3.06,1.68,1.68,0,0,1-1.26.54H15c-.24,0-.49,0-.74,0A7.92,7.92,0,0,0,6.54,9.94a1.8,1.8,0,0,1-1,1.27A10.15,10.15,0,0,0,.15,19.49l-.07.9L0,21.46H8.49v1.32a13,13,0,0,0-2.43.86l-.26.13A9.68,9.68,0,0,0,2,27.33,9.65,9.65,0,0,0,2,37.19a9.4,9.4,0,0,0,3.48,3.49,9.69,9.69,0,0,0,7.8.87l.11,0,.12,0,.37-.13a9.76,9.76,0,0,0,3-1.88,10.91,10.91,0,0,0,1-1.11l1,0c.55,0,1.1,0,1.66,0a34.86,34.86,0,0,0,7.68-.77c1.09-.26,4.41-1.06,4.41-3.53V24.18A8.76,8.76,0,0,0,40.85,18l.2.19.7.71.71-.71L43.64,17l.71-.71-.71-.7-2.89-2.9a8.09,8.09,0,0,0-.83-1.91,8.8,8.8,0,0,0-6.23-4l-1.3-1a1.67,1.67,0,0,1-.31-.44A9.53,9.53,0,0,0,23.51,0Z"/><path class="cls-2" d="M8.23,18.79H2.93a7.51,7.51,0,0,1,3.9-5.21,4.52,4.52,0,0,0,2.34-3.12,5.24,5.24,0,0,1,3-3.79,5.35,5.35,0,0,1,2.59-.42,4.38,4.38,0,0,0,3.66-1.37,6.84,6.84,0,0,1,4.87-2.2h.19A6.88,6.88,0,0,1,29.69,6.5a3.54,3.54,0,0,0,.19.33,8.58,8.58,0,0,1,1.83-.35,2.7,2.7,0,0,1-.52-.73A8.55,8.55,0,0,0,23.51,1h-.23a8.51,8.51,0,0,0-6.06,2.74A2.72,2.72,0,0,1,15,4.59a6.9,6.9,0,0,0-7.43,5.55,2.82,2.82,0,0,1-1.47,2,9.16,9.16,0,0,0-4.91,7.46l-.06.9H8.23Z"/><path class="cls-2" d="M29.35,19.06h1.73l.39-1.7h2l.39,1.7h1.79L33.33,11H31.68ZM32.48,13l.68,3H31.78Z"/><path class="cls-2" d="M24.79,14.91l-1.53-1.53-1.18,1.19,3.52,3.52,3.52-3.52-1.18-1.19-1.47,1.48a6.07,6.07,0,0,1,11.39-2.29l1.22-1.22a7.74,7.74,0,0,0-14.29,3.56Z"/><path class="cls-2" d="M42.94,16.31l-3.52-3.52-3.53,3.52,1.19,1.19L38.55,16a6.07,6.07,0,0,1-11.39,2.28l-1.22,1.22A7.74,7.74,0,0,0,40.23,16l1.52,1.52Z"/><path class="cls-2" d="M15.64,25.34c-.11-.09-.23-.17-.35-.25.12.08.24.16.35.25Z"/><path class="cls-2" d="M18.84,30.12c0-.1-.05-.19-.08-.29h0C18.79,29.93,18.82,30,18.84,30.12Z"/><path class="cls-2" d="M12.6,23.88a7.76,7.76,0,0,1,.82.25A7.76,7.76,0,0,0,12.6,23.88Z"/><path class="cls-2" d="M13.42,24.13a9.25,9.25,0,0,1,1,.43A9.25,9.25,0,0,0,13.42,24.13Z"/><path class="cls-2" d="M10.43,23.6a8.45,8.45,0,0,1,1.75.18A8.45,8.45,0,0,0,10.43,23.6Z"/><path class="cls-2" d="M17.72,25.54c.92.06,1.88.1,2.86.1A34.08,34.08,0,0,0,28,24.9,11,11,0,0,0,30,24.26a9.25,9.25,0,0,1-2.24-1,31.59,31.59,0,0,1-7.15.71,37.19,37.19,0,0,1-5.33-.36A9.9,9.9,0,0,1,17.72,25.54Z"/><path class="cls-2" d="M11.24,22.38l-.08-.09v-3.9a11.35,11.35,0,0,0,2,.65,34.08,34.08,0,0,0,7.45.74c1.33,0,2.62-.06,3.82-.17A9.2,9.2,0,0,1,23.76,18q-1.44.12-3.18.12c-5.61,0-9-1.06-9.42-1.67v-.1c.38-.54,3.46-1.52,9.42-1.52H21V13.14h-.42a37.07,37.07,0,0,0-7.43.65c-2.46.54-3.66,1.35-3.66,2.49v6.11c.31,0,.62,0,.94,0S11,22.36,11.24,22.38Z"/><path class="cls-2" d="M30,28.2c-.4.61-3.81,1.67-9.42,1.67h-.51a9.2,9.2,0,0,1,.27,1.68h.24A34.08,34.08,0,0,0,28,30.81a11.35,11.35,0,0,0,2-.65v3.91c-.36.51-3.45,1.67-9.42,1.67h-.83A10.1,10.1,0,0,1,19,37.39c.53,0,1.07,0,1.62,0A33.43,33.43,0,0,0,28,36.67c2.45-.58,3.64-1.42,3.64-2.55V24.6A9.31,9.31,0,0,1,30,24.27Z"/><path class="cls-2" d="M13.51,40.41a8.72,8.72,0,0,0,2.7-1.69,8.37,8.37,0,0,0,1.91-2.55l-1.54-.77-.13.22a6.61,6.61,0,0,1-2.54,2.65,7,7,0,0,1-7.06,0,6.67,6.67,0,0,1-2.5-2.5,6.75,6.75,0,0,1-.94-3.5,6.9,6.9,0,0,1,3.86-6.23L6.5,24.54h0l-.25.13a8.65,8.65,0,0,0-3.4,12A8.34,8.34,0,0,0,6,39.81,8.53,8.53,0,0,0,10.35,41,8.78,8.78,0,0,0,13,40.6h0l.11,0h0l.1,0h0Z"/><path class="cls-2" d="M9.49,33.23h9.62v-.91a8.71,8.71,0,0,0-4.34-7.52,8.6,8.6,0,0,0-4.37-1.2H9.49v0h0Zm1.67-3.07V25.32l.19.05a6.61,6.61,0,0,1,2.72,1,7,7,0,0,1,2.05,2.05,6.61,6.61,0,0,1,1,2.72l0,.19h-6Z"/></svg>