<svg id="Layer_1" data-name="Layer 1" xmlns="http://www.w3.org/2000/svg" viewBox="0 0 42 42"><metadata><?xpacket begin="﻿" id="W5M0MpCehiHzreSzNTczkc9d"?>
<x:xmpmeta xmlns:x="adobe:ns:meta/" x:xmptk="Adobe XMP Core 6.0-c006 79.164648, 2021/01/12-15:52:29        ">
   <rdf:RDF xmlns:rdf="http://www.w3.org/1999/02/22-rdf-syntax-ns#">
      <rdf:Description rdf:about=""
            xmlns:dc="http://purl.org/dc/elements/1.1/"
            xmlns:xmp="http://ns.adobe.com/xap/1.0/"
            xmlns:xmpMM="http://ns.adobe.com/xap/1.0/mm/"
            xmlns:stEvt="http://ns.adobe.com/xap/1.0/sType/ResourceEvent#"
            xmlns:xmpRights="http://ns.adobe.com/xap/1.0/rights/">
         <dc:subject>
            <rdf:Bag>
               <rdf:li>Database</rdf:li>
               <rdf:li>data</rdf:li>
               <rdf:li>virtual machine</rdf:li>
               <rdf:li>compute</rdf:li>
               <rdf:li>icon</rdf:li>
            </rdf:Bag>
         </dc:subject>
         <dc:rights>
            <rdf:Alt>
               <rdf:li xml:lang="x-default">Oracle, All Rights</rdf:li>
            </rdf:Alt>
         </dc:rights>
         <xmp:MetadataDate>2023-04-12T10:42:08-06:00</xmp:MetadataDate>
         <xmpMM:InstanceID>xmp.iid:29e26470-ae9f-4100-b319-bc75f21b0632</xmpMM:InstanceID>
         <xmpMM:DocumentID>xmp.did:556265c9-4fb9-4de4-b542-74d339b97ac5</xmpMM:DocumentID>
         <xmpMM:OriginalDocumentID>xmp.did:556265c9-4fb9-4de4-b542-74d339b97ac5</xmpMM:OriginalDocumentID>
         <xmpMM:History>
            <rdf:Seq>
               <rdf:li>
                  <rdf:Description>
                     <stEvt:action>saved</stEvt:action>
                     <stEvt:instanceID>xmp.iid:556265c9-4fb9-4de4-b542-74d339b97ac5</stEvt:instanceID>
                     <stEvt:when>2023-04-12T10:41:52-06:00</stEvt:when>
                     <stEvt:softwareAgent>Adobe Bridge 2021 (Macintosh)</stEvt:softwareAgent>
                     <stEvt:changed>/metadata</stEvt:changed>
                  </rdf:Description>
               </rdf:li>
               <rdf:li>
                  <rdf:Description>
                     <stEvt:action>saved</stEvt:action>
                     <stEvt:instanceID>xmp.iid:29e26470-ae9f-4100-b319-bc75f21b0632</stEvt:instanceID>
                     <stEvt:when>2023-04-12T10:42:08-06:00</stEvt:when>
                     <stEvt:softwareAgent>Adobe Bridge 2021 (Macintosh)</stEvt:softwareAgent>
                     <stEvt:changed>/metadata</stEvt:changed>
                  </rdf:Description>
               </rdf:li>
            </rdf:Seq>
         </xmpMM:History>
         <xmpRights:Marked>True</xmpRights:Marked>
      </rdf:Description>
   </rdf:RDF>
</x:xmpmeta>
                                                                                                    
                                                                                                    
                                                                                                    
                                                                                                    
                                                                                                    
                                                                                                    
                                                                                                    
                                                                                                    
                                                                                                    
                                                                                                    
                                                                                                    
                                                                                                    
                                                 
<?xpacket end="w"?></metadata>
<path d="M2.67,41.5A2.17,2.17,0,0,1,.5,39.33V2.67A2.17,2.17,0,0,1,2.67.5H39.33A2.17,2.17,0,0,1,41.5,2.67v35.5a2.37,2.37,0,0,1-1.31,2,8.34,8.34,0,0,1-2.81,1c-.24,0-.48.09-.74.12l.28.15-2,0Z" fill="#fff"/><path d="M39.33,1A1.67,1.67,0,0,1,41,2.67v35.5a1.91,1.91,0,0,1-1.08,1.59,7.93,7.93,0,0,1-2.63.93,16.61,16.61,0,0,1-2.42.26L35,41H2.67A1.67,1.67,0,0,1,1,39.33V2.67A1.67,1.67,0,0,1,2.67,1H39.33m0-1H2.67A2.68,2.68,0,0,0,0,2.67V39.33A2.68,2.68,0,0,0,2.67,42H39.25l-1-.5a7.54,7.54,0,0,0,2.21-.9A2.82,2.82,0,0,0,42,38.17V2.67A2.68,2.68,0,0,0,39.33,0Z" fill="#fff"/><path d="M41,38.17a1.91,1.91,0,0,1-1.08,1.59,7.93,7.93,0,0,1-2.63.93,18.58,18.58,0,0,1-6.65,0A7.93,7.93,0,0,1,28,39.76a1.91,1.91,0,0,1-1.08-1.59V29.74A1.91,1.91,0,0,1,28,28.15a7.93,7.93,0,0,1,2.63-.93,18.61,18.61,0,0,1,6.6,0,8.34,8.34,0,0,1,2.61.89A1.94,1.94,0,0,1,41,29.62l0,.12Zm-7-9.83a17.76,17.76,0,0,0-2.38.15,10.63,10.63,0,0,0-1.76.39,4.81,4.81,0,0,0-1.08.45c-.24.15-.38.27-.4.37v0c0,.1.12.22.35.37a5.22,5.22,0,0,0,1.07.47A10.32,10.32,0,0,0,31.6,31a16.75,16.75,0,0,0,2.43.17A17,17,0,0,0,36.46,31a10.54,10.54,0,0,0,1.77-.39,5.11,5.11,0,0,0,1.06-.47c.24-.15.36-.27.36-.37s-.12-.23-.36-.38a5.7,5.7,0,0,0-1.06-.47,10.54,10.54,0,0,0-1.77-.39A17,17,0,0,0,34,28.34Zm5.34,3.24-.07,0-.44.18-.48.16-.44.11-.25.07-.9.17c-.25,0-.51.09-.76.12l-.92.07-.58,0-.66,0a18.87,18.87,0,0,1-3.09-.25,9.56,9.56,0,0,1-2.56-.8V34c0,.1.12.22.36.37a5.19,5.19,0,0,0,1.07.48,12.79,12.79,0,0,0,1.78.39,17.6,17.6,0,0,0,4.88,0,12.79,12.79,0,0,0,1.78-.39,5,5,0,0,0,1.07-.48c.24-.15.36-.27.36-.37V31.5l-.1.07.1-.07ZM28.22,35.66v2.45c0,.1.12.23.36.37a5.19,5.19,0,0,0,1.07.48,11.54,11.54,0,0,0,1.78.38,17.6,17.6,0,0,0,4.88,0A11.54,11.54,0,0,0,38.09,39a5,5,0,0,0,1.07-.48c.24-.14.36-.27.36-.37V35.8a7.81,7.81,0,0,1-2.17.69,15.79,15.79,0,0,1-2.77.22h-.71a17.82,17.82,0,0,1-3.09-.25A8.59,8.59,0,0,1,28.22,35.66Z" fill="#2c5967"/><path d="M26.19,39.51H2.67a.19.19,0,0,1-.19-.18V2.67a.2.2,0,0,1,.19-.19H39.33a.19.19,0,0,1,.18.19v24a8.56,8.56,0,0,1,.91.44,4.54,4.54,0,0,1,.58.41V2.67A1.67,1.67,0,0,0,39.33,1H2.67A1.67,1.67,0,0,0,1,2.67V39.33A1.67,1.67,0,0,0,2.67,41H28a5.27,5.27,0,0,1-.53-.3A3.61,3.61,0,0,1,26.19,39.51Z" fill="#2c5967"/><path d="M6.55,35.44H25.82V34H8V28H26.45a4,4,0,0,1,1-.82,7.39,7.39,0,0,1,1.41-.66H6.55Z" fill="#2c5967"/><path d="M6.55,15.44h8.89V6.55H6.55ZM8,8H14V14H8Z" fill="#2c5967"/><path d="M16.55,15.44h8.89V6.55H16.55ZM18,8H24V14H18Z" fill="#2c5967"/><path d="M6.55,25.44h8.89V16.55H6.55ZM8,18H14V24H8Z" fill="#2c5967"/><path d="M16.55,25.44h8.89V16.55H16.55ZM18,18H24V24H18Z" fill="#2c5967"/><path d="M26.55,15.44h8.89V6.55H26.55ZM28,8H34V14H28Z" fill="#2c5967"/><path d="M26.55,25.44h8.89V16.55H26.55ZM28,18H34V24H28Z" fill="#2c5967"/><path d="M41,38.17a1.91,1.91,0,0,1-1.08,1.59,7.93,7.93,0,0,1-2.63.93,18.58,18.58,0,0,1-6.65,0A7.93,7.93,0,0,1,28,39.76a1.91,1.91,0,0,1-1.08-1.59V29.74A1.91,1.91,0,0,1,28,28.15a7.93,7.93,0,0,1,2.63-.93,18.61,18.61,0,0,1,6.6,0,8.34,8.34,0,0,1,2.61.89A1.94,1.94,0,0,1,41,29.62l0,.12Zm-7-9.83a17.76,17.76,0,0,0-2.38.15,10.63,10.63,0,0,0-1.76.39,4.81,4.81,0,0,0-1.08.45c-.24.15-.38.27-.4.37v0c0,.1.12.22.35.37a5.22,5.22,0,0,0,1.07.47A10.32,10.32,0,0,0,31.6,31a16.75,16.75,0,0,0,2.43.17A17,17,0,0,0,36.46,31a10.54,10.54,0,0,0,1.77-.39,5.11,5.11,0,0,0,1.06-.47c.24-.15.36-.27.36-.37s-.12-.23-.36-.38a5.7,5.7,0,0,0-1.06-.47,10.54,10.54,0,0,0-1.77-.39A17,17,0,0,0,34,28.34Zm5.34,3.24-.07,0-.44.18-.48.16-.44.11-.25.07-.9.17c-.25,0-.51.09-.76.12l-.92.07-.58,0-.66,0a18.87,18.87,0,0,1-3.09-.25,9.56,9.56,0,0,1-2.56-.8V34c0,.1.12.22.36.37a5.19,5.19,0,0,0,1.07.48,12.79,12.79,0,0,0,1.78.39,17.6,17.6,0,0,0,4.88,0,12.79,12.79,0,0,0,1.78-.39,5,5,0,0,0,1.07-.48c.24-.15.36-.27.36-.37V31.5l-.1.07.1-.07ZM28.22,35.66v2.45c0,.1.12.23.36.37a5.19,5.19,0,0,0,1.07.48,11.54,11.54,0,0,0,1.78.38,17.6,17.6,0,0,0,4.88,0A11.54,11.54,0,0,0,38.09,39a5,5,0,0,0,1.07-.48c.24-.14.36-.27.36-.37V35.8a7.81,7.81,0,0,1-2.17.69,15.79,15.79,0,0,1-2.77.22h-.71a17.82,17.82,0,0,1-3.09-.25A8.59,8.59,0,0,1,28.22,35.66Z" fill="#2c5967"/><path d="M41,38.17a1.91,1.91,0,0,1-1.08,1.59,7.93,7.93,0,0,1-2.63.93,18.58,18.58,0,0,1-6.65,0A7.93,7.93,0,0,1,28,39.76a1.91,1.91,0,0,1-1.08-1.59V29.74A1.91,1.91,0,0,1,28,28.15a7.93,7.93,0,0,1,2.63-.93,18.61,18.61,0,0,1,6.6,0,8.34,8.34,0,0,1,2.61.89A1.94,1.94,0,0,1,41,29.62l0,.12Zm-7-9.83a17.76,17.76,0,0,0-2.38.15,10.63,10.63,0,0,0-1.76.39,4.81,4.81,0,0,0-1.08.45c-.24.15-.38.27-.4.37v0c0,.1.12.22.35.37a5.22,5.22,0,0,0,1.07.47A10.32,10.32,0,0,0,31.6,31a16.75,16.75,0,0,0,2.43.17A17,17,0,0,0,36.46,31a10.54,10.54,0,0,0,1.77-.39,5.11,5.11,0,0,0,1.06-.47c.24-.15.36-.27.36-.37s-.12-.23-.36-.38a5.7,5.7,0,0,0-1.06-.47,10.54,10.54,0,0,0-1.77-.39A17,17,0,0,0,34,28.34Zm5.34,3.24-.07,0-.44.18-.48.16-.44.11-.25.07-.9.17c-.25,0-.51.09-.76.12l-.92.07-.58,0-.66,0a18.87,18.87,0,0,1-3.09-.25,9.56,9.56,0,0,1-2.56-.8V34c0,.1.12.22.36.37a5.19,5.19,0,0,0,1.07.48,12.79,12.79,0,0,0,1.78.39,17.6,17.6,0,0,0,4.88,0,12.79,12.79,0,0,0,1.78-.39,5,5,0,0,0,1.07-.48c.24-.15.36-.27.36-.37V31.5l-.1.07.1-.07ZM28.22,35.66v2.45c0,.1.12.23.36.37a5.19,5.19,0,0,0,1.07.48,11.54,11.54,0,0,0,1.78.38,17.6,17.6,0,0,0,4.88,0A11.54,11.54,0,0,0,38.09,39a5,5,0,0,0,1.07-.48c.24-.14.36-.27.36-.37V35.8a7.81,7.81,0,0,1-2.17.69,15.79,15.79,0,0,1-2.77.22h-.71a17.82,17.82,0,0,1-3.09-.25A8.59,8.59,0,0,1,28.22,35.66Z" fill="#2c5967"/></svg>