<svg id="Layer_1" data-name="Layer 1" xmlns="http://www.w3.org/2000/svg" viewBox="0 0 37.7 42"><defs><style>.cls-1{fill:#fff;}.cls-2{fill:#2c5967;}</style></defs><title>OCI-Database-System</title><metadata><?xpacket begin="﻿" id="W5M0MpCehiHzreSzNTczkc9d"?>
<x:xmpmeta xmlns:x="adobe:ns:meta/" x:xmptk="Adobe XMP Core 6.0-c006 79.164648, 2021/01/12-15:52:29        ">
   <rdf:RDF xmlns:rdf="http://www.w3.org/1999/02/22-rdf-syntax-ns#">
      <rdf:Description rdf:about=""
            xmlns:dc="http://purl.org/dc/elements/1.1/"
            xmlns:lr="http://ns.adobe.com/lightroom/1.0/"
            xmlns:xmp="http://ns.adobe.com/xap/1.0/"
            xmlns:xmpMM="http://ns.adobe.com/xap/1.0/mm/"
            xmlns:stEvt="http://ns.adobe.com/xap/1.0/sType/ResourceEvent#">
         <dc:title>
            <rdf:Alt>
               <rdf:li xml:lang="x-default">OCI-Database-System</rdf:li>
            </rdf:Alt>
         </dc:title>
         <dc:subject>
            <rdf:Bag>
               <rdf:li>icon</rdf:li>
               <rdf:li>Data</rdf:li>
               <rdf:li>DBS</rdf:li>
            </rdf:Bag>
         </dc:subject>
         <lr:hierarchicalSubject>
            <rdf:Bag>
               <rdf:li>icon</rdf:li>
               <rdf:li>Data</rdf:li>
            </rdf:Bag>
         </lr:hierarchicalSubject>
         <xmp:MetadataDate>2021-07-22T15:47:20-05:00</xmp:MetadataDate>
         <xmpMM:InstanceID>xmp.iid:5a766749-197b-4201-b562-39fdd1b4ab16</xmpMM:InstanceID>
         <xmpMM:DocumentID>xmp.did:77c683f9-2bf4-439d-8edd-32e399edcbc2</xmpMM:DocumentID>
         <xmpMM:OriginalDocumentID>xmp.did:77c683f9-2bf4-439d-8edd-32e399edcbc2</xmpMM:OriginalDocumentID>
         <xmpMM:History>
            <rdf:Seq>
               <rdf:li>
                  <rdf:Description>
                     <stEvt:action>saved</stEvt:action>
                     <stEvt:instanceID>xmp.iid:77c683f9-2bf4-439d-8edd-32e399edcbc2</stEvt:instanceID>
                     <stEvt:when>2021-07-16T14:19:58-05:00</stEvt:when>
                     <stEvt:softwareAgent>Adobe Bridge 2021 (Macintosh)</stEvt:softwareAgent>
                     <stEvt:changed>/metadata</stEvt:changed>
                  </rdf:Description>
               </rdf:li>
               <rdf:li>
                  <rdf:Description>
                     <stEvt:action>saved</stEvt:action>
                     <stEvt:instanceID>xmp.iid:5a766749-197b-4201-b562-39fdd1b4ab16</stEvt:instanceID>
                     <stEvt:when>2021-07-22T15:47:20-05:00</stEvt:when>
                     <stEvt:softwareAgent>Adobe Bridge 2021 (Macintosh)</stEvt:softwareAgent>
                     <stEvt:changed>/metadata</stEvt:changed>
                  </rdf:Description>
               </rdf:li>
            </rdf:Seq>
         </xmpMM:History>
      </rdf:Description>
   </rdf:RDF>
</x:xmpmeta>
                                                                                                    
                                                                                                    
                                                                                                    
                                                                                                    
                                                                                                    
                                                                                                    
                                                                                                    
                                                                                                    
                                                                                                    
                                                                                                    
                                                                                                    
                                                                                                    
                                                                                                    
                                                                                                    
              
<?xpacket end="w"?></metadata>
<path class="cls-1" d="M18.85,41.5C10.39,41.5.5,40.08.5,36.08V6.46a.76.76,0,0,1,0-.15,1.55,1.55,0,0,1,0-.22C.5,1.68,12,.5,18.85.5S37.2,1.68,37.2,6.09a1.55,1.55,0,0,1,0,.22.76.76,0,0,1,0,.15V36.08C37.2,40.08,27.32,41.5,18.85,41.5Z"/><path class="cls-1" d="M18.85,1C27.45,1,36.7,2.59,36.7,6.09a1.77,1.77,0,0,1,0,.23.66.66,0,0,1,0,.14V36.08c0,3.38-9.25,4.92-17.85,4.92S1,39.46,1,36.08V6.46s0-.09,0-.14,0-.15,0-.23C1,2.59,10.25,1,18.85,1m0-1C15.7,0,0,.29,0,6.09A1.48,1.48,0,0,0,0,6.3a.86.86,0,0,0,0,.16V36.08C0,41.71,15.7,42,18.85,42s18.85-.29,18.85-5.92V6.46a.86.86,0,0,0,0-.16,1.48,1.48,0,0,0,0-.21C37.7.29,22,0,18.85,0Z"/><path class="cls-2" d="M36.7,6.09C36.7,2.59,27.45,1,18.85,1S1,2.59,1,6.09c0,.08,0,.15,0,.23s0,.09,0,.14V36.08C1,39.46,10.25,41,18.85,41S36.7,39.46,36.7,36.08V6.46a.66.66,0,0,0,0-.14A1.77,1.77,0,0,0,36.7,6.09Zm-6,32.06a45.29,45.29,0,0,1-7.43,1h-.06c-1.4.09-2.85.14-4.34.14s-2.94,0-4.34-.14h-.06a45.29,45.29,0,0,1-7.43-1c-3.54-.85-4.34-1.8-4.34-2.07v-7.5a11.58,11.58,0,0,0,2.3,1V27.8c-1.83-.66-2.3-1.27-2.3-1.48V18.68a15.78,15.78,0,0,0,4.57,1.59l-.14-.17L5.94,18.63l.33-.33c-2.91-.8-3.59-1.63-3.59-1.88v-8c3.05,1.88,9.79,2.76,16.17,2.76S32,10.31,35,8.43v8c0,.25-.68,1.08-3.59,1.88l.34.33L30.59,20.1l-.14.17A15.78,15.78,0,0,0,35,18.68v7.64c0,.21-.47.82-2.3,1.48v1.77a11.33,11.33,0,0,0,2.3-1v7.5C35,36.35,34.23,37.3,30.68,38.15Zm0-34.25C34.24,4.79,35,5.79,35,6.09s-.78,1.3-4.34,2.2A51.53,51.53,0,0,1,18.85,9.51,51.38,51.38,0,0,1,7,8.29c-3.57-.9-4.35-1.89-4.35-2.2S3.46,4.79,7,3.9A50.83,50.83,0,0,1,18.85,2.68,51,51,0,0,1,30.68,3.9Z"/><path class="cls-2" d="M23,34.63l2.41,1.92,4.63-4.63-1.93-2.4c.09-.19.17-.39.24-.58l3.06-.34V22.05l-3.06-.34a5.89,5.89,0,0,0-.24-.58l1.93-2.4L25.45,14.1,23,16q-.28-.13-.57-.24l-.34-3.06H15.58l-.34,3.06a5.89,5.89,0,0,0-.58.24l-2.4-1.92L7.63,18.73l1.92,2.4a5.89,5.89,0,0,0-.24.58l-3.06.34V28.6l3.06.34c.07.19.15.39.24.58l-1.92,2.4,4.63,4.63,2.4-1.92.58.24.34,3.05h6.55l.34-3.05Zm-2.42,1.61H17.08l-.29-2.63-.52-.16a9.25,9.25,0,0,1-1.34-.56l-.48-.25L12.38,34.3l-2.5-2.51,1.65-2.07-.25-.48a8.48,8.48,0,0,1-.55-1.33l-.17-.52-2.63-.3V23.55l2.63-.29.17-.52a7.76,7.76,0,0,1,.55-1.33l.25-.49L9.88,18.85l2.5-2.5L14.45,18l.48-.25a8.21,8.21,0,0,1,1.34-.55l.52-.17.29-2.63h3.54L20.91,17l.52.17a9.2,9.2,0,0,1,1.34.55l.48.25,2.07-1.65,2.51,2.5-1.66,2.07.25.49A7.76,7.76,0,0,1,27,22.74l.17.52,2.63.29v3.54l-2.63.3-.17.52a8.48,8.48,0,0,1-.55,1.33l-.25.48,1.66,2.07L25.32,34.3l-2.07-1.66-.48.25a9.25,9.25,0,0,1-1.34.56l-.52.16Z"/><path class="cls-2" d="M12.62,27.85v-5h1.67a2.47,2.47,0,0,1,1.84.63,2.52,2.52,0,0,1,.62,1.86,2.55,2.55,0,0,1-.61,1.85,2.5,2.5,0,0,1-1.85.63Zm1.66-4.1h-.59V27h.59a1.3,1.3,0,0,0,1-.39,1.87,1.87,0,0,0,.34-1.22,1.9,1.9,0,0,0-.34-1.23A1.28,1.28,0,0,0,14.28,23.75Z"/><path class="cls-2" d="M17.51,27.85v-5h1.75a2.39,2.39,0,0,1,1.4.32,1.14,1.14,0,0,1,.45,1,1.06,1.06,0,0,1-.18.6,1.19,1.19,0,0,1-.49.42,1.15,1.15,0,0,1,.88,1.17c0,1-.67,1.46-2,1.46Zm1-2.91h.52a1.54,1.54,0,0,0,.76-.14.54.54,0,0,0,.23-.48.55.55,0,0,0-.22-.49,1.59,1.59,0,0,0-.77-.14h-.52Zm0,2.09h.68a1.39,1.39,0,0,0,.77-.17.57.57,0,0,0,.25-.51.57.57,0,0,0-.25-.5,1.5,1.5,0,0,0-.77-.16h-.68Z"/><path class="cls-2" d="M21.82,27.67v-1a4.27,4.27,0,0,0,1.52.3,1.28,1.28,0,0,0,.67-.15.43.43,0,0,0,.25-.4.35.35,0,0,0-.16-.29,2.27,2.27,0,0,0-.61-.27L23,25.73a2,2,0,0,1-.92-.57,1.28,1.28,0,0,1-.29-.88,1.32,1.32,0,0,1,.23-.8,1.47,1.47,0,0,1,.67-.52,2.66,2.66,0,0,1,1-.18,3.74,3.74,0,0,1,.75.07,3.44,3.44,0,0,1,.64.2V24a4.77,4.77,0,0,0-.71-.21,3.41,3.41,0,0,0-.68-.07c-.56,0-.84.16-.84.5a.37.37,0,0,0,.16.31,2.32,2.32,0,0,0,.6.27l.52.18a2.05,2.05,0,0,1,.95.56,1.52,1.52,0,0,1-.21,2,2.16,2.16,0,0,1-1.4.41c-.2,0-.4,0-.61,0a4.6,4.6,0,0,1-.59-.09A2.23,2.23,0,0,1,21.82,27.67Z"/></svg>