<svg width="40" height="41" viewBox="0 0 40 41" fill="none" xmlns="http://www.w3.org/2000/svg">
<path d="M34.5771 40.2412C33.4413 40.2373 32.3406 39.8471 31.4555 39.1347C30.5704 38.4223 29.9536 37.43 29.7062 36.3206H10.3087C10.0908 37.2978 9.58319 38.1863 8.85222 38.8698C8.12125 39.5533 7.20104 39.9999 6.21215 40.1511C5.22326 40.3023 4.21181 40.151 3.3103 39.717C2.40879 39.2831 1.65927 38.5867 1.15992 37.7191C0.660577 36.8516 0.434696 35.8533 0.511872 34.8551C0.589048 33.8569 0.965682 32.9053 1.59243 32.1249C2.21918 31.3446 3.06682 30.7719 4.0243 30.4819C4.98178 30.1919 6.00445 30.1982 6.95833 30.4998L16.6571 13.6565C16.1435 13.1917 15.7334 12.6237 15.4537 11.9897C15.1739 11.3556 15.0307 10.6697 15.0335 9.97665C15.0343 9.14718 15.2419 8.33102 15.6374 7.60208C16.033 6.87315 16.6039 6.25448 17.2986 5.80208C17.9932 5.34969 18.7897 5.07787 19.6158 5.01123C20.4419 4.9446 21.2715 5.08526 22.0296 5.42048C22.7877 5.75569 23.4502 6.27487 23.9573 6.931C24.4643 7.58713 24.7998 8.35949 24.9334 9.17812C25.067 9.99675 24.9944 10.8358 24.7223 11.6193C24.4502 12.4028 23.9871 13.106 23.3749 13.6651L33.0737 30.4998C33.5597 30.3447 34.0669 30.2663 34.5771 30.2677C35.8985 30.2677 37.1658 30.793 38.1002 31.7282C39.0346 32.6635 39.5596 33.9319 39.5596 35.2544C39.5596 36.577 39.0346 37.8454 38.1002 38.7806C37.1658 39.7158 35.8985 40.2412 34.5771 40.2412Z" fill="white"/>
<path d="M20.0156 5.41936C20.9624 5.42246 21.8847 5.72031 22.6547 6.27161C23.4247 6.82291 24.0042 7.60033 24.3129 8.49609C24.6217 9.39184 24.6443 10.3615 24.3776 11.2707C24.1109 12.1799 23.5682 12.9835 22.8247 13.5702L32.8757 31.0239C33.4214 30.8029 34.0052 30.6919 34.5938 30.6971C35.4688 30.6965 36.3254 30.9483 37.0611 31.4223C37.7969 31.8962 38.3806 32.5723 38.7424 33.3696C39.1042 34.167 39.2288 35.0517 39.1013 35.9181C38.9738 36.7845 38.5996 37.5957 38.0234 38.2547C37.4472 38.9138 36.6935 39.3927 35.8525 39.6342C35.0115 39.8757 34.1187 39.8695 33.2811 39.6164C32.4435 39.3634 31.6964 38.8741 31.1294 38.2072C30.5624 37.5402 30.1993 36.7239 30.0838 35.8559H9.92168C9.80612 36.7239 9.4431 37.5402 8.87607 38.2072C8.30904 38.8741 7.56201 39.3634 6.72438 39.6164C5.88675 39.8695 4.99401 39.8757 4.15297 39.6342C3.31193 39.3927 2.55824 38.9138 1.98207 38.2547C1.4059 37.5957 1.03167 36.7845 0.904155 35.9181C0.776643 35.0517 0.901252 34.167 1.26307 33.3696C1.62489 32.5723 2.20859 31.8962 2.94432 31.4223C3.68006 30.9483 4.53666 30.6965 5.41162 30.6971C6.0002 30.6921 6.58401 30.8032 7.12974 31.0239L17.1807 13.5616C16.4338 12.9752 15.8887 12.1698 15.6217 11.258C15.3546 10.3463 15.379 9.37385 15.6914 8.47667C16.0038 7.57949 16.5885 6.80247 17.3639 6.25429C18.1392 5.70611 19.0663 5.41419 20.0156 5.41936ZM20.0156 4.55957C18.9538 4.55923 17.9152 4.87153 17.0294 5.45758C16.1436 6.04364 15.4496 6.87756 15.0339 7.85548C14.6181 8.83341 14.499 9.91213 14.6913 10.9573C14.8836 12.0025 15.3789 12.968 16.1155 13.7335L6.72598 29.9921C6.2955 29.8888 5.85431 29.8368 5.41162 29.8373C4.40388 29.8363 3.41587 30.117 2.55887 30.6476C1.70186 31.1782 1.00991 31.9378 0.560941 32.8408C0.11197 33.7437 -0.0761862 34.7542 0.0176637 35.7585C0.111514 36.7627 0.483642 37.7207 1.09214 38.5247C1.70063 39.3287 2.52132 39.9466 3.46178 40.309C4.40224 40.6714 5.42511 40.7637 6.41519 40.5757C7.40526 40.3877 8.32322 39.9267 9.06567 39.2447C9.80813 38.5627 10.3456 37.6868 10.6175 36.7157H29.3708C29.6427 37.6868 30.1802 38.5627 30.9226 39.2447C31.6651 39.9267 32.583 40.3877 33.5731 40.5757C34.5632 40.7637 35.586 40.6714 36.5265 40.309C37.467 39.9466 38.2877 39.3287 38.8961 38.5247C39.5046 37.7207 39.8768 36.7627 39.9706 35.7585C40.0645 34.7542 39.8763 33.7437 39.4273 32.8408C38.9784 31.9378 38.2864 31.1782 37.4294 30.6476C36.5724 30.117 35.5844 29.8363 34.5767 29.8373C34.1368 29.8369 33.6985 29.8888 33.2709 29.9921L23.9157 13.7421C24.6511 12.9755 25.1453 12.0096 25.337 10.9643C25.5287 9.91903 25.4095 8.84043 24.9941 7.86239C24.5787 6.88435 23.8854 6.04996 23.0004 5.4628C22.1153 4.87563 21.0774 4.56156 20.0156 4.55957Z" fill="white"/>
<path d="M34.5764 30.6968C33.9878 30.6915 33.4039 30.8026 32.8583 31.0235L22.8073 13.5698C23.5555 12.9845 24.1025 12.1801 24.3721 11.2687C24.6417 10.3574 24.6204 9.38453 24.3111 8.4859C24.0018 7.58726 23.4201 6.80763 22.6469 6.25575C21.8738 5.70386 20.9478 5.40723 19.9982 5.40723C19.0485 5.40723 18.1226 5.70386 17.3494 6.25575C16.5763 6.80763 15.9945 7.58726 15.6852 8.4859C15.376 9.38453 15.3546 10.3574 15.6242 11.2687C15.8938 12.1801 16.4408 12.9845 17.189 13.5698L7.12088 31.0235C6.57514 30.8028 5.99134 30.6918 5.40276 30.6968C4.5278 30.6962 3.67119 30.9479 2.93546 31.4219C2.19972 31.8958 1.61602 32.5719 1.25421 33.3693C0.892388 34.1666 0.767779 35.0514 0.895291 35.9177C1.0228 36.7841 1.39704 37.5953 1.9732 38.2544C2.54937 38.9134 3.30307 39.3923 4.14411 39.6338C4.98514 39.8753 5.87789 39.8692 6.71552 39.6161C7.55315 39.363 8.30018 38.8737 8.86721 38.2068C9.43424 37.5399 9.79726 36.7235 9.91282 35.8555H30.0663C30.1819 36.7235 30.5449 37.5399 31.1119 38.2068C31.679 38.8737 32.426 39.363 33.2636 39.6161C34.1013 39.8692 34.994 39.8753 35.835 39.6338C36.6761 39.3923 37.4298 38.9134 38.0059 38.2544C38.5821 37.5953 38.9563 36.7841 39.0839 35.9177C39.2114 35.0514 39.0868 34.1666 38.7249 33.3693C38.3631 32.5719 37.7794 31.8958 37.0437 31.4219C36.3079 30.9479 35.4514 30.6962 34.5764 30.6968ZM34.5764 38.5294C33.9266 38.5311 33.291 38.3397 32.75 37.9795C32.209 37.6193 31.7871 37.1064 31.5376 36.5059C31.2882 35.9054 31.2225 35.2443 31.3488 34.6064C31.4752 33.9685 31.7879 33.3825 32.2474 32.9226C32.7068 32.4628 33.2923 32.1498 33.9297 32.0234C34.5671 31.8969 35.2276 31.9627 35.8276 32.2123C36.4276 32.462 36.94 32.8843 37.2999 33.4257C37.6599 33.9671 37.8511 34.6033 37.8494 35.2536C37.8471 36.1217 37.5016 36.9536 36.8883 37.5675C36.2749 38.1813 35.4437 38.5272 34.5764 38.5294ZM5.41135 38.5294C4.76194 38.5294 4.12714 38.3366 3.5873 37.9753C3.04746 37.614 2.62685 37.1006 2.37873 36.4999C2.13061 35.8993 2.06613 35.2385 2.19344 34.6011C2.32076 33.9638 2.63416 33.3786 3.09396 32.9196C3.55376 32.4606 4.13929 32.1485 4.77642 32.0227C5.41356 31.897 6.07365 31.9632 6.67313 32.2131C7.27261 32.463 7.78453 32.8854 8.14408 33.4266C8.50364 33.9678 8.69465 34.6037 8.69295 35.2536C8.69068 36.1232 8.34394 36.9564 7.72876 37.5705C7.11359 38.1846 6.2802 38.5294 5.41135 38.5294ZM16.7423 9.97587C16.7423 9.32591 16.935 8.69057 17.296 8.15027C17.657 7.60997 18.17 7.18901 18.7701 6.94067C19.3702 6.69234 20.0305 6.6278 20.6673 6.75523C21.3041 6.88266 21.8888 7.19632 22.3474 7.65651C22.806 8.1167 23.1179 8.70273 23.2435 9.3404C23.3692 9.97808 23.303 10.6387 23.0533 11.2387C22.8036 11.8387 22.3816 12.3511 21.8408 12.7109C21.3001 13.0708 20.6647 13.262 20.0153 13.2603C19.1465 13.258 18.314 12.9109 17.7005 12.2952C17.0869 11.6796 16.7423 10.8455 16.7423 9.97587ZM30.9855 32.4507L24.2505 28.5817C24.5023 27.9405 24.6062 27.2506 24.5543 26.5636C24.5024 25.8766 24.2961 25.2102 23.9509 24.6142C23.6056 24.0182 23.1303 23.5079 22.5604 23.1215C21.9905 22.7351 21.3407 22.4825 20.6596 22.3826V14.4898C21.0224 14.44 21.3774 14.3447 21.7163 14.206L31.7844 31.6597C31.4864 31.8892 31.218 32.1549 30.9855 32.4507ZM20.0153 30.1723C19.3652 30.1723 18.7297 29.979 18.1895 29.6169C17.6493 29.2549 17.2288 28.7404 16.9812 28.1388C16.7335 27.5371 16.6701 26.8754 16.7988 26.2376C16.9275 25.5998 17.2426 25.0146 17.7042 24.5564C18.1657 24.0981 18.7528 23.7873 19.3911 23.6635C20.0293 23.5397 20.69 23.6084 21.2891 23.861C21.8883 24.1135 22.399 24.5385 22.7565 25.082C23.1139 25.6255 23.3021 26.263 23.2969 26.9137C23.2901 27.7803 22.9414 28.6091 22.3267 29.2195C21.712 29.8298 20.8812 30.1723 20.0153 30.1723ZM19.3796 14.4898V22.3826C18.2905 22.5381 17.2943 23.0823 16.5744 23.915C15.8545 24.7476 15.4596 25.8126 15.4623 26.9137C15.4557 27.5029 15.5667 28.0875 15.7888 28.6333L9.01081 32.5109C8.7813 32.2182 8.519 31.9528 8.22906 31.7199L18.3144 14.206C18.6563 14.3447 19.0141 14.44 19.3796 14.4898ZM9.64651 33.5685L16.4245 29.6908C16.8492 30.2389 17.3936 30.6825 18.016 30.9877C18.6384 31.2929 19.3223 31.4515 20.0153 31.4515C20.7084 31.4515 21.3923 31.2929 22.0147 30.9877C22.637 30.6825 23.1814 30.2389 23.6062 29.6908L30.3412 33.5599C30.2074 33.9119 30.1151 34.2783 30.0663 34.6518H9.92141C9.87378 34.2809 9.78148 33.9172 9.64651 33.5685Z" fill="#AE562C"/>
</svg>
