<?xml version="1.0" encoding="UTF-8"?>
<svg id="Layer_1" data-name="Layer 1" xmlns="http://www.w3.org/2000/svg" viewBox="0 0 42.08 40.29">
  <defs>
    <style>
      .cls-1 {
        fill: #2c5967;
      }

      .cls-2 {
        fill: #fff;
      }
    </style>
  </defs>
  <g>
    <path class="cls-2" d="M26.77,36.7l.07-.07c-.12,.02-.38,.07-.38,.07l-.19,.06c-2.41,.4-4.93,.42-5.42,.42h-.14c-.48,0-3.01-.02-5.42-.42l-.16-.03-.03-.03c-3.15-.57-4.75-1.61-4.75-3.1l-.03-2.33-.04,.1v-3.14s0-6.73,0-6.73H.54l.11-1.46c.26-3.44,2.24-6.46,5.3-8.07,.66-.35,1.12-.96,1.26-1.67,.48-2.44,2.12-4.49,4.39-5.49,.96-.42,2.01-.64,3.06-.64,.24,0,.47,.01,.71,.03,.08,0,.16,.01,.24,.01,.66,0,1.25-.26,1.68-.72,1.76-1.89,4.24-2.98,6.82-2.98,3.55,0,6.74,1.97,8.33,5.15,.33,.67,.95,1.14,1.68,1.3,1.07,.24,2.08,.65,3.02,1.24,4.22,2.66,5.68,8.18,3.31,12.57l-.39,.71h-8.77v5.39h.02s.77,.78,.77,.78l.34,.41c.55,.82,.68,1.82,.37,2.7l.47,.47,.8-.8,.53-2.06,3.79-1.77,1.37,1.37-1.77,3.79-2.06,.53-.8,.8,4.34,4.34-1.85,1.85-4.34-4.34-.32,.32,.52,.52-3.8,3.8-2.88-2.89Z"/>
    <path class="cls-2" d="M24.11,1c3.36,0,6.38,1.87,7.88,4.88,.4,.8,1.14,1.37,2.02,1.57,1.01,.22,1.97,.62,2.86,1.18,4,2.52,5.38,7.75,3.14,11.91l-.24,.45h-8.98v6.25l.25,.08h0l.69,.69s0,0,0,0l.31,.38c.5,.75,.56,1.71,.17,2.5l1.06,1.06,1.44-1.44-.11-.11,.42-1.66,3.26-1.52,.87,.87-1.52,3.26-1.66,.42-.11-.11-1.44,1.44,4.34,4.34-1.15,1.15-4.34-4.34-1.02,1.02,.52,.52-3.09,3.09-1.15-1.15h0s-1.03-1.03-1.03-1.03l1.03-1.03c-.69,.24-1.48,.43-2.29,.57l-.03,.03c-2.36,.39-4.83,.41-5.33,.41-.02,0-.05,0-.07,0s-.05,0-.07,0c-.51,0-2.98-.02-5.33-.41l-.03-.03c-2.32-.4-4.49-1.17-4.49-2.63l-.06-5.16v.02s0-.24,0-.24v-7.23H1.08l.07-.92c.24-3.27,2.12-6.14,5.03-7.66,.79-.42,1.35-1.15,1.52-2.01,.45-2.28,1.98-4.19,4.11-5.13,.9-.4,1.88-.6,2.86-.6,.22,0,.44,.01,.66,.03,.1,0,.19,.01,.28,.01,.79,0,1.52-.31,2.05-.88,1.66-1.79,4.02-2.82,6.46-2.82m0-1c-2.72,0-5.34,1.14-7.19,3.14-.34,.36-.8,.56-1.32,.56-.06,0-.13,0-.19,0-.25-.02-.5-.04-.75-.04-1.11,0-2.24,.24-3.26,.68-2.42,1.06-4.17,3.25-4.68,5.85-.11,.56-.48,1.05-1,1.32C2.5,13.2,.42,16.37,.15,19.99l-.07,.92-.08,1.07H9.8v11.93l.07-.19c.11,2.41,3.48,3.16,5,3.44h0s.35,.09,.35,.09c2.44,.4,5.01,.42,5.5,.42h.07s.07,0,.07,0c.49,0,3.05-.02,5.5-.42l.22-.04,.19,.19,1.03,1.03,1.15,1.15,.71,.71,.71-.71,3.09-3.09,.32-.32,3.12,3.12,.71,.71,.71-.71,1.15-1.15,.71-.71-.71-.71-3.63-3.64,.35-.34h.04s1.66-.43,1.66-.43l.46-.12,.2-.43,1.52-3.26,.3-.63-.5-.5-.87-.87-.5-.5-.63,.3-3.26,1.52-.43,.2-.12,.46-.42,1.66v.04s-.21,.2-.21,.2c.16-.88-.03-1.81-.54-2.57l-.03-.04-.03-.04-.31-.38-.03-.04-.04-.04-.64-.64v-4.67h8.57l.28-.53,.24-.45c2.49-4.62,.96-10.43-3.48-13.23-.98-.62-2.05-1.06-3.17-1.31-.59-.13-1.08-.51-1.34-1.04-1.67-3.35-5.04-5.43-8.78-5.43h0Z"/>
  </g>
  <g>
    <path class="cls-1" d="M6.98,13.92c1.26-.66,2.13-1.83,2.4-3.2,.34-1.73,1.5-3.18,3.11-3.89,.84-.37,1.76-.52,2.66-.43,1.43,.13,2.8-.38,3.76-1.41,1.34-1.44,3.23-2.27,5.2-2.27,2.7,0,5.13,1.5,6.34,3.93,.63,1.27,1.79,2.17,3.19,2.48,.82,.18,1.6,.5,2.31,.95,3.1,1.95,4.25,5.9,2.76,9.19h-6.64v1.72h7.69l.24-.45c2.24-4.16,.87-9.39-3.14-11.91-.88-.56-1.84-.95-2.86-1.18-.88-.2-1.62-.77-2.02-1.57-1.5-3.01-4.52-4.88-7.88-4.88-2.44,0-4.8,1.03-6.46,2.82-.59,.64-1.44,.95-2.33,.87-1.2-.11-2.41,.08-3.52,.57-2.12,.93-3.66,2.85-4.11,5.13-.17,.86-.72,1.6-1.52,2.01-2.91,1.53-4.79,4.39-5.03,7.66l-.07,.92H9.51v-1.72H2.98c.45-2.28,1.89-4.24,4-5.35Z"/>
    <path class="cls-1" d="M28.61,33.85c-1.13,.51-3.86,1.11-7.75,1.11-4.8,0-7.83-.91-8.27-1.44l-.04-3.4c2.66,1.14,7.51,1.18,8.25,1.18,.51,0,3.03-.02,5.41-.42l-.45-1.34-.11-.31c-1.3,.21-2.94,.35-4.85,.35-4.79,0-7.82-.9-8.27-1.44v-3.57c2.66,1.15,7.53,1.19,8.27,1.19s5.62-.05,8.27-1.19v.81l.63,.21,1.09,.36v-8.68s0-.02,0-.04c0-.03,0-.05,0-.08,0-2.97-8.97-3.06-9.99-3.06s-9.99,.09-9.99,3.06c0,.03,0,.05,0,.08,0,.01,0,.02,0,.04v10.94s0,.07,0,.1l.06,5.28c0,2.99,8.97,3.07,9.99,3.07,.51,0,2.98-.02,5.33-.41l.42-.42,1.99-1.99ZM12.52,22.6v-3.57c2.66,1.14,7.53,1.19,8.27,1.19s5.62-.04,8.27-1.19v3.57c-.45,.54-3.48,1.44-8.27,1.44s-7.82-.9-8.27-1.44Zm16.45-5.44c-.66,.52-3.45,1.34-8.18,1.34s-7.51-.82-8.18-1.34c.66-.52,3.45-1.34,8.18-1.34s7.51,.82,8.18,1.34Z"/>
    <path class="cls-1" d="M35.96,31.77l1.66-.42,1.52-3.26-.87-.87-3.26,1.52-.42,1.66,.11,.11-1.44,1.44-1.06-1.06c.39-.8,.33-1.76-.17-2.5l-.31-.38s0,0,0,0h0l-.69-.69h0s-1.72-.58-1.72-.58l-.57,.57,1.15,1.15,.37-.37-.37,.37,.63,.63-1.26,1.26-.63-.63h0l-1.15-1.15-.57,.57,.58,1.72h0s.69,.69,.69,.69c.49,.49,1.13,.73,1.78,.73,.38,0,.76-.09,1.11-.26l1.06,1.06-1.02,1.02-.52-.52-3.09,3.09,1.03,1.03h0s1.15,1.15,1.15,1.15l3.09-3.09-.52-.52,1.02-1.02,4.34,4.34,1.15-1.15-4.34-4.34,1.44-1.44,.11,.11Z"/>
  </g>
</svg>