<?xml version="1.0" encoding="UTF-8"?>
<svg xmlns="http://www.w3.org/2000/svg" version="1.1" viewBox="0 0 42 41.9">
  <metadata><?xpacket begin="﻿" id="W5M0MpCehiHzreSzNTczkc9d"?>
<x:xmpmeta xmlns:x="adobe:ns:meta/" x:xmptk="Adobe XMP Core 7.1-c000 79.4d2f597, 2021/09/01-20:51:22        ">
   <rdf:RDF xmlns:rdf="http://www.w3.org/1999/02/22-rdf-syntax-ns#">
      <rdf:Description rdf:about=""
            xmlns:dc="http://purl.org/dc/elements/1.1/"
            xmlns:xmpRights="http://ns.adobe.com/xap/1.0/rights/"
            xmlns:xmp="http://ns.adobe.com/xap/1.0/"
            xmlns:xmpMM="http://ns.adobe.com/xap/1.0/mm/"
            xmlns:stEvt="http://ns.adobe.com/xap/1.0/sType/ResourceEvent#">
         <dc:rights>
            <rdf:Alt>
               <rdf:li xml:lang="x-default">Oracle All Rights</rdf:li>
            </rdf:Alt>
         </dc:rights>
         <dc:subject>
            <rdf:Bag>
               <rdf:li>cycle</rdf:li>
               <rdf:li>boxes</rdf:li>
               <rdf:li>registry</rdf:li>
               <rdf:li>registration</rdf:li>
               <rdf:li>artifact</rdf:li>
               <rdf:li>icon</rdf:li>
            </rdf:Bag>
         </dc:subject>
         <xmpRights:Marked>True</xmpRights:Marked>
         <xmp:MetadataDate>2024-10-09T12:55:25-06:00</xmp:MetadataDate>
         <xmpMM:InstanceID>xmp.iid:cb38ea0d-6623-4078-8002-4e9793afd11b</xmpMM:InstanceID>
         <xmpMM:DocumentID>xmp.did:0e201c7a-2bbb-4e31-8576-5411ec004ff7</xmpMM:DocumentID>
         <xmpMM:OriginalDocumentID>xmp.did:0e201c7a-2bbb-4e31-8576-5411ec004ff7</xmpMM:OriginalDocumentID>
         <xmpMM:History>
            <rdf:Seq>
               <rdf:li>
                  <rdf:Description>
                     <stEvt:action>saved</stEvt:action>
                     <stEvt:instanceID>xmp.iid:0e201c7a-2bbb-4e31-8576-5411ec004ff7</stEvt:instanceID>
                     <stEvt:when>2024-10-09T12:53:41-06:00</stEvt:when>
                     <stEvt:softwareAgent>Adobe Bridge 2023</stEvt:softwareAgent>
                     <stEvt:changed>/metadata</stEvt:changed>
                  </rdf:Description>
               </rdf:li>
               <rdf:li>
                  <rdf:Description>
                     <stEvt:action>saved</stEvt:action>
                     <stEvt:instanceID>xmp.iid:cb38ea0d-6623-4078-8002-4e9793afd11b</stEvt:instanceID>
                     <stEvt:when>2024-10-09T12:55:25-06:00</stEvt:when>
                     <stEvt:softwareAgent>Adobe Bridge 2023</stEvt:softwareAgent>
                     <stEvt:changed>/metadata</stEvt:changed>
                  </rdf:Description>
               </rdf:li>
            </rdf:Seq>
         </xmpMM:History>
      </rdf:Description>
   </rdf:RDF>
</x:xmpmeta>
                                                                                                    
                                                                                                    
                                                                                                    
                                                                                                    
                                                                                                    
                                                                                                    
                                                                                                    
                                                                                                    
                                                                                                    
                                                                                                    
                                                                                                    
                                                                                                    
        
<?xpacket end="w"?></metadata>
<defs>
    <style>
      .cls-1 {
        fill: none;
        stroke: #2ba6de;
        stroke-miterlimit: 10;
        stroke-width: .2px;
      }

      .cls-2 {
        fill: #fff;
      }

      .cls-3 {
        fill: #2ba6de;
      }

      .cls-4 {
        fill: #2d5967;
      }

      .cls-5 {
        display: none;
      }
    </style>
  </defs>
  <!-- Generator: Adobe Illustrator 28.7.1, SVG Export Plug-In . SVG Version: 1.2.0 Build 142)  -->
  <g>
    <g id="guides" class="cls-5">
      <g id="Guides">
        <path class="cls-3" d="M21-26.9c26.3,0,47.8,21.4,47.8,47.7s-21.4,47.7-47.8,47.7S-26.8,47.1-26.8,20.8-5.3-26.9,21-26.9M21-27.1C-5.5-27.1-27-5.7-27,20.8S-5.5,68.7,21,68.7s48-21.5,48-47.9S47.5-27.1,21-27.1h0Z"/>
        <line class="cls-1" x1="-27" y1="-123.2" x2="-27" y2="164.8"/>
        <line class="cls-1" x1="69" y1="-123.2" x2="69" y2="164.8"/>
        <line class="cls-1" x1="-123" y1="68.8" x2="165" y2="68.8"/>
        <line class="cls-1" x1="-123" y1="-27.2" x2="165" y2="-27.2"/>
        <path class="cls-3" d="M21-110.8c35.2,0,68.3,13.7,93.2,38.6,24.9,24.9,38.6,58,38.6,93.2s-13.7,68.3-38.6,93.2c-24.9,24.9-58,38.6-93.2,38.6s-68.3-13.7-93.2-38.6c-24.9-24.9-38.6-58-38.6-93.2s13.7-68.3,38.6-93.2c24.9-24.9,58-38.6,93.2-38.6M21-111.1c-72.9,0-132,59.1-132,132S-51.9,152.9,21,152.9,153,93.8,153,20.9,93.9-111.1,21-111.1h0Z"/>
        <path class="cls-3" d="M117-111c6.5,0,11.8,5.3,11.8,11.8v240c0,6.5-5.3,11.8-11.8,11.8H-75c-6.5,0-11.8-5.3-11.8-11.8V-99.2c0-6.5,5.3-11.8,11.8-11.8H117M117-111.2H-75c-6.6,0-12,5.4-12,12v240c0,6.6,5.4,12,12,12H117c6.6,0,12-5.4,12-12V-99.2c0-6.6-5.4-12-12-12h0Z"/>
        <path class="cls-3" d="M141-87c6.5,0,11.8,5.3,11.8,11.8V116.8c0,6.5-5.3,11.8-11.8,11.8H-99c-6.5,0-11.8-5.3-11.8-11.8V-75.2c0-6.5,5.3-11.8,11.8-11.8h240M141-87.2H-99c-6.6,0-12,5.4-12,12V116.8c0,6.6,5.4,12,12,12h240c6.6,0,12-5.4,12-12V-75.2c0-6.6-5.4-12-12-12h0Z"/>
        <path class="cls-3" d="M124.8-99c8.8,0,16,7.2,16,16V124.6c0,8.8-7.2,16-16,16H-82.8c-8.8,0-16-7.2-16-16V-83c0-8.8,7.2-16,16-16H124.8M124.8-99.2H-82.8c-8.9,0-16.2,7.3-16.2,16.2V124.6c0,8.9,7.3,16.2,16.2,16.2H124.8c8.9,0,16.2-7.3,16.2-16.2V-83c0-8.9-7.3-16.2-16.2-16.2h0Z"/>
        <path class="cls-3" d="M116.8-75V116.5H-74.8V-75H116.8M117-75.2H-75V116.8H117V-75.2h0Z"/>
      </g>
    </g>
    <g id="Extras">
      <g>
        <path class="cls-2" d="M42,20.9c0-3.6-.9-7.1-2.6-10.2l-.5-.8h0l-.2-.3-.8-1.4V2.9h-3.5v1.9C30.6,1.7,25.9,0,21,0s-7.1.9-10.2,2.6l-.8.5h0c0,0-.3.1-.3.1l-1.4.8H2.9v3.5h1.9C1.7,11.4,0,16,0,20.9s.9,7.1,2.7,10.2l.5.8h0l.2.3.8,1.4v5.3h3.6v-1.9c3.8,3.1,8.4,4.8,13.4,4.8s7.2-1,10.4-2.8c0,0,2.1-1.4,2.3-1.5h5.6v-3.5h-1.9c3-3.7,4.7-8.3,4.7-13.1Z"/>
        <g>
          <path class="cls-4" d="M26.4,13.9l-5.4-3.1-5.4,3.1v5.2l-4.7,2.7v6.3l5.4,3.1,4.7-2.7,4.7,2.7,5.4-3.1v-6.3l-4.7-2.7v-5.2ZM25.6,24l-2.9-1.7,3.1-1.8,2.9,1.7-3.1,1.8ZM20.2,17.5v3.4l-3.1-1.8v-3.4l3.1,1.8ZM21.8,20.9v-3.4l3.1-1.8v3.4l-3.1,1.8ZM19.3,22.3l-2.9,1.7-3.1-1.8,2.9-1.7,3.1,1.8ZM17.1,25.4l3.1-1.8v3.6l-3.1,1.8v-3.6ZM24.1,14.3l-3.1,1.8-3.1-1.8,3.1-1.8,3.1,1.8ZM12.5,23.6l3.1,1.8v3.6l-3.1-1.8v-3.6ZM21.8,23.6l3.1,1.8v3.6l-3.1-1.8v-3.6ZM26.4,28.9v-3.6l3.1-1.8v3.6l-3.1,1.8Z"/>
          <path class="cls-4" d="M5.3,30.7c-1.8-2.8-2.8-6.1-2.8-9.7,0-5.4,2.3-10.2,6-13.6v3.7h1.6v-6h-1.2s0,0,0,0H3.9v1.6h3.2C3.3,10.3,1,15.4,1,21s.9,6.8,2.5,9.7h0s1.8,0,1.8,0Z"/>
          <path class="cls-4" d="M11.3,5.3c2.8-1.8,6.1-2.8,9.7-2.8,5.4,0,10.2,2.3,13.6,6h-3.9v1.6h6.2v-1.2h0s0,0,0,0V3.9h-1.6v3.2C31.7,3.3,26.6,1,21,1s-6.8.9-9.7,2.5h0v1.8Z"/>
          <path class="cls-4" d="M41,21c0-3.5-.9-6.8-2.5-9.7h0s-1.8,0-1.8,0c1.8,2.8,2.8,6.1,2.8,9.7,0,5.3-2.2,10.1-5.8,13.4v-3.9h-1.6v6.2h1.2c0,0,0,0,.1,0h4.9v-1.6h-3.2c3.6-3.6,5.9-8.6,5.9-14.2Z"/>
          <path class="cls-4" d="M21,39.4c-5.4,0-10.2-2.3-13.6-6h3.7v-1.6h-6v1.2h0s0,0,0,0v5h1.6v-3.2c3.6,3.8,8.7,6.1,14.4,6.1s7-1,9.9-2.6v-1.8c-2.9,1.8-6.3,2.9-9.9,2.9Z"/>
        </g>
      </g>
    </g>
  </g>
</svg>