<svg width="36" height="36" viewBox="0 0 36 36" fill="none" xmlns="http://www.w3.org/2000/svg">
<metadata><?xpacket begin="﻿" id="W5M0MpCehiHzreSzNTczkc9d"?>
<x:xmpmeta xmlns:x="adobe:ns:meta/" x:xmptk="Adobe XMP Core 7.1-c000 79.4d2f597, 2021/09/01-20:51:22        ">
   <rdf:RDF xmlns:rdf="http://www.w3.org/1999/02/22-rdf-syntax-ns#">
      <rdf:Description rdf:about=""
            xmlns:xmpRights="http://ns.adobe.com/xap/1.0/rights/"
            xmlns:xmp="http://ns.adobe.com/xap/1.0/"
            xmlns:xmpMM="http://ns.adobe.com/xap/1.0/mm/"
            xmlns:stEvt="http://ns.adobe.com/xap/1.0/sType/ResourceEvent#"
            xmlns:dc="http://purl.org/dc/elements/1.1/">
         <xmpRights:Marked>True</xmpRights:Marked>
         <xmp:MetadataDate>2025-02-06T15:37:27-06:00</xmp:MetadataDate>
         <xmpMM:InstanceID>xmp.iid:26faebe0-9431-4173-af58-20de1c41d5c9</xmpMM:InstanceID>
         <xmpMM:DocumentID>xmp.did:a7fa85aa-dafe-41b7-8e9d-2898ca10bac1</xmpMM:DocumentID>
         <xmpMM:OriginalDocumentID>xmp.did:a7fa85aa-dafe-41b7-8e9d-2898ca10bac1</xmpMM:OriginalDocumentID>
         <xmpMM:History>
            <rdf:Seq>
               <rdf:li>
                  <rdf:Description>
                     <stEvt:action>saved</stEvt:action>
                     <stEvt:instanceID>xmp.iid:a7fa85aa-dafe-41b7-8e9d-2898ca10bac1</stEvt:instanceID>
                     <stEvt:when>2025-02-05T16:49:22-06:00</stEvt:when>
                     <stEvt:softwareAgent>Adobe Bridge 2023</stEvt:softwareAgent>
                     <stEvt:changed>/metadata</stEvt:changed>
                  </rdf:Description>
               </rdf:li>
               <rdf:li>
                  <rdf:Description>
                     <stEvt:action>saved</stEvt:action>
                     <stEvt:instanceID>xmp.iid:26faebe0-9431-4173-af58-20de1c41d5c9</stEvt:instanceID>
                     <stEvt:when>2025-02-06T15:37:27-06:00</stEvt:when>
                     <stEvt:softwareAgent>Adobe Bridge 2023</stEvt:softwareAgent>
                     <stEvt:changed>/metadata</stEvt:changed>
                  </rdf:Description>
               </rdf:li>
            </rdf:Seq>
         </xmpMM:History>
         <dc:subject>
            <rdf:Bag>
               <rdf:li>My SQL</rdf:li>
               <rdf:li>logo</rdf:li>
               <rdf:li>icon</rdf:li>
            </rdf:Bag>
         </dc:subject>
         <dc:rights>
            <rdf:Alt>
               <rdf:li xml:lang="x-default">Oracle All Rights</rdf:li>
            </rdf:Alt>
         </dc:rights>
      </rdf:Description>
   </rdf:RDF>
</x:xmpmeta>
                                                                                                    
                                                                                                    
                                                                                                    
                                                                                                    
                                                                                                    
                                                                                                    
                                                                                                    
                                                                                                    
                                                                                                    
                                                                                                    
                                                                                                    
                                                                                                    
                                                                                                    
                                                                                                    
                                                                                                    
                                   
<?xpacket end="w"?></metadata>
<path d="M35.4159 24.9581L35.399 24.9328C35.3313 24.8058 35.2128 24.6111 34.9927 24.3826C34.7388 24.0863 34.3833 23.7731 34.0023 23.5107C34.1209 23.4938 34.2394 23.4853 34.3325 23.4853H36L35.0181 22.1394C34.2055 21.0306 32.9358 20.0825 31.6238 19.6085C31.5815 19.5916 31.5476 19.5831 31.5138 19.5747C31.336 19.253 30.7773 18.0933 30.3118 17.0014C29.4061 15.0207 28.0433 13.5902 26.0033 12.4728C25.4108 12.1512 24.7167 11.9734 23.9379 11.948C23.9125 11.9226 23.8871 11.9057 23.8617 11.8803C23.7263 11.7787 23.5824 11.6602 23.4131 11.5587C23.1423 11.3809 22.4143 11 21.6779 11C20.9415 11 20.3913 11.364 20.1289 11.9904C19.731 12.9469 20.3828 13.7764 20.696 14.1827C20.7383 14.2419 20.7806 14.2927 20.806 14.3351C20.8399 14.3774 20.8737 14.4282 20.9161 14.4959C21.06 14.6906 21.2462 14.9614 21.3054 15.2323C21.4239 15.7063 21.6102 16.1211 21.7794 16.4851L21.8641 16.6713L21.881 16.7221L21.9149 16.7729C21.9149 16.7729 21.9741 16.866 21.9995 16.9168C22.0757 17.0437 22.1688 17.2046 22.2873 17.3569C21.6863 19.0245 22.0165 20.565 22.5582 21.4792C22.8545 22.004 23.5062 22.6304 24.3442 22.6896L25.1738 22.7404L25.2076 22.3849C25.7494 22.9436 26.4942 23.57 27.4931 24.154V25.7538C26.6805 24.2471 25.2245 23.9593 24.2257 23.9593C22.973 23.9593 21.9741 24.391 21.2631 25.2375C20.6113 26.0078 20.2558 27.0489 20.1796 28.4032C20.1035 28.3355 20.0103 28.2678 19.9172 28.2001L19.8834 28.1747L19.8495 28.1493C19.8495 28.1493 18.7153 27.4891 18.1651 27.2013C17.8603 27.0404 17.6741 26.8712 17.6741 26.7526C17.6741 26.7526 17.6826 26.7188 17.7249 26.6849C17.7842 26.6426 17.9111 26.5918 18.1227 26.5918C18.5121 26.5918 18.9099 26.6765 19.3078 26.8458L20.0442 27.1589L20.3997 26.4479L20.7214 25.7961L21.06 25.119L20.4251 24.7127C19.6887 24.2302 18.8846 23.9932 17.9788 23.9932C17.0731 23.9932 16.2521 24.264 15.6765 24.7973C15.2786 25.1274 15.0078 25.593 14.8639 26.1263H12.6969L12.5953 26.8542C12.5107 27.4552 12.4176 28.0139 12.3075 28.5471L11.7489 26.7273L11.5711 26.1263H9.37879C9.328 25.703 9.27722 25.2798 9.21796 24.8396L9.12485 24.1032H6.21303L6.0268 24.6873L4.9518 27.9715L3.87679 24.6873L3.69057 24.1032H0.711028L0.609452 24.8396C0.296261 27.2013 0.101575 29.7745 0.0253938 32.7287L0 33.5921H2.8949L2.91183 32.7625C2.92029 32.2293 2.92876 31.7044 2.94569 31.1796L3.52974 33.008L3.71597 33.5921H5.93369L6.11992 33.008L6.78862 30.9003C6.82248 31.5182 6.83941 32.1361 6.84787 32.7625L6.8648 33.5921H8.69316V33.9052L8.68469 35.2003L9.26875 35.395C9.60734 35.5051 9.97131 35.6151 10.3268 35.6151C11.4442 35.6151 12.4091 34.9972 13.264 33.7275C14.0513 32.5594 14.6861 30.8241 15.2109 28.4794C15.4479 28.8265 15.7442 29.0804 15.9897 29.2751L16.032 29.3005L16.0658 29.3259C16.0658 29.3259 17.1747 29.9861 17.7249 30.2824C17.9958 30.4348 18.182 30.6125 18.182 30.7225C18.182 30.7564 18.182 30.8241 18.0635 30.9342C17.9704 30.9934 17.8095 31.0696 17.4794 31.0696C17.2678 31.0696 16.8192 31.0188 16.2097 30.6972L15.431 30.2824L15.0501 31.0865L14.7284 31.7722L14.4152 32.4239L15.0162 32.8302C15.8458 33.4058 16.7684 33.7021 17.691 33.7021C18.7407 33.7021 19.5871 33.4058 20.2135 32.8302C20.4674 32.5932 20.6706 32.3393 20.8314 32.06C20.9245 32.2293 21.0346 32.3901 21.1531 32.534C21.8387 33.3127 22.8121 33.7021 24.048 33.7021C24.3781 33.7021 24.6743 33.6767 24.9368 33.6259L26.5112 34.5316L27.2391 34.9464L27.6624 34.2184L28.0263 33.5921H35.5429V30.9596H32.902V30.9257H30.4472V25.4491C31.6238 25.83 32.9951 26.1347 34.5949 26.3294H34.6457H34.6965C35.1281 26.3294 35.4583 26.0332 35.5429 25.6269C35.5768 25.3306 35.4837 25.0851 35.4159 24.9497V24.9581Z" fill="white"/>
<path fill-rule="evenodd" clip-rule="evenodd" d="M34.5101 32.7457H34.6879V31.8061H34.4001L34.1462 32.4579L33.8922 31.8061H33.6044V32.7457H33.7822V32.0262L34.07 32.7457H34.2139L34.5017 32.0262V32.7457H34.5101ZM32.9188 32.7457H33.1389V31.95H33.4267V31.8061H32.631V31.95H32.9188V32.7457ZM32.0131 32.7457H28.331V24.9498H29.5922V31.7723H32.0469V32.7457H32.0131ZM27.4253 32.9235L25.9778 32.204C26.1217 32.0939 26.2317 31.9839 26.3418 31.84C26.9512 31.1205 27.2475 30.0709 27.2475 28.6658C27.2475 26.101 26.2402 24.8059 24.2172 24.8059C23.2099 24.8059 22.4481 25.1276 21.9063 25.7793C21.2969 26.4988 21.0006 27.5484 21.0006 28.9536C21.0006 30.3587 21.2546 31.3321 21.7963 31.9839C22.3042 32.5595 23.0237 32.8473 24.0309 32.8473C24.3949 32.8473 24.7504 32.8134 25.0382 32.7034L26.9174 33.7869L27.4253 32.9235ZM22.7697 31.1544C22.4481 30.6465 22.3042 29.817 22.3042 28.6996C22.3042 26.7528 22.9136 25.737 24.1071 25.737C24.7166 25.737 25.1906 25.991 25.4784 26.4565C25.8001 26.9644 25.9439 27.7601 25.9439 28.8774C25.9439 30.8666 25.3345 31.84 24.141 31.84C23.5315 31.8739 23.0575 31.6622 22.7697 31.1544ZM20.3488 30.5788C20.3488 31.2306 20.0949 31.7723 19.6293 32.204C19.1638 32.6357 18.512 32.8558 17.6825 32.8558C16.9207 32.8558 16.1673 32.6018 15.4817 32.1363L15.8033 31.4506C16.4128 31.7723 16.9969 31.9162 17.4624 31.9162C17.928 31.9162 18.2919 31.8061 18.5797 31.5945C18.8337 31.3744 19.0114 31.0867 19.0114 30.7311C19.0114 30.2656 18.6898 29.8677 18.1057 29.5376C17.564 29.2498 16.4805 28.5981 16.4805 28.5981C15.9049 28.1664 15.5748 27.6923 15.5748 26.939C15.5748 26.3295 15.7949 25.7878 16.2266 25.4238C16.6583 25.026 17.2339 24.8482 17.9618 24.8482C18.6898 24.8482 19.3331 25.026 19.951 25.4238L19.6293 26.0756C19.1215 25.8555 18.6221 25.7539 18.1142 25.7539C17.7163 25.7539 17.3947 25.864 17.1746 26.0417C16.9545 26.2195 16.8106 26.4734 16.8106 26.7612C16.8106 27.2268 17.1323 27.6246 17.7502 27.9547C18.2919 28.2425 19.4093 28.8943 19.4093 28.8943C20.061 29.3599 20.3488 29.8339 20.3488 30.5872V30.5788Z" fill="#2D5967"/>
<path d="M8.98947 32.7454H7.68592C7.65206 30.5446 7.50817 28.4877 7.28809 26.5408L5.2989 32.7454H4.32547L2.33629 26.5408C2.19239 28.3776 2.08235 30.4769 2.04849 32.7454H0.85498C0.931162 29.969 1.10892 27.3703 1.43057 24.9495H3.05578L4.93492 30.6885L6.81407 24.9495H8.36309C8.72707 27.7682 8.93869 30.3668 8.97254 32.7454H8.98947ZM14.6523 26.9725C14.1106 29.8589 13.4249 31.9497 12.5615 33.2532C11.8759 34.2605 11.1564 34.7684 10.3269 34.7684C10.1068 34.7684 9.86133 34.6922 9.53121 34.5907V33.905C9.67511 33.9389 9.85286 33.9389 10.0729 33.9389C10.4369 33.9389 10.7586 33.8288 10.9787 33.6172C11.2665 33.3633 11.4104 33.0755 11.4104 32.7538C11.4104 32.5338 11.3003 32.1021 11.0887 31.4164L9.64125 26.9725H10.9448L11.9521 30.2906C12.1722 31.0525 12.2737 31.5942 12.2399 31.882C12.8155 30.3668 13.1795 28.7416 13.4334 26.9725H14.6608H14.6523Z" fill="#2D5967"/>
<path d="M33.6468 22.2834C33.2151 21.7755 32.0555 21.1322 31.3699 20.8783C31.1159 20.8021 30.5742 20.6582 30.4303 20.4804C29.9986 19.871 29.4569 18.4912 28.8813 17.23C28.4157 16.2227 27.2899 14.8853 25.9186 13.9457C24.4712 13.0062 23.684 13.2601 23.4301 13.1839C23.2862 13.1501 23.1084 12.9639 22.9984 12.8623C22.3889 12.3967 21.517 12.1428 21.3731 12.3544C21.1192 12.6761 21.7371 13.294 21.9149 13.5479C22.0588 13.768 22.2789 14.0135 22.3804 14.2674C22.6344 14.8091 22.7444 15.3847 22.956 15.8926C23.0322 16.0704 23.1761 16.3243 23.2777 16.5021C23.3877 16.646 23.5655 16.756 23.6417 16.9338C23.7517 17.1115 23.4639 17.7294 23.3877 17.941C23.1338 18.7029 23.21 19.7779 23.4639 20.472C23.5739 20.7259 23.8617 21.1576 24.0395 21.2338C24.0395 20.8359 24.1157 19.7525 24.759 19.033C25.0806 20.2265 25.9102 21.4539 26.308 21.9956C26.4519 22.1734 26.9937 22.7574 27.0275 22.7913C27.0275 22.8251 27.0614 22.7913 27.0275 22.7913C27.0275 22.7913 26.6297 22.5373 26.2318 22.1818C25.6224 21.6401 24.8606 20.6328 24.6828 20.1249C24.4289 20.5566 24.4289 21.3523 24.395 21.8602C23.8871 21.8263 23.4554 21.3946 23.2777 21.0645C22.8121 20.2688 22.5159 18.8637 23.2015 17.3147C23.2777 17.1369 23.0915 17.0607 22.9814 16.9168C22.8375 16.7391 22.7275 16.519 22.6174 16.3412C22.4397 15.9434 22.2196 15.5117 22.1096 15.08C21.9995 14.5383 21.644 14.1066 21.5001 13.8865C21.28 13.5648 20.6367 12.9469 20.8907 12.3375C21.2885 11.3979 22.6936 12.1174 22.9476 12.3036C23.2015 12.4475 23.4893 12.7353 23.6671 12.8115C23.921 12.8115 24.7844 12.8115 25.5801 13.2432C27.2391 14.1489 28.6104 15.3763 29.5161 17.357C29.9817 18.4405 30.7096 19.9895 30.8874 20.2096C30.9636 20.3196 31.209 20.3873 31.3191 20.4296C32.5126 20.8613 33.6299 21.7332 34.3155 22.6643C33.6299 22.6643 32.4787 22.986 32.1825 23.1299C32.3264 23.5277 33.0459 23.9255 33.376 24.1371C33.7738 24.3911 34.1378 24.7127 34.3494 24.9667C34.5695 25.1868 34.6372 25.3645 34.7134 25.4746C34.7134 25.4746 34.7021 25.4858 34.6795 25.5084C34.6795 25.5084 34.2478 25.1444 34.0277 25.0005C33.5961 24.7127 33.0543 24.4927 32.6565 24.281C32.4364 24.1371 31.6492 23.7054 31.3953 22.9098C32.0047 22.4442 33.2744 22.3003 33.6299 22.3003L33.6468 22.2834ZM23.6163 14.1912C23.6163 14.1912 23.794 14.369 23.9379 14.5891C24.0818 14.7668 24.0818 14.9107 24.1919 15.0546C24.1919 15.0546 24.5558 14.733 24.3019 14.369C24.0141 13.9711 23.6163 14.1912 23.6163 14.1912Z" fill="#2D5967"/>
</svg>
