<?xml version="1.0" encoding="UTF-8"?>
<svg id="Icon" xmlns="http://www.w3.org/2000/svg" version="1.1" viewBox="0 0 288 288">
  <!-- Generator: Adobe Illustrator 29.5.0, SVG Export Plug-In . SVG Version: 2.1.0 Build 137)  -->
  <defs>
    <style>
      .st0 {
        fill: #2f5967;
      }

      .st1 {
        fill: #fff;
      }
    </style>
  </defs>
  <g>
    <path class="st1" d="M170.8369141,211.1865234c-13.6586914,0-24.840332-10.8095703-25.4404297-24.3232422l-10.309082-3.8696289c-6.2436523,7.9541016-15.8491211,12.7265625-26.1166992,12.7265625-18.3066406,0-33.2001953-14.8935547-33.2001953-33.2001953s14.8935547-33.2001953,33.2001953-33.2001953c.5834961,0,1.168457.015625,1.7529297.046875l3.8701172-10.3110352c-5.0078125-4.7602539-7.8896484-11.3520508-7.8896484-18.4023438,0-14.0424805,11.4243164-25.4667969,25.4667969-25.4667969s25.4667969,11.4243164,25.4667969,25.4667969c0,.9838867-.0576172,1.965332-.171875,2.9404297l13.4936523,7.703125c4.3935547-3.3300781,9.7773438-5.1767578,15.3442383-5.1767578,14.0424805,0,25.4667969,11.4243164,25.4667969,25.4663086,0,14.0424805-11.4243164,25.4667969-25.4667969,25.4667969-7.0888672,0-13.855957-3.0351562-18.6318359-8.1582031l-25.6318359,10.684082c.0874023.9775391.1308594,1.9589844.1308594,2.940918,0,.5834961-.015625,1.1679688-.046875,1.7524414l10.3110352,3.8706055c4.7602539-5.0078125,11.3520508-7.8896484,18.4018555-7.8896484,14.0424805,0,25.4667969,11.4243164,25.4667969,25.4667969,0,14.0419922-11.4243164,25.4663086-25.4667969,25.4663086ZM129.4438477,136.4038086c1.7866211,1.402832,3.4272461,2.9848633,4.8930664,4.7192383l26.5463867-11.065918c.0288086-.4716797.0703125-.9418945.1254883-1.4116211l-13.4931641-7.7026367c-4.0922852,3.1015625-9.0439453,4.9165039-14.2016602,5.1513672l-3.8701172,10.3095703Z"/>
    <path class="st1" d="M186.3036957,151.0531464c10.734375,0,19.4667969-8.7329102,19.4667969-19.4667969s-8.7324219-19.4663086-19.4667969-19.4663086c-5.7769165,0-10.9584351,2.543457-14.5266113,6.5525513l-21.088623-12.0390625c.6107178-1.8861084.9492188-3.8934326.9492188-5.9802856,0-10.7338867-8.7324219-19.4667969-19.4667969-19.4667969-10.7338867,0-19.4667969,8.7329102-19.4667969,19.4667969,0,6.8986816,3.6176147,12.9556885,9.0449219,16.4141235l-7.0787964,18.8579712c-1.8390503-.3937988-3.7446899-.6055908-5.6995239-.6055908-14.9980469,0-27.2001953,12.2021484-27.2001953,27.2001953s12.2021484,27.2001953,27.2001953,27.2001953c10.2154541,0,19.1295166-5.6636353,23.7785645-14.0131226l18.8669434,7.0818481c-.145813.9587402-.2451172,1.9324951-.2451172,2.9312744,0,10.7338867,8.7324219,19.4663086,19.4658203,19.4663086,10.734375,0,19.4667969-8.7324219,19.4667969-19.4663086s-8.7324219-19.4667969-19.4667969-19.4667969c-6.8984375,0-12.9550781,3.6176147-16.4133301,9.0450439l-18.8582764-7.0789185c.3937988-1.8390503.6055908-3.7446899.6055908-5.6995239,0-2.2937012-.2883911-4.5209351-.8255615-6.6502075l34.2833252-14.2904053c3.4075928,5.6641846,9.5968018,9.4738159,16.6750488,9.4738159ZM132.2627411,148.4877777c-2.4572144-4.0634766-5.9486694-7.4320679-10.1049805-9.7463379l7.0820312-18.8665161c.9586792.145813,1.932373.2451172,2.9310913.2451172,5.7769775,0,10.9585571-2.5436401,14.5267334-6.5529785l21.088501,12.0390015c-.6107178,1.8861084-.9492188,3.8933716-.9492188,5.9802856,0,.821228.067688,1.6254272.1669312,2.4202271l-34.7410889,14.4812012Z"/>
  </g>
  <path class="st0" d="M186.3037109,151.0532227c10.734375,0,19.4667969-8.7329102,19.4667969-19.4667969s-8.7324219-19.4663086-19.4667969-19.4663086c-5.7769165,0-10.9584351,2.543457-14.5266113,6.5525513l-21.088623-12.0390625c.6107178-1.8861084.9492188-3.8934326.9492188-5.9802856,0-10.7338867-8.7324219-19.4667969-19.4667969-19.4667969-10.7338867,0-19.4667969,8.7329102-19.4667969,19.4667969,0,6.8986816,3.6176147,12.9556885,9.0449219,16.4141235l-7.0787964,18.8579712c-1.8390503-.3937988-3.7446899-.6055908-5.6995239-.6055908-14.9980469,0-27.2001953,12.2021484-27.2001953,27.2001953s12.2021484,27.2001953,27.2001953,27.2001953c10.2154541,0,19.1295166-5.6636353,23.7785645-14.0131226l18.8669434,7.0818481c-.145813.9587402-.2451172,1.9324951-.2451172,2.9312744,0,10.7338867,8.7324219,19.4663086,19.4658203,19.4663086,10.734375,0,19.4667969-8.7324219,19.4667969-19.4663086s-8.7324219-19.4667969-19.4667969-19.4667969c-6.8984375,0-12.9550781,3.6176147-16.4133301,9.0450439l-18.8582764-7.0789185c.3937988-1.8390503.6055908-3.7446899.6055908-5.6995239,0-2.2937012-.2883911-4.5209351-.8255615-6.6502075l34.2833252-14.2904053c3.4075928,5.6641846,9.5968018,9.4738159,16.6750488,9.4738159ZM170.8369141,174.253418c6.3232422,0,11.4667969,5.144043,11.4667969,11.4667969s-5.1435547,11.4663086-11.4667969,11.4663086c-6.3222656,0-11.4658203-5.1435547-11.4658203-11.4663086s5.1435547-11.4667969,11.4658203-11.4667969ZM186.3037109,120.1201172c6.3232422,0,11.4667969,5.1435547,11.4667969,11.4663086s-5.1435547,11.4667969-11.4667969,11.4667969-11.4667969-5.144043-11.4667969-11.4667969,5.1435547-11.4663086,11.4667969-11.4663086ZM132.1708984,89.1865234c6.3227539,0,11.4667969,5.144043,11.4667969,11.4667969s-5.144043,11.4667969-11.4667969,11.4667969-11.4667969-5.144043-11.4667969-11.4667969,5.144043-11.4667969,11.4667969-11.4667969ZM108.9707031,181.7202148c-10.5869141,0-19.2001953-8.6132812-19.2001953-19.2001953s8.6132812-19.2001953,19.2001953-19.2001953,19.2001953,8.6132812,19.2001953,19.2001953-8.6132812,19.2001953-19.2001953,19.2001953ZM132.2627563,148.487854c-2.4572144-4.0634766-5.9486694-7.4320679-10.1049805-9.7463379l7.0820312-18.8665161c.9586792.145813,1.932373.2451172,2.9310913.2451172,5.7769775,0,10.9585571-2.5436401,14.5267334-6.5529785l21.088501,12.0390015c-.6107178,1.8861084-.9492188,3.8933716-.9492188,5.9802856,0,.821228.067688,1.6254272.1669312,2.4202271l-34.7410889,14.4812012Z"/>
</svg>