<svg id="Layer_1" data-name="Layer 1" xmlns="http://www.w3.org/2000/svg" viewBox="0 0 42 42"><defs><style>.cls-1{fill:#fff;}.cls-2{fill:#2c5967;}</style></defs><title>OCI-VM-Series</title><metadata><?xpacket begin="﻿" id="W5M0MpCehiHzreSzNTczkc9d"?>
<x:xmpmeta xmlns:x="adobe:ns:meta/" x:xmptk="Adobe XMP Core 6.0-c006 79.164648, 2021/01/12-15:52:29        ">
   <rdf:RDF xmlns:rdf="http://www.w3.org/1999/02/22-rdf-syntax-ns#">
      <rdf:Description rdf:about=""
            xmlns:dc="http://purl.org/dc/elements/1.1/"
            xmlns:lr="http://ns.adobe.com/lightroom/1.0/"
            xmlns:xmp="http://ns.adobe.com/xap/1.0/"
            xmlns:xmpMM="http://ns.adobe.com/xap/1.0/mm/"
            xmlns:stEvt="http://ns.adobe.com/xap/1.0/sType/ResourceEvent#">
         <dc:title>
            <rdf:Alt>
               <rdf:li xml:lang="x-default">OCI-VM-Series</rdf:li>
            </rdf:Alt>
         </dc:title>
         <dc:subject>
            <rdf:Bag>
               <rdf:li>icon</rdf:li>
               <rdf:li>Virtual Machine</rdf:li>
               <rdf:li>VM</rdf:li>
            </rdf:Bag>
         </dc:subject>
         <lr:hierarchicalSubject>
            <rdf:Bag>
               <rdf:li>icon</rdf:li>
               <rdf:li>Other Keywords|Virtual Machine</rdf:li>
               <rdf:li>VM</rdf:li>
            </rdf:Bag>
         </lr:hierarchicalSubject>
         <xmp:MetadataDate>2021-07-22T15:45:12-05:00</xmp:MetadataDate>
         <xmpMM:InstanceID>xmp.iid:1ea60c55-1254-4529-acba-841fcd441e92</xmpMM:InstanceID>
         <xmpMM:DocumentID>xmp.did:5d08017c-48be-403c-b433-de7daf9b694f</xmpMM:DocumentID>
         <xmpMM:OriginalDocumentID>xmp.did:5d08017c-48be-403c-b433-de7daf9b694f</xmpMM:OriginalDocumentID>
         <xmpMM:History>
            <rdf:Seq>
               <rdf:li>
                  <rdf:Description>
                     <stEvt:action>saved</stEvt:action>
                     <stEvt:instanceID>xmp.iid:5d08017c-48be-403c-b433-de7daf9b694f</stEvt:instanceID>
                     <stEvt:when>2021-07-16T14:19:59-05:00</stEvt:when>
                     <stEvt:softwareAgent>Adobe Bridge 2021 (Macintosh)</stEvt:softwareAgent>
                     <stEvt:changed>/metadata</stEvt:changed>
                  </rdf:Description>
               </rdf:li>
               <rdf:li>
                  <rdf:Description>
                     <stEvt:action>saved</stEvt:action>
                     <stEvt:instanceID>xmp.iid:1ea60c55-1254-4529-acba-841fcd441e92</stEvt:instanceID>
                     <stEvt:when>2021-07-22T15:45:12-05:00</stEvt:when>
                     <stEvt:softwareAgent>Adobe Bridge 2021 (Macintosh)</stEvt:softwareAgent>
                     <stEvt:changed>/metadata</stEvt:changed>
                  </rdf:Description>
               </rdf:li>
            </rdf:Seq>
         </xmpMM:History>
      </rdf:Description>
   </rdf:RDF>
</x:xmpmeta>
                                                                                                    
                                                                                                    
                                                                                                    
                                                                                                    
                                                                                                    
                                                                                                    
                                                                                                    
                                                                                                    
                                                                                                    
                                                                                                    
                                                                                                    
                                                                                                    
                                                                                                    
                                            
<?xpacket end="w"?></metadata>
<rect class="cls-1" x="0.5" y="0.5" width="41" height="41" rx="2.17"/><path class="cls-1" d="M39.33,1A1.67,1.67,0,0,1,41,2.67V39.33A1.67,1.67,0,0,1,39.33,41H2.67A1.67,1.67,0,0,1,1,39.33V2.67A1.67,1.67,0,0,1,2.67,1H39.33m0-1H2.67A2.68,2.68,0,0,0,0,2.67V39.33A2.68,2.68,0,0,0,2.67,42H39.33A2.68,2.68,0,0,0,42,39.33V2.67A2.68,2.68,0,0,0,39.33,0Z"/><path class="cls-2" d="M39.33,1H2.67A1.67,1.67,0,0,0,1,2.67V39.33A1.67,1.67,0,0,0,2.67,41H39.33A1.67,1.67,0,0,0,41,39.33V2.67A1.67,1.67,0,0,0,39.33,1Zm.19,38.33a.2.2,0,0,1-.19.19H2.67a.2.2,0,0,1-.19-.19V2.67a.2.2,0,0,1,.19-.19H39.33a.2.2,0,0,1,.19.19Z"/><path class="cls-2" d="M36.51,37.3a.74.74,0,0,0,.74.74h0A.74.74,0,0,0,38,37.3v0a.77.77,0,0,0-1.53,0Z"/><path class="cls-2" d="M22.53,36.56h-.09a.74.74,0,0,0,0,1.48h.09a.74.74,0,0,0,0-1.48Z"/><path class="cls-2" d="M19.56,36.56h-.09a.74.74,0,0,0,0,1.48h.09a.74.74,0,1,0,0-1.48Z"/><path class="cls-2" d="M16.6,36.56h-.09a.74.74,0,1,0,0,1.48h.09a.74.74,0,0,0,0-1.48Z"/><path class="cls-2" d="M13.64,36.56h-.09a.74.74,0,1,0,0,1.48h.09a.74.74,0,1,0,0-1.48Z"/><path class="cls-2" d="M10.68,36.56h-.09a.74.74,0,1,0,0,1.48h.09a.74.74,0,1,0,0-1.48Z"/><path class="cls-2" d="M7.71,36.56H7.62a.74.74,0,1,0,0,1.48h.09a.74.74,0,0,0,0-1.48Z"/><path class="cls-2" d="M34.38,36.56h-.09a.74.74,0,1,0,0,1.48h.09a.74.74,0,1,0,0-1.48Z"/><path class="cls-2" d="M31.41,36.56h-.09a.74.74,0,1,0,0,1.48h.09a.74.74,0,1,0,0-1.48Z"/><path class="cls-2" d="M25.49,36.56H25.4a.74.74,0,0,0,0,1.48h.09a.74.74,0,1,0,0-1.48Z"/><path class="cls-2" d="M28.45,36.56h-.09a.74.74,0,1,0,0,1.48h.09a.74.74,0,0,0,0-1.48Z"/><path class="cls-2" d="M4.7,36.51a.74.74,0,0,0-.74.74v0A.74.74,0,0,0,4.7,38h0a.77.77,0,0,0,0-1.53Z"/><path class="cls-2" d="M5.44,31.41v-.09a.74.74,0,1,0-1.48,0v.09a.74.74,0,1,0,1.48,0Z"/><path class="cls-2" d="M5.44,16.6v-.09a.74.74,0,0,0-1.48,0v.09a.74.74,0,0,0,1.48,0Z"/><path class="cls-2" d="M5.44,13.64v-.09a.74.74,0,0,0-1.48,0v.09a.74.74,0,1,0,1.48,0Z"/><path class="cls-2" d="M5.44,7.71V7.62A.74.74,0,0,0,4,7.62v.09a.74.74,0,0,0,1.48,0Z"/><path class="cls-2" d="M5.44,28.45v-.09a.74.74,0,0,0-1.48,0v.09a.74.74,0,0,0,1.48,0Z"/><path class="cls-2" d="M5.44,22.53v-.09a.74.74,0,1,0-1.48,0v.09a.74.74,0,0,0,1.48,0Z"/><path class="cls-2" d="M5.44,34.38v-.09a.74.74,0,0,0-1.48,0v.09a.74.74,0,0,0,1.48,0Z"/><path class="cls-2" d="M5.44,19.56v-.09a.74.74,0,0,0-1.48,0v.09a.74.74,0,1,0,1.48,0Z"/><path class="cls-2" d="M5.44,25.49V25.4A.74.74,0,0,0,4,25.4v.09a.74.74,0,0,0,1.48,0Z"/><path class="cls-2" d="M5.44,10.68v-.09a.74.74,0,1,0-1.48,0v.09a.74.74,0,0,0,1.48,0Z"/><path class="cls-2" d="M5.49,4.7A.74.74,0,0,0,4.75,4h0A.74.74,0,0,0,4,4.7v0a.74.74,0,0,0,1.29.5A.74.74,0,0,0,5.49,4.7Z"/><path class="cls-2" d="M13.55,5.44h.09a.74.74,0,1,0,0-1.48h-.09a.74.74,0,0,0,0,1.48Z"/><path class="cls-2" d="M22.44,5.44h.09a.74.74,0,1,0,0-1.48h-.09a.74.74,0,1,0,0,1.48Z"/><path class="cls-2" d="M16.51,5.44h.09A.74.74,0,0,0,16.6,4h-.09a.74.74,0,1,0,0,1.48Z"/><path class="cls-2" d="M7.62,5.44h.09A.74.74,0,1,0,7.71,4H7.62a.74.74,0,0,0,0,1.48Z"/><path class="cls-2" d="M10.59,5.44h.09a.74.74,0,0,0,0-1.48h-.09a.74.74,0,1,0,0,1.48Z"/><path class="cls-2" d="M25.4,5.44h.09a.74.74,0,0,0,0-1.48H25.4a.74.74,0,0,0,0,1.48Z"/><path class="cls-2" d="M19.47,5.44h.09a.74.74,0,0,0,0-1.48h-.09a.74.74,0,0,0,0,1.48Z"/><path class="cls-2" d="M34.29,5.44h.09a.74.74,0,0,0,0-1.48h-.09a.74.74,0,0,0,0,1.48Z"/><path class="cls-2" d="M28.36,5.44h.09a.74.74,0,1,0,0-1.48h-.09a.74.74,0,1,0,0,1.48Z"/><path class="cls-2" d="M31.32,5.44h.09a.74.74,0,1,0,0-1.48h-.09a.74.74,0,0,0,0,1.48Z"/><path class="cls-2" d="M37.3,4h0a.74.74,0,0,0-.5,1.29A.74.74,0,0,0,38,4.75v0A.74.74,0,0,0,37.3,4Z"/><path class="cls-2" d="M36.56,13.55v.09a.74.74,0,1,0,1.48,0v-.09a.74.74,0,0,0-1.48,0Z"/><path class="cls-2" d="M36.56,16.51v.09a.74.74,0,1,0,1.48,0v-.09a.74.74,0,1,0-1.48,0Z"/><path class="cls-2" d="M36.56,10.59v.09a.74.74,0,1,0,1.48,0v-.09a.74.74,0,1,0-1.48,0Z"/><path class="cls-2" d="M36.56,7.62v.09a.74.74,0,1,0,1.48,0V7.62a.74.74,0,0,0-1.48,0Z"/><path class="cls-2" d="M36.56,34.29v.09a.74.74,0,0,0,1.48,0v-.09a.74.74,0,0,0-1.48,0Z"/><path class="cls-2" d="M36.56,19.47v.09a.74.74,0,0,0,1.48,0v-.09a.74.74,0,1,0-1.48,0Z"/><path class="cls-2" d="M36.56,28.36v.09a.74.74,0,1,0,1.48,0v-.09a.74.74,0,0,0-1.48,0Z"/><path class="cls-2" d="M36.56,31.32v.09a.74.74,0,1,0,1.48,0v-.09a.74.74,0,1,0-1.48,0Z"/><path class="cls-2" d="M36.56,25.4v.09a.74.74,0,0,0,1.48,0V25.4a.74.74,0,1,0-1.48,0Z"/><path class="cls-2" d="M36.56,22.44v.09a.74.74,0,1,0,1.48,0v-.09a.74.74,0,0,0-1.48,0Z"/><polygon class="cls-2" points="13.44 21.74 16.99 12.12 14.75 12.12 12.48 19.2 10.23 12.12 7.9 12.12 11.45 21.74 13.44 21.74"/><polygon class="cls-2" points="23.24 18.46 20.18 12.12 18.02 12.12 18.02 21.74 20.02 21.74 20.02 15.59 22.56 20.81 23.83 20.81 26.37 15.51 26.37 21.74 28.41 21.74 28.41 12.12 26.25 12.12 23.24 18.46"/><rect class="cls-2" x="30.09" y="17.39" width="4.1" height="1.71"/><path class="cls-2" d="M13,26.82l-.63-.25a2.66,2.66,0,0,1-.83-.45.65.65,0,0,1-.24-.51c0-.6.45-.91,1.33-.91a3.93,3.93,0,0,1,1.54.36v-.67a3,3,0,0,0-.73-.25,3.4,3.4,0,0,0-.82-.1,2.41,2.41,0,0,0-1.52.43,1.37,1.37,0,0,0-.55,1.16,1.27,1.27,0,0,0,.34.89,3.1,3.1,0,0,0,1.14.69l.63.24a2.82,2.82,0,0,1,.86.47.8.8,0,0,1,.23.58.86.86,0,0,1-.39.74,1.82,1.82,0,0,1-1.07.27,4.44,4.44,0,0,1-1.71-.37v.67a2.21,2.21,0,0,0,.5.18,3.68,3.68,0,0,0,.63.13,3.63,3.63,0,0,0,.65.05A2.52,2.52,0,0,0,14,29.73a1.49,1.49,0,0,0,.57-1.25,1.36,1.36,0,0,0-.35-.95A2.93,2.93,0,0,0,13,26.82Z"/><path class="cls-2" d="M17.09,25.72a1.79,1.79,0,0,0-1.41.56,2.36,2.36,0,0,0-.5,1.62,2.49,2.49,0,0,0,.52,1.69,2,2,0,0,0,1.53.57,3.6,3.6,0,0,0,.83-.08,2,2,0,0,0,.61-.22v-.62a3.06,3.06,0,0,1-1.36.3,1.37,1.37,0,0,1-1-.33,1.58,1.58,0,0,1-.38-1.05h2.94v-.47C18.87,26.38,18.28,25.72,17.09,25.72Zm-1.16,1.86a1.45,1.45,0,0,1,.33-.93,1.1,1.1,0,0,1,.83-.32,1,1,0,0,1,.82.29,1.47,1.47,0,0,1,.25,1Z"/><path class="cls-2" d="M20.45,26.61l-.15-.8h-.5v4.26h.74V27.5a1.31,1.31,0,0,1,.42-.76,1.15,1.15,0,0,1,.78-.26h.19v-.65a1.32,1.32,0,0,0-.29,0A1.3,1.3,0,0,0,20.45,26.61Z"/><rect class="cls-2" x="22.8" y="24.17" width="0.9" height="0.66"/><polygon class="cls-2" points="22.55 26.12 22.97 26.39 22.97 30.07 23.7 30.07 23.7 25.81 22.55 25.81 22.55 26.12"/><path class="cls-2" d="M26.57,25.72a1.8,1.8,0,0,0-1.42.56,2.36,2.36,0,0,0-.49,1.62,2.44,2.44,0,0,0,.52,1.69,2,2,0,0,0,1.53.57,3.65,3.65,0,0,0,.83-.08,1.89,1.89,0,0,0,.6-.22v-.62a3,3,0,0,1-.67.23,3,3,0,0,1-.69.07,1.34,1.34,0,0,1-1-.33,1.54,1.54,0,0,1-.39-1.05h3v-.47C28.35,26.38,27.76,25.72,26.57,25.72ZM25.4,27.58a1.45,1.45,0,0,1,.33-.93,1.11,1.11,0,0,1,.84-.32,1,1,0,0,1,.82.29,1.47,1.47,0,0,1,.25,1Z"/><path class="cls-2" d="M31.11,27.65l-.67-.18a1.11,1.11,0,0,1-.5-.23.47.47,0,0,1-.15-.37c0-.35.31-.53.93-.53a3.39,3.39,0,0,1,1.28.25V26a2.32,2.32,0,0,0-.58-.18,4.25,4.25,0,0,0-.75-.07,1.94,1.94,0,0,0-1.18.33,1.11,1.11,0,0,0-.16,1.6,1.93,1.93,0,0,0,.85.44l.67.18a1.28,1.28,0,0,1,.55.25.53.53,0,0,1,.16.4c0,.42-.36.63-1.07.63a2.84,2.84,0,0,1-.66-.07,4.49,4.49,0,0,1-.7-.24v.62a2.52,2.52,0,0,0,.64.22,3.25,3.25,0,0,0,.77.08,2.11,2.11,0,0,0,1.28-.34,1.11,1.11,0,0,0,.47-.94A1.08,1.08,0,0,0,32,28.1,1.89,1.89,0,0,0,31.11,27.65Z"/></svg>