<?xml version="1.0" encoding="UTF-8"?>
<svg id="Layer_1" data-name="Layer 1" xmlns="http://www.w3.org/2000/svg" viewBox="0 0 42.53 29.11">
  <metadata><?xpacket begin="﻿" id="W5M0MpCehiHzreSzNTczkc9d"?>
<x:xmpmeta xmlns:x="adobe:ns:meta/" x:xmptk="Adobe XMP Core 7.1-c000 79.4d2f597, 2021/09/01-20:51:22        ">
   <rdf:RDF xmlns:rdf="http://www.w3.org/1999/02/22-rdf-syntax-ns#">
      <rdf:Description rdf:about=""
            xmlns:dc="http://purl.org/dc/elements/1.1/"
            xmlns:xmpRights="http://ns.adobe.com/xap/1.0/rights/"
            xmlns:xmp="http://ns.adobe.com/xap/1.0/"
            xmlns:xmpMM="http://ns.adobe.com/xap/1.0/mm/"
            xmlns:stEvt="http://ns.adobe.com/xap/1.0/sType/ResourceEvent#">
         <dc:rights>
            <rdf:Alt>
               <rdf:li xml:lang="x-default">Oracle All Rights</rdf:li>
            </rdf:Alt>
         </dc:rights>
         <dc:subject>
            <rdf:Bag>
               <rdf:li>MySQL</rdf:li>
               <rdf:li>idea</rdf:li>
               <rdf:li>fire</rdf:li>
               <rdf:li>speedometer</rdf:li>
               <rdf:li>flame</rdf:li>
               <rdf:li>123</rdf:li>
               <rdf:li>icon</rdf:li>
            </rdf:Bag>
         </dc:subject>
         <xmpRights:Marked>True</xmpRights:Marked>
         <xmp:MetadataDate>2024-07-05T18:09:40-06:00</xmp:MetadataDate>
         <xmpMM:InstanceID>xmp.iid:6dd22195-0db8-4046-bb12-d341a2ad41f1</xmpMM:InstanceID>
         <xmpMM:DocumentID>xmp.did:6abc3fc3-9836-410f-af2b-39b854e183a3</xmpMM:DocumentID>
         <xmpMM:OriginalDocumentID>xmp.did:6abc3fc3-9836-410f-af2b-39b854e183a3</xmpMM:OriginalDocumentID>
         <xmpMM:History>
            <rdf:Seq>
               <rdf:li>
                  <rdf:Description>
                     <stEvt:action>saved</stEvt:action>
                     <stEvt:instanceID>xmp.iid:6abc3fc3-9836-410f-af2b-39b854e183a3</stEvt:instanceID>
                     <stEvt:when>2024-07-05T18:05:08-06:00</stEvt:when>
                     <stEvt:softwareAgent>Adobe Bridge 2023</stEvt:softwareAgent>
                     <stEvt:changed>/metadata</stEvt:changed>
                  </rdf:Description>
               </rdf:li>
               <rdf:li>
                  <rdf:Description>
                     <stEvt:action>saved</stEvt:action>
                     <stEvt:instanceID>xmp.iid:6dd22195-0db8-4046-bb12-d341a2ad41f1</stEvt:instanceID>
                     <stEvt:when>2024-07-05T18:09:40-06:00</stEvt:when>
                     <stEvt:softwareAgent>Adobe Bridge 2023</stEvt:softwareAgent>
                     <stEvt:changed>/metadata</stEvt:changed>
                  </rdf:Description>
               </rdf:li>
            </rdf:Seq>
         </xmpMM:History>
      </rdf:Description>
   </rdf:RDF>
</x:xmpmeta>
                                                                                                    
                                                                                                    
                                                                                                    
                                                                                                    
                                                                                                    
                                                                                                    
                                                                                                    
                                                                                                    
                                                                                                    
                                                                                                    
                                                                                                    
                                                                                  
<?xpacket end="w"?></metadata>
<defs>
    <style>
      .cls-1 {
        fill: #fff;
      }

      .cls-2 {
        fill: #2d5967;
      }
    </style>
  </defs>
  <path class="cls-1" d="m41.65,6.3l-3.86-3.33-.28-.24h-13.18c-.41-.43-.83-.84-1.27-1.21l-.77-.62-1.09-.9-.48,1.33-2.54,6.96-2.58-2.51-.81-.79-.69.91-.46.62c-.63.84-1.22,1.85-1.72,2.94l-.02.05c-.75-.64-1.71-1.03-2.73-1.03h-1.21v-.04h-2.28c-1.87,0-3.53,1.27-4.08,3.07-1.01.83-1.6,2.08-1.6,3.42s.6,2.61,1.61,3.44c.56,1.78,2.21,3.04,4.07,3.04h1.21v.03h2.28c.24,0,.47-.02.7-.06l.08.32c.36,1.36,1,2.7,1.86,3.87l.41.55.67-.18,1.32-.37c.33.96.86,1.85,1.59,2.6.2.2.4.38.62.56l.19.15.28.23h7.86l.28-.23.19-.15c1.02-.83,1.75-1.9,2.16-3.07l1.21.33,1.27.35v-1.04c1.3-1.86,2.01-4.11,2.01-6.38s-.66-4.92-1.82-7.54h7.46l.28-.24,3.86-3.33.88-.76-.88-.75Z"/>
  <g>
    <path class="cls-2" d="m25.68,19.85l2.49-3.31-.5-.54-3.34,2.48-.07-.05c-2.34-1.66-5.52-1.4-7.58.59-2.37,2.29-2.46,6.08-.16,8.45.17.17.35.33.54.48l.19.16h7.15l.19-.16c2.44-1.97,2.93-5.52,1.13-8.07v-.03h-.03Zm-.36,4.23c-.12.71-.4,1.37-.83,1.96l-.81-.81-1,1,.48.48h-4.71l.5-.48-1-1-.8.81c-.43-.57-.71-1.23-.83-1.94h1.14v-1.44h-1.13c.1-.73.38-1.4.81-2.01l.81.83,1-1-.83-.83c.57-.43,1.25-.71,1.96-.83v1.23h1.42v-1.25c.57.09,1.14.28,1.65.57l-2.23,1.65h-.03c-.66,0-1.28.28-1.7.78-.09.1-.17.21-.23.31-.57.95-.36,2.15.47,2.86.4.35.92.54,1.44.54h.03c.38,0,.74-.09,1.07-.28.73-.4,1.16-1.16,1.16-1.97l1.68-2.22c.29.5.48,1.04.55,1.61h-1.25v1.42h1.23l-.03.02Zm-3.71-.8c0,.38-.31.69-.69.69s-.69-.31-.69-.69.31-.69.69-.69.69.31.69.69Z"/>
    <path class="cls-2" d="m12.36,17.79c.92-.62,1.49-1.68,1.49-2.84s-.55-2.22-1.49-2.84c-.33-1.52-1.65-2.63-3.19-2.63h-1.28v10.96h1.28c1.54,0,2.86-1.11,3.19-2.63v-.02Zm-1.28-.87l-.03.36c-.1.97-.85,1.7-1.75,1.77v-1.16h.12c.38,0,.69-.31.69-.69s-.31-.69-.69-.69h-.12v-.87h.95c.38,0,.69-.31.69-.69s-.31-.69-.69-.69h-.95v-.87h.12c.38,0,.69-.31.69-.69s-.31-.69-.69-.69h-.12v-1.16c.9.05,1.65.8,1.75,1.77l.03.36.33.17c.66.35,1.06,1.04,1.06,1.8s-.4,1.45-1.06,1.8l-.33.17Z"/>
    <path class="cls-2" d="m2.49,12.09c-.92.62-1.49,1.68-1.49,2.84s.55,2.22,1.49,2.84c.33,1.52,1.65,2.63,3.19,2.63h1.28v-10.96h-1.28c-1.54,0-2.86,1.11-3.19,2.63v.02Zm3.08-.09h-.12c-.38,0-.69.31-.69.69s.31.69.69.69h.12v.87h-.95c-.38,0-.69.31-.69.69s.31.69.69.69h.95v.87h-.12c-.38,0-.69.31-.69.69s.31.69.69.69h.12v1.16c-.9-.05-1.65-.8-1.75-1.77l-.03-.36-.33-.17c-.66-.35-1.06-1.04-1.06-1.8s.4-1.45,1.06-1.8l.33-.17.03-.36c.1-.97.85-1.7,1.75-1.77v1.16Z"/>
    <path class="cls-2" d="m37.14,3.73h-11.95v6.65h11.95l3.86-3.32-3.86-3.32Zm-.52,5.26h-10.04v-3.88h10.04l2.25,1.94s-2.25,1.94-2.25,1.94Z"/>
    <polygon class="cls-2" points="27.6 6.36 27.6 6.85 28.1 6.73 28.1 8.23 28.9 8.23 28.9 5.84 28.34 5.84 27.6 6.36"/>
    <path class="cls-2" d="m31.82,7.47c.14-.14.24-.26.31-.36.09-.1.14-.21.17-.29s.05-.19.05-.28c0-.23-.09-.42-.23-.54-.16-.12-.36-.19-.62-.19s-.23,0-.33.03c-.1.02-.23.07-.36.12h-.05v.76l.12-.07c.12-.05.21-.1.28-.12.14-.05.29-.05.36,0,.03.02.05.05.05.09s0,.05-.07.16c-.05.09-.16.19-.28.33l-.52.57v.55h1.66v-.71h-.59l.03-.03v-.02Z"/>
    <path class="cls-2" d="m35.34,6.74l.36-.35v-.55h-1.58v.68h.57l-.42.38.26.43.07-.03c.19-.07.35-.09.4-.02.03.03.03.07.03.12s-.02.1-.07.12c-.05.03-.12.05-.21.05-.21,0-.4-.05-.57-.14l-.12-.07v.71h.05c.19.14.42.19.68.19s.54-.07.71-.23.28-.36.28-.61-.05-.36-.16-.48c-.07-.09-.17-.16-.29-.21h0Z"/>
    <path class="cls-2" d="m27.61,11.76c1.09,2.29,1.87,4.78,1.87,7.13s-.17,1.94-.48,2.86c-.23-1.28-.76-2.46-1.51-3.46l-.97,1.23c.71,1.07,1.11,2.35,1.11,3.72s-.09.95-.21,1.39l1.44.4s.02-.07.03-.1c1.28-1.73,1.97-3.84,1.97-6.01s-.71-4.81-1.73-7.13h-1.52v-.02Z"/>
    <path class="cls-2" d="m13.66,11.37c.42-1.02.9-1.97,1.4-2.77l4.09,3.97,3.12-8.54c.47.47,1,1.06,1.56,1.75v-2.13c-.5-.55-.99-1-1.4-1.35l-.76-.62-3.06,8.42-3.69-3.58-.47.62c-.57.76-1.13,1.7-1.61,2.75.33.42.59.9.78,1.42l.09.09-.03-.02Z"/>
    <path class="cls-2" d="m20.84,16.41c1.4,0,2.7.43,3.79,1.14l1.21-.97c-1.39-1.06-3.12-1.68-5-1.68-4.21,0-7.69,3.13-8.24,7.2-.19-.47-.33-.95-.43-1.44-.36.33-.8.59-1.25.78.33,1.26.92,2.48,1.7,3.53l1.51-.42c-.09-.45-.14-.9-.14-1.35,0-3.76,3.06-6.82,6.82-6.82l.03.02Z"/>
  </g>
</svg>