<svg width="41" height="40" viewBox="0 0 41 40" fill="none" xmlns="http://www.w3.org/2000/svg">
<metadata><?xpacket begin="﻿" id="W5M0MpCehiHzreSzNTczkc9d"?>
<x:xmpmeta xmlns:x="adobe:ns:meta/" x:xmptk="Adobe XMP Core 6.0-c006 79.164648, 2021/01/12-15:52:29        ">
   <rdf:RDF xmlns:rdf="http://www.w3.org/1999/02/22-rdf-syntax-ns#">
      <rdf:Description rdf:about=""
            xmlns:lr="http://ns.adobe.com/lightroom/1.0/"
            xmlns:dc="http://purl.org/dc/elements/1.1/"
            xmlns:xmp="http://ns.adobe.com/xap/1.0/"
            xmlns:xmpMM="http://ns.adobe.com/xap/1.0/mm/"
            xmlns:stEvt="http://ns.adobe.com/xap/1.0/sType/ResourceEvent#"
            xmlns:xmpRights="http://ns.adobe.com/xap/1.0/rights/">
         <lr:hierarchicalSubject>
            <rdf:Bag>
               <rdf:li>icon</rdf:li>
            </rdf:Bag>
         </lr:hierarchicalSubject>
         <dc:subject>
            <rdf:Bag>
               <rdf:li>peer</rdf:li>
               <rdf:li>icon</rdf:li>
               <rdf:li>remote</rdf:li>
               <rdf:li>connectivity</rdf:li>
               <rdf:li>connection</rdf:li>
               <rdf:li>network</rdf:li>
            </rdf:Bag>
         </dc:subject>
         <dc:rights>
            <rdf:Alt>
               <rdf:li xml:lang="x-default">Oracle All Rights&#xA;</rdf:li>
            </rdf:Alt>
         </dc:rights>
         <xmp:MetadataDate>2022-10-21T14:11:08-05:00</xmp:MetadataDate>
         <xmpMM:InstanceID>xmp.iid:a23f34bf-0d9c-40c5-b733-345dde5c28bf</xmpMM:InstanceID>
         <xmpMM:DocumentID>xmp.did:9bb49f14-0ea2-488e-aeed-499c3ea2d00d</xmpMM:DocumentID>
         <xmpMM:OriginalDocumentID>xmp.did:9bb49f14-0ea2-488e-aeed-499c3ea2d00d</xmpMM:OriginalDocumentID>
         <xmpMM:History>
            <rdf:Seq>
               <rdf:li>
                  <rdf:Description>
                     <stEvt:action>saved</stEvt:action>
                     <stEvt:instanceID>xmp.iid:9bb49f14-0ea2-488e-aeed-499c3ea2d00d</stEvt:instanceID>
                     <stEvt:when>2022-10-21T14:01:02-05:00</stEvt:when>
                     <stEvt:softwareAgent>Adobe Bridge 2021 (Macintosh)</stEvt:softwareAgent>
                     <stEvt:changed>/metadata</stEvt:changed>
                  </rdf:Description>
               </rdf:li>
               <rdf:li>
                  <rdf:Description>
                     <stEvt:action>saved</stEvt:action>
                     <stEvt:instanceID>xmp.iid:a23f34bf-0d9c-40c5-b733-345dde5c28bf</stEvt:instanceID>
                     <stEvt:when>2022-10-21T14:11:08-05:00</stEvt:when>
                     <stEvt:softwareAgent>Adobe Bridge 2021 (Macintosh)</stEvt:softwareAgent>
                     <stEvt:changed>/metadata</stEvt:changed>
                  </rdf:Description>
               </rdf:li>
            </rdf:Seq>
         </xmpMM:History>
         <xmpRights:Marked>True</xmpRights:Marked>
      </rdf:Description>
   </rdf:RDF>
</x:xmpmeta>
                                                                                                    
                                                                                                    
                                                                                                    
                                                                                                    
                                                                                                    
                                                                                                    
                                                                                                    
                                                                                                    
                                                                                                    
                                                                                                    
                                           
<?xpacket end="w"?></metadata>
<path d="M20.5002 39.0905C31.0438 39.0905 39.5911 30.5432 39.5911 19.9996C39.5911 9.45598 31.0438 0.908691 20.5002 0.908691C9.95659 0.908691 1.4093 9.45598 1.4093 19.9996C1.4093 30.5432 9.95659 39.0905 20.5002 39.0905Z" fill="white"/>
<path d="M20.5 1.81818C30.5 1.81818 38.6818 10 38.6818 20C38.6818 30 30.5 38.1818 20.5 38.1818C10.5 38.1818 2.31818 30 2.31818 20C2.31818 10 10.5 1.81818 20.5 1.81818ZM20.5 0C9.40909 0 0.5 8.90909 0.5 20C0.5 31.0909 9.40909 40 20.5 40C31.5909 40 40.5 31.0909 40.5 20C40.5 8.90909 31.5909 0 20.5 0Z" fill="white"/>
<path d="M20.5004 1.81885C10.5004 1.81885 2.3186 10.0007 2.3186 20.0007C2.3186 30.0007 10.5004 38.1825 20.5004 38.1825C30.5004 38.1825 38.6822 30.0007 38.6822 20.0007C38.6822 10.0007 30.5004 1.81885 20.5004 1.81885ZM20.5004 36.7279C11.2277 36.7279 3.77315 29.2734 3.77315 20.0007C3.77315 10.7279 11.2277 3.27339 20.5004 3.27339C29.7731 3.27339 37.2277 10.7279 37.2277 20.0007C37.2277 29.2734 29.7731 36.7279 20.5004 36.7279Z" fill="#2D5967"/>
<path d="M29.9543 15.8188L28.8633 16.9098L31.227 19.2734H9.95426L12.3179 16.9098L11.227 15.8188L7.04517 20.0007L11.227 24.1825L12.3179 23.0916L9.95426 20.7279H31.227L28.8633 23.0916L29.9543 24.1825L34.1361 20.0007L29.9543 15.8188Z" fill="#2D5967"/>
</svg>
