<?xml version="1.0" encoding="UTF-8"?>
<svg id="Layer_1" data-name="Layer 1" xmlns="http://www.w3.org/2000/svg" viewBox="0 0 42 39.42">
  <metadata><?xpacket begin="﻿" id="W5M0MpCehiHzreSzNTczkc9d"?>
<x:xmpmeta xmlns:x="adobe:ns:meta/" x:xmptk="Adobe XMP Core 7.1-c000 79.4d2f597, 2021/09/01-20:51:22        ">
   <rdf:RDF xmlns:rdf="http://www.w3.org/1999/02/22-rdf-syntax-ns#">
      <rdf:Description rdf:about=""
            xmlns:dc="http://purl.org/dc/elements/1.1/"
            xmlns:xmpRights="http://ns.adobe.com/xap/1.0/rights/"
            xmlns:xmp="http://ns.adobe.com/xap/1.0/"
            xmlns:xmpMM="http://ns.adobe.com/xap/1.0/mm/"
            xmlns:stEvt="http://ns.adobe.com/xap/1.0/sType/ResourceEvent#">
         <dc:subject>
            <rdf:Bag>
               <rdf:li>Kafka</rdf:li>
               <rdf:li>OCI</rdf:li>
               <rdf:li>stream</rdf:li>
               <rdf:li>streaming</rdf:li>
               <rdf:li>icon</rdf:li>
            </rdf:Bag>
         </dc:subject>
         <dc:rights>
            <rdf:Alt>
               <rdf:li xml:lang="x-default">Oracle All Rights</rdf:li>
            </rdf:Alt>
         </dc:rights>
         <xmpRights:Marked>True</xmpRights:Marked>
         <xmp:MetadataDate>2024-07-29T13:41:47-06:00</xmp:MetadataDate>
         <xmpMM:InstanceID>xmp.iid:cecd1709-7565-4d1c-9028-e1e629b1ff0c</xmpMM:InstanceID>
         <xmpMM:DocumentID>xmp.did:cecd1709-7565-4d1c-9028-e1e629b1ff0c</xmpMM:DocumentID>
         <xmpMM:OriginalDocumentID>xmp.did:cecd1709-7565-4d1c-9028-e1e629b1ff0c</xmpMM:OriginalDocumentID>
         <xmpMM:History>
            <rdf:Seq>
               <rdf:li>
                  <rdf:Description>
                     <stEvt:action>saved</stEvt:action>
                     <stEvt:instanceID>xmp.iid:cecd1709-7565-4d1c-9028-e1e629b1ff0c</stEvt:instanceID>
                     <stEvt:when>2024-07-29T13:41:47-06:00</stEvt:when>
                     <stEvt:softwareAgent>Adobe Bridge 2023</stEvt:softwareAgent>
                     <stEvt:changed>/metadata</stEvt:changed>
                  </rdf:Description>
               </rdf:li>
            </rdf:Seq>
         </xmpMM:History>
      </rdf:Description>
   </rdf:RDF>
</x:xmpmeta>
                                                                                                    
                                                                                                    
                                                                                                    
                                                                                                    
                                                                                                    
                                                                                                    
                                                                                                    
                                                                                                    
                                                                                                    
                                                                                                    
                                                                                                    
                                                                                                    
                                                                                                    
                                                                                                    
                                                                                                    
                                                                                                    
                                                                                                    
                                                                                                    
                                                                                                    
                                                                                                    
                           
<?xpacket end="w"?></metadata>
<defs>
    <style>
      .cls-1 {
        fill: #fff;
      }

      .cls-2 {
        fill: #2d5967;
      }
    </style>
  </defs>
  <path class="cls-1" d="m42,2.56v34.3c0,1.41-1.15,2.56-2.56,2.56H5.13c-1.41,0-2.56-1.15-2.56-2.56v-11.16c-1.57-1.34-2.57-3.33-2.57-5.56s1-4.21,2.57-5.56V2.56c0-1.41,1.15-2.56,2.56-2.56h34.31c1.41,0,2.56,1.15,2.56,2.56Z"/>
  <g>
    <rect class="cls-2" x="18.65" y="7.06" width="6.24" height="1.39"/>
    <path class="cls-2" d="m20.03,19.19h-5.43c.04.32.06.63.06.95,0,.15,0,.29-.02.43h5.39v-1.39Z"/>
    <rect class="cls-2" x="6.52" y="7.06" width="3.81" height="1.39"/>
    <rect class="cls-2" x="25.93" y="7.06" width="1.39" height="1.39"/>
    <rect class="cls-2" x="13.8" y="7.06" width="1.39" height="1.39"/>
    <rect class="cls-2" x="11.37" y="7.06" width="1.39" height="1.39"/>
    <rect class="cls-2" x="28.35" y="7.06" width="1.39" height="1.39"/>
    <circle class="cls-2" cx="16.92" cy="7.75" r=".69"/>
    <circle class="cls-2" cx="31.47" cy="7.75" r=".69"/>
    <circle class="cls-2" cx="24.19" cy="19.88" r=".69"/>
    <circle class="cls-2" cx="31.47" cy="32.01" r=".69"/>
    <rect class="cls-2" x="21.07" y="19.19" width="1.39" height="1.39"/>
    <rect class="cls-2" x="25.93" y="19.19" width="6.24" height="1.39"/>
    <rect class="cls-2" x="21.07" y="31.32" width="6.24" height="1.39"/>
    <rect class="cls-2" x="28.35" y="31.32" width="1.39" height="1.39"/>
    <circle class="cls-2" cx="19.34" cy="32.01" r=".69"/>
    <circle class="cls-2" cx="7.21" cy="32.01" r=".69"/>
    <rect class="cls-2" x="8.95" y="31.32" width="6.24" height="1.39"/>
    <rect class="cls-2" x="16.22" y="31.32" width="1.39" height="1.39"/>
    <path class="cls-2" d="m39.44,1H5.13c-.86,0-1.56.7-1.56,1.56v11.26c.44-.26.9-.47,1.39-.64V2.56c0-.09.08-.17.17-.17h34.31c.09,0,.17.08.17.17v34.31c0,.09-.08.17-.17.17H5.13c-.09,0-.17-.08-.17-.17v-9.76c-.49-.16-.95-.38-1.39-.64v10.39c0,.86.7,1.56,1.56,1.56h34.31c.86,0,1.56-.7,1.56-1.56V2.56c0-.86-.7-1.56-1.56-1.56Z"/>
    <polygon class="cls-2" points="33.22 22.9 34.2 23.88 38.16 19.93 34.2 15.97 33.22 16.95 35.46 19.19 33.2 19.19 33.2 20.58 35.55 20.58 33.22 22.9"/>
    <polygon class="cls-2" points="33.22 10.74 34.2 11.72 38.16 7.77 34.2 3.81 33.22 4.79 35.49 7.06 33.2 7.06 33.2 8.45 35.52 8.45 33.22 10.74"/>
    <polygon class="cls-2" points="33.22 35 34.2 35.98 38.16 32.03 34.2 28.07 33.22 29.05 35.49 31.32 33.2 31.32 33.2 32.71 35.52 32.71 33.22 35"/>
    <g>
      <path class="cls-2" d="m16.5,22.66c-.87,0-1.66.36-2.22.94l-1.25-.77c.38-.82.6-1.73.6-2.69,0-1.08-.27-2.1-.75-2.99l1.52-1.05c.55.51,1.29.82,2.1.82,1.72,0,3.11-1.4,3.11-3.11s-1.4-3.11-3.11-3.11-3.11,1.4-3.11,3.11c0,.41.08.79.22,1.15l-1.53,1.05c-1.16-1.34-2.87-2.18-4.77-2.18-3.48,0-6.31,2.83-6.31,6.31s2.83,6.31,6.31,6.31c2.02,0,3.83-.96,4.98-2.45l1.25.77c-.11.31-.17.65-.17.99,0,1.72,1.4,3.11,3.11,3.11s3.11-1.4,3.11-3.11-1.4-3.11-3.11-3.11Zm0-10.57c.95,0,1.73.77,1.73,1.73s-.77,1.73-1.73,1.73-1.73-.77-1.73-1.73.77-1.73,1.73-1.73Zm-9.18,12.98c-2.72,0-4.93-2.21-4.93-4.93s2.21-4.93,4.93-4.93,4.93,2.21,4.93,4.93-2.21,4.93-4.93,4.93Zm9.18,2.43c-.95,0-1.73-.77-1.73-1.73s.77-1.73,1.73-1.73,1.73.77,1.73,1.73-.77,1.73-1.73,1.73Z"/>
      <path class="cls-2" d="m5.15,23v-5.72h1.23v2.41l1.97-2.41h1.45l-2.17,2.53,2.4,3.18h-1.53l-1.77-2.4h-.35v2.4h-1.23Z"/>
    </g>
  </g>
</svg>