<?xml version="1.0" encoding="UTF-8"?>
<svg id="Layer_1" data-name="Layer 1" xmlns="http://www.w3.org/2000/svg" viewBox="0 0 42 43.32">
  <defs>
    <style>
      .cls-1 {
        fill: #2c5967;
      }

      .cls-2 {
        fill: #fff;
      }
    </style>
  </defs>
  <g>
    <g>
      <path class="cls-2" d="M21.07,42.82c-1.25-.04-2.31-.86-2.68-2.03-.1-.3-.15-.59-.15-.87V.5h23.26V16.77h-9.03c.07,.1,.15,.2,.21,.31h0l.15,.25c.03,.05,.06,.11,.09,.17,.12,.22,.2,.38,.27,.54,.05,.1,.09,.2,.13,.3,.1,.26,.2,.52,.28,.79,.09,.32,.15,.62,.19,.92l.02,.15c.04,.32,.07,.64,.07,.97,0,.15,0,.29-.02,.44,1.16,1.37,1.8,3.1,1.8,4.91s-.64,3.54-1.8,4.91c.01,.16,.02,.31,.02,.46,0,3.66-2.68,6.84-6.27,7.47-1.12,1.72-2.9,2.91-4.92,3.3-.15,.03-.23,.05-.31,.06-.1,.02-.2,.03-.29,.04-.26,.03-.47,.04-.67,.05-.08,0-.12,.01-.16,.01h-.2Z"/>
      <path class="cls-2" d="M41,1v15.27h-9.6c.38,.4,.72,.83,1,1.31h0c.04,.07,.07,.15,.12,.23,.08,.14,.15,.29,.22,.44,.04,.09,.08,.19,.12,.28,.1,.24,.19,.49,.26,.74,0,0,0,.02,0,.03,.08,.27,.13,.55,.17,.83,0,.05,.01,.09,.02,.14,.04,.3,.07,.6,.07,.91,0,.2-.01,.4-.03,.61,1.17,1.3,1.82,2.97,1.82,4.74s-.64,3.43-1.82,4.74c.02,.22,.03,.43,.03,.63,0,3.52-2.63,6.51-6.07,7.01-1.05,1.73-2.76,2.9-4.71,3.27-.1,.02-.2,.04-.29,.06-.11,.02-.21,.03-.32,.04-.19,.02-.38,.03-.58,.04-.05,0-.1,0-.15,0-.06,0-.13,0-.19,0,0,0,0,0-.01,0h-.02c-1.04-.03-1.89-.73-2.18-1.68-.07-.23-.13-.47-.13-.72V1h22.26m1-1H17.74V39.92c0,.33,.06,.67,.17,1.03,.42,1.35,1.64,2.29,3.05,2.36h.02s.1,0,.1,0h.19c.06,0,.12,0,.17,0,.22,0,.44-.02,.66-.04h.05c.1-.02,.21-.03,.31-.04,.1-.02,.19-.03,.27-.05h.07c2.07-.41,3.92-1.62,5.11-3.35,3.72-.76,6.47-4.09,6.47-7.92,0-.1,0-.2,0-.29,1.16-1.43,1.79-3.22,1.79-5.08s-.63-3.64-1.79-5.08c0-.09,0-.18,0-.27,0-.32-.02-.65-.08-1.04l-.02-.15c-.05-.34-.11-.64-.19-.92h0s-.01-.06-.01-.06c-.08-.27-.17-.54-.3-.85-.04-.11-.09-.21-.14-.32-.08-.17-.17-.34-.26-.51l-.02-.05s0,0,0,0h8.62V0h0Z"/>
    </g>
    <g>
      <path class="cls-2" d="M14.91,42.82c-2.6,0-4.97-1.3-6.37-3.48-3.58-.65-6.25-3.81-6.25-7.47,0-.14,0-.29,.01-.44-1.16-1.37-1.8-3.1-1.8-4.91s.64-3.54,1.8-4.91c-.01-.16-.02-.31-.02-.46,0-3.68,2.69-6.85,6.29-7.47,.9-1.36,2.23-2.41,3.75-2.98,.84-.31,1.71-.47,2.58-.47h.24c1.56,.06,2.79,1.33,2.79,2.9v26.79c0,1.55-1.27,2.86-2.82,2.9h-.21Z"/>
      <path class="cls-2" d="M14.91,10.73c.07,0,.15,0,.22,0,1.29,.04,2.3,1.1,2.3,2.4v26.79c0,1.29-1.05,2.36-2.34,2.4-.06,0-.13,0-.19,0-2.5,0-4.79-1.3-6.07-3.43-3.43-.51-6.05-3.5-6.05-7.01,0-.2,.01-.4,.03-.61-1.17-1.3-1.82-2.97-1.82-4.74s.64-3.43,1.82-4.74c-.02-.22-.03-.43-.03-.63,0-3.53,2.64-6.52,6.09-7.02,.85-1.37,2.12-2.41,3.63-2.97,.78-.29,1.59-.44,2.4-.44m0-1c-.93,0-1.85,.17-2.75,.5-1.56,.58-2.92,1.63-3.88,3-3.73,.75-6.49,4.08-6.49,7.93,0,.1,0,.2,0,.29-1.16,1.43-1.79,3.22-1.79,5.08s.63,3.64,1.79,5.08c0,.09,0,.18,0,.27,0,3.82,2.74,7.15,6.45,7.92,1.51,2.22,3.97,3.53,6.67,3.53,.07,0,.15,0,.22,0,1.82-.05,3.31-1.58,3.31-3.4V13.13c0-1.84-1.44-3.33-3.27-3.4-.09,0-.17,0-.26,0h0Z"/>
    </g>
  </g>
  <g>
    <path class="cls-1" d="M15.13,10.74c-.89-.03-1.77,.12-2.63,.43-1.51,.56-2.78,1.61-3.63,2.97-3.45,.49-6.09,3.49-6.09,7.02,0,.2,.01,.41,.03,.63-1.18,1.3-1.82,2.97-1.82,4.74s.64,3.43,1.82,4.74c-.02,.21-.03,.42-.03,.61,0,3.51,2.62,6.5,6.05,7.01,1.28,2.13,3.57,3.43,6.07,3.43,.06,0,.13,0,.19,0,1.29-.04,2.34-1.11,2.34-2.4V13.13c0-1.3-1.01-2.35-2.3-2.4Zm.56,10.77h-4.38l-.23-.23c.15-.33,.24-.7,.24-1.08,0-1.44-1.17-2.62-2.62-2.62s-2.62,1.17-2.62,2.62,1.17,2.62,2.62,2.62c.42,0,.82-.1,1.17-.28l.71,.71h5.1v2.4h-6.48c-.36-1.02-1.33-1.75-2.47-1.75-1.44,0-2.62,1.17-2.62,2.62s1.17,2.62,2.62,2.62c1.14,0,2.1-.73,2.47-1.75h6.48v2.18h-5.1l-.86,.86c-.31-.13-.66-.21-1.02-.21-1.44,0-2.62,1.17-2.62,2.62s1.17,2.62,2.62,2.62,2.62-1.17,2.62-2.62c0-.44-.11-.86-.31-1.23l.3-.3h4.38v8.59c0,.35-.29,.65-.64,.66-.05,0-.1,0-.14,0-2.01,0-3.83-1.11-4.75-2.9l-.22-.43-.48-.04c-2.76-.22-4.92-2.56-4.92-5.33,0-.24,.02-.49,.07-.79l.07-.44-.32-.31c-1.03-1.01-1.6-2.37-1.6-3.81s.57-2.8,1.6-3.81l.32-.31-.07-.44c-.05-.31-.07-.56-.07-.8,0-2.78,2.17-5.12,4.94-5.33l.48-.04,.23-.42c.64-1.19,1.68-2.1,2.93-2.57,.59-.22,1.19-.33,1.8-.33,.05,0,.11,0,.16,0,.34,.01,.62,.3,.62,.65v8.38Zm-6.11-1.31c0,.48-.39,.87-.87,.87s-.87-.39-.87-.87,.39-.87,.87-.87,.87,.39,.87,.87Zm-1.96,6.33c0,.48-.39,.87-.87,.87s-.87-.39-.87-.87,.39-.87,.87-.87,.87,.39,.87,.87Zm1.96,6.33c0,.48-.39,.87-.87,.87s-.87-.39-.87-.87,.39-.87,.87-.87,.87,.39,.87,.87Z"/>
    <path class="cls-1" d="M31.65,21.16c0,.24-.02,.5-.07,.8l-.07,.44,.32,.31c1.03,1.01,1.6,2.37,1.6,3.81s-.57,2.8-1.6,3.81l-.32,.31,.07,.44c.04,.3,.07,.55,.07,.79,0,2.77-2.16,5.11-4.92,5.33l-.48,.04-.22,.43c-.92,1.79-2.74,2.9-4.75,2.9-.05,0-.1,0-.14,0-.35,0-.64-.31-.64-.66v-8.59h4.25l.38,.38c-.17,.35-.27,.74-.27,1.15,0,1.44,1.17,2.62,2.62,2.62s2.62-1.17,2.62-2.62-1.17-2.62-2.62-2.62c-.39,0-.77,.09-1.1,.25l-.9-.9h-4.98v-2.18h6.48c.36,1.02,1.33,1.75,2.47,1.75,1.44,0,2.62-1.17,2.62-2.62s-1.17-2.62-2.62-2.62c-1.14,0-2.1,.73-2.47,1.75h-6.48v-2.4h4.98l.76-.76c.37,.2,.8,.32,1.25,.32,1.44,0,2.62-1.17,2.62-2.62s-1.17-2.62-2.62-2.62-2.62,1.17-2.62,2.62c0,.35,.07,.69,.2,1l-.31,.31h-4.25v-3.93h-1.75v22.34c0,1.29,1.05,2.36,2.34,2.4,.06,0,.13,0,.19,0,2.5,0,4.79-1.3,6.07-3.43,3.43-.51,6.05-3.5,6.05-7.01,0-.2-.01-.4-.03-.61,1.17-1.3,1.82-2.97,1.82-4.74s-.64-3.43-1.82-4.74c.02-.22,.03-.43,.03-.63,0-1.3-.36-2.52-.98-3.58h-2.15c.86,.95,1.39,2.21,1.39,3.58Zm-4.18,10.83c.48,0,.87,.39,.87,.87s-.39,.87-.87,.87-.87-.39-.87-.87,.39-.87,.87-.87Zm1.96-6.33c.48,0,.87,.39,.87,.87s-.39,.87-.87,.87-.87-.39-.87-.87,.39-.87,.87-.87Zm-1.96-6.33c.48,0,.87,.39,.87,.87s-.39,.87-.87,.87-.87-.39-.87-.87,.39-.87,.87-.87Z"/>
    <path class="cls-1" d="M18.74,13.13v3.14h22.26V1H18.74V13.13Zm1.75-10.39h18.76v5.67h-6.22l-1.25-2.51-1.79,3.17-2.03-4.73-1.86,3.85h-5.61V2.75Zm0,10.39v-3.19h6.7l.67-1.38,1.9,4.44,1.92-3.38,.27,.54h7.3v4.36H20.49v-1.39Z"/>
  </g>
</svg>